<?xml version="1.0" encoding="utf-8"?>
<!-- Generator: Adobe Illustrator 23.0.3, SVG Export Plug-In . SVG Version: 6.00 Build 0)  -->
<svg version="1.1" id="Layer_1" xmlns="http://www.w3.org/2000/svg" xmlns:xlink="http://www.w3.org/1999/xlink" x="0px" y="0px"
	 viewBox="0 0 512 250" style="enable-background:new 0 0 512 250;" xml:space="preserve">
<style type="text/css">
	.st0{fill:none;}
	.st1{fill:#E2ECF1;}
	.st2{fill:#A4C2D1;}
	.st3{fill:#80A8BB;}
	.st4{fill:#000640;}
	.st5{fill:#2A3C58;}
	.st6{fill:#EF413E;}
	.st7{fill:#475B76;}
	.st8{fill:#F2F2F2;}
	.st9{fill:#F3D6B5;}
	.st10{fill:#FDD7BA;}
	.st11{fill:#FFFFFF;}
	.st12{fill:#CFD0D3;}
	.st13{opacity:0.58;fill:#E2ECF1;}
	.st14{fill:#A1A3A6;}
	.st15{fill:#D8E2E5;}
	.st16{opacity:0.5;fill:#464642;}
	.st17{fill:#24231E;}
	.st18{opacity:0.5;fill:#24231E;}
	.st19{fill:#010101;}
	.st20{opacity:0.5;fill:#401312;}
	.st21{opacity:0.5;fill:#2A3C58;}
	.st22{fill:none;stroke:#2A3C58;stroke-width:0;stroke-linecap:round;stroke-linejoin:round;}
	.st23{opacity:0.5;fill:none;stroke:#401312;stroke-width:0;stroke-linecap:round;stroke-linejoin:round;}
	.st24{opacity:0.5;fill:none;stroke:#464642;stroke-width:0;stroke-linecap:round;stroke-linejoin:round;}
	.st25{opacity:0.5;fill:none;stroke:#2A3C58;stroke-width:0;stroke-linecap:round;stroke-linejoin:round;}
	.st26{fill:#1C2A43;}
	.st27{fill:#B37D57;}
	.st28{fill:#C3895E;}
	.st29{fill:#7F8342;}
	.st30{fill:#1C2B44;}
	.st31{fill:#E0A577;}
	.st32{fill:#CE976E;}
	.st33{fill:#3B384D;}
	.st34{opacity:0.2;fill:#010101;}
	.st35{fill:#B22E2A;}
	.st36{fill:#6F4434;}
	.st37{fill:#3E3E3E;}
	.st38{fill:#616262;}
	.st39{fill:#575858;}
	.st40{fill:#482D23;}
	.st41{fill:#674031;}
	.st42{fill:#553528;}
	.st43{fill:#91732B;}
	.st44{fill:#D7A929;}
	.st45{fill:#0F7790;}
	.st46{opacity:0.2;fill:#FFFFFF;}
	.st47{fill:#AEAEAE;}
	.st48{fill:#F8983F;}
	.st49{fill:#E57E25;}
	.st50{fill:#A6832E;}
	.st51{fill:#D0AD50;}
	.st52{fill:#818181;}
	.st53{fill:#A3A3A2;}
	.st54{fill:#0CAACC;}
	.st55{fill:#814F3D;}
	.st56{fill:#BDBDBD;}
	.st57{fill:#FAAB62;}
	.st58{fill:#97663A;}
	.st59{fill:#744E2C;}
</style>
<path class="st0" d="M149.4,156.7c-0.1,0.1-0.2,0.1-0.2,0.2l-0.1,0.1l1.7,2l2.3-2.1c-0.3-0.3-0.5-0.5-0.7-0.6
	c-0.4-0.4-0.8-0.5-1.1-0.5c-0.2,0-0.5,0.1-0.9,0.4c-0.1,0-0.2,0.1-0.3,0.2s-0.2,0.2-0.3,0.3S149.5,156.6,149.4,156.7z"/>
<path class="st0" d="M140.6,169.9l-0.1-0.7c0.7,0,1.3-0.1,1.9-0.1l-0.5-0.1c-0.5-0.1-0.9-0.1-1.1-0.1c-0.3,0-0.5,0-0.7,0.1
	c-0.2,0.1-0.3,0.3-0.3,0.6v0.7c0,0.2,0,0.3,0,0.4c0,0.1,0,0.2,0.1,0.3c0.1,0.1,0.1,0.2,0.3,0.3h0.2h0.5h5.8c0-0.9-0.3-1.3-0.9-1.3
	H140.6z"/>
<polygon class="st0" points="162.3,162 162.3,157 158.1,159 "/>
<polygon class="st0" points="114.4,178.8 114.4,173.8 110.1,175.8 "/>
<polygon class="st0" points="125.2,173.8 121,175.8 125.2,178.8 "/>
<path class="st0" d="M117.3,73.1c0.1,0.1,0.1,0.2,0.2,0.3c0.1,0.1,0.1,0.2,0.1,0.3l0,0.1c0.1,0,0.3,0,0.4,0.1
	c0.2,0.1,0.4,0.1,0.5,0.2c0.2,0.1,0.3,0.1,0.5,0.2c0.1,0.1,0.3,0.1,0.4,0.2l0.2,0.1v-3.2h-4.9c0.5,0.2,0.7,0.4,0.9,0.4
	C116.5,72.3,117.1,72.8,117.3,73.1z"/>
<path class="st0" d="M105.8,155.7c-0.2,0-0.5,0.1-0.9,0.4c-0.1,0-0.2,0.1-0.3,0.2s-0.2,0.2-0.3,0.3s-0.2,0.2-0.3,0.3
	c-0.1,0.1-0.2,0.1-0.2,0.2l-0.1,0.1l1.7,2l2.3-2.1c-0.3-0.3-0.5-0.5-0.7-0.6C106.6,155.9,106.2,155.7,105.8,155.7z"/>
<polygon class="st0" points="102.7,35.6 102.7,31.1 99.1,32.9 "/>
<polygon class="st0" points="129.1,157 124.9,159 129.1,162 "/>
<path class="st0" d="M93.5,128.2c0.1,0.1,0.1,0.1,0.2,0.1c0.1,0,0.3,0,0.4,0c0.4,0,0.6,0,0.6-0.1c0.1-0.1,0.1-0.3,0.1-0.6
	c0-0.1,0-0.2,0-0.2c0,0,0-0.1,0-0.2c0-0.1,0-0.1,0-0.1c0,0,0-0.1-0.1-0.1c0,0-0.1-0.1-0.1-0.1c0,0-0.1,0-0.1,0c-0.1,0-0.1,0-0.2,0
	c-0.1,0-0.2,0-0.2,0c-0.2,0-0.3,0-0.4,0c-0.1,0-0.2,0-0.2,0.1s-0.1,0.1-0.1,0.1s0,0.1,0,0.2c0,0.1,0,0.2,0,0.3c0,0.2,0,0.3,0,0.4
	C93.4,128.1,93.4,128.2,93.5,128.2z"/>
<path class="st0" d="M117.3,140.3c0.1,0.1,0.1,0.2,0.2,0.3c0.1,0.1,0.1,0.2,0.1,0.3l0,0.1c0.1,0,0.3,0,0.4,0.1
	c0.2,0.1,0.4,0.1,0.5,0.2c0.2,0.1,0.3,0.1,0.5,0.2c0.1,0.1,0.3,0.1,0.4,0.2l0.2,0.1v-3.2h-4.9c0.5,0.2,0.7,0.4,0.9,0.4
	C116.5,139.5,117.1,140,117.3,140.3z"/>
<path class="st0" d="M94.2,123.7c0.4,0,0.6,0,0.6-0.1c0.1-0.1,0.1-0.3,0.1-0.6c0-0.2,0-0.3,0-0.4c0-0.1,0-0.1-0.1-0.2
	c-0.1-0.1-0.1-0.1-0.2-0.1c-0.1,0-0.2,0-0.4,0c-0.4,0-0.6,0-0.7,0.1s-0.1,0.3-0.1,0.6c0,0.3,0,0.5,0.1,0.6S93.8,123.7,94.2,123.7z"
	/>
<polygon class="st0" points="130.3,89.8 126.1,91.8 130.3,94.8 "/>
<path class="st0" d="M116.4,89c0.7,0.4,1,0.9,1,1.3l-0.1,1l2,0.9v-4h-4.5C115.1,88.3,115.7,88.6,116.4,89z"/>
<path class="st0" d="M59.2,72.7c-0.1,0.1-0.2,0.1-0.2,0.2L58.9,73l1.7,2l2.3-2.1c-0.3-0.3-0.5-0.5-0.7-0.6c-0.4-0.4-0.8-0.5-1.1-0.5
	c-0.2,0-0.5,0.1-0.9,0.4c-0.1,0-0.2,0.1-0.3,0.2s-0.2,0.2-0.3,0.3S59.3,72.6,59.2,72.7z"/>
<polygon class="st0" points="62.7,178.8 62.7,173.8 58.5,175.8 "/>
<path class="st0" d="M49.8,71.3h-4.5c0.5,0.2,1,0.5,1.7,0.9c0.7,0.4,1,0.9,1,1.3l-0.1,1l2,0.9V71.3z"/>
<path class="st0" d="M62.1,61c0.1,0.1,0.1,0.1,0.2,0.1c0.1,0,0.3,0,0.4,0c0.4,0,0.6,0,0.6-0.1c0.1-0.1,0.1-0.3,0.1-0.6
	c0-0.1,0-0.2,0-0.2c0,0,0-0.1,0-0.2c0-0.1,0-0.1,0-0.1c0,0,0-0.1-0.1-0.1c0,0-0.1-0.1-0.1-0.1c0,0-0.1,0-0.1,0c-0.1,0-0.1,0-0.2,0
	c-0.1,0-0.2,0-0.2,0c-0.2,0-0.3,0-0.4,0c-0.1,0-0.2,0-0.2,0.1s-0.1,0.1-0.1,0.1s0,0.1,0,0.2c0,0.1,0,0.2,0,0.3c0,0.2,0,0.3,0,0.4
	C62,60.9,62.1,61,62.1,61z"/>
<polygon class="st0" points="41.6,78 41.6,73 37.3,75 "/>
<path class="st0" d="M62.8,56.5c0.4,0,0.6,0,0.6-0.1c0.1-0.1,0.1-0.3,0.1-0.6c0-0.2,0-0.3,0-0.4c0-0.1,0-0.1-0.1-0.2
	c-0.1-0.1-0.1-0.1-0.2-0.1c-0.1,0-0.2,0-0.4,0c-0.4,0-0.6,0-0.7,0.1S62,55.4,62,55.7c0,0.3,0,0.5,0.1,0.6S62.4,56.5,62.8,56.5z"/>
<polygon class="st0" points="57.1,60.5 57.1,57.1 54.3,58.5 "/>
<path class="st0" d="M61,138.9c-0.2,0-0.5,0.1-0.9,0.3c-0.1,0-0.2,0.1-0.3,0.2c-0.1,0.1-0.2,0.2-0.3,0.3c-0.1,0.1-0.2,0.2-0.3,0.3
	c-0.1,0.1-0.2,0.1-0.2,0.2l-0.1,0.1l1.7,2l2.3-2.1c-0.3-0.3-0.5-0.5-0.7-0.6C61.8,139.1,61.4,138.9,61,138.9z"/>
<path class="st0" d="M104.3,89.9c0.1,0.1,0.1,0.2,0.2,0.3c0.1,0.1,0.1,0.2,0.1,0.3l0,0.1c0.1,0,0.3,0,0.4,0.1
	c0.2,0.1,0.4,0.1,0.5,0.2c0.2,0.1,0.3,0.1,0.5,0.2c0.1,0.1,0.3,0.1,0.4,0.2l0.2,0.1v-3.2h-4.9c0.5,0.2,0.7,0.4,0.9,0.4
	C103.5,89.1,104.1,89.6,104.3,89.9z"/>
<polygon class="st0" points="95,94.8 95,89.8 90.7,91.8 "/>
<polygon class="st0" points="49.3,94.8 49.3,89.8 45,91.8 "/>
<polygon class="st0" points="34,94.9 34,89.8 29.8,91.8 "/>
<polygon class="st0" points="64.3,35.5 64.3,31.2 60.7,32.9 "/>
<polygon class="st0" points="55.7,127.8 55.7,124.3 52.9,125.7 "/>
<path class="st0" d="M173.5,155.7c-0.2,0-0.5,0.1-0.9,0.4c-0.1,0-0.2,0.1-0.3,0.2c-0.1,0.1-0.2,0.2-0.3,0.3s-0.2,0.2-0.3,0.3
	s-0.2,0.1-0.2,0.2l-0.1,0.1l1.7,2l2.3-2.1c-0.3-0.3-0.5-0.5-0.7-0.6C174.2,155.9,173.9,155.7,173.5,155.7z"/>
<polygon class="st0" points="198.6,162 198.6,157 194.4,159 "/>
<path class="st0" d="M44.1,126l-0.2,0.1c0,0,0.1,0.1,0.1,0.2c0,0.1,0.1,0.2,0.3,0.5c0.1,0.2,0.3,0.4,0.4,0.6
	c0.1,0.2,0.3,0.3,0.4,0.4c0.2,0.1,0.3,0.2,0.4,0.2c0.2,0,0.5-0.1,0.8-0.3s0.5-0.4,0.7-0.6s0.3-0.4,0.3-0.5c0-0.1-0.1-0.2-0.2-0.4
	c-0.1-0.2-0.3-0.3-0.4-0.5c-0.2-0.2-0.3-0.4-0.5-0.5c-0.2-0.2-0.3-0.3-0.4-0.4c-0.1-0.1-0.1-0.1-0.2-0.2c0,0,0,0.1-0.1,0.1
	c0,0-0.1,0.1-0.2,0.2c-0.1,0.1-0.2,0.2-0.3,0.3c-0.1,0.1-0.3,0.3-0.5,0.4S44.3,126,44.1,126z"/>
<path class="st0" d="M65.9,157.1c0.1,0.1,0.1,0.2,0.2,0.3c0.1,0.1,0.1,0.2,0.1,0.3l0,0.1c0.1,0,0.3,0,0.4,0.1
	c0.2,0.1,0.4,0.1,0.5,0.2c0.2,0.1,0.3,0.1,0.5,0.2c0.1,0.1,0.3,0.1,0.4,0.2l0.2,0.1v-3.2h-4.9c0.5,0.2,0.7,0.4,0.9,0.4
	C65.1,156.3,65.6,156.8,65.9,157.1z"/>
<polygon class="st0" points="41.6,145.2 41.6,140.2 37.3,142.2 "/>
<path class="st0" d="M33.3,123.9c0.1,0.1,0.1,0.2,0.2,0.3c0.1,0.1,0.1,0.2,0.1,0.3l0,0.1c0.1,0,0.4,0.1,0.7,0.2
	c0.3,0.1,0.5,0.2,0.8,0.3l0.3,0.2v-3h-4.4c0.3,0.1,0.5,0.2,0.6,0.3C32.4,123.2,33,123.6,33.3,123.9z"/>
<path class="st0" d="M40.6,120.6C40.7,120.6,40.7,120.7,40.6,120.6c0.1,0.1,0.1,0.1,0.1,0.2c0,0,0.1,0.1,0.1,0.1h0.6h0.4h1.7
	c0-0.2,0.1-0.5,0.4-0.7c0.2-0.2,0.5-0.5,0.9-0.8l-2.2-0.4c-0.6-0.1-1.1-0.2-1.3-0.2c-0.3,0-0.5,0-0.6,0.1c-0.1,0.1-0.1,0.2-0.1,0.4
	v0.7c0,0,0,0.1,0,0.2c0,0.1,0,0.1,0,0.2c0,0,0,0.1,0,0.1s0,0.1,0,0.1C40.6,120.5,40.6,120.6,40.6,120.6z"/>
<path class="st0" d="M72,154.2c0.1,0.1,0.1,0.2,0.3,0.3h0.2h0.5h5.8c0-0.9-0.3-1.3-0.9-1.3h-5.3l-0.1-0.7c0.7,0,1.3-0.1,1.9-0.1
	l-0.5-0.1c-0.5-0.1-0.9-0.1-1.1-0.1c-0.3,0-0.5,0-0.7,0.1c-0.2,0.1-0.3,0.3-0.3,0.6v0.7c0,0.2,0,0.3,0,0.4
	C71.9,154,71.9,154.1,72,154.2z"/>
<path class="st0" d="M49.8,138.5h-4.5c0.5,0.2,1,0.5,1.7,0.9c0.7,0.4,1,0.9,1,1.3l-0.1,1l2,0.9V138.5z"/>
<polygon class="st0" points="56.5,162 56.5,157 52.3,159 "/>
<path class="st0" d="M141.6,89.3c0.2,0.1,0.4,0.2,0.5,0.3c0.1,0.1,0.2,0.2,0.4,0.4c0.1,0.2,0.2,0.4,0.2,0.6c0,0.4-0.2,0.8-0.5,1.1
	c-0.3,0.3-0.9,0.7-1.8,1.2l3.9,2.1v-6.8h-5C140.1,88.6,140.9,89,141.6,89.3z"/>
<path class="st0" d="M157.5,181.3c-0.1,0.2-0.2,0.3-0.2,0.5c0,0.1,0,0.2,0.1,0.3c0.1,0.1,0.2,0.1,0.3,0.2c0.1,0.1,0.2,0.1,0.3,0.1
	c0.1,0,0.2,0,0.3,0c0.1,0,0.2-0.1,0.3-0.2c0.1-0.1,0.2-0.3,0.2-0.4l0.1-0.2c-0.5-0.3-0.8-0.5-1.1-0.5
	C157.7,181,157.6,181.1,157.5,181.3z"/>
<polygon class="st0" points="142.4,145.3 142.4,140.2 138.1,142.2 "/>
<polygon class="st0" points="154.4,145.2 154.4,140.2 150.1,142.2 "/>
<polygon class="st0" points="142.4,78.1 142.4,73 138.1,75 "/>
<path class="st0" d="M153.6,89.7c0.1,0.1,0.2,0.2,0.4,0.4c0.1,0.2,0.2,0.4,0.2,0.6c0,0.4-0.2,0.8-0.5,1.1c-0.3,0.3-0.9,0.7-1.8,1.2
	l3.9,2.1v-6.8h-5c0.9,0.4,1.7,0.8,2.4,1.2C153.3,89.5,153.5,89.6,153.6,89.7z"/>
<polygon class="st0" points="154.4,78 154.4,73 150.1,75 "/>
<path class="st0" d="M320.3,203.9c0,0.5-0.1,1-0.3,1.4c10.8-0.2,22.9-0.3,35.8-0.3s25,0.1,35.8,0.3c-0.2-0.4-0.3-0.9-0.3-1.4v-1.5
	v-1.2c-2.9,0.5-5.8,0.8-8.9,0.8h-53.3c-3,0-6-0.3-8.9-0.8v1.2V203.9z"/>
<path class="st0" d="M393.5,115.9c-5.2,3.6-10.5,6.9-15.9,9.7c1.5,0.5,3,1.1,4.4,1.7L393.5,115.9z"/>
<path class="st0" d="M386.8,128.6c1.5,0.2,3.1,0.2,4.6,0c0.7-0.1,1.5-0.2,2.2-0.4c0.6-0.2,1.5-0.7,2.1-0.7c2-0.9,3.8-2.2,4.9-4
	s1.5-4.2,0.7-6.1c-0.1-0.2-0.1-0.3-0.3-0.4c-0.2-0.1-0.4-0.1-0.7-0.1c-0.8,0-1.5-0.3-2.2-0.7l-12.4,12.4
	C386.2,128.5,386.5,128.6,386.8,128.6z"/>
<path class="st0" d="M289.7,142.6v1.2c0.8-0.5,1.7-0.8,2.8-0.8c2.1,0,3.9,1.3,4.7,3.1c2.4-2.8,6-4.7,10-4.7c0.6,0,1.2,0,1.8,0.1
	c0.6-2.4,1.9-4.5,3.7-6.2c-8-2.3-15.7-6.2-22.9-11.7V142.6z"/>
<path class="st0" d="M181.2,143.3l3.9,2.1v-6.8h-5c0.9,0.4,1.7,0.8,2.4,1.2c0.2,0.1,0.4,0.2,0.5,0.3c0.1,0.1,0.2,0.2,0.4,0.4
	c0.1,0.2,0.2,0.4,0.2,0.6c0,0.4-0.2,0.8-0.5,1.1S182.1,142.8,181.2,143.3z"/>
<path class="st1" d="M358.5,118.1c-1.4-0.8-2.7-1.9-3.6-3.3c-4.3,1.5-8.8,2.1-13.5,1.9c-0.2,1.5-1.4,3-1.1,4.6
	c0.3,2.2,0.8,4.3,1.6,6.3c0.4,1.1,1,2.2,1.8,3c0.7,0.7,1.6,1.1,2.4,1.5c1.1,0.5,2.3,0.9,3.5,1.1c2.5,0.2,5-0.9,7.1-2.2
	c1.8-1.1,3.6-2.6,5.6-3.3v0c2.3-1.1,4.8-1.9,7.3-2.8c0-0.2,0-0.5,0-0.7c0-1.2-0.1-2.4-0.2-3.6c-2.4-0.2-4.9-0.5-7.2-1.2
	C361,119.2,359.7,118.7,358.5,118.1z"/>
<path class="st1" d="M504,88.7c-23.2-1.8-42.8-16-64.9-22.6c-13.4-4-28-3.6-39.2,3.6c-3.1,2-5.9,4.4-8.4,7.2
	c0.1,0.4,0.2,0.9,0.2,1.4c0,0.4-0.1,0.8-0.2,1.2c0.8,0.6,1.5,1.3,2.2,2.1c0.2-0.4,0.4-0.7,0.6-1.1c0.1-0.1,0.2-0.2,0.3-0.3
	c-0.6-0.2-1-0.8-1-1.4c0-0.8,0.7-1.5,1.5-1.5c0.8,0,1.5,0.6,1.5,1.4c0.9-0.3,1.8-0.5,2.8-0.3c2,0.3,3.8,2.5,4.9,4
	c0.9,1.3,1.5,2.8,2,4.3c0.7,1.8,1.3,3.6,1.6,5.5c0.4,2.8,0,5.7-1.2,8.3c-0.7-2.2-2.4-3.9-4.2-5.3c-0.8-0.7-1.7-1.3-2.6-1.9
	c-0.4-0.3-0.9-0.6-1.3-0.9c0.9,6.5-1.3,13.1-4.6,19c-1.1,1.9-2.2,3.7-3.8,5.2c-1.6,1.5-3.6,2.6-5.7,2.8c0.2-0.3,0.4-0.7,0.6-1
	c-0.9,0.4-1.9,0.8-2.9,1.1c-2,0.6-4.1,1-6.2,1.2c-0.4,0-0.9,0.1-1.3,0.1c0,1.4,0.1,2.8,0.1,4.2c0.4,0.1,0.7,0.2,1.1,0.3
	c0.6,0.2,1.1,0.3,1.7,0.5c5.4-2.8,10.7-6.1,15.9-9.7l3-3c0-0.5,0-1.1,0.2-1.6c0.1-0.3,0.3-0.7,0.6-0.9c0.4-0.3,1.1-0.3,1.5,0
	c0,0,0.1,0.1,0.1,0.1l10.2-10.2c0.6-0.6,1.7-0.6,2.3,0l0.1,0.1c0.1,0.1,0.2,0.3,0.3,0.5c0.6-0.5,1.2-1.1,1.7-1.6
	c24.3-23.4,56.5,13,98.3,15.6V88.8C509.4,88.9,506.8,88.9,504,88.7z"/>
<path class="st1" d="M267.4,51.6C261.2,35.2,254.6,17,255.7,0H239c-3.3,11.9-4.8,24.1-4,35.4c2.3,33.7,24,62.6,50,84.4V83.6
	C277.6,74,271.8,63.2,267.4,51.6z"/>
<path class="st1" d="M289.7,89.1v34.5c7.2,5.6,14.9,9.4,22.9,11.7c2.4-2.2,5.6-3.6,9.1-3.6c4.3,0,8.1,2.1,10.5,5.2
	c0.9-1.3,2.4-2.1,4.1-2.1c0.9,0,1.7,0.2,2.4,0.6c0.3-0.8,0.8-1.4,1.4-1.9c-0.9-0.9-1.7-2-2.2-3.2c-0.4-1-0.7-2-0.9-3
	c-0.6-2.2-1.1-4.4-1.7-6.7c-0.1-0.5-0.3-1.1-0.7-1.5c-0.3-0.3-0.7-0.5-1.1-0.6c-2-0.9-4-2-5.4-3.7c-0.2-0.2-0.3-0.4-0.5-0.6
	c-3.7-1.1-7.4-2.6-10.9-4.4C306.2,104.6,297.2,97.5,289.7,89.1z"/>
<path class="st2" d="M267.4,51.6c4.4,11.6,10.2,22.4,17.6,31.9v-18c0-3.8,1.3-7.5,3.7-10.4c0.9-1.1,2-2.1,3.1-2.9
	c-7.3-12.7-11.8-27.5-14.6-42.8c-0.6-3.1-1.2-6.3-1.4-9.5h-20.1C254.6,17,261.2,35.2,267.4,51.6z"/>
<path class="st2" d="M303.2,71.5c-1-1-1.3-2.6-1.1-4.6c-0.2-0.3-0.3-0.7-0.4-1c-2.7-3-5.2-6.3-7.4-9.7c-0.7,0.5-1.4,1.2-2,1.9
	c-1.7,2.1-2.7,4.7-2.7,7.4v23.6c7.6,8.4,16.5,15.5,27,20.8c3.5,1.8,7.2,3.3,10.9,4.4c-1.4-1.9-2-4-1.9-6.4c0-0.8,0.2-1.8,1-2
	c0.5-0.2,0.9,0,1.2,0.2c0.2-0.6,0.6-1,1.2-1c0.6,0,1.1,0.4,1.2,1c0,0,0,0,0,0c1.2,0,2.3,1,2.3,2.3c0,0.4-0.1,0.7-0.2,1
	c0.1,0,0.2,0,0.2,0c0.7,0,1.3,0.6,1.3,1.3c0,0.4-0.2,0.8-0.5,1c0.4,0.1,0.7,0.4,0.9,0.8c0,0,0.1,0,0.1,0.1c0.2-0.9,0.9-1.5,1.8-1.5
	c0.8,0,1.5,0.6,1.7,1.3c0.5-1.4-0.2-4.1,1.2-4.8c0.2-0.3,0.6-0.5,1-0.5c0.7,0,1.3,0.6,1.3,1.3c0,0.6-0.5,1.1-1,1.3
	c-0.1,0.9-0.1,1.8,0,2.8c0.1,1.2,0.5,1.8,0.9,2.8c0.2,0.5,0.2,1,0.2,1.5c4.6,0.2,9.2-0.4,13.5-1.9c-0.4-0.6-0.7-1.2-1-1.9
	c-0.7-0.4-1.3-1-1.8-1.6c-1.1-1.3-2-2.8-2.8-4.4c0.9,0.1,1.6-0.7,2.1-1.5c1.4-2.4,2-5.2,2.5-8c0.3-1.8,0.6-4.9,1.5-7.5
	c-0.7-0.4-1.3-0.9-2-1.5c-7.7,0.8-15.9-0.6-23.2-3.4c-8.5-3.1-15.6-7.4-21.7-12.6C306.2,72.9,304.3,72.7,303.2,71.5z M338.8,102.5
	c0.7,0,1.3,0.6,1.3,1.3c0,0.7-0.6,1.3-1.3,1.3s-1.3-0.6-1.3-1.3C337.5,103.1,338.1,102.5,338.8,102.5z M336.6,108.7
	c0,0.7-0.6,1.3-1.3,1.3c-0.7,0-1.3-0.6-1.3-1.3c0-0.7,0.6-1.3,1.3-1.3C336,107.4,336.6,108,336.6,108.7z M333.1,102.9
	c0.7,0,1.3,0.6,1.3,1.3s-0.6,1.3-1.3,1.3c-0.7,0-1.3-0.6-1.3-1.3S332.3,102.9,333.1,102.9z"/>
<path class="st2" d="M437.3,39c-11.8-2.1-24.6-0.6-34.3,6.2c-6.2,4.3-10.8,10.4-15.2,16.7c0.6,0.5,1,1.2,1,2c0,1.4-1.2,2.6-2.6,2.6
	c-0.5,0-1-0.2-1.4-0.4c-0.6,0.9-1.2,1.8-1.9,2.6c0.8,0.5,1.5,1.2,1.9,2c0.6-0.5,1.4-0.8,2.2-0.8c1.9,0,3.5,1.6,3.5,3.5
	c0,0.5-0.1,1-0.3,1.5c0.6,0.5,1.1,1.2,1.4,1.9c2.5-2.7,5.3-5.2,8.4-7.2c11.2-7.2,25.8-7.6,39.2-3.6c22.1,6.6,41.7,20.8,64.9,22.6
	c2.7,0.2,5.4,0.3,8,0.1V49c-5.6,1.9-11.5,2.9-17.7,3.1C474,52.5,456.7,42.5,437.3,39z"/>
<path class="st3" d="M277.2,9.5c2.9,15.3,7.3,30.1,14.6,42.8c3.8-2.7,8.6-3.7,13.2-2.6c0.5-0.6,1-1.2,1.6-1.8
	c4.8-4.8,11.4-6.7,16.8-5.3c0.8,0.2,1.5,0.5,2.2,0.8c1.9-0.3,3.5,0,4.5,1.1c3.2,3.2-0.3,11.8-7.8,19.2c-4.8,4.8-10,7.9-14,8.7
	c6.1,5.2,13.3,9.5,21.7,12.6c7.4,2.7,15.5,4.1,23.2,3.4c-0.4-0.4-0.8-0.7-1.2-1.2c-3.4-3.7-1.9-6.7,2.3-8.7c5.1-2.4,10.4-4.8,16-5.6
	c0.5-0.6,1.3-1.1,2.2-1.2c0,0,0,0,0,0c0-1.4,1.2-2.6,2.6-2.6c0.6,0,1.1,0.2,1.5,0.5c0.9-0.9,2.2-1.5,3.6-1.5c0.9,0,1.8,0.2,2.5,0.7
	c0.6-0.9,1.3-1.7,1.9-2.6c-0.7-0.5-1.2-1.3-1.2-2.2c0-1.4,1.2-2.6,2.6-2.6c0.6,0,1.2,0.2,1.6,0.6c4.4-6.3,9-12.3,15.2-16.7
	c9.8-6.8,22.6-8.4,34.3-6.2c19.4,3.5,36.7,13.5,57,13.1c6.2-0.1,12.1-1.2,17.7-3.1V0H275.8C276.1,3.2,276.6,6.3,277.2,9.5z
	 M369.4,68.1c0.8,0,1.5,0.7,1.5,1.5c0,0.8-0.7,1.5-1.5,1.5c-0.8,0-1.5-0.7-1.5-1.5C367.8,68.8,368.5,68.1,369.4,68.1z M351.3,75.8
	c0.7-0.2,1.4-0.6,2-1c1.6-1,3.2-1.9,4.9-2.7c1.9-0.9,3.9-1.7,6-1.5c1.2,0.1,2.8,0.7,4,1.6c-5.1,1.1-10,3.3-14.7,5.5
	c-1.4,0.7-2.5,1.4-3.3,2.3c-1.2-1.4-1.9-3.1-2.4-4.9C348.8,75.9,350.2,76.1,351.3,75.8z"/>
<path class="st3" d="M301.3,64.8c-0.9-3.4-0.5-7.2,1.1-10.8c-2.9-0.3-5.8,0.5-8.2,2.3c2.2,3.4,4.7,6.7,7.4,9.7
	C301.6,65.5,301.4,65.2,301.3,64.8z"/>
<path class="st4" d="M34.8,61.2c-0.4,0.4-1,0.6-1.7,0.6c-0.3,0-0.7-0.1-1.1-0.4c-0.4-0.3-0.8-0.7-1.1-1.2l-1.3-1.9l-1,0.5l0.1,0.4
	c0.1,0.2,0.2,0.6,0.4,1c0.2,0.4,0.4,0.9,0.7,1.3c0.9,1.3,2.1,2,3.5,2c0.6,0,1.3-0.2,1.9-0.6c0.6-0.4,1.2-0.9,1.7-1.6
	c0.5-0.7,0.7-1.2,0.7-1.7c0-0.4-0.1-0.8-0.3-1.2c-0.2-0.4-0.5-0.7-0.8-0.8c0,0,0.1-0.1,0.1-0.1c0-0.1,0.1-0.1,0.1-0.2
	c0-0.1,0-0.2,0.1-0.3c0-0.1,0-0.2,0-0.3c0-0.1,0-0.2,0-0.3c0-0.1,0-0.2,0-0.3c0-0.1,0-0.2,0-0.2c0-0.2,0-0.5,0-0.9
	c0-0.4-0.3-0.7-0.8-0.9c-0.5-0.2-1.2-0.3-2-0.3l-0.6,0.6L33,54.1c-0.3-0.1-0.6-0.2-0.9-0.3s-0.6-0.2-0.8-0.2c-0.2,0-0.4,0-0.5,0.1
	c-0.1,0-0.3,0.1-0.4,0.3c-0.1,0.1-0.2,0.3-0.4,0.5c-0.2,0.3-0.3,0.5-0.4,0.9c-0.1,0.3-0.2,0.6-0.2,0.9c0,0.1,0,0.2,0,0.2
	s0.1,0.2,0.1,0.2c0.1,0.1,0.1,0.1,0.2,0.2c0.1,0.1,0.1,0.1,0.2,0.2s0.2,0.1,0.3,0.2c0.1,0,0.2,0.1,0.3,0.1s0.2,0.1,0.3,0.1
	s0.2,0.1,0.3,0.1c0.1,0.1,0.2,0.1,0.3,0.1c0.1,0,0.2,0.1,0.2,0.1c0.1,0,0.1,0.1,0.1,0.1s0,0.1,0.1,0.1c0,0.1,0,0.1,0,0.2
	c0,0,0,0.1,0,0.1s-0.1,0.1-0.1,0.1c0,0-0.1,0.1-0.1,0.1c-0.1,0-0.1,0.1-0.2,0.1c-0.1,0-0.1,0.1-0.2,0.1c-0.1,0-0.1,0.1-0.2,0.1
	c0,0-0.1,0-0.1,0.1c0,0-0.1,0-0.1,0.1c0,0,0,0,0,0l0.6,1l0.1,0c0.1,0,0.1-0.1,0.3-0.1c0.1-0.1,0.2-0.1,0.3-0.2s0.3-0.1,0.4-0.2
	c0.1-0.1,0.2-0.2,0.3-0.3c0.1-0.1,0.2-0.2,0.3-0.3s0.1-0.2,0.1-0.3c0-0.4,0-0.7-0.1-1c0-0.1,0-0.1-0.1-0.2c0-0.1,0-0.1,0-0.2
	c0,0,0-0.1,0-0.1c0-0.1,0-0.1,0-0.1c0,0,0-0.1,0-0.1s0-0.1-0.1-0.1c0,0,0,0-0.1-0.1c0,0-0.1-0.1-0.1-0.1c0,0-0.1,0-0.1-0.1
	c0,0-0.1,0-0.2-0.1c0,0-0.1,0-0.2-0.1c-0.1,0-0.2-0.1-0.3-0.1c-0.1,0-0.1-0.1-0.3-0.1c-0.1,0-0.2-0.1-0.3-0.1
	c-0.1,0-0.1-0.1-0.2-0.1C31.1,56.1,31,56,31,56c0,0,0-0.1,0-0.1c0-0.1,0-0.3,0.1-0.4c0.1-0.2,0.2-0.2,0.3-0.2c0.3,0,1,0.2,2.1,0.6
	l0.7-0.7c0.5,0,0.8,0,1,0.1c0.2,0.1,0.2,0.3,0.2,0.6c0,0,0,0,0,0.1c0,0,0,0,0,0.1c0,0.3-0.1,0.6-0.2,0.7C35,56.9,34.9,57,34.6,57h-1
	v1.4h1.3c0.3,0,0.5,0.1,0.7,0.4c0.2,0.2,0.3,0.5,0.3,0.7C35.9,59.9,35.6,60.5,34.8,61.2z"/>
<path class="st4" d="M52.1,57.7V59l5,3.6h1.7v-7.4h1.1v-1.5h-8.1h-0.4H38v1.5h4.8v3.7l0.1,0c0,0,0.1,0,0.2,0c0.1,0,0.2,0,0.3,0
	c0.1,0,0.2,0,0.3,0s0.2,0,0.3,0c0.1,0,0.2,0,0.4,0s0.2,0,0.4,0c0.1,0,0.2,0,0.3,0s0.2,0,0.3,0c0.3,0,0.5,0,0.7,0
	c0.1,0,0.2,0,0.3,0.1c0.1,0.1,0.1,0.2,0.1,0.3c0,0.1-0.1,0.3-0.3,0.6c-0.2,0.3-0.5,0.5-0.8,0.8c-0.5,0.4-0.9,0.6-1.2,0.6
	c-0.3,0-0.6-0.1-0.9-0.3c-0.3-0.2-0.6-0.5-0.9-0.8c-0.6-0.8-1.5-1.9-2.6-3.3l-1,0.5l0.2,0.5c0.1,0.3,0.4,0.8,0.8,1.5
	c0.4,0.6,0.8,1.3,1.3,2c0.4,0.5,0.9,0.9,1.4,1.2c0.5,0.3,1,0.4,1.5,0.4c0.2,0,0.4,0,0.5,0c0.2,0,0.3-0.1,0.5-0.2
	c0.2-0.1,0.3-0.2,0.4-0.3s0.3-0.2,0.5-0.4c0.6-0.5,1.1-1,1.5-1.6c0.4-0.6,0.6-1.2,0.6-1.7c0-0.2,0-0.3-0.1-0.5
	c-0.1-0.1-0.2-0.2-0.3-0.3c-0.1-0.1-0.3-0.1-0.4-0.2c-0.1,0-0.3-0.1-0.6-0.1c-0.2,0-0.4,0-0.6,0c-0.1,0-0.3,0-0.6,0
	c-0.3,0-0.7,0-1,0.1v-0.9l0.2,0c0.1,0,0.3,0.1,0.5,0.1c0.2,0,0.4,0.1,0.7,0.1c0.3,0.1,0.5,0.1,0.8,0.2c0.3,0.1,0.5,0.1,0.8,0.2
	c0.2,0.1,0.5,0.1,0.7,0.2c0.2,0.1,0.4,0.1,0.5,0.1c0.2,0.1,0.4,0.2,0.5,0.3c0.1,0.1,0.1,0.3,0.1,0.4c0,0.2,0,0.4-0.1,0.6
	c-0.3,0.8-0.8,2.3-1.5,4.3h1.7l1.5-4.5c0.1-0.2,0.1-0.4,0.1-0.6c0-0.9-0.7-1.5-2.2-2c-0.8-0.2-2.2-0.5-4.1-0.6v-0.2h6.9h0.4h5.3v0.3
	L52.1,57.7z M57.1,60.5l-2.8-2.1l2.8-1.3V60.5z"/>
<path class="st4" d="M62.8,57.9c0.7,0,1.3-0.1,1.6-0.4s0.5-0.8,0.5-1.6c0-0.4,0-0.7-0.1-0.9s-0.1-0.5-0.2-0.6
	c-0.1-0.2-0.2-0.3-0.4-0.4s-0.4-0.1-0.6-0.2c-0.2,0-0.5,0-0.8,0c-0.4,0-0.7,0-0.9,0.1c-0.2,0.1-0.5,0.2-0.6,0.3s-0.3,0.4-0.4,0.7
	c-0.1,0.3-0.1,0.6-0.1,1.1c0,0.8,0.2,1.3,0.5,1.6C61.5,57.7,62.1,57.9,62.8,57.9z M62.1,55.2c0.1-0.1,0.3-0.1,0.7-0.1
	c0.2,0,0.3,0,0.4,0c0.1,0,0.2,0.1,0.2,0.1c0.1,0.1,0.1,0.1,0.1,0.2c0,0.1,0,0.2,0,0.4c0,0.3,0,0.5-0.1,0.6c-0.1,0.1-0.3,0.1-0.6,0.1
	c-0.4,0-0.6,0-0.7-0.1S62,56.1,62,55.7C62,55.4,62.1,55.2,62.1,55.2z"/>
<path class="st4" d="M61.2,62.1c0.3,0.3,0.9,0.5,1.6,0.5c0.4,0,0.7,0,0.9-0.1s0.5-0.2,0.6-0.3c0.2-0.2,0.3-0.4,0.4-0.6
	c0.1-0.3,0.1-0.6,0.1-1c0-0.4,0-0.8-0.1-1.1c-0.1-0.3-0.2-0.5-0.4-0.7s-0.4-0.3-0.6-0.3c-0.2-0.1-0.5-0.1-0.9-0.1
	c-0.4,0-0.7,0-0.9,0.1c-0.2,0.1-0.5,0.2-0.6,0.3s-0.3,0.4-0.4,0.7c-0.1,0.3-0.1,0.7-0.1,1.1C60.7,61.3,60.9,61.8,61.2,62.1z
	 M62,60.2c0-0.1,0-0.1,0-0.2s0.1-0.1,0.1-0.1s0.1,0,0.2-0.1c0.1,0,0.2,0,0.4,0c0.1,0,0.2,0,0.2,0c0.1,0,0.1,0,0.2,0
	c0.1,0,0.1,0,0.1,0c0,0,0.1,0,0.1,0.1c0,0,0,0.1,0.1,0.1c0,0,0,0.1,0,0.1c0,0.1,0,0.1,0,0.2c0,0,0,0.1,0,0.2c0,0.3,0,0.5-0.1,0.6
	c-0.1,0.1-0.3,0.1-0.6,0.1c-0.2,0-0.3,0-0.4,0c-0.1,0-0.2-0.1-0.2-0.1C62.1,61,62,60.9,62,60.8c0-0.1,0-0.2,0-0.4
	C62,60.3,62,60.2,62,60.2z"/>
<path class="st4" d="M38.2,78.1h-0.9c-0.1,0-0.2,0-0.2,0c0,0,0,0.1,0,0.2v0.9c0,0.1,0,0.1,0,0.2c0,0,0.1,0,0.2,0h0.9
	c0.1,0,0.2,0,0.2,0s0-0.1,0-0.2v-0.9c0-0.1,0-0.1,0-0.2c0,0,0,0-0.1-0.1C38.3,78.1,38.3,78.1,38.2,78.1z"/>
<path class="st4" d="M50.8,79.4v-8h1.1v-0.9h-8.3h-0.3h-7.9h-0.4h-0.9l-0.4-0.9h-0.6l0.1,0.9v1l-0.6-0.2c-0.4-0.1-0.8-0.3-1.4-0.4
	c-0.6-0.1-1-0.2-1.4-0.2c-0.4,0-0.7,0.1-1,0.3c-0.2,0.1-0.4,0.4-0.6,0.9c-0.2,0.5-0.4,0.9-0.4,1.2c0,0.1,0.1,0.3,0.2,0.4
	c0.2,0.2,0.8,0.5,1.6,0.8c0.3,0.1,0.5,0.2,0.6,0.2c0.1,0.1,0.2,0.2,0.3,0.3c0.1,0.1,0.1,0.3,0.1,0.5c0,0,0,0.1-0.1,0.2
	c-0.1,0.1-0.1,0.2-0.2,0.2c-0.1,0.1-0.2,0.2-0.4,0.3c-0.1,0.1-0.3,0.2-0.4,0.3c-0.1,0.1-0.2,0.2-0.3,0.2s-0.2,0.1-0.2,0.2
	s-0.1,0.1-0.1,0.1l0.4,0.7l0.1,0c0,0,0.1-0.1,0.2-0.1c0.1-0.1,0.2-0.1,0.3-0.2s0.2-0.1,0.4-0.2s0.3-0.2,0.4-0.3s0.3-0.2,0.4-0.3
	s0.2-0.2,0.3-0.3c0.1-0.1,0.2-0.2,0.2-0.3c0.1-0.1,0.1-0.2,0.1-0.2c0-0.2,0-0.4-0.1-0.7s-0.1-0.5-0.2-0.6c-0.1-0.2-0.1-0.3-0.3-0.4
	s-0.3-0.2-0.5-0.3c-0.2-0.1-0.4-0.1-0.7-0.2s-0.5-0.2-0.7-0.3s-0.2-0.2-0.2-0.3c0-0.2,0.1-0.4,0.3-0.7c0.2-0.3,0.4-0.4,0.5-0.4
	c0,0,0.1,0,0.2,0s0.1,0,0.2,0c0.1,0,0.2,0,0.2,0c0.1,0,0.2,0,0.2,0c0.1,0,0.2,0,0.2,0c0.1,0,0.1,0,0.2,0s0.1,0,0.2,0l1.9,0.4v7h1v-8
	h0.7h0.4h6.1v0.6l-5.3,2.4v1.2l5.3,3.8h1l0-8h0.7h0.3h1.1l-0.2,0.5c0,0,0.1,0.1,0.4,0.2s0.5,0.3,0.9,0.5c0.4,0.2,0.7,0.4,0.9,0.6
	c0.2,0.1,0.3,0.3,0.3,0.5c0,0,0,0.2-0.1,0.6l-0.5,0c-0.5,0-0.9,0.3-1.3,1c-0.2,0.4-0.3,0.8-0.3,1.2c0,0.3,0.2,0.6,0.5,0.9
	c0.3,0.3,0.8,0.5,1.3,0.8l0.4-0.5l-1.1-1c-0.1-0.1-0.1-0.2-0.1-0.3c0-0.2,0.1-0.4,0.2-0.7c0.2-0.3,0.4-0.4,0.6-0.4
	c0.2,0,1.3,0.4,3.3,1.1v3.1H50.8z M41.6,78L37.3,75l4.2-2V78z M47.8,74.5l0.1-1c0-0.5-0.3-0.9-1-1.3c-0.7-0.4-1.2-0.7-1.7-0.9h4.5v4
	L47.8,74.5z"/>
<path class="st4" d="M57,73.3l0.5,0.7l0.6-0.4l2,2.5l0.6,0.1l2.8-2.6l0.3,0.3v5.6h1v-8h0.8h0.4h1v8h1v-8h0.4h0.3H70v8h1v-8h0.6v-0.9
	H71c-0.1-0.1-0.2-0.2-0.3-0.3c-0.1-0.1-0.1-0.2-0.1-0.3c0-0.1,0-0.2,0-0.4v-0.7c0-0.3,0.1-0.5,0.3-0.6c0.2-0.1,0.4-0.1,0.7-0.1
	c0.2,0,0.6,0,1.1,0.1l5.7,1.2l0.2-0.7L78,68.5c-0.4-0.1-0.9-0.3-1.6-0.4c-0.7-0.2-1.3-0.3-1.8-0.5c-0.6-0.1-1-0.2-1.3-0.3
	c-0.3-0.1-0.6-0.1-1-0.2s-0.7-0.1-1-0.1c-0.6,0-1,0.1-1.3,0.4c-0.3,0.3-0.5,0.7-0.5,1.2v0.8c0,0.5,0.1,0.9,0.4,1.1l-1.1-0.1h0h-0.3
	H68l-0.3-0.8h-0.6l0.1,0.9l-0.6-0.1h-0.4h-0.4h-1l-0.4-0.9h-0.6l0.1,0.9v2.1l-0.3-0.3c-0.2-0.2-0.4-0.4-0.7-0.6
	c-0.3-0.2-0.5-0.4-0.7-0.6c-0.4-0.3-0.8-0.4-1.2-0.4c-0.4,0-0.8,0.2-1.3,0.5C58.9,71.6,58,72.3,57,73.3z M60.1,72
	c0.4-0.2,0.7-0.4,0.9-0.4c0.3,0,0.7,0.2,1.1,0.5c0.2,0.2,0.4,0.4,0.7,0.6L60.6,75l-1.7-2l0.1-0.1c0.1-0.1,0.1-0.1,0.2-0.2
	c0.1-0.1,0.2-0.2,0.3-0.3s0.2-0.2,0.3-0.3S60.1,72.1,60.1,72z"/>
<path class="st4" d="M91.6,76.6c-0.4,0.5-0.9,0.8-1.3,1c-0.3,0.1-0.5,0.2-0.9,0.2c-0.7,0-1.4-0.4-2-1.1L85,73.9l-0.5,0.4
	c0,0,0.1,0.2,0.3,0.5c0.2,0.3,0.5,0.8,0.9,1.3c0.4,0.5,0.7,0.9,1,1.3c0.5,0.5,1,0.9,1.4,1.1c0.4,0.2,0.9,0.3,1.4,0.3
	c0.4,0,0.8-0.1,1.2-0.3c0.6-0.3,1.2-0.7,1.7-1.2c0.5-0.5,0.9-1.1,1.1-1.8c0.1-0.4,0.2-0.8,0.2-1.2c0-0.7-0.2-1.2-0.6-1.6
	c-0.4-0.4-1.1-0.6-2-0.6c-0.7,0-1.7,0.1-3.2,0.3l0.1,0.7h2.9c0.6,0,1.1,0.1,1.4,0.3s0.4,0.5,0.4,0.9c0,0.3-0.1,0.7-0.2,1
	C92.3,75.7,92.1,76.1,91.6,76.6z"/>
<path class="st4" d="M94.9,70.5H84.3h-0.7H81h-0.9h-7.7v0.9H79v3c0,0-0.2-0.1-0.6-0.3c-0.4-0.2-0.9-0.4-1.5-0.5
	c-0.6-0.2-1-0.3-1.3-0.3c-0.3,0-0.6,0-0.9,0.1c-0.2,0.1-0.5,0.2-0.7,0.4c-0.4,0.4-0.6,0.8-0.6,1.5c0,0.6,0.2,1.2,0.6,1.6
	c0.2,0.2,0.6,0.5,1.3,1l0.5-0.6l-0.2-0.2c-0.2-0.1-0.3-0.3-0.6-0.6c-0.2-0.2-0.4-0.5-0.5-0.6c0,0,0-0.1,0-0.1c0,0,0-0.1,0-0.1
	c0,0,0-0.1,0-0.1c0,0,0-0.1,0-0.1s0-0.1,0-0.2c0-0.1,0-0.1,0-0.2c0-0.1,0-0.1,0.1-0.2c0-0.1,0-0.1,0.1-0.1c0,0,0.1-0.1,0.1-0.1
	c0,0,0.1-0.1,0.1-0.1c0,0,0.1-0.1,0.1-0.1c0,0,0.1-0.1,0.1-0.1c0.1,0,0.1,0,0.2,0c0.1,0,0.1,0,0.2,0c0.2,0,0.4,0,0.8,0.1
	c0.3,0.1,0.6,0.1,0.9,0.2c0.3,0.1,0.6,0.2,0.9,0.3c0.3,0.1,0.6,0.2,0.7,0.2s0.2,0.1,0.3,0.1v4h1v-8h0.1H81h1.3l-0.1,0.2
	c-0.7,1.8-1.1,3.4-1.1,4.7c0,0.6,0.1,1,0.3,1.4c0.2,0.4,0.6,0.7,1.1,1c0.4,0.2,1.1,0.6,2.1,1.1l0.3-0.6L83,77.8
	c-0.3-0.2-0.6-0.5-0.7-0.7c-0.1-0.3-0.2-0.6-0.2-1c0-0.4,0-0.9,0.1-1.4c0.1-0.5,0.2-0.9,0.3-1.3c0.1-0.3,0.2-0.7,0.3-1.1
	s0.2-0.6,0.3-0.7s0.1-0.2,0.1-0.3h0.3h0.7h10.6V70.5z"/>
<path class="st4" d="M110.1,70.5h-0.3h-1l-0.4-0.9h-0.6l0.1,0.9v1l-0.6-0.2c-0.4-0.1-0.8-0.3-1.4-0.4c-0.6-0.1-1-0.2-1.4-0.2
	c-0.4,0-0.7,0.1-1,0.3c0,0,0,0,0,0l-0.2-0.5h-2.3c0,0,0,0.1-0.1,0.5c-0.1,0.3-0.2,0.7-0.4,1.2c-0.1,0.5-0.3,1-0.4,1.6
	c-0.1,0.5-0.3,1.1-0.4,1.6c-0.1,0.5-0.1,0.9-0.1,1.2c0,0.5,0.1,1,0.3,1.3c0.2,0.3,0.6,0.7,1.1,1c0.1,0.1,0.3,0.1,0.5,0.2
	c0.2,0.1,0.4,0.2,0.6,0.3s0.4,0.2,0.6,0.2c0.2,0.1,0.4,0.1,0.5,0.2c0.1,0,0.1,0.1,0.2,0.1l0.3-0.6l-2.1-1.2
	c-0.2-0.1-0.4-0.3-0.6-0.5c-0.1-0.2-0.2-0.3-0.3-0.5c0-0.2-0.1-0.4-0.1-0.6c0-0.5,0.1-1.2,0.3-2.1c0.2-0.9,0.4-1.5,0.5-1.9
	s0.2-0.7,0.3-1h1.4c-0.1,0.1-0.2,0.3-0.3,0.5c-0.2,0.5-0.4,0.9-0.4,1.2c0,0.1,0.1,0.3,0.2,0.4c0.2,0.2,0.8,0.5,1.6,0.8
	c0.3,0.1,0.5,0.2,0.6,0.2c0.1,0.1,0.2,0.2,0.3,0.3c0.1,0.1,0.1,0.3,0.1,0.5c0,0,0,0.1-0.1,0.2c-0.1,0.1-0.1,0.2-0.2,0.2
	c-0.1,0.1-0.2,0.2-0.4,0.3c-0.1,0.1-0.3,0.2-0.4,0.3c-0.1,0.1-0.2,0.2-0.3,0.2s-0.2,0.1-0.2,0.2s-0.1,0.1-0.1,0.1l0.4,0.7l0.1,0
	c0,0,0.1-0.1,0.2-0.1c0.1-0.1,0.2-0.1,0.3-0.2s0.2-0.1,0.4-0.2s0.3-0.2,0.4-0.3s0.3-0.2,0.4-0.3s0.2-0.2,0.3-0.3
	c0.1-0.1,0.2-0.2,0.2-0.3c0.1-0.1,0.1-0.2,0.1-0.2c0-0.2,0-0.4-0.1-0.7s-0.1-0.5-0.2-0.6c-0.1-0.2-0.1-0.3-0.3-0.4s-0.3-0.2-0.5-0.3
	c-0.2-0.1-0.4-0.1-0.7-0.2s-0.5-0.2-0.7-0.3s-0.2-0.2-0.2-0.3c0-0.2,0.1-0.4,0.3-0.7c0.2-0.3,0.4-0.4,0.5-0.4c0,0,0.1,0,0.2,0
	s0.1,0,0.2,0c0.1,0,0.2,0,0.2,0c0.1,0,0.2,0,0.2,0c0.1,0,0.2,0,0.2,0c0.1,0,0.1,0,0.2,0s0.1,0,0.2,0l1.9,0.4v7h1v-8h0.8h0.3h1v8h1
	v-8h0.4h0.3h1.4l-0.3,0.5l1.4,1c0.7,0.5,1.1,1,1.1,1.3c0,0.2-0.1,0.4-0.2,0.7c-0.5,1.3-0.9,1.9-1.3,1.9c-0.1,0-0.7-0.1-1.5-0.4
	l-0.2,0.8l0.3,0.2c0.2,0.1,0.5,0.2,0.8,0.3c0.3,0.1,0.6,0.2,0.8,0.2c0.4,0,0.8-0.2,1-0.6c0.3-0.4,0.6-0.9,0.9-1.7
	c0.1-0.2,0.1-0.3,0.2-0.4c0.1-0.1,0.2-0.1,0.2-0.2c0.1,0,0.1,0,0.2,0c0.3,0,0.9,0.2,1.7,0.7v3.7h1v-8h0.6h0.4h8.1v2.1l-0.1-0.1
	c0-0.1-0.2-0.1-0.3-0.2c-0.2-0.1-0.4-0.1-0.6-0.1c-0.5,0-1,0.1-1.3,0.2s-0.6,0.4-0.7,0.8c-0.1-0.4-0.4-0.7-0.8-0.8
	c-0.4-0.1-1-0.2-1.7-0.2c-0.2,0-0.5,0-0.7,0.1c-0.2,0.1-0.4,0.1-0.6,0.3s-0.4,0.3-0.5,0.6s-0.2,0.6-0.2,1c0,0.5,0.1,1,0.3,1.6
	s0.3,0.9,0.4,1.1s0.2,0.3,0.3,0.4l0.6-0.2c-0.4-1.3-0.5-2.1-0.5-2.6c0-0.7,0.3-1.1,1-1.1c0.8,0,1.3,0.1,1.5,0.3
	c0.2,0.2,0.4,0.7,0.4,1.5l0,0.7h0.8l0.2-1.1c0.1-0.5,0.2-0.9,0.5-1c0.2-0.2,0.6-0.3,1.1-0.3c0.3,0,0.5,0.1,0.6,0.2
	c0.1,0.1,0.2,0.3,0.3,0.5c0,0.2,0,0.4,0,0.6v4h1v-8h1.1v-0.9h-10.2h-0.4h-8.3h-0.3H112l-0.3-0.8h-0.6l0.1,0.9l-0.6-0.1H110.1z
	 M119.6,71.3v3.2l-0.2-0.1c-0.1-0.1-0.2-0.1-0.4-0.2c-0.1-0.1-0.3-0.1-0.5-0.2c-0.2-0.1-0.3-0.1-0.5-0.2c-0.2-0.1-0.3-0.1-0.4-0.1
	l0-0.1c0-0.1,0-0.2-0.1-0.3c-0.1-0.1-0.1-0.2-0.2-0.3c-0.2-0.3-0.8-0.7-1.8-1.3c-0.1-0.1-0.4-0.2-0.9-0.4H119.6z"/>
<path class="st4" d="M151,79.5c0.1,0,0.2,0,0.2,0s0-0.1,0-0.2v-0.9c0-0.1,0-0.1,0-0.2c0,0,0,0-0.1-0.1c0,0-0.1,0-0.2,0h-0.9
	c-0.1,0-0.2,0-0.2,0c0,0,0,0.1,0,0.2v0.9c0,0.1,0,0.1,0,0.2c0,0,0.1,0,0.2,0H151z"/>
<path class="st4" d="M169.9,70.5h-10.2h-0.4h-2.9h-0.9h-7.2h-0.4h-12v0.9h6.4v0.6l-5.2,2.4v1.2l5.2,3.9h1V73l1.9,0.6
	c0.7,0.2,1.1,0.5,1.1,0.9c0,0.2-0.1,0.3-0.2,0.6l-0.9,1.5l0.7,0.5l0.2-0.2c0.1-0.1,0.3-0.3,0.5-0.6c0.2-0.3,0.4-0.5,0.5-0.8
	c0.2-0.3,0.3-0.7,0.3-1c0-0.3-0.1-0.5-0.2-0.8c-0.1-0.2-0.3-0.4-0.5-0.6c-0.2-0.1-0.4-0.3-0.7-0.3l-2.6-0.9v-0.6h4.5h0.4h6v0.6
	l-5.3,2.4v1.2l5.3,3.8h1l0-8h0.1h0.9h1.3l-0.1,0.2c-0.7,1.8-1.1,3.4-1.1,4.7c0,0.6,0.1,1,0.3,1.4c0.2,0.4,0.6,0.7,1.1,1
	c0.4,0.2,1.1,0.6,2.1,1.1l0.3-0.6l-1.9-1.3c-0.3-0.2-0.6-0.5-0.7-0.7c-0.1-0.3-0.2-0.6-0.2-1c0-0.4,0-0.9,0.1-1.4
	c0.1-0.5,0.2-0.9,0.3-1.3c0.1-0.3,0.2-0.7,0.3-1.1s0.2-0.6,0.3-0.7s0.1-0.2,0.1-0.3h0.5h0.4h8v2.1l-0.1-0.1c0-0.1-0.2-0.1-0.3-0.2
	c-0.2-0.1-0.4-0.1-0.6-0.1c-0.5,0-1,0.1-1.3,0.2s-0.6,0.4-0.7,0.8c-0.1-0.4-0.4-0.7-0.8-0.8c-0.4-0.1-1-0.2-1.7-0.2
	c-0.2,0-0.5,0-0.7,0.1c-0.2,0.1-0.4,0.1-0.6,0.3s-0.4,0.3-0.5,0.6s-0.2,0.6-0.2,1c0,0.5,0.1,1,0.3,1.6s0.3,0.9,0.4,1.1
	s0.2,0.3,0.3,0.4l0.6-0.2c-0.4-1.3-0.5-2.1-0.5-2.6c0-0.7,0.3-1.1,1-1.1c0.8,0,1.3,0.1,1.5,0.3c0.2,0.2,0.4,0.7,0.4,1.5l0,0.7h0.8
	l0.2-1.1c0.1-0.5,0.2-0.9,0.5-1c0.2-0.2,0.6-0.3,1.1-0.3c0.3,0,0.5,0.1,0.6,0.2c0.1,0.1,0.2,0.3,0.3,0.5c0,0.2,0,0.4,0,0.6v4h1v-8
	h1.1V70.5z M142.4,78.1l-4.2-3.1l4.2-2V78.1z M154.4,78l-4.2-3.1l4.2-2V78z"/>
<path class="st4" d="M27.6,88.1H34v0.6l-5.2,2.4v1.2l5.2,3.9h1v-6.4l1.9,0.6c0.7,0.2,1.1,0.5,1.1,0.9c0,0.2-0.1,0.3-0.2,0.6
	l-0.9,1.5l0.7,0.5l0.2-0.2c0.1-0.1,0.3-0.3,0.5-0.6c0.2-0.3,0.4-0.5,0.5-0.8c0.2-0.3,0.3-0.7,0.3-1c0-0.3-0.1-0.5-0.2-0.8
	c-0.1-0.2-0.3-0.4-0.5-0.6c-0.2-0.1-0.4-0.3-0.7-0.3L35,88.7v-0.6h4h1h1.2l-0.1,0.2c-0.7,1.8-1.1,3.4-1.1,4.7c0,0.6,0.1,1,0.3,1.4
	c0.2,0.4,0.6,0.7,1.1,1c0.4,0.2,1.1,0.6,2.1,1.1l0.3-0.6L42,94.6c-0.3-0.2-0.6-0.5-0.7-0.7c-0.1-0.3-0.2-0.6-0.2-1
	c0-0.4,0-0.9,0.1-1.4c0.1-0.5,0.2-0.9,0.3-1.3c0.1-0.3,0.2-0.7,0.3-1.1s0.2-0.6,0.3-0.7s0.1-0.2,0.1-0.3h0.5h0.4h6.1v0.6L44,91.1
	v1.2l5.3,3.8h1l0-8H51h0.3h1v8h1v-8h0.7v-0.9h-0.9l-0.3-0.8h-0.6l0.1,0.9l-0.6-0.1h-0.5H51h-7.9h-0.4H40h-1H27.6V88.1z M34,94.9
	l-4.2-3.1l4.2-2V94.9z M49.3,94.8L45,91.8l4.2-2V94.8z"/>
<path class="st4" d="M45.9,94.9H45c-0.1,0-0.2,0-0.2,0c0,0,0,0.1,0,0.2v0.9c0,0.1,0,0.1,0,0.2c0,0,0.1,0,0.2,0h0.9
	c0.1,0,0.2,0,0.2,0s0-0.1,0-0.2v-0.9c0-0.1,0-0.1,0-0.2c0,0,0,0-0.1-0.1C46,94.9,46,94.9,45.9,94.9z"/>
<path class="st4" d="M74.7,93.3c-0.5,0.4-0.9,0.7-1.4,1c-0.4,0.2-0.8,0.3-1.3,0.3c-0.7,0-1.5-0.5-2.3-1.4l-2.1-2.3L67,91.3l0.3,0.5
	c0.2,0.3,0.5,0.7,0.8,1.2c0.4,0.5,0.7,0.9,1,1.2c1,1,2,1.5,2.9,1.5c0.5,0,1.1-0.1,1.6-0.4c0.7-0.4,1.4-0.9,2-1.4s0.9-1.1,0.9-1.6
	c0-0.4-0.3-0.8-0.8-1.4s-1-0.9-1.4-0.9c-0.2,0-0.4,0.1-0.6,0.2c-0.2,0.2-0.4,0.3-0.6,0.5S73,91,72.8,91.2c-0.2,0.2-0.4,0.2-0.6,0.2
	c-0.4,0-0.7,0-0.9-0.1c-0.2-0.1-0.3-0.2-0.3-0.4c0-0.7,0.1-1.1,0.4-1.1h1l0.1-0.8l-0.2,0c-0.1,0-0.3,0-0.5-0.1c-0.2,0-0.4,0-0.5,0
	c-0.5,0-0.8,0.1-1,0.2c-0.3,0.2-0.4,0.8-0.4,1.6c0,0.6,0.2,1.1,0.6,1.3c0.4,0.2,0.9,0.4,1.7,0.4c0.3,0,0.6-0.1,0.8-0.2
	c0.3-0.1,0.5-0.3,0.6-0.4s0.3-0.3,0.4-0.4c0.1-0.1,0.3-0.2,0.3-0.2c0.2,0,0.4,0.1,0.6,0.4c0.2,0.3,0.4,0.5,0.4,0.7
	C75.4,92.6,75.2,92.9,74.7,93.3z"/>
<path class="st4" d="M85.8,92.1c-0.2,0.1-0.4,0.2-0.6,0.3c-0.2,0.1-0.5,0.2-0.7,0.3c-0.2,0.1-0.5,0.1-0.8,0.2S83.1,93,82.9,93
	s-0.4,0.1-0.6,0.1c-0.2,0-0.4,0.1-0.4,0.1c-0.1,0-0.1,0-0.2,0l-0.1,1.1c0.6,0.4,1.4,0.8,2.4,1.3c1,0.5,1.7,0.8,2.1,1
	c0.4,0.2,0.8,0.3,1,0.4l0.3-0.7c-1.9-1.1-3.2-1.9-4.1-2.4c0.3-0.1,0.6-0.1,0.8-0.2c0.2-0.1,0.5-0.1,0.8-0.2s0.6-0.2,0.9-0.3
	c0.3-0.1,0.6-0.3,0.8-0.4c0.2-0.2,0.4-0.3,0.6-0.5c0.2-0.2,0.2-0.4,0.2-0.6c0-0.4,0-0.7,0-0.9c0-0.2-0.1-0.5-0.2-0.7
	s-0.2-0.5-0.4-0.6c-0.2-0.1-0.4-0.3-0.7-0.4c-0.3-0.1-0.7-0.2-1.2-0.2c-0.9,0-1.9,0.1-3.1,0.3L82,90h2.9c0.6,0,1,0.1,1.2,0.2
	c0.2,0.2,0.3,0.6,0.3,1.2c0,0.1-0.1,0.3-0.2,0.4C86.1,91.9,86,92,85.8,92.1z"/>
<path class="st4" d="M91.8,96.3c0,0,0-0.1,0-0.2v-0.9c0-0.1,0-0.1,0-0.2c0,0,0,0-0.1-0.1c0,0-0.1,0-0.2,0h-0.9c-0.1,0-0.2,0-0.2,0
	c0,0,0,0.1,0,0.2v0.9c0,0.1,0,0.1,0,0.2c0,0,0.1,0,0.2,0h0.9C91.7,96.3,91.8,96.3,91.8,96.3z"/>
<path class="st4" d="M62.5,96.2v-8h0.7h0.3h1.1v8h1v-8H66h0.3h11.3h0.3h1.1v8h1v-8h0.4h0.4h7.8h0.4H95v0.6l-5.3,2.4v1.2l5.3,3.8h1
	l0-8h0.8H97h1.1v8h1v-8h0.4h0.3h1.4l-0.3,0.5l1.4,1c0.7,0.5,1.1,1,1.1,1.3c0,0.2-0.1,0.4-0.2,0.7c-0.5,1.3-0.9,1.9-1.3,1.9
	c-0.1,0-0.7-0.1-1.5-0.4l-0.2,0.8l0.3,0.2c0.2,0.1,0.5,0.2,0.8,0.3c0.3,0.1,0.6,0.2,0.8,0.2c0.4,0,0.8-0.2,1-0.6
	c0.3-0.4,0.6-0.9,0.9-1.7c0.1-0.2,0.1-0.3,0.2-0.4c0.1-0.1,0.2-0.1,0.2-0.2c0.1,0,0.1,0,0.2,0c0.3,0,0.9,0.2,1.7,0.7v3.7h1v-8h1
	v-0.9h-8.7h-0.3H99l-0.3-0.8h-0.6l0.1,0.9l-0.6-0.1H97h-0.3h-7.9h-0.4h-1.3c0-0.4-0.1-0.7-0.2-1s-0.3-0.5-0.6-0.7s-0.6-0.3-1-0.3
	c-0.6,0-1.8,0.1-3.8,0.2l0.1,0.7h3.7c0.3,0,0.6,0.1,0.7,0.2c0.1,0.1,0.2,0.4,0.2,0.8h-5.5h-0.4h-0.5l-0.3-0.8h-0.6l0.1,0.9l-0.6-0.1
	h-0.5h-0.3H66.3H66h-0.6l-0.3-0.8h-0.6l0.1,0.9L64,87.3h-0.5h-0.3h-8.3v0.9h6.6v3c0,0-0.2-0.1-0.6-0.3c-0.4-0.2-0.9-0.4-1.5-0.5
	c-0.6-0.2-1-0.3-1.3-0.3c-0.3,0-0.6,0-0.9,0.1c-0.2,0.1-0.5,0.2-0.7,0.4c-0.4,0.4-0.6,0.8-0.6,1.5c0,0.6,0.2,1.2,0.6,1.6
	c0.2,0.2,0.6,0.5,1.3,1l0.5-0.6l-0.2-0.2c-0.2-0.1-0.3-0.3-0.6-0.6c-0.2-0.2-0.4-0.5-0.5-0.6c0,0,0-0.1,0-0.1c0,0,0-0.1,0-0.1
	c0,0,0-0.1,0-0.1c0,0,0-0.1,0-0.1s0-0.1,0-0.2c0-0.1,0-0.1,0-0.2c0-0.1,0-0.1,0.1-0.2c0-0.1,0-0.1,0.1-0.1c0,0,0.1-0.1,0.1-0.1
	c0,0,0.1-0.1,0.1-0.1c0,0,0.1-0.1,0.1-0.1c0,0,0.1-0.1,0.1-0.1c0.1,0,0.1,0,0.2,0c0.1,0,0.1,0,0.2,0c0.2,0,0.4,0,0.8,0.1
	c0.3,0.1,0.6,0.1,0.9,0.2c0.3,0.1,0.6,0.2,0.9,0.3c0.3,0.1,0.6,0.2,0.7,0.2s0.2,0.1,0.3,0.1v4H62.5z M95,94.8l-4.2-3.1l4.2-2V94.8z
	 M106.6,88.1v3.2l-0.2-0.1c-0.1-0.1-0.2-0.1-0.4-0.2c-0.1-0.1-0.3-0.1-0.5-0.2c-0.2-0.1-0.3-0.1-0.5-0.2c-0.2-0.1-0.3-0.1-0.4-0.1
	l0-0.1c0-0.1,0-0.2-0.1-0.3c-0.1-0.1-0.1-0.2-0.2-0.3c-0.2-0.3-0.8-0.7-1.8-1.3c-0.1-0.1-0.4-0.2-0.9-0.4H106.6z"/>
<path class="st4" d="M126.9,94.9H126c-0.1,0-0.2,0-0.2,0c0,0,0,0.1,0,0.2v0.9c0,0.1,0,0.1,0,0.2c0,0,0.1,0,0.2,0h0.9
	c0.1,0,0.2,0,0.2,0s0-0.1,0-0.2v-0.9c0-0.1,0-0.1,0-0.2c0,0,0,0-0.1-0.1C127.1,94.9,127,94.9,126.9,94.9z"/>
<path class="st4" d="M131.3,96.2l0-8h1v-0.9h-8.1h-0.4h-2.5h-1.3h-7.3v0.9h1.4l-0.2,0.5c0,0,0.1,0.1,0.4,0.2s0.5,0.3,0.9,0.5
	c0.4,0.2,0.7,0.4,0.9,0.6c0.2,0.1,0.3,0.3,0.3,0.5c0,0,0,0.2-0.1,0.6l-0.5,0c-0.5,0-0.9,0.3-1.3,1c-0.2,0.4-0.3,0.8-0.3,1.2
	c0,0.3,0.2,0.6,0.5,0.9c0.3,0.3,0.8,0.5,1.3,0.8l0.4-0.5l-1.1-1c-0.1-0.1-0.1-0.2-0.1-0.3c0-0.2,0.1-0.4,0.2-0.7
	c0.2-0.3,0.4-0.4,0.6-0.4c0.2,0,1.3,0.4,3.3,1.1v3.1h1v-8h1.1h0.9l-0.1,0.2c-0.7,1.8-1.1,3.4-1.1,4.7c0,0.6,0.1,1,0.3,1.4
	c0.2,0.4,0.6,0.7,1.1,1c0.4,0.2,1.1,0.6,2.1,1.1l0.3-0.6l-1.9-1.3c-0.3-0.2-0.6-0.5-0.7-0.7c-0.1-0.3-0.2-0.6-0.2-1
	c0-0.4,0-0.9,0.1-1.4c0.1-0.5,0.2-0.9,0.3-1.3c0.1-0.3,0.2-0.7,0.3-1.1s0.2-0.6,0.3-0.7s0.1-0.2,0.1-0.3h0.5h0.4h6.1v0.6l-5.3,2.4
	v1.2l5.3,3.8H131.3z M119.2,92.1l-2-0.9l0.1-1c0-0.5-0.3-0.9-1-1.3c-0.7-0.4-1.2-0.7-1.7-0.9h4.5V92.1z M130.3,89.8v5l-4.2-3.1
	L130.3,89.8z"/>
<path class="st4" d="M151.7,95.3c-0.1,0-0.2,0-0.2,0c0,0,0,0.1,0,0.2v0.9c0,0.1,0,0.1,0,0.2c0,0,0.1,0,0.2,0h0.9c0.1,0,0.2,0,0.2,0
	c0,0,0-0.1,0-0.2v-0.9c0-0.1,0-0.2,0-0.2c0,0-0.1,0-0.2,0H151.7z"/>
<path class="st4" d="M146.2,87.3H146h-8.7v0.9h1.4l-0.2,0.5l0.2,0.1c0.1,0.1,0.3,0.1,0.4,0.2c0.2,0.1,0.4,0.2,0.6,0.3
	c0.2,0.1,0.4,0.3,0.6,0.4c0.2,0.1,0.4,0.3,0.6,0.4c0.2,0.1,0.3,0.2,0.4,0.3c0.1,0.1,0.2,0.2,0.2,0.3c0,0.4-0.8,0.9-2.5,1.6v1
	l5.2,2.8h1v-8h0.7h0.3h1.1v8h1v-8h0.5h0.3h1.2l-0.2,0.5l0.8,0.4c0.5,0.3,1,0.6,1.5,0.9c0.5,0.4,0.7,0.6,0.7,0.7
	c0,0.1-0.1,0.2-0.3,0.4c-0.2,0.2-0.4,0.3-0.6,0.4s-0.5,0.3-0.8,0.4c-0.3,0.1-0.5,0.2-0.6,0.3c-0.1,0.1-0.2,0.1-0.3,0.1l0,1l5.2,2.8
	h1v-8h1v-0.9H149h-0.3h-0.6l-0.3-0.8h-0.6l0.1,0.9l-0.6-0.1H146.2z M144.2,95l-3.9-2.1c0.9-0.5,1.5-0.9,1.8-1.2
	c0.3-0.3,0.5-0.7,0.5-1.1c0-0.2-0.1-0.4-0.2-0.6c-0.1-0.2-0.2-0.3-0.4-0.4c-0.1-0.1-0.3-0.2-0.5-0.3c-0.7-0.4-1.5-0.8-2.4-1.2h5V95z
	 M155.8,88.1V95l-3.9-2.1c0.9-0.5,1.5-0.9,1.8-1.2c0.3-0.3,0.5-0.7,0.5-1.1c0-0.2-0.1-0.4-0.2-0.6c-0.1-0.2-0.2-0.3-0.4-0.4
	c-0.1-0.1-0.3-0.2-0.5-0.3c-0.7-0.4-1.5-0.8-2.4-1.2H155.8z"/>
<rect x="160.2" y="87.3" class="st4" width="1" height="8.9"/>
<path class="st4" d="M27.6,122.3h1.8l-0.2,0.6c0,0,0.7,0.4,2.1,1.2c0.5,0.3,0.8,0.6,0.8,1c0,0.2-0.1,0.5-0.2,0.8
	c-0.2,0.5-0.4,0.8-0.5,0.9S31,127,30.7,127c-0.1,0-0.7-0.2-1.7-0.5l-0.4,1.2l0.4,0.3c0.3,0.2,0.7,0.3,1.1,0.5
	c0.4,0.2,0.8,0.2,1.1,0.2c0.8,0,1.4-0.6,1.9-1.7c0.1-0.2,0.2-0.4,0.2-0.4c0.1-0.1,0.2-0.1,0.3-0.1c0.1,0,0.2,0,0.4,0.1
	c0.2,0.1,0.4,0.1,0.5,0.2c0.2,0.1,0.3,0.2,0.5,0.2c0.1,0.1,0.2,0.1,0.2,0.1v2.6H37v-7.4h0.7H38h1.3v7.4H41v-7.4h0.5h0.4h1.7l0.2,0.2
	c0.1,0.1,0.2,0.3,0.4,0.5c0.1,0.2,0.2,0.4,0.2,0.5c0,0.1,0,0.3,0,0.4c0,0.1-0.1,0.2-0.2,0.3c-0.2,0.2-0.5,0.4-0.8,0.6
	s-0.6,0.3-0.7,0.4s-0.3,0.1-0.3,0.2c0,0.3,0.1,0.7,0.3,1.2c0.2,0.5,0.5,1,0.7,1.4c0.3,0.5,0.6,0.9,1,1.2s0.8,0.5,1.1,0.5
	c0.4,0,0.8-0.1,1.3-0.3c0.4-0.2,0.8-0.5,1.2-0.8c0.3-0.3,0.6-0.7,0.8-1c0.2-0.4,0.3-0.7,0.3-1c0-0.2-0.1-0.5-0.3-0.8
	c-0.2-0.3-0.4-0.6-0.7-0.9c-0.3-0.3-0.5-0.6-0.9-0.9c-0.3-0.3-0.6-0.5-0.9-0.8c-0.3-0.2-0.5-0.4-0.7-0.6c-0.2-0.2-0.3-0.3-0.3-0.4
	h4.1H50h5.7v0.3l-4.9,2.2v1.2l4.9,3.7h1.7v-5.4l1.2,0.4c0.3,0.1,0.6,0.2,0.7,0.3c0.1,0.1,0.2,0.2,0.2,0.4c0,0.1-0.1,0.4-0.3,0.7
	l-0.5,0.9l1.2,0.8l0.2-0.2c0.1-0.2,0.3-0.4,0.5-0.7c0.2-0.3,0.4-0.6,0.5-0.8c0.1-0.1,0.1-0.2,0.2-0.4c0-0.1,0.1-0.2,0.1-0.3
	s0-0.2,0-0.3c0-0.7-0.5-1.3-1.6-1.7l-2.3-0.8l0-0.4H62v-1.5H50h-0.4h-4.4l0,0c0,0,0-0.1,0.1-0.1c0-0.1,0.1-0.1,0.1-0.1
	c0.2-0.2,0.5-0.5,1-0.9l1.6,0.3l0.3-1.1l-0.6-0.2c-0.2-0.1-0.5-0.2-0.9-0.2l-0.4-0.4c0,0-0.1,0.1-0.3,0.2c0,0-0.1,0-0.1,0
	c-0.7-0.2-1.3-0.3-1.9-0.5c-1.6-0.4-2.8-0.6-3.4-0.6c-0.6,0-1,0.1-1.3,0.4c-0.3,0.2-0.5,0.7-0.5,1.2v1.1c0,0.5,0.1,0.9,0.4,1.1
	l-0.9-0.1H38h-0.3H27.6V122.3z M55.7,127.8l-2.8-2.1l2.8-1.3V127.8z M45.3,124.9c0.1-0.1,0.1-0.2,0.2-0.2c0,0,0-0.1,0.1-0.1
	c0,0,0.1,0.1,0.2,0.2c0.1,0.1,0.2,0.2,0.4,0.4c0.2,0.2,0.4,0.4,0.5,0.5c0.2,0.2,0.3,0.3,0.4,0.5c0.1,0.2,0.2,0.3,0.2,0.4
	c0,0.1-0.1,0.3-0.3,0.5s-0.4,0.4-0.7,0.6s-0.5,0.3-0.8,0.3c-0.1,0-0.3-0.1-0.4-0.2c-0.2-0.1-0.3-0.3-0.4-0.4
	c-0.1-0.2-0.3-0.4-0.4-0.6c-0.1-0.2-0.2-0.4-0.3-0.5c0-0.1-0.1-0.2-0.1-0.2l0.2-0.1c0.1-0.1,0.3-0.2,0.4-0.3s0.3-0.3,0.5-0.4
	C45.2,125.2,45.3,125.1,45.3,124.9z M40.6,120.2c0,0,0-0.1,0-0.2c0-0.1,0-0.1,0-0.2v-0.7c0-0.2,0-0.4,0.1-0.4
	c0.1-0.1,0.3-0.1,0.6-0.1c0.2,0,0.7,0.1,1.3,0.2l2.2,0.4c-0.4,0.3-0.7,0.6-0.9,0.8c-0.2,0.3-0.4,0.5-0.4,0.7h-1.7h-0.4h-0.6
	c0,0-0.1-0.1-0.1-0.1c0,0-0.1-0.1-0.1-0.1s0-0.1,0-0.1c0,0,0-0.1,0-0.1c0,0,0-0.1,0-0.1S40.6,120.3,40.6,120.2z M35.3,122.3v3
	l-0.3-0.2c-0.2-0.1-0.5-0.2-0.8-0.3c-0.3-0.1-0.5-0.2-0.7-0.2l0-0.1c0-0.1,0-0.2-0.1-0.3c-0.1-0.1-0.1-0.2-0.2-0.3
	c-0.2-0.3-0.8-0.7-1.8-1.3c-0.1-0.1-0.3-0.2-0.6-0.3H35.3z"/>
<rect x="66.2" y="120.9" class="st4" width="11.1" height="1.5"/>
<path class="st4" d="M72,128c-0.1,0-0.3,0-0.4-0.1s-0.2-0.1-0.3-0.1c-0.1,0-0.2-0.1-0.4-0.3s-0.2-0.2-0.3-0.3s-0.2-0.2-0.4-0.4
	s-0.3-0.3-0.3-0.4l-1.9-2l-0.9,0.7c0,0,0.1,0.2,0.3,0.5c0.2,0.3,0.5,0.8,0.9,1.3c0.4,0.5,0.7,0.9,1,1.3c0.5,0.5,1,0.9,1.4,1.1
	s0.9,0.3,1.4,0.3c0.7,0,1.3-0.2,2-0.7c0.7-0.4,1.2-1,1.6-1.7c0.4-0.7,0.6-1.4,0.6-2.1c0-0.7-0.2-1.2-0.6-1.6c-0.4-0.4-1.1-0.6-2-0.6
	c-0.7,0-1.7,0.1-3.2,0.3l0.2,1.3H73c0.7,0,1.1,0.1,1.4,0.2c0.3,0.1,0.4,0.4,0.4,0.8c0,0.4-0.3,0.9-0.9,1.5
	C73.2,127.7,72.6,128,72,128z"/>
<path class="st4" d="M89.7,122.3h1.5v-1.5h-4.1h-0.3h-0.9l-0.3-1h-1.3v8.1l-3.4-2l0.3-0.1c0.2-0.1,0.4-0.2,0.7-0.3
	c0.3-0.1,0.5-0.3,0.8-0.5c0.3-0.2,0.5-0.4,0.7-0.7c0.2-0.3,0.3-0.5,0.3-0.8c0-0.9-0.2-1.5-0.6-1.8c-0.4-0.3-1.1-0.5-2.2-0.5
	c-0.7,0-1.5,0.1-2.4,0.2l0.2,1.3H80c0.7,0,1.2,0,1.4,0.1c0.3,0.1,0.4,0.2,0.4,0.4c0,0.2-0.1,0.4-0.3,0.6c-0.2,0.2-0.5,0.4-0.7,0.5
	c-0.3,0.1-0.6,0.2-1,0.4c-0.4,0.1-0.6,0.2-0.7,0.2c-0.1,0-0.3,0.1-0.3,0.1v1.5l5.5,3.1h1.7v-7.4h0.8h0.3h1l-0.1,0.2
	c-0.1,0.1-0.2,0.3-0.3,0.5s-0.1,0.4-0.1,0.5c0,0.3,0.1,0.7,0.3,1.1c0.2,0.5,0.4,0.9,0.5,1.4c0.2,0.5,0.3,0.8,0.3,1.1
	c0,0.3-0.2,0.7-0.6,1.2l-0.8,1l1,0.8l1.4-1.2c0.2-0.2,0.4-0.4,0.5-0.6c0.1-0.2,0.2-0.4,0.3-0.6c0.1-0.2,0.1-0.4,0.1-0.6
	c0-0.3-0.1-0.7-0.3-1.1c-0.2-0.4-0.4-0.9-0.6-1.3c-0.2-0.4-0.3-0.8-0.3-1.2c0-0.1,0-0.3,0.1-0.6S89.6,122.5,89.7,122.3z"/>
<path class="st4" d="M92.5,129.3c0.3,0.3,0.9,0.5,1.6,0.5c0.4,0,0.7,0,0.9-0.1s0.5-0.2,0.6-0.3c0.2-0.2,0.3-0.4,0.4-0.6
	c0.1-0.3,0.1-0.6,0.1-1c0-0.4,0-0.8-0.1-1.1c-0.1-0.3-0.2-0.5-0.4-0.7s-0.4-0.3-0.6-0.3c-0.2-0.1-0.5-0.1-0.9-0.1
	c-0.4,0-0.7,0-0.9,0.1c-0.2,0.1-0.5,0.2-0.6,0.3s-0.3,0.4-0.4,0.7c-0.1,0.3-0.1,0.7-0.1,1.1C92,128.5,92.2,129,92.5,129.3z
	 M93.4,127.4c0-0.1,0-0.1,0-0.2s0.1-0.1,0.1-0.1s0.1,0,0.2-0.1c0.1,0,0.2,0,0.4,0c0.1,0,0.2,0,0.2,0c0.1,0,0.1,0,0.2,0
	c0.1,0,0.1,0,0.1,0c0,0,0.1,0,0.1,0.1c0,0,0,0.1,0.1,0.1c0,0,0,0.1,0,0.1c0,0.1,0,0.1,0,0.2c0,0,0,0.1,0,0.2c0,0.3,0,0.5-0.1,0.6
	c-0.1,0.1-0.3,0.1-0.6,0.1c-0.2,0-0.3,0-0.4,0c-0.1,0-0.2-0.1-0.2-0.1c-0.1-0.1-0.1-0.1-0.1-0.2c0-0.1,0-0.2,0-0.4
	C93.4,127.5,93.4,127.4,93.4,127.4z"/>
<path class="st4" d="M94.1,125.1c0.7,0,1.3-0.1,1.6-0.4s0.5-0.8,0.5-1.6c0-0.4,0-0.7-0.1-0.9s-0.1-0.5-0.2-0.6
	c-0.1-0.2-0.2-0.3-0.4-0.4s-0.4-0.1-0.6-0.2c-0.2,0-0.5,0-0.8,0c-0.4,0-0.7,0-0.9,0.1c-0.2,0.1-0.5,0.2-0.6,0.3s-0.3,0.4-0.4,0.7
	c-0.1,0.3-0.1,0.6-0.1,1.1c0,0.8,0.2,1.3,0.5,1.6C92.9,124.9,93.4,125.1,94.1,125.1z M93.5,122.4c0.1-0.1,0.3-0.1,0.7-0.1
	c0.2,0,0.3,0,0.4,0c0.1,0,0.2,0.1,0.2,0.1c0.1,0.1,0.1,0.1,0.1,0.2c0,0.1,0,0.2,0,0.4c0,0.3,0,0.5-0.1,0.6c-0.1,0.1-0.3,0.1-0.6,0.1
	c-0.4,0-0.6,0-0.7-0.1s-0.1-0.3-0.1-0.6C93.4,122.6,93.4,122.4,93.5,122.4z"/>
<path class="st4" d="M38.2,145.3h-0.9c-0.1,0-0.2,0-0.2,0s0,0.1,0,0.2v0.9c0,0.1,0,0.1,0,0.2c0,0,0.1,0,0.2,0h0.9c0.1,0,0.2,0,0.2,0
	s0-0.1,0-0.2v-0.9c0-0.1,0-0.1,0-0.2c0,0,0,0-0.1-0.1C38.3,145.3,38.3,145.3,38.2,145.3z"/>
<path class="st4" d="M50.8,146.6v-8h1.1v-0.9h-8.3h-0.3h-7.9h-0.4h-0.9l-0.4-0.9h-0.6l0.1,0.9v1l-0.6-0.2c-0.4-0.1-0.8-0.3-1.4-0.4
	c-0.6-0.1-1-0.2-1.4-0.2c-0.4,0-0.7,0.1-1,0.3c-0.2,0.1-0.4,0.4-0.6,0.9c-0.2,0.5-0.4,0.9-0.4,1.2c0,0.1,0.1,0.3,0.2,0.4
	c0.2,0.2,0.8,0.5,1.6,0.8c0.3,0.1,0.5,0.2,0.6,0.2c0.1,0.1,0.2,0.2,0.3,0.3c0.1,0.1,0.1,0.3,0.1,0.5c0,0,0,0.1-0.1,0.2
	c-0.1,0.1-0.1,0.2-0.2,0.2c-0.1,0.1-0.2,0.2-0.4,0.3c-0.1,0.1-0.3,0.2-0.4,0.3c-0.1,0.1-0.2,0.2-0.3,0.2s-0.2,0.1-0.2,0.2
	c0,0-0.1,0.1-0.1,0.1l0.4,0.7l0.1,0c0,0,0.1-0.1,0.2-0.1c0.1-0.1,0.2-0.1,0.3-0.2c0.1-0.1,0.2-0.1,0.4-0.2s0.3-0.2,0.4-0.3
	s0.3-0.2,0.4-0.3s0.2-0.2,0.3-0.3c0.1-0.1,0.2-0.2,0.2-0.3c0.1-0.1,0.1-0.2,0.1-0.2c0-0.2,0-0.4-0.1-0.7s-0.1-0.5-0.2-0.6
	c-0.1-0.2-0.1-0.3-0.3-0.4c-0.1-0.1-0.3-0.2-0.5-0.3c-0.2-0.1-0.4-0.1-0.7-0.2c-0.3-0.1-0.5-0.2-0.7-0.3c-0.1-0.1-0.2-0.2-0.2-0.3
	c0-0.2,0.1-0.4,0.3-0.7c0.2-0.3,0.4-0.4,0.5-0.4c0,0,0.1,0,0.2,0c0.1,0,0.1,0,0.2,0s0.2,0,0.2,0c0.1,0,0.2,0,0.2,0
	c0.1,0,0.2,0,0.2,0c0.1,0,0.1,0,0.2,0c0.1,0,0.1,0,0.2,0l1.9,0.4v7h1v-8h0.7h0.4h6.1v0.6l-5.3,2.4v1.2l5.3,3.8h1l0-8h0.7h0.3h1.1
	l-0.2,0.5c0,0,0.1,0.1,0.4,0.2s0.5,0.3,0.9,0.5c0.4,0.2,0.7,0.4,0.9,0.6c0.2,0.1,0.3,0.3,0.3,0.5c0,0,0,0.2-0.1,0.6l-0.5,0
	c-0.5,0-0.9,0.3-1.3,1c-0.2,0.4-0.3,0.8-0.3,1.2c0,0.3,0.2,0.6,0.5,0.9c0.3,0.3,0.8,0.5,1.3,0.8l0.4-0.5l-1.1-1
	c-0.1-0.1-0.1-0.2-0.1-0.3c0-0.2,0.1-0.4,0.2-0.7c0.2-0.3,0.4-0.4,0.6-0.4c0.2,0,1.3,0.4,3.3,1.1v3.1H50.8z M41.6,145.2l-4.2-3.1
	l4.2-2V145.2z M47.8,141.7l0.1-1c0-0.5-0.3-0.9-1-1.3c-0.7-0.4-1.2-0.7-1.7-0.9h4.5v4L47.8,141.7z"/>
<path class="st4" d="M70.8,135.4c0.2-0.1,0.4-0.1,0.7-0.1c0.2,0,0.6,0,1.1,0.1l5.7,1.2l0.2-0.7l-0.6-0.2c-0.4-0.1-0.9-0.3-1.6-0.4
	c-0.7-0.2-1.3-0.3-1.8-0.5c-0.6-0.1-1-0.2-1.3-0.3c-0.3-0.1-0.6-0.1-1-0.2c-0.4-0.1-0.7-0.1-1-0.1c-0.6,0-1,0.1-1.3,0.4
	c-0.3,0.3-0.5,0.7-0.5,1.2v0.8c0,0.5,0.1,0.9,0.4,1.1l-1.1-0.1h0h-0.3H68l-0.3-0.8h-0.6l0.1,0.9l-0.6-0.1h-0.4h-0.4h-1l-0.4-0.9
	h-0.6l0.1,0.9v2.1l-0.3-0.3c-0.2-0.2-0.4-0.4-0.7-0.6c-0.3-0.2-0.5-0.4-0.7-0.6c-0.4-0.3-0.8-0.4-1.2-0.4c-0.4,0-0.8,0.2-1.3,0.5
	c-0.7,0.5-1.6,1.2-2.7,2.1l0.5,0.7l0.6-0.4l2,2.5l0.6,0.1l2.8-2.6l0.3,0.3v5.6h1v-8h0.8h0.4h1v8h1v-8h0.4h0.3H70v8h1v-8h0.6v-0.9H71
	c-0.1-0.1-0.2-0.2-0.3-0.3s-0.1-0.2-0.1-0.3c0-0.1,0-0.2,0-0.4V136C70.6,135.7,70.7,135.5,70.8,135.4z M60.6,142.2l-1.7-2l0.1-0.1
	c0.1-0.1,0.1-0.1,0.2-0.2c0.1-0.1,0.2-0.2,0.3-0.3c0.1-0.1,0.2-0.2,0.3-0.3c0.1-0.1,0.2-0.1,0.3-0.2c0.4-0.2,0.7-0.3,0.9-0.3
	c0.3,0,0.7,0.2,1.1,0.5c0.2,0.2,0.4,0.4,0.7,0.6L60.6,142.2z"/>
<path class="st4" d="M81.1,143.4c0,0.6,0.1,1,0.3,1.4c0.2,0.4,0.6,0.7,1.1,1c0.4,0.2,1.1,0.6,2.1,1.1l0.3-0.6L83,145
	c-0.3-0.2-0.6-0.5-0.7-0.7c-0.1-0.3-0.2-0.6-0.2-1c0-0.4,0-0.9,0.1-1.4c0.1-0.5,0.2-0.9,0.3-1.3c0.1-0.4,0.2-0.7,0.3-1.1
	c0.1-0.4,0.2-0.6,0.3-0.7c0.1-0.1,0.1-0.2,0.1-0.3h0.3h0.7h10.6v-0.9H84.3h-0.7H81h-0.9h-7.7v0.9H79v3c0,0-0.2-0.1-0.6-0.3
	c-0.4-0.2-0.9-0.4-1.5-0.5c-0.6-0.2-1-0.3-1.3-0.3c-0.3,0-0.6,0-0.9,0.1c-0.2,0.1-0.5,0.2-0.7,0.4c-0.4,0.4-0.6,0.8-0.6,1.5
	c0,0.6,0.2,1.2,0.6,1.6c0.2,0.2,0.6,0.5,1.3,1l0.5-0.6l-0.2-0.2c-0.2-0.1-0.3-0.3-0.6-0.6s-0.4-0.5-0.5-0.6c0,0,0-0.1,0-0.1
	c0,0,0-0.1,0-0.1c0,0,0-0.1,0-0.1c0,0,0-0.1,0-0.1c0,0,0-0.1,0-0.2c0-0.1,0-0.1,0-0.2c0-0.1,0-0.1,0.1-0.2c0-0.1,0-0.1,0.1-0.1
	c0,0,0.1-0.1,0.1-0.1c0,0,0.1-0.1,0.1-0.1c0,0,0.1-0.1,0.1-0.1c0,0,0.1-0.1,0.1-0.1c0.1,0,0.1,0,0.2,0c0.1,0,0.1,0,0.2,0
	c0.2,0,0.4,0,0.8,0.1c0.3,0.1,0.6,0.1,0.9,0.2c0.3,0.1,0.6,0.2,0.9,0.3c0.3,0.1,0.6,0.2,0.7,0.2c0.1,0,0.2,0.1,0.3,0.1v4h1v-8h0.1
	H81h1.3l-0.1,0.2C81.5,140.5,81.1,142.1,81.1,143.4z"/>
<path class="st4" d="M91.6,143.8c-0.4,0.5-0.9,0.8-1.3,1c-0.3,0.1-0.5,0.2-0.9,0.2c-0.7,0-1.4-0.4-2-1.1l-2.4-2.7l-0.5,0.4
	c0,0,0.1,0.2,0.3,0.5c0.2,0.3,0.5,0.8,0.9,1.3c0.4,0.5,0.7,0.9,1,1.3c0.5,0.5,1,0.9,1.4,1.1c0.4,0.2,0.9,0.3,1.4,0.3
	c0.4,0,0.8-0.1,1.2-0.3c0.6-0.3,1.2-0.7,1.7-1.2c0.5-0.5,0.9-1.1,1.1-1.8c0.1-0.4,0.2-0.8,0.2-1.2c0-0.7-0.2-1.2-0.6-1.6
	s-1.1-0.6-2-0.6c-0.7,0-1.7,0.1-3.2,0.3l0.1,0.7h2.9c0.6,0,1.1,0.1,1.4,0.3c0.3,0.2,0.4,0.5,0.4,0.9c0,0.3-0.1,0.7-0.2,1
	C92.3,142.9,92.1,143.3,91.6,143.8z"/>
<path class="st4" d="M107.4,138.5c-0.4-0.1-0.8-0.3-1.4-0.4c-0.6-0.1-1-0.2-1.4-0.2c-0.4,0-0.7,0.1-1,0.3c0,0,0,0,0,0l-0.2-0.5h-2.3
	c0,0,0,0.1-0.1,0.5c-0.1,0.3-0.2,0.7-0.4,1.2c-0.1,0.5-0.3,1-0.4,1.6c-0.1,0.5-0.3,1.1-0.4,1.6c-0.1,0.5-0.1,0.9-0.1,1.2
	c0,0.5,0.1,1,0.3,1.3c0.2,0.3,0.6,0.7,1.1,1c0.1,0.1,0.3,0.1,0.5,0.2c0.2,0.1,0.4,0.2,0.6,0.3c0.2,0.1,0.4,0.2,0.6,0.2
	c0.2,0.1,0.4,0.1,0.5,0.2c0.1,0,0.1,0.1,0.2,0.1l0.3-0.6l-2.1-1.2c-0.2-0.1-0.4-0.3-0.6-0.5c-0.1-0.2-0.2-0.3-0.3-0.5
	c0-0.2-0.1-0.4-0.1-0.6c0-0.5,0.1-1.2,0.3-2.1c0.2-0.9,0.4-1.5,0.5-1.9c0.1-0.4,0.2-0.7,0.3-1h1.4c-0.1,0.1-0.2,0.3-0.3,0.5
	c-0.2,0.5-0.4,0.9-0.4,1.2c0,0.1,0.1,0.3,0.2,0.4c0.2,0.2,0.8,0.5,1.6,0.8c0.3,0.1,0.5,0.2,0.6,0.2c0.1,0.1,0.2,0.2,0.3,0.3
	c0.1,0.1,0.1,0.3,0.1,0.5c0,0,0,0.1-0.1,0.2c-0.1,0.1-0.1,0.2-0.2,0.2c-0.1,0.1-0.2,0.2-0.4,0.3c-0.1,0.1-0.3,0.2-0.4,0.3
	c-0.1,0.1-0.2,0.2-0.3,0.2s-0.2,0.1-0.2,0.2c0,0-0.1,0.1-0.1,0.1l0.4,0.7l0.1,0c0,0,0.1-0.1,0.2-0.1c0.1-0.1,0.2-0.1,0.3-0.2
	c0.1-0.1,0.2-0.1,0.4-0.2s0.3-0.2,0.4-0.3s0.3-0.2,0.4-0.3s0.2-0.2,0.3-0.3c0.1-0.1,0.2-0.2,0.2-0.3c0.1-0.1,0.1-0.2,0.1-0.2
	c0-0.2,0-0.4-0.1-0.7s-0.1-0.5-0.2-0.6c-0.1-0.2-0.1-0.3-0.3-0.4c-0.1-0.1-0.3-0.2-0.5-0.3c-0.2-0.1-0.4-0.1-0.7-0.2
	c-0.3-0.1-0.5-0.2-0.7-0.3c-0.1-0.1-0.2-0.2-0.2-0.3c0-0.2,0.1-0.4,0.3-0.7c0.2-0.3,0.4-0.4,0.5-0.4c0,0,0.1,0,0.2,0
	c0.1,0,0.1,0,0.2,0s0.2,0,0.2,0c0.1,0,0.2,0,0.2,0c0.1,0,0.2,0,0.2,0c0.1,0,0.1,0,0.2,0c0.1,0,0.1,0,0.2,0l1.9,0.4v7h1v-8h0.8h0.3h1
	v8h1v-8h0.4h0.3h1.4l-0.3,0.5l1.4,1c0.7,0.5,1.1,1,1.1,1.3c0,0.2-0.1,0.4-0.2,0.7c-0.5,1.3-0.9,1.9-1.3,1.9c-0.1,0-0.7-0.1-1.5-0.4
	l-0.2,0.8l0.3,0.2c0.2,0.1,0.5,0.2,0.8,0.3s0.6,0.2,0.8,0.2c0.4,0,0.8-0.2,1-0.6c0.3-0.4,0.6-0.9,0.9-1.7c0.1-0.2,0.1-0.3,0.2-0.4
	c0.1-0.1,0.2-0.1,0.2-0.2c0.1,0,0.1,0,0.2,0c0.3,0,0.9,0.2,1.7,0.7v3.7h1v-8h0.6h0.4h8.1v2.1l-0.1-0.1c0-0.1-0.2-0.1-0.3-0.2
	c-0.2-0.1-0.4-0.1-0.6-0.1c-0.5,0-1,0.1-1.3,0.2s-0.6,0.4-0.7,0.8c-0.1-0.4-0.4-0.7-0.8-0.8c-0.4-0.1-1-0.2-1.7-0.2
	c-0.2,0-0.5,0-0.7,0.1c-0.2,0.1-0.4,0.1-0.6,0.3c-0.2,0.1-0.4,0.3-0.5,0.6c-0.1,0.3-0.2,0.6-0.2,1c0,0.5,0.1,1,0.3,1.6
	c0.2,0.5,0.3,0.9,0.4,1.1s0.2,0.3,0.3,0.4l0.6-0.2c-0.4-1.3-0.5-2.1-0.5-2.6c0-0.7,0.3-1.1,1-1.1c0.8,0,1.3,0.1,1.5,0.3
	c0.2,0.2,0.4,0.7,0.4,1.5l0,0.7h0.8l0.2-1.1c0.1-0.5,0.2-0.9,0.5-1s0.6-0.3,1.1-0.3c0.3,0,0.5,0.1,0.6,0.2s0.2,0.3,0.3,0.5
	c0,0.2,0,0.4,0,0.6v4h1v-8h1.1v-0.9h-10.2h-0.4h-8.3h-0.3H112l-0.3-0.8h-0.6l0.1,0.9l-0.6-0.1h-0.5h-0.3h-1l-0.4-0.9h-0.6l0.1,0.9v1
	L107.4,138.5z M119.6,138.5v3.2l-0.2-0.1c-0.1-0.1-0.2-0.1-0.4-0.2c-0.1-0.1-0.3-0.1-0.5-0.2c-0.2-0.1-0.3-0.1-0.5-0.2
	c-0.2-0.1-0.3-0.1-0.4-0.1l0-0.1c0-0.1,0-0.2-0.1-0.3c-0.1-0.1-0.1-0.2-0.2-0.3c-0.2-0.3-0.8-0.7-1.8-1.3c-0.1-0.1-0.4-0.2-0.9-0.4
	H119.6z"/>
<path class="st4" d="M169.9,137.7h-10.2h-0.4h-2.9h-0.9h-7.2h-0.4h-12v0.9h6.4v0.6l-5.2,2.4v1.2l5.2,3.9h1v-6.4l1.9,0.6
	c0.7,0.2,1.1,0.5,1.1,0.9c0,0.2-0.1,0.3-0.2,0.6l-0.9,1.5l0.7,0.5l0.2-0.2c0.1-0.1,0.3-0.3,0.5-0.6c0.2-0.3,0.4-0.5,0.5-0.8
	c0.2-0.3,0.3-0.7,0.3-1c0-0.3-0.1-0.5-0.2-0.8s-0.3-0.4-0.5-0.6c-0.2-0.1-0.4-0.3-0.7-0.3l-2.6-0.9v-0.6h4.5h0.4h6v0.6l-5.3,2.4v1.2
	l5.3,3.8h1l0-8h0.1h0.9h1.3l-0.1,0.2c-0.7,1.8-1.1,3.4-1.1,4.7c0,0.6,0.1,1,0.3,1.4c0.2,0.4,0.6,0.7,1.1,1c0.4,0.2,1.1,0.6,2.1,1.1
	l0.3-0.6l-1.9-1.3c-0.3-0.2-0.6-0.5-0.7-0.7c-0.1-0.3-0.2-0.6-0.2-1c0-0.4,0-0.9,0.1-1.4c0.1-0.5,0.2-0.9,0.3-1.3
	c0.1-0.4,0.2-0.7,0.3-1.1c0.1-0.4,0.2-0.6,0.3-0.7c0.1-0.1,0.1-0.2,0.1-0.3h0.5h0.4h8v2.1l-0.1-0.1c0-0.1-0.2-0.1-0.3-0.2
	c-0.2-0.1-0.4-0.1-0.6-0.1c-0.5,0-1,0.1-1.3,0.2s-0.6,0.4-0.7,0.8c-0.1-0.4-0.4-0.7-0.8-0.8c-0.4-0.1-1-0.2-1.7-0.2
	c-0.2,0-0.5,0-0.7,0.1c-0.2,0.1-0.4,0.1-0.6,0.3c-0.2,0.1-0.4,0.3-0.5,0.6c-0.1,0.3-0.2,0.6-0.2,1c0,0.5,0.1,1,0.3,1.6
	c0.2,0.5,0.3,0.9,0.4,1.1s0.2,0.3,0.3,0.4l0.6-0.2c-0.4-1.3-0.5-2.1-0.5-2.6c0-0.7,0.3-1.1,1-1.1c0.8,0,1.3,0.1,1.5,0.3
	c0.2,0.2,0.4,0.7,0.4,1.5l0,0.7h0.8l0.2-1.1c0.1-0.5,0.2-0.9,0.5-1s0.6-0.3,1.1-0.3c0.3,0,0.5,0.1,0.6,0.2s0.2,0.3,0.3,0.5
	c0,0.2,0,0.4,0,0.6v4h1v-8h1.1V137.7z M142.4,145.3l-4.2-3.1l4.2-2V145.3z M154.4,145.2l-4.2-3.1l4.2-2V145.2z"/>
<path class="st4" d="M151,146.7c0.1,0,0.2,0,0.2,0s0-0.1,0-0.2v-0.9c0-0.1,0-0.1,0-0.2c0,0,0,0-0.1-0.1c0,0-0.1,0-0.2,0h-0.9
	c-0.1,0-0.2,0-0.2,0s0,0.1,0,0.2v0.9c0,0.1,0,0.1,0,0.2c0,0,0.1,0,0.2,0H151z"/>
<path class="st4" d="M179.9,142.8v1.1l5.2,2.8h1v-8h1v-0.9h-8.4h-0.6h-1.7c0,0,0,0.1-0.1,0.5c-0.1,0.3-0.2,0.7-0.4,1.2
	c-0.1,0.5-0.3,1-0.4,1.6c-0.1,0.5-0.3,1.1-0.4,1.6c-0.1,0.5-0.1,0.9-0.1,1.2c0,0.5,0.1,1,0.3,1.3c0.2,0.3,0.6,0.7,1.1,1
	c0.1,0.1,0.3,0.1,0.5,0.2c0.2,0.1,0.4,0.2,0.6,0.3c0.2,0.1,0.4,0.2,0.6,0.2c0.2,0.1,0.4,0.1,0.5,0.2c0.1,0,0.1,0.1,0.2,0.1l0.3-0.6
	l-2.1-1.2c-0.2-0.1-0.4-0.3-0.6-0.5c-0.1-0.2-0.2-0.3-0.3-0.5c0-0.2-0.1-0.4-0.1-0.6c0-0.5,0.1-1.2,0.3-2.1c0.2-0.9,0.4-1.5,0.5-1.9
	c0.1-0.4,0.2-0.7,0.3-1h1h0.9h0.6l-0.2,0.5l0.2,0.1c0.1,0.1,0.3,0.1,0.4,0.2c0.2,0.1,0.4,0.2,0.6,0.3c0.2,0.1,0.4,0.3,0.6,0.4
	c0.2,0.1,0.4,0.3,0.6,0.4c0.2,0.1,0.3,0.2,0.4,0.4c0.1,0.1,0.2,0.2,0.2,0.3C182.4,141.5,181.6,142.1,179.9,142.8z M183.4,140.5
	c-0.1-0.2-0.2-0.3-0.4-0.4c-0.1-0.1-0.3-0.2-0.5-0.3c-0.7-0.4-1.5-0.8-2.4-1.2h5v6.8l-3.9-2.1c0.9-0.5,1.5-0.9,1.8-1.2
	s0.5-0.7,0.5-1.1C183.5,140.8,183.5,140.7,183.4,140.5z"/>
<path class="st4" d="M36.3,160.5c-0.5,0.4-0.9,0.7-1.4,1c-0.4,0.2-0.8,0.3-1.3,0.3c-0.7,0-1.5-0.5-2.3-1.4l-2.1-2.3l-0.6,0.4
	l0.3,0.5c0.2,0.3,0.5,0.7,0.8,1.2c0.4,0.5,0.7,0.9,1,1.2c1,1,2,1.5,2.9,1.5c0.5,0,1.1-0.1,1.6-0.4c0.7-0.4,1.4-0.9,2-1.4
	s0.9-1.1,0.9-1.6c0-0.4-0.3-0.8-0.8-1.4s-1-0.9-1.4-0.9c-0.2,0-0.4,0.1-0.6,0.2c-0.2,0.2-0.4,0.3-0.6,0.5s-0.4,0.3-0.6,0.5
	c-0.2,0.2-0.4,0.2-0.6,0.2c-0.4,0-0.7,0-0.9-0.1c-0.2-0.1-0.3-0.2-0.3-0.4c0-0.7,0.1-1.1,0.4-1.1h1l0.1-0.8l-0.2,0
	c-0.1,0-0.3,0-0.5-0.1c-0.2,0-0.4,0-0.5,0c-0.5,0-0.8,0.1-1,0.2c-0.3,0.2-0.4,0.8-0.4,1.6c0,0.6,0.2,1.1,0.6,1.3
	c0.4,0.2,0.9,0.4,1.7,0.4c0.3,0,0.6-0.1,0.8-0.2c0.3-0.1,0.5-0.3,0.6-0.4s0.3-0.3,0.4-0.4c0.1-0.1,0.3-0.2,0.3-0.2
	c0.2,0,0.4,0.1,0.6,0.4c0.2,0.3,0.4,0.5,0.4,0.7C37,159.8,36.8,160.1,36.3,160.5z"/>
<path class="st4" d="M27.6,155.3h11.6h0.3h1.1v8h1v-8h0.4h0.4h7.8h0.3h6.1v0.6l-5.3,2.4v1.2l5.3,3.8h1l0-8h0.8h0.3h1v8h1v-8h0.4h0.3
	h1.4l-0.3,0.5l1.4,1c0.7,0.5,1.1,1,1.1,1.3c0,0.2-0.1,0.4-0.2,0.7c-0.5,1.3-0.9,1.9-1.3,1.9c-0.1,0-0.7-0.1-1.5-0.4l-0.2,0.8
	l0.3,0.2c0.2,0.1,0.5,0.2,0.8,0.3c0.3,0.1,0.6,0.2,0.8,0.2c0.4,0,0.8-0.2,1-0.6c0.3-0.4,0.6-0.9,0.9-1.7c0.1-0.2,0.1-0.3,0.2-0.4
	c0.1-0.1,0.2-0.1,0.2-0.2c0.1,0,0.1,0,0.2,0c0.3,0,0.9,0.2,1.7,0.7v3.7h1v-8h0.6h0.3h1.1v8h1v-8h0.2h0.5h0.9v5.8
	c0,0.8,0.2,1.4,0.5,1.7s0.8,0.5,1.3,0.5c0.6,0,1.4-0.3,2.3-0.8s1.5-1.3,1.9-2.1c0.2-0.5,0.3-0.9,0.3-1.1c0-0.4-0.1-0.8-0.4-1.1
	c-0.3-0.3-0.6-0.4-1.1-0.4c-0.3,0-0.9,0-1.7,0.1l0.1,0.8h1.4c0.5,0,0.8,0.2,0.8,0.6c0,0.3-0.1,0.7-0.4,1.1c-0.4,0.6-0.8,1-1.4,1.4
	c-0.6,0.4-1.1,0.6-1.5,0.6c-0.3,0-0.5-0.1-0.7-0.3s-0.2-0.6-0.2-1v-5.7h6.5v-0.9h-1.6c0-0.4-0.1-0.8-0.2-1.1c0,0,0,0,0-0.1l0.2,0
	l0.2-0.7l-0.6-0.2c-0.2-0.1-0.5-0.1-0.8-0.2c0,0,0,0-0.1,0c-0.2-0.1-0.4-0.1-0.7-0.2c-0.7-0.2-1.3-0.3-1.8-0.5
	c-0.6-0.1-1-0.2-1.3-0.3c-0.3-0.1-0.6-0.1-1-0.2s-0.7-0.1-1-0.1c-0.6,0-1,0.1-1.3,0.4c-0.3,0.3-0.5,0.7-0.5,1.2v0.8
	c0,0.5,0.1,0.9,0.4,1.1l-1.1-0.1h0h-0.3h-8.4h-0.3h-0.6l-0.3-0.8h-0.6l0.1,0.9l-0.6-0.1h-0.5h-0.3h-7.9h-0.3h-1.3
	c0-0.4-0.1-0.7-0.2-1s-0.3-0.5-0.6-0.7s-0.6-0.3-1-0.3c-0.6,0-1.8,0.1-3.8,0.2l0.1,0.7h3.7c0.3,0,0.6,0.1,0.7,0.2
	c0.1,0.1,0.2,0.4,0.2,0.8h-5.5h-0.4h-0.5l-0.3-0.8h-0.6l0.1,0.9l-0.6-0.1h-0.5h-0.3H27.6V155.3z M56.5,162l-4.2-3.1l4.2-2V162z
	 M71.9,152.8c0-0.3,0.1-0.5,0.3-0.6c0.2-0.1,0.4-0.1,0.7-0.1c0.2,0,0.6,0,1.1,0.1l0.5,0.1c-0.6,0-1.2,0.1-1.9,0.1l0.1,0.7h5.3
	c0.6,0,0.9,0.4,0.9,1.3h-5.8h-0.5h-0.2c-0.1-0.1-0.2-0.2-0.3-0.3c-0.1-0.1-0.1-0.2-0.1-0.3c0-0.1,0-0.2,0-0.4V152.8z M68.1,155.3
	v3.2l-0.2-0.1c-0.1-0.1-0.2-0.1-0.4-0.2c-0.1-0.1-0.3-0.1-0.5-0.2c-0.2-0.1-0.3-0.1-0.5-0.2c-0.2-0.1-0.3-0.1-0.4-0.1l0-0.1
	c0-0.1,0-0.2-0.1-0.3c-0.1-0.1-0.1-0.2-0.2-0.3c-0.2-0.3-0.8-0.7-1.8-1.3c-0.1-0.1-0.4-0.2-0.9-0.4H68.1z"/>
<path class="st4" d="M47.4,159.3c-0.2,0.1-0.4,0.2-0.6,0.3c-0.2,0.1-0.5,0.2-0.7,0.3c-0.2,0.1-0.5,0.1-0.8,0.2s-0.5,0.1-0.7,0.2
	s-0.4,0.1-0.6,0.1c-0.2,0-0.4,0.1-0.4,0.1c-0.1,0-0.1,0-0.2,0l-0.1,1.1c0.6,0.4,1.4,0.8,2.4,1.3c1,0.5,1.7,0.8,2.1,1
	c0.4,0.2,0.8,0.3,1,0.4l0.3-0.7c-1.9-1.1-3.2-1.9-4.1-2.4c0.3-0.1,0.6-0.1,0.8-0.2c0.2-0.1,0.5-0.1,0.8-0.2s0.6-0.2,0.9-0.3
	c0.3-0.1,0.6-0.3,0.8-0.4c0.2-0.2,0.4-0.3,0.6-0.5c0.2-0.2,0.2-0.4,0.2-0.6c0-0.4,0-0.7,0-0.9c0-0.2-0.1-0.5-0.2-0.7
	s-0.2-0.5-0.4-0.6c-0.2-0.1-0.4-0.3-0.7-0.4c-0.3-0.1-0.7-0.2-1.2-0.2c-0.9,0-1.9,0.1-3.1,0.3l0.1,0.7h2.9c0.6,0,1,0.1,1.2,0.2
	c0.2,0.2,0.3,0.6,0.3,1.2c0,0.1-0.1,0.3-0.2,0.4C47.7,159.1,47.6,159.2,47.4,159.3z"/>
<path class="st4" d="M53.2,163.5c0.1,0,0.2,0,0.2,0s0-0.1,0-0.2v-0.9c0-0.1,0-0.1,0-0.2c0,0,0,0-0.1-0.1c0,0-0.1,0-0.2,0h-0.9
	c-0.1,0-0.2,0-0.2,0c0,0,0,0.1,0,0.2v0.9c0,0.1,0,0.1,0,0.2c0,0,0.1,0,0.2,0H53.2z"/>
<path class="st4" d="M85.5,155.3h10.9v5.1l-1.6-0.6l0.2-0.6c0.1-0.3,0.2-0.6,0.2-0.9c0-0.6-0.2-1.2-0.6-1.6c-0.4-0.4-1.1-0.6-2-0.6
	c-0.7,0-1.7,0.1-3,0.3l0.1,0.7h2.6c0.4,0,0.8,0,1.1,0.1c0.3,0.1,0.5,0.2,0.6,0.4c0.1,0.2,0.2,0.4,0.2,0.7c0,0.3-0.1,0.5-0.2,0.8
	c-0.1,0.2-0.2,0.4-0.3,0.6c-0.2,0.2-0.4,0.5-0.6,0.7s-0.6,0.4-0.9,0.6c-0.2,0.1-0.5,0.2-0.7,0.2c-0.7,0-1.3-0.4-2-1.1l-2.5-2.7
	l-0.5,0.4l0.4,0.5c0.2,0.3,0.6,0.8,0.9,1.3c0.4,0.5,0.7,0.9,1,1.3c0.9,1,1.8,1.4,2.8,1.4c0.4,0,0.7-0.1,1.1-0.2
	c0.3-0.1,0.7-0.3,1-0.6c0.3-0.2,0.5-0.4,0.6-0.5c0.1-0.1,0.1-0.2,0.2-0.2l2.1,0.7v1.9h1v-8H99v8h1v-8h0.9v-0.9h-1l-0.3-0.9H99l0.1,1
	l-1-0.1H85.5V155.3z"/>
<path class="st4" d="M109.7,163.4v-8h1.2v-0.9h-1.3l-0.4-0.9h-0.6l0.1,0.9v2.1l-0.3-0.3c-0.2-0.2-0.4-0.4-0.7-0.6
	c-0.3-0.2-0.5-0.4-0.7-0.6c-0.4-0.3-0.8-0.4-1.2-0.4c-0.4,0-0.8,0.2-1.3,0.5c-0.7,0.5-1.6,1.2-2.7,2.1l0.5,0.7l0.6-0.4l2,2.5
	l0.6,0.1l2.8-2.6l0.3,0.3v5.6H109.7z M105.4,159l-1.7-2l0.1-0.1c0.1-0.1,0.1-0.1,0.2-0.2c0.1-0.1,0.2-0.2,0.3-0.3s0.2-0.2,0.3-0.3
	s0.2-0.1,0.3-0.2c0.4-0.2,0.7-0.4,0.9-0.4c0.3,0,0.7,0.2,1.1,0.5c0.2,0.2,0.4,0.4,0.7,0.6L105.4,159z"/>
<path class="st4" d="M125.8,162.1h-0.9c-0.1,0-0.2,0-0.2,0c0,0,0,0.1,0,0.2v0.9c0,0.1,0,0.1,0,0.2c0,0,0.1,0,0.2,0h0.9
	c0.1,0,0.2,0,0.2,0s0-0.1,0-0.2v-0.9c0-0.1,0-0.1,0-0.2c0,0,0,0-0.1-0.1C125.9,162.1,125.9,162.1,125.8,162.1z"/>
<path class="st4" d="M130.2,163.4l0-8h1v-0.9H123h-0.4h-0.5l-0.3-0.8h-0.6l0.1,0.9l-0.6-0.1h-0.5h-0.3h-8.3v0.9h6.6v3
	c0,0-0.2-0.1-0.6-0.3c-0.4-0.2-0.9-0.4-1.5-0.5c-0.6-0.2-1-0.3-1.3-0.3c-0.3,0-0.6,0-0.9,0.1c-0.2,0.1-0.5,0.2-0.7,0.4
	c-0.4,0.4-0.6,0.8-0.6,1.5c0,0.6,0.2,1.2,0.6,1.6c0.2,0.2,0.6,0.5,1.3,1l0.5-0.6l-0.2-0.2c-0.2-0.1-0.3-0.3-0.6-0.6
	c-0.2-0.2-0.4-0.5-0.5-0.6c0,0,0-0.1,0-0.1c0,0,0-0.1,0-0.1c0,0,0-0.1,0-0.1c0,0,0-0.1,0-0.1s0-0.1,0-0.2c0-0.1,0-0.1,0-0.2
	c0-0.1,0-0.1,0.1-0.2c0-0.1,0-0.1,0.1-0.1c0,0,0.1-0.1,0.1-0.1c0,0,0.1-0.1,0.1-0.1c0,0,0.1-0.1,0.1-0.1c0,0,0.1-0.1,0.1-0.1
	c0.1,0,0.1,0,0.2,0c0.1,0,0.1,0,0.2,0c0.2,0,0.4,0,0.8,0.1c0.3,0.1,0.6,0.1,0.9,0.2c0.3,0.1,0.6,0.2,0.9,0.3
	c0.3,0.1,0.6,0.2,0.7,0.2s0.2,0.1,0.3,0.1v4h1v-8h0.7h0.3h1.1v8h1v-8h0.4h0.4h6.1v0.6l-5.3,2.4v1.2l5.3,3.8H130.2z M129.1,157v5
	l-4.2-3.1L129.1,157z"/>
<path class="st4" d="M135.4,155.3h4.7v3.3l0.6-0.1c0.4,0,0.8-0.1,1.4-0.1c0.5,0,0.9-0.1,1.1-0.1c0.7,0,1,0.3,1,0.8
	c0,0.8-0.5,1.6-1.6,2.6c-0.4,0.4-0.8,0.5-1.2,0.5c-0.2,0-0.5-0.1-0.7-0.2c-0.2-0.1-0.4-0.3-0.6-0.4c-0.1-0.1-0.3-0.4-0.6-0.6
	c-0.6-0.7-1.3-1.9-2.3-3.5l-0.7,0.3l0.2,0.6c0.1,0.4,0.4,1,0.8,1.7c0.4,0.7,0.9,1.3,1.4,1.9c0.8,0.9,1.6,1.4,2.3,1.4
	c0.7,0,1.2-0.2,1.8-0.6c1.4-1.2,2.1-2.4,2.1-3.7c0-0.4-0.2-0.8-0.5-1.2s-0.8-0.5-1.4-0.5c-0.6,0-1.3,0.1-2.1,0.2v-2.3h5.1v-0.9H144
	c0-1.3-0.6-1.9-1.8-1.9c-0.6,0-2.1,0.1-4.7,0.2l0.1,0.7h4.6c0.3,0,0.6,0.1,0.7,0.2c0.1,0.1,0.2,0.4,0.2,0.8h-7.6V155.3z"/>
<path class="st4" d="M147.2,157.3l0.5,0.7l0.6-0.4l2,2.5l0.6,0.1l2.8-2.6l0.3,0.3v5.6h1v-8h0.8h0.4h6v0.6l-5.3,2.4v1.2l5.3,3.8h1
	l0-8h1v-0.9h-8.1h-0.4h-0.9l-0.4-0.9H154l0.1,0.9v2.1l-0.3-0.3c-0.2-0.2-0.4-0.4-0.7-0.6c-0.3-0.2-0.5-0.4-0.7-0.6
	c-0.4-0.3-0.8-0.4-1.2-0.4c-0.4,0-0.8,0.2-1.3,0.5C149.1,155.6,148.2,156.3,147.2,157.3z M162.3,162l-4.2-3.1l4.2-2V162z M150.3,156
	c0.4-0.2,0.7-0.4,0.9-0.4c0.3,0,0.7,0.2,1.1,0.5c0.2,0.2,0.4,0.4,0.7,0.6l-2.3,2.1l-1.7-2l0.1-0.1c0.1-0.1,0.1-0.1,0.2-0.2
	c0.1-0.1,0.2-0.2,0.3-0.3s0.2-0.2,0.3-0.3S150.2,156.1,150.3,156z"/>
<path class="st4" d="M159,162.1h-0.9c-0.1,0-0.2,0-0.2,0c0,0,0,0.1,0,0.2v0.9c0,0.1,0,0.1,0,0.2c0,0,0.1,0,0.2,0h0.9
	c0.1,0,0.2,0,0.2,0s0-0.1,0-0.2v-0.9c0-0.1,0-0.1,0-0.2c0,0,0,0-0.1-0.1C159.1,162.1,159,162.1,159,162.1z"/>
<path class="st4" d="M186.6,160.5c-0.5,0.4-0.9,0.7-1.4,1c-0.4,0.2-0.8,0.3-1.3,0.3c-0.7,0-1.5-0.5-2.3-1.4l-2.1-2.3l-0.6,0.4
	l0.3,0.5c0.2,0.3,0.5,0.7,0.8,1.2c0.4,0.5,0.7,0.9,1,1.2c1,1,2,1.5,2.9,1.5c0.5,0,1.1-0.1,1.6-0.4c0.7-0.4,1.4-0.9,2-1.4
	s0.9-1.1,0.9-1.6c0-0.4-0.3-0.8-0.8-1.4s-1-0.9-1.4-0.9c-0.2,0-0.4,0.1-0.6,0.2c-0.2,0.2-0.4,0.3-0.6,0.5s-0.4,0.3-0.6,0.5
	c-0.2,0.2-0.4,0.2-0.6,0.2c-0.4,0-0.7,0-0.9-0.1c-0.2-0.1-0.3-0.2-0.3-0.4c0-0.7,0.1-1.1,0.4-1.1h1l0.1-0.8l-0.2,0
	c-0.1,0-0.3,0-0.5-0.1c-0.2,0-0.4,0-0.5,0c-0.5,0-0.8,0.1-1,0.2c-0.3,0.2-0.4,0.8-0.4,1.6c0,0.6,0.2,1.1,0.6,1.3
	c0.4,0.2,0.9,0.4,1.7,0.4c0.3,0,0.6-0.1,0.8-0.2c0.3-0.1,0.5-0.3,0.6-0.4s0.3-0.3,0.4-0.4c0.1-0.1,0.3-0.2,0.3-0.2
	c0.2,0,0.4,0.1,0.6,0.4c0.2,0.3,0.4,0.5,0.4,0.7C187.3,159.8,187.1,160.1,186.6,160.5z"/>
<path class="st4" d="M192.2,154.5h-0.5l-0.3-0.8h-0.6l0.1,0.9l-0.6-0.1h-0.5h-0.3h-11.3h-0.3h-0.6l-0.4-0.9h-0.6l0.1,0.9v2.1
	l-0.3-0.3c-0.2-0.2-0.4-0.4-0.7-0.6s-0.5-0.4-0.7-0.6c-0.4-0.3-0.8-0.4-1.2-0.4c-0.4,0-0.8,0.2-1.3,0.5c-0.7,0.5-1.6,1.2-2.7,2.1
	l0.5,0.7l0.6-0.4l2,2.5l0.6,0.1l2.8-2.6l0.3,0.3v3.3c-0.2,0.1-0.3,0.2-0.5,0.3c-0.2,0.1-0.3,0.2-0.5,0.2s-0.4,0.2-0.6,0.3
	c-0.2,0.1-0.4,0.2-0.7,0.2c-0.2,0.1-0.4,0.1-0.7,0.2s-0.4,0.1-0.6,0.1c-0.9,0-1.6-0.3-2-1l-1.1-1.8l-0.6,0.3c0.3,1,0.6,1.8,1,2.3
	c0.2,0.2,0.4,0.4,0.6,0.6c0.2,0.2,0.4,0.3,0.6,0.4s0.4,0.1,0.6,0.2c0.2,0,0.4,0.1,0.5,0.1s0.3,0,0.4,0c0.4,0,1-0.1,1.6-0.3
	c0.6-0.2,1.1-0.4,1.4-0.5c0.3-0.1,0.5-0.2,0.7-0.3v1.2h1v-8h0.4h0.3h11.3h0.3h1.1v8h1v-8h0.4h0.4h6.1v0.6l-5.3,2.4v1.2l5.3,3.8h1v-8
	h1v-0.9h-8.2H192.2z M173.1,159l-1.7-2l0.1-0.1c0.1-0.1,0.1-0.1,0.2-0.2s0.2-0.2,0.3-0.3s0.2-0.2,0.3-0.3c0.1-0.1,0.2-0.1,0.3-0.2
	c0.4-0.2,0.7-0.4,0.9-0.4c0.3,0,0.7,0.2,1.1,0.5c0.2,0.2,0.4,0.4,0.7,0.6L173.1,159z M198.6,162l-4.2-3.1l4.2-2V162z"/>
<path class="st4" d="M28.9,178.6c0.2,0.3,0.6,0.7,1.1,1c0.1,0.1,0.3,0.1,0.5,0.2c0.2,0.1,0.4,0.2,0.6,0.3s0.4,0.2,0.6,0.2
	c0.2,0.1,0.4,0.1,0.5,0.2c0.1,0,0.1,0.1,0.2,0.1l0.3-0.6l-2.1-1.2c-0.2-0.1-0.4-0.3-0.6-0.5c-0.1-0.2-0.2-0.3-0.3-0.5
	c0-0.2-0.1-0.4-0.1-0.6c0-0.5,0.1-1.2,0.3-2.1c0.2-0.9,0.4-1.5,0.5-1.9s0.2-0.7,0.3-1h0.3h1.2l-0.2,0.5l0.8,0.4
	c0.5,0.3,1,0.6,1.5,0.9c0.5,0.4,0.7,0.6,0.7,0.7c0,0.1-0.1,0.2-0.3,0.4c-0.2,0.2-0.4,0.3-0.6,0.4s-0.5,0.3-0.8,0.4
	c-0.3,0.1-0.5,0.2-0.6,0.3c-0.1,0.1-0.2,0.1-0.3,0.1v1l5.1,2.8h1v-5.9h1.4c0.7,0,1.1,0.2,1.1,0.6c0,0.2-0.1,0.5-0.3,0.8
	c-0.2,0.3-0.5,0.7-0.9,1.3l0.7,0.5l0.2-0.2c0.1-0.1,0.3-0.3,0.5-0.6c0.2-0.2,0.3-0.5,0.4-0.6c0.2-0.4,0.3-0.7,0.3-1
	c0-1.1-0.7-1.7-2.2-1.7h-2.4v5.7l-3.8-2.1c0.9-0.5,1.5-0.8,1.8-1.2c0.3-0.3,0.5-0.7,0.5-1.1c0-0.2-0.1-0.4-0.2-0.6
	c-0.1-0.2-0.2-0.3-0.4-0.4c-0.1-0.1-0.3-0.2-0.5-0.3c-0.7-0.4-1.5-0.8-2.4-1.2h10.1h0.3h8.1v2.1l-0.1-0.1c0-0.1-0.2-0.1-0.3-0.2
	c-0.2-0.1-0.4-0.1-0.6-0.1c-0.5,0-1,0.1-1.3,0.2s-0.6,0.4-0.7,0.8c-0.1-0.4-0.4-0.7-0.8-0.8c-0.4-0.1-1-0.2-1.7-0.2
	c-0.2,0-0.5,0-0.7,0.1c-0.2,0.1-0.4,0.1-0.6,0.3s-0.4,0.3-0.5,0.6s-0.2,0.6-0.2,1c0,0.5,0.1,1,0.3,1.6s0.3,0.9,0.4,1.1
	s0.2,0.3,0.3,0.4l0.6-0.2c-0.4-1.3-0.5-2.1-0.5-2.6c0-0.7,0.3-1.1,1-1.1c0.8,0,1.3,0.1,1.5,0.3c0.2,0.2,0.4,0.7,0.4,1.5l0,0.7h0.8
	l0.2-1.1c0.1-0.5,0.2-0.9,0.5-1c0.2-0.2,0.6-0.3,1.1-0.3c0.3,0,0.5,0.1,0.6,0.2c0.1,0.1,0.2,0.3,0.3,0.5c0,0.2,0,0.4,0,0.6v4h1v-8
	h0.1h1h1.2l-0.1,0.2c-0.7,1.8-1.1,3.4-1.1,4.7c0,0.6,0.1,1,0.3,1.4c0.2,0.4,0.6,0.7,1.1,1c0.4,0.2,1.1,0.6,2.1,1.1l0.3-0.6l-1.9-1.3
	c-0.3-0.2-0.6-0.5-0.7-0.7c-0.1-0.3-0.2-0.6-0.2-1c0-0.4,0-0.9,0.1-1.4c0.1-0.5,0.2-0.9,0.3-1.3c0.1-0.3,0.2-0.7,0.3-1.1
	s0.2-0.6,0.3-0.7s0.1-0.2,0.1-0.3h0.5h0.4h6.1v0.6l-5.3,2.4v1.2l5.3,3.8h1v-8h1v-0.9h-8.1h-0.4h-2.8h-1h-9.2h-0.3H32.3h-1.2h-1
	c0,0,0,0.1-0.1,0.5c-0.1,0.3-0.2,0.7-0.4,1.2c-0.1,0.5-0.3,1-0.4,1.6c-0.1,0.5-0.3,1.1-0.4,1.6c-0.1,0.5-0.1,0.9-0.1,1.2
	C28.6,177.8,28.7,178.3,28.9,178.6z M62.7,178.8l-4.2-3.1l4.2-2V178.8z"/>
<path class="st4" d="M78.7,171.3h-0.3h-8.3v0.9h6.6v3c0,0-0.2-0.1-0.6-0.3c-0.4-0.2-0.9-0.4-1.5-0.5c-0.6-0.2-1-0.3-1.3-0.3
	c-0.3,0-0.6,0-0.9,0.1c-0.2,0.1-0.5,0.2-0.7,0.4c-0.4,0.4-0.6,0.8-0.6,1.5c0,0.6,0.2,1.2,0.6,1.6c0.2,0.2,0.6,0.5,1.3,1l0.5-0.6
	l-0.2-0.2c-0.2-0.1-0.3-0.3-0.6-0.6c-0.2-0.2-0.4-0.5-0.5-0.6c0,0,0-0.1,0-0.1c0,0,0-0.1,0-0.1c0,0,0-0.1,0-0.1c0,0,0-0.1,0-0.1
	s0-0.1,0-0.2c0-0.1,0-0.1,0-0.2c0-0.1,0-0.1,0.1-0.2c0-0.1,0-0.1,0.1-0.1c0,0,0.1-0.1,0.1-0.1c0,0,0.1-0.1,0.1-0.1
	c0,0,0.1-0.1,0.1-0.1c0,0,0.1-0.1,0.1-0.1c0.1,0,0.1,0,0.2,0c0.1,0,0.1,0,0.2,0c0.2,0,0.4,0,0.8,0.1c0.3,0.1,0.6,0.1,0.9,0.2
	c0.3,0.1,0.6,0.2,0.9,0.3c0.3,0.1,0.6,0.2,0.7,0.2s0.2,0.1,0.3,0.1v4h1v-8h0.7h0.3h1.1v8h1v-8h0.7v-0.9h-0.9l-0.3-0.8h-0.6l0.1,0.9
	l-0.6-0.1H78.7z"/>
<path class="st4" d="M94.4,180.2v-6.5c0-0.4-0.1-0.8-0.2-1.1c-0.2-0.3-0.4-0.6-0.6-0.7c-0.3-0.2-0.5-0.3-0.8-0.4s-0.6-0.1-0.9-0.1
	c-0.2,0-0.5,0-0.7,0.1s-0.5,0.2-0.7,0.3c-0.2,0.1-0.4,0.3-0.6,0.4c-0.2,0.1-0.4,0.3-0.6,0.5c-0.2,0.2-0.4,0.4-0.6,0.5
	c-0.1,0.1-0.3,0.3-0.5,0.5l0.4,0.5l0.6-0.5c0.4-0.3,0.9-0.6,1.5-1c0.6-0.3,1-0.5,1.4-0.5c0.1,0,0.3,0,0.4,0.1c0.1,0,0.3,0.1,0.4,0.2
	c0.1,0.1,0.2,0.1,0.3,0.2s0.2,0.2,0.2,0.3s0.1,0.2,0.1,0.3c0,0.1,0,0.2,0,0.3v4.2l-0.5,0.3c-0.3,0.2-0.7,0.4-1.2,0.6
	s-0.9,0.3-1.3,0.3c-0.9,0-1.5-0.3-2-1l-1.1-1.8l-0.6,0.3c0.3,1,0.6,1.8,1,2.3c0.3,0.4,0.6,0.7,1,0.9c0.4,0.2,0.7,0.3,0.9,0.3
	c0.2,0,0.5,0,0.8,0c0.4,0,0.9-0.1,1.4-0.3c0.5-0.2,0.9-0.4,1.1-0.5s0.4-0.2,0.5-0.3v1.2H94.4z"/>
<path class="st4" d="M99.8,177.7c0.3-0.1,0.6-0.2,0.9-0.3c0.3-0.1,0.6-0.3,0.8-0.4c0.2-0.2,0.4-0.3,0.6-0.5c0.2-0.2,0.2-0.4,0.2-0.6
	c0-0.4,0-0.7,0-0.9c0-0.2-0.1-0.5-0.2-0.7s-0.2-0.5-0.4-0.6c-0.2-0.1-0.4-0.3-0.7-0.4c-0.3-0.1-0.7-0.2-1.2-0.2
	c-0.9,0-1.9,0.1-3.1,0.3l0.1,0.7h2.9c0.6,0,1,0.1,1.2,0.2c0.2,0.2,0.3,0.6,0.3,1.2c0,0.1-0.1,0.3-0.2,0.4c-0.1,0.1-0.3,0.2-0.4,0.3
	c-0.2,0.1-0.4,0.2-0.6,0.3c-0.2,0.1-0.5,0.2-0.7,0.3c-0.2,0.1-0.5,0.1-0.8,0.2S98,177,97.7,177s-0.4,0.1-0.6,0.1
	c-0.2,0-0.4,0.1-0.4,0.1c-0.1,0-0.1,0-0.2,0l-0.1,1.1c0.6,0.4,1.4,0.8,2.4,1.3c1,0.5,1.7,0.8,2.1,1c0.4,0.2,0.8,0.3,1,0.4l0.3-0.7
	c-1.9-1.1-3.2-1.9-4.1-2.4c0.3-0.1,0.6-0.1,0.8-0.2C99.2,177.8,99.5,177.7,99.8,177.7z"/>
<path class="st4" d="M103.7,171.3H102c0-0.4-0.1-0.7-0.2-1s-0.3-0.5-0.6-0.7s-0.6-0.3-1-0.3c-0.6,0-1.8,0.1-3.8,0.2l0.1,0.7h3.7
	c0.3,0,0.6,0.1,0.7,0.2c0.1,0.1,0.2,0.4,0.2,0.8h-5.9v0.9h8.5V171.3z"/>
<path class="st4" d="M122,180.3c0,0,0-0.1,0-0.2v-0.9c0-0.1,0-0.1,0-0.2c0,0,0,0-0.1-0.1c0,0-0.1,0-0.2,0h-0.9c-0.1,0-0.2,0-0.2,0
	c0,0,0,0.1,0,0.2v0.9c0,0.1,0,0.1,0,0.2c0,0,0.1,0,0.2,0h0.9C121.9,180.3,122,180.3,122,180.3z"/>
<path class="st4" d="M126.2,180.2l0-8h1v-0.9h-8.2h-0.3h-0.5l-0.3-0.8h-0.6l0.1,0.9l-0.6-0.1h-0.5H116h-0.8l-0.3-0.9h-0.6l0.1,0.9
	v1.5l-2.4,1l-0.5-0.2c-0.3-0.1-0.6-0.3-1-0.5c-0.3-0.2-0.5-0.4-0.5-0.6c0-0.2,0.1-0.4,0.2-0.6c0.1-0.2,0.3-0.3,0.5-0.3
	c0.3,0,0.7,0,1.2,0.1l0.1-0.6l-0.2-0.1c-0.2-0.1-0.4-0.1-0.6-0.2c-0.3-0.1-0.5-0.1-0.7-0.1c-0.3,0-0.6,0.2-0.9,0.6s-0.4,0.8-0.4,1.1
	c0,0.2,0.1,0.4,0.2,0.6s0.3,0.3,0.4,0.5s0.3,0.2,0.5,0.3c0.2,0.1,0.3,0.2,0.4,0.2c0.1,0,0.1,0.1,0.2,0.1l-1.9,0.9v1.1l5.3,3.9h1v-8
	h0.6h0.3h1v8h1v-8h0.4h0.3h6.1v0.6l-5.3,2.4v1.2l5.3,3.8H126.2z M114.4,178.8l-4.2-3.1l4.2-2V178.8z M125.2,173.8v5l-4.2-3.1
	L125.2,173.8z"/>
<path class="st4" d="M146.4,169.1c-0.2-0.1-0.4-0.1-0.7-0.2c-0.7-0.2-1.3-0.3-1.8-0.5c-0.6-0.1-1-0.2-1.3-0.3
	c-0.3-0.1-0.6-0.1-1-0.2s-0.7-0.1-1-0.1c-0.6,0-1,0.1-1.3,0.4c-0.3,0.3-0.5,0.7-0.5,1.2v0.8c0,0.5,0.1,0.9,0.4,1.1l-1.1-0.1h0h-0.3
	h-0.6l-0.3-0.8h-0.6l0.1,0.9l-0.6-0.1h-0.5H135h-0.8v-1.2h-0.7l-0.3,1.2v1.3l-0.3-0.1c-0.2-0.1-0.5-0.2-0.8-0.4
	c-0.4-0.1-0.7-0.2-1-0.3c-0.3-0.1-0.6-0.1-0.9-0.1c-0.1,0-0.2,0-0.2,0c-0.1,0-0.1,0-0.2,0c-0.1,0-0.1,0-0.2,0s-0.1,0-0.2,0.1
	c-0.1,0-0.1,0.1-0.2,0.1S129,172,129,172s-0.1,0.1-0.2,0.2c-0.2,0.2-0.4,0.5-0.7,0.9c-0.2,0.4-0.3,0.8-0.3,1.1c0,0.2,0,0.4,0.1,0.6
	s0.1,0.4,0.2,0.5c0.1,0.2,0.2,0.3,0.3,0.4c0.4,0.4,0.8,0.7,1.3,1l0.5-0.6l-0.3-0.3c-0.2-0.2-0.4-0.5-0.7-0.8
	c-0.2-0.3-0.3-0.6-0.3-0.8c0-0.1,0-0.2,0-0.3s0.1-0.2,0.1-0.3c0.1-0.1,0.1-0.2,0.2-0.3s0.2-0.2,0.3-0.3s0.2-0.1,0.3-0.2
	s0.2-0.1,0.3-0.1c0.4,0,0.8,0.1,1.4,0.3c0.5,0.2,0.9,0.3,1.1,0.4c0.2,0.1,0.4,0.2,0.5,0.3v6.4h1v-8h0.8h0.3h1v8h1v-8h0.4h0.3h1.1v8
	h1v-8h0.2h0.5h0.9v5.8c0,0.8,0.2,1.4,0.5,1.7s0.8,0.5,1.3,0.5c0.6,0,1.4-0.3,2.3-0.8s1.5-1.3,1.9-2.1c0.2-0.5,0.3-0.9,0.3-1.1
	c0-0.4-0.1-0.8-0.4-1.1c-0.3-0.3-0.6-0.4-1.1-0.4c-0.3,0-0.9,0-1.7,0.1l0.1,0.8h1.4c0.5,0,0.8,0.2,0.8,0.6c0,0.3-0.1,0.7-0.4,1.1
	c-0.4,0.6-0.8,1-1.4,1.4c-0.6,0.4-1.1,0.6-1.5,0.6c-0.3,0-0.5-0.1-0.7-0.3s-0.2-0.6-0.2-1v-5.7h6.5v-0.9h-1.6c0-0.4-0.1-0.8-0.2-1.1
	c0,0,0,0,0-0.1l0.2,0l0.2-0.7l-0.6-0.2C147.1,169.2,146.8,169.2,146.4,169.1C146.5,169.1,146.5,169.1,146.4,169.1z M146.7,171.3
	h-5.8h-0.5h-0.2c-0.1-0.1-0.2-0.2-0.3-0.3c-0.1-0.1-0.1-0.2-0.1-0.3c0-0.1,0-0.2,0-0.4v-0.7c0-0.3,0.1-0.5,0.3-0.6
	c0.2-0.1,0.4-0.1,0.7-0.1c0.2,0,0.6,0,1.1,0.1l0.5,0.1c-0.6,0-1.2,0.1-1.9,0.1l0.1,0.7h5.3C146.4,169.9,146.7,170.4,146.7,171.3z"/>
<path class="st4" d="M163.4,174.9c-0.5-0.6-1-0.9-1.4-0.9c-0.2,0-0.4,0.1-0.6,0.2c-0.2,0.2-0.4,0.3-0.6,0.5s-0.4,0.3-0.6,0.5
	c-0.2,0.2-0.4,0.2-0.6,0.2c-0.4,0-0.7,0-0.9-0.1c-0.2-0.1-0.3-0.2-0.3-0.4c0-0.7,0.1-1.1,0.4-1.1h1l0.1-0.8l-0.2,0
	c-0.1,0-0.3,0-0.5-0.1c-0.2,0-0.4,0-0.5,0c-0.5,0-0.8,0.1-1,0.2c-0.3,0.2-0.4,0.8-0.4,1.6c0,0.6,0.2,1.1,0.6,1.3
	c0.4,0.2,0.9,0.4,1.7,0.4c0.3,0,0.6-0.1,0.8-0.2c0.3-0.1,0.5-0.3,0.6-0.4s0.3-0.3,0.4-0.4c0.1-0.1,0.3-0.2,0.3-0.2
	c0.2,0,0.4,0.1,0.6,0.4c0.2,0.3,0.4,0.5,0.4,0.7c0,0.3-0.2,0.6-0.7,1c-0.5,0.4-0.9,0.7-1.4,1c-0.1,0.1-0.3,0.1-0.4,0.2h-0.6v0.1l0,0
	c-0.1,0-0.2,0-0.2,0c-0.7,0-1.5-0.5-2.3-1.4l-2.1-2.3l-0.6,0.4l0.3,0.5c0.2,0.3,0.5,0.7,0.8,1.2c0.4,0.5,0.7,0.9,1,1.2
	c1,1,1.9,1.4,2.8,1.5l-0.2,0.9l-0.3-0.1c-0.2-0.1-0.4-0.2-0.7-0.2c-0.3-0.1-0.5-0.1-0.6-0.1c-0.3,0-0.5,0.1-0.7,0.4
	c-0.2,0.3-0.3,0.5-0.4,0.8s-0.1,0.5-0.1,0.7c0,0.3,0.1,0.5,0.4,0.7s0.6,0.4,0.9,0.5c0.3,0.1,0.6,0.1,0.8,0.1c0.2,0,0.4-0.1,0.6-0.4
	c0.2-0.3,0.4-0.5,0.5-0.6s0.1-0.3,0.2-0.4l2.1,1.3l0.3-0.4c0,0-0.2-0.2-0.5-0.4c-0.3-0.3-0.6-0.5-1-0.8c-0.4-0.3-0.6-0.5-0.7-0.6
	l0.4-1.4c0.2-0.1,0.5-0.1,0.7-0.3c0.7-0.4,1.4-0.9,2-1.4s0.9-1.1,0.9-1.6C164.2,175.9,163.9,175.5,163.4,174.9z M158.9,181.7
	c-0.1,0.1-0.1,0.3-0.2,0.4c-0.1,0.1-0.2,0.2-0.3,0.2c-0.1,0-0.2,0-0.3,0c-0.1,0-0.2-0.1-0.3-0.1c-0.1-0.1-0.2-0.1-0.3-0.2
	c-0.1-0.1-0.1-0.2-0.1-0.3c0-0.1,0.1-0.3,0.2-0.5c0.1-0.2,0.2-0.3,0.4-0.3c0.3,0,0.6,0.2,1.1,0.5L158.9,181.7z"/>
<path class="st4" d="M165.1,171.3h-11.5v0.9h11.5h0.3h8.1v2.1l-0.1-0.1c0-0.1-0.2-0.1-0.3-0.2c-0.2-0.1-0.4-0.1-0.6-0.1
	c-0.5,0-1,0.1-1.3,0.2s-0.6,0.4-0.7,0.8c-0.1-0.4-0.4-0.7-0.8-0.8c-0.4-0.1-1-0.2-1.7-0.2c-0.2,0-0.5,0-0.7,0.1
	c-0.2,0.1-0.4,0.1-0.6,0.3s-0.4,0.3-0.5,0.6s-0.2,0.6-0.2,1c0,0.5,0.1,1,0.3,1.6s0.3,0.9,0.4,1.1s0.2,0.3,0.3,0.4l0.6-0.2
	c-0.4-1.3-0.5-2.1-0.5-2.6c0-0.7,0.3-1.1,1-1.1c0.8,0,1.3,0.1,1.5,0.3c0.2,0.2,0.4,0.7,0.4,1.5l0,0.7h0.8l0.2-1.1
	c0.1-0.5,0.2-0.9,0.5-1c0.2-0.2,0.6-0.3,1.1-0.3c0.3,0,0.5,0.1,0.6,0.2c0.1,0.1,0.2,0.3,0.3,0.5c0,0.2,0,0.4,0,0.6v4h1v-8h1.1v-0.9
	h-10.2H165.1z"/>
<rect x="178" y="171.3" class="st4" width="1" height="8.9"/>
<path class="st4" d="M35.7,36.3c-0.6,0.5-1.3,0.8-2.2,0.8c-0.4,0-0.9-0.2-1.5-0.5c-0.5-0.3-1-0.9-1.5-1.5l-1.7-2.5l-1.2,0.7l0.1,0.5
	c0.1,0.3,0.3,0.8,0.5,1.3c0.3,0.6,0.6,1.1,0.9,1.6c1.2,1.7,2.7,2.5,4.5,2.5c0.8,0,1.6-0.2,2.4-0.7c0.8-0.5,1.5-1.2,2.2-2
	c0.6-0.8,0.9-1.6,0.9-2.2c0-0.5-0.1-1-0.4-1.5c-0.3-0.5-0.6-0.9-1.1-1.1c0,0,0.1-0.1,0.1-0.2s0.1-0.2,0.1-0.3c0-0.1,0.1-0.2,0.1-0.3
	c0-0.1,0-0.3,0.1-0.4c0-0.2,0-0.3,0-0.4c0-0.1,0-0.2,0-0.4c0-0.2,0-0.3,0-0.3c0-0.3,0-0.7,0-1.1c0-0.5-0.3-0.9-1-1.2
	s-1.5-0.4-2.6-0.4l-0.8,0.8l-0.5-0.2c-0.3-0.1-0.7-0.3-1.2-0.4c-0.5-0.1-0.8-0.2-1.1-0.2c-0.3,0-0.5,0-0.6,0.1S30.2,26.9,30,27
	c-0.1,0.1-0.3,0.3-0.5,0.7c-0.2,0.3-0.4,0.7-0.6,1.1s-0.3,0.8-0.3,1.1c0,0.1,0,0.2,0,0.3c0,0.1,0.1,0.2,0.2,0.3
	c0.1,0.1,0.1,0.2,0.2,0.2c0.1,0.1,0.2,0.1,0.3,0.2c0.1,0.1,0.2,0.1,0.3,0.2s0.2,0.1,0.4,0.2c0.2,0.1,0.3,0.1,0.4,0.2
	c0.1,0,0.2,0.1,0.4,0.2c0.2,0.1,0.3,0.1,0.4,0.1c0.1,0,0.2,0.1,0.3,0.1c0.1,0,0.1,0.1,0.2,0.2c0,0.1,0.1,0.1,0.1,0.2
	c0,0.1,0,0.1,0,0.2c0,0,0,0.1,0,0.1s-0.1,0.1-0.1,0.1S31.5,33,31.4,33c-0.1,0.1-0.1,0.1-0.2,0.1c-0.1,0-0.1,0.1-0.2,0.1
	c-0.1,0.1-0.1,0.1-0.2,0.1c-0.1,0-0.1,0.1-0.2,0.1s-0.1,0.1-0.1,0.1c0,0,0,0,0,0l0.8,1.3l0.1-0.1c0.1,0,0.2-0.1,0.3-0.2
	c0.1-0.1,0.3-0.1,0.4-0.2c0.2-0.1,0.3-0.2,0.5-0.3s0.3-0.2,0.4-0.3c0.1-0.1,0.2-0.2,0.3-0.4c0.1-0.1,0.1-0.3,0.1-0.4
	c0-0.5-0.1-0.9-0.2-1.3c0-0.1,0-0.2-0.1-0.2c0-0.1,0-0.2-0.1-0.2c0-0.1,0-0.1-0.1-0.2c0-0.1,0-0.1-0.1-0.2c0,0,0-0.1-0.1-0.1
	c0,0-0.1-0.1-0.1-0.1c0,0-0.1-0.1-0.1-0.1c0,0-0.1-0.1-0.1-0.1c0,0-0.1-0.1-0.2-0.1c-0.1,0-0.1,0-0.2-0.1c0,0-0.1,0-0.3-0.1
	c-0.1,0-0.2-0.1-0.3-0.1c-0.1,0-0.2-0.1-0.3-0.1s-0.2-0.1-0.3-0.1S31,29.9,31,29.8s-0.1-0.1-0.2-0.1c0,0-0.1-0.1-0.1-0.1
	c0-0.2,0.1-0.3,0.2-0.5c0.1-0.2,0.3-0.3,0.4-0.3c0.4,0,1.3,0.3,2.7,0.8l0.9-0.9c0.6,0,1,0.1,1.2,0.2s0.3,0.4,0.2,0.8
	c0,0,0,0.1,0,0.1c0,0,0,0.1,0,0.1c-0.1,0.4-0.1,0.7-0.2,0.9c-0.1,0.2-0.3,0.3-0.6,0.3h-1.3v1.9h1.6c0.3,0,0.7,0.2,0.9,0.5
	c0.3,0.3,0.4,0.6,0.4,0.8C37.1,34.7,36.7,35.5,35.7,36.3z"/>
<path class="st4" d="M39.8,28.6H46v4.8l0.1,0c0,0,0.1,0,0.2,0c0.1,0,0.2,0,0.3,0c0.1,0,0.3,0,0.4,0c0.1,0,0.3,0,0.4,0s0.3,0,0.5,0
	c0.2,0,0.3,0,0.5,0c0.1,0,0.3,0,0.4,0c0.1,0,0.3,0,0.4,0c0.4,0,0.7,0,0.9,0s0.3,0.1,0.4,0.2c0.1,0.1,0.2,0.2,0.2,0.4
	c0,0.1-0.1,0.4-0.4,0.7c-0.3,0.3-0.6,0.7-1.1,1c-0.6,0.5-1.1,0.7-1.5,0.7c-0.3,0-0.7-0.1-1.1-0.4c-0.4-0.3-0.8-0.6-1.1-1.1
	c-0.8-1-1.9-2.4-3.3-4.2l-1.3,0.6l0.3,0.6c0.2,0.4,0.5,1,1,1.9c0.5,0.8,1.1,1.7,1.7,2.5c0.5,0.7,1.1,1.2,1.8,1.6s1.3,0.6,1.9,0.6
	c0.3,0,0.5,0,0.7-0.1s0.4-0.1,0.6-0.2s0.4-0.2,0.5-0.3s0.4-0.3,0.6-0.5c0.7-0.6,1.4-1.3,1.9-2.1c0.6-0.8,0.8-1.5,0.8-2.2
	c0-0.2,0-0.4-0.1-0.6s-0.2-0.3-0.4-0.4c-0.2-0.1-0.4-0.2-0.6-0.2c-0.2-0.1-0.4-0.1-0.7-0.1c-0.3,0-0.6,0-0.7,0c-0.2,0-0.4,0-0.8,0
	c-0.4,0-0.9,0-1.3,0.1v-1.2l0.2,0.1c0.2,0,0.4,0.1,0.6,0.1c0.3,0.1,0.6,0.1,0.9,0.2c0.3,0.1,0.7,0.1,1,0.2c0.4,0.1,0.7,0.2,1,0.2
	c0.3,0.1,0.6,0.1,0.9,0.2c0.3,0.1,0.5,0.1,0.6,0.2c0.3,0.1,0.5,0.2,0.6,0.4c0.1,0.2,0.2,0.3,0.2,0.5c0,0.2-0.1,0.5-0.2,0.8
	c-0.4,1.1-1,2.9-2,5.5h2.1l2-5.8c0.1-0.3,0.1-0.5,0.1-0.7c0-1.1-1-1.9-2.9-2.5c-1-0.3-2.8-0.6-5.2-0.8v-0.3H57h0.5h6.9V29l-6.4,2.9
	v1.6l6.4,4.6h2.2v-9.5h1.4v-1.9H57.5H57H39.8V28.6z M64.3,35.5l-3.7-2.7l3.7-1.7V35.5z"/>
<path class="st4" d="M81.8,31.5L81.8,31.5c-1.8-0.8-3.2-1.2-4.3-1.2c-0.7,0-1.4,0.3-2,0.8c-0.3,0.2-0.5,0.5-0.6,0.9
	c-0.2,0.4-0.3,0.7-0.3,1.1c0,0.9,0.3,1.6,0.8,2.2c0.4,0.4,1.2,1,2.3,1.7l0.9-1.2l-0.5-0.5c-0.3-0.3-0.6-0.7-0.9-1.1
	c-0.3-0.4-0.5-0.7-0.5-0.9c0-0.1,0-0.3,0.1-0.4c0.1-0.1,0.1-0.2,0.2-0.3c0.1-0.1,0.2-0.1,0.3-0.2s0.2-0.1,0.4-0.1
	c0.7,0,2.1,0.4,4.1,1.2v4.6H84v-9.5h0.2h1.1h1.2v9.5h2.2v-9.5h1.3h0.5H92v9.5h2.2v-9.5h0.7h0.5h7.3V29l-6.3,2.9v1.6l6.3,4.7h2.2v-7
	l1.6,0.5c0.4,0.2,0.7,0.3,0.9,0.4c0.1,0.1,0.2,0.3,0.2,0.6c0,0.2-0.1,0.5-0.4,0.9l-0.6,1.2l1.5,1l0.3-0.3c0.2-0.2,0.4-0.5,0.6-0.9
	c0.2-0.4,0.5-0.7,0.6-1.1c0.1-0.2,0.2-0.3,0.2-0.5c0-0.2,0.1-0.3,0.1-0.4c0-0.1,0-0.3,0-0.4c0-0.9-0.7-1.7-2-2.2l-3-1l0-0.5h5.9
	v-1.9H95.4h-0.5H94c-0.1,0-0.1-0.1-0.2-0.1c0,0-0.1-0.1-0.1-0.1c0,0,0-0.1-0.1-0.1c0-0.1,0-0.1,0-0.1c0,0,0-0.1,0-0.2s0-0.1,0-0.2
	s0-0.1,0-0.2s0-0.2,0-0.2v-0.9c0-0.3,0.1-0.5,0.2-0.5c0.1-0.1,0.4-0.1,0.7-0.1c0.3,0,0.9,0.1,1.7,0.3l7,1.3l0.4-1.4l-0.8-0.2
	c-0.5-0.2-1.3-0.4-2.2-0.6c-0.9-0.2-1.7-0.4-2.4-0.6c-2.1-0.5-3.6-0.7-4.4-0.7c-0.7,0-1.3,0.2-1.7,0.5s-0.6,0.8-0.6,1.6v1.5
	c0,0.7,0.2,1.1,0.5,1.4L91,26.7h-0.6h-0.5h-1.5l-0.4-1.2h-1.6l0.1,1.3l-1.3-0.1v0h0h-1.1H73.3v1.9h8.6V31.5z M102.7,35.6l-3.7-2.8
	l3.7-1.7V35.6z"/>
<path class="st4" d="M113.9,35.6c-0.3,0-0.4,0.1-0.4,0.4v1.6c0,0.1,0,0.2,0.1,0.3c0.1,0.1,0.2,0.1,0.3,0.1h1.6
	c0.3,0,0.4-0.1,0.4-0.4v-1.6c0-0.3-0.1-0.4-0.4-0.4H113.9z"/>
<path class="st4" d="M110.9,25.3v1.9h4.5c0.3,0,0.5,0,0.7,0.1c0.2,0,0.4,0.1,0.5,0.2c0.2,0.1,0.3,0.2,0.4,0.3
	c0.1,0.1,0.2,0.3,0.2,0.4c0.1,0.2,0.1,0.4,0.1,0.6v1c0,0.5-0.1,0.9-0.4,1.1c-0.3,0.2-0.7,0.4-1.1,0.4h-2.1v3.5h2V33
	c2.7,0.2,4.1-0.9,4.1-3.3v-1.3c0-0.5-0.1-0.9-0.2-1.3c-0.2-0.4-0.4-0.8-0.7-1.1c-0.3-0.3-0.7-0.6-1.2-0.8c-0.5-0.2-1.1-0.3-1.8-0.3
	c-0.9,0-1.8,0-2.5,0.1C112.7,25,111.8,25.1,110.9,25.3z"/>
<path class="st7" d="M395.3,207.8c-1.6,0-3.1-1-3.6-2.5c-10.8-0.2-22.9-0.3-35.8-0.3s-25,0.1-35.8,0.3c-0.6,1.4-2,2.5-3.6,2.5
	c-1.6,0-3-1-3.6-2.3c-22.1,0.5-36.8,1.4-36.8,2.4c0,1.6,35.7,2.9,79.8,2.9s79.8-1.3,79.8-2.9c0-1-14.7-1.9-36.8-2.4
	C398.2,206.9,396.8,207.8,395.3,207.8z"/>
<path class="st8" d="M288.1,144.2c0.4-0.6,0.9-1.2,1.6-1.6v-19V89.1V65.5c0-2.7,0.9-5.3,2.7-7.4c0.6-0.7,1.3-1.3,2-1.9
	c2.3-1.8,5.2-2.6,8.2-2.3c-1.6,3.6-2,7.4-1.1,10.8c1-3.9,4-8.9,8.6-13.5c4.6-4.6,9.6-7.6,13.5-8.6c-5.4-1.4-12,0.4-16.8,5.3
	c-0.6,0.6-1.1,1.1-1.6,1.8c-4.6-1.1-9.4-0.1-13.2,2.6c-1.1,0.8-2.2,1.8-3.1,2.9c-2.4,2.9-3.7,6.6-3.7,10.4v18v36.3v24
	c0.3-0.1,0.7-0.1,1-0.1C286.8,143.8,287.5,143.9,288.1,144.2z"/>
<path class="st3" d="M383.1,127.7v0.1c0.9,0.3,1.8,0.5,2.8,0.6l12.4-12.4c-0.4-0.3-0.8-0.7-1.1-1.1c-0.4-0.6-0.6-1.3-0.7-2.1l-3,3
	l-11.5,11.5C382.4,127.5,382.7,127.6,383.1,127.7z"/>
<path class="st3" d="M411.5,100.3c-0.6-0.6-1.7-0.6-2.3,0l-10.2,10.2c0.3,0.3,0.5,0.9,0.3,1.4c0.6-0.7,1.6-1.1,2.5-1.2
	c0.6-0.1,1.2,0,1.8,0.2l8.1-8.1c0.5-0.5,0.6-1.3,0.3-1.9c-0.1-0.2-0.2-0.3-0.3-0.5L411.5,100.3z"/>
<path class="st5" d="M400,93.2c0.9,0.6,1.8,1.2,2.6,1.9c1.8,1.4,3.4,3.1,4.2,5.3c1.2-2.6,1.6-5.5,1.2-8.3c-0.3-1.9-0.9-3.7-1.6-5.5
	c-0.6-1.5-1.1-3-2-4.3c-1.1-1.6-2.9-3.8-4.9-4c-1-0.1-2,0-2.8,0.3c0,0,0,0.1,0,0.1c0,0.8-0.7,1.5-1.5,1.5c-0.2,0-0.4,0-0.6-0.1
	c-0.1,0.1-0.2,0.2-0.3,0.3c1.4,1.4,2.6,3.1,3.4,4.8C399.1,87.9,399.8,90.5,400,93.2z"/>
<path class="st5" d="M353.6,77.7c4.7-2.2,9.6-4.4,14.7-5.5c-1.2-0.9-2.8-1.4-4-1.6c-2.1-0.2-4.1,0.6-6,1.5c-1.7,0.8-3.3,1.7-4.9,2.7
	c-0.6,0.4-1.3,0.8-2,1c-1.2,0.3-2.5,0.1-3.4-0.7c0.4,1.8,1.2,3.5,2.4,4.9C351,79.2,352.2,78.4,353.6,77.7z"/>
<path class="st9" d="M386.9,106.2c1,1,2.9,0.7,3.8-0.4c0.9-1.1,1-2.7,0.7-4c-0.3-1.1-1-2.2-2-2.6c-1.1-0.4-2.5,0-2.8,1.1
	c-0.6-3.4-1.3-4.7-4.5-6.3c-5.3-2.7-11.6-2.1-17.2-3.7c1,1.1,2.5,1.5,3.6,2.3c1.2,0.8,1.9,2.7,0.8,3.7c-1.1-2.3-4.1-2.8-6.5-3.3
	c-2-0.4-4-1.1-5.9-2.1c-0.2,1.3-0.5,2.6-0.7,3.9c-0.6,3.1-1.2,6.2-1.8,9.4c-0.3,1.3-0.8,2.4-1,3.7c-0.2,1.4-0.1,2.9,0.3,4.3
	c0.1,0.3,0.2,0.6,0.3,0.9c0.3,0.7,0.6,1.3,1,1.9c0.9,1.4,2.1,2.5,3.6,3.3c1.2,0.7,2.5,1.1,3.9,1.4c2.4,0.6,4.8,1,7.2,1.2
	c1.7,0.1,3.5,0.1,5.2,0c0.4,0,0.9-0.1,1.3-0.1c2.1-0.2,4.2-0.6,6.2-1.2c1-0.3,2-0.6,2.9-1.1C387.2,114.7,387.1,110.3,386.9,106.2z"
	/>
<path class="st3" d="M398.8,92.3c0.4,0.3,0.9,0.6,1.3,0.9c-0.2-2.7-0.9-5.3-2.2-7.9c-0.9-1.8-2.1-3.4-3.4-4.8
	c-0.2,0.3-0.4,0.7-0.6,1.1c1.2,1.3,2.2,2.7,3,4.3C397.8,87.9,398.5,90.1,398.8,92.3z"/>
<path class="st5" d="M353.8,97.4c-0.5,2.8-1.1,5.6-2.5,8c-0.5,0.8-1.2,1.6-2.1,1.5c0.8,1.5,1.7,3.1,2.8,4.4c0.5,0.6,1.2,1.2,1.8,1.6
	c-0.1-0.3-0.2-0.6-0.3-0.9c-0.4-1.4-0.5-2.9-0.3-4.3c0.2-1.3,0.7-2.5,1-3.7c0.6-3.1,1.2-6.2,1.8-9.4c0.2-1.3,0.5-2.6,0.7-3.9
	c1.9,1,3.9,1.7,5.9,2.1c2.5,0.5,5.4,1,6.5,3.3c1.1-0.9,0.4-2.8-0.8-3.7c-1.2-0.8-2.7-1.2-3.6-2.3c5.6,1.6,11.9,1,17.2,3.7
	c3.2,1.6,3.9,2.9,4.5,6.3c0.3-1.1,1.8-1.6,2.8-1.1c1.1,0.4,1.7,1.5,2,2.6c0.4,1.4,0.3,2.9-0.7,4c-0.9,1.1-2.7,1.4-3.8,0.4
	c0.2,4.1,0.3,8.5-1.7,12.1c-0.2,0.3-0.4,0.7-0.6,1c2.2-0.1,4.2-1.3,5.7-2.8c1.6-1.5,2.7-3.4,3.8-5.2c3.3-5.9,5.5-12.5,4.6-19
	c-0.3-2.2-0.9-4.4-2-6.5c-0.8-1.6-1.8-3-3-4.3c-0.7-0.7-1.4-1.4-2.2-2.1c-0.5,1.7-2.1,2.9-3.9,2.9c-2.3,0-4.1-1.9-4.1-4.1
	c0-0.5,0.1-0.9,0.2-1.3c-0.9,0.8-2.1,1.3-3.4,1.3c-1.6,0-3-0.7-3.9-1.8c-0.5,1.3-1.8,2.3-3.3,2.3c-1.9,0-3.5-1.6-3.5-3.5
	c0-0.9,0.3-1.6,0.8-2.2c-5.6,0.8-10.9,3.2-16,5.6c-4.3,2-5.7,5.1-2.3,8.7c0.4,0.4,0.8,0.8,1.2,1.2c0.6,0.5,1.3,1,2,1.5
	C354.5,92.5,354.1,95.5,353.8,97.4z"/>
<path class="st10" d="M401.7,110.7c-0.9,0.1-1.9,0.4-2.5,1.2c0.2-0.4,0.1-1-0.3-1.4c0,0-0.1-0.1-0.1-0.1c-0.4-0.3-1.1-0.3-1.5,0
	c-0.3,0.2-0.5,0.6-0.6,0.9c-0.2,0.5-0.3,1.1-0.2,1.6c0,0.7,0.3,1.5,0.7,2.1c0.3,0.4,0.7,0.8,1.1,1.1c0.6,0.4,1.4,0.7,2.2,0.7
	c0.2,0,0.5,0,0.7,0.1c0.1,0.1,0.2,0.3,0.3,0.4c0.8,2,0.4,4.3-0.7,6.1s-2.9,3.1-4.9,4c-0.6,0-1.5,0.6-2.1,0.7
	c-0.7,0.2-1.5,0.3-2.2,0.4c-1.5,0.2-3.1,0.2-4.6,0c-0.3,0-0.7-0.1-1-0.1c-0.9-0.2-1.9-0.4-2.8-0.6v-0.1c-0.3-0.1-0.6-0.3-1-0.4
	c-1.5-0.6-2.9-1.2-4.4-1.7c-0.6-0.2-1.1-0.4-1.7-0.5c-0.4-0.1-0.8-0.2-1.1-0.3c0-1.4,0-2.8-0.1-4.2c-1.7,0.1-3.5,0.1-5.2,0
	c0.1,1.2,0.2,2.4,0.2,3.6c0,0.2,0,0.5,0,0.7c-2.5,0.9-5,1.7-7.3,2.8v0c-2,0.7-3.8,2.2-5.6,3.3c-2.2,1.3-4.6,2.5-7.1,2.2
	c-1.2-0.1-2.4-0.6-3.5-1.1c-0.9-0.4-1.7-0.9-2.4-1.5c-0.9-0.8-1.4-1.9-1.8-3c-0.8-2-1.3-4.1-1.6-6.3c-0.3-1.6,0.9-3.1,1.1-4.6
	c0.1-0.5,0-1-0.2-1.5c-0.4-1-0.8-1.7-0.9-2.8c-0.1-0.9-0.1-1.8,0-2.8c-0.1,0-0.2,0.1-0.3,0.1c-0.7,0-1.3-0.6-1.3-1.3
	c0-0.3,0.1-0.6,0.3-0.8c-1.4,0.7-0.7,3.4-1.2,4.8c0,0.2,0.1,0.3,0.1,0.5c0,1-0.8,1.8-1.8,1.8c-1,0-1.8-0.8-1.8-1.8
	c0,0.7-0.6,1.3-1.3,1.3c-0.7,0-1.3-0.6-1.3-1.3c0-0.4,0.2-0.8,0.5-1c-0.5-0.2-0.9-0.6-0.9-1.2c0-0.1,0-0.2,0-0.2
	c-0.3,0.1-0.6,0.2-1,0.2c-1.2,0-2.3-1-2.3-2.3c0-0.3,0.1-0.6,0.2-0.9c-0.3-0.2-0.5-0.6-0.5-1c0-0.1,0-0.2,0.1-0.3
	c-0.4-0.3-0.8-0.4-1.2-0.2c-0.8,0.3-0.9,1.2-1,2c0,2.4,0.5,4.5,1.9,6.4c0.1,0.2,0.3,0.4,0.5,0.6c1.5,1.6,3.4,2.8,5.4,3.7
	c0.4,0.2,0.8,0.3,1.1,0.6c0.4,0.4,0.6,1,0.7,1.5c0.6,2.2,1.1,4.4,1.7,6.7c0.3,1,0.5,2,0.9,3c0.5,1.2,1.3,2.3,2.2,3.2
	c0.6-0.4,1.4-0.7,2.2-0.7c1.8,0,3.3,1.2,3.8,2.9c0.4-0.1,0.9-0.2,1.3-0.2c1.8,0,3.3,0.9,4.2,2.3c2.3-1.9,5.2-3.1,8.5-3.1
	c3.5,0,6.7,1.4,9.1,3.6c0.9-1.3,2.4-2.1,4.1-2.1c2.6,0,4.7,2,5,4.5c0.6-0.1,1.2-0.1,1.8-0.1c1,0,2,0.1,2.9,0.3v-5.2
	c5,0,10.1-1.2,14.5-3.6c1.1-0.6,2.1-1.2,3.1-2c2.4-2,4-4.9,4.7-8c0.5-2.2,0.5-4.4,0.3-6.6c-0.2-1.6-0.1-3.7-1.7-4.6
	c-0.1-0.1-0.3-0.1-0.4-0.2C402.9,110.6,402.3,110.6,401.7,110.7z M383,134.6c-1.6,0-2.9-1.3-2.9-2.9s1.3-2.9,2.9-2.9
	c1.6,0,2.9,1.3,2.9,2.9S384.7,134.6,383,134.6z"/>
<path class="st10" d="M334.3,112.4c0,0.1,0.1,0.3,0.1,0.4c0-0.1,0-0.2,0-0.3C334.4,112.5,334.3,112.5,334.3,112.4z"/>
<path class="st11" d="M373.2,78.7c1.5,0,2.8-0.9,3.3-2.3c0.9,1.1,2.3,1.8,3.9,1.8c1.3,0,2.5-0.5,3.4-1.3c-0.1,0.4-0.2,0.8-0.2,1.3
	c0,2.3,1.9,4.1,4.1,4.1c1.9,0,3.4-1.2,3.9-2.9c0.1-0.4,0.2-0.8,0.2-1.2c0-0.5-0.1-0.9-0.2-1.4c-0.3-0.8-0.8-1.4-1.4-1.9
	c0.2-0.5,0.3-1,0.3-1.5c0-1.9-1.6-3.5-3.5-3.5c-0.8,0-1.6,0.3-2.2,0.8c-0.5-0.8-1.1-1.5-1.9-2c-0.7-0.4-1.6-0.7-2.5-0.7
	c-1.4,0-2.7,0.6-3.6,1.5c-0.4-0.3-0.9-0.5-1.5-0.5c-1.4,0-2.6,1.2-2.6,2.6c0,0,0,0,0,0c-0.9,0.1-1.6,0.6-2.2,1.2
	c-0.5,0.6-0.8,1.4-0.8,2.2C369.7,77.1,371.3,78.7,373.2,78.7z"/>
<path class="st11" d="M388.8,63.9c0-0.8-0.4-1.6-1-2c-0.4-0.3-1-0.6-1.6-0.6c-1.4,0-2.6,1.2-2.6,2.6c0,0.9,0.5,1.7,1.2,2.2
	c0.4,0.3,0.9,0.4,1.4,0.4C387.6,66.5,388.8,65.4,388.8,63.9z"/>
<path class="st11" d="M369.4,71.1c0.8,0,1.5-0.7,1.5-1.5c0-0.8-0.7-1.5-1.5-1.5c-0.8,0-1.5,0.7-1.5,1.5
	C367.8,70.4,368.5,71.1,369.4,71.1z"/>
<path class="st11" d="M396.8,78.7C396.8,78.6,396.8,78.6,396.8,78.7c-0.1-0.9-0.7-1.5-1.5-1.5c-0.8,0-1.5,0.7-1.5,1.5
	c0,0.6,0.4,1.2,1,1.4c0.2,0.1,0.4,0.1,0.6,0.1C396.1,80.2,396.8,79.5,396.8,78.7z"/>
<path class="st12" d="M288.1,145.4c0.4-0.6,0.9-1.2,1.6-1.6v-1.2c-0.6,0.4-1.2,1-1.6,1.6c-0.6-0.3-1.3-0.5-2.1-0.5
	c-0.3,0-0.7,0-1,0.1v1.2c0.3-0.1,0.7-0.1,1-0.1C286.8,144.9,287.5,145.1,288.1,145.4z"/>
<path class="st11" d="M383,128.8c-1.6,0-2.9,1.3-2.9,2.9s1.3,2.9,2.9,2.9c1.6,0,2.9-1.3,2.9-2.9S384.7,128.8,383,128.8z"/>
<path class="st11" d="M378.4,140.8c-0.3-2.5-2.4-4.5-5-4.5c-1.7,0-3.2,0.8-4.1,2.1c-2.4-2.2-5.6-3.6-9.1-3.6c-3.2,0-6.2,1.2-8.5,3.1
	c-0.9-1.4-2.5-2.3-4.2-2.3c-0.5,0-0.9,0.1-1.3,0.2c-0.4-1.7-2-2.9-3.8-2.9c-0.8,0-1.6,0.3-2.2,0.7c-0.7,0.5-1.2,1.1-1.4,1.9
	c-0.7-0.4-1.6-0.6-2.4-0.6c-1.7,0-3.2,0.8-4.1,2.1c-2.4-3.2-6.2-5.2-10.5-5.2c-3.5,0-6.7,1.4-9.1,3.6c-1.7,1.7-3,3.8-3.7,6.2
	c-0.6-0.1-1.2-0.1-1.8-0.1c-4,0-7.6,1.8-10,4.7c-0.8-1.8-2.6-3.1-4.7-3.1c-1,0-2,0.3-2.8,0.8c-0.6,0.4-1.2,0.9-1.6,1.6
	c-0.6-0.3-1.3-0.5-2.1-0.5c-0.3,0-0.7,0-1,0.1c-2,0.4-3.5,1.9-4,3.9h150.2c0-2.8-2.3-5.1-5.1-5.1c-1,0-1.9,0.3-2.7,0.8
	c-2.3-2-5.3-3.2-8.6-3.2c-0.7,0-1.4,0.1-2.1,0.2c-0.8-1.6-2.5-2.8-4.5-2.8c-2.1,0-3.8,1.2-4.6,3c-1.6-0.7-3.4-1.1-5.4-1.1
	c-1.2,0-2.3,0.2-3.4,0.4c-0.7-1.9-2.6-3.2-4.7-3.2c-2.4,0-4.3,1.6-4.9,3.8c-0.7-0.3-1.4-0.5-2.2-0.7c-0.9-0.2-1.9-0.3-2.9-0.3
	C379.5,140.7,378.9,140.7,378.4,140.8z"/>
<path class="st1" d="M316.4,207.8c1.6,0,3.1-1,3.6-2.5c0.2-0.4,0.3-0.9,0.3-1.4v-1.5c-2.7-0.5-5.3-1.2-7.8-2.2v3.7
	c0,0.6,0.1,1.1,0.3,1.6C313.4,206.9,314.8,207.8,316.4,207.8z"/>
<path class="st1" d="M391.3,203.9c0,0.5,0.1,1,0.3,1.4c0.6,1.4,2,2.5,3.6,2.5c1.6,0,3-1,3.6-2.3c0.2-0.5,0.3-1,0.3-1.6v-3.7
	c-2.5,0.9-5.1,1.7-7.8,2.2V203.9z"/>
<path class="st1" d="M320.3,201.2c-2.7-0.5-5.3-1.2-7.8-2.2v1.2c2.5,0.9,5.1,1.7,7.8,2.2V201.2z"/>
<path class="st13" d="M320.3,201.2c-2.7-0.5-5.3-1.2-7.8-2.2v1.2c2.5,0.9,5.1,1.7,7.8,2.2V201.2z"/>
<path class="st1" d="M391.3,202.4c2.7-0.5,5.3-1.2,7.8-2.2v-1.2c-2.5,0.9-5.1,1.6-7.8,2.1V202.4z"/>
<path class="st13" d="M391.3,202.4c2.7-0.5,5.3-1.2,7.8-2.2v-1.2c-2.5,0.9-5.1,1.6-7.8,2.1V202.4z"/>
<path class="st1" d="M281.2,158.6c0,0.1,0,0.2,0,0.3c1.9,18.5,14.4,33.9,31.3,40.2c2.5,0.9,5.1,1.7,7.8,2.2c2.9,0.5,5.8,0.8,8.9,0.8
	h53.3c3,0,6-0.3,8.9-0.8c2.7-0.5,5.3-1.2,7.8-2.1c6.6-2.4,12.5-6.3,17.4-11.2c7.6-7.6,12.7-17.7,13.9-29c0-0.1,0-0.2,0-0.3
	c0-0.5,0.1-1,0.1-1.4H281.1C281.1,157.6,281.2,158.1,281.2,158.6z"/>
<path class="st3" d="M280.2,148.9c-2.3,0-4.1,1.9-4.1,4.1s1.9,4.1,4.1,4.1h0.9h149.5h0.9c2.3,0,4.1-1.9,4.1-4.1s-1.9-4.1-4.1-4.1
	h-0.2H281.1H280.2z"/>
<path class="st14" d="M301.3,64.8c0.1,0.4,0.2,0.8,0.4,1.2c0.1,0.4,0.3,0.7,0.4,1c0.6-4.1,3.8-9.6,8.8-14.7
	c5.1-5.1,10.6-8.3,14.7-8.8c-0.7-0.3-1.5-0.6-2.2-0.8c-3.9,1-8.9,4-13.5,8.6C305.4,55.8,302.3,60.9,301.3,64.8z"/>
<path class="st8" d="M302.1,67c-0.3,1.9,0,3.6,1.1,4.6c1.1,1.1,3,1.4,5.2,0.9c4-0.8,9.2-4,14-8.7c7.5-7.5,10.9-16.1,7.8-19.2
	c-1-1-2.6-1.3-4.5-1.1c-4.1,0.6-9.6,3.8-14.7,8.8C305.9,57.3,302.7,62.9,302.1,67z M328.7,46.7c2.6,2.6-0.5,9.9-7,16.4
	c-6.4,6.4-13.8,9.6-16.4,7c-2.6-2.6,0.5-9.9,7-16.4S326.1,44.1,328.7,46.7z"/>
<path class="st11" d="M305.4,70c2.6,2.6,9.9-0.5,16.4-7c6.4-6.4,9.6-13.8,7-16.4c-2.6-2.6-9.9,0.5-16.4,7S302.8,67.4,305.4,70z
	 M311.7,67.4c-0.6,0.6-1.3,0.9-1.5,0.8c-0.3-0.2,0-0.8,0.6-1.4c0.6-0.6,1.3-0.9,1.5-0.8C312.6,66.2,312.3,66.9,311.7,67.4z
	 M316.3,60.6c-0.6,0.6-1.3,0.9-1.5,0.7c-0.2-0.2,0.1-0.9,0.7-1.5c0.6-0.6,1.3-0.9,1.5-0.7C317.2,59.3,316.9,60,316.3,60.6z
	 M318.2,60.3c0.2,0.2-0.1,0.8-0.7,1.4c-0.6,0.6-1.2,0.9-1.5,0.7c-0.2-0.2,0.1-0.8,0.7-1.4C317.3,60.4,318,60.1,318.2,60.3z
	 M315.2,59.5c-0.6,0.6-1.3,0.9-1.6,0.7c-0.2-0.2,0.1-0.9,0.7-1.5c0.6-0.6,1.3-1,1.6-0.7C316.1,58.2,315.8,58.9,315.2,59.5z
	 M313.9,62.2c0.2,0.2-0.1,0.8-0.7,1.5c-0.6,0.6-1.3,0.9-1.5,0.8c-0.2-0.2,0-0.8,0.7-1.5S313.6,62,313.9,62.2z M313,65.4
	c-0.2-0.2,0.1-0.8,0.7-1.4c0.6-0.6,1.3-0.9,1.5-0.7c0.2,0.2-0.1,0.8-0.7,1.4C313.9,65.2,313.3,65.6,313,65.4z M315.7,65.6
	c-0.6,0.6-1.2,0.9-1.4,0.7c-0.2-0.2,0.1-0.8,0.6-1.4c0.6-0.6,1.2-0.9,1.4-0.7C316.6,64.5,316.3,65.1,315.7,65.6z M317.2,63.5
	c-0.2-0.2,0.1-0.8,0.7-1.4c0.6-0.6,1.2-0.9,1.4-0.7c0.2,0.2-0.1,0.8-0.7,1.4C318.1,63.3,317.4,63.6,317.2,63.5z M319.7,57.9
	c0.6-0.6,1.2-0.9,1.4-0.7c0.2,0.2-0.1,0.9-0.7,1.5c-0.6,0.6-1.2,0.9-1.4,0.7C318.8,59.2,319.1,58.5,319.7,57.9z M319.6,63.6
	c-0.6,0.6-1.2,0.9-1.4,0.7c-0.2-0.2,0.1-0.8,0.7-1.3c0.6-0.6,1.2-0.9,1.4-0.7C320.4,62.5,320.1,63.1,319.6,63.6z M320.1,60.5
	c-0.2-0.2,0.1-0.8,0.7-1.4c0.6-0.6,1.2-0.9,1.4-0.7c0.2,0.2-0.1,0.8-0.7,1.4C320.9,60.4,320.3,60.7,320.1,60.5z M322.8,54.9
	c0.6-0.6,1.2-0.9,1.4-0.7c0.2,0.2-0.2,0.9-0.7,1.5c-0.6,0.6-1.2,0.9-1.4,0.7C321.8,56.2,322.2,55.5,322.8,54.9z M322.4,60.8
	c-0.6,0.6-1.2,0.9-1.3,0.7c-0.2-0.2,0.1-0.8,0.7-1.4c0.6-0.6,1.2-0.9,1.3-0.7C323.3,59.6,322.9,60.3,322.4,60.8z M324.4,57
	c-0.6,0.6-1.2,0.9-1.3,0.7c-0.2-0.2,0.1-0.9,0.7-1.4c0.6-0.6,1.2-0.9,1.4-0.6C325.3,55.8,325,56.4,324.4,57z M326.9,51.5
	c0.2,0.2-0.2,0.9-0.8,1.5c-0.6,0.6-1.2,0.9-1.4,0.6c-0.2-0.2,0.2-0.9,0.8-1.5C326.1,51.6,326.7,51.3,326.9,51.5z M324.5,50.7
	c0.6-0.6,1.3-0.9,1.4-0.6c0.2,0.3-0.2,1-0.8,1.6c-0.6,0.6-1.2,0.9-1.4,0.6C323.6,52,323.9,51.3,324.5,50.7z M323.1,52.9
	c0.2,0.2-0.2,0.9-0.8,1.5c-0.6,0.6-1.3,0.9-1.4,0.7c-0.2-0.2,0.1-0.9,0.8-1.5C322.3,52.9,323,52.6,323.1,52.9z M320.7,52.3
	c0.6-0.6,1.3-0.9,1.5-0.7c0.2,0.3-0.1,1-0.8,1.6c-0.6,0.6-1.3,0.9-1.5,0.7C319.7,53.7,320.1,53,320.7,52.3z M320.1,56
	c0.2,0.2-0.1,0.9-0.7,1.5c-0.6,0.6-1.3,0.9-1.5,0.7c-0.2-0.2,0.1-0.9,0.7-1.5S319.8,55.8,320.1,56z M319,54.8
	c0.2,0.2-0.1,0.9-0.7,1.6c-0.6,0.6-1.3,0.9-1.5,0.7c-0.2-0.2,0.1-0.9,0.7-1.6C318.1,54.9,318.8,54.6,319,54.8z M316.4,54.3
	c0.6-0.6,1.4-1,1.6-0.7c0.2,0.3-0.1,1-0.7,1.6c-0.6,0.6-1.3,1-1.6,0.7C315.4,55.7,315.7,55,316.4,54.3z M313.1,57.6
	c0.6-0.6,1.4-1,1.6-0.7c0.2,0.2-0.1,0.9-0.7,1.6s-1.4,1-1.6,0.7C312.1,59,312.4,58.3,313.1,57.6z M311.1,61.9c0.6-0.6,1.3-1,1.6-0.8
	c0.2,0.2-0.1,0.9-0.7,1.5c-0.6,0.6-1.3,1-1.6,0.8C310.2,63.2,310.5,62.6,311.1,61.9z M309.4,65.8c0.6-0.6,1.3-1,1.6-0.8
	c0.3,0.2,0,0.8-0.6,1.4c-0.6,0.6-1.3,1-1.6,0.8C308.5,67.1,308.8,66.5,309.4,65.8z"/>
<path class="st3" d="M325.2,51.6c0.6-0.6,1-1.3,0.8-1.6c-0.2-0.3-0.8,0-1.4,0.6s-1,1.3-0.8,1.6C323.9,52.5,324.6,52.2,325.2,51.6z"
	/>
<path class="st3" d="M324.8,53.7c0.2,0.2,0.8,0,1.4-0.6c0.6-0.6,0.9-1.3,0.8-1.5c-0.2-0.3-0.8,0-1.4,0.6
	C324.9,52.7,324.6,53.4,324.8,53.7z"/>
<path class="st3" d="M310.3,66.5c0.6-0.6,0.9-1.2,0.6-1.4c-0.3-0.2-1,0.2-1.6,0.8c-0.6,0.6-0.9,1.3-0.6,1.4
	C309,67.4,309.7,67.1,310.3,66.5z"/>
<path class="st3" d="M310.8,66.8c-0.6,0.6-0.9,1.2-0.6,1.4c0.2,0.2,0.9-0.2,1.5-0.8c0.6-0.6,0.9-1.2,0.6-1.4
	C312.1,65.9,311.4,66.2,310.8,66.8z"/>
<path class="st3" d="M320.9,55.1c0.2,0.2,0.8-0.1,1.4-0.7c0.6-0.6,0.9-1.3,0.8-1.5c-0.2-0.3-0.8,0-1.5,0.7
	C321.1,54.2,320.7,54.9,320.9,55.1z"/>
<path class="st3" d="M321.4,53.3c0.6-0.6,1-1.3,0.8-1.6c-0.2-0.3-0.9,0-1.5,0.7s-1,1.3-0.8,1.6C320.2,54.2,320.8,53.9,321.4,53.3z"
	/>
<path class="st3" d="M323.4,55.7c0.6-0.6,0.9-1.2,0.7-1.5c-0.2-0.2-0.8,0.1-1.4,0.7s-0.9,1.3-0.7,1.5
	C322.2,56.6,322.8,56.3,323.4,55.7z"/>
<path class="st3" d="M323.8,56.2c-0.6,0.6-0.9,1.2-0.7,1.4c0.2,0.2,0.8-0.1,1.3-0.7c0.6-0.6,0.9-1.2,0.7-1.4
	C325,55.3,324.4,55.6,323.8,56.2z"/>
<path class="st3" d="M317.8,58.2c0.2,0.2,0.9-0.1,1.5-0.7c0.6-0.6,0.9-1.3,0.7-1.5c-0.2-0.2-0.9,0.1-1.5,0.7S317.6,58,317.8,58.2z"
	/>
<path class="st3" d="M316.8,57.1c0.2,0.2,0.9-0.1,1.5-0.7c0.6-0.6,1-1.3,0.7-1.6c-0.2-0.2-0.9,0.1-1.5,0.7
	C316.9,56.2,316.5,56.9,316.8,57.1z"/>
<path class="st3" d="M320.4,58.7c0.6-0.6,0.9-1.2,0.7-1.5c-0.2-0.2-0.8,0.1-1.4,0.7s-0.9,1.3-0.7,1.5
	C319.2,59.6,319.9,59.3,320.4,58.7z"/>
<path class="st3" d="M322.2,58.5c-0.2-0.2-0.8,0.1-1.4,0.7c-0.6,0.6-0.9,1.2-0.7,1.4c0.2,0.2,0.8-0.1,1.4-0.7
	C322.1,59.3,322.4,58.7,322.2,58.5z"/>
<path class="st3" d="M315.4,59.8c-0.6,0.6-0.9,1.3-0.7,1.5c0.2,0.2,0.9-0.1,1.5-0.7c0.6-0.6,0.9-1.3,0.7-1.5
	C316.7,58.9,316.1,59.2,315.4,59.8z"/>
<path class="st3" d="M314.3,58.7c-0.6,0.6-0.9,1.3-0.7,1.5c0.2,0.2,0.9-0.1,1.6-0.7c0.6-0.6,0.9-1.3,0.7-1.5
	C315.6,57.8,314.9,58.1,314.3,58.7z"/>
<path class="st3" d="M317.2,55.2c0.6-0.6,1-1.4,0.7-1.6c-0.2-0.3-0.9,0.1-1.6,0.7c-0.6,0.6-1,1.4-0.7,1.6
	C315.9,56.2,316.6,55.9,317.2,55.2z"/>
<path class="st3" d="M314,58.5c0.6-0.6,1-1.3,0.7-1.6c-0.2-0.2-1,0.1-1.6,0.7s-1,1.4-0.7,1.6C312.6,59.4,313.4,59.1,314,58.5z"/>
<path class="st3" d="M316,62.4c0.2,0.2,0.9-0.1,1.5-0.7c0.6-0.6,0.9-1.2,0.7-1.4c-0.2-0.2-0.9,0.1-1.5,0.7
	C316.1,61.6,315.8,62.2,316,62.4z"/>
<path class="st3" d="M319.3,61.4c-0.2-0.2-0.8,0.1-1.4,0.7c-0.6,0.6-0.9,1.2-0.7,1.4c0.2,0.2,0.8-0.1,1.4-0.7
	C319.2,62.2,319.5,61.6,319.3,61.4z"/>
<path class="st3" d="M321.7,60.1c-0.6,0.6-0.9,1.2-0.7,1.4c0.2,0.2,0.8-0.1,1.3-0.7c0.6-0.6,0.9-1.2,0.7-1.4
	C322.9,59.3,322.3,59.5,321.7,60.1z"/>
<path class="st3" d="M318.9,63c-0.6,0.6-0.9,1.2-0.7,1.3c0.2,0.2,0.8-0.1,1.4-0.7c0.6-0.6,0.9-1.2,0.7-1.3
	C320.1,62.1,319.4,62.4,318.9,63z"/>
<path class="st3" d="M311.7,64.4c0.2,0.2,0.9-0.2,1.5-0.8c0.6-0.6,0.9-1.3,0.7-1.5c-0.2-0.2-0.9,0.1-1.5,0.7S311.4,64.2,311.7,64.4z
	"/>
<path class="st3" d="M312,62.7c0.6-0.6,0.9-1.3,0.7-1.5c-0.3-0.2-1,0.1-1.6,0.8c-0.6,0.6-0.9,1.3-0.7,1.5
	C310.7,63.6,311.4,63.3,312,62.7z"/>
<path class="st3" d="M315.2,63.3c-0.2-0.2-0.9,0.1-1.5,0.7c-0.6,0.6-0.9,1.2-0.7,1.4c0.2,0.2,0.9-0.2,1.5-0.7
	C315.1,64.1,315.4,63.5,315.2,63.3z"/>
<path class="st3" d="M314.9,65c-0.6,0.6-0.9,1.2-0.6,1.4c0.2,0.2,0.9-0.2,1.4-0.7c0.6-0.6,0.9-1.2,0.7-1.4
	C316.2,64.1,315.5,64.4,314.9,65z"/>
<path class="st11" d="M336.2,111c-0.9,0-1.6,0.6-1.8,1.5c0,0.1,0,0.2,0,0.3c0,1,0.8,1.8,1.8,1.8c1,0,1.8-0.8,1.8-1.8
	c0-0.2,0-0.3-0.1-0.5C337.7,111.6,337,111,336.2,111z"/>
<path class="st11" d="M341.4,108.3c0-0.7-0.6-1.3-1.3-1.3c-0.4,0-0.7,0.2-1,0.5c-0.2,0.2-0.3,0.5-0.3,0.8c0,0.7,0.6,1.3,1.3,1.3
	c0.1,0,0.2,0,0.3-0.1C341,109.5,341.4,109,341.4,108.3z"/>
<path class="st11" d="M333.9,108.7c0,0.7,0.6,1.3,1.3,1.3c0.7,0,1.3-0.6,1.3-1.3c0-0.7-0.6-1.3-1.3-1.3
	C334.5,107.4,333.9,108,333.9,108.7z"/>
<path class="st11" d="M333.1,105.5c0.7,0,1.3-0.6,1.3-1.3s-0.6-1.3-1.3-1.3c-0.7,0-1.3,0.6-1.3,1.3S332.3,105.5,333.1,105.5z"/>
<path class="st11" d="M338.8,105.1c0.7,0,1.3-0.6,1.3-1.3c0-0.7-0.6-1.3-1.3-1.3s-1.3,0.6-1.3,1.3
	C337.5,104.5,338.1,105.1,338.8,105.1z"/>
<path class="st11" d="M333.4,111.6c0.3-0.2,0.5-0.6,0.5-1c0-0.7-0.6-1.3-1.3-1.3c-0.1,0-0.2,0-0.2,0c0.1-0.3,0.2-0.6,0.2-1
	c0-1.2-1-2.3-2.3-2.3c0,0,0,0,0,0c-0.1-0.6-0.6-1-1.2-1c-0.6,0-1.1,0.4-1.2,1c0,0.1-0.1,0.2-0.1,0.3c0,0.4,0.2,0.8,0.5,1
	c-0.1,0.3-0.2,0.6-0.2,0.9c0,1.2,1,2.3,2.3,2.3c0.4,0,0.7-0.1,1-0.2c0,0.1,0,0.2,0,0.2c0,0.6,0.4,1.1,0.9,1.2
	c-0.3,0.2-0.5,0.6-0.5,1c0,0.7,0.6,1.3,1.3,1.3c0.7,0,1.3-0.6,1.3-1.3c0-0.1,0-0.3-0.1-0.4C334.2,112,333.8,111.7,333.4,111.6z"/>
</svg>
