<?xml version="1.0" encoding="utf-8"?>
<!-- Generator: Adobe Illustrator 23.0.3, SVG Export Plug-In . SVG Version: 6.00 Build 0)  -->
<svg version="1.1" id="Layer_1" xmlns="http://www.w3.org/2000/svg" xmlns:xlink="http://www.w3.org/1999/xlink" x="0px" y="0px"
	 viewBox="0 0 512 250" style="enable-background:new 0 0 512 250;" xml:space="preserve">
<style type="text/css">
	.st0{fill:none;}
	.st1{fill:#E2ECF1;}
	.st2{fill:#A4C2D1;}
	.st3{fill:#80A8BB;}
	.st4{fill:#000640;}
	.st5{fill:#2A3C58;}
	.st6{fill:#EF413E;}
	.st7{fill:#475B76;}
	.st8{fill:#F2F2F2;}
	.st9{fill:#F3D6B5;}
	.st10{fill:#FDD7BA;}
	.st11{fill:#FFFFFF;}
	.st12{fill:#CFD0D3;}
	.st13{fill:#A1A3A6;}
	.st14{fill:#D8E2E5;}
	.st15{fill:#464642;}
	.st16{fill:#24231E;}
	.st17{fill:#010101;}
	.st18{fill:#401312;}
	.st19{fill:#B37D57;}
	.st20{fill:#C3895E;}
	.st21{fill:#7F8342;}
	.st22{fill:#1C2B44;}
	.st23{fill:#E0A577;}
	.st24{fill:#CE976E;}
	.st25{fill:#3B384D;}
	.st26{fill:#B22E2A;}
	.st27{fill:#6F4434;}
	.st28{fill:#3E3E3E;}
	.st29{fill:#616262;}
	.st30{fill:#575858;}
	.st31{fill:#482D23;}
	.st32{fill:#674031;}
	.st33{fill:#553528;}
	.st34{fill:#91732B;}
	.st35{fill:#D7A929;}
	.st36{fill:#0F7790;}
	.st37{fill:#AEAEAE;}
	.st38{fill:#F8983F;}
	.st39{fill:#E57E25;}
	.st40{fill:#A6832E;}
	.st41{fill:#D0AD50;}
	.st42{fill:#818181;}
	.st43{fill:#A3A3A2;}
	.st44{fill:#0CAACC;}
	.st45{fill:#814F3D;}
	.st46{fill:#BDBDBD;}
	.st47{fill:#FAAB62;}
	.st48{fill:#97663A;}
	.st49{fill:#744E2C;}
</style>
<g>
	<path class="st0" d="M54.8,140.3c0.2-0.4,0.3-1.1,0.3-2.1c0-1.7-0.4-2.5-1.3-2.5c-0.7,0-1.6,0.2-2.6,0.6v4.2
		c0.9,0.2,1.7,0.3,2.6,0.3C54.2,140.9,54.6,140.7,54.8,140.3z"/>
	<path class="st0" d="M46.3,123c-0.1,0.1-0.1,0.1-0.2,0.2c0,0.1-0.1,0.1-0.1,0.2c0,0.1,0,0.2,0,0.3v0.4c0,0.3,0.1,0.5,0.2,0.6
		c0.1,0.1,0.3,0.1,0.5,0.1c0.1,0,0.2,0,0.3,0s0.2-0.1,0.3-0.1c0.1,0,0.2-0.1,0.3-0.1c0.1,0,0.2-0.1,0.3-0.1s0.2-0.1,0.2-0.1
		c0.1,0,0.1-0.1,0.2-0.1v-1.4l-1.8,0.1C46.5,122.9,46.4,122.9,46.3,123z"/>
	<path class="st0" d="M65.8,73.7c0-0.7-0.1-1.1-0.3-1.2s-0.7-0.2-1.4-0.2c-0.3,0-0.5,0-0.7,0s-0.3,0-0.5,0.1c-0.2,0-0.3,0.1-0.4,0.2
		c-0.1,0.1-0.2,0.2-0.3,0.4c-0.1,0.2-0.1,0.4-0.2,0.6c0,0.2,0,0.5,0,0.9H65C65.5,74.3,65.8,74.1,65.8,73.7z"/>
	<path class="st0" d="M47.7,73.7c0-0.7-0.1-1.1-0.3-1.2s-0.7-0.2-1.4-0.2c-0.3,0-0.5,0-0.7,0s-0.3,0-0.5,0.1c-0.2,0-0.3,0.1-0.4,0.2
		c-0.1,0.1-0.2,0.2-0.3,0.4C44.1,73,44,73.2,44,73.4c0,0.2,0,0.5,0,0.9h2.9C47.4,74.3,47.7,74.1,47.7,73.7z"/>
	<path class="st0" d="M50,89.3c0-0.7-0.1-1.1-0.3-1.2c-0.2-0.2-0.7-0.2-1.4-0.2c-0.3,0-0.5,0-0.7,0c-0.1,0-0.3,0-0.5,0.1
		c-0.2,0-0.3,0.1-0.4,0.2c-0.1,0.1-0.2,0.2-0.3,0.4s-0.2,0.4-0.2,0.6c0,0.2,0,0.5,0,0.9h2.9C49.7,89.9,50,89.7,50,89.3z"/>
	<path class="st0" d="M44.3,140.5c0.2,0.2,0.4,0.3,0.6,0.3c0.2,0,0.5,0.1,0.9,0.1c0.4,0,0.7,0,0.9-0.1c0.2,0,0.4-0.1,0.6-0.3
		c0.2-0.2,0.3-0.4,0.4-0.7c0.1-0.3,0.1-0.8,0.1-1.3c0-0.6,0-1.1-0.1-1.5c-0.1-0.4-0.2-0.6-0.4-0.8c-0.2-0.2-0.4-0.3-0.6-0.3
		c-0.2,0-0.5-0.1-1-0.1c-0.3,0-0.6,0-0.8,0c-0.2,0-0.4,0.1-0.6,0.2c-0.2,0.1-0.3,0.2-0.4,0.4c-0.1,0.2-0.2,0.4-0.2,0.8
		s-0.1,0.7-0.1,1.2c0,0.6,0,1,0.1,1.4S44.1,140.3,44.3,140.5z"/>
	<path class="st0" d="M30,92.9c0.3,0,0.7-0.1,1.2-0.2c0.5-0.1,0.9-0.2,1.2-0.3l0.5-0.2v-1.9L30,90.6c-0.3,0-0.5,0.1-0.6,0.3
		c-0.1,0.2-0.2,0.3-0.2,0.6v0.7C29.2,92.6,29.5,92.9,30,92.9z"/>
	<path class="st0" d="M66.2,152.9c0-0.7-0.1-1.1-0.3-1.2c-0.2-0.2-0.7-0.2-1.4-0.2c-0.3,0-0.5,0-0.7,0c-0.1,0-0.3,0-0.5,0.1
		s-0.3,0.1-0.4,0.2s-0.2,0.2-0.3,0.4c-0.1,0.2-0.2,0.4-0.2,0.6c0,0.2,0,0.5,0,0.9h2.9C65.9,153.5,66.2,153.3,66.2,152.9z"/>
	<path class="st0" d="M36.4,171.7c0.2,0.2,0.4,0.3,0.6,0.3c0.2,0,0.5,0.1,0.9,0.1c0.4,0,0.7,0,0.9-0.1c0.2,0,0.4-0.1,0.6-0.3
		c0.2-0.2,0.3-0.4,0.4-0.7c0.1-0.3,0.1-0.8,0.1-1.3c0-0.6,0-1.1-0.1-1.5c-0.1-0.4-0.2-0.6-0.4-0.8c-0.2-0.2-0.4-0.3-0.6-0.3
		c-0.2,0-0.5-0.1-1-0.1c-0.3,0-0.6,0-0.8,0c-0.2,0-0.4,0.1-0.6,0.2c-0.2,0.1-0.3,0.2-0.4,0.4s-0.2,0.4-0.2,0.8s-0.1,0.7-0.1,1.2
		c0,0.6,0,1,0.1,1.4S36.2,171.5,36.4,171.7z"/>
	<path class="st0" d="M49.3,171.7c0.2,0.2,0.4,0.3,0.6,0.3c0.2,0,0.5,0.1,0.9,0.1c0.4,0,0.7,0,0.9-0.1c0.2,0,0.4-0.1,0.6-0.3
		c0.2-0.2,0.3-0.4,0.4-0.7c0.1-0.3,0.1-0.8,0.1-1.3c0-0.6,0-1.1-0.1-1.5c-0.1-0.4-0.2-0.6-0.4-0.8c-0.2-0.2-0.4-0.3-0.6-0.3
		c-0.2,0-0.5-0.1-1-0.1c-0.3,0-0.6,0-0.8,0c-0.2,0-0.4,0.1-0.6,0.2c-0.2,0.1-0.3,0.2-0.4,0.4s-0.2,0.4-0.2,0.8s-0.1,0.7-0.1,1.2
		c0,0.6,0,1,0.1,1.4S49.1,171.5,49.3,171.7z"/>
	<path class="st0" d="M41.2,121.3c0-0.5-0.1-0.8-0.2-0.9c-0.1-0.1-0.4-0.2-0.9-0.2c-0.3,0-0.5,0-0.7,0c-0.1,0-0.3,0.1-0.4,0.2
		s-0.2,0.3-0.3,0.5c0,0.2-0.1,0.5,0,0.9h1.9C41,121.8,41.2,121.7,41.2,121.3z"/>
	<path class="st0" d="M82.3,29.8c0.2-0.3,0.4-0.6,0.4-1.1c0-0.2,0-0.4-0.1-0.5c0-0.2-0.1-0.3-0.2-0.4c-0.1-0.1-0.2-0.2-0.2-0.3
		s-0.2-0.1-0.3-0.2s-0.2-0.1-0.3-0.1c-0.1,0-0.2,0-0.3,0h-2.8v3h2.8C81.7,30.2,82,30,82.3,29.8z"/>
	<path class="st0" d="M66,137.3c0-0.7-0.1-1.1-0.3-1.2c-0.2-0.2-0.7-0.2-1.4-0.2c-0.3,0-0.5,0-0.7,0s-0.3,0-0.5,0.1
		c-0.2,0-0.3,0.1-0.4,0.2c-0.1,0.1-0.2,0.2-0.3,0.4c-0.1,0.2-0.1,0.4-0.2,0.6c0,0.2,0,0.5,0,0.9h2.9C65.7,137.9,66,137.7,66,137.3z"
		/>
	<path class="st0" d="M117.7,30.7c-0.2-0.2-0.5-0.3-1.1-0.3c-0.4,0-0.7,0-0.9,0s-0.4,0.1-0.5,0.3s-0.3,0.4-0.3,0.6s-0.1,0.7-0.1,1.2
		h2.4c0.5,0,0.8-0.2,0.8-0.7C118,31.2,117.9,30.9,117.7,30.7z"/>
	<path class="st0" d="M94.7,87.9c-0.2,0-0.3,0.1-0.4,0.2c-0.1,0.1-0.2,0.2-0.3,0.4s-0.2,0.4-0.2,0.6c0,0.2,0,0.5,0,0.9h2.9
		c0.5,0,0.8-0.2,0.8-0.6c0-0.7-0.1-1.1-0.3-1.2c-0.2-0.2-0.7-0.2-1.4-0.2c-0.3,0-0.5,0-0.7,0C95.1,87.8,94.9,87.8,94.7,87.9z"/>
	<path class="st0" d="M106.6,72.6c-0.2-0.2-0.4-0.3-0.6-0.3c-0.2,0-0.5-0.1-1-0.1c-0.3,0-0.6,0-0.8,0c-0.2,0-0.4,0.1-0.6,0.2
		c-0.2,0.1-0.3,0.2-0.4,0.4s-0.2,0.4-0.2,0.8s-0.1,0.7-0.1,1.2c0,0.6,0,1,0.1,1.4s0.2,0.6,0.4,0.7c0.2,0.2,0.4,0.3,0.6,0.3
		c0.2,0,0.5,0.1,0.9,0.1c0.4,0,0.7,0,0.9-0.1c0.2,0,0.4-0.1,0.6-0.3c0.2-0.2,0.3-0.4,0.4-0.7c0.1-0.3,0.1-0.8,0.1-1.3
		c0-0.6,0-1.1-0.1-1.5C107,73,106.8,72.7,106.6,72.6z"/>
	<path class="st0" d="M113.1,87.7c-0.7,0-1.6,0.2-2.6,0.6v4.2c0.9,0.2,1.7,0.3,2.6,0.3c0.4,0,0.8-0.2,1-0.6c0.2-0.4,0.3-1.1,0.3-2.1
		C114.4,88.6,113.9,87.7,113.1,87.7z"/>
	<path class="st0" d="M82.2,32.6c-0.2-0.2-0.5-0.3-0.8-0.3h-2.9v3.6l2.9,0c1,0,1.5-0.6,1.5-1.8c0-0.3,0-0.7-0.1-0.9
		C82.6,33,82.4,32.7,82.2,32.6z"/>
	<path class="st0" d="M117.5,75.2c-0.1,0.2-0.2,0.3-0.2,0.6v0.6c0,0.5,0.3,0.8,0.8,0.8c0.3,0,0.7-0.1,1.2-0.2
		c0.5-0.1,0.9-0.2,1.2-0.3l0.5-0.2v-1.9L118,75C117.8,75,117.6,75.1,117.5,75.2z"/>
	<path class="st0" d="M93.7,72.6c-0.2-0.2-0.4-0.3-0.6-0.3c-0.2,0-0.5-0.1-1-0.1c-0.3,0-0.6,0-0.8,0c-0.2,0-0.4,0.1-0.6,0.2
		c-0.2,0.1-0.3,0.2-0.4,0.4s-0.2,0.4-0.2,0.8S90,74.3,90,74.8c0,0.6,0,1,0.1,1.4s0.2,0.6,0.4,0.7c0.2,0.2,0.4,0.3,0.6,0.3
		c0.2,0,0.5,0.1,0.9,0.1c0.4,0,0.7,0,0.9-0.1c0.2,0,0.4-0.1,0.6-0.3c0.2-0.2,0.3-0.4,0.4-0.7c0.1-0.3,0.1-0.8,0.1-1.3
		c0-0.6,0-1.1-0.1-1.5C94,73,93.9,72.7,93.7,72.6z"/>
	<path class="st0" d="M40.6,137.3c0-0.7-0.1-1.1-0.3-1.2c-0.2-0.2-0.7-0.2-1.4-0.2c-0.3,0-0.5,0-0.7,0s-0.3,0-0.5,0.1
		c-0.2,0-0.3,0.1-0.4,0.2c-0.1,0.1-0.2,0.2-0.3,0.4c-0.1,0.2-0.1,0.4-0.2,0.6c0,0.2,0,0.5,0,0.9h2.9
		C40.4,137.9,40.6,137.7,40.6,137.3z"/>
	<path class="st0" d="M90.7,140.9c0.3,0,0.7-0.1,1.2-0.2c0.5-0.1,0.9-0.2,1.2-0.3l0.5-0.2v-1.9l-2.9,0.2c-0.3,0-0.5,0.1-0.6,0.3
		c-0.1,0.2-0.2,0.3-0.2,0.6v0.7C90,140.6,90.2,140.9,90.7,140.9z"/>
	<path class="st0" d="M33.4,136.6c0.2-0.3,0.3-0.8,0.3-1.5c0-0.4-0.1-0.7-0.1-1c-0.1-0.3-0.2-0.4-0.4-0.5c-0.2-0.1-0.3-0.2-0.4-0.2
		c-0.1,0-0.2,0-0.4,0h-3v3.7h3C32.9,136.9,33.2,136.8,33.4,136.6z"/>
	<path class="st0" d="M32.8,117.7h-2.3v2.9h2.3c0.2,0,0.3,0,0.4,0c0.1,0,0.2-0.1,0.3-0.2c0.1-0.1,0.2-0.2,0.2-0.4
		c0-0.2,0.1-0.4,0.1-0.7c0-0.6-0.1-0.9-0.3-1.1C33.3,117.8,33.1,117.7,32.8,117.7z"/>
	<path class="st0" d="M90.5,88.1c-0.9-0.2-1.7-0.3-2.5-0.3c-0.5,0-0.8,0.2-1,0.6c-0.2,0.4-0.3,1.1-0.3,2.1c0,1.7,0.4,2.5,1.3,2.5
		c0.7,0,1.6-0.2,2.5-0.6V88.1z"/>
	<path class="st0" d="M47.9,152.9c0-0.7-0.1-1.1-0.3-1.2c-0.2-0.2-0.7-0.2-1.4-0.2c-0.3,0-0.5,0-0.7,0c-0.1,0-0.3,0-0.5,0.1
		s-0.3,0.1-0.4,0.2s-0.2,0.2-0.3,0.4c-0.1,0.2-0.2,0.4-0.2,0.6c0,0.2,0,0.5,0,0.9h2.9C47.7,153.5,47.9,153.3,47.9,152.9z"/>
	<path class="st0" d="M135.5,92.3c0.2-0.4,0.3-1.1,0.3-2.1c0-1.7-0.4-2.5-1.3-2.5c-0.7,0-1.6,0.2-2.6,0.6v4.2
		c0.9,0.2,1.7,0.3,2.6,0.3C134.9,92.9,135.2,92.7,135.5,92.3z"/>
	<path class="st0" d="M110.7,140.7c0.5-0.1,0.9-0.2,1.2-0.3l0.5-0.2v-1.9l-2.9,0.2c-0.3,0-0.5,0.1-0.6,0.3c-0.1,0.2-0.2,0.3-0.2,0.6
		v0.7c0,0.5,0.3,0.8,0.8,0.8C109.8,140.9,110.2,140.8,110.7,140.7z"/>
	<path class="st0" d="M121.3,89.3c0-0.7-0.1-1.1-0.3-1.2c-0.2-0.2-0.7-0.2-1.4-0.2c-0.3,0-0.5,0-0.7,0c-0.1,0-0.3,0-0.5,0.1
		c-0.2,0-0.3,0.1-0.4,0.2c-0.1,0.1-0.2,0.2-0.3,0.4s-0.2,0.4-0.2,0.6c0,0.2,0,0.5,0,0.9h2.9C121.1,89.9,121.3,89.7,121.3,89.3z"/>
	<path class="st0" d="M84.7,153.9c0-1-0.1-1.7-0.3-2.1c-0.2-0.4-0.5-0.6-1-0.6c-0.8,0-1.7,0.1-2.5,0.3v4.2c1,0.4,1.8,0.6,2.5,0.6
		C84.2,156.5,84.7,155.6,84.7,153.9z"/>
	<path class="st0" d="M79,88.2c-0.2-0.2-0.4-0.3-0.6-0.3c-0.2,0-0.5-0.1-1-0.1c-0.3,0-0.6,0-0.8,0c-0.2,0-0.4,0.1-0.6,0.2
		c-0.2,0.1-0.3,0.2-0.4,0.4c-0.1,0.2-0.2,0.4-0.2,0.8s-0.1,0.7-0.1,1.2c0,0.6,0,1,0.1,1.4s0.2,0.6,0.4,0.7c0.2,0.2,0.4,0.3,0.6,0.3
		c0.2,0,0.5,0.1,0.9,0.1c0.4,0,0.7,0,0.9-0.1c0.2,0,0.4-0.1,0.6-0.3s0.3-0.4,0.4-0.7c0.1-0.3,0.1-0.8,0.1-1.3c0-0.6,0-1.1-0.1-1.5
		C79.3,88.6,79.2,88.3,79,88.2z"/>
	<path class="st0" d="M70.6,156.5c0.7,0,1.6-0.2,2.5-0.6v-4.2c-0.9-0.2-1.7-0.3-2.5-0.3c-0.5,0-0.8,0.2-1,0.6
		c-0.2,0.4-0.3,1.1-0.3,2.1C69.3,155.6,69.7,156.5,70.6,156.5z"/>
	<path class="st0" d="M128.1,88.2c-0.2-0.2-0.4-0.3-0.6-0.3c-0.2,0-0.5-0.1-1-0.1c-0.3,0-0.6,0-0.8,0c-0.2,0-0.4,0.1-0.6,0.2
		c-0.2,0.1-0.3,0.2-0.4,0.4c-0.1,0.2-0.2,0.4-0.2,0.8s-0.1,0.7-0.1,1.2c0,0.6,0,1,0.1,1.4s0.2,0.6,0.4,0.7c0.2,0.2,0.4,0.3,0.6,0.3
		c0.2,0,0.5,0.1,0.9,0.1c0.4,0,0.7,0,0.9-0.1c0.2,0,0.4-0.1,0.6-0.3s0.3-0.4,0.4-0.7c0.1-0.3,0.1-0.8,0.1-1.3c0-0.6,0-1.1-0.1-1.5
		C128.4,88.6,128.3,88.3,128.1,88.2z"/>
	<path class="st0" d="M63.9,172.1c0.3,0,0.7-0.1,1.2-0.2c0.5-0.1,0.9-0.2,1.2-0.3l0.5-0.2v-1.9l-2.9,0.2c-0.3,0-0.5,0.1-0.6,0.3
		s-0.2,0.3-0.2,0.6v0.6C63.1,171.8,63.4,172.1,63.9,172.1z"/>
	<path class="st0" d="M339.3,196.3c-0.3-0.1-0.5-0.2-0.5-0.2s-0.8-36.7-0.2-42.1c0.5-4.6,5.2-27.3,7.6-39.8c0,0-0.1-0.1-0.1-0.1
		c-7.3,1.8-14.7,3.1-21.9,3.7c2,1.4,3.2,3.8,3,6.4l-0.1,1.7c0,0.7-0.7,1.3-1.4,1.2c-0.7,0-1.3-0.7-1.2-1.4l0.1-1.1
		c0.2-2.6-1.8-4.8-4.3-5c-0.1,0.1-0.2,0.2-0.3,0.3c-1.7,1.9-2.4,2.2-2.6,1.7c-0.6,0.4-1.2,0.7-1.8,1c-0.2,0.4-0.3,0.9-0.3,1.4
		l-4.2,72.6c0.4,0.1,0.7,0.5,0.7,1l-0.2,2.8c0,0.2-0.1,0.4-0.3,0.6c6-0.3,13.2-0.5,21.1-0.6c0-0.1,0-0.2,0-0.3
		C332.7,197.7,336.6,197.7,339.3,196.3z"/>
	<path class="st0" d="M356.2,161.2c0,0.6-0.1,1.3-0.1,2.1s-0.1,1.7-0.1,2.6c-0.1,1.4-0.1,2.9-0.2,4.6c-0.1,2.7-0.2,5.7-0.3,8.7
		c0,0.6,0,1.2-0.1,1.8c-0.1,3-0.2,5.9-0.2,8.5c0,0.5,0,1,0,1.5c0,1.5-0.1,2.8-0.1,4c0,1.2-0.1,2.1-0.1,2.9c0,0.5,0,0.9,0,1.1
		c0,0.3,0,0.4,0,0.4s0,0-0.1,0c0,0,0,0,0,0c0,0,0,0-0.1,0c0,0,0,0-0.1,0c0,0-0.1,0-0.1,0c0,0,0,0-0.1,0c0,0-0.1,0-0.2,0
		c0,0-0.1,0-0.1,0c0,0-0.1,0-0.1,0l0.1,0.7c6,0,11.8,0.1,17.3,0.2c0.2-0.4,0.5-0.9,0.9-1.4c-2,0.6-2,0.6-2,0.6s-1.4-35.2-3.3-46.5
		c-1.1-6-2.2-9.7-3.4-13.8c-3.2,7.6-6.5,16-7.1,19.9C356.4,159.6,356.3,160.3,356.2,161.2z"/>
	<path class="st0" d="M147.6,140.9c0.3,0,0.7-0.1,1.2-0.2c0.5-0.1,0.9-0.2,1.2-0.3l0.5-0.2v-1.9l-2.9,0.2c-0.3,0-0.5,0.1-0.6,0.3
		c-0.1,0.2-0.2,0.3-0.2,0.6v0.7C146.8,140.6,147.1,140.9,147.6,140.9z"/>
	<path class="st0" d="M146.6,89.3c0-0.7-0.1-1.1-0.3-1.2c-0.2-0.2-0.7-0.2-1.4-0.2c-0.3,0-0.5,0-0.7,0c-0.1,0-0.3,0-0.5,0.1
		c-0.2,0-0.3,0.1-0.4,0.2c-0.1,0.1-0.2,0.2-0.3,0.4s-0.2,0.4-0.2,0.6c0,0.2,0,0.5,0,0.9h2.9C146.4,89.9,146.6,89.7,146.6,89.3z"/>
	<path class="st0" d="M77,136.2c-0.2-0.2-0.4-0.3-0.6-0.3c-0.2,0-0.5-0.1-1-0.1c-0.3,0-0.6,0-0.8,0c-0.2,0-0.4,0.1-0.6,0.2
		c-0.2,0.1-0.3,0.2-0.4,0.4c-0.1,0.2-0.2,0.4-0.2,0.8s-0.1,0.7-0.1,1.2c0,0.6,0,1,0.1,1.4s0.2,0.6,0.4,0.7c0.2,0.2,0.4,0.3,0.6,0.3
		c0.2,0,0.5,0.1,0.9,0.1c0.4,0,0.7,0,0.9-0.1c0.2,0,0.4-0.1,0.6-0.3c0.2-0.2,0.3-0.4,0.4-0.7c0.1-0.3,0.1-0.8,0.1-1.3
		c0-0.6,0-1.1-0.1-1.5C77.3,136.6,77.1,136.3,77,136.2z"/>
	<path class="st0" d="M175.9,137.3c0-0.7-0.1-1.1-0.3-1.2c-0.2-0.2-0.7-0.2-1.4-0.2c-0.3,0-0.5,0-0.7,0s-0.3,0-0.5,0.1
		c-0.2,0-0.3,0.1-0.4,0.2c-0.1,0.1-0.2,0.2-0.3,0.4c-0.1,0.2-0.1,0.4-0.2,0.6c0,0.2,0,0.5,0,0.9h2.9
		C175.6,137.9,175.9,137.7,175.9,137.3z"/>
	<path class="st0" d="M160.1,77.2c0.2,0,0.4-0.1,0.6-0.3c0.2-0.2,0.3-0.4,0.4-0.7c0.1-0.3,0.1-0.8,0.1-1.3c0-0.6,0-1.1-0.1-1.5
		c-0.1-0.4-0.2-0.6-0.4-0.8c-0.2-0.2-0.4-0.3-0.6-0.3c-0.2,0-0.5-0.1-1-0.1c-0.3,0-0.6,0-0.8,0c-0.2,0-0.4,0.1-0.6,0.2
		c-0.2,0.1-0.3,0.2-0.4,0.4s-0.2,0.4-0.2,0.8s-0.1,0.7-0.1,1.2c0,0.6,0,1,0.1,1.4s0.2,0.6,0.4,0.7c0.2,0.2,0.4,0.3,0.6,0.3
		c0.2,0,0.5,0.1,0.9,0.1C159.6,77.3,159.9,77.2,160.1,77.2z"/>
	<path class="st0" d="M169,138.3c0-1-0.1-1.7-0.3-2.1c-0.2-0.4-0.5-0.6-1-0.6c-0.8,0-1.7,0.1-2.5,0.3v4.2c1,0.4,1.8,0.6,2.5,0.6
		C168.5,140.9,169,140,169,138.3z"/>
	<path class="st0" d="M115,152.9c0-0.7-0.1-1.1-0.3-1.2s-0.7-0.2-1.4-0.2c-0.3,0-0.5,0-0.7,0s-0.3,0-0.5,0.1c-0.2,0-0.3,0.1-0.4,0.2
		c-0.1,0.1-0.2,0.2-0.3,0.4c-0.1,0.2-0.1,0.4-0.2,0.6c0,0.2,0,0.5,0,0.9h2.9C114.8,153.5,115,153.3,115,152.9z"/>
	<path class="st0" d="M118,135.8h-1.2c-0.9,0-1.3,0.5-1.3,1.5c0,0.2,0,0.4,0.1,0.5c0,0.2,0.1,0.3,0.2,0.5s0.2,0.3,0.4,0.4
		c0.2,0.1,0.4,0.1,0.6,0.1h1.3c0.2,0,0.4,0,0.6-0.1c0.2-0.1,0.3-0.2,0.4-0.4c0.1-0.2,0.2-0.3,0.2-0.5s0.1-0.3,0.1-0.5
		c0,0,0-0.1,0-0.1c0-0.5-0.1-0.9-0.3-1.1S118.5,135.8,118,135.8z"/>
	<path class="st0" d="M133.2,152.9c0-0.7-0.1-1.1-0.3-1.2c-0.2-0.2-0.7-0.2-1.4-0.2c-0.3,0-0.5,0-0.7,0c-0.1,0-0.3,0-0.5,0.1
		s-0.3,0.1-0.4,0.2s-0.2,0.2-0.3,0.4c-0.1,0.2-0.2,0.4-0.2,0.6c0,0.2,0,0.5,0,0.9h2.9C132.9,153.5,133.2,153.3,133.2,152.9z"/>
	<path class="st0" d="M126.5,137.3c0-0.7-0.1-1.1-0.3-1.2c-0.2-0.2-0.7-0.2-1.4-0.2c-0.3,0-0.5,0-0.7,0c-0.1,0-0.3,0-0.5,0.1
		c-0.2,0-0.3,0.1-0.4,0.2c-0.1,0.1-0.2,0.2-0.3,0.4s-0.2,0.4-0.2,0.6c0,0.2,0,0.5,0,0.9h2.9C126.3,137.9,126.5,137.7,126.5,137.3z"
		/>
	<path class="st0" d="M115.5,143.3c0,0.7,0.4,1,1.1,1h1.9c0.7,0,1-0.3,1-1v-0.8c0-0.3-0.1-0.6-0.2-0.7c-0.1-0.1-0.4-0.2-0.7-0.2
		h-2.6c-0.1,0-0.2,0-0.3,0c-0.1,0-0.2,0-0.2-0.1l-0.1,0V143.3z"/>
	<path class="st1" d="M512,125.9c-15.7,5.7-32.6,6.2-49-1.1c-21.2-9.5-34.9-29.5-53.5-43.1c-5.7-4.2-12.1-7.4-18.7-9.2
		c1.4,5.3,2.5,10.9,3.6,16.2c0.9,4.1,0.4,9.3-0.6,14.4c28.3,9.1,50.9,62,107.4,54.2c3.8-0.5,7.3-1.1,10.8-1.7V125.9z"/>
	<path class="st1" d="M314.7,113.8c0.3-0.4,4.3-2.3,6.2-3.2c-0.1-0.2-0.2-0.3-0.2-0.3s5.8-3.3,11.7-9.9c1.5-1.6,2.8-4.7,4.1-8.6
		c-5.8,3.6-11.8,6.4-18.5,7.2c-14.1,1.7-28.1-6.3-38.6-17.2c-18.5-19.4-26.4-45.1-26.8-71.4c-0.1-3.4-0.1-6.8-0.1-10.3h-27.9
		c-2.7,29.1,8.3,58.9,23.9,84.2c14.4,23.4,37.9,33.6,64.1,34c0-0.3,0-0.6,0-0.8C312.9,115.8,314.3,114.3,314.7,113.8z"/>
	<path class="st1" d="M346.1,114.2c-1.1-0.9-2.4-2-3.4-4.9c-0.7,0.5-1.6,1-2.7,1.7c-0.3,0.2-0.7,0.4-1,0.6c-0.1,0.1-0.3,0.1-0.4,0.2
		c-0.2,0.1-0.5,0.3-0.7,0.4c-0.2,0.1-0.3,0.1-0.5,0.2c-0.2,0.1-0.5,0.2-0.7,0.3c-0.2,0.1-0.4,0.1-0.5,0.2c-0.2,0.1-0.5,0.2-0.7,0.3
		c-0.2,0.1-0.4,0.1-0.6,0.2c-0.2,0.1-0.5,0.2-0.7,0.3c-0.2,0.1-0.4,0.1-0.6,0.2c-0.2,0.1-0.5,0.2-0.7,0.2c-0.2,0.1-0.4,0.1-0.6,0.2
		c-0.2,0.1-0.5,0.1-0.7,0.2c-0.2,0.1-0.4,0.1-0.6,0.2c-0.1,0-0.2,0.1-0.2,0.1c0,0,0,0,0,0c-3.6,1.1-6.6,1.8-6.9,1.7
		c-0.1,0-0.4-0.4-0.7-1c-0.3,0.3-0.7,0.7-1.2,1.2c0,0.1,0,0.1,0,0.2c0.7,0.2,1.4,0.6,2,1C331.4,117.3,338.8,116,346.1,114.2z"/>
	<path class="st2" d="M466.1,87c-19.3-6.4-32.2-21.6-49.3-31.5c-10.3-6-22.9-8.8-34.4-5.7c-1.9,0.5-3.7,1.2-5.4,1.9
		c1.1,0.7,2,1.4,2.8,2.2l0,0c0,0,0.1,0.1,0.1,0.1c5.5,2.6,8.7,9.9,11,18.4c6.6,1.8,13,5,18.7,9.2c18.6,13.6,32.3,33.6,53.5,43.1
		c16.4,7.4,33.4,6.9,49,1.1V84.3C497.7,90.4,481.8,92.2,466.1,87z"/>
	<path class="st2" d="M279.4,81.7c10.5,11,24.5,19,38.6,17.2c6.6-0.8,12.7-3.7,18.5-7.2c1.8-5.5,3.5-12.5,5.2-18.9
		c-2,0.7-4,1.3-6.2,1.7c-12.5,2.2-25.4-3.4-35.1-11.6C280.3,46,273.8,23.7,273.8,0h-21.3c0,3.5,0,6.9,0.1,10.3
		C253,36.7,260.9,62.4,279.4,81.7z"/>
	<path class="st3" d="M300.4,62.9c9.8,8.2,22.6,13.8,35.1,11.6c2.1-0.4,4.2-1,6.2-1.7c1.2-4.6,2.4-8.8,3.7-12
		c0.2-0.6,0.5-1.2,0.7-1.6c0,0,0,0,0,0c0,0,0,0,0,0c0.4-0.8,0.8-1.3,1.3-1.6c1.1-0.8,2.4-1.6,3.6-2.2c-0.6-0.1-1.2-0.1-1.8-0.3
		c0,0,0,0,0,0c-0.5,0-2.2-0.4-3.5-3.5c-1.1-2.5-1-9.2-0.9-11.6c-2-4.3-2.4-8.7,1.7-11.1c2.9-1.7,6.3-2.3,12.5,0.2
		c4.4,1.7,5.8,0.2,5.8,0.2s0.5,5,0.4,8.7c-0.1,1.4-0.3,2.5-0.7,3.5c0,1.7-0.3,3.5-1.1,4.3c0,0.1,0.1,0.2,0.1,0.3c0,0,0,0.1,0,0.1
		c0,0,0,0,0,0c0,0,0,0,0,0c0.1,0.4,0.3,0.9,0.4,1.5c1.9-0.3,2.3-0.4,3-0.3c0,0,0,0,0,0c0,0,0,0,0.1,0c0.4,0.1,1,0.3,2.1,0.6
		c0.2,0.1,0.4,0.1,0.6,0.2c2.8,1,5.2,2.2,7.1,3.5c1.8-0.8,3.6-1.4,5.4-1.9c11.5-3.2,24.1-0.3,34.4,5.7c17.1,9.8,30,25,49.3,31.5
		c15.7,5.2,31.5,3.5,45.9-2.7V0H273.8C273.8,23.7,280.3,46,300.4,62.9z"/>
	<path class="st7" d="M381.6,202.9c-1.6,0.4-9.5,0.6-10.4-0.1c-0.5-0.4-0.4-1.3,0.2-2.4c-5.5-0.1-11.3-0.1-17.3-0.2l0.1,0.4
		c0,0-0.9,0.7-2.6,0.7s-3.3,0.1-7.5,0.9c-4.2,0.7-11.2,0-11.2,0s-0.8,0.4-0.6-1.8c-7.9,0.1-15,0.4-21.1,0.6
		c-0.2,0.2-0.5,0.3-0.8,0.3l-2.3-0.2c0,0,0,0,0,0c-10.3,0.5-16.6,1.3-16.6,2.1c0,1.7,27.1,3.1,60.5,3.1s60.5-1.4,60.5-3.1
		c0-1.1-11.5-2.1-28.7-2.6C383.5,201.8,382.5,202.7,381.6,202.9z"/>
	<path class="st1" d="M354,199.5c0,0-0.1,0-0.1,0c-0.1,0-0.1,0-0.2,0c0,0-0.1,0-0.1,0c-0.1,0-0.2,0-0.2,0c-0.1,0-0.1,0-0.2,0
		c-0.1,0-0.2,0-0.3,0c-0.1,0-0.1,0-0.2,0c-0.1,0-0.2,0-0.3,0c-0.1,0-0.1,0-0.2,0c-0.1,0-0.2,0-0.3,0c-0.1,0-0.1,0-0.2,0
		c-0.1,0-0.2,0-0.3,0c-0.1,0-0.2,0-0.2,0c-0.1,0-0.2,0-0.4,0c-0.1,0-0.2,0-0.2,0c-0.1,0-0.2,0-0.4,0c-0.1,0-0.2,0-0.3,0
		c-0.1,0-0.3,0-0.4,0c-0.1,0-0.2,0-0.3,0c-0.1,0-0.3,0-0.4-0.1c0,0-0.1,0-0.1,0c0,0,0,0,0,0c-0.1,0-0.3,0-0.4-0.1
		c-3.2-0.5-7.4-2.4-8.9-3c-2.8,1.4-6.7,1.4-6.9,3.7c0,0.1,0,0.2,0,0.3c-0.2,2.2,0.6,1.8,0.6,1.8s7,0.7,11.2,0
		c4.2-0.7,5.8-0.9,7.5-0.9s2.6-0.7,2.6-0.7l-0.1-0.4L354,199.5C354,199.5,354,199.5,354,199.5z"/>
	<path class="st1" d="M374.7,198.3c-1,0.3-1.7,0.5-2.3,0.7c-0.4,0.5-0.7,1-0.9,1.4c-0.6,1.1-0.7,2-0.2,2.4c0.9,0.7,8.8,0.6,10.4,0.1
		c0.9-0.3,1.9-1.1,2.5-2.2c0.2-0.5,0.4-1,0.5-1.5C382.5,198.5,377.9,197.3,374.7,198.3z"/>
	<path class="st19" d="M312.9,122.4C312.9,122.4,312.9,122.4,312.9,122.4C312.9,122.4,312.9,122.4,312.9,122.4
		C312.9,122.4,312.9,122.4,312.9,122.4z"/>
	<path class="st19" d="M317.5,120.4c-0.9,0.5-1.5,1.4-1.9,2.3c0.6-0.3,1.2-0.6,1.8-1C317.4,121.4,317.4,120.9,317.5,120.4z"/>
	<path class="st19" d="M323.4,115.5c-0.3-0.5-0.6-1.1-0.9-1.8c0,0.1,0,0.1-0.1,0.2c0,0.3,0,0.6,0,0.9c-0.1,0.9-0.1,1.4-0.2,1.8
		C322.7,116.2,323.1,115.8,323.4,115.5z"/>
	<path class="st19" d="M317.4,115.7c0,0-0.8-0.4-2.1,0.5c-1.3,1-1.4,3.5-1.4,3.5s-0.8,1.4-0.8,1.7c0,0,0,0.1,0,0.1
		c0.7-2.2,2.5-4,4.7-4.7c-0.1-0.4-0.1-0.8-0.3-1.1C317.5,115.7,317.4,115.7,317.4,115.7z"/>
	<path class="st5" d="M310.9,196.6c0.1,0,0.1,0,0.2,0.1l4.2-72.6c0-0.5,0.2-0.9,0.3-1.4c0.4-1,1-1.8,1.9-2.3c0-0.1,0-0.1,0-0.2
		c0.3-1.1,0.4-2.2,0.3-3.3c-2.2,0.7-4,2.5-4.7,4.7c0,0.3-0.2,0.6-0.2,0.8c0,0,0,0,0,0.1c-0.1,0.3-0.1,0.6-0.1,0.9l-4.3,73.1
		c0,0,0.1,0,0.1,0L310.9,196.6z"/>
	<path class="st5" d="M324.6,124.7l-0.1,1.1c0,0.7,0.5,1.3,1.2,1.4c0.7,0,1.3-0.5,1.4-1.2l0.1-1.7c0.2-2.6-1.1-5-3-6.4
		c-0.6-0.4-1.3-0.8-2-1c-0.1,0.7-0.4,1.2-1.9,2.8C322.9,119.9,324.8,122.1,324.6,124.7z"/>
	<path class="st20" d="M313.1,121.5c0,0,0-0.1,0-0.1c0-0.3,0.8-1.7,0.8-1.7s0-2.5,1.4-3.5c1.3-1,2.1-0.5,2.1-0.5s0,0,0.1,0
		c0.1,0.4,0.2,0.7,0.3,1.1c0.2,1.1,0,2.2-0.3,3.3c0,0.1,0,0.1,0,0.2c-0.1,0.6-0.2,1-0.1,1.3c0.2,0.5,0.9,0.3,2.6-1.7
		c0.1-0.1,0.2-0.2,0.3-0.3c1.4-1.6,1.8-2.1,1.9-2.8c0,0,0-0.1,0-0.2c0-0.4,0.1-1,0.2-1.8c0.1-0.4,0-0.7,0-0.9c0-0.1,0-0.1,0.1-0.2
		c-0.6-1.2-1.3-2.5-1.5-3.1c-1.9,0.9-5.9,2.7-6.2,3.2c-0.4,0.6-1.8,2.1-2,3.7c0,0.2,0,0.5,0,0.8c0,1.7,0.2,4.1,0.2,4.1s0,0,0,0
		c0,0,0,0,0-0.1C313,122.2,313.1,121.8,313.1,121.5z"/>
	<path class="st7" d="M337.9,112.1c-0.2,0.1-0.3,0.1-0.5,0.2C337.6,112.3,337.7,112.2,337.9,112.1z"/>
	<path class="st7" d="M339,111.6c-0.1,0.1-0.3,0.1-0.4,0.2C338.7,111.7,338.9,111.6,339,111.6z"/>
	<path class="st7" d="M331.7,114.5c-0.2,0.1-0.4,0.1-0.6,0.2C331.3,114.7,331.5,114.6,331.7,114.5z"/>
	<path class="st7" d="M333,114.1c-0.2,0.1-0.4,0.1-0.6,0.2C332.6,114.2,332.8,114.2,333,114.1z"/>
	<path class="st7" d="M334.2,113.7c-0.2,0.1-0.4,0.1-0.6,0.2C333.8,113.8,334,113.7,334.2,113.7z"/>
	<path class="st7" d="M335.5,113.2c-0.2,0.1-0.4,0.1-0.6,0.2C335.1,113.3,335.3,113.3,335.5,113.2z"/>
	<path class="st7" d="M336.7,112.7c-0.2,0.1-0.4,0.1-0.5,0.2C336.3,112.8,336.5,112.8,336.7,112.7z"/>
	<path class="st5" d="M331.1,114.7c0.2-0.1,0.4-0.1,0.6-0.2c0.2-0.1,0.4-0.1,0.7-0.2c0.2-0.1,0.4-0.1,0.6-0.2
		c0.2-0.1,0.5-0.2,0.7-0.2c0.2-0.1,0.4-0.1,0.6-0.2c0.2-0.1,0.5-0.2,0.7-0.3c0.2-0.1,0.4-0.1,0.6-0.2c0.2-0.1,0.5-0.2,0.7-0.3
		c0.2-0.1,0.4-0.1,0.5-0.2c0.2-0.1,0.5-0.2,0.7-0.3c0.2-0.1,0.3-0.1,0.5-0.2c0.3-0.1,0.5-0.2,0.7-0.4c0.1-0.1,0.3-0.1,0.4-0.2
		c0.4-0.2,0.7-0.4,1-0.6c1.1-0.7,2-1.2,2.7-1.7c-1.1-3.3-1.7-8.8-1-19c1-15.4,2-23.7,3.3-28.2c-0.8,2.1-1.5,4.1-2.2,7
		c-3.1,18.6-3.2,30.9-3.9,35.3c-0.8,5.1-3.8,8.4-8,10.4c0,0,0,0,0,0C331,114.8,331.1,114.7,331.1,114.7z"/>
	<path class="st21" d="M367.3,49.2c-0.2-0.4-0.5-0.7-0.9-0.8c-0.7-0.2-1.7-0.1-2.3,0c0,0,0,0.1,0,0.1
		C365.3,48.7,366.4,48.9,367.3,49.2z"/>
	<path class="st5" d="M354.9,198.9c0-0.3,0-0.6,0-1.1C354.9,198.3,354.9,198.7,354.9,198.9z"/>
	<path class="st5" d="M355,194.9c0-1.2,0.1-2.5,0.1-4C355.1,192.4,355,193.8,355,194.9z"/>
	<path class="st5" d="M354.8,199.4C354.9,199.4,354.9,199.3,354.8,199.4C354.9,199.3,354.9,199.4,354.8,199.4z"/>
	<path class="st5" d="M338.8,196.1c0,0,0.2,0.1,0.5,0.2c1.4,0.7,5.7,2.5,8.9,3c0.2,0,0.3,0,0.4,0.1c0.4-3.5,1.1-11,1.9-21.9
		c1.1-14.4,2.2-44.8-1.7-61.5c-0.7-0.3-1.3-0.7-1.8-1.1c-0.3-0.2-0.5-0.5-0.8-0.7c-2.4,12.5-7.1,35.2-7.6,39.8
		C338,159.4,338.8,196.1,338.8,196.1z"/>
	<path class="st5" d="M355.1,189.4c0.1-2.6,0.2-5.5,0.2-8.5C355.3,183.9,355.2,186.8,355.1,189.4z"/>
	<path class="st5" d="M354.5,199.4c0,0,0.1,0,0.1,0C354.6,199.4,354.5,199.4,354.5,199.4z"/>
	<path class="st5" d="M354.2,199.5c-0.1,0-0.1,0-0.2,0c0,0,0,0,0,0C354.1,199.5,354.1,199.5,354.2,199.5z"/>
	<path class="st5" d="M355.4,179.2c0.1-3,0.2-5.9,0.3-8.7C355.6,173.2,355.5,176.2,355.4,179.2z"/>
	<path class="st5" d="M354.3,199.5c0.1,0,0.1,0,0.2,0C354.4,199.4,354.3,199.4,354.3,199.5z"/>
	<path class="st5" d="M356.1,163.3c0-0.8,0.1-1.5,0.1-2.1C356.2,161.8,356.1,162.6,356.1,163.3z"/>
	<path class="st5" d="M354.7,199.4C354.7,199.4,354.8,199.4,354.7,199.4C354.8,199.4,354.7,199.4,354.7,199.4z"/>
	<path class="st5" d="M355.8,170.5c0.1-1.6,0.1-3.2,0.2-4.6C355.9,167.3,355.8,168.9,355.8,170.5z"/>
	<path class="st5" d="M356,165.9c0-0.9,0.1-1.8,0.1-2.6C356,164.1,356,165,356,165.9z"/>
	<path class="st5" d="M350.7,199.6c0.1,0,0.2,0,0.4,0C351,199.6,350.9,199.6,350.7,199.6z"/>
	<path class="st5" d="M352.4,199.6c0.1,0,0.2,0,0.3,0C352.6,199.6,352.5,199.6,352.4,199.6z"/>
	<path class="st5" d="M351.9,199.6c0.1,0,0.2,0,0.3,0C352.1,199.6,352,199.6,351.9,199.6z"/>
	<path class="st5" d="M350.1,199.6c0.1,0,0.2,0,0.4,0C350.4,199.6,350.2,199.6,350.1,199.6z"/>
	<path class="st5" d="M352.8,199.6c0.1,0,0.2,0,0.3,0C353,199.6,352.9,199.6,352.8,199.6z"/>
	<path class="st5" d="M349.5,199.5c0.1,0,0.3,0,0.4,0C349.7,199.5,349.6,199.5,349.5,199.5z"/>
	<path class="st5" d="M353.3,199.6c0.1,0,0.2,0,0.2,0C353.4,199.6,353.4,199.6,353.3,199.6z"/>
	<path class="st5" d="M353.7,199.5c0.1,0,0.1,0,0.2,0C353.8,199.5,353.7,199.5,353.7,199.5z"/>
	<path class="st5" d="M348.8,199.4c0.1,0,0.3,0,0.4,0.1C349.1,199.5,348.9,199.4,348.8,199.4z"/>
	<path class="st5" d="M351.7,199.6c-0.1,0-0.2,0-0.3,0C351.4,199.6,351.5,199.6,351.7,199.6z"/>
	<path class="st22" d="M354.6,117.6C354.6,117.6,354.6,117.6,354.6,117.6c-1.5-0.3-3.9-0.7-5.8-1.6c3.9,16.7,2.8,47.1,1.7,61.5
		c-0.8,10.9-1.5,18.3-1.9,21.9c0,0,0,0,0,0c0,0,0.1,0,0.1,0c0.1,0,0.3,0,0.4,0.1c0.1,0,0.2,0,0.3,0c0.1,0,0.3,0,0.4,0
		c0.1,0,0.2,0,0.3,0c0.1,0,0.2,0,0.4,0c0.1,0,0.2,0,0.2,0c0.1,0,0.2,0,0.4,0c0.1,0,0.2,0,0.2,0c0.1,0,0.2,0,0.3,0c0.1,0,0.1,0,0.2,0
		c0.1,0,0.2,0,0.3,0c0.1,0,0.1,0,0.2,0c0.1,0,0.2,0,0.3,0c0.1,0,0.1,0,0.2,0c0.1,0,0.2,0,0.3,0c0.1,0,0.1,0,0.2,0c0.1,0,0.2,0,0.2,0
		c0,0,0.1,0,0.1,0c0.1,0,0.1,0,0.2,0c0,0,0.1,0,0.1,0c0.1,0,0.1,0,0.2,0c0,0,0.1,0,0.1,0c0.1,0,0.1,0,0.2,0c0,0,0.1,0,0.1,0
		c0,0,0.1,0,0.1,0c0,0,0,0,0.1,0c0,0,0.1,0,0.1,0c0,0,0,0,0,0c0.1,0,0.1,0,0.1,0s0-0.1,0-0.4c0-0.3,0-0.6,0-1.1c0-0.7,0-1.7,0.1-2.9
		c0-1.2,0.1-2.5,0.1-4c0-0.5,0-1,0-1.5c0.1-2.6,0.2-5.5,0.2-8.5c0-0.6,0-1.2,0.1-1.8c0.1-3,0.2-5.9,0.3-8.7c0.1-1.6,0.1-3.2,0.2-4.6
		c0-0.9,0.1-1.8,0.1-2.6s0.1-1.5,0.1-2.1c0.1-0.9,0.1-1.6,0.2-2c0.7-3.9,4-12.3,7.1-19.9c-1-3.5-2.1-7.3-3.2-13.1
		c-0.7-3.8-2-6.4-3.5-8.2c-0.3,0-0.6-0.1-0.8-0.1C356.1,117.8,355.5,117.8,354.6,117.6z"/>
	<path class="st5" d="M384,126.2c0,0,0,0.1,0,0.1c0.1,1.2,1.1,3.5,1.5,4.7c0.4,1.2,0.5,2.7,0.5,3.5c0,0.8-2,5-3.2,5.6
		c-1.1,0.6-0.9-4.7-1.2-5.3c-0.3-0.6-1.5-4.9-2.2-4.9s-0.2,2-0.2,2.9c0,0.9-0.3,3.1-0.7,3.1s-1.6-4.5-1.8-5.7
		c-0.2-1.1,0.3-3.6,2-7.1c-0.3-0.3-0.6-0.6-0.7-0.9c-0.5-1,4.4-20.6,2.9-25.4c-1.6-4.7-6.3-12.1-6.3-24.8s5.1-18.1,5.1-18.1
		c0,0,0.1,0,0.1,0.1c0,0-0.1-0.1-0.1-0.1l0,0l-0.8,0.2c-4.1,2.8-6.3,14.9-5.9,20.3c0.4,5.4,3.9,21,2.4,29.7c-1.4,7.6-0.1,12-7,14.7
		c-3.7,0.1-7.7-0.2-11.5-0.8c1.5,1.8,2.7,4.5,3.5,8.2c1.1,5.8,2.2,9.6,3.2,13.1c1.2,4.1,2.4,7.8,3.4,13.8c2,11.2,3.3,46.5,3.3,46.5
		s0,0,2-0.6c0.6-0.2,1.3-0.4,2.3-0.7c3.3-1,7.8,0.3,9.9,0.9c0.7,0.2,1.1,0.4,1.1,0.4s1.4-2,2.6-16.7c1-12.8-1.8-37.6-2.3-56.6
		c-0.2,0.3-0.3,0.5-0.3,0.5S385,126.6,384,126.2z"/>
	<path class="st23" d="M363.6,46.1c0,0,0,0.1,0,0.1C363.6,46.2,363.6,46.2,363.6,46.1z"/>
	<path class="st23" d="M354.5,58.4c-0.1,0.8,0,1.5,0.3,2.4c0.8,1.9,7.8,0.6,9.7-3.5c1-2.2,0.5-5.8-0.3-8.7c0,0,0-0.1,0-0.1
		c-0.1-0.2-0.1-0.4-0.2-0.6c-0.1-0.5-0.3-1-0.4-1.5C361.5,55.5,357.5,57.5,354.5,58.4z"/>
	<path class="st23" d="M354.6,56.6c0,0.1,0,0.2,0,0.4C354.6,56.9,354.6,56.8,354.6,56.6z"/>
	<path class="st23" d="M354.6,56.1c0-0.1,0-0.2,0-0.3C354.6,55.8,354.6,55.9,354.6,56.1z"/>
	<path class="st23" d="M354.5,58.1c0-0.2,0-0.4,0-0.6C354.6,57.7,354.5,57.9,354.5,58.1z"/>
	<path class="st24" d="M362.5,46.4c-0.3,0-0.5-0.1-0.8-0.1c0.1,1-0.6,2.9-0.9,4.3c-0.3,1.4-2.1,4.1-3.8,4.5
		c-0.5,0.1-1.4,0.3-2.4,0.3c0,0.1,0,0.3,0.1,0.4c0,0.1,0,0.2,0,0.3c0,0.2,0,0.4,0,0.6c0,0.1,0,0.2,0,0.4c0,0.2,0,0.3,0,0.5
		c0,0.2,0,0.4,0,0.6c0,0.1,0,0.2,0,0.3c0,0,0,0,0,0c3-0.9,7-2.9,9.1-12c0,0,0,0,0,0c0,0,0,0,0,0c0,0,0-0.1,0-0.1
		c0-0.1-0.1-0.2-0.1-0.3C363.2,46.2,362.9,46.4,362.5,46.4z"/>
	<path class="st23" d="M355.7,35.5c1.3-0.5,2.5-1.2,3.4-1.7c-0.1-0.1-0.2-0.2-0.4-0.3c-0.6,0.3-1.2,0.7-2,1
		c-1.1,0.6-2.5,0.9-3.9,0.9c-1.8,0-3.7-0.6-5.5-2.1c0,0,0,0,0,0.1C349.5,36,352.5,36.8,355.7,35.5z"/>
	<path class="st23" d="M349.3,34c-0.4-0.1-0.8-0.2-1.1-0.3c2.9,2,6.1,1.6,8.3,0.5c0.7-0.3,1.3-0.7,1.9-1c0,0,0,0,0,0
		c-0.9,0.3-1.8,0.6-2.9,0.8C351.2,34.5,349.3,34,349.3,34z"/>
	<path class="st23" d="M352,46.3c-2-0.1-2.9,0.3-4.4,1.2c-0.4,0.2-0.8,0.3-1,0.4c0.3,0.2,0.7,0.4,1.1,0.4c1-0.1,2.4-0.8,4.7-0.4
		c1.7,0.3,3.8,0.6,5.1,0.3C356.2,47.7,354,46.4,352,46.3z"/>
	<path class="st23" d="M349.9,44.5c2.7-0.4,5.2,0.1,6.6,1.1c0.9,0.6,2.2,0.5,2.9,0.3c0.8-1.7,1.6-3.9,0.4-4.6
		c-1.2-0.6-0.1-4.8-0.2-7.2c-0.1-0.1-0.1-0.1-0.2-0.2c-1,0.6-2.2,1.2-3.5,1.8c-1.1,0.4-2.1,0.7-3.1,0.7c-2.1,0-4-0.9-5.6-2.7
		c-1.6,2.5-2.5,6.3-1.8,10c0.1,0.6,0.2,1.1,0.4,1.7C347,46.4,347.3,44.9,349.9,44.5z"/>
	<path class="st5" d="M356.1,117.8c-0.1-0.1-0.1-1.1-0.2-1.1c-0.6-1.5-0.7-5.4-0.7-6.4c0-0.4,0.2-1.3,0.6-2.5
		c-0.1-0.1-0.1-0.2-0.2-0.3l0,0.1c-1.8,2-1.5,5.6-1,10c0,0,0,0,0,0C355.5,117.8,356.1,117.8,356.1,117.8z"/>
	<path class="st7" d="M369.8,48.3c-0.2-0.1-0.3-0.2-0.6-0.2c-1.1-0.3-1.7-0.5-2.1-0.6c0,0,0,0-0.1,0c0,0,0,0,0,0
		c-0.7-0.1-1.1,0-3,0.3c0.1,0.2,0.1,0.4,0.2,0.6c0.6-0.1,1.6-0.2,2.3,0c0.3,0.1,0.6,0.4,0.9,0.8c0.2,0.4,0.4,0.8,0.5,1.2
		c1.9,10.2-1.8,29.9-5.5,39.5c-3,7.8-5.3,14-6.4,17.5c-0.9-2.1-2.3-6-3.4-12.4c-2.8-15.9-3.3-26.2-0.1-36.4c0.2-0.7,0.7-2,1.4-3.2
		c-0.9,0-1.9,0.1-2.8,0c-1.2,0.6-2.5,1.3-3.6,2.2c-0.5,0.4-0.9,0.9-1.3,1.6c0,0,0,0,0,0c0,0,0,0,0,0c-0.2,0.5-0.5,1-0.7,1.6
		c-1.3,3.2-2.5,7.4-3.7,12c-1.7,6.4-3.4,13.4-5.2,18.9c-1.3,3.9-2.6,7-4.1,8.6c-5.9,6.6-11.7,9.9-11.7,9.9s0.1,0.1,0.2,0.3
		c0.3,0.6,0.9,1.9,1.5,3.1c0.3,0.7,0.7,1.3,0.9,1.8c0.3,0.6,0.6,0.9,0.7,1c0.2,0.1,3.3-0.6,6.9-1.7c4.2-2,7.1-5.3,8-10.4
		c0.7-4.3,0.8-16.7,3.9-35.3c0.8-2.9,1.5-4.9,2.2-7c-1.3,4.5-2.3,12.9-3.3,28.2c-0.6,10.2,0,15.7,1,19c0.9,2.9,2.3,4,3.4,4.9
		c0,0,0.1,0.1,0.1,0.1c0.3,0.2,0.6,0.4,0.8,0.7c0.5,0.4,1.1,0.8,1.8,1.1c1.8,0.8,4.2,1.3,5.8,1.6c-0.5-4.4-0.8-8.1,1-10l0-0.1
		c0.1,0.1,0.1,0.2,0.2,0.3c-0.4,1.2-0.6,2.1-0.6,2.5c0,1,0,4.9,0.7,6.4c0.1,0.1,0.1,1.1,0.2,1.1c0.3,0.1,0.6,0.1,0.8,0.1
		c3.8,0.7,7.9,0.9,11.5,0.8c7-2.7,5.7-7.1,7-14.7c1.6-8.7-2-24.3-2.4-29.7c-0.4-5.4,1.8-17.5,5.9-20.3l0.8-0.2
		c-0.8-0.7-1.8-1.5-2.8-2.2C375,50.4,372.6,49.2,369.8,48.3z M354.3,106c0,0.5-0.4,0.9-0.8,0.9c-0.5,0-0.8-0.4-0.8-0.9
		c0-0.5,0.4-0.9,0.8-0.9C353.9,105.1,354.3,105.5,354.3,106z M348.7,90.9c0-0.5,0.4-0.9,0.8-0.9c0.5,0,0.8,0.4,0.8,0.9
		c0,0.5-0.4,0.9-0.8,0.9C349.1,91.8,348.7,91.4,348.7,90.9z M352,98.7c0,0.5-0.4,0.9-0.8,0.9c-0.5,0-0.8-0.4-0.8-0.9
		s0.4-0.9,0.8-0.9C351.6,97.8,352,98.2,352,98.7z M349.6,83.6c0,0.5-0.4,0.9-0.8,0.9c-0.5,0-0.8-0.4-0.8-0.9c0-0.5,0.4-0.9,0.8-0.9
		C349.2,82.7,349.6,83.1,349.6,83.6z M357.2,116.6c-0.5,0-0.8-0.4-0.8-0.9c0-0.5,0.4-0.9,0.8-0.9c0.5,0,0.8,0.4,0.8,0.9
		C358.1,116.2,357.7,116.6,357.2,116.6z M356.1,110.4c0-0.5,0.4-0.9,0.8-0.9c0.5,0,0.8,0.4,0.8,0.9c0,0.5-0.4,0.9-0.8,0.9
		C356.5,111.3,356.1,110.9,356.1,110.4z"/>
	<path class="st20" d="M376.8,130.2c0.2,1.2,1.5,5.7,1.8,5.7s0.7-2.2,0.7-3.1c0-0.9-0.5-2.9,0.2-2.9s1.9,4.3,2.2,4.9
		c0.3,0.6,0.1,5.9,1.2,5.3c1.1-0.6,3.2-4.8,3.2-5.6c0-0.8-0.1-2.3-0.5-3.5c-0.4-1.2-1.4-3.5-1.5-4.7c0,0,0-0.1,0-0.1
		c-1.6-0.7-4-1.9-5.2-3.1C377.1,126.6,376.6,129.1,376.8,130.2z"/>
	<path class="st7" d="M394.4,88.6c-1.1-5.2-2.2-10.9-3.6-16.2c-2.3-8.5-5.4-15.9-11-18.4c0,0-0.1,0-0.1-0.1c0,0-5.1,5.3-5.1,18.1
		s4.7,20.1,6.3,24.8c1.6,4.7-3.4,24.4-2.9,25.4c0.1,0.3,0.4,0.6,0.7,0.9c1.3,1.2,3.6,2.4,5.2,3.1c1,0.4,1.6,0.7,1.6,0.7
		s0.1-0.2,0.3-0.5c1.1-2.4,5.8-12.9,7.9-23.3C394.9,97.9,395.3,92.8,394.4,88.6z"/>
	<path class="st5" d="M356.9,111.3c0.5,0,0.8-0.4,0.8-0.9c0-0.5-0.4-0.9-0.8-0.9c-0.5,0-0.8,0.4-0.8,0.9
		C356.1,110.9,356.5,111.3,356.9,111.3z"/>
	<path class="st5" d="M357.2,114.8c-0.5,0-0.8,0.4-0.8,0.9c0,0.5,0.4,0.9,0.8,0.9c0.5,0,0.8-0.4,0.8-0.9
		C358.1,115.2,357.7,114.8,357.2,114.8z"/>
	<path class="st5" d="M352.6,106c0,0.5,0.4,0.9,0.8,0.9c0.5,0,0.8-0.4,0.8-0.9c0-0.5-0.4-0.9-0.8-0.9
		C353,105.1,352.6,105.5,352.6,106z"/>
	<path class="st5" d="M350.4,98.7c0,0.5,0.4,0.9,0.8,0.9c0.5,0,0.8-0.4,0.8-0.9s-0.4-0.9-0.8-0.9C350.7,97.8,350.4,98.2,350.4,98.7z
		"/>
	<path class="st5" d="M350.4,90.9c0-0.5-0.4-0.9-0.8-0.9c-0.5,0-0.8,0.4-0.8,0.9c0,0.5,0.4,0.9,0.8,0.9
		C350,91.8,350.4,91.4,350.4,90.9z"/>
	<path class="st5" d="M348.8,82.7c-0.5,0-0.8,0.4-0.8,0.9c0,0.5,0.4,0.9,0.8,0.9c0.5,0,0.8-0.4,0.8-0.9
		C349.6,83.1,349.2,82.7,348.8,82.7z"/>
	<path class="st25" d="M310.5,201.3c0.3,0,0.6-0.1,0.8-0.3c0.1-0.2,0.3-0.4,0.3-0.6l0.2-2.8c0-0.5-0.3-0.9-0.7-1
		c-0.1,0-0.1-0.1-0.2-0.1l-2.3-0.2c0,0-0.1,0-0.1,0c-0.5,0-0.9,0.4-0.9,0.9l-0.2,2.8c0,0.5,0.4,1,0.9,1c0,0,0,0,0,0L310.5,201.3z"/>
	<path class="st23" d="M362.4,39.6c-0.3,0.8-0.8,1.9-1.1,2.9c-0.5,1.6,0.1,2.7,0.3,3.7c0,0,0,0,0,0.1c0.3,0.1,0.5,0.1,0.8,0.1
		c0.4,0,0.7-0.2,1-0.5c0.7-0.9,1.1-2.6,1.1-4.3c0-0.6-0.1-1.2-0.2-1.8C364.1,38.7,363.3,38.9,362.4,39.6z"/>
	<path class="st1" d="M353.8,55.4c-0.7,1.2-1.2,2.5-1.4,3.2c-3.2,10.2-2.7,20.5,0.1,36.4c1.1,6.4,2.5,10.3,3.4,12.4
		c1.1-3.5,3.4-9.7,6.4-17.5c3.7-9.7,7.4-29.4,5.5-39.5c-0.1-0.4-0.3-0.8-0.5-1.2c-1-0.2-2-0.5-3.1-0.6c0.8,2.9,1.3,6.5,0.3,8.7
		c-1.9,4.1-9,5.5-9.7,3.5c-0.3-0.8-0.3-1.6-0.3-2.4c0,0,0,0,0,0c0-0.1,0-0.2,0-0.3c0-0.2,0-0.4,0-0.6c0-0.2,0-0.3,0-0.5
		c0-0.1,0-0.2,0-0.4c0-0.2,0-0.4,0-0.6c0-0.1,0-0.2,0-0.3c0-0.1,0-0.2-0.1-0.4c1-0.1,1.9-0.2,2.4-0.3c1.7-0.4,3.5-3,3.8-4.5
		c0.3-1.4,1.1-3.3,0.9-4.3c0,0,0,0,0-0.1c-0.2-1-0.8-2.1-0.3-3.7c0.3-1,0.8-2.2,1.1-2.9c0.9-0.7,1.7-0.9,1.9,0.2
		c0.1,0.6,0.2,1.2,0.2,1.8c0.4-1,0.6-2.1,0.7-3.5c0.2-3.7-0.4-8.7-0.4-8.7s-1.5,1.5-5.8-0.2c-6.2-2.4-9.6-1.9-12.5-0.2
		c-4,2.4-3.7,6.7-1.7,11.1c-0.1,2.4-0.2,9.1,0.9,11.6c1.3,3.1,3,3.5,3.5,3.5c0,0,0,0,0,0c0.5,0.1,1.1,0.2,1.8,0.3
		C351.9,55.5,352.9,55.5,353.8,55.4z M352.3,47.9c-2.3-0.4-3.7,0.3-4.7,0.4c-0.5,0-0.9-0.2-1.1-0.4c0.3,0,0.6-0.1,1-0.4
		c1.5-0.9,2.4-1.3,4.4-1.2c2.1,0.1,4.3,1.4,5.5,1.9C356.1,48.5,354,48.2,352.3,47.9z M347.3,33.3c1.8,1.5,3.7,2.1,5.5,2.1
		c1.5,0,2.8-0.4,3.9-0.9c0.7-0.4,1.4-0.7,2-1c0.1,0.1,0.2,0.2,0.4,0.3c-0.9,0.6-2.1,1.2-3.4,1.7C352.5,36.8,349.5,36,347.3,33.3
		C347.3,33.4,347.3,33.3,347.3,33.3z M358.5,33.2c-0.6,0.3-1.2,0.6-1.9,1c-2.2,1.1-5.4,1.5-8.3-0.5c0.3,0.1,0.6,0.2,1.1,0.3
		c0,0,1.9,0.5,6.2,0C356.6,33.8,357.6,33.5,358.5,33.2C358.5,33.2,358.5,33.2,358.5,33.2z M347.1,33.6c1.6,1.8,3.5,2.7,5.6,2.7
		c1,0,2.1-0.2,3.1-0.7c1.4-0.6,2.6-1.2,3.5-1.8c0.1,0.1,0.1,0.1,0.2,0.2c0.2,2.4-0.9,6.6,0.2,7.2c1.2,0.6,0.4,2.9-0.4,4.6
		c-0.7,0.1-1.9,0.3-2.9-0.3c-1.4-0.9-3.9-1.4-6.6-1.1c-2.6,0.4-2.9,1.9-4.3,0.8c-0.1-0.6-0.3-1.1-0.4-1.7
		C344.6,39.9,345.4,36.2,347.1,33.6z"/>
	<polygon class="st4" points="30.6,29.3 32.8,38.1 35.6,38.1 37.8,29.3 38.6,38.1 41.1,38.1 39.9,25 36.4,25 34.2,34 32,25 28.5,25 
		27.4,38.1 29.8,38.1 	"/>
	<path class="st4" d="M47.4,36c-0.1,0-0.2,0-0.2,0s-0.1,0-0.2,0c-0.1,0-0.1,0-0.2-0.1c0,0-0.1-0.1-0.2-0.1c-0.1,0-0.1-0.1-0.2-0.2
		c0-0.1-0.1-0.2-0.1-0.3l-1.7-6.7h-2.6l1.9,7.1c0.4,1.6,1.4,2.4,2.8,2.4L45.5,43h1.8l1.3-1.8l3.3-12.6h-2.6L47.4,36z"/>
	<path class="st4" d="M54.5,25.9l-0.4,2.7l-1.5,0.5v1.4h1.5v4.2c0,1.2,0.2,2.1,0.6,2.6c0.4,0.5,1,0.8,1.7,0.8h2.2v-1.5
		c-0.1,0-0.5-0.1-1.2-0.4c-0.2-0.1-0.3-0.2-0.4-0.3c-0.1-0.1-0.2-0.3-0.3-0.6c-0.1-0.3-0.1-0.6-0.1-1.1v-3.8h2.1v-1.9h-2.1v-2.7
		H54.5z"/>
	<path class="st4" d="M59.9,24v14.1h2.5v-6.9c0.3-0.2,0.5-0.3,0.7-0.5s0.4-0.2,0.7-0.3c0.3-0.1,0.6-0.1,0.9-0.1s0.6,0.1,0.8,0.3
		c0.2,0.2,0.3,0.5,0.3,1v6.4h2.5v-6.4c0-2.2-1-3.3-2.9-3.3c-0.2,0-0.4,0-0.6,0c-0.2,0-0.4,0.1-0.5,0.1s-0.3,0.1-0.5,0.2
		s-0.3,0.1-0.4,0.2s-0.2,0.1-0.4,0.2c-0.2,0.1-0.3,0.2-0.3,0.2s-0.2,0.1-0.4,0.3V24H59.9z"/>
	<path class="st4" d="M84.7,30.3c0.3-0.5,0.4-1.2,0.4-1.8c0-1-0.3-1.9-0.9-2.5c-0.6-0.7-1.5-1-2.8-1H76v13.2h5.5
		c0.7,0,1.3-0.1,1.8-0.3c0.5-0.2,0.9-0.4,1.2-0.8c0.3-0.3,0.5-0.7,0.7-1.2s0.2-1,0.2-1.6c0-0.8-0.2-1.5-0.6-2
		c-0.4-0.5-0.9-0.9-1.4-1C83.9,31.2,84.3,30.9,84.7,30.3z M78.5,27.2h2.8c0.1,0,0.2,0,0.3,0c0.1,0,0.2,0,0.3,0.1s0.2,0.1,0.3,0.2
		s0.2,0.2,0.2,0.3c0.1,0.1,0.1,0.2,0.2,0.4c0,0.2,0.1,0.3,0.1,0.5c0,0.5-0.1,0.8-0.4,1.1c-0.2,0.3-0.6,0.4-1,0.4h-2.8V27.2z
		 M81.3,35.9l-2.9,0v-3.6h2.9c0.3,0,0.6,0.1,0.8,0.3c0.2,0.2,0.4,0.4,0.5,0.7c0.1,0.3,0.1,0.6,0.1,0.9
		C82.8,35.3,82.3,35.9,81.3,35.9z"/>
	<path class="st4" d="M86.4,28.6v6.4c0,2.2,0.9,3.4,2.8,3.4c0.3,0,0.5,0,0.8-0.1c0.2,0,0.5-0.1,0.7-0.2c0.2-0.1,0.4-0.2,0.5-0.3
		c0.1-0.1,0.3-0.2,0.5-0.3c0.2-0.2,0.4-0.3,0.5-0.3l0.5,1h2v-9.6h-2.5v6.9c-0.3,0.2-0.5,0.4-0.7,0.5c-0.2,0.1-0.4,0.2-0.7,0.3
		c-0.3,0.1-0.6,0.1-0.9,0.1c-0.7,0-1.1-0.4-1.1-1.3v-6.4H86.4z"/>
	<path class="st4" d="M107.1,25.9l-0.4,2.7h-7.8c-0.9,0-1.5,0.2-2,0.7c-0.4,0.5-0.6,1.1-0.6,1.9v0.8c0,1.7,0.9,2.6,2.7,2.6h2.2
		c0.2,0,0.4,0,0.5,0.1c0.1,0.1,0.1,0.3,0.1,0.5v0.4c0,0.4-0.2,0.6-0.6,0.6h-4.5v1.6c0.3,0.2,1,0.3,2.1,0.4c1.1,0.1,2.2,0.1,3.2,0.1
		c0.7,0,1.2-0.2,1.7-0.6c0.4-0.4,0.7-1,0.7-1.9v-0.9c0-1-0.4-1.7-1.1-2.1c-0.4-0.2-0.9-0.3-1.5-0.3h-2.3c-0.3,0-0.4,0-0.6-0.1
		c-0.1-0.1-0.2-0.2-0.2-0.5v-0.4c0-0.3,0-0.4,0.1-0.5c0.1-0.1,0.3-0.1,0.6-0.1h7.2v4.1c0,1.6,0.3,2.6,1,3.1c0.3,0.2,0.8,0.3,1.3,0.3
		h2.1v-1.6c-0.1,0-0.3-0.1-0.8-0.2c-0.5-0.2-0.7-0.3-0.8-0.4c-0.2-0.2-0.3-0.8-0.4-1.6v-3.9h2.1v-1.9h-2.1v-2.7H107.1z"/>
	<path class="st4" d="M119.8,33.8c0.4-0.4,0.7-1,0.7-1.8c0-0.4,0-0.8-0.1-1.2c-0.1-0.3-0.1-0.6-0.2-0.9c-0.1-0.2-0.2-0.5-0.4-0.6
		c-0.2-0.2-0.4-0.3-0.6-0.4c-0.2-0.1-0.4-0.2-0.7-0.2c-0.3-0.1-0.6-0.1-0.9-0.1c-0.3,0-0.7,0-1.1,0c-0.6,0-1.2,0-1.6,0.1
		c-0.4,0.1-0.8,0.2-1.2,0.4c-0.3,0.2-0.6,0.5-0.8,0.8c-0.2,0.4-0.3,0.8-0.4,1.4c-0.1,0.6-0.2,1.3-0.2,2.1c0,0.9,0.1,1.7,0.2,2.3
		c0.1,0.6,0.3,1.1,0.5,1.5c0.2,0.4,0.6,0.7,1,0.9c0.4,0.2,0.9,0.3,1.5,0.3c2.4,0,4-0.2,4.9-0.5V36c-0.9,0.1-2,0.2-3.5,0.2
		c-0.5,0-0.9,0-1.2-0.1c-0.2-0.1-0.5-0.2-0.6-0.5c-0.2-0.3-0.2-0.7-0.2-1.2h3C118.7,34.4,119.4,34.2,119.8,33.8z M117.2,32.6h-2.4
		c0-0.5,0-0.9,0.1-1.2s0.2-0.5,0.3-0.6s0.4-0.2,0.5-0.3s0.5,0,0.9,0c0.6,0,1,0.1,1.1,0.3s0.2,0.6,0.2,1.2
		C118,32.3,117.7,32.6,117.2,32.6z"/>
	<path class="st4" d="M124.4,29.8l-0.4-1.2h-2.1v9.6h2.5V32c0.3-0.4,0.6-0.7,1-0.8c0.4-0.1,0.8-0.2,1.4-0.2c0.6,0,1,0,1.4,0.1v-2.4
		c-0.2-0.1-0.5-0.1-1.1-0.1C126.2,28.5,125.3,28.9,124.4,29.8z"/>
	<path class="st4" d="M131.7,30.9c0-0.1,0.1-0.1,0.1-0.2c0-0.1,0.1-0.1,0.2-0.1c0.1,0,0.2,0,0.4,0h4.3V29c-0.6-0.3-2.3-0.5-5.1-0.5
		c-1.7,0-2.5,0.9-2.5,2.6v0.8c0,0.9,0.2,1.6,0.7,2s1.1,0.6,2,0.6h2.2c0.2,0,0.3,0,0.4,0.1c0.1,0,0.2,0.1,0.2,0.2c0,0.1,0,0.2,0,0.3
		v0.5c0,0.4-0.2,0.6-0.6,0.6h-4.5v1.6c0.5,0.3,2.3,0.5,5.3,0.5c0.2,0,0.4,0,0.5,0c1.2-0.2,1.8-1,1.8-2.5v-1c0-0.3,0-0.7-0.1-1
		s-0.2-0.6-0.4-0.8c-0.2-0.2-0.5-0.4-0.8-0.5s-0.7-0.2-1.2-0.2h-2.3c-0.3,0-0.4,0-0.6-0.1c-0.1-0.1-0.2-0.2-0.2-0.5v-0.4
		C131.6,31.1,131.6,31,131.7,30.9z"/>
	<polygon class="st4" points="35.4,52.3 33.7,59.3 32,52.3 29.2,52.3 28.3,62.6 30.3,62.6 30.9,55.7 32.6,62.6 34.8,62.6 36.4,55.7 
		37.1,62.6 39,62.6 38.1,52.3 	"/>
	<path class="st4" d="M39.8,55.1l1.5,5.5c0.3,1.3,1.1,1.9,2.2,1.9l-1.1,3.8h1.4l1-1.4l2.6-9.8h-2l-1.5,5.8c-0.1,0-0.1,0-0.2,0
		s-0.1,0-0.1,0c-0.1,0-0.1,0-0.1-0.1c0,0-0.1-0.1-0.1-0.1s-0.1-0.1-0.1-0.2c0-0.1-0.1-0.1-0.1-0.2l-1.3-5.2H39.8z"/>
	<path class="st4" d="M51.1,53h-1.6l-0.3,2.1l-1.2,0.4v1.1h1.2v3.3c0,0.9,0.2,1.6,0.5,2c0.3,0.4,0.8,0.6,1.3,0.6h1.7v-1.2
		c-0.1,0-0.4-0.1-0.9-0.3c-0.1-0.1-0.3-0.1-0.3-0.2s-0.2-0.2-0.2-0.4c-0.1-0.2-0.1-0.5-0.1-0.8v-3h1.7v-1.5h-1.7V53z"/>
	<path class="st4" d="M58,55c-0.2,0-0.3,0-0.5,0s-0.3,0-0.4,0.1s-0.2,0.1-0.4,0.1s-0.2,0.1-0.3,0.1c-0.1,0-0.2,0.1-0.3,0.2
		c-0.1,0.1-0.2,0.2-0.3,0.2c0,0-0.1,0.1-0.3,0.2v-4.3h-1.9v11h2v-5.3c0.2-0.1,0.4-0.3,0.6-0.4c0.2-0.1,0.3-0.2,0.5-0.2
		c0.2-0.1,0.4-0.1,0.7-0.1s0.5,0.1,0.6,0.2c0.1,0.2,0.2,0.4,0.2,0.8v5h2v-5C60.2,55.9,59.5,55,58,55z"/>
	<path class="st4" d="M62,57.1h1.2c0.2,0,0.3-0.1,0.3-0.3v-1.3c0-0.2-0.1-0.4-0.3-0.4H62c-0.2,0-0.3,0.1-0.3,0.4v1.3
		c0,0.1,0,0.2,0.1,0.2C61.8,57,61.9,57.1,62,57.1z"/>
	<path class="st4" d="M61.6,62.2c0,0.1,0,0.2,0.1,0.2s0.1,0.1,0.2,0.1h1.2c0.2,0,0.3-0.1,0.3-0.3V61c0-0.2-0.1-0.4-0.3-0.4H62
		c-0.2,0-0.3,0.1-0.3,0.4V62.2z"/>
	<polygon class="st4" points="32.1,78.2 32.1,69.6 34.9,69.6 34.9,68.6 28.3,68.6 28.3,69.6 31.1,69.6 31.1,78.2 	"/>
	<path class="st4" d="M39.2,71.2c-0.1,0-0.2,0-0.3,0.1c-0.1,0-0.2,0.1-0.3,0.1s-0.2,0.1-0.3,0.1s-0.2,0.1-0.3,0.1
		c-0.1,0.1-0.2,0.1-0.3,0.1s-0.1,0.1-0.3,0.2C37.1,72,37,72.1,37,72.1V68h-1v10.2h1v-5.3c0.4-0.2,0.7-0.3,0.9-0.4
		c0.2-0.1,0.4-0.1,0.7-0.2c0.3-0.1,0.6-0.1,0.9-0.1c0.4,0,0.6,0.1,0.9,0.3c0.2,0.2,0.3,0.5,0.3,0.9v4.8h1v-4.8
		c0-0.6-0.2-1.1-0.6-1.6c-0.4-0.4-0.9-0.6-1.6-0.6C39.4,71.1,39.3,71.2,39.2,71.2z"/>
	<path class="st4" d="M48.6,73.7c0-0.6-0.1-1-0.2-1.3c-0.1-0.3-0.3-0.6-0.6-0.7s-0.5-0.3-0.8-0.3c-0.3,0-0.6-0.1-1.1-0.1
		c-0.6,0-1.1,0-1.4,0.1c-0.3,0.1-0.6,0.2-0.9,0.5c-0.3,0.2-0.5,0.6-0.6,1.1S43,73.9,43,74.7c0,1.4,0.2,2.3,0.5,2.8s0.9,0.8,1.8,0.8
		c1.3,0,2.4-0.1,3.3-0.4v-0.7c-0.6,0.1-1.5,0.1-2.7,0.1c-0.1,0-0.2,0-0.3,0c-0.1,0-0.2,0-0.3,0c-0.5,0-0.9-0.1-1-0.4
		c-0.2-0.3-0.3-0.8-0.3-1.6h2.9C48,75.2,48.6,74.7,48.6,73.7z M44,73.4c0-0.2,0.1-0.4,0.2-0.6c0.1-0.2,0.2-0.3,0.3-0.4
		c0.1-0.1,0.2-0.1,0.4-0.2c0.2,0,0.4-0.1,0.5-0.1s0.4,0,0.7,0c0.7,0,1.2,0.1,1.4,0.2s0.3,0.6,0.3,1.2c0,0.4-0.3,0.6-0.8,0.6h-2.9
		C43.9,73.9,44,73.6,44,73.4z"/>
	<path class="st4" d="M59.8,78.2v-4.8c0-0.6-0.2-1.1-0.6-1.6c-0.4-0.4-0.9-0.6-1.6-0.6c-0.1,0-0.3,0-0.4,0c-0.1,0-0.2,0-0.3,0.1
		c-0.1,0-0.2,0.1-0.3,0.1s-0.2,0.1-0.3,0.1s-0.2,0.1-0.3,0.1c-0.1,0.1-0.2,0.1-0.3,0.1c0,0-0.1,0.1-0.3,0.2s-0.3,0.2-0.3,0.2
		l-0.3-0.8h-0.7v6.9h1v-5.3c0.4-0.2,0.7-0.3,0.9-0.4c0.2-0.1,0.4-0.1,0.7-0.2s0.6-0.1,0.9-0.1c0.3,0,0.6,0.1,0.8,0.3
		c0.2,0.2,0.3,0.5,0.3,0.9v4.8H59.8z"/>
	<path class="st4" d="M66.6,77.9v-0.7c-0.6,0.1-1.5,0.1-2.7,0.1c-0.1,0-0.2,0-0.3,0c-0.1,0-0.2,0-0.3,0c-0.5,0-0.9-0.1-1-0.4
		c-0.2-0.3-0.3-0.8-0.3-1.6H65c1.2,0,1.8-0.5,1.8-1.6c0-0.6-0.1-1-0.2-1.3c-0.1-0.3-0.3-0.6-0.6-0.7s-0.5-0.3-0.8-0.3
		c-0.3,0-0.6-0.1-1.1-0.1c-0.6,0-1.1,0-1.4,0.1c-0.3,0.1-0.6,0.2-0.9,0.5c-0.3,0.2-0.5,0.6-0.6,1.1s-0.2,1.1-0.2,1.8
		c0,1.4,0.2,2.3,0.5,2.8s0.9,0.8,1.8,0.8C64.7,78.2,65.8,78.1,66.6,77.9z M62.1,73.4c0-0.2,0.1-0.4,0.2-0.6c0.1-0.2,0.2-0.3,0.3-0.4
		c0.1-0.1,0.2-0.1,0.4-0.2c0.2,0,0.4-0.1,0.5-0.1s0.4,0,0.7,0c0.7,0,1.2,0.1,1.4,0.2s0.3,0.6,0.3,1.2c0,0.4-0.3,0.6-0.8,0.6h-2.9
		C62.1,73.9,62.1,73.6,62.1,73.4z"/>
	<polygon class="st4" points="72.4,71.3 70.6,76.7 68.6,71.3 67.5,71.3 70.1,78.2 71.2,78.2 72.3,74.8 73.8,78.2 74.8,78.2 
		77.4,71.3 76.4,71.3 74.3,76.7 72.8,73.5 73.5,71.3 	"/>
	<path class="st4" d="M83.9,71.3c-0.3,0.1-0.5,0.2-0.7,0.5c-0.2,0.2-0.4,0.6-0.5,1.1c-0.1,0.5-0.2,1.1-0.2,1.8
		c0,0.7,0.1,1.3,0.2,1.8c0.1,0.5,0.3,0.8,0.5,1.1c0.2,0.2,0.5,0.4,0.7,0.5c0.2,0.1,0.5,0.1,0.9,0.1c1.2,0,2.2-0.1,3.1-0.4v-0.7
		l-0.5,0c-0.3,0-0.8,0-1.3,0.1c-0.5,0-0.9,0-1.3,0c-0.5,0-0.8-0.2-1-0.5c-0.2-0.4-0.3-1-0.3-2c0-0.6,0-1.1,0.1-1.4s0.2-0.6,0.3-0.8
		c0.1-0.2,0.3-0.3,0.4-0.3c0.1,0,0.3-0.1,0.5-0.1c0.8,0,1.8,0,3,0.1v-0.7c-1.2-0.2-2.2-0.3-3-0.3C84.5,71.2,84.2,71.2,83.9,71.3z"/>
	<path class="st4" d="M92.1,71.2c-1.1,0-1.9,0.3-2.4,0.8c-0.4,0.5-0.7,1.5-0.7,2.9c0,1.3,0.2,2.1,0.7,2.7c0.4,0.5,1.2,0.8,2.4,0.8
		c1.2,0,2-0.2,2.4-0.7s0.7-1.4,0.7-2.7c0-1.4-0.2-2.3-0.7-2.8S93.3,71.2,92.1,71.2z M94.1,76.2c-0.1,0.3-0.2,0.6-0.4,0.7
		c-0.2,0.2-0.4,0.3-0.6,0.3c-0.2,0-0.5,0.1-0.9,0.1c-0.4,0-0.7,0-0.9-0.1c-0.2,0-0.4-0.1-0.6-0.3c-0.2-0.2-0.3-0.4-0.4-0.7
		S90,75.4,90,74.8c0-0.5,0-0.9,0.1-1.2s0.1-0.6,0.2-0.8s0.2-0.3,0.4-0.4c0.2-0.1,0.4-0.2,0.6-0.2c0.2,0,0.5,0,0.8,0
		c0.4,0,0.8,0,1,0.1c0.2,0,0.4,0.2,0.6,0.3c0.2,0.2,0.3,0.4,0.4,0.8c0.1,0.4,0.1,0.8,0.1,1.5C94.2,75.4,94.2,75.8,94.1,76.2z"/>
	<path class="st4" d="M99.3,71.3c-0.1,0-0.3,0.1-0.4,0.1c-0.1,0-0.2,0.1-0.4,0.2s-0.3,0.1-0.3,0.2c-0.1,0-0.2,0.1-0.4,0.2
		c-0.2,0.1-0.3,0.2-0.3,0.2l-0.3-0.9h-0.7v6.9h1v-5.3c0.4-0.2,0.7-0.4,0.9-0.4s0.4-0.2,0.7-0.2c0.3-0.1,0.6-0.1,0.9-0.1
		c0.4,0,0.8,0,1,0.1v-0.9c-0.1-0.1-0.5-0.1-1-0.1c-0.1,0-0.3,0-0.4,0C99.6,71.2,99.4,71.3,99.3,71.3z"/>
	<path class="st4" d="M105,71.2c-1.1,0-1.9,0.3-2.4,0.8c-0.4,0.5-0.7,1.5-0.7,2.9c0,1.3,0.2,2.1,0.7,2.7c0.4,0.5,1.2,0.8,2.4,0.8
		c1.2,0,2-0.2,2.4-0.7s0.7-1.4,0.7-2.7c0-1.4-0.2-2.3-0.7-2.8S106.2,71.2,105,71.2z M107,76.2c-0.1,0.3-0.2,0.6-0.4,0.7
		c-0.2,0.2-0.4,0.3-0.6,0.3c-0.2,0-0.5,0.1-0.9,0.1c-0.4,0-0.7,0-0.9-0.1c-0.2,0-0.4-0.1-0.6-0.3c-0.2-0.2-0.3-0.4-0.4-0.7
		s-0.1-0.8-0.1-1.4c0-0.5,0-0.9,0.1-1.2s0.1-0.6,0.2-0.8s0.2-0.3,0.4-0.4c0.2-0.1,0.4-0.2,0.6-0.2c0.2,0,0.5,0,0.8,0
		c0.4,0,0.8,0,1,0.1c0.2,0,0.4,0.2,0.6,0.3c0.2,0.2,0.3,0.4,0.4,0.8c0.1,0.4,0.1,0.8,0.1,1.5C107.1,75.4,107.1,75.8,107,76.2z"/>
	<path class="st4" d="M111.7,71.4c-0.1,0-0.2,0.1-0.3,0.1c-0.1,0.1-0.2,0.1-0.3,0.1c0,0-0.1,0.1-0.3,0.2s-0.3,0.2-0.3,0.2l-0.3-0.8
		h-0.7v6.9h1v-5.3c0.4-0.2,0.7-0.3,0.9-0.4c0.2-0.1,0.4-0.1,0.7-0.2s0.6-0.1,0.9-0.1c0.3,0,0.6,0.1,0.8,0.3c0.2,0.2,0.3,0.5,0.3,0.9
		v4.8h1v-4.8c0-0.6-0.2-1.1-0.6-1.6c-0.4-0.4-0.9-0.6-1.6-0.6c-0.1,0-0.3,0-0.4,0c-0.1,0-0.2,0-0.3,0.1c-0.1,0-0.2,0.1-0.3,0.1
		S111.7,71.4,111.7,71.4z"/>
	<path class="st4" d="M119.9,71.1C119.9,71.1,119.9,71.1,119.9,71.1c-1.4,0-2.5,0.1-3.4,0.4v0.7c1.4-0.1,2.5-0.2,3.3-0.2
		c0.7,0,1.1,0.4,1.1,1.1c0,0,0,0,0,0.1s0,0,0,0.1s0,0.1,0,0.1c0,0.2,0,0.4,0,0.6c-0.3,0-0.5,0-0.8,0c-0.6,0-1.3,0-2.1,0
		c-0.5,0-1,0.2-1.3,0.5c-0.3,0.3-0.5,0.7-0.5,1.3v0.8c0,0.5,0.2,1,0.5,1.3c0.3,0.3,0.7,0.5,1.2,0.5c0.2,0,0.5,0,0.7-0.1
		s0.5-0.1,0.8-0.2s0.5-0.2,0.7-0.3c0.2-0.1,0.4-0.2,0.5-0.2l0.2-0.1l0.2,0.8h0.7v-5c0-0.7-0.2-1.2-0.5-1.5
		C121,71.3,120.5,71.1,119.9,71.1z M120.9,76.6l-0.5,0.2c-0.3,0.1-0.7,0.2-1.2,0.3c-0.5,0.1-0.9,0.2-1.2,0.2c-0.5,0-0.8-0.3-0.8-0.8
		v-0.6c0-0.2,0.1-0.4,0.2-0.6s0.3-0.2,0.6-0.3l2.9-0.2V76.6z"/>
	<polygon class="st4" points="126,76.7 123.9,71.3 122.8,71.3 125.5,78.2 126.5,78.2 129.3,71.3 128.2,71.3 	"/>
	<rect x="130.3" y="71.3" class="st4" width="1" height="6.9"/>
	<path class="st4" d="M131.4,70.1v-0.7c0-0.2-0.1-0.3-0.3-0.3h-0.7c-0.2,0-0.3,0.1-0.3,0.3v0.7c0,0.2,0.1,0.3,0.3,0.3h0.7
		C131.3,70.4,131.4,70.3,131.4,70.1z"/>
	<path class="st4" d="M136,71.2c-0.1,0-0.3,0-0.4,0.1c-0.1,0-0.3,0.1-0.4,0.1c-0.1,0-0.2,0.1-0.4,0.2s-0.3,0.1-0.3,0.2
		c-0.1,0-0.2,0.1-0.4,0.2c-0.2,0.1-0.3,0.2-0.3,0.2l-0.3-0.9h-0.7v6.9h1v-5.3c0.4-0.2,0.7-0.4,0.9-0.4s0.4-0.2,0.7-0.2
		c0.3-0.1,0.6-0.1,0.9-0.1c0.4,0,0.8,0,1,0.1v-0.9c-0.1-0.1-0.5-0.1-1-0.1C136.2,71.2,136.1,71.2,136,71.2z"/>
	<path class="st4" d="M138.3,71.3v4.8c0,0.6,0.2,1.1,0.6,1.6c0.4,0.4,0.9,0.7,1.6,0.7c0.1,0,0.3,0,0.4,0c0.1,0,0.2,0,0.3-0.1
		s0.2-0.1,0.3-0.1c0.1-0.1,0.2-0.1,0.3-0.1c0.1,0,0.2-0.1,0.3-0.1c0.1-0.1,0.2-0.1,0.3-0.1s0.1-0.1,0.3-0.2c0.2-0.1,0.3-0.2,0.3-0.2
		l0.3,0.8h0.7v-6.9h-1v5.3c-0.4,0.2-0.7,0.3-0.9,0.4s-0.4,0.1-0.7,0.2c-0.3,0.1-0.6,0.1-0.9,0.1c-0.3,0-0.6-0.1-0.8-0.3
		c-0.2-0.2-0.3-0.5-0.3-0.9v-4.8H138.3z"/>
	<path class="st4" d="M146.2,72.6c0-0.1,0-0.1,0.1-0.2s0.1-0.1,0.3-0.2c0.1,0,0.3-0.1,0.5-0.1h3.4v-0.7c-1.4-0.1-2.6-0.2-3.4-0.2
		c-0.6,0-1.1,0.1-1.4,0.4s-0.4,0.7-0.4,1.3v0.6c0,0.6,0.1,1.1,0.4,1.3c0.3,0.2,0.7,0.4,1.4,0.4h2.1c0.3,0,0.5,0.1,0.6,0.2
		c0.1,0.1,0.2,0.3,0.2,0.5v0.6c0,0.1,0,0.3-0.1,0.4c-0.1,0.1-0.1,0.2-0.2,0.2c-0.1,0-0.2,0.1-0.2,0.1c-0.1,0-0.1,0-0.2,0
		c0,0,0,0-0.1,0h-3.6V78c1.6,0.2,2.8,0.2,3.6,0.2c0.5,0,0.9-0.1,1.2-0.4c0.3-0.2,0.5-0.7,0.5-1.3v-0.6c0-0.5-0.1-0.9-0.4-1.2
		s-0.7-0.5-1.3-0.5H147c-0.1,0-0.3,0-0.3,0c-0.1,0-0.2,0-0.2-0.1c-0.1,0-0.1-0.1-0.2-0.2c0-0.1-0.1-0.2-0.1-0.4v-0.6
		C146.2,72.8,146.2,72.7,146.2,72.6z"/>
	<path class="st4" d="M161.6,77.5c0.4-0.5,0.7-1.4,0.7-2.7c0-1.4-0.2-2.3-0.7-2.8s-1.2-0.8-2.4-0.8c-1.1,0-1.9,0.3-2.4,0.8
		c-0.4,0.5-0.7,1.5-0.7,2.9c0,1.3,0.2,2.1,0.7,2.7c0.4,0.5,1.2,0.8,2.4,0.8C160.3,78.2,161.1,78,161.6,77.5z M157.7,76.9
		c-0.2-0.2-0.3-0.4-0.4-0.7s-0.1-0.8-0.1-1.4c0-0.5,0-0.9,0.1-1.2s0.1-0.6,0.2-0.8s0.2-0.3,0.4-0.4c0.2-0.1,0.4-0.2,0.6-0.2
		c0.2,0,0.5,0,0.8,0c0.4,0,0.8,0,1,0.1c0.2,0,0.4,0.2,0.6,0.3c0.2,0.2,0.3,0.4,0.4,0.8c0.1,0.4,0.1,0.8,0.1,1.5c0,0.6,0,1-0.1,1.3
		c-0.1,0.3-0.2,0.6-0.4,0.7c-0.2,0.2-0.4,0.3-0.6,0.3c-0.2,0-0.5,0.1-0.9,0.1c-0.4,0-0.7,0-0.9-0.1
		C158.1,77.2,157.9,77.1,157.7,76.9z"/>
	<path class="st4" d="M169.3,78.2v-4.8c0-0.6-0.2-1.1-0.6-1.6c-0.4-0.4-0.9-0.6-1.6-0.6c-0.1,0-0.3,0-0.4,0c-0.1,0-0.2,0-0.3,0.1
		c-0.1,0-0.2,0.1-0.3,0.1s-0.2,0.1-0.3,0.1s-0.2,0.1-0.3,0.1c-0.1,0.1-0.2,0.1-0.3,0.1c0,0-0.1,0.1-0.3,0.2s-0.3,0.2-0.3,0.2
		l-0.3-0.8h-0.7v6.9h1v-5.3c0.4-0.2,0.7-0.3,0.9-0.4c0.2-0.1,0.4-0.1,0.7-0.2s0.6-0.1,0.9-0.1c0.3,0,0.6,0.1,0.8,0.3
		c0.2,0.2,0.3,0.5,0.3,0.9v4.8H169.3z"/>
	<path class="st4" d="M170.7,68v7.7c0,1.6,0.6,2.5,1.7,2.5h1.1v-0.7c-0.1,0-0.4-0.1-1.2-0.3c-0.3-0.1-0.4-0.2-0.6-0.4
		c-0.1-0.2-0.2-0.6-0.2-1.1V68H170.7z"/>
	<path class="st4" d="M180.8,71.3h-1.1l-2,5.9c0,0-0.1,0-0.2,0c-0.1,0-0.3,0-0.4-0.1s-0.2-0.2-0.3-0.4l-1.7-5.4h-1.1l1.7,5.5
		c0.3,1,0.8,1.4,1.6,1.4l-1.2,3.5h0.6l1-1.3L180.8,71.3z"/>
	<path class="st4" d="M28.3,92.1c0,0.5,0.2,1,0.5,1.3c0.3,0.3,0.7,0.5,1.2,0.5c0.2,0,0.5,0,0.7-0.1s0.5-0.1,0.8-0.2
		c0.2-0.1,0.5-0.2,0.7-0.3c0.2-0.1,0.4-0.2,0.5-0.2l0.2-0.1l0.2,0.8h0.7v-5c0-0.7-0.2-1.2-0.5-1.5c-0.4-0.3-0.8-0.5-1.4-0.5
		c0,0,0,0,0,0c-1.4,0-2.5,0.1-3.4,0.4v0.7c1.4-0.1,2.5-0.2,3.3-0.2c0.7,0,1.1,0.4,1.1,1.1c0,0,0,0,0,0.1s0,0,0,0.1c0,0,0,0.1,0,0.1
		c0,0.2,0,0.4,0,0.6c-0.3,0-0.5,0-0.8,0c-0.6,0-1.3,0-2.1,0c-0.5,0-1,0.2-1.3,0.5c-0.3,0.3-0.5,0.7-0.5,1.3V92.1z M29.2,91.4
		c0-0.2,0.1-0.4,0.2-0.6c0.1-0.2,0.3-0.2,0.6-0.3l2.9-0.2v1.9l-0.5,0.2c-0.3,0.1-0.7,0.2-1.2,0.3c-0.5,0.1-0.9,0.2-1.2,0.2
		c-0.5,0-0.8-0.3-0.8-0.8V91.4z"/>
	<path class="st4" d="M41.9,93.8v-5.9h1.9v-1h-1.9v-1.3c0-0.3,0-0.6,0.1-0.8c0.1-0.2,0.3-0.3,0.7-0.3l1.6,0v-0.6
		c-0.7-0.2-1.2-0.3-1.6-0.3s-0.7,0.1-0.9,0.2c-0.2,0.1-0.4,0.2-0.5,0.3c-0.2,0.3-0.4,0.8-0.4,1.5v1.3h-4v-1.2c0-0.3,0-0.6,0.1-0.8
		c0.1-0.2,0.3-0.3,0.7-0.3l1.6,0V84c-0.7-0.2-1.2-0.3-1.6-0.3s-0.7,0.1-0.9,0.2c-0.2,0.1-0.4,0.2-0.5,0.3C36.2,84.5,36,85,36,85.7
		v1.2l-1.3,0.2v0.7H36v5.9h1v-5.9h4v5.9H41.9z"/>
	<path class="st4" d="M51,89.3c0-0.6-0.1-1-0.2-1.3c-0.1-0.3-0.3-0.6-0.6-0.7c-0.3-0.2-0.5-0.3-0.8-0.3c-0.3,0-0.6-0.1-1.1-0.1
		c-0.6,0-1.1,0-1.4,0.1s-0.6,0.2-0.9,0.5s-0.5,0.6-0.6,1.1c-0.1,0.5-0.2,1.1-0.2,1.8c0,1.4,0.2,2.3,0.5,2.8c0.3,0.5,0.9,0.8,1.8,0.8
		c1.3,0,2.4-0.1,3.3-0.4v-0.7c-0.6,0.1-1.5,0.1-2.7,0.1c-0.1,0-0.2,0-0.3,0s-0.2,0-0.3,0c-0.5,0-0.9-0.1-1-0.4
		c-0.2-0.3-0.3-0.8-0.3-1.6h2.9C50.4,90.8,51,90.3,51,89.3z M46.3,89c0-0.2,0.1-0.4,0.2-0.6s0.2-0.3,0.3-0.4
		c0.1-0.1,0.2-0.1,0.4-0.2c0.2,0,0.4-0.1,0.5-0.1c0.1,0,0.4,0,0.7,0c0.7,0,1.2,0.1,1.4,0.2c0.2,0.2,0.3,0.6,0.3,1.2
		c0,0.4-0.3,0.6-0.8,0.6h-2.9C46.3,89.5,46.3,89.2,46.3,89z"/>
	<path class="st4" d="M52.8,87.4c-0.2,0.2-0.4,0.6-0.5,1.1c-0.1,0.5-0.2,1.1-0.2,1.8c0,0.7,0.1,1.3,0.2,1.8c0.1,0.5,0.3,0.8,0.5,1.1
		s0.5,0.4,0.7,0.5c0.2,0.1,0.5,0.1,0.9,0.1c1.2,0,2.2-0.1,3.1-0.4v-0.7l-0.5,0c-0.3,0-0.8,0-1.3,0.1c-0.5,0-0.9,0-1.3,0
		c-0.5,0-0.8-0.2-1-0.5c-0.2-0.4-0.3-1-0.3-2c0-0.6,0-1.1,0.1-1.4c0.1-0.4,0.2-0.6,0.3-0.8s0.3-0.3,0.4-0.3c0.1,0,0.3-0.1,0.5-0.1
		c0.8,0,1.8,0,3,0.1v-0.7c-1.2-0.2-2.2-0.3-3-0.3c-0.4,0-0.7,0-0.9,0.1C53.2,87,53,87.2,52.8,87.4z"/>
	<path class="st4" d="M62.5,87.8v-1h-2v-1.9h-0.7l-0.2,1.9l-1.3,0.2v0.7h1.3v3.5c0,1.6,0.6,2.5,1.7,2.5h1.1v-0.7
		c-0.1,0-0.4-0.1-1.2-0.3c-0.3-0.1-0.4-0.2-0.6-0.4c-0.1-0.2-0.2-0.6-0.2-1.1v-3.5H62.5z"/>
	<path class="st4" d="M67.9,92.5c-0.1,0.1-0.1,0.2-0.2,0.2c-0.1,0-0.2,0.1-0.2,0.1c-0.1,0-0.1,0-0.2,0c0,0,0,0-0.1,0h-3.6v0.7
		c1.6,0.2,2.8,0.2,3.6,0.2c0.5,0,0.9-0.1,1.2-0.4s0.5-0.7,0.5-1.3v-0.6c0-0.5-0.1-0.9-0.4-1.2c-0.3-0.3-0.7-0.5-1.3-0.5h-2.1
		c-0.1,0-0.3,0-0.3,0c-0.1,0-0.2,0-0.2-0.1c-0.1,0-0.2-0.1-0.2-0.2c0-0.1-0.1-0.2-0.1-0.4v-0.6c0-0.1,0-0.2,0-0.3
		c0-0.1,0-0.1,0.1-0.2c0-0.1,0.1-0.1,0.3-0.2c0.1,0,0.3-0.1,0.5-0.1h3.4V87c-1.4-0.1-2.6-0.2-3.4-0.2c-0.6,0-1.1,0.1-1.4,0.4
		c-0.3,0.3-0.4,0.7-0.4,1.3v0.6c0,0.7,0.1,1.1,0.4,1.3c0.3,0.2,0.7,0.4,1.4,0.4h2.1c0.3,0,0.5,0.1,0.6,0.2c0.1,0.1,0.2,0.3,0.2,0.5
		v0.6C68,92.3,68,92.4,67.9,92.5z"/>
	<path class="st4" d="M80.4,90.4c0-1.4-0.2-2.3-0.7-2.8s-1.2-0.8-2.4-0.8c-1.1,0-1.9,0.3-2.4,0.8c-0.4,0.5-0.7,1.5-0.7,2.9
		c0,1.3,0.2,2.1,0.7,2.7c0.4,0.5,1.2,0.8,2.4,0.8c1.2,0,2-0.2,2.4-0.7C80.2,92.6,80.4,91.7,80.4,90.4z M79.4,91.8
		c-0.1,0.3-0.2,0.6-0.4,0.7s-0.4,0.3-0.6,0.3c-0.2,0-0.5,0.1-0.9,0.1c-0.4,0-0.7,0-0.9-0.1c-0.2,0-0.4-0.1-0.6-0.3
		c-0.2-0.2-0.3-0.4-0.4-0.7s-0.1-0.8-0.1-1.4c0-0.5,0-0.9,0.1-1.2s0.1-0.6,0.2-0.8c0.1-0.2,0.2-0.3,0.4-0.4c0.2-0.1,0.4-0.2,0.6-0.2
		c0.2,0,0.5,0,0.8,0c0.4,0,0.8,0,1,0.1c0.2,0,0.4,0.2,0.6,0.3c0.2,0.2,0.3,0.4,0.4,0.8c0.1,0.4,0.1,0.8,0.1,1.5
		C79.5,91,79.4,91.4,79.4,91.8z"/>
	<path class="st4" d="M84.7,93.1c-0.1,0-0.4-0.1-1.2-0.3c-0.3-0.1-0.4-0.2-0.6-0.4c-0.1-0.2-0.2-0.6-0.2-1.1v-7.7h-1v7.7
		c0,1.6,0.6,2.5,1.7,2.5h1.1V93.1z"/>
	<path class="st4" d="M90.5,93l0.3,0.8h0.7V83.6h-0.9v3.7c-0.4-0.2-0.8-0.3-1.3-0.4c-0.5-0.1-0.9-0.1-1.2-0.1
		c-0.5,0-0.9,0.1-1.2,0.3s-0.5,0.5-0.7,0.9s-0.3,0.7-0.3,1.1c-0.1,0.4-0.1,0.8-0.1,1.3c0,0.4,0,0.9,0.1,1.2s0.2,0.7,0.3,1.1
		c0.2,0.4,0.4,0.6,0.7,0.9s0.7,0.3,1.1,0.3c0.4,0,0.9-0.1,1.4-0.3C89.9,93.3,90.2,93.2,90.5,93z M86.6,90.3c0-1,0.1-1.7,0.3-2.1
		c0.2-0.4,0.5-0.6,1-0.6c0.8,0,1.7,0.1,2.5,0.3v4.2c-1,0.4-1.8,0.6-2.5,0.6C87,92.9,86.6,92,86.6,90.3z"/>
	<path class="st4" d="M94.5,86.9c-0.3,0.1-0.6,0.2-0.9,0.5S93.1,88,93,88.4c-0.1,0.5-0.2,1.1-0.2,1.8c0,1.4,0.2,2.3,0.5,2.8
		c0.3,0.5,0.9,0.8,1.8,0.8c1.3,0,2.4-0.1,3.3-0.4v-0.7c-0.6,0.1-1.5,0.1-2.7,0.1c-0.1,0-0.2,0-0.3,0s-0.2,0-0.3,0
		c-0.5,0-0.9-0.1-1-0.4c-0.2-0.3-0.3-0.8-0.3-1.6h2.9c1.2,0,1.8-0.5,1.8-1.6c0-0.6-0.1-1-0.2-1.3c-0.1-0.3-0.3-0.6-0.6-0.7
		c-0.3-0.2-0.5-0.3-0.8-0.3c-0.3,0-0.6-0.1-1.1-0.1C95.3,86.8,94.8,86.8,94.5,86.9z M97.2,88c0.2,0.2,0.3,0.6,0.3,1.2
		c0,0.4-0.3,0.6-0.8,0.6h-2.9c0-0.3,0-0.6,0-0.9c0-0.2,0.1-0.4,0.2-0.6s0.2-0.3,0.3-0.4c0.1-0.1,0.2-0.1,0.4-0.2
		c0.2,0,0.4-0.1,0.5-0.1c0.1,0,0.4,0,0.7,0C96.6,87.8,97,87.9,97.2,88z"/>
	<path class="st4" d="M104.3,87.8v-0.9c-0.1-0.1-0.5-0.1-1-0.1c-0.1,0-0.3,0-0.4,0s-0.3,0-0.4,0.1c-0.1,0-0.3,0.1-0.4,0.1
		c-0.1,0-0.2,0.1-0.4,0.2c-0.2,0.1-0.3,0.1-0.3,0.2c-0.1,0-0.2,0.1-0.4,0.2c-0.2,0.1-0.3,0.2-0.3,0.2l-0.3-0.9h-0.7v6.9h1v-5.3
		c0.4-0.2,0.7-0.4,0.9-0.4c0.2-0.1,0.4-0.2,0.7-0.2c0.3-0.1,0.6-0.1,0.9-0.1C103.8,87.8,104.1,87.8,104.3,87.8z"/>
	<path class="st4" d="M114.2,87.1c-0.3-0.2-0.7-0.3-1.1-0.3c-0.4,0-0.9,0.1-1.4,0.3c-0.5,0.2-0.9,0.4-1.1,0.5l-0.2-0.8h-0.7v10.4
		h0.9v-3.9c0.4,0.2,0.8,0.3,1.3,0.4c0.5,0.1,0.9,0.1,1.2,0.1c0.5,0,0.9-0.1,1.2-0.3s0.6-0.5,0.7-0.9c0.2-0.4,0.3-0.7,0.3-1.1
		s0.1-0.8,0.1-1.3c0-0.4,0-0.9-0.1-1.2c-0.1-0.4-0.2-0.7-0.3-1.1C114.7,87.6,114.5,87.3,114.2,87.1z M114.1,92.3
		c-0.2,0.4-0.5,0.6-1,0.6c-0.8,0-1.7-0.1-2.6-0.3v-4.2c1-0.4,1.8-0.6,2.6-0.6c0.9,0,1.3,0.8,1.3,2.5C114.4,91.3,114.3,92,114.1,92.3
		z"/>
	<path class="st4" d="M122.2,92.7c-0.6,0.1-1.5,0.1-2.7,0.1c-0.1,0-0.2,0-0.3,0s-0.2,0-0.3,0c-0.5,0-0.9-0.1-1-0.4
		c-0.2-0.3-0.3-0.8-0.3-1.6h2.9c1.2,0,1.8-0.5,1.8-1.6c0-0.6-0.1-1-0.2-1.3c-0.1-0.3-0.3-0.6-0.6-0.7c-0.3-0.2-0.5-0.3-0.8-0.3
		c-0.3,0-0.6-0.1-1.1-0.1c-0.6,0-1.1,0-1.4,0.1s-0.6,0.2-0.9,0.5s-0.5,0.6-0.6,1.1c-0.1,0.5-0.2,1.1-0.2,1.8c0,1.4,0.2,2.3,0.5,2.8
		c0.3,0.5,0.9,0.8,1.8,0.8c1.3,0,2.4-0.1,3.3-0.4V92.7z M117.6,89c0-0.2,0.1-0.4,0.2-0.6s0.2-0.3,0.3-0.4c0.1-0.1,0.2-0.1,0.4-0.2
		c0.2,0,0.4-0.1,0.5-0.1c0.1,0,0.4,0,0.7,0c0.7,0,1.2,0.1,1.4,0.2c0.2,0.2,0.3,0.6,0.3,1.2c0,0.4-0.3,0.6-0.8,0.6h-2.9
		C117.6,89.5,117.6,89.2,117.6,89z"/>
	<path class="st4" d="M129.5,90.4c0-1.4-0.2-2.3-0.7-2.8s-1.2-0.8-2.4-0.8c-1.1,0-1.9,0.3-2.4,0.8c-0.4,0.5-0.7,1.5-0.7,2.9
		c0,1.3,0.2,2.1,0.7,2.7c0.4,0.5,1.2,0.8,2.4,0.8c1.2,0,2-0.2,2.4-0.7C129.3,92.6,129.5,91.7,129.5,90.4z M128.5,91.8
		c-0.1,0.3-0.2,0.6-0.4,0.7s-0.4,0.3-0.6,0.3c-0.2,0-0.5,0.1-0.9,0.1c-0.4,0-0.7,0-0.9-0.1c-0.2,0-0.4-0.1-0.6-0.3
		c-0.2-0.2-0.3-0.4-0.4-0.7s-0.1-0.8-0.1-1.4c0-0.5,0-0.9,0.1-1.2s0.1-0.6,0.2-0.8c0.1-0.2,0.2-0.3,0.4-0.4c0.2-0.1,0.4-0.2,0.6-0.2
		c0.2,0,0.5,0,0.8,0c0.4,0,0.8,0,1,0.1c0.2,0,0.4,0.2,0.6,0.3c0.2,0.2,0.3,0.4,0.4,0.8c0.1,0.4,0.1,0.8,0.1,1.5
		C128.6,91,128.5,91.4,128.5,91.8z"/>
	<path class="st4" d="M135.6,93.6c0.3-0.2,0.6-0.5,0.7-0.9c0.2-0.4,0.3-0.7,0.3-1.1s0.1-0.8,0.1-1.3c0-0.4,0-0.9-0.1-1.2
		c-0.1-0.4-0.2-0.7-0.3-1.1c-0.2-0.4-0.4-0.6-0.7-0.9c-0.3-0.2-0.7-0.3-1.1-0.3c-0.4,0-0.9,0.1-1.4,0.3c-0.5,0.2-0.9,0.4-1.1,0.5
		l-0.2-0.8H131v10.4h0.9v-3.9c0.4,0.2,0.8,0.3,1.3,0.4c0.5,0.1,0.9,0.1,1.2,0.1C134.9,93.9,135.3,93.8,135.6,93.6z M131.9,92.6v-4.2
		c1-0.4,1.8-0.6,2.6-0.6c0.9,0,1.3,0.8,1.3,2.5c0,1-0.1,1.7-0.3,2.1c-0.2,0.4-0.5,0.6-1,0.6C133.6,92.9,132.8,92.8,131.9,92.6z"/>
	<path class="st4" d="M138.2,91.3c0,1.6,0.6,2.5,1.7,2.5h1.1v-0.7c-0.1,0-0.4-0.1-1.2-0.3c-0.3-0.1-0.4-0.2-0.6-0.4
		c-0.1-0.2-0.2-0.6-0.2-1.1v-7.7h-1V91.3z"/>
	<path class="st4" d="M147.5,92.7c-0.6,0.1-1.5,0.1-2.7,0.1c-0.1,0-0.2,0-0.3,0s-0.2,0-0.3,0c-0.5,0-0.9-0.1-1-0.4
		c-0.2-0.3-0.3-0.8-0.3-1.6h2.9c1.2,0,1.8-0.5,1.8-1.6c0-0.6-0.1-1-0.2-1.3c-0.1-0.3-0.3-0.6-0.6-0.7c-0.3-0.2-0.5-0.3-0.8-0.3
		c-0.3,0-0.6-0.1-1.1-0.1c-0.6,0-1.1,0-1.4,0.1s-0.6,0.2-0.9,0.5s-0.5,0.6-0.6,1.1c-0.1,0.5-0.2,1.1-0.2,1.8c0,1.4,0.2,2.3,0.5,2.8
		c0.3,0.5,0.9,0.8,1.8,0.8c1.3,0,2.4-0.1,3.3-0.4V92.7z M142.9,89c0-0.2,0.1-0.4,0.2-0.6s0.2-0.3,0.3-0.4c0.1-0.1,0.2-0.1,0.4-0.2
		c0.2,0,0.4-0.1,0.5-0.1c0.1,0,0.4,0,0.7,0c0.7,0,1.2,0.1,1.4,0.2c0.2,0.2,0.3,0.6,0.3,1.2c0,0.4-0.3,0.6-0.8,0.6h-2.9
		C142.9,89.5,142.9,89.2,142.9,89z"/>
	<path class="st4" d="M149.5,92.4c-0.2,0-0.3,0.1-0.3,0.3v0.7c0,0.2,0.1,0.3,0.3,0.3h0.7c0.2,0,0.3-0.1,0.3-0.3v-0.7
		c0-0.2-0.1-0.3-0.3-0.3H149.5z"/>
	<path class="st4" d="M34.1,122.1c0.2-0.1,0.3-0.1,0.4-0.1c0.1,0,0.2-0.1,0.4-0.3s0.3-0.3,0.4-0.5c0.1-0.2,0.2-0.5,0.3-0.8
		c0.1-0.4,0.1-0.8,0.1-1.3c0-0.6-0.1-1.1-0.2-1.5c-0.1-0.4-0.3-0.8-0.6-1c-0.3-0.2-0.5-0.4-0.9-0.5s-0.7-0.2-1.1-0.2h-4.5v10.2h2
		v-4.1l1.7,0.2l1.7,3.9h2.2L34.1,122.1z M33.7,119.9c0,0.2-0.1,0.3-0.2,0.4c-0.1,0.1-0.2,0.2-0.3,0.2c-0.1,0-0.3,0-0.4,0h-2.3v-2.9
		h2.3c0.3,0,0.6,0.1,0.8,0.3c0.2,0.2,0.3,0.6,0.3,1.1C33.8,119.4,33.8,119.7,33.7,119.9z"/>
	<path class="st4" d="M43,124.5c-0.7,0.1-1.6,0.2-2.7,0.2c-0.4,0-0.7,0-0.9-0.1s-0.3-0.2-0.5-0.4c-0.1-0.2-0.2-0.5-0.2-1h2.4
		c0.7,0,1.2-0.1,1.6-0.4s0.5-0.8,0.5-1.4c0-0.3,0-0.7-0.1-0.9c0-0.3-0.1-0.5-0.2-0.7c-0.1-0.2-0.2-0.4-0.3-0.5
		c-0.1-0.1-0.3-0.2-0.4-0.3c-0.1-0.1-0.3-0.1-0.6-0.2s-0.5-0.1-0.7-0.1c-0.2,0-0.5,0-0.9,0c-0.5,0-0.9,0-1.3,0.1
		c-0.3,0.1-0.6,0.2-0.9,0.3c-0.3,0.1-0.5,0.4-0.6,0.7c-0.1,0.3-0.3,0.6-0.3,1.1c-0.1,0.4-0.1,1-0.1,1.6c0,0.7,0,1.3,0.1,1.8
		c0.1,0.5,0.2,0.9,0.4,1.2c0.2,0.3,0.4,0.5,0.7,0.7s0.7,0.2,1.2,0.2c1.8,0,3.1-0.1,3.8-0.4V124.5z M38.8,120.9
		c0-0.2,0.1-0.4,0.3-0.5s0.3-0.2,0.4-0.2c0.1,0,0.4,0,0.7,0c0.5,0,0.8,0.1,0.9,0.2c0.1,0.1,0.2,0.4,0.2,0.9c0,0.4-0.2,0.6-0.6,0.6
		h-1.9C38.7,121.4,38.7,121.1,38.8,120.9z"/>
	<path class="st4" d="M50.3,121c0-0.9-0.2-1.5-0.7-1.9c-0.5-0.4-1.1-0.5-2-0.5c-1.4,0-2.6,0.2-3.4,0.5v1.2c1.5-0.1,2.5-0.2,3.1-0.2
		c0.2,0,0.3,0,0.4,0c0.1,0,0.2,0.1,0.3,0.1c0.1,0.1,0.2,0.2,0.2,0.3c0,0.1,0.1,0.3,0.1,0.5c0,0,0,0.2,0,0.5c-0.4,0-0.7,0-1.1,0
		s-0.7,0-1.1,0c-0.4,0-0.7,0.1-1,0.2s-0.5,0.3-0.7,0.5s-0.3,0.4-0.4,0.6c-0.1,0.2-0.1,0.5-0.1,0.8v0.7c0,0.5,0.2,1,0.5,1.4
		c0.4,0.4,0.9,0.6,1.6,0.6c0.3,0,0.7-0.1,1.1-0.2c0.4-0.1,0.6-0.3,0.8-0.4c0.2-0.1,0.3-0.2,0.4-0.3l0.4,0.8h1.6V121z M48.4,124.1
		c-0.1,0-0.1,0.1-0.2,0.1c-0.1,0-0.1,0.1-0.2,0.1s-0.2,0.1-0.3,0.1c-0.1,0-0.2,0.1-0.3,0.1c-0.1,0-0.2,0.1-0.3,0.1s-0.2,0-0.3,0
		c-0.2,0-0.4,0-0.5-0.1c-0.1-0.1-0.2-0.3-0.2-0.6v-0.4c0-0.1,0-0.2,0-0.3c0-0.1,0-0.1,0.1-0.2c0-0.1,0.1-0.1,0.2-0.2
		c0.1-0.1,0.2-0.1,0.3-0.1l1.8-0.1V124.1z"/>
	<path class="st4" d="M51.5,123.5c0,0.5,0,0.9,0.1,1.2c0.1,0.3,0.2,0.6,0.4,0.8c0.2,0.2,0.4,0.3,0.6,0.4c0.2,0.1,0.5,0.1,0.8,0.1H55
		V125c-0.1,0-0.4-0.1-0.9-0.3c-0.2-0.1-0.4-0.2-0.5-0.4c-0.1-0.2-0.2-0.5-0.2-1v-8h-2V123.5z"/>
	<rect x="55.8" y="118.7" class="st4" width="2" height="7.4"/>
	<path class="st4" d="M56.1,116c-0.2,0-0.3,0.1-0.3,0.4v1.2c0,0.1,0,0.1,0,0.2c0,0.1,0.1,0.1,0.1,0.1s0.1,0,0.2,0h1.5
		c0.1,0,0.2,0,0.2-0.1c0.1-0.1,0.1-0.1,0.1-0.2v-1.2c0-0.2-0.1-0.4-0.3-0.4H56.1z"/>
	<path class="st4" d="M63.4,126.2V125c-0.1,0-0.4-0.1-0.9-0.3c-0.1-0.1-0.3-0.1-0.3-0.2c-0.1-0.1-0.2-0.2-0.2-0.4
		c-0.1-0.2-0.1-0.5-0.1-0.8v-3h1.7v-1.5h-1.7v-2.1h-1.6l-0.3,2.1l-1.2,0.4v1.1h1.2v3.3c0,0.9,0.2,1.6,0.5,2c0.3,0.4,0.8,0.6,1.3,0.6
		H63.4z"/>
	<path class="st4" d="M69,128.5l2.6-9.8h-2l-1.5,5.8c-0.1,0-0.1,0-0.2,0s-0.1,0-0.1,0s-0.1,0-0.1-0.1s-0.1-0.1-0.1-0.1
		c0,0-0.1-0.1-0.1-0.2c0-0.1-0.1-0.1-0.1-0.2l-1.3-5.2H64l1.5,5.5c0.3,1.3,1.1,1.9,2.2,1.9l-1.1,3.8H68L69,128.5z"/>
	<path class="st4" d="M74.3,124.2h-1.2c-0.2,0-0.3,0.1-0.3,0.3v1.3c0,0.1,0,0.2,0.1,0.2c0.1,0.1,0.1,0.1,0.2,0.1h1.2
		c0.2,0,0.4-0.1,0.4-0.3v-1.3C74.6,124.3,74.5,124.2,74.3,124.2z"/>
	<path class="st4" d="M74.6,119.1c0-0.2-0.1-0.3-0.4-0.3h-1.2c-0.2,0-0.3,0.1-0.3,0.3v1.3c0,0.1,0,0.2,0.1,0.2
		c0.1,0.1,0.1,0.1,0.2,0.1h1.2c0.2,0,0.4-0.1,0.4-0.3V119.1z"/>
	<path class="st4" d="M32.4,137.9c0.2,0,0.4,0,0.6,0c0.2,0,0.4-0.1,0.6-0.2s0.4-0.3,0.6-0.5c0.1-0.2,0.3-0.5,0.4-0.9
		c0.1-0.4,0.2-0.8,0.2-1.3c0-1.8-0.8-2.8-2.3-2.8h-3.9v9.5h1v-4.1c0,0,0.5,0.1,1.3,0.1C31.6,137.9,32.2,137.9,32.4,137.9z
		 M29.5,133.2h3c0.2,0,0.3,0,0.4,0c0.1,0,0.2,0.1,0.4,0.2c0.2,0.1,0.3,0.3,0.4,0.5c0.1,0.3,0.1,0.6,0.1,1c0,0.8-0.1,1.3-0.3,1.5
		c-0.2,0.3-0.5,0.4-1,0.4h-3V133.2z"/>
	<path class="st4" d="M41.6,137.3c0-0.6-0.1-1-0.2-1.3c-0.1-0.3-0.3-0.6-0.6-0.7c-0.3-0.2-0.5-0.3-0.8-0.3c-0.3,0-0.6-0.1-1.1-0.1
		c-0.6,0-1.1,0-1.4,0.1c-0.3,0.1-0.6,0.2-0.9,0.5c-0.3,0.2-0.5,0.6-0.6,1.1c-0.1,0.5-0.2,1.1-0.2,1.8c0,1.4,0.2,2.3,0.5,2.8
		c0.3,0.5,0.9,0.8,1.8,0.8c1.3,0,2.4-0.1,3.3-0.4v-0.7c-0.6,0.1-1.5,0.1-2.7,0.1c-0.1,0-0.2,0-0.3,0c-0.1,0-0.2,0-0.3,0
		c-0.5,0-0.9-0.1-1-0.4c-0.2-0.3-0.3-0.8-0.3-1.6h2.9C41,138.8,41.6,138.3,41.6,137.3z M37,137c0-0.2,0.1-0.4,0.2-0.6
		c0.1-0.2,0.2-0.3,0.3-0.4c0.1-0.1,0.2-0.1,0.4-0.2c0.2,0,0.4-0.1,0.5-0.1s0.4,0,0.7,0c0.7,0,1.2,0.1,1.4,0.2
		c0.2,0.2,0.3,0.6,0.3,1.2c0,0.4-0.3,0.6-0.8,0.6h-2.9C36.9,137.5,36.9,137.2,37,137z"/>
	<path class="st4" d="M43.4,141.1c0.4,0.5,1.2,0.8,2.4,0.8c1.2,0,2-0.2,2.4-0.7c0.4-0.5,0.7-1.4,0.7-2.7c0-1.4-0.2-2.3-0.7-2.8
		s-1.2-0.8-2.4-0.8c-1.1,0-1.9,0.3-2.4,0.8s-0.7,1.5-0.7,2.9C42.8,139.7,43,140.5,43.4,141.1z M43.8,137.2c0.1-0.3,0.1-0.6,0.2-0.8
		c0.1-0.2,0.2-0.3,0.4-0.4c0.2-0.1,0.4-0.2,0.6-0.2c0.2,0,0.4,0,0.8,0c0.4,0,0.8,0,1,0.1c0.2,0,0.4,0.2,0.6,0.3
		c0.2,0.2,0.3,0.4,0.4,0.8c0.1,0.4,0.1,0.8,0.1,1.5c0,0.6,0,1-0.1,1.3c-0.1,0.3-0.2,0.6-0.4,0.7c-0.2,0.2-0.4,0.3-0.6,0.3
		c-0.2,0-0.5,0.1-0.9,0.1c-0.4,0-0.7,0-0.9-0.1c-0.2,0-0.4-0.1-0.6-0.3c-0.2-0.2-0.3-0.4-0.4-0.7s-0.1-0.8-0.1-1.4
		C43.7,137.9,43.8,137.5,43.8,137.2z"/>
	<path class="st4" d="M51.2,141.3c0.4,0.2,0.8,0.3,1.3,0.4c0.5,0.1,0.9,0.1,1.2,0.1c0.5,0,0.9-0.1,1.2-0.3s0.6-0.5,0.7-0.9
		c0.2-0.4,0.3-0.7,0.3-1.1c0.1-0.4,0.1-0.8,0.1-1.3c0-0.4,0-0.9-0.1-1.2s-0.2-0.7-0.3-1.1c-0.2-0.4-0.4-0.6-0.7-0.9
		s-0.7-0.3-1.1-0.3c-0.4,0-0.9,0.1-1.4,0.3c-0.5,0.2-0.9,0.4-1.1,0.5l-0.2-0.8h-0.7v10.4h0.9V141.3z M51.2,136.3
		c1-0.4,1.8-0.6,2.6-0.6c0.9,0,1.3,0.8,1.3,2.5c0,1-0.1,1.7-0.3,2.1c-0.2,0.4-0.5,0.6-1,0.6c-0.8,0-1.7-0.1-2.6-0.3V136.3z"/>
	<path class="st4" d="M57.5,131.6v7.7c0,1.6,0.6,2.5,1.7,2.5h1.1v-0.7c-0.1,0-0.4-0.1-1.2-0.3c-0.3-0.1-0.4-0.2-0.6-0.4
		c-0.1-0.2-0.2-0.6-0.2-1.1v-7.7H57.5z"/>
	<path class="st4" d="M63.5,141.8c1.3,0,2.4-0.1,3.3-0.4v-0.7c-0.6,0.1-1.5,0.1-2.7,0.1c-0.1,0-0.2,0-0.3,0c-0.1,0-0.2,0-0.3,0
		c-0.5,0-0.9-0.1-1-0.4c-0.2-0.3-0.3-0.8-0.3-1.6h2.9c1.2,0,1.8-0.5,1.8-1.6c0-0.6-0.1-1-0.2-1.3c-0.1-0.3-0.3-0.6-0.6-0.7
		c-0.3-0.2-0.5-0.3-0.8-0.3c-0.3,0-0.6-0.1-1.1-0.1c-0.6,0-1.1,0-1.4,0.1c-0.3,0.1-0.6,0.2-0.9,0.5c-0.3,0.2-0.5,0.6-0.6,1.1
		c-0.1,0.5-0.2,1.1-0.2,1.8c0,1.4,0.2,2.3,0.5,2.8C62.1,141.6,62.7,141.8,63.5,141.8z M62.3,137c0-0.2,0.1-0.4,0.2-0.6
		c0.1-0.2,0.2-0.3,0.3-0.4c0.1-0.1,0.2-0.1,0.4-0.2c0.2,0,0.4-0.1,0.5-0.1s0.4,0,0.7,0c0.7,0,1.2,0.1,1.4,0.2
		c0.2,0.2,0.3,0.6,0.3,1.2c0,0.4-0.3,0.6-0.8,0.6h-2.9C62.2,137.5,62.2,137.2,62.3,137z"/>
	<path class="st4" d="M78.4,138.4c0-1.4-0.2-2.3-0.7-2.8s-1.2-0.8-2.4-0.8c-1.1,0-1.9,0.3-2.4,0.8s-0.7,1.5-0.7,2.9
		c0,1.3,0.2,2.1,0.7,2.7s1.2,0.8,2.4,0.8c1.2,0,2-0.2,2.4-0.7C78.2,140.6,78.4,139.7,78.4,138.4z M77.3,139.8
		c-0.1,0.3-0.2,0.6-0.4,0.7c-0.2,0.2-0.4,0.3-0.6,0.3c-0.2,0-0.5,0.1-0.9,0.1c-0.4,0-0.7,0-0.9-0.1c-0.2,0-0.4-0.1-0.6-0.3
		c-0.2-0.2-0.3-0.4-0.4-0.7s-0.1-0.8-0.1-1.4c0-0.5,0-0.9,0.1-1.2s0.1-0.6,0.2-0.8c0.1-0.2,0.2-0.3,0.4-0.4c0.2-0.1,0.4-0.2,0.6-0.2
		c0.2,0,0.4,0,0.8,0c0.4,0,0.8,0,1,0.1c0.2,0,0.4,0.2,0.6,0.3c0.2,0.2,0.3,0.4,0.4,0.8c0.1,0.4,0.1,0.8,0.1,1.5
		C77.4,139,77.4,139.4,77.3,139.8z"/>
	<path class="st4" d="M81.6,133.1c0-0.1,0-0.2,0.1-0.3s0.1-0.2,0.2-0.2c0.1-0.1,0.3-0.1,0.5-0.1c0,0,0,0,0,0l1.6,0v-0.6
		c-0.7-0.2-1.3-0.3-1.8-0.3c-0.3,0-0.5,0-0.8,0.1c-0.2,0.1-0.4,0.2-0.5,0.4c-0.1,0.1-0.2,0.3-0.2,0.5c-0.1,0.2-0.1,0.4-0.1,0.5
		c0,0.1,0,0.3,0,0.5v1.3l-1.3,0.2v0.7h1.3v5.9h1v-5.9h1.9v-1h-1.9v-1.3C81.5,133.4,81.5,133.2,81.6,133.1z"/>
	<path class="st4" d="M90.7,141.8c0.2,0,0.5,0,0.7-0.1s0.5-0.1,0.8-0.2c0.2-0.1,0.5-0.2,0.7-0.3c0.2-0.1,0.4-0.2,0.5-0.2l0.2-0.1
		l0.2,0.8h0.7v-5c0-0.7-0.2-1.2-0.5-1.5c-0.4-0.3-0.8-0.5-1.4-0.5c0,0,0,0,0,0c-1.4,0-2.5,0.1-3.4,0.4v0.7c1.4-0.1,2.5-0.2,3.3-0.2
		c0.7,0,1.1,0.4,1.1,1.1c0,0,0,0,0,0.1s0,0,0,0.1c0,0,0,0.1,0,0.1c0,0.2,0,0.4,0,0.6c-0.3,0-0.5,0-0.8,0c-0.6,0-1.3,0-2.1,0
		c-0.5,0-1,0.2-1.3,0.5c-0.3,0.3-0.5,0.7-0.5,1.3v0.8c0,0.5,0.2,1,0.5,1.3C89.8,141.7,90.2,141.8,90.7,141.8z M90,139.4
		c0-0.2,0.1-0.4,0.2-0.6c0.1-0.2,0.3-0.2,0.6-0.3l2.9-0.2v1.9l-0.5,0.2c-0.3,0.1-0.7,0.2-1.2,0.3c-0.5,0.1-0.9,0.2-1.2,0.2
		c-0.5,0-0.8-0.3-0.8-0.8V139.4z"/>
	<path class="st4" d="M97.7,141.8h1.1v-0.7c-0.1,0-0.4-0.1-1.2-0.3c-0.3-0.1-0.4-0.2-0.6-0.4c-0.1-0.2-0.2-0.6-0.2-1.1v-7.7h-1v7.7
		C96,140.9,96.6,141.8,97.7,141.8z"/>
	<path class="st4" d="M102.8,141.1c-0.1,0-0.4-0.1-1.2-0.3c-0.3-0.1-0.4-0.2-0.6-0.4c-0.1-0.2-0.2-0.6-0.2-1.1v-7.7h-1v7.7
		c0,1.6,0.6,2.5,1.7,2.5h1.1V141.1z"/>
	<path class="st4" d="M110.2,141.8c0.3-0.1,0.5-0.1,0.8-0.2c0.2-0.1,0.5-0.2,0.7-0.3c0.2-0.1,0.4-0.2,0.5-0.2l0.2-0.1l0.2,0.8h0.7
		v-5c0-0.7-0.2-1.2-0.5-1.5c-0.4-0.3-0.8-0.5-1.4-0.5c0,0,0,0,0,0c-1.4,0-2.5,0.1-3.4,0.4v0.7c1.4-0.1,2.5-0.2,3.3-0.2
		c0.7,0,1.1,0.4,1.1,1.1c0,0,0,0,0,0.1s0,0,0,0.1c0,0,0,0.1,0,0.1c0,0.2,0,0.4,0,0.6c-0.3,0-0.5,0-0.8,0c-0.6,0-1.3,0-2.1,0
		c-0.5,0-1,0.2-1.3,0.5c-0.3,0.3-0.5,0.7-0.5,1.3v0.8c0,0.5,0.2,1,0.5,1.3c0.3,0.3,0.7,0.5,1.2,0.5
		C109.7,141.8,110,141.8,110.2,141.8z M108.7,140.1v-0.7c0-0.2,0.1-0.4,0.2-0.6c0.1-0.2,0.3-0.2,0.6-0.3l2.9-0.2v1.9l-0.5,0.2
		c-0.3,0.1-0.7,0.2-1.2,0.3c-0.5,0.1-0.9,0.2-1.2,0.2C109,140.9,108.7,140.6,108.7,140.1z"/>
	<path class="st4" d="M120.9,134.8h-4.1c-0.7,0-1.3,0.2-1.7,0.6s-0.6,1-0.6,1.8c0,0.9,0.3,1.6,0.8,1.9c-0.3,0.1-0.4,0.2-0.6,0.4
		c-0.1,0.2-0.2,0.4-0.2,0.7c0,0.5,0.2,0.8,0.5,1.1l-0.5,0.8v1.1c0,0.7,0.2,1.2,0.6,1.5s0.9,0.5,1.5,0.5h1.9c0.4,0,0.7-0.1,1-0.2
		s0.5-0.3,0.6-0.5c0.1-0.2,0.2-0.4,0.3-0.6c0-0.2,0.1-0.4,0.1-0.7v-0.8c0-0.5-0.1-1-0.4-1.3c-0.3-0.3-0.7-0.5-1.2-0.5h-2.8
		c-0.4,0-0.5-0.1-0.5-0.4c0-0.3,0.2-0.4,0.5-0.4h2c0.4,0,0.8-0.1,1.1-0.3c0.3-0.2,0.5-0.4,0.7-0.7c0.1-0.3,0.2-0.6,0.3-0.8
		c0.1-0.3,0.1-0.5,0.1-0.7c0-0.2,0-0.3,0-0.5c0-0.1,0-0.3-0.1-0.4c0-0.1-0.1-0.2-0.1-0.2c0-0.1-0.1-0.1-0.1-0.2s-0.1-0.1-0.1-0.2
		l1.1-0.2V134.8z M115.6,141.5c0,0,0.1,0,0.2,0.1c0.1,0,0.2,0,0.3,0h2.6c0.4,0,0.6,0.1,0.7,0.2c0.1,0.1,0.2,0.4,0.2,0.7v0.8
		c0,0.7-0.3,1-1,1h-1.9c-0.7,0-1.1-0.3-1.1-1L115.6,141.5L115.6,141.5z M119.3,137.4c0,0.2,0,0.3-0.1,0.5s-0.1,0.3-0.2,0.5
		c-0.1,0.2-0.2,0.3-0.4,0.4c-0.2,0.1-0.4,0.1-0.6,0.1h-1.3c-0.2,0-0.4,0-0.6-0.1c-0.2-0.1-0.3-0.2-0.4-0.4s-0.1-0.3-0.2-0.5
		c0-0.2-0.1-0.3-0.1-0.5c0-1,0.4-1.5,1.3-1.5h1.2c0.5,0,0.8,0.1,1,0.4S119.3,136.8,119.3,137.4C119.3,137.3,119.3,137.3,119.3,137.4
		z"/>
	<path class="st4" d="M127.5,137.3c0-0.6-0.1-1-0.2-1.3c-0.1-0.3-0.3-0.6-0.6-0.7c-0.3-0.2-0.5-0.3-0.8-0.3c-0.3,0-0.6-0.1-1.1-0.1
		c-0.6,0-1.1,0-1.4,0.1s-0.6,0.2-0.9,0.5s-0.5,0.6-0.6,1.1c-0.1,0.5-0.2,1.1-0.2,1.8c0,1.4,0.2,2.3,0.5,2.8c0.3,0.5,0.9,0.8,1.8,0.8
		c1.3,0,2.4-0.1,3.3-0.4v-0.7c-0.6,0.1-1.5,0.1-2.7,0.1c-0.1,0-0.2,0-0.3,0s-0.2,0-0.3,0c-0.5,0-0.9-0.1-1-0.4
		c-0.2-0.3-0.3-0.8-0.3-1.6h2.9C126.9,138.8,127.5,138.3,127.5,137.3z M122.8,137c0-0.2,0.1-0.4,0.2-0.6s0.2-0.3,0.3-0.4
		c0.1-0.1,0.2-0.1,0.4-0.2c0.2,0,0.4-0.1,0.5-0.1c0.1,0,0.4,0,0.7,0c0.7,0,1.2,0.1,1.4,0.2c0.2,0.2,0.3,0.6,0.3,1.2
		c0,0.4-0.3,0.6-0.8,0.6h-2.9C122.8,137.5,122.8,137.2,122.8,137z"/>
	<path class="st4" d="M129.5,136.2c0-0.1,0-0.1,0.1-0.2c0-0.1,0.1-0.1,0.3-0.2c0.1,0,0.3-0.1,0.5-0.1h3.4V135
		c-1.4-0.1-2.6-0.2-3.4-0.2c-0.6,0-1.1,0.1-1.4,0.4c-0.3,0.3-0.4,0.7-0.4,1.3v0.6c0,0.7,0.1,1.1,0.4,1.3c0.3,0.2,0.7,0.4,1.4,0.4
		h2.1c0.3,0,0.5,0.1,0.6,0.2c0.1,0.1,0.2,0.3,0.2,0.5v0.6c0,0.1,0,0.3-0.1,0.4c-0.1,0.1-0.1,0.2-0.2,0.2c-0.1,0-0.2,0.1-0.2,0.1
		c-0.1,0-0.1,0-0.2,0c0,0,0,0-0.1,0h-3.6v0.7c1.6,0.2,2.8,0.2,3.6,0.2c0.5,0,0.9-0.1,1.2-0.4c0.3-0.2,0.5-0.7,0.5-1.3v-0.6
		c0-0.5-0.1-0.9-0.4-1.2c-0.3-0.3-0.7-0.5-1.3-0.5h-2.1c-0.1,0-0.3,0-0.3,0s-0.2,0-0.2-0.1c-0.1,0-0.1-0.1-0.2-0.2
		c0-0.1-0.1-0.2-0.1-0.4v-0.6C129.5,136.4,129.5,136.3,129.5,136.2z"/>
	<path class="st4" d="M144.8,140.7l-0.5,0c-0.3,0-0.8,0-1.3,0.1c-0.5,0-0.9,0-1.3,0c-0.5,0-0.8-0.2-1-0.5c-0.2-0.4-0.3-1-0.3-2
		c0-0.6,0-1.1,0.1-1.4c0.1-0.4,0.2-0.6,0.3-0.8s0.3-0.3,0.4-0.3c0.1,0,0.3-0.1,0.5-0.1c0.8,0,1.8,0,3,0.1v-0.7
		c-1.2-0.2-2.2-0.3-3-0.3c-0.4,0-0.7,0-0.9,0.1c-0.3,0.1-0.5,0.2-0.7,0.5s-0.4,0.6-0.5,1.1c-0.1,0.5-0.2,1.1-0.2,1.8
		c0,0.7,0.1,1.3,0.2,1.8c0.1,0.5,0.3,0.8,0.5,1.1s0.5,0.4,0.7,0.5c0.2,0.1,0.5,0.1,0.9,0.1c1.2,0,2.2-0.1,3.1-0.4V140.7z"/>
	<path class="st4" d="M147.6,141.8c0.2,0,0.5,0,0.7-0.1s0.5-0.1,0.8-0.2c0.2-0.1,0.5-0.2,0.7-0.3c0.2-0.1,0.4-0.2,0.5-0.2l0.2-0.1
		l0.2,0.8h0.7v-5c0-0.7-0.2-1.2-0.5-1.5c-0.4-0.3-0.8-0.5-1.4-0.5c0,0,0,0,0,0c-1.4,0-2.5,0.1-3.4,0.4v0.7c1.4-0.1,2.5-0.2,3.3-0.2
		c0.7,0,1.1,0.4,1.1,1.1c0,0,0,0,0,0.1s0,0,0,0.1c0,0,0,0.1,0,0.1c0,0.2,0,0.4,0,0.6c-0.3,0-0.5,0-0.8,0c-0.6,0-1.3,0-2.1,0
		c-0.5,0-1,0.2-1.3,0.5c-0.3,0.3-0.5,0.7-0.5,1.3v0.8c0,0.5,0.2,1,0.5,1.3C146.7,141.7,147.1,141.8,147.6,141.8z M146.8,139.4
		c0-0.2,0.1-0.4,0.2-0.6c0.1-0.2,0.3-0.2,0.6-0.3l2.9-0.2v1.9l-0.5,0.2c-0.3,0.1-0.7,0.2-1.2,0.3c-0.5,0.1-0.9,0.2-1.2,0.2
		c-0.5,0-0.8-0.3-0.8-0.8V139.4z"/>
	<path class="st4" d="M158.5,141.8V137c0-0.6-0.2-1.1-0.6-1.6s-0.9-0.7-1.6-0.7c-0.1,0-0.3,0-0.4,0c-0.1,0-0.2,0-0.3,0.1
		c-0.1,0-0.2,0.1-0.3,0.1c-0.1,0.1-0.2,0.1-0.3,0.1s-0.2,0.1-0.3,0.1c-0.1,0.1-0.2,0.1-0.3,0.1c0,0-0.1,0.1-0.3,0.2
		s-0.3,0.2-0.3,0.2l-0.3-0.8h-0.7v6.9h1v-5.3c0.4-0.2,0.7-0.3,0.9-0.4c0.2-0.1,0.4-0.1,0.7-0.2s0.6-0.1,0.9-0.1
		c0.3,0,0.6,0.1,0.8,0.3c0.2,0.2,0.3,0.5,0.3,0.9v4.8H158.5z"/>
	<path class="st4" d="M165.1,141c0.2,0.2,0.6,0.3,1.1,0.5c0.5,0.2,1,0.3,1.4,0.3c0.4,0,0.8-0.1,1.1-0.3c0.3-0.2,0.5-0.5,0.7-0.9
		c0.2-0.4,0.3-0.7,0.3-1.1c0.1-0.4,0.1-0.8,0.1-1.2c0-0.5,0-0.9-0.1-1.3c-0.1-0.4-0.2-0.8-0.3-1.1c-0.2-0.4-0.4-0.7-0.7-0.9
		s-0.7-0.3-1.2-0.3c-0.3,0-0.7,0-1.2,0.1c-0.5,0.1-0.9,0.2-1.3,0.4v-3.7h-0.9v10.2h0.7L165.1,141z M165.1,136.1
		c0.9-0.2,1.7-0.3,2.5-0.3c0.4,0,0.8,0.2,1,0.6c0.2,0.4,0.3,1.1,0.3,2.1c0,1.7-0.4,2.5-1.3,2.5c-0.7,0-1.6-0.2-2.5-0.6V136.1z"/>
	<path class="st4" d="M176.9,137.3c0-0.6-0.1-1-0.2-1.3c-0.1-0.3-0.3-0.6-0.6-0.7c-0.3-0.2-0.5-0.3-0.8-0.3c-0.3,0-0.6-0.1-1.1-0.1
		c-0.6,0-1.1,0-1.4,0.1c-0.3,0.1-0.6,0.2-0.9,0.5c-0.3,0.2-0.5,0.6-0.6,1.1c-0.1,0.5-0.2,1.1-0.2,1.8c0,1.4,0.2,2.3,0.5,2.8
		c0.3,0.5,0.9,0.8,1.8,0.8c1.3,0,2.4-0.1,3.3-0.4v-0.7c-0.6,0.1-1.5,0.1-2.7,0.1c-0.1,0-0.2,0-0.3,0c-0.1,0-0.2,0-0.3,0
		c-0.5,0-0.9-0.1-1-0.4c-0.2-0.3-0.3-0.8-0.3-1.6h2.9C176.3,138.8,176.9,138.3,176.9,137.3z M172.2,137c0-0.2,0.1-0.4,0.2-0.6
		c0.1-0.2,0.2-0.3,0.3-0.4c0.1-0.1,0.2-0.1,0.4-0.2c0.2,0,0.4-0.1,0.5-0.1s0.4,0,0.7,0c0.7,0,1.2,0.1,1.4,0.2
		c0.2,0.2,0.3,0.6,0.3,1.2c0,0.4-0.3,0.6-0.8,0.6h-2.9C172.2,137.5,172.2,137.2,172.2,137z"/>
	<rect x="28.5" y="150.5" class="st4" width="1" height="6.9"/>
	<path class="st4" d="M29.7,149.3v-0.7c0-0.2-0.1-0.3-0.3-0.3h-0.7c-0.2,0-0.3,0.1-0.3,0.3v0.7c0,0.2,0.1,0.3,0.3,0.3h0.7
		C29.6,149.6,29.7,149.5,29.7,149.3z"/>
	<path class="st4" d="M35.4,151.6c0.2,0.2,0.3,0.5,0.3,0.9v4.8h1v-4.8c0-0.6-0.2-1.1-0.6-1.6c-0.4-0.4-0.9-0.6-1.6-0.6
		c-0.1,0-0.3,0-0.4,0c-0.1,0-0.2,0-0.3,0.1c-0.1,0-0.2,0.1-0.3,0.1s-0.2,0.1-0.3,0.1s-0.2,0.1-0.3,0.1c-0.1,0.1-0.2,0.1-0.3,0.1
		s-0.1,0.1-0.3,0.2c-0.2,0.1-0.3,0.2-0.3,0.2l-0.3-0.8h-0.7v6.9h1V152c0.4-0.2,0.7-0.3,0.9-0.4c0.2-0.1,0.4-0.1,0.7-0.2
		c0.3-0.1,0.6-0.1,0.9-0.1C34.9,151.3,35.2,151.4,35.4,151.6z"/>
	<path class="st4" d="M39.9,148.7c0-0.1,0-0.2,0.1-0.3c0-0.1,0.1-0.2,0.2-0.2c0.1-0.1,0.3-0.1,0.5-0.1c0,0,0,0,0,0l1.6,0v-0.6
		c-0.7-0.2-1.3-0.3-1.8-0.3c-0.3,0-0.5,0-0.8,0.1c-0.2,0.1-0.4,0.2-0.5,0.4c-0.1,0.1-0.2,0.3-0.2,0.5c-0.1,0.2-0.1,0.4-0.1,0.5
		c0,0.1,0,0.3,0,0.5v1.3l-1.3,0.2v0.7h1.3v5.9h1v-5.9h1.9v-1h-1.9v-1.3C39.9,149,39.9,148.8,39.9,148.7z"/>
	<path class="st4" d="M48.8,156.3c-0.6,0.1-1.5,0.1-2.7,0.1c-0.1,0-0.2,0-0.3,0s-0.2,0-0.3,0c-0.5,0-0.9-0.1-1-0.4
		c-0.2-0.3-0.3-0.8-0.3-1.6h2.9c1.2,0,1.8-0.5,1.8-1.6c0-0.6-0.1-1-0.2-1.3c-0.1-0.3-0.3-0.6-0.6-0.7s-0.5-0.3-0.8-0.3
		c-0.3,0-0.6-0.1-1.1-0.1c-0.6,0-1.1,0-1.4,0.1c-0.3,0.1-0.6,0.2-0.9,0.5s-0.5,0.6-0.6,1.1c-0.1,0.5-0.2,1.1-0.2,1.8
		c0,1.4,0.2,2.3,0.5,2.8s0.9,0.8,1.8,0.8c1.3,0,2.4-0.1,3.3-0.4V156.3z M44.2,152.6c0-0.2,0.1-0.4,0.2-0.6c0.1-0.2,0.2-0.3,0.3-0.4
		s0.2-0.1,0.4-0.2s0.4-0.1,0.5-0.1c0.1,0,0.4,0,0.7,0c0.7,0,1.2,0.1,1.4,0.2c0.2,0.2,0.3,0.6,0.3,1.2c0,0.4-0.3,0.6-0.8,0.6h-2.9
		C44.2,153.1,44.2,152.8,44.2,152.6z"/>
	<path class="st4" d="M55.4,156.3l-0.5,0c-0.3,0-0.8,0-1.3,0.1c-0.5,0-0.9,0-1.3,0c-0.5,0-0.8-0.2-1-0.5c-0.2-0.4-0.3-1-0.3-2
		c0-0.6,0-1.1,0.1-1.4s0.2-0.6,0.3-0.8c0.1-0.2,0.3-0.3,0.4-0.3c0.1,0,0.3-0.1,0.5-0.1c0.8,0,1.8,0,3,0.1v-0.7
		c-1.2-0.2-2.2-0.3-3-0.3c-0.4,0-0.7,0-0.9,0.1c-0.3,0.1-0.5,0.2-0.7,0.5c-0.2,0.2-0.4,0.6-0.5,1.1c-0.1,0.5-0.2,1.1-0.2,1.8
		c0,0.7,0.1,1.3,0.2,1.8s0.3,0.8,0.5,1.1c0.2,0.2,0.5,0.4,0.7,0.5c0.2,0.1,0.5,0.1,0.9,0.1c1.2,0,2.2-0.1,3.1-0.4V156.3z"/>
	<path class="st4" d="M60.4,151.4v-1h-2v-1.9h-0.7l-0.2,1.9l-1.3,0.2v0.7h1.3v3.5c0,1.6,0.6,2.5,1.7,2.5h1.1v-0.7
		c-0.1,0-0.4-0.1-1.2-0.3c-0.3-0.1-0.4-0.2-0.6-0.4c-0.1-0.2-0.2-0.6-0.2-1.1v-3.5H60.4z"/>
	<path class="st4" d="M63.7,157.4c1.3,0,2.4-0.1,3.3-0.4v-0.7c-0.6,0.1-1.5,0.1-2.7,0.1c-0.1,0-0.2,0-0.3,0s-0.2,0-0.3,0
		c-0.5,0-0.9-0.1-1-0.4c-0.2-0.3-0.3-0.8-0.3-1.6h2.9c1.2,0,1.8-0.5,1.8-1.6c0-0.6-0.1-1-0.2-1.3c-0.1-0.3-0.3-0.6-0.6-0.7
		s-0.5-0.3-0.8-0.3c-0.3,0-0.6-0.1-1.1-0.1c-0.6,0-1.1,0-1.4,0.1c-0.3,0.1-0.6,0.2-0.9,0.5s-0.5,0.6-0.6,1.1
		c-0.1,0.5-0.2,1.1-0.2,1.8c0,1.4,0.2,2.3,0.5,2.8S62.9,157.4,63.7,157.4z M62.5,152.6c0-0.2,0.1-0.4,0.2-0.6
		c0.1-0.2,0.2-0.3,0.3-0.4s0.2-0.1,0.4-0.2s0.4-0.1,0.5-0.1c0.1,0,0.4,0,0.7,0c0.7,0,1.2,0.1,1.4,0.2c0.2,0.2,0.3,0.6,0.3,1.2
		c0,0.4-0.3,0.6-0.8,0.6h-2.9C62.4,153.1,62.4,152.8,62.5,152.6z"/>
	<path class="st4" d="M68.7,156.3c0.2,0.4,0.4,0.6,0.7,0.9s0.7,0.3,1.1,0.3c0.4,0,0.9-0.1,1.4-0.3c0.5-0.2,0.9-0.4,1.1-0.5l0.3,0.8
		h0.7v-10.2h-0.9v3.7c-0.4-0.2-0.8-0.3-1.3-0.4c-0.5-0.1-0.9-0.1-1.2-0.1c-0.5,0-0.9,0.1-1.2,0.3c-0.3,0.2-0.5,0.5-0.7,0.9
		c-0.2,0.4-0.3,0.7-0.3,1.1s-0.1,0.8-0.1,1.3c0,0.4,0,0.9,0.1,1.2S68.6,155.9,68.7,156.3z M69.6,151.9c0.2-0.4,0.5-0.6,1-0.6
		c0.8,0,1.7,0.1,2.5,0.3v4.2c-1,0.4-1.8,0.6-2.5,0.6c-0.9,0-1.3-0.8-1.3-2.5C69.3,152.9,69.4,152.3,69.6,151.9z"/>
	<path class="st4" d="M84.5,157.1c0.3-0.2,0.5-0.5,0.7-0.9s0.3-0.7,0.3-1.1c0.1-0.4,0.1-0.8,0.1-1.2c0-0.5,0-0.9-0.1-1.3
		s-0.2-0.7-0.3-1.1c-0.2-0.4-0.4-0.7-0.7-0.9c-0.3-0.2-0.7-0.3-1.2-0.3c-0.3,0-0.7,0-1.2,0.1c-0.5,0.1-0.9,0.2-1.3,0.4v-3.7h-0.9
		v10.2h0.7l0.3-0.8c0.2,0.2,0.6,0.3,1.1,0.5c0.5,0.2,1,0.3,1.4,0.3C83.8,157.4,84.2,157.3,84.5,157.1z M80.8,155.9v-4.2
		c0.9-0.2,1.7-0.3,2.5-0.3c0.4,0,0.8,0.2,1,0.6c0.2,0.4,0.3,1.1,0.3,2.1c0,1.7-0.4,2.5-1.3,2.5C82.6,156.5,81.8,156.3,80.8,155.9z"
		/>
	<path class="st4" d="M93.2,150.5h-1.1l-2,5.9c0,0-0.1,0-0.2,0c-0.1,0-0.3,0-0.4-0.1s-0.2-0.2-0.3-0.4l-1.7-5.4h-1.1l1.7,5.5
		c0.3,1,0.8,1.4,1.6,1.4l-1.2,3.5h0.6l1-1.3L93.2,150.5z"/>
	<path class="st4" d="M102.2,151.4v-1h-2v-1.9h-0.7l-0.2,1.9l-1.3,0.2v0.7h1.3v3.5c0,1.6,0.6,2.5,1.7,2.5h1.1v-0.7
		c-0.1,0-0.4-0.1-1.2-0.3c-0.3-0.1-0.4-0.2-0.6-0.4c-0.1-0.2-0.2-0.6-0.2-1.1v-3.5H102.2z"/>
	<path class="st4" d="M109,157.4v-4.8c0-0.6-0.2-1.1-0.6-1.6c-0.4-0.4-0.9-0.6-1.6-0.6c-0.1,0-0.3,0-0.4,0c-0.1,0-0.2,0-0.3,0.1
		c-0.1,0-0.2,0.1-0.3,0.1s-0.2,0.1-0.3,0.1s-0.2,0.1-0.3,0.1c-0.1,0.1-0.2,0.1-0.3,0.1s-0.1,0.1-0.3,0.2c-0.2,0.1-0.3,0.2-0.3,0.2
		v-4.1h-1v10.2h1V152c0.4-0.2,0.7-0.3,0.9-0.4c0.2-0.1,0.4-0.1,0.7-0.2c0.3-0.1,0.6-0.1,0.9-0.1c0.4,0,0.6,0.1,0.9,0.3
		c0.2,0.2,0.3,0.5,0.3,0.9v4.8H109z"/>
	<path class="st4" d="M116,152.9c0-0.6-0.1-1-0.2-1.3c-0.1-0.3-0.3-0.6-0.6-0.7s-0.5-0.3-0.8-0.3c-0.3,0-0.6-0.1-1.1-0.1
		c-0.6,0-1.1,0-1.4,0.1c-0.3,0.1-0.6,0.2-0.9,0.5c-0.3,0.2-0.5,0.6-0.6,1.1s-0.2,1.1-0.2,1.8c0,1.4,0.2,2.3,0.5,2.8s0.9,0.8,1.8,0.8
		c1.3,0,2.4-0.1,3.3-0.4v-0.7c-0.6,0.1-1.5,0.1-2.7,0.1c-0.1,0-0.2,0-0.3,0c-0.1,0-0.2,0-0.3,0c-0.5,0-0.9-0.1-1-0.4
		c-0.2-0.3-0.3-0.8-0.3-1.6h2.9C115.4,154.4,116,153.9,116,152.9z M111.3,152.6c0-0.2,0.1-0.4,0.2-0.6c0.1-0.2,0.2-0.3,0.3-0.4
		c0.1-0.1,0.2-0.1,0.4-0.2c0.2,0,0.4-0.1,0.5-0.1s0.4,0,0.7,0c0.7,0,1.2,0.1,1.4,0.2s0.3,0.6,0.3,1.2c0,0.4-0.3,0.6-0.8,0.6h-2.9
		C111.3,153.1,111.3,152.8,111.3,152.6z"/>
	<path class="st4" d="M127.2,157.4v-4.8c0-0.6-0.2-1.1-0.6-1.6c-0.4-0.4-0.9-0.6-1.6-0.6c-0.1,0-0.3,0-0.4,0c-0.1,0-0.2,0-0.3,0.1
		c-0.1,0-0.2,0.1-0.3,0.1s-0.2,0.1-0.3,0.1s-0.2,0.1-0.3,0.1c-0.1,0.1-0.2,0.1-0.3,0.1c0,0-0.1,0.1-0.3,0.2s-0.3,0.2-0.3,0.2
		l-0.3-0.8h-0.7v6.9h1V152c0.4-0.2,0.7-0.3,0.9-0.4c0.2-0.1,0.4-0.1,0.7-0.2s0.6-0.1,0.9-0.1c0.3,0,0.6,0.1,0.8,0.3
		c0.2,0.2,0.3,0.5,0.3,0.9v4.8H127.2z"/>
	<path class="st4" d="M134.1,152.9c0-0.6-0.1-1-0.2-1.3c-0.1-0.3-0.3-0.6-0.6-0.7s-0.5-0.3-0.8-0.3c-0.3,0-0.6-0.1-1.1-0.1
		c-0.6,0-1.1,0-1.4,0.1c-0.3,0.1-0.6,0.2-0.9,0.5s-0.5,0.6-0.6,1.1c-0.1,0.5-0.2,1.1-0.2,1.8c0,1.4,0.2,2.3,0.5,2.8s0.9,0.8,1.8,0.8
		c1.3,0,2.4-0.1,3.3-0.4v-0.7c-0.6,0.1-1.5,0.1-2.7,0.1c-0.1,0-0.2,0-0.3,0s-0.2,0-0.3,0c-0.5,0-0.9-0.1-1-0.4
		c-0.2-0.3-0.3-0.8-0.3-1.6h2.9C133.5,154.4,134.1,153.9,134.1,152.9z M129.5,152.6c0-0.2,0.1-0.4,0.2-0.6c0.1-0.2,0.2-0.3,0.3-0.4
		s0.2-0.1,0.4-0.2s0.4-0.1,0.5-0.1c0.1,0,0.4,0,0.7,0c0.7,0,1.2,0.1,1.4,0.2c0.2,0.2,0.3,0.6,0.3,1.2c0,0.4-0.3,0.6-0.8,0.6h-2.9
		C129.4,153.1,129.4,152.8,129.5,152.6z"/>
	<polygon class="st4" points="138.5,157.4 139.7,154 141.2,157.4 142.1,157.4 144.8,150.5 143.7,150.5 141.6,155.9 140.1,152.7 
		140.8,150.5 139.8,150.5 138,155.9 135.9,150.5 134.9,150.5 137.5,157.4 	"/>
	<path class="st4" d="M29.1,172.4c0.2,0.2,0.5,0.4,0.7,0.5c0.2,0.1,0.5,0.1,0.9,0.1c1.2,0,2.2-0.1,3.1-0.4v-0.7l-0.5,0
		c-0.3,0-0.8,0-1.3,0.1c-0.5,0-0.9,0-1.3,0c-0.5,0-0.8-0.2-1-0.5c-0.2-0.4-0.3-1-0.3-2c0-0.6,0-1.1,0.1-1.4s0.2-0.6,0.3-0.8
		c0.1-0.2,0.3-0.3,0.4-0.3c0.1,0,0.3-0.1,0.5-0.1c0.8,0,1.8,0,3,0.1v-0.7c-1.2-0.2-2.2-0.3-3-0.3c-0.4,0-0.7,0-0.9,0.1
		c-0.3,0.1-0.5,0.2-0.7,0.5c-0.2,0.2-0.4,0.6-0.5,1.1c-0.1,0.5-0.2,1.1-0.2,1.8c0,0.7,0.1,1.3,0.2,1.8
		C28.7,171.8,28.8,172.2,29.1,172.4z"/>
	<path class="st4" d="M37.9,173c1.2,0,2-0.2,2.4-0.7s0.7-1.4,0.7-2.7c0-1.4-0.2-2.3-0.7-2.8s-1.2-0.8-2.4-0.8
		c-1.1,0-1.9,0.3-2.4,0.8c-0.4,0.5-0.7,1.5-0.7,2.9c0,1.3,0.2,2.1,0.7,2.7C36,172.8,36.8,173,37.9,173z M35.9,168.4
		c0.1-0.3,0.1-0.6,0.2-0.8s0.2-0.3,0.4-0.4c0.2-0.1,0.4-0.2,0.6-0.2c0.2,0,0.5,0,0.8,0c0.4,0,0.8,0,1,0.1c0.2,0,0.4,0.2,0.6,0.3
		c0.2,0.2,0.3,0.4,0.4,0.8c0.1,0.4,0.1,0.8,0.1,1.5c0,0.6,0,1-0.1,1.3c-0.1,0.3-0.2,0.6-0.4,0.7c-0.2,0.2-0.4,0.3-0.6,0.3
		c-0.2,0-0.5,0.1-0.9,0.1c-0.4,0-0.7,0-0.9-0.1c-0.2,0-0.4-0.1-0.6-0.3c-0.2-0.2-0.3-0.4-0.4-0.7s-0.1-0.8-0.1-1.4
		C35.9,169.1,35.9,168.7,35.9,168.4z"/>
	<path class="st4" d="M43.4,167.7c0.4-0.2,0.7-0.4,0.9-0.4s0.4-0.2,0.7-0.2s0.6-0.1,0.9-0.1c0.4,0,0.8,0,1,0.1v-0.9
		c-0.1-0.1-0.5-0.1-1-0.1c-0.1,0-0.3,0-0.4,0c-0.1,0-0.3,0-0.4,0.1c-0.1,0-0.3,0.1-0.4,0.1c-0.1,0-0.2,0.1-0.4,0.2s-0.3,0.1-0.3,0.2
		c-0.1,0-0.2,0.1-0.4,0.2c-0.2,0.1-0.3,0.2-0.3,0.2l-0.3-0.9h-0.7v6.9h1V167.7z"/>
	<path class="st4" d="M50.9,173c1.2,0,2-0.2,2.4-0.7s0.7-1.4,0.7-2.7c0-1.4-0.2-2.3-0.7-2.8S52,166,50.9,166c-1.1,0-1.9,0.3-2.4,0.8
		c-0.4,0.5-0.7,1.5-0.7,2.9c0,1.3,0.2,2.1,0.7,2.7C48.9,172.8,49.7,173,50.9,173z M48.9,168.4c0.1-0.3,0.1-0.6,0.2-0.8
		s0.2-0.3,0.4-0.4c0.2-0.1,0.4-0.2,0.6-0.2c0.2,0,0.5,0,0.8,0c0.4,0,0.8,0,1,0.1c0.2,0,0.4,0.2,0.6,0.3c0.2,0.2,0.3,0.4,0.4,0.8
		c0.1,0.4,0.1,0.8,0.1,1.5c0,0.6,0,1-0.1,1.3c-0.1,0.3-0.2,0.6-0.4,0.7c-0.2,0.2-0.4,0.3-0.6,0.3c-0.2,0-0.5,0.1-0.9,0.1
		c-0.4,0-0.7,0-0.9-0.1c-0.2,0-0.4-0.1-0.6-0.3c-0.2-0.2-0.3-0.4-0.4-0.7s-0.1-0.8-0.1-1.4C48.8,169.1,48.8,168.7,48.9,168.4z"/>
	<path class="st4" d="M61,173v-4.8c0-0.6-0.2-1.1-0.6-1.6c-0.4-0.4-0.9-0.6-1.6-0.6c-0.1,0-0.3,0-0.4,0c-0.1,0-0.2,0-0.3,0.1
		c-0.1,0-0.2,0.1-0.3,0.1s-0.2,0.1-0.3,0.1s-0.2,0.1-0.3,0.1c-0.1,0.1-0.2,0.1-0.3,0.1c0,0-0.1,0.1-0.3,0.2s-0.3,0.2-0.3,0.2
		l-0.3-0.8h-0.7v6.9h1v-5.3c0.4-0.2,0.7-0.3,0.9-0.4c0.2-0.1,0.4-0.1,0.7-0.2s0.6-0.1,0.9-0.1c0.3,0,0.6,0.1,0.8,0.3
		c0.2,0.2,0.3,0.5,0.3,0.9v4.8H61z"/>
	<path class="st4" d="M63.9,173c0.2,0,0.5,0,0.7-0.1s0.5-0.1,0.8-0.2s0.5-0.2,0.7-0.3c0.2-0.1,0.4-0.2,0.5-0.2l0.2-0.1L67,173h0.7
		v-5c0-0.7-0.2-1.2-0.5-1.5c-0.4-0.3-0.8-0.5-1.4-0.5c0,0,0,0,0,0c-1.4,0-2.5,0.1-3.4,0.4v0.7c1.4-0.1,2.5-0.2,3.3-0.2
		c0.7,0,1.1,0.4,1.1,1.1c0,0,0,0,0,0.1s0,0,0,0.1s0,0.1,0,0.1c0,0.2,0,0.4,0,0.6c-0.3,0-0.5,0-0.8,0c-0.6,0-1.3,0-2.1,0
		c-0.5,0-1,0.2-1.3,0.5c-0.3,0.3-0.5,0.7-0.5,1.3v0.8c0,0.5,0.2,1,0.5,1.3C63,172.9,63.4,173,63.9,173z M63.1,170.6
		c0-0.2,0.1-0.4,0.2-0.6s0.3-0.2,0.6-0.3l2.9-0.2v1.9l-0.5,0.2c-0.3,0.1-0.7,0.2-1.2,0.3c-0.5,0.1-0.9,0.2-1.2,0.2
		c-0.5,0-0.8-0.3-0.8-0.8V170.6z"/>
	<polygon class="st4" points="72.3,173 75.1,166.1 74,166.1 71.8,171.5 69.7,166.1 68.6,166.1 71.4,173 	"/>
	<path class="st4" d="M77.3,164.9v-0.7c0-0.2-0.1-0.3-0.3-0.3h-0.7c-0.2,0-0.3,0.1-0.3,0.3v0.7c0,0.2,0.1,0.3,0.3,0.3H77
		C77.2,165.2,77.3,165.1,77.3,164.9z"/>
	<rect x="76.1" y="166.1" class="st4" width="1" height="6.9"/>
	<path class="st4" d="M79.6,167.7c0.4-0.2,0.7-0.4,0.9-0.4s0.4-0.2,0.7-0.2s0.6-0.1,0.9-0.1c0.4,0,0.8,0,1,0.1v-0.9
		c-0.1-0.1-0.5-0.1-1-0.1c-0.1,0-0.3,0-0.4,0c-0.1,0-0.3,0-0.4,0.1c-0.1,0-0.3,0.1-0.4,0.1c-0.1,0-0.2,0.1-0.4,0.2s-0.3,0.1-0.3,0.2
		c-0.1,0-0.2,0.1-0.4,0.2c-0.2,0.1-0.3,0.2-0.3,0.2l-0.3-0.9h-0.7v6.9h1V167.7z"/>
	<path class="st4" d="M86.2,173.1c0.1,0,0.3,0,0.4,0c0.1,0,0.2,0,0.3-0.1s0.2-0.1,0.3-0.1c0.1-0.1,0.2-0.1,0.3-0.1
		c0.1,0,0.2-0.1,0.3-0.1c0.1-0.1,0.2-0.1,0.3-0.1s0.1-0.1,0.3-0.2c0.2-0.1,0.3-0.2,0.3-0.2l0.3,0.8h0.7v-6.9h-1v5.3
		c-0.4,0.2-0.7,0.3-0.9,0.4s-0.4,0.1-0.7,0.2c-0.3,0.1-0.6,0.1-0.9,0.1c-0.3,0-0.6-0.1-0.8-0.3c-0.2-0.2-0.3-0.5-0.3-0.9v-4.8h-1
		v4.8c0,0.6,0.2,1.1,0.6,1.6C85,172.9,85.6,173.1,86.2,173.1z"/>
	<path class="st4" d="M95.5,171.7c-0.1,0.1-0.1,0.2-0.2,0.2c-0.1,0-0.2,0.1-0.2,0.1c-0.1,0-0.1,0-0.2,0c0,0,0,0-0.1,0h-3.6v0.7
		c1.6,0.2,2.8,0.2,3.6,0.2c0.5,0,0.9-0.1,1.2-0.4c0.3-0.2,0.5-0.7,0.5-1.3v-0.6c0-0.5-0.1-0.9-0.4-1.2s-0.7-0.5-1.3-0.5h-2.1
		c-0.1,0-0.3,0-0.3,0c-0.1,0-0.2,0-0.2-0.1c-0.1,0-0.1-0.1-0.2-0.2c0-0.1-0.1-0.2-0.1-0.4v-0.6c0-0.1,0-0.2,0-0.3
		c0-0.1,0-0.1,0.1-0.2s0.1-0.1,0.3-0.2c0.1,0,0.3-0.1,0.5-0.1h3.4v-0.7c-1.4-0.1-2.6-0.2-3.4-0.2c-0.6,0-1.1,0.1-1.4,0.4
		s-0.4,0.7-0.4,1.3v0.6c0,0.6,0.1,1.1,0.4,1.3c0.3,0.2,0.7,0.4,1.4,0.4h2.1c0.3,0,0.5,0.1,0.6,0.2c0.1,0.1,0.2,0.3,0.2,0.5v0.6
		C95.6,171.5,95.6,171.6,95.5,171.7z"/>
	<path class="st4" d="M98.5,171.6c-0.2,0-0.3,0.1-0.3,0.3v0.7c0,0.2,0.1,0.3,0.3,0.3h0.7c0.2,0,0.3-0.1,0.3-0.3v-0.7
		c0-0.2-0.1-0.3-0.3-0.3H98.5z"/>
</g>
</svg>
