<?xml version="1.0" encoding="utf-8"?>
<!-- Generator: Adobe Illustrator 23.0.3, SVG Export Plug-In . SVG Version: 6.00 Build 0)  -->
<svg version="1.1" id="Layer_1" xmlns="http://www.w3.org/2000/svg" xmlns:xlink="http://www.w3.org/1999/xlink" x="0px" y="0px"
	 viewBox="0 0 512 250" style="enable-background:new 0 0 512 250;" xml:space="preserve">
<style type="text/css">
	.st0{fill:none;}
	.st1{fill:#E2ECF1;}
	.st2{fill:#A4C2D1;}
	.st3{fill:#80A8BB;}
	.st4{fill:#000640;}
	.st5{fill:#2A3C58;}
	.st6{fill:#EF413E;}
	.st7{fill:#475B76;}
	.st8{fill:#F2F2F2;}
	.st9{fill:#F3D6B5;}
	.st10{fill:#FDD7BA;}
	.st11{fill:#FFFFFF;}
	.st12{fill:#CFD0D3;}
	.st13{fill:#A1A3A6;}
	.st14{fill:#D8E2E5;}
	.st15{fill:#464642;}
	.st16{fill:#24231E;}
	.st17{fill:#010101;}
	.st18{fill:#401312;}
	.st19{fill:#B37D57;}
	.st20{fill:#C3895E;}
	.st21{fill:#7F8342;}
	.st22{fill:#1C2B44;}
	.st23{fill:#E0A577;}
	.st24{fill:#CE976E;}
	.st25{fill:#3B384D;}
	.st26{fill:#B22E2A;}
	.st27{fill:#6F4434;}
	.st28{fill:#3E3E3E;}
	.st29{fill:#616262;}
	.st30{fill:#575858;}
	.st31{fill:#482D23;}
	.st32{fill:#674031;}
	.st33{fill:#553528;}
	.st34{fill:#91732B;}
	.st35{fill:#D7A929;}
	.st36{fill:#0F7790;}
	.st37{fill:#AEAEAE;}
	.st38{fill:#F8983F;}
	.st39{fill:#E57E25;}
	.st40{fill:#A6832E;}
	.st41{fill:#D0AD50;}
	.st42{fill:#818181;}
	.st43{fill:#A3A3A2;}
	.st44{fill:#0CAACC;}
	.st45{fill:#814F3D;}
	.st46{fill:#BDBDBD;}
	.st47{fill:#FAAB62;}
	.st48{fill:#97663A;}
	.st49{fill:#744E2C;}
</style>
<g>
	<path class="st0" d="M65.1,92.7c0.5-0.1,0.9-0.2,1.2-0.3l0.5-0.2v-1.9l-2.9,0.2c-0.3,0-0.5,0.1-0.6,0.3c-0.1,0.2-0.2,0.3-0.2,0.6
		v0.7c0,0.5,0.3,0.8,0.8,0.8C64.2,92.9,64.6,92.8,65.1,92.7z"/>
	<path class="st0" d="M89.8,156.1c0.2,0.2,0.4,0.3,0.6,0.3c0.2,0,0.5,0.1,0.9,0.1c0.4,0,0.7,0,0.9-0.1c0.2,0,0.4-0.1,0.6-0.3
		c0.2-0.2,0.3-0.4,0.4-0.7c0.1-0.3,0.1-0.8,0.1-1.3c0-0.6,0-1.1-0.1-1.5c-0.1-0.4-0.2-0.6-0.4-0.8s-0.4-0.3-0.6-0.3
		c-0.2,0-0.5-0.1-1-0.1c-0.3,0-0.6,0-0.8,0s-0.4,0.1-0.6,0.2c-0.2,0.1-0.3,0.2-0.4,0.4c-0.1,0.2-0.2,0.4-0.2,0.8s-0.1,0.7-0.1,1.2
		c0,0.6,0,1,0.1,1.4S89.6,155.9,89.8,156.1z"/>
	<path class="st0" d="M80.8,75.2c-0.1,0.2-0.2,0.3-0.2,0.6v0.6c0,0.5,0.3,0.8,0.8,0.8c0.3,0,0.7-0.1,1.2-0.2s0.9-0.2,1.2-0.3
		l0.5-0.2v-1.9L81.4,75C81.2,75,81,75.1,80.8,75.2z"/>
	<path class="st0" d="M65.5,187.3c0.2,0.2,0.4,0.3,0.6,0.3c0.2,0,0.5,0.1,0.9,0.1c0.4,0,0.7,0,0.9-0.1c0.2,0,0.4-0.1,0.6-0.3
		c0.2-0.2,0.3-0.4,0.4-0.7c0.1-0.3,0.1-0.8,0.1-1.3c0-0.6,0-1.1-0.1-1.5c-0.1-0.4-0.2-0.6-0.4-0.8s-0.4-0.3-0.6-0.3
		c-0.2,0-0.5-0.1-1-0.1c-0.3,0-0.6,0-0.8,0c-0.2,0-0.4,0.1-0.6,0.2s-0.3,0.2-0.4,0.4c-0.1,0.2-0.2,0.4-0.2,0.8s-0.1,0.7-0.1,1.2
		c0,0.6,0,1,0.1,1.4S65.3,187.1,65.5,187.3z"/>
	<path class="st0" d="M98.2,72.6c-0.2-0.2-0.4-0.3-0.6-0.3c-0.2,0-0.5-0.1-1-0.1c-0.3,0-0.6,0-0.8,0s-0.4,0.1-0.6,0.2
		c-0.2,0.1-0.3,0.2-0.4,0.4c-0.1,0.2-0.2,0.4-0.2,0.8s-0.1,0.7-0.1,1.2c0,0.6,0,1,0.1,1.4s0.2,0.6,0.4,0.7c0.2,0.2,0.4,0.3,0.6,0.3
		c0.2,0,0.5,0.1,0.9,0.1c0.4,0,0.7,0,0.9-0.1c0.2,0,0.4-0.1,0.6-0.3c0.2-0.2,0.3-0.4,0.4-0.7c0.1-0.3,0.1-0.8,0.1-1.3
		c0-0.6,0-1.1-0.1-1.5C98.5,73,98.4,72.7,98.2,72.6z"/>
	<path class="st0" d="M82.3,29.8c0.2-0.3,0.4-0.6,0.4-1.1c0-0.2,0-0.4-0.1-0.5c0-0.2-0.1-0.3-0.2-0.4c-0.1-0.1-0.2-0.2-0.2-0.3
		s-0.2-0.1-0.3-0.2s-0.2-0.1-0.3-0.1c-0.1,0-0.2,0-0.3,0h-2.8v3h2.8C81.7,30.2,82,30,82.3,29.8z"/>
	<path class="st0" d="M90.3,103.8c-0.2-0.2-0.4-0.3-0.6-0.3c-0.2,0-0.5-0.1-1-0.1c-0.3,0-0.6,0-0.8,0s-0.4,0.1-0.6,0.2
		c-0.2,0.1-0.3,0.2-0.4,0.4c-0.1,0.2-0.2,0.4-0.2,0.8s-0.1,0.7-0.1,1.2c0,0.6,0,1,0.1,1.4s0.2,0.6,0.4,0.7c0.2,0.2,0.4,0.3,0.6,0.3
		c0.2,0,0.5,0.1,0.9,0.1c0.4,0,0.7,0,0.9-0.1c0.2,0,0.4-0.1,0.6-0.3c0.2-0.2,0.3-0.4,0.4-0.7c0.1-0.3,0.1-0.8,0.1-1.3
		c0-0.6,0-1.1-0.1-1.5C90.6,104.2,90.5,103.9,90.3,103.8z"/>
	<path class="st0" d="M82.8,34.2c0-0.3,0-0.7-0.1-0.9c-0.1-0.3-0.2-0.5-0.5-0.7c-0.2-0.2-0.5-0.3-0.8-0.3h-2.9v3.6l2.9,0
		C82.3,35.9,82.8,35.3,82.8,34.2z"/>
	<path class="st0" d="M38.9,72.2c-0.2,0-0.4,0.1-0.6,0.2c-0.2,0.1-0.3,0.2-0.4,0.4c-0.1,0.2-0.2,0.4-0.2,0.8s-0.1,0.7-0.1,1.2
		c0,0.6,0,1,0.1,1.4s0.2,0.6,0.4,0.7c0.2,0.2,0.4,0.3,0.6,0.3c0.2,0,0.5,0.1,0.9,0.1c0.4,0,0.7,0,0.9-0.1c0.2,0,0.4-0.1,0.6-0.3
		c0.2-0.2,0.3-0.4,0.4-0.7c0.1-0.3,0.1-0.8,0.1-1.3c0-0.6,0-1.1-0.1-1.5c-0.1-0.4-0.2-0.6-0.4-0.8s-0.4-0.3-0.6-0.3
		c-0.2,0-0.5-0.1-1-0.1C39.3,72.2,39,72.2,38.9,72.2z"/>
	<path class="st0" d="M60,153.9c0.1,0.2,0.2,0.3,0.4,0.4s0.4,0.1,0.6,0.1h1.3c0.2,0,0.4,0,0.6-0.1c0.2-0.1,0.3-0.2,0.4-0.4
		c0.1-0.2,0.2-0.3,0.2-0.5c0-0.2,0.1-0.3,0.1-0.5c0,0,0-0.1,0-0.1c0-0.5-0.1-0.9-0.3-1.1c-0.2-0.2-0.5-0.4-1-0.4H61
		c-0.9,0-1.3,0.5-1.3,1.5c0,0.2,0,0.4,0.1,0.5C59.8,153.6,59.9,153.7,60,153.9z"/>
	<path class="st0" d="M62.8,75.2c-0.1,0.2-0.2,0.3-0.2,0.6v0.6c0,0.5,0.3,0.8,0.8,0.8c0.3,0,0.7-0.1,1.2-0.2s0.9-0.2,1.2-0.3
		l0.5-0.2v-1.9L63.4,75C63.1,75,62.9,75.1,62.8,75.2z"/>
	<path class="st0" d="M33,171.5c0.2-0.4,0.3-1.1,0.3-2.1c0-1.7-0.4-2.5-1.3-2.5c-0.7,0-1.6,0.2-2.6,0.6v4.2c0.9,0.2,1.7,0.3,2.6,0.3
		C32.5,172.1,32.8,171.9,33,171.5z"/>
	<path class="st0" d="M68.6,106.4c-0.1,0.2-0.2,0.3-0.2,0.6v0.6c0,0.5,0.3,0.8,0.8,0.8c0.3,0,0.7-0.1,1.2-0.2s0.9-0.2,1.2-0.3
		l0.5-0.2V106l-2.9,0.2C69,106.2,68.8,106.3,68.6,106.4z"/>
	<path class="st0" d="M62.8,159.9c0.7,0,1-0.3,1-1v-0.8c0-0.3-0.1-0.6-0.2-0.7c-0.1-0.1-0.4-0.2-0.7-0.2h-2.6c-0.1,0-0.2,0-0.3,0
		c-0.1,0-0.2,0-0.2-0.1l-0.1,0v1.8c0,0.7,0.4,1,1.1,1H62.8z"/>
	<path class="st0" d="M131.6,73.7c0-0.7-0.1-1.1-0.3-1.2c-0.2-0.2-0.7-0.2-1.4-0.2c-0.3,0-0.5,0-0.7,0c-0.1,0-0.3,0-0.5,0.1
		c-0.2,0-0.3,0.1-0.4,0.2c-0.1,0.1-0.2,0.2-0.3,0.4c-0.1,0.2-0.1,0.4-0.2,0.6c0,0.2,0,0.5,0,0.9h2.9
		C131.3,74.3,131.6,74.1,131.6,73.7z"/>
	<path class="st0" d="M71.8,156.5c0.3,0,0.7-0.1,1.2-0.2s0.9-0.2,1.2-0.3l0.5-0.2V154l-2.9,0.2c-0.3,0-0.5,0.1-0.6,0.3
		c-0.1,0.2-0.2,0.3-0.2,0.6v0.6C71.1,156.2,71.3,156.5,71.8,156.5z"/>
	<path class="st0" d="M45.8,168.5c0-0.7-0.1-1.1-0.3-1.2c-0.2-0.2-0.7-0.2-1.4-0.2c-0.3,0-0.5,0-0.7,0c-0.1,0-0.3,0-0.5,0.1
		c-0.2,0-0.3,0.1-0.4,0.2c-0.1,0.1-0.2,0.2-0.3,0.4c-0.1,0.2-0.1,0.4-0.2,0.6c0,0.2,0,0.5,0,0.9H45
		C45.6,169.1,45.8,168.9,45.8,168.5z"/>
	<path class="st0" d="M105.7,77.3c0.7,0,1.6-0.2,2.5-0.6v-4.2c-0.9-0.2-1.7-0.3-2.5-0.3c-0.5,0-0.8,0.2-1,0.6
		c-0.2,0.4-0.3,1.1-0.3,2.1C104.4,76.4,104.9,77.3,105.7,77.3z"/>
	<path class="st0" d="M111,108.5c0.3,0,0.7-0.1,1.2-0.2s0.9-0.2,1.2-0.3l0.5-0.2V106l-2.9,0.2c-0.3,0-0.5,0.1-0.6,0.3
		c-0.1,0.2-0.2,0.3-0.2,0.6v0.6C110.2,108.2,110.5,108.5,111,108.5z"/>
	<path class="st0" d="M109.7,153.9c0-1-0.1-1.7-0.3-2.1c-0.2-0.4-0.5-0.6-1-0.6c-0.8,0-1.7,0.1-2.5,0.3v4.2c1,0.4,1.8,0.6,2.5,0.6
		C109.3,156.5,109.7,155.6,109.7,153.9z"/>
	<path class="st0" d="M121.5,89.3c0-0.7-0.1-1.1-0.3-1.2c-0.2-0.2-0.7-0.2-1.4-0.2c-0.3,0-0.5,0-0.7,0c-0.1,0-0.3,0-0.5,0.1
		c-0.2,0-0.3,0.1-0.4,0.2c-0.1,0.1-0.2,0.2-0.3,0.4c-0.1,0.2-0.1,0.4-0.2,0.6c0,0.2,0,0.5,0,0.9h2.9
		C121.2,89.9,121.5,89.7,121.5,89.3z"/>
	<path class="st0" d="M117.7,30.7c-0.2-0.2-0.5-0.3-1.1-0.3c-0.4,0-0.7,0-0.9,0s-0.4,0.1-0.5,0.3s-0.3,0.4-0.3,0.6s-0.1,0.7-0.1,1.2
		h2.4c0.5,0,0.8-0.2,0.8-0.7C118,31.2,117.9,30.9,117.7,30.7z"/>
	<path class="st0" d="M107.1,105.9c0-1-0.1-1.7-0.3-2.1c-0.2-0.4-0.5-0.6-1-0.6c-0.8,0-1.7,0.1-2.5,0.3v4.2c1,0.4,1.8,0.6,2.5,0.6
		C106.7,108.5,107.1,107.6,107.1,105.9z"/>
	<path class="st0" d="M116,156l0.5-0.2V154l-2.9,0.2c-0.3,0-0.5,0.1-0.6,0.3c-0.1,0.2-0.2,0.3-0.2,0.6v0.6c0,0.5,0.3,0.8,0.8,0.8
		c0.3,0,0.7-0.1,1.2-0.2S115.7,156.1,116,156z"/>
	<path class="st0" d="M159.9,87.7c-0.8,0-1.7,0.1-2.5,0.3v4.2c1,0.4,1.8,0.6,2.5,0.6c0.9,0,1.3-0.8,1.3-2.5c0-1-0.1-1.7-0.3-2.1
		C160.7,87.9,160.4,87.7,159.9,87.7z"/>
	<path class="st0" d="M149.7,73.7c0-0.7-0.1-1.1-0.3-1.2c-0.2-0.2-0.7-0.2-1.4-0.2c-0.3,0-0.5,0-0.7,0c-0.1,0-0.3,0-0.5,0.1
		c-0.2,0-0.3,0.1-0.4,0.2c-0.1,0.1-0.2,0.2-0.3,0.4c-0.1,0.2-0.1,0.4-0.2,0.6c0,0.2,0,0.5,0,0.9h2.9
		C149.4,74.3,149.7,74.1,149.7,73.7z"/>
	<path class="st0" d="M142.2,88.2c-0.2-0.2-0.4-0.3-0.6-0.3c-0.2,0-0.5-0.1-1-0.1c-0.3,0-0.6,0-0.8,0c-0.2,0-0.4,0.1-0.6,0.2
		s-0.3,0.2-0.4,0.4c-0.1,0.2-0.2,0.4-0.2,0.8s-0.1,0.7-0.1,1.2c0,0.6,0,1,0.1,1.4s0.2,0.6,0.4,0.7c0.2,0.2,0.4,0.3,0.6,0.3
		c0.2,0,0.5,0.1,0.9,0.1c0.4,0,0.7,0,0.9-0.1c0.2,0,0.4-0.1,0.6-0.3c0.2-0.2,0.3-0.4,0.4-0.7c0.1-0.3,0.1-0.8,0.1-1.3
		c0-0.6,0-1.1-0.1-1.5C142.6,88.6,142.4,88.3,142.2,88.2z"/>
	<path class="st0" d="M137.6,171.7c0.2,0.2,0.4,0.3,0.6,0.3c0.2,0,0.5,0.1,0.9,0.1c0.4,0,0.7,0,0.9-0.1c0.2,0,0.4-0.1,0.6-0.3
		c0.2-0.2,0.3-0.4,0.4-0.7c0.1-0.3,0.1-0.8,0.1-1.3c0-0.6,0-1.1-0.1-1.5c-0.1-0.4-0.2-0.6-0.4-0.8s-0.4-0.3-0.6-0.3
		c-0.2,0-0.5-0.1-1-0.1c-0.3,0-0.6,0-0.8,0s-0.4,0.1-0.6,0.2c-0.2,0.1-0.3,0.2-0.4,0.4c-0.1,0.2-0.2,0.4-0.2,0.8s-0.1,0.7-0.1,1.2
		c0,0.6,0,1,0.1,1.4S137.4,171.5,137.6,171.7z"/>
	<path class="st0" d="M137.2,156.5c0.7,0,1.6-0.2,2.5-0.6v-4.2c-0.9-0.2-1.7-0.3-2.5-0.3c-0.5,0-0.8,0.2-1,0.6
		c-0.2,0.4-0.3,1.1-0.3,2.1C135.9,155.6,136.3,156.5,137.2,156.5z"/>
	<path class="st0" d="M150.5,171.7c0.2,0.2,0.4,0.3,0.6,0.3c0.2,0,0.5,0.1,0.9,0.1c0.4,0,0.7,0,0.9-0.1c0.2,0,0.4-0.1,0.6-0.3
		c0.2-0.2,0.3-0.4,0.4-0.7c0.1-0.3,0.1-0.8,0.1-1.3c0-0.6,0-1.1-0.1-1.5c-0.1-0.4-0.2-0.6-0.4-0.8s-0.4-0.3-0.6-0.3
		c-0.2,0-0.5-0.1-1-0.1c-0.3,0-0.6,0-0.8,0s-0.4,0.1-0.6,0.2c-0.2,0.1-0.3,0.2-0.4,0.4c-0.1,0.2-0.2,0.4-0.2,0.8s-0.1,0.7-0.1,1.2
		c0,0.6,0,1,0.1,1.4S150.3,171.5,150.5,171.7z"/>
	<path class="st0" d="M37.5,156.5c0.3,0,0.7-0.1,1.2-0.2s0.9-0.2,1.2-0.3l0.5-0.2V154l-2.9,0.2c-0.3,0-0.5,0.1-0.6,0.3
		c-0.1,0.2-0.2,0.3-0.2,0.6v0.6C36.7,156.2,37,156.5,37.5,156.5z"/>
	<path class="st0" d="M49.3,92.5c0.2,0.2,0.4,0.3,0.6,0.3c0.2,0,0.5,0.1,0.9,0.1c0.4,0,0.7,0,0.9-0.1c0.2,0,0.4-0.1,0.6-0.3
		c0.2-0.2,0.3-0.4,0.4-0.7c0.1-0.3,0.1-0.8,0.1-1.3c0-0.6,0-1.1-0.1-1.5c-0.1-0.4-0.2-0.6-0.4-0.8s-0.4-0.3-0.6-0.3
		c-0.2,0-0.5-0.1-1-0.1c-0.3,0-0.6,0-0.8,0c-0.2,0-0.4,0.1-0.6,0.2s-0.3,0.2-0.4,0.4c-0.1,0.2-0.2,0.4-0.2,0.8s-0.1,0.7-0.1,1.2
		c0,0.6,0,1,0.1,1.4S49.1,92.3,49.3,92.5z"/>
	<path class="st0" d="M47.9,184.1c0-0.7-0.1-1.1-0.3-1.2c-0.2-0.2-0.7-0.2-1.4-0.2c-0.3,0-0.5,0-0.7,0c-0.1,0-0.3,0-0.5,0.1
		c-0.2,0-0.3,0.1-0.4,0.2c-0.1,0.1-0.2,0.2-0.3,0.4c-0.1,0.2-0.1,0.4-0.2,0.6c0,0.2,0,0.5,0,0.9h2.9
		C47.7,184.7,47.9,184.5,47.9,184.1z"/>
	<path class="st0" d="M39.5,88.2c-0.2-0.2-0.4-0.3-0.6-0.3c-0.2,0-0.5-0.1-1-0.1c-0.3,0-0.6,0-0.8,0c-0.2,0-0.4,0.1-0.6,0.2
		s-0.3,0.2-0.4,0.4c-0.1,0.2-0.2,0.4-0.2,0.8s-0.1,0.7-0.1,1.2c0,0.6,0,1,0.1,1.4s0.2,0.6,0.4,0.7c0.2,0.2,0.4,0.3,0.6,0.3
		c0.2,0,0.5,0.1,0.9,0.1c0.4,0,0.7,0,0.9-0.1c0.2,0,0.4-0.1,0.6-0.3c0.2-0.2,0.3-0.4,0.4-0.7C40,91.4,40,91,40,90.4
		c0-0.6,0-1.1-0.1-1.5C39.9,88.6,39.7,88.3,39.5,88.2z"/>
	<path class="st0" d="M94.6,168.5c0-0.7-0.1-1.1-0.3-1.2c-0.2-0.2-0.7-0.2-1.4-0.2c-0.3,0-0.5,0-0.7,0c-0.1,0-0.3,0-0.5,0.1
		c-0.2,0-0.3,0.1-0.4,0.2c-0.1,0.1-0.2,0.2-0.3,0.4c-0.1,0.2-0.1,0.4-0.2,0.6c0,0.2,0,0.5,0,0.9h2.9
		C94.4,169.1,94.6,168.9,94.6,168.5z"/>
	<path class="st0" d="M34.3,106.4c-0.1,0.2-0.2,0.3-0.2,0.6v0.6c0,0.5,0.3,0.8,0.8,0.8c0.3,0,0.7-0.1,1.2-0.2s0.9-0.2,1.2-0.3
		l0.5-0.2V106l-2.9,0.2C34.7,106.2,34.5,106.3,34.3,106.4z"/>
	<path class="st0" d="M59.6,168.5c0-0.7-0.1-1.1-0.3-1.2c-0.2-0.2-0.7-0.2-1.4-0.2c-0.3,0-0.5,0-0.7,0c-0.1,0-0.3,0-0.5,0.1
		c-0.2,0-0.3,0.1-0.4,0.2c-0.1,0.1-0.2,0.2-0.3,0.4c-0.1,0.2-0.1,0.4-0.2,0.6c0,0.2,0,0.5,0,0.9h2.9
		C59.4,169.1,59.6,168.9,59.6,168.5z"/>
	<path class="st0" d="M33.2,136.1c0.1,0,0.2-0.1,0.3-0.2s0.2-0.3,0.2-0.4c0-0.2,0.1-0.4,0.1-0.7c0-0.5-0.1-0.9-0.3-1.1
		s-0.4-0.3-0.8-0.3h-2.3v2.9h2.3C32.9,136.1,33.1,136.1,33.2,136.1z"/>
	<path class="st0" d="M48.4,138.3l-1.8,0.1c-0.1,0-0.2,0-0.3,0.1c-0.1,0.1-0.1,0.1-0.2,0.2c0,0.1-0.1,0.1-0.1,0.2c0,0.1,0,0.2,0,0.3
		v0.4c0,0.3,0.1,0.5,0.2,0.6c0.1,0.1,0.3,0.1,0.5,0.1c0.1,0,0.2,0,0.3,0c0.1,0,0.2-0.1,0.3-0.1c0.1,0,0.2-0.1,0.3-0.1
		s0.2-0.1,0.3-0.1s0.2-0.1,0.2-0.1s0.1-0.1,0.2-0.1V138.3z"/>
	<path class="st0" d="M112.8,168.5c0-0.7-0.1-1.1-0.3-1.2c-0.2-0.2-0.7-0.2-1.4-0.2c-0.3,0-0.5,0-0.7,0c-0.1,0-0.3,0-0.5,0.1
		c-0.2,0-0.3,0.1-0.4,0.2c-0.1,0.1-0.2,0.2-0.3,0.4c-0.1,0.2-0.1,0.4-0.2,0.6c0,0.2,0,0.5,0,0.9h2.9
		C112.5,169.1,112.8,168.9,112.8,168.5z"/>
	<path class="st0" d="M41.2,136.9c0-0.5-0.1-0.8-0.2-0.9c-0.1-0.1-0.4-0.2-0.9-0.2c-0.3,0-0.5,0-0.7,0s-0.3,0.1-0.4,0.2
		c-0.1,0.1-0.2,0.3-0.3,0.5c0,0.2-0.1,0.5,0,0.9h1.9C41,137.4,41.2,137.3,41.2,136.9z"/>
	<path class="st0" d="M57.4,105.9c0.1,0.2,0.2,0.3,0.4,0.4s0.4,0.1,0.6,0.1h1.3c0.2,0,0.4,0,0.6-0.1c0.2-0.1,0.3-0.2,0.4-0.4
		c0.1-0.2,0.2-0.3,0.2-0.5c0-0.2,0.1-0.3,0.1-0.5c0,0,0-0.1,0-0.1c0-0.5-0.1-0.9-0.3-1.1c-0.2-0.2-0.5-0.4-1-0.4h-1.2
		c-0.9,0-1.3,0.5-1.3,1.5c0,0.2,0,0.4,0.1,0.5C57.2,105.6,57.3,105.7,57.4,105.9z"/>
	<path class="st0" d="M386.8,128.6c1.5,0.2,3.1,0.2,4.6,0c0.7-0.1,1.5-0.2,2.2-0.4c0.6-0.2,1.5-0.7,2.1-0.7c2-0.9,3.8-2.2,4.9-4
		s1.5-4.2,0.7-6.1c-0.1-0.2-0.1-0.3-0.3-0.4c-0.2-0.1-0.4-0.1-0.7-0.1c-0.8,0-1.5-0.3-2.2-0.7l-12.4,12.4
		C386.2,128.5,386.5,128.6,386.8,128.6z"/>
	<path class="st0" d="M393.5,115.9c-5.2,3.6-10.5,6.9-15.9,9.7c1.5,0.5,3,1.1,4.4,1.7L393.5,115.9z"/>
	<path class="st0" d="M178.9,151.8c-0.2-0.2-0.4-0.3-0.6-0.3c-0.2,0-0.5-0.1-1-0.1c-0.3,0-0.6,0-0.8,0s-0.4,0.1-0.6,0.2
		c-0.2,0.1-0.3,0.2-0.4,0.4c-0.1,0.2-0.2,0.4-0.2,0.8s-0.1,0.7-0.1,1.2c0,0.6,0,1,0.1,1.4s0.2,0.6,0.4,0.7c0.2,0.2,0.4,0.3,0.6,0.3
		c0.2,0,0.5,0.1,0.9,0.1c0.4,0,0.7,0,0.9-0.1c0.2,0,0.4-0.1,0.6-0.3c0.2-0.2,0.3-0.4,0.4-0.7c0.1-0.3,0.1-0.8,0.1-1.3
		c0-0.6,0-1.1-0.1-1.5C179.2,152.2,179.1,151.9,178.9,151.8z"/>
	<path class="st0" d="M154.2,152.9c0-0.7-0.1-1.1-0.3-1.2c-0.2-0.2-0.7-0.2-1.4-0.2c-0.3,0-0.5,0-0.7,0c-0.1,0-0.3,0-0.5,0.1
		c-0.2,0-0.3,0.1-0.4,0.2c-0.1,0.1-0.2,0.2-0.3,0.4c-0.1,0.2-0.1,0.4-0.2,0.6c0,0.2,0,0.5,0,0.9h2.9
		C154,153.5,154.2,153.3,154.2,152.9z"/>
	<path class="st0" d="M165,172.1c0.3,0,0.7-0.1,1.2-0.2s0.9-0.2,1.2-0.3l0.5-0.2v-1.9l-2.9,0.2c-0.3,0-0.5,0.1-0.6,0.3
		c-0.1,0.2-0.2,0.3-0.2,0.6v0.6C164.2,171.8,164.5,172.1,165,172.1z"/>
	<path class="st0" d="M289.7,142.6v1.2c0.8-0.5,1.7-0.8,2.8-0.8c2.1,0,3.9,1.3,4.7,3.1c2.4-2.8,6-4.7,10-4.7c0.6,0,1.2,0,1.8,0.1
		c0.6-2.4,1.9-4.5,3.7-6.2c-8-2.3-15.7-6.2-22.9-11.7V142.6z"/>
	<path class="st0" d="M146.8,151.8c-0.2-0.2-0.4-0.3-0.6-0.3c-0.2,0-0.5-0.1-1-0.1c-0.3,0-0.6,0-0.8,0s-0.4,0.1-0.6,0.2
		c-0.2,0.1-0.3,0.2-0.4,0.4c-0.1,0.2-0.2,0.4-0.2,0.8s-0.1,0.7-0.1,1.2c0,0.6,0,1,0.1,1.4s0.2,0.6,0.4,0.7c0.2,0.2,0.4,0.3,0.6,0.3
		c0.2,0,0.5,0.1,0.9,0.1c0.4,0,0.7,0,0.9-0.1c0.2,0,0.4-0.1,0.6-0.3c0.2-0.2,0.3-0.4,0.4-0.7c0.1-0.3,0.1-0.8,0.1-1.3
		c0-0.6,0-1.1-0.1-1.5C147.1,152.2,147,151.9,146.8,151.8z"/>
	<path class="st0" d="M391.6,205.3c-0.2-0.4-0.3-0.9-0.3-1.4v-1.5v-1.2c-2.9,0.5-5.8,0.8-8.9,0.8h-53.3c-3,0-6-0.3-8.9-0.8v1.2v1.5
		c0,0.5-0.1,1-0.3,1.4c10.8-0.2,22.9-0.3,35.8-0.3S380.9,205.1,391.6,205.3z"/>
	<path class="st0" d="M60.2,111.9c0.7,0,1-0.3,1-1v-0.8c0-0.3-0.1-0.6-0.2-0.7c-0.1-0.1-0.4-0.2-0.7-0.2h-2.6c-0.1,0-0.2,0-0.3,0
		c-0.1,0-0.2,0-0.2-0.1l-0.1,0v1.8c0,0.7,0.4,1,1.1,1H60.2z"/>
	<path class="st1" d="M512,114.9V88.8c-2.6,0.1-5.2,0.1-8-0.1c-23.2-1.8-42.8-16-64.9-22.6c-13.4-4-28-3.6-39.2,3.6
		c-3.1,2-5.9,4.4-8.4,7.2c0.1,0.4,0.2,0.9,0.2,1.4c0,0.4-0.1,0.8-0.2,1.2c0.8,0.6,1.5,1.3,2.2,2.1c0.2-0.4,0.4-0.7,0.6-1.1
		c0.1-0.1,0.2-0.2,0.3-0.3c-0.6-0.2-1-0.8-1-1.4c0-0.8,0.7-1.5,1.5-1.5c0.8,0,1.5,0.6,1.5,1.4c0.9-0.3,1.8-0.5,2.8-0.3
		c2,0.3,3.8,2.5,4.9,4c0.9,1.3,1.5,2.8,2,4.3c0.7,1.8,1.3,3.6,1.6,5.5c0.4,2.8,0,5.7-1.2,8.3c-0.7-2.2-2.4-3.9-4.2-5.3
		c-0.8-0.7-1.7-1.3-2.6-1.9c-0.4-0.3-0.9-0.6-1.3-0.9c0.9,6.5-1.3,13.1-4.6,19c-1.1,1.9-2.2,3.7-3.8,5.2c-1.6,1.5-3.6,2.6-5.7,2.8
		c0.2-0.3,0.4-0.7,0.6-1c-0.9,0.4-1.9,0.8-2.9,1.1c-2,0.6-4.1,1-6.2,1.2c-0.4,0-0.9,0.1-1.3,0.1c0,1.4,0.1,2.8,0.1,4.2
		c0.4,0.1,0.7,0.2,1.1,0.3c0.6,0.2,1.1,0.3,1.7,0.5c5.4-2.8,10.7-6.1,15.9-9.7l3-3c0-0.5,0-1.1,0.2-1.6c0.1-0.3,0.3-0.7,0.6-0.9
		c0.4-0.3,1.1-0.3,1.5,0c0,0,0.1,0.1,0.1,0.1l10.2-10.2c0.6-0.6,1.7-0.6,2.3,0l0.1,0.1c0.1,0.1,0.2,0.3,0.3,0.5
		c0.6-0.5,1.2-1.1,1.7-1.6C438,75.8,470.1,112.2,512,114.9z"/>
	<path class="st1" d="M289.7,89.1v34.5c7.2,5.6,14.9,9.4,22.9,11.7c2.4-2.2,5.6-3.6,9.1-3.6c4.3,0,8.1,2.1,10.5,5.2
		c0.9-1.3,2.4-2.1,4.1-2.1c0.9,0,1.7,0.2,2.4,0.6c0.3-0.8,0.8-1.4,1.4-1.9c-0.9-0.9-1.7-2-2.2-3.2c-0.4-1-0.7-2-0.9-3
		c-0.6-2.2-1.1-4.4-1.7-6.7c-0.1-0.5-0.3-1.1-0.7-1.5c-0.3-0.3-0.7-0.5-1.1-0.6c-2-0.9-4-2-5.4-3.7c-0.2-0.2-0.3-0.4-0.5-0.6
		c-3.7-1.1-7.4-2.6-10.9-4.4C306.2,104.6,297.2,97.5,289.7,89.1z"/>
	<path class="st1" d="M358.5,118.1c-1.4-0.8-2.7-1.9-3.6-3.3c-4.3,1.5-8.8,2.1-13.5,1.9c-0.2,1.5-1.4,3-1.1,4.6
		c0.3,2.2,0.8,4.3,1.6,6.3c0.4,1.1,1,2.2,1.8,3c0.7,0.7,1.6,1.1,2.4,1.5c1.1,0.5,2.3,0.9,3.5,1.1c2.5,0.2,5-0.9,7.1-2.2
		c1.8-1.1,3.6-2.6,5.6-3.3v0c2.3-1.1,4.8-1.9,7.3-2.8c0-0.2,0-0.5,0-0.7c0-1.2-0.1-2.4-0.2-3.6c-2.4-0.2-4.9-0.5-7.2-1.2
		C361,119.2,359.7,118.7,358.5,118.1z"/>
	<path class="st1" d="M267.4,51.6C261.2,35.2,254.6,17,255.7,0H239c-3.3,11.9-4.8,24.1-4,35.4c2.3,33.7,24,62.6,50,84.4V83.6
		C277.6,74,271.8,63.2,267.4,51.6z"/>
	<path class="st2" d="M267.4,51.6c4.4,11.6,10.2,22.4,17.6,31.9v-18c0-3.8,1.3-7.5,3.7-10.4c0.9-1.1,2-2.1,3.1-2.9
		c-7.3-12.7-11.8-27.5-14.6-42.8c-0.6-3.1-1.2-6.3-1.4-9.5h-20.1C254.6,17,261.2,35.2,267.4,51.6z"/>
	<path class="st2" d="M437.3,39c-11.8-2.1-24.6-0.6-34.3,6.2c-6.2,4.3-10.8,10.4-15.2,16.7c0.6,0.5,1,1.2,1,2c0,1.4-1.2,2.6-2.6,2.6
		c-0.5,0-1-0.2-1.4-0.4c-0.6,0.9-1.2,1.8-1.9,2.6c0.8,0.5,1.5,1.2,1.9,2c0.6-0.5,1.4-0.8,2.2-0.8c1.9,0,3.5,1.6,3.5,3.5
		c0,0.5-0.1,1-0.3,1.5c0.6,0.5,1.1,1.2,1.4,1.9c2.5-2.7,5.3-5.2,8.4-7.2c11.2-7.2,25.8-7.6,39.2-3.6c22.1,6.6,41.7,20.8,64.9,22.6
		c2.7,0.2,5.4,0.3,8,0.1V49c-5.6,1.9-11.5,2.9-17.7,3.1C474,52.5,456.7,42.5,437.3,39z"/>
	<path class="st2" d="M354.9,114.8c-0.4-0.6-0.7-1.2-1-1.9c-0.7-0.4-1.3-1-1.8-1.6c-1.1-1.3-2-2.8-2.8-4.4c0.9,0.1,1.6-0.7,2.1-1.5
		c1.4-2.4,2-5.2,2.5-8c0.3-1.8,0.6-4.9,1.5-7.5c-0.7-0.4-1.3-0.9-2-1.5c-7.7,0.8-15.9-0.6-23.2-3.4c-8.5-3.1-15.6-7.4-21.7-12.6
		c-2.2,0.5-4.1,0.2-5.2-0.9c-1-1-1.3-2.6-1.1-4.6c-0.2-0.3-0.3-0.7-0.4-1c-2.7-3-5.2-6.3-7.4-9.7c-0.7,0.5-1.4,1.2-2,1.9
		c-1.7,2.1-2.7,4.7-2.7,7.4v23.6c7.6,8.4,16.5,15.5,27,20.8c3.5,1.8,7.2,3.3,10.9,4.4c-1.4-1.9-2-4-1.9-6.4c0-0.8,0.2-1.8,1-2
		c0.5-0.2,0.9,0,1.2,0.2c0.2-0.6,0.6-1,1.2-1c0.6,0,1.1,0.4,1.2,1c0,0,0,0,0,0c1.2,0,2.3,1,2.3,2.3c0,0.4-0.1,0.7-0.2,1
		c0.1,0,0.2,0,0.2,0c0.7,0,1.3,0.6,1.3,1.3c0,0.4-0.2,0.8-0.5,1c0.4,0.1,0.7,0.4,0.9,0.8c0,0,0.1,0,0.1,0.1c0.2-0.9,0.9-1.5,1.8-1.5
		c0.8,0,1.5,0.6,1.7,1.3c0.5-1.4-0.2-4.1,1.2-4.8c0.2-0.3,0.6-0.5,1-0.5c0.7,0,1.3,0.6,1.3,1.3c0,0.6-0.5,1.1-1,1.3
		c-0.1,0.9-0.1,1.8,0,2.8c0.1,1.2,0.5,1.8,0.9,2.8c0.2,0.5,0.2,1,0.2,1.5C346.1,116.8,350.6,116.2,354.9,114.8z M333.1,105.5
		c-0.7,0-1.3-0.6-1.3-1.3s0.6-1.3,1.3-1.3c0.7,0,1.3,0.6,1.3,1.3S333.8,105.5,333.1,105.5z M335.3,110.1c-0.7,0-1.3-0.6-1.3-1.3
		c0-0.7,0.6-1.3,1.3-1.3c0.7,0,1.3,0.6,1.3,1.3C336.6,109.5,336,110.1,335.3,110.1z M338.8,105.1c-0.7,0-1.3-0.6-1.3-1.3
		s0.6-1.3,1.3-1.3s1.3,0.6,1.3,1.3S339.5,105.1,338.8,105.1z"/>
	<path class="st3" d="M291.9,52.3c3.8-2.7,8.6-3.7,13.2-2.6c0.5-0.6,1-1.2,1.6-1.8c4.8-4.8,11.4-6.7,16.8-5.3
		c0.8,0.2,1.5,0.5,2.2,0.8c1.9-0.3,3.5,0,4.5,1.1c3.2,3.2-0.3,11.8-7.8,19.2c-4.8,4.8-10,7.9-14,8.7c6.1,5.2,13.3,9.5,21.7,12.6
		c7.4,2.7,15.5,4.1,23.2,3.4c-0.4-0.4-0.8-0.7-1.2-1.2c-3.4-3.7-1.9-6.7,2.3-8.7c5.1-2.4,10.4-4.8,16-5.6c0.5-0.6,1.3-1.1,2.2-1.2
		c0,0,0,0,0,0c0-1.4,1.2-2.6,2.6-2.6c0.6,0,1.1,0.2,1.5,0.5c0.9-0.9,2.2-1.5,3.6-1.5c0.9,0,1.8,0.2,2.5,0.7c0.6-0.9,1.3-1.7,1.9-2.6
		c-0.7-0.5-1.2-1.3-1.2-2.2c0-1.4,1.2-2.6,2.6-2.6c0.6,0,1.2,0.2,1.6,0.6c4.4-6.3,9-12.3,15.2-16.7c9.8-6.8,22.6-8.4,34.3-6.2
		c19.4,3.5,36.7,13.5,57,13.1c6.2-0.1,12.1-1.2,17.7-3.1V0H275.8c0.3,3.2,0.8,6.3,1.4,9.5C280.1,24.8,284.6,39.6,291.9,52.3z
		 M369.4,68.1c0.8,0,1.5,0.7,1.5,1.5s-0.7,1.5-1.5,1.5c-0.8,0-1.5-0.7-1.5-1.5S368.5,68.1,369.4,68.1z M351.3,75.8
		c0.7-0.2,1.4-0.6,2-1c1.6-1,3.2-1.9,4.9-2.7c1.9-0.9,3.9-1.7,6-1.5c1.2,0.1,2.8,0.7,4,1.6c-5.1,1.1-10,3.3-14.7,5.5
		c-1.4,0.7-2.5,1.4-3.3,2.3c-1.2-1.4-1.9-3.1-2.4-4.9C348.8,75.9,350.2,76.1,351.3,75.8z"/>
	<path class="st3" d="M301.3,64.8c-0.9-3.4-0.5-7.2,1.1-10.8c-2.9-0.3-5.8,0.5-8.2,2.3c2.2,3.4,4.7,6.7,7.4,9.7
		C301.6,65.5,301.4,65.2,301.3,64.8z"/>
	<path class="st7" d="M395.3,207.8c-1.6,0-3.1-1-3.6-2.5c-10.8-0.2-22.9-0.3-35.8-0.3s-25,0.1-35.8,0.3c-0.6,1.4-2,2.5-3.6,2.5
		c-1.6,0-3-1-3.6-2.3c-22.1,0.5-36.8,1.4-36.8,2.4c0,1.6,35.7,2.9,79.8,2.9s79.8-1.3,79.8-2.9c0-1-14.7-1.9-36.8-2.4
		C398.2,206.9,396.8,207.8,395.3,207.8z"/>
	<path class="st8" d="M288.1,144.2c0.4-0.6,0.9-1.2,1.6-1.6v-19V89.1V65.5c0-2.7,0.9-5.3,2.7-7.4c0.6-0.7,1.3-1.3,2-1.9
		c2.3-1.8,5.2-2.6,8.2-2.3c-1.6,3.6-2,7.4-1.1,10.8c1-3.9,4-8.9,8.6-13.5c4.6-4.6,9.6-7.6,13.5-8.6c-5.4-1.4-12,0.4-16.8,5.3
		c-0.6,0.6-1.1,1.1-1.6,1.8c-4.6-1.1-9.4-0.1-13.2,2.6c-1.1,0.8-2.2,1.8-3.1,2.9c-2.4,2.9-3.7,6.6-3.7,10.4v18v36.3v24
		c0.3-0.1,0.7-0.1,1-0.1C286.8,143.8,287.5,143.9,288.1,144.2z"/>
	<path class="st3" d="M383.1,127.7v0.1c0.9,0.3,1.8,0.5,2.8,0.6l12.4-12.4c-0.4-0.3-0.8-0.7-1.1-1.1c-0.4-0.6-0.6-1.3-0.7-2.1l-3,3
		l-11.5,11.5C382.4,127.5,382.7,127.6,383.1,127.7z"/>
	<path class="st3" d="M411.5,100.3c-0.6-0.6-1.7-0.6-2.3,0l-10.2,10.2c0.3,0.3,0.5,0.9,0.3,1.4c0.6-0.7,1.6-1.1,2.5-1.2
		c0.6-0.1,1.2,0,1.8,0.2l8.1-8.1c0.5-0.5,0.6-1.3,0.3-1.9c-0.1-0.2-0.2-0.3-0.3-0.5L411.5,100.3z"/>
	<path class="st5" d="M400,93.2c0.9,0.6,1.8,1.2,2.6,1.9c1.8,1.4,3.4,3.1,4.2,5.3c1.2-2.6,1.6-5.5,1.2-8.3c-0.3-1.9-0.9-3.7-1.6-5.5
		c-0.6-1.5-1.1-3-2-4.3c-1.1-1.6-2.9-3.8-4.9-4c-1-0.1-2,0-2.8,0.3c0,0,0,0.1,0,0.1c0,0.8-0.7,1.5-1.5,1.5c-0.2,0-0.4,0-0.6-0.1
		c-0.1,0.1-0.2,0.2-0.3,0.3c1.4,1.4,2.6,3.1,3.4,4.8C399.1,87.9,399.8,90.5,400,93.2z"/>
	<path class="st5" d="M353.6,77.7c4.7-2.2,9.6-4.4,14.7-5.5c-1.2-0.9-2.8-1.4-4-1.6c-2.1-0.2-4.1,0.6-6,1.5
		c-1.7,0.8-3.3,1.7-4.9,2.7c-0.6,0.4-1.3,0.8-2,1c-1.2,0.3-2.5,0.1-3.4-0.7c0.4,1.8,1.2,3.5,2.4,4.9C351,79.2,352.2,78.4,353.6,77.7
		z"/>
	<path class="st9" d="M386.9,106.2c1,1,2.9,0.7,3.8-0.4c0.9-1.1,1-2.7,0.7-4c-0.3-1.1-1-2.2-2-2.6c-1.1-0.4-2.5,0-2.8,1.1
		c-0.6-3.4-1.3-4.7-4.5-6.3c-5.3-2.7-11.6-2.1-17.2-3.7c1,1.1,2.5,1.5,3.6,2.3c1.2,0.8,1.9,2.7,0.8,3.7c-1.1-2.3-4.1-2.8-6.5-3.3
		c-2-0.4-4-1.1-5.9-2.1c-0.2,1.3-0.5,2.6-0.7,3.9c-0.6,3.1-1.2,6.2-1.8,9.4c-0.3,1.3-0.8,2.4-1,3.7c-0.2,1.4-0.1,2.9,0.3,4.3
		c0.1,0.3,0.2,0.6,0.3,0.9c0.3,0.7,0.6,1.3,1,1.9c0.9,1.4,2.1,2.5,3.6,3.3c1.2,0.7,2.5,1.1,3.9,1.4c2.4,0.6,4.8,1,7.2,1.2
		c1.7,0.1,3.5,0.1,5.2,0c0.4,0,0.9-0.1,1.3-0.1c2.1-0.2,4.2-0.6,6.2-1.2c1-0.3,2-0.6,2.9-1.1C387.2,114.7,387.1,110.3,386.9,106.2z"
		/>
	<path class="st3" d="M398.8,92.3c0.4,0.3,0.9,0.6,1.3,0.9c-0.2-2.7-0.9-5.3-2.2-7.9c-0.9-1.8-2.1-3.4-3.4-4.8
		c-0.2,0.3-0.4,0.7-0.6,1.1c1.2,1.3,2.2,2.7,3,4.3C397.8,87.9,398.5,90.1,398.8,92.3z"/>
	<path class="st5" d="M387.7,82.3c-2.3,0-4.1-1.9-4.1-4.1c0-0.5,0.1-0.9,0.2-1.3c-0.9,0.8-2.1,1.3-3.4,1.3c-1.6,0-3-0.7-3.9-1.8
		c-0.5,1.3-1.8,2.3-3.3,2.3c-1.9,0-3.5-1.6-3.5-3.5c0-0.9,0.3-1.6,0.8-2.2c-5.6,0.8-10.9,3.2-16,5.6c-4.3,2-5.7,5.1-2.3,8.7
		c0.4,0.4,0.8,0.8,1.2,1.2c0.6,0.5,1.3,1,2,1.5c-0.9,2.6-1.2,5.6-1.5,7.5c-0.5,2.8-1.1,5.6-2.5,8c-0.5,0.8-1.2,1.6-2.1,1.5
		c0.8,1.5,1.7,3.1,2.8,4.4c0.5,0.6,1.2,1.2,1.8,1.6c-0.1-0.3-0.2-0.6-0.3-0.9c-0.4-1.4-0.5-2.9-0.3-4.3c0.2-1.3,0.7-2.5,1-3.7
		c0.6-3.1,1.2-6.2,1.8-9.4c0.2-1.3,0.5-2.6,0.7-3.9c1.9,1,3.9,1.7,5.9,2.1c2.5,0.5,5.4,1,6.5,3.3c1.1-0.9,0.4-2.8-0.8-3.7
		c-1.2-0.8-2.7-1.2-3.6-2.3c5.6,1.6,11.9,1,17.2,3.7c3.2,1.6,3.9,2.9,4.5,6.3c0.3-1.1,1.8-1.6,2.8-1.1c1.1,0.4,1.7,1.5,2,2.6
		c0.4,1.4,0.3,2.9-0.7,4c-0.9,1.1-2.7,1.4-3.8,0.4c0.2,4.1,0.3,8.5-1.7,12.1c-0.2,0.3-0.4,0.7-0.6,1c2.2-0.1,4.2-1.3,5.7-2.8
		c1.6-1.5,2.7-3.4,3.8-5.2c3.3-5.9,5.5-12.5,4.6-19c-0.3-2.2-0.9-4.4-2-6.5c-0.8-1.6-1.8-3-3-4.3c-0.7-0.7-1.4-1.4-2.2-2.1
		C391.1,81.1,389.6,82.3,387.7,82.3z"/>
	<path class="st10" d="M401.7,110.7c-0.9,0.1-1.9,0.4-2.5,1.2c0.2-0.4,0.1-1-0.3-1.4c0,0-0.1-0.1-0.1-0.1c-0.4-0.3-1.1-0.3-1.5,0
		c-0.3,0.2-0.5,0.6-0.6,0.9c-0.2,0.5-0.3,1.1-0.2,1.6c0,0.7,0.3,1.5,0.7,2.1c0.3,0.4,0.7,0.8,1.1,1.1c0.6,0.4,1.4,0.7,2.2,0.7
		c0.2,0,0.5,0,0.7,0.1c0.1,0.1,0.2,0.3,0.3,0.4c0.8,2,0.4,4.3-0.7,6.1s-2.9,3.1-4.9,4c-0.6,0-1.5,0.6-2.1,0.7
		c-0.7,0.2-1.5,0.3-2.2,0.4c-1.5,0.2-3.1,0.2-4.6,0c-0.3,0-0.7-0.1-1-0.1c-0.9-0.2-1.9-0.4-2.8-0.6v-0.1c-0.3-0.1-0.6-0.3-1-0.4
		c-1.5-0.6-2.9-1.2-4.4-1.7c-0.6-0.2-1.1-0.4-1.7-0.5c-0.4-0.1-0.8-0.2-1.1-0.3c0-1.4,0-2.8-0.1-4.2c-1.7,0.1-3.5,0.1-5.2,0
		c0.1,1.2,0.2,2.4,0.2,3.6c0,0.2,0,0.5,0,0.7c-2.5,0.9-5,1.7-7.3,2.8v0c-2,0.7-3.8,2.2-5.6,3.3c-2.2,1.3-4.6,2.5-7.1,2.2
		c-1.2-0.1-2.4-0.6-3.5-1.1c-0.9-0.4-1.7-0.9-2.4-1.5c-0.9-0.8-1.4-1.9-1.8-3c-0.8-2-1.3-4.1-1.6-6.3c-0.3-1.6,0.9-3.1,1.1-4.6
		c0.1-0.5,0-1-0.2-1.5c-0.4-1-0.8-1.7-0.9-2.8c-0.1-0.9-0.1-1.8,0-2.8c-0.1,0-0.2,0.1-0.3,0.1c-0.7,0-1.3-0.6-1.3-1.3
		c0-0.3,0.1-0.6,0.3-0.8c-1.4,0.7-0.7,3.4-1.2,4.8c0,0.2,0.1,0.3,0.1,0.5c0,1-0.8,1.8-1.8,1.8c-1,0-1.8-0.8-1.8-1.8
		c0,0.7-0.6,1.3-1.3,1.3c-0.7,0-1.3-0.6-1.3-1.3c0-0.4,0.2-0.8,0.5-1c-0.5-0.2-0.9-0.6-0.9-1.2c0-0.1,0-0.2,0-0.2
		c-0.3,0.1-0.6,0.2-1,0.2c-1.2,0-2.3-1-2.3-2.3c0-0.3,0.1-0.6,0.2-0.9c-0.3-0.2-0.5-0.6-0.5-1c0-0.1,0-0.2,0.1-0.3
		c-0.4-0.3-0.8-0.4-1.2-0.2c-0.8,0.3-0.9,1.2-1,2c0,2.4,0.5,4.5,1.9,6.4c0.1,0.2,0.3,0.4,0.5,0.6c1.5,1.6,3.4,2.8,5.4,3.7
		c0.4,0.2,0.8,0.3,1.1,0.6c0.4,0.4,0.6,1,0.7,1.5c0.6,2.2,1.1,4.4,1.7,6.7c0.3,1,0.5,2,0.9,3c0.5,1.2,1.3,2.3,2.2,3.2
		c0.6-0.4,1.4-0.7,2.2-0.7c1.8,0,3.3,1.2,3.8,2.9c0.4-0.1,0.9-0.2,1.3-0.2c1.8,0,3.3,0.9,4.2,2.3c2.3-1.9,5.2-3.1,8.5-3.1
		c3.5,0,6.7,1.4,9.1,3.6c0.9-1.3,2.4-2.1,4.1-2.1c2.6,0,4.7,2,5,4.5c0.6-0.1,1.2-0.1,1.8-0.1c1,0,2,0.1,2.9,0.3v-5.2
		c5,0,10.1-1.2,14.5-3.6c1.1-0.6,2.1-1.2,3.1-2c2.4-2,4-4.9,4.7-8c0.5-2.2,0.5-4.4,0.3-6.6c-0.2-1.6-0.1-3.7-1.7-4.6
		c-0.1-0.1-0.3-0.1-0.4-0.2C402.9,110.6,402.3,110.6,401.7,110.7z M383,134.6c-1.6,0-2.9-1.3-2.9-2.9c0-1.6,1.3-2.9,2.9-2.9
		c1.6,0,2.9,1.3,2.9,2.9C386,133.3,384.7,134.6,383,134.6z"/>
	<path class="st10" d="M334.3,112.4c0,0.1,0.1,0.3,0.1,0.4c0-0.1,0-0.2,0-0.3C334.4,112.5,334.3,112.5,334.3,112.4z"/>
	<path class="st11" d="M390.2,74.9c0.2-0.5,0.3-1,0.3-1.5c0-1.9-1.6-3.5-3.5-3.5c-0.8,0-1.6,0.3-2.2,0.8c-0.5-0.8-1.1-1.5-1.9-2
		c-0.7-0.4-1.6-0.7-2.5-0.7c-1.4,0-2.7,0.6-3.6,1.5c-0.4-0.3-0.9-0.5-1.5-0.5c-1.4,0-2.6,1.2-2.6,2.6c0,0,0,0,0,0
		c-0.9,0.1-1.6,0.6-2.2,1.2c-0.5,0.6-0.8,1.4-0.8,2.2c0,1.9,1.6,3.5,3.5,3.5c1.5,0,2.8-0.9,3.3-2.3c0.9,1.1,2.3,1.8,3.9,1.8
		c1.3,0,2.5-0.5,3.4-1.3c-0.1,0.4-0.2,0.8-0.2,1.3c0,2.3,1.9,4.1,4.1,4.1c1.9,0,3.4-1.2,3.9-2.9c0.1-0.4,0.2-0.8,0.2-1.2
		c0-0.5-0.1-0.9-0.2-1.4C391.3,76.1,390.8,75.4,390.2,74.9z"/>
	<path class="st11" d="M388.8,63.9c0-0.8-0.4-1.6-1-2c-0.4-0.3-1-0.6-1.6-0.6c-1.4,0-2.6,1.2-2.6,2.6c0,0.9,0.5,1.7,1.2,2.2
		c0.4,0.3,0.9,0.4,1.4,0.4C387.6,66.5,388.8,65.4,388.8,63.9z"/>
	<path class="st11" d="M369.4,71.1c0.8,0,1.5-0.7,1.5-1.5s-0.7-1.5-1.5-1.5c-0.8,0-1.5,0.7-1.5,1.5S368.5,71.1,369.4,71.1z"/>
	<path class="st11" d="M396.8,78.7C396.8,78.6,396.8,78.6,396.8,78.7c-0.1-0.9-0.7-1.5-1.5-1.5c-0.8,0-1.5,0.7-1.5,1.5
		c0,0.6,0.4,1.2,1,1.4c0.2,0.1,0.4,0.1,0.6,0.1C396.1,80.2,396.8,79.5,396.8,78.7z"/>
	<path class="st12" d="M288.1,145.4c0.4-0.6,0.9-1.2,1.6-1.6v-1.2c-0.6,0.4-1.2,1-1.6,1.6c-0.6-0.3-1.3-0.5-2.1-0.5
		c-0.3,0-0.7,0-1,0.1v1.2c0.3-0.1,0.7-0.1,1-0.1C286.8,144.9,287.5,145.1,288.1,145.4z"/>
	<path class="st11" d="M383,128.8c-1.6,0-2.9,1.3-2.9,2.9c0,1.6,1.3,2.9,2.9,2.9c1.6,0,2.9-1.3,2.9-2.9
		C386,130.1,384.7,128.8,383,128.8z"/>
	<path class="st11" d="M378.4,140.8c-0.3-2.5-2.4-4.5-5-4.5c-1.7,0-3.2,0.8-4.1,2.1c-2.4-2.2-5.6-3.6-9.1-3.6
		c-3.2,0-6.2,1.2-8.5,3.1c-0.9-1.4-2.5-2.3-4.2-2.3c-0.5,0-0.9,0.1-1.3,0.2c-0.4-1.7-2-2.9-3.8-2.9c-0.8,0-1.6,0.3-2.2,0.7
		c-0.7,0.5-1.2,1.1-1.4,1.9c-0.7-0.4-1.6-0.6-2.4-0.6c-1.7,0-3.2,0.8-4.1,2.1c-2.4-3.2-6.2-5.2-10.5-5.2c-3.5,0-6.7,1.4-9.1,3.6
		c-1.7,1.7-3,3.8-3.7,6.2c-0.6-0.1-1.2-0.1-1.8-0.1c-4,0-7.6,1.8-10,4.7c-0.8-1.8-2.6-3.1-4.7-3.1c-1,0-2,0.3-2.8,0.8
		c-0.6,0.4-1.2,0.9-1.6,1.6c-0.6-0.3-1.3-0.5-2.1-0.5c-0.3,0-0.7,0-1,0.1c-2,0.4-3.5,1.9-4,3.9h150.2c0-2.8-2.3-5.1-5.1-5.1
		c-1,0-1.9,0.3-2.7,0.8c-2.3-2-5.3-3.2-8.6-3.2c-0.7,0-1.4,0.1-2.1,0.2c-0.8-1.6-2.5-2.8-4.5-2.8c-2.1,0-3.8,1.2-4.6,3
		c-1.6-0.7-3.4-1.1-5.4-1.1c-1.2,0-2.3,0.2-3.4,0.4c-0.7-1.9-2.6-3.2-4.7-3.2c-2.4,0-4.3,1.6-4.9,3.8c-0.7-0.3-1.4-0.5-2.2-0.7
		c-0.9-0.2-1.9-0.3-2.9-0.3C379.5,140.7,378.9,140.7,378.4,140.8z"/>
	<path class="st1" d="M281.1,157.2c0,0.5,0.1,1,0.1,1.4c0,0.1,0,0.2,0,0.3c1.9,18.5,14.4,33.9,31.3,40.2v1.2v3.7
		c0,0.6,0.1,1.1,0.3,1.6c0.6,1.4,2,2.3,3.6,2.3c1.6,0,3.1-1,3.6-2.5c0.2-0.4,0.3-0.9,0.3-1.4v-1.5v-1.2c2.9,0.5,5.8,0.8,8.9,0.8
		h53.3c3,0,6-0.3,8.9-0.8v1.2v1.5c0,0.5,0.1,1,0.3,1.4c0.6,1.4,2,2.5,3.6,2.5c1.6,0,3-1,3.6-2.3c0.2-0.5,0.3-1,0.3-1.6v-3.7v-1.2
		c6.6-2.4,12.5-6.3,17.4-11.1c7.6-7.6,12.7-17.7,13.9-29c0-0.1,0-0.2,0-0.3c0-0.5,0.1-1,0.1-1.4H281.1z"/>
	<path class="st3" d="M281.1,148.9h-0.9c-2.3,0-4.1,1.9-4.1,4.1c0,2.3,1.9,4.1,4.1,4.1h0.9h149.5h0.9c2.3,0,4.1-1.9,4.1-4.1
		c0-2.3-1.9-4.1-4.1-4.1h-0.2H281.1z"/>
	<path class="st13" d="M302.1,67c0.6-4.1,3.8-9.6,8.8-14.7c5.1-5.1,10.6-8.3,14.7-8.8c-0.7-0.3-1.5-0.6-2.2-0.8
		c-3.9,1-8.9,4-13.5,8.6c-4.6,4.6-7.7,9.6-8.6,13.5c0.1,0.4,0.2,0.8,0.4,1.2C301.8,66.3,302,66.6,302.1,67z"/>
	<path class="st8" d="M311,52.3c-5,5-8.3,10.6-8.8,14.7c-0.3,1.9,0,3.6,1.1,4.6c1.1,1.1,3,1.4,5.2,0.9c4-0.8,9.2-4,14-8.7
		c7.5-7.5,10.9-16.1,7.8-19.2c-1-1-2.6-1.3-4.5-1.1C321.6,44,316,47.2,311,52.3z M328.7,46.7c2.6,2.6-0.5,9.9-7,16.4
		s-13.8,9.6-16.4,7c-2.6-2.6,0.5-9.9,7-16.4S326.1,44.1,328.7,46.7z"/>
	<path class="st11" d="M312.3,53.6c-6.4,6.4-9.6,13.8-7,16.4c2.6,2.6,9.9-0.5,16.4-7s9.6-13.8,7-16.4
		C326.1,44.1,318.8,47.2,312.3,53.6z M322.4,54.4c-0.6,0.6-1.3,0.9-1.4,0.7c-0.2-0.2,0.1-0.9,0.8-1.5s1.3-0.9,1.5-0.7
		C323.3,53.1,323,53.8,322.4,54.4z M324.2,54.3c0.2,0.2-0.2,0.9-0.7,1.5c-0.6,0.6-1.2,0.9-1.4,0.7c-0.2-0.2,0.1-0.9,0.7-1.5
		S324,54,324.2,54.3z M312.3,62.9c0.6-0.6,1.3-1,1.5-0.7c0.2,0.2-0.1,0.8-0.7,1.5c-0.6,0.6-1.3,0.9-1.5,0.8
		C311.4,64.2,311.7,63.5,312.3,62.9z M310.4,63.4c-0.3-0.2,0-0.9,0.7-1.5c0.6-0.6,1.3-1,1.6-0.8c0.2,0.2-0.1,0.9-0.7,1.5
		C311.4,63.3,310.7,63.6,310.4,63.4z M313.6,60.3c-0.2-0.2,0.1-0.9,0.7-1.5c0.6-0.6,1.3-1,1.6-0.7c0.2,0.2-0.1,0.9-0.7,1.5
		C314.5,60.2,313.8,60.5,313.6,60.3z M315.4,59.8c0.6-0.6,1.3-0.9,1.5-0.7c0.2,0.2-0.1,0.9-0.7,1.5c-0.6,0.6-1.3,0.9-1.5,0.7
		C314.5,61.1,314.8,60.4,315.4,59.8z M317.5,55.5c0.6-0.6,1.3-0.9,1.5-0.7c0.2,0.2-0.1,0.9-0.7,1.6c-0.6,0.6-1.3,0.9-1.5,0.7
		C316.5,56.9,316.9,56.2,317.5,55.5z M316.7,61c0.6-0.6,1.3-0.9,1.5-0.7c0.2,0.2-0.1,0.8-0.7,1.4c-0.6,0.6-1.2,0.9-1.5,0.7
		C315.8,62.2,316.1,61.6,316.7,61z M317.8,58.2c-0.2-0.2,0.1-0.9,0.7-1.5s1.3-0.9,1.5-0.7c0.2,0.2-0.1,0.9-0.7,1.5
		C318.7,58.1,318.1,58.4,317.8,58.2z M320.7,52.3c0.6-0.6,1.3-0.9,1.5-0.7c0.2,0.3-0.1,1-0.8,1.6c-0.6,0.6-1.3,0.9-1.5,0.7
		C319.7,53.7,320.1,53,320.7,52.3z M319.7,57.9c0.6-0.6,1.2-0.9,1.4-0.7c0.2,0.2-0.1,0.9-0.7,1.5c-0.6,0.6-1.2,0.9-1.4,0.7
		C318.8,59.2,319.1,58.5,319.7,57.9z M318,53.6c0.2,0.3-0.1,1-0.7,1.6c-0.6,0.6-1.3,1-1.6,0.7c-0.2-0.2,0.1-1,0.7-1.6
		C317,53.7,317.7,53.4,318,53.6z M313.1,57.6c0.6-0.6,1.4-1,1.6-0.7c0.2,0.2-0.1,0.9-0.7,1.6s-1.4,1-1.6,0.7
		C312.1,59,312.4,58.3,313.1,57.6z M308.8,67.3c-0.3-0.2,0-0.8,0.6-1.4s1.3-1,1.6-0.8c0.3,0.2,0,0.8-0.6,1.4
		C309.7,67.1,309,67.4,308.8,67.3z M311.7,67.4c-0.6,0.6-1.3,0.9-1.5,0.8c-0.3-0.2,0-0.8,0.6-1.4s1.3-0.9,1.5-0.8
		C312.6,66.2,312.3,66.9,311.7,67.4z M313,65.4c-0.2-0.2,0.1-0.8,0.7-1.4c0.6-0.6,1.3-0.9,1.5-0.7c0.2,0.2-0.1,0.8-0.7,1.4
		C313.9,65.2,313.3,65.6,313,65.4z M315.7,65.6c-0.6,0.6-1.2,0.9-1.4,0.7c-0.2-0.2,0.1-0.8,0.6-1.4c0.6-0.6,1.2-0.9,1.4-0.7
		C316.6,64.5,316.3,65.1,315.7,65.6z M317.2,63.5c-0.2-0.2,0.1-0.8,0.7-1.4s1.2-0.9,1.4-0.7c0.2,0.2-0.1,0.8-0.7,1.4
		S317.4,63.6,317.2,63.5z M319.6,63.6c-0.6,0.6-1.2,0.9-1.4,0.7c-0.2-0.2,0.1-0.8,0.7-1.3c0.6-0.6,1.2-0.9,1.4-0.7
		C320.4,62.5,320.1,63.1,319.6,63.6z M320.1,60.5c-0.2-0.2,0.1-0.8,0.7-1.4c0.6-0.6,1.2-0.9,1.4-0.7c0.2,0.2-0.1,0.8-0.7,1.4
		C320.9,60.4,320.3,60.7,320.1,60.5z M322.4,60.8c-0.6,0.6-1.2,0.9-1.3,0.7c-0.2-0.2,0.1-0.8,0.7-1.4s1.2-0.9,1.3-0.7
		C323.3,59.6,322.9,60.3,322.4,60.8z M324.4,57c-0.6,0.6-1.2,0.9-1.3,0.7c-0.2-0.2,0.1-0.9,0.7-1.4c0.6-0.6,1.2-0.9,1.4-0.6
		C325.3,55.8,325,56.4,324.4,57z M326.9,51.5c0.2,0.2-0.2,0.9-0.8,1.5c-0.6,0.6-1.2,0.9-1.4,0.6c-0.2-0.2,0.2-0.9,0.8-1.5
		S326.7,51.3,326.9,51.5z M325.2,51.6c-0.6,0.6-1.2,0.9-1.4,0.6c-0.2-0.3,0.2-1,0.8-1.6s1.3-0.9,1.4-0.6
		C326.1,50.3,325.8,51,325.2,51.6z"/>
	<path class="st3" d="M324.5,50.7c-0.6,0.6-1,1.3-0.8,1.6c0.2,0.3,0.8,0,1.4-0.6c0.6-0.6,1-1.3,0.8-1.6
		C325.8,49.8,325.1,50.1,324.5,50.7z"/>
	<path class="st3" d="M324.8,53.7c0.2,0.2,0.8,0,1.4-0.6c0.6-0.6,0.9-1.3,0.8-1.5c-0.2-0.3-0.8,0-1.4,0.6S324.6,53.4,324.8,53.7z"/>
	<path class="st3" d="M311,65.1c-0.3-0.2-1,0.2-1.6,0.8s-0.9,1.3-0.6,1.4c0.3,0.2,1-0.2,1.6-0.8C310.9,65.9,311.2,65.3,311,65.1z"/>
	<path class="st3" d="M310.8,66.8c-0.6,0.6-0.9,1.2-0.6,1.4c0.2,0.2,0.9-0.2,1.5-0.8c0.6-0.6,0.9-1.2,0.6-1.4
		C312.1,65.9,311.4,66.2,310.8,66.8z"/>
	<path class="st3" d="M321.7,53.6c-0.6,0.6-1,1.3-0.8,1.5c0.2,0.2,0.8-0.1,1.4-0.7c0.6-0.6,0.9-1.3,0.8-1.5
		C323,52.6,322.3,52.9,321.7,53.6z"/>
	<path class="st3" d="M321.4,53.3c0.6-0.6,1-1.3,0.8-1.6c-0.2-0.3-0.9,0-1.5,0.7s-1,1.3-0.8,1.6C320.2,54.2,320.8,53.9,321.4,53.3z"
		/>
	<path class="st3" d="M322,56.4c0.2,0.2,0.8-0.1,1.4-0.7c0.6-0.6,0.9-1.2,0.7-1.5c-0.2-0.2-0.8,0.1-1.4,0.7S321.8,56.2,322,56.4z"/>
	<path class="st3" d="M323.8,56.2c-0.6,0.6-0.9,1.2-0.7,1.4c0.2,0.2,0.8-0.1,1.3-0.7c0.6-0.6,0.9-1.2,0.7-1.4
		C325,55.3,324.4,55.6,323.8,56.2z"/>
	<path class="st3" d="M320.1,56c-0.2-0.2-0.9,0.1-1.5,0.7s-0.9,1.3-0.7,1.5c0.2,0.2,0.9-0.1,1.5-0.7C319.9,56.9,320.3,56.2,320.1,56
		z"/>
	<path class="st3" d="M318.3,56.4c0.6-0.6,1-1.3,0.7-1.6c-0.2-0.2-0.9,0.1-1.5,0.7c-0.6,0.6-1,1.3-0.7,1.6
		C317,57.3,317.7,57,318.3,56.4z"/>
	<path class="st3" d="M320.4,58.7c0.6-0.6,0.9-1.2,0.7-1.5c-0.2-0.2-0.8,0.1-1.4,0.7c-0.6,0.6-0.9,1.3-0.7,1.5
		C319.2,59.6,319.9,59.3,320.4,58.7z"/>
	<path class="st3" d="M322.2,58.5c-0.2-0.2-0.8,0.1-1.4,0.7c-0.6,0.6-0.9,1.2-0.7,1.4c0.2,0.2,0.8-0.1,1.4-0.7
		C322.1,59.3,322.4,58.7,322.2,58.5z"/>
	<path class="st3" d="M316.3,60.6c0.6-0.6,0.9-1.3,0.7-1.5c-0.2-0.2-0.9,0.1-1.5,0.7s-0.9,1.3-0.7,1.5
		C315,61.5,315.7,61.2,316.3,60.6z"/>
	<path class="st3" d="M315.9,58c-0.2-0.2-0.9,0.1-1.6,0.7c-0.6,0.6-0.9,1.3-0.7,1.5c0.2,0.2,0.9-0.1,1.6-0.7
		C315.8,58.9,316.1,58.2,315.9,58z"/>
	<path class="st3" d="M315.6,55.9c0.2,0.2,0.9-0.1,1.6-0.7c0.6-0.6,1-1.4,0.7-1.6c-0.2-0.3-0.9,0.1-1.6,0.7
		C315.7,55,315.4,55.7,315.6,55.9z"/>
	<path class="st3" d="M312.4,59.2c0.3,0.2,1-0.1,1.6-0.7s1-1.3,0.7-1.6c-0.2-0.2-1,0.1-1.6,0.7S312.1,59,312.4,59.2z"/>
	<path class="st3" d="M317.5,61.7c0.6-0.6,0.9-1.2,0.7-1.4c-0.2-0.2-0.9,0.1-1.5,0.7s-0.9,1.2-0.7,1.4
		C316.2,62.6,316.9,62.3,317.5,61.7z"/>
	<path class="st3" d="M319.3,61.4c-0.2-0.2-0.8,0.1-1.4,0.7s-0.9,1.2-0.7,1.4c0.2,0.2,0.8-0.1,1.4-0.7S319.5,61.6,319.3,61.4z"/>
	<path class="st3" d="M321.7,60.1c-0.6,0.6-0.9,1.2-0.7,1.4c0.2,0.2,0.8-0.1,1.3-0.7c0.6-0.6,0.9-1.2,0.7-1.4
		C322.9,59.3,322.3,59.5,321.7,60.1z"/>
	<path class="st3" d="M318.9,63c-0.6,0.6-0.9,1.2-0.7,1.3c0.2,0.2,0.8-0.1,1.4-0.7c0.6-0.6,0.9-1.2,0.7-1.3
		C320.1,62.1,319.4,62.4,318.9,63z"/>
	<path class="st3" d="M313.2,63.6c0.6-0.6,0.9-1.3,0.7-1.5c-0.2-0.2-0.9,0.1-1.5,0.7s-0.9,1.3-0.7,1.5
		C311.9,64.6,312.6,64.2,313.2,63.6z"/>
	<path class="st3" d="M312.7,61.2c-0.3-0.2-1,0.1-1.6,0.8c-0.6,0.6-0.9,1.3-0.7,1.5c0.3,0.2,1-0.1,1.6-0.8
		C312.6,62.1,312.9,61.4,312.7,61.2z"/>
	<path class="st3" d="M315.2,63.3c-0.2-0.2-0.9,0.1-1.5,0.7c-0.6,0.6-0.9,1.2-0.7,1.4c0.2,0.2,0.9-0.2,1.5-0.7
		C315.1,64.1,315.4,63.5,315.2,63.3z"/>
	<path class="st3" d="M314.9,65c-0.6,0.6-0.9,1.2-0.6,1.4c0.2,0.2,0.9-0.2,1.4-0.7c0.6-0.6,0.9-1.2,0.7-1.4
		C316.2,64.1,315.5,64.4,314.9,65z"/>
	<path class="st11" d="M336.2,111c-0.9,0-1.6,0.6-1.8,1.5c0,0.1,0,0.2,0,0.3c0,1,0.8,1.8,1.8,1.8c1,0,1.8-0.8,1.8-1.8
		c0-0.2,0-0.3-0.1-0.5C337.7,111.6,337,111,336.2,111z"/>
	<path class="st11" d="M341.4,108.3c0-0.7-0.6-1.3-1.3-1.3c-0.4,0-0.7,0.2-1,0.5c-0.2,0.2-0.3,0.5-0.3,0.8c0,0.7,0.6,1.3,1.3,1.3
		c0.1,0,0.2,0,0.3-0.1C341,109.5,341.4,109,341.4,108.3z"/>
	<path class="st11" d="M335.3,107.4c-0.7,0-1.3,0.6-1.3,1.3c0,0.7,0.6,1.3,1.3,1.3c0.7,0,1.3-0.6,1.3-1.3
		C336.6,108,336,107.4,335.3,107.4z"/>
	<path class="st11" d="M334.4,104.2c0-0.7-0.6-1.3-1.3-1.3c-0.7,0-1.3,0.6-1.3,1.3s0.6,1.3,1.3,1.3
		C333.8,105.5,334.4,104.9,334.4,104.2z"/>
	<path class="st11" d="M338.8,102.5c-0.7,0-1.3,0.6-1.3,1.3s0.6,1.3,1.3,1.3s1.3-0.6,1.3-1.3S339.5,102.5,338.8,102.5z"/>
	<path class="st11" d="M333.4,111.6c0.3-0.2,0.5-0.6,0.5-1c0-0.7-0.6-1.3-1.3-1.3c-0.1,0-0.2,0-0.2,0c0.1-0.3,0.2-0.6,0.2-1
		c0-1.2-1-2.3-2.3-2.3c0,0,0,0,0,0c-0.1-0.6-0.6-1-1.2-1c-0.6,0-1.1,0.4-1.2,1c0,0.1-0.1,0.2-0.1,0.3c0,0.4,0.2,0.8,0.5,1
		c-0.1,0.3-0.2,0.6-0.2,0.9c0,1.2,1,2.3,2.3,2.3c0.4,0,0.7-0.1,1-0.2c0,0.1,0,0.2,0,0.2c0,0.6,0.4,1.1,0.9,1.2
		c-0.3,0.2-0.5,0.6-0.5,1c0,0.7,0.6,1.3,1.3,1.3c0.7,0,1.3-0.6,1.3-1.3c0-0.1,0-0.3-0.1-0.4C334.2,112,333.8,111.7,333.4,111.6z"/>
	<polygon class="st4" points="30.6,29.3 32.8,38.1 35.6,38.1 37.8,29.3 38.6,38.1 41.1,38.1 39.9,25 36.4,25 34.2,34 32,25 28.5,25 
		27.4,38.1 29.8,38.1 	"/>
	<path class="st4" d="M47.4,36c-0.1,0-0.2,0-0.2,0s-0.1,0-0.2,0c-0.1,0-0.1,0-0.2-0.1c0,0-0.1-0.1-0.2-0.1c-0.1,0-0.1-0.1-0.2-0.2
		c0-0.1-0.1-0.2-0.1-0.3l-1.7-6.7h-2.6l1.9,7.1c0.4,1.6,1.4,2.4,2.8,2.4L45.5,43h1.8l1.3-1.8l3.3-12.6h-2.6L47.4,36z"/>
	<path class="st4" d="M54.5,25.9l-0.4,2.7l-1.5,0.5v1.4h1.5v4.2c0,1.2,0.2,2.1,0.6,2.6c0.4,0.5,1,0.8,1.7,0.8h2.2v-1.5
		c-0.1,0-0.5-0.1-1.2-0.4c-0.2-0.1-0.3-0.2-0.4-0.3c-0.1-0.1-0.2-0.3-0.3-0.6c-0.1-0.3-0.1-0.6-0.1-1.1v-3.8h2.1v-1.9h-2.1v-2.7
		H54.5z"/>
	<path class="st4" d="M59.9,24v14.1h2.5v-6.9c0.3-0.2,0.5-0.3,0.7-0.5s0.4-0.2,0.7-0.3c0.3-0.1,0.6-0.1,0.9-0.1s0.6,0.1,0.8,0.3
		c0.2,0.2,0.3,0.5,0.3,1v6.4h2.5v-6.4c0-2.2-1-3.3-2.9-3.3c-0.2,0-0.4,0-0.6,0c-0.2,0-0.4,0.1-0.5,0.1s-0.3,0.1-0.5,0.2
		s-0.3,0.1-0.4,0.2s-0.2,0.1-0.4,0.2c-0.2,0.1-0.3,0.2-0.3,0.2s-0.2,0.1-0.4,0.3V24H59.9z"/>
	<path class="st4" d="M83.2,37.9c0.5-0.2,0.9-0.4,1.2-0.8c0.3-0.3,0.5-0.7,0.7-1.2s0.2-1,0.2-1.6c0-0.8-0.2-1.5-0.6-2
		c-0.4-0.5-0.9-0.9-1.4-1c0.6-0.1,1-0.4,1.4-1c0.3-0.5,0.4-1.2,0.4-1.8c0-1-0.3-1.9-0.9-2.5c-0.6-0.7-1.5-1-2.8-1H76v13.2h5.5
		C82.1,38.1,82.7,38,83.2,37.9z M78.5,27.2h2.8c0.1,0,0.2,0,0.3,0c0.1,0,0.2,0,0.3,0.1s0.2,0.1,0.3,0.2s0.2,0.2,0.2,0.3
		c0.1,0.1,0.1,0.2,0.2,0.4c0,0.2,0.1,0.3,0.1,0.5c0,0.5-0.1,0.8-0.4,1.1c-0.2,0.3-0.6,0.4-1,0.4h-2.8V27.2z M78.5,35.9v-3.6h2.9
		c0.3,0,0.6,0.1,0.8,0.3c0.2,0.2,0.4,0.4,0.5,0.7c0.1,0.3,0.1,0.6,0.1,0.9c0,1.2-0.5,1.8-1.5,1.8L78.5,35.9z"/>
	<path class="st4" d="M86.4,28.6v6.4c0,2.2,0.9,3.4,2.8,3.4c0.3,0,0.5,0,0.8-0.1c0.2,0,0.5-0.1,0.7-0.2c0.2-0.1,0.4-0.2,0.5-0.3
		c0.1-0.1,0.3-0.2,0.5-0.3c0.2-0.2,0.4-0.3,0.5-0.3l0.5,1h2v-9.6h-2.5v6.9c-0.3,0.2-0.5,0.4-0.7,0.5c-0.2,0.1-0.4,0.2-0.7,0.3
		c-0.3,0.1-0.6,0.1-0.9,0.1c-0.7,0-1.1-0.4-1.1-1.3v-6.4H86.4z"/>
	<path class="st4" d="M103.6,37.6c0.4-0.4,0.7-1,0.7-1.9v-0.9c0-1-0.4-1.7-1.1-2.1c-0.4-0.2-0.9-0.3-1.5-0.3h-2.3
		c-0.3,0-0.4,0-0.6-0.1c-0.1-0.1-0.2-0.2-0.2-0.5v-0.4c0-0.3,0-0.4,0.1-0.5c0.1-0.1,0.3-0.1,0.6-0.1h7.2v4.1c0,1.6,0.3,2.6,1,3.1
		c0.3,0.2,0.8,0.3,1.3,0.3h2.1v-1.6c-0.1,0-0.3-0.1-0.8-0.2c-0.5-0.2-0.7-0.3-0.8-0.4c-0.2-0.2-0.3-0.8-0.4-1.6v-3.9h2.1v-1.9h-2.1
		v-2.7h-2.1l-0.4,2.7h-7.8c-0.9,0-1.5,0.2-2,0.7c-0.4,0.5-0.6,1.1-0.6,1.9v0.8c0,1.7,0.9,2.6,2.7,2.6h2.2c0.2,0,0.4,0,0.5,0.1
		c0.1,0.1,0.1,0.3,0.1,0.5v0.4c0,0.4-0.2,0.6-0.6,0.6h-4.5v1.6c0.3,0.2,1,0.3,2.1,0.4c1.1,0.1,2.2,0.1,3.2,0.1
		C102.6,38.2,103.1,38,103.6,37.6z"/>
	<path class="st4" d="M119.8,33.8c0.4-0.4,0.7-1,0.7-1.8c0-0.4,0-0.8-0.1-1.2c-0.1-0.3-0.1-0.6-0.2-0.9c-0.1-0.2-0.2-0.5-0.4-0.6
		c-0.2-0.2-0.4-0.3-0.6-0.4c-0.2-0.1-0.4-0.2-0.7-0.2c-0.3-0.1-0.6-0.1-0.9-0.1c-0.3,0-0.7,0-1.1,0c-0.6,0-1.2,0-1.6,0.1
		c-0.4,0.1-0.8,0.2-1.2,0.4c-0.3,0.2-0.6,0.5-0.8,0.8c-0.2,0.4-0.3,0.8-0.4,1.4c-0.1,0.6-0.2,1.3-0.2,2.1c0,0.9,0.1,1.7,0.2,2.3
		c0.1,0.6,0.3,1.1,0.5,1.5c0.2,0.4,0.6,0.7,1,0.9c0.4,0.2,0.9,0.3,1.5,0.3c2.4,0,4-0.2,4.9-0.5V36c-0.9,0.1-2,0.2-3.5,0.2
		c-0.5,0-0.9,0-1.2-0.1c-0.2-0.1-0.5-0.2-0.6-0.5c-0.2-0.3-0.2-0.7-0.2-1.2h3C118.7,34.4,119.4,34.2,119.8,33.8z M117.2,32.6h-2.4
		c0-0.5,0-0.9,0.1-1.2s0.2-0.5,0.3-0.6s0.4-0.2,0.5-0.3s0.5,0,0.9,0c0.6,0,1,0.1,1.1,0.3s0.2,0.6,0.2,1.2
		C118,32.3,117.7,32.6,117.2,32.6z"/>
	<path class="st4" d="M124.4,29.8l-0.4-1.2h-2.1v9.6h2.5V32c0.3-0.4,0.6-0.7,1-0.8c0.4-0.1,0.8-0.2,1.4-0.2c0.6,0,1,0,1.4,0.1v-2.4
		c-0.2-0.1-0.5-0.1-1.1-0.1C126.2,28.5,125.3,28.9,124.4,29.8z"/>
	<path class="st4" d="M137.2,35.7v-1c0-0.3,0-0.7-0.1-1s-0.2-0.6-0.4-0.8c-0.2-0.2-0.5-0.4-0.8-0.5s-0.7-0.2-1.2-0.2h-2.3
		c-0.3,0-0.4,0-0.6-0.1c-0.1-0.1-0.2-0.2-0.2-0.5v-0.4c0-0.1,0-0.2,0-0.3c0-0.1,0.1-0.1,0.1-0.2c0-0.1,0.1-0.1,0.2-0.1
		c0.1,0,0.2,0,0.4,0h4.3V29c-0.6-0.3-2.3-0.5-5.1-0.5c-1.7,0-2.5,0.9-2.5,2.6v0.8c0,0.9,0.2,1.6,0.7,2s1.1,0.6,2,0.6h2.2
		c0.2,0,0.3,0,0.4,0.1c0.1,0,0.2,0.1,0.2,0.2c0,0.1,0,0.2,0,0.3v0.5c0,0.4-0.2,0.6-0.6,0.6h-4.5v1.6c0.5,0.3,2.3,0.5,5.3,0.5
		c0.2,0,0.4,0,0.5,0C136.6,38,137.2,37.2,137.2,35.7z"/>
	<polygon class="st4" points="35.4,52.3 33.7,59.3 32,52.3 29.2,52.3 28.3,62.6 30.3,62.6 30.9,55.7 32.6,62.6 34.8,62.6 36.4,55.7 
		37.1,62.6 39,62.6 38.1,52.3 	"/>
	<path class="st4" d="M39.8,55.1l1.5,5.5c0.3,1.3,1.1,1.9,2.2,1.9l-1,3.8h1.4l1-1.4l2.6-9.8h-2l-1.5,5.8c-0.1,0-0.1,0-0.2,0
		c0,0-0.1,0-0.1,0c-0.1,0-0.1,0-0.1-0.1c0,0-0.1-0.1-0.1-0.1s-0.1-0.1-0.1-0.2c0-0.1-0.1-0.1-0.1-0.2l-1.3-5.2H39.8z"/>
	<path class="st4" d="M51.1,53h-1.6l-0.3,2.1l-1.2,0.4v1.1h1.2v3.3c0,0.9,0.2,1.6,0.5,2s0.8,0.6,1.3,0.6h1.7v-1.2
		c-0.1,0-0.4-0.1-0.9-0.3c-0.1-0.1-0.3-0.1-0.3-0.2s-0.2-0.2-0.2-0.4c-0.1-0.2-0.1-0.5-0.1-0.8v-3h1.7v-1.5h-1.7V53z"/>
	<path class="st4" d="M58,55c-0.2,0-0.3,0-0.5,0c-0.1,0-0.3,0-0.4,0.1s-0.2,0.1-0.4,0.1c-0.1,0.1-0.2,0.1-0.3,0.1s-0.2,0.1-0.3,0.2
		c-0.1,0.1-0.2,0.2-0.3,0.2c0,0-0.1,0.1-0.3,0.2v-4.3h-1.9v11h2v-5.3c0.2-0.1,0.4-0.3,0.6-0.4c0.2-0.1,0.3-0.2,0.5-0.2
		c0.2-0.1,0.4-0.1,0.7-0.1s0.5,0.1,0.6,0.2c0.1,0.2,0.2,0.4,0.2,0.8v5h2v-5C60.2,55.9,59.5,55,58,55z"/>
	<path class="st4" d="M61.6,62.2c0,0.1,0,0.2,0.1,0.2c0.1,0.1,0.1,0.1,0.2,0.1h1.2c0.2,0,0.4-0.1,0.4-0.3V61c0-0.2-0.1-0.4-0.4-0.4
		H62c-0.2,0-0.3,0.1-0.3,0.4V62.2z"/>
	<path class="st4" d="M63.2,55.1H62c-0.2,0-0.3,0.1-0.3,0.4v1.3c0,0.1,0,0.2,0.1,0.2c0.1,0.1,0.1,0.1,0.2,0.1h1.2
		c0.2,0,0.4-0.1,0.4-0.3v-1.3C63.5,55.2,63.4,55.1,63.2,55.1z"/>
	<polygon class="st4" points="31.8,73.6 29.4,68.6 28.3,68.6 31.4,74.8 31.4,78.2 32.3,78.2 32.3,74.8 35.6,68.6 34.6,68.6 	"/>
	<path class="st4" d="M37.3,72c-0.4,0.5-0.7,1.5-0.7,2.9c0,1.3,0.2,2.1,0.7,2.7c0.4,0.5,1.2,0.8,2.4,0.8c1.2,0,2-0.2,2.4-0.7
		s0.7-1.4,0.7-2.7c0-1.4-0.2-2.3-0.7-2.8s-1.2-0.8-2.4-0.8C38.5,71.2,37.7,71.4,37.3,72z M41.2,72.6c0.2,0.2,0.3,0.4,0.4,0.8
		c0.1,0.4,0.1,0.8,0.1,1.5c0,0.6,0,1-0.1,1.3c-0.1,0.3-0.2,0.6-0.4,0.7c-0.2,0.2-0.4,0.3-0.6,0.3c-0.2,0-0.5,0.1-0.9,0.1
		c-0.4,0-0.7,0-0.9-0.1c-0.2,0-0.4-0.1-0.6-0.3c-0.2-0.2-0.3-0.4-0.4-0.7s-0.1-0.8-0.1-1.4c0-0.5,0-0.9,0.1-1.2s0.1-0.6,0.2-0.8
		c0.1-0.2,0.2-0.3,0.4-0.4c0.2-0.1,0.4-0.2,0.6-0.2s0.5,0,0.8,0c0.4,0,0.8,0,1,0.1C40.8,72.3,41,72.4,41.2,72.6z"/>
	<path class="st4" d="M44,71.3v4.8c0,0.6,0.2,1.1,0.6,1.6c0.4,0.4,0.9,0.7,1.6,0.7c0.1,0,0.3,0,0.4,0c0.1,0,0.2,0,0.3-0.1
		c0.1,0,0.2-0.1,0.3-0.1c0.1-0.1,0.2-0.1,0.3-0.1c0.1,0,0.2-0.1,0.3-0.1c0.1-0.1,0.2-0.1,0.3-0.1s0.1-0.1,0.3-0.2s0.3-0.2,0.3-0.2
		l0.3,0.8h0.7v-6.9h-1v5.3c-0.4,0.2-0.7,0.3-0.9,0.4s-0.4,0.1-0.7,0.2c-0.3,0.1-0.6,0.1-0.9,0.1c-0.3,0-0.6-0.1-0.8-0.3
		c-0.2-0.2-0.3-0.5-0.3-0.9v-4.8H44z"/>
	<path class="st4" d="M56.6,72.5c0.1-0.2,0.3-0.3,0.4-0.3c0.1,0,0.3-0.1,0.5-0.1c0.8,0,1.8,0,3,0.1v-0.7c-1.2-0.2-2.2-0.3-3-0.3
		c-0.4,0-0.7,0-0.9,0.1c-0.3,0.1-0.5,0.2-0.7,0.5c-0.2,0.2-0.4,0.6-0.5,1.1c-0.1,0.5-0.2,1.1-0.2,1.8c0,0.7,0.1,1.3,0.2,1.8
		c0.1,0.5,0.3,0.8,0.5,1.1c0.2,0.2,0.5,0.4,0.7,0.5c0.2,0.1,0.5,0.1,0.9,0.1c1.2,0,2.2-0.1,3.1-0.4v-0.7l-0.5,0
		c-0.3,0-0.8,0-1.3,0.1c-0.5,0-0.9,0-1.3,0c-0.5,0-0.8-0.2-1-0.5c-0.2-0.4-0.3-1-0.3-2c0-0.6,0-1.1,0.1-1.4S56.5,72.7,56.6,72.5z"/>
	<path class="st4" d="M66.3,73.3C66.3,73.3,66.3,73.3,66.3,73.3c0,0.3,0,0.5,0,0.7c-0.3,0-0.5,0-0.8,0c-0.6,0-1.3,0-2.1,0
		c-0.5,0-1,0.2-1.3,0.5c-0.3,0.3-0.5,0.7-0.5,1.3v0.8c0,0.5,0.2,1,0.5,1.3c0.3,0.3,0.7,0.5,1.2,0.5c0.2,0,0.5,0,0.7-0.1
		s0.5-0.1,0.8-0.2c0.2-0.1,0.5-0.2,0.7-0.3c0.2-0.1,0.4-0.2,0.5-0.2l0.2-0.1l0.2,0.8h0.7v-5c0-0.7-0.2-1.2-0.5-1.5s-0.8-0.5-1.4-0.5
		c0,0,0,0,0,0c-1.4,0-2.5,0.1-3.4,0.4v0.7c1.4-0.1,2.5-0.2,3.3-0.2c0.7,0,1.1,0.4,1.1,1.1C66.3,73.2,66.3,73.2,66.3,73.3
		C66.3,73.2,66.3,73.2,66.3,73.3z M66.3,76.6l-0.5,0.2c-0.3,0.1-0.7,0.2-1.2,0.3s-0.9,0.2-1.2,0.2c-0.5,0-0.8-0.3-0.8-0.8v-0.6
		c0-0.2,0.1-0.4,0.2-0.6c0.1-0.2,0.3-0.2,0.6-0.3l2.9-0.2V76.6z"/>
	<path class="st4" d="M74.3,78.2v-4.8c0-0.6-0.2-1.1-0.6-1.6c-0.4-0.4-0.9-0.6-1.6-0.6c-0.1,0-0.3,0-0.4,0c-0.1,0-0.2,0-0.3,0.1
		s-0.2,0.1-0.3,0.1s-0.2,0.1-0.3,0.1s-0.2,0.1-0.3,0.1c-0.1,0.1-0.2,0.1-0.3,0.1c0,0-0.1,0.1-0.3,0.2c-0.2,0.1-0.3,0.2-0.3,0.2
		l-0.3-0.8h-0.7v6.9h1v-5.3c0.4-0.2,0.7-0.3,0.9-0.4c0.2-0.1,0.4-0.1,0.7-0.2c0.3-0.1,0.6-0.1,0.9-0.1c0.3,0,0.6,0.1,0.8,0.3
		c0.2,0.2,0.3,0.5,0.3,0.9v4.8H74.3z"/>
	<path class="st4" d="M84.3,73.3C84.3,73.3,84.3,73.3,84.3,73.3c0,0.3,0,0.5,0,0.7c-0.3,0-0.5,0-0.8,0c-0.6,0-1.3,0-2.1,0
		c-0.5,0-1,0.2-1.3,0.5c-0.3,0.3-0.5,0.7-0.5,1.3v0.8c0,0.5,0.2,1,0.5,1.3c0.3,0.3,0.7,0.5,1.2,0.5c0.2,0,0.5,0,0.7-0.1
		s0.5-0.1,0.8-0.2c0.2-0.1,0.5-0.2,0.7-0.3c0.2-0.1,0.4-0.2,0.5-0.2l0.2-0.1l0.2,0.8h0.7v-5c0-0.7-0.2-1.2-0.5-1.5s-0.8-0.5-1.4-0.5
		c0,0,0,0,0,0c-1.4,0-2.5,0.1-3.4,0.4v0.7c1.4-0.1,2.5-0.2,3.3-0.2c0.7,0,1.1,0.4,1.1,1.1C84.3,73.2,84.3,73.2,84.3,73.3
		C84.3,73.2,84.3,73.2,84.3,73.3z M84.3,76.6l-0.5,0.2c-0.3,0.1-0.7,0.2-1.2,0.3s-0.9,0.2-1.2,0.2c-0.5,0-0.8-0.3-0.8-0.8v-0.6
		c0-0.2,0.1-0.4,0.2-0.6c0.1-0.2,0.3-0.2,0.6-0.3l2.9-0.2V76.6z"/>
	<polygon class="st4" points="88.9,78.2 89.9,78.2 92.6,71.3 91.6,71.3 89.4,76.7 87.2,71.3 86.2,71.3 	"/>
	<path class="st4" d="M99,72c-0.4-0.5-1.2-0.8-2.4-0.8c-1.1,0-1.9,0.3-2.4,0.8c-0.4,0.5-0.7,1.5-0.7,2.9c0,1.3,0.2,2.1,0.7,2.7
		c0.4,0.5,1.2,0.8,2.4,0.8c1.2,0,2-0.2,2.4-0.7s0.7-1.4,0.7-2.7C99.6,73.4,99.4,72.5,99,72z M98.5,76.2c-0.1,0.3-0.2,0.6-0.4,0.7
		c-0.2,0.2-0.4,0.3-0.6,0.3c-0.2,0-0.5,0.1-0.9,0.1c-0.4,0-0.7,0-0.9-0.1c-0.2,0-0.4-0.1-0.6-0.3c-0.2-0.2-0.3-0.4-0.4-0.7
		s-0.1-0.8-0.1-1.4c0-0.5,0-0.9,0.1-1.2s0.1-0.6,0.2-0.8c0.1-0.2,0.2-0.3,0.4-0.4c0.2-0.1,0.4-0.2,0.6-0.2s0.5,0,0.8,0
		c0.4,0,0.8,0,1,0.1c0.2,0,0.4,0.2,0.6,0.3s0.3,0.4,0.4,0.8c0.1,0.4,0.1,0.8,0.1,1.5C98.7,75.4,98.6,75.8,98.5,76.2z"/>
	<path class="st4" d="M101.2,70.4h0.7c0.2,0,0.3-0.1,0.3-0.3v-0.7c0-0.2-0.1-0.3-0.3-0.3h-0.7c-0.2,0-0.3,0.1-0.3,0.3v0.7
		C100.9,70.3,101,70.4,101.2,70.4z"/>
	<rect x="101" y="71.3" class="st4" width="1" height="6.9"/>
	<path class="st4" d="M104.6,77.9c0.3,0.2,0.7,0.3,1.1,0.3c0.4,0,0.9-0.1,1.4-0.3c0.5-0.2,0.9-0.4,1.1-0.5l0.3,0.8h0.7V68h-0.9v3.7
		c-0.4-0.2-0.8-0.3-1.3-0.4c-0.5-0.1-0.9-0.1-1.2-0.1c-0.5,0-0.9,0.1-1.2,0.3c-0.3,0.2-0.5,0.5-0.7,0.9c-0.2,0.4-0.3,0.7-0.3,1.1
		s-0.1,0.8-0.1,1.3c0,0.4,0,0.9,0.1,1.2c0.1,0.4,0.2,0.7,0.3,1.1S104.3,77.7,104.6,77.9z M104.8,72.7c0.2-0.4,0.5-0.6,1-0.6
		c0.8,0,1.7,0.1,2.5,0.3v4.2c-1,0.4-1.8,0.6-2.5,0.6c-0.9,0-1.3-0.8-1.3-2.5C104.4,73.7,104.5,73,104.8,72.7z"/>
	<path class="st4" d="M117.5,78.2h1.1v-0.7c-0.1,0-0.4-0.1-1.2-0.3c-0.3-0.1-0.4-0.2-0.6-0.4c-0.1-0.2-0.2-0.6-0.2-1.1v-3.5h2v-1h-2
		v-1.9H116l-0.2,1.9l-1.3,0.2v0.7h1.3v3.5C115.8,77.3,116.4,78.2,117.5,78.2z"/>
	<path class="st4" d="M119.9,68v10.2h1v-5.3c0.4-0.2,0.7-0.3,0.9-0.4c0.2-0.1,0.4-0.1,0.7-0.2c0.3-0.1,0.6-0.1,0.9-0.1
		c0.4,0,0.6,0.1,0.9,0.3c0.2,0.2,0.3,0.5,0.3,0.9v4.8h1v-4.8c0-0.6-0.2-1.1-0.6-1.6c-0.4-0.4-0.9-0.6-1.6-0.6c-0.1,0-0.3,0-0.4,0
		c-0.1,0-0.2,0-0.3,0.1s-0.2,0.1-0.3,0.1s-0.2,0.1-0.3,0.1s-0.2,0.1-0.3,0.1c-0.1,0.1-0.2,0.1-0.3,0.1c0,0-0.1,0.1-0.3,0.2
		c-0.2,0.1-0.3,0.2-0.3,0.2V68H119.9z"/>
	<path class="st4" d="M132.5,73.7c0-0.6-0.1-1-0.2-1.3s-0.3-0.6-0.6-0.7s-0.5-0.3-0.8-0.3s-0.6-0.1-1.1-0.1c-0.6,0-1.1,0-1.4,0.1
		c-0.3,0.1-0.6,0.2-0.9,0.5c-0.3,0.2-0.5,0.6-0.6,1.1c-0.1,0.5-0.2,1.1-0.2,1.8c0,1.4,0.2,2.3,0.5,2.8s0.9,0.8,1.8,0.8
		c1.3,0,2.4-0.1,3.3-0.4v-0.7c-0.6,0.1-1.5,0.1-2.7,0.1c-0.1,0-0.2,0-0.3,0c-0.1,0-0.2,0-0.3,0c-0.5,0-0.9-0.1-1-0.4
		c-0.2-0.3-0.3-0.8-0.3-1.6h2.9C131.9,75.2,132.5,74.7,132.5,73.7z M127.9,73.4c0-0.2,0.1-0.4,0.2-0.6c0.1-0.2,0.2-0.3,0.3-0.4
		c0.1-0.1,0.2-0.1,0.4-0.2c0.2,0,0.4-0.1,0.5-0.1c0.1,0,0.4,0,0.7,0c0.7,0,1.2,0.1,1.4,0.2c0.2,0.2,0.3,0.6,0.3,1.2
		c0,0.4-0.3,0.6-0.8,0.6h-2.9C127.8,73.9,127.9,73.6,127.9,73.4z"/>
	<path class="st4" d="M143.7,78.2v-4.8c0-0.6-0.2-1.1-0.6-1.6c-0.4-0.4-0.9-0.6-1.6-0.6c-0.1,0-0.3,0-0.4,0c-0.1,0-0.2,0-0.3,0.1
		s-0.2,0.1-0.3,0.1s-0.2,0.1-0.3,0.1s-0.2,0.1-0.3,0.1c-0.1,0.1-0.2,0.1-0.3,0.1c0,0-0.1,0.1-0.3,0.2c-0.2,0.1-0.3,0.2-0.3,0.2
		l-0.3-0.8h-0.7v6.9h1v-5.3c0.4-0.2,0.7-0.3,0.9-0.4c0.2-0.1,0.4-0.1,0.7-0.2c0.3-0.1,0.6-0.1,0.9-0.1c0.3,0,0.6,0.1,0.8,0.3
		c0.2,0.2,0.3,0.5,0.3,0.9v4.8H143.7z"/>
	<path class="st4" d="M150.7,73.7c0-0.6-0.1-1-0.2-1.3s-0.3-0.6-0.6-0.7s-0.5-0.3-0.8-0.3s-0.6-0.1-1.1-0.1c-0.6,0-1.1,0-1.4,0.1
		c-0.3,0.1-0.6,0.2-0.9,0.5c-0.3,0.2-0.5,0.6-0.6,1.1c-0.1,0.5-0.2,1.1-0.2,1.8c0,1.4,0.2,2.3,0.5,2.8s0.9,0.8,1.8,0.8
		c1.3,0,2.4-0.1,3.3-0.4v-0.7c-0.6,0.1-1.5,0.1-2.7,0.1c-0.1,0-0.2,0-0.3,0c-0.1,0-0.2,0-0.3,0c-0.5,0-0.9-0.1-1-0.4
		c-0.2-0.3-0.3-0.8-0.3-1.6h2.9C150.1,75.2,150.7,74.7,150.7,73.7z M146,73.4c0-0.2,0.1-0.4,0.2-0.6c0.1-0.2,0.2-0.3,0.3-0.4
		c0.1-0.1,0.2-0.1,0.4-0.2c0.2,0,0.4-0.1,0.5-0.1c0.1,0,0.4,0,0.7,0c0.7,0,1.2,0.1,1.4,0.2c0.2,0.2,0.3,0.6,0.3,1.2
		c0,0.4-0.3,0.6-0.8,0.6H146C146,73.9,146,73.6,146,73.4z"/>
	<polygon class="st4" points="157.7,78.2 158.7,78.2 161.3,71.3 160.3,71.3 158.2,76.7 156.7,73.5 157.4,71.3 156.3,71.3 
		154.5,76.7 152.5,71.3 151.4,71.3 154,78.2 155.1,78.2 156.2,74.8 	"/>
	<path class="st4" d="M29.1,93.2c0.2,0.2,0.5,0.4,0.7,0.5c0.2,0.1,0.5,0.1,0.9,0.1c1.2,0,2.2-0.1,3.1-0.4v-0.7l-0.5,0
		c-0.3,0-0.8,0-1.3,0.1s-0.9,0-1.3,0c-0.5,0-0.8-0.2-1-0.5c-0.2-0.4-0.3-1-0.3-2c0-0.6,0-1.1,0.1-1.4c0.1-0.4,0.2-0.6,0.3-0.8
		s0.3-0.3,0.4-0.3c0.1,0,0.3-0.1,0.5-0.1c0.8,0,1.8,0,3,0.1v-0.7c-1.2-0.2-2.2-0.3-3-0.3c-0.4,0-0.7,0-0.9,0.1
		c-0.3,0.1-0.5,0.2-0.7,0.5s-0.4,0.6-0.5,1.1c-0.1,0.5-0.2,1.1-0.2,1.8c0,0.7,0.1,1.3,0.2,1.8C28.7,92.6,28.8,93,29.1,93.2z"/>
	<path class="st4" d="M37.9,86.8c-1.1,0-1.9,0.3-2.4,0.8c-0.4,0.5-0.7,1.5-0.7,2.9c0,1.3,0.2,2.1,0.7,2.7c0.4,0.5,1.2,0.8,2.4,0.8
		c1.2,0,2-0.2,2.4-0.7c0.4-0.5,0.7-1.4,0.7-2.7c0-1.4-0.2-2.3-0.7-2.8S39.1,86.8,37.9,86.8z M39.9,91.8c-0.1,0.3-0.2,0.6-0.4,0.7
		c-0.2,0.2-0.4,0.3-0.6,0.3c-0.2,0-0.5,0.1-0.9,0.1c-0.4,0-0.7,0-0.9-0.1c-0.2,0-0.4-0.1-0.6-0.3c-0.2-0.2-0.3-0.4-0.4-0.7
		s-0.1-0.8-0.1-1.4c0-0.5,0-0.9,0.1-1.2s0.1-0.6,0.2-0.8c0.1-0.2,0.2-0.3,0.4-0.4s0.4-0.2,0.6-0.2c0.2,0,0.5,0,0.8,0
		c0.4,0,0.8,0,1,0.1c0.2,0,0.4,0.2,0.6,0.3s0.3,0.4,0.4,0.8c0.1,0.4,0.1,0.8,0.1,1.5C40,91,40,91.4,39.9,91.8z"/>
	<path class="st4" d="M43.4,87.7l-0.3-0.9h-0.7v6.9h1v-5.3c0.4-0.2,0.7-0.4,0.9-0.4c0.2-0.1,0.4-0.2,0.7-0.2
		c0.3-0.1,0.6-0.1,0.9-0.1c0.4,0,0.8,0,1,0.1v-0.9c-0.1-0.1-0.5-0.1-1-0.1c-0.1,0-0.3,0-0.4,0s-0.3,0-0.4,0.1
		c-0.1,0-0.3,0.1-0.4,0.1s-0.2,0.1-0.4,0.2c-0.2,0.1-0.3,0.1-0.3,0.2c-0.1,0-0.2,0.1-0.4,0.2C43.5,87.6,43.4,87.7,43.4,87.7z"/>
	<path class="st4" d="M47.8,90.4c0,1.3,0.2,2.1,0.7,2.7c0.4,0.5,1.2,0.8,2.4,0.8c1.2,0,2-0.2,2.4-0.7c0.4-0.5,0.7-1.4,0.7-2.7
		c0-1.4-0.2-2.3-0.7-2.8s-1.2-0.8-2.4-0.8c-1.1,0-1.9,0.3-2.4,0.8C48,88.1,47.8,89,47.8,90.4z M48.9,89.2c0.1-0.3,0.1-0.6,0.2-0.8
		c0.1-0.2,0.2-0.3,0.4-0.4s0.4-0.2,0.6-0.2c0.2,0,0.5,0,0.8,0c0.4,0,0.8,0,1,0.1c0.2,0,0.4,0.2,0.6,0.3s0.3,0.4,0.4,0.8
		c0.1,0.4,0.1,0.8,0.1,1.5c0,0.6,0,1-0.1,1.3c-0.1,0.3-0.2,0.6-0.4,0.7c-0.2,0.2-0.4,0.3-0.6,0.3c-0.2,0-0.5,0.1-0.9,0.1
		c-0.4,0-0.7,0-0.9-0.1c-0.2,0-0.4-0.1-0.6-0.3c-0.2-0.2-0.3-0.4-0.4-0.7s-0.1-0.8-0.1-1.4C48.8,89.9,48.8,89.5,48.9,89.2z"/>
	<path class="st4" d="M61,93.8V89c0-0.6-0.2-1.1-0.6-1.6c-0.4-0.4-0.9-0.7-1.6-0.7c-0.1,0-0.3,0-0.4,0c-0.1,0-0.2,0-0.3,0.1
		s-0.2,0.1-0.3,0.1C57.6,87,57.5,87,57.5,87s-0.2,0.1-0.3,0.1c-0.1,0.1-0.2,0.1-0.3,0.1c0,0-0.1,0.1-0.3,0.2
		c-0.2,0.1-0.3,0.2-0.3,0.2L56,86.9h-0.7v6.9h1v-5.3c0.4-0.2,0.7-0.3,0.9-0.4c0.2-0.1,0.4-0.1,0.7-0.2c0.3-0.1,0.6-0.1,0.9-0.1
		c0.3,0,0.6,0.1,0.8,0.3c0.2,0.2,0.3,0.5,0.3,0.9v4.8H61z"/>
	<path class="st4" d="M64.6,93.8c0.3-0.1,0.5-0.1,0.8-0.2c0.2-0.1,0.5-0.2,0.7-0.3s0.4-0.2,0.5-0.2l0.2-0.1l0.2,0.8h0.7v-5
		c0-0.7-0.2-1.2-0.5-1.5c-0.4-0.3-0.8-0.5-1.4-0.5c0,0,0,0,0,0c-1.4,0-2.5,0.1-3.4,0.4v0.7c1.4-0.1,2.5-0.2,3.3-0.2
		c0.7,0,1.1,0.4,1.1,1.1c0,0,0,0,0,0.1s0,0,0,0.1c0,0,0,0.1,0,0.1c0,0.2,0,0.4,0,0.6c-0.3,0-0.5,0-0.8,0c-0.6,0-1.3,0-2.1,0
		c-0.5,0-1,0.2-1.3,0.5c-0.3,0.3-0.5,0.7-0.5,1.3v0.8c0,0.5,0.2,1,0.5,1.3c0.3,0.3,0.7,0.5,1.2,0.5C64.1,93.8,64.3,93.8,64.6,93.8z
		 M63.1,92.1v-0.7c0-0.2,0.1-0.4,0.2-0.6c0.1-0.2,0.3-0.2,0.6-0.3l2.9-0.2v1.9l-0.5,0.2c-0.3,0.1-0.7,0.2-1.2,0.3
		c-0.5,0.1-0.9,0.2-1.2,0.2C63.4,92.9,63.1,92.6,63.1,92.1z"/>
	<polygon class="st4" points="71.4,93.8 72.3,93.8 75.1,86.9 74,86.9 71.8,92.3 69.7,86.9 68.6,86.9 	"/>
	<path class="st4" d="M77.3,85c0-0.2-0.1-0.3-0.3-0.3h-0.7c-0.2,0-0.3,0.1-0.3,0.3v0.7c0,0.2,0.1,0.3,0.3,0.3H77
		c0.2,0,0.3-0.1,0.3-0.3V85z"/>
	<rect x="76.1" y="86.9" class="st4" width="1" height="6.9"/>
	<path class="st4" d="M79.4,86.9h-0.7v6.9h1v-5.3c0.4-0.2,0.7-0.4,0.9-0.4c0.2-0.1,0.4-0.2,0.7-0.2c0.3-0.1,0.6-0.1,0.9-0.1
		c0.4,0,0.8,0,1,0.1v-0.9c-0.1-0.1-0.5-0.1-1-0.1c-0.1,0-0.3,0-0.4,0s-0.3,0-0.4,0.1c-0.1,0-0.3,0.1-0.4,0.1s-0.2,0.1-0.4,0.2
		c-0.2,0.1-0.3,0.1-0.3,0.2c-0.1,0-0.2,0.1-0.4,0.2c-0.2,0.1-0.3,0.2-0.3,0.2L79.4,86.9z"/>
	<path class="st4" d="M85.1,91.7v-4.8h-1v4.8c0,0.6,0.2,1.1,0.6,1.6c0.4,0.4,0.9,0.7,1.6,0.7c0.1,0,0.3,0,0.4,0s0.2,0,0.3-0.1
		c0.1,0,0.2-0.1,0.3-0.1s0.2-0.1,0.3-0.1c0.1,0,0.2-0.1,0.3-0.1c0.1-0.1,0.2-0.1,0.3-0.1c0,0,0.1-0.1,0.3-0.2s0.3-0.2,0.3-0.2
		l0.3,0.8h0.7v-6.9h-1v5.3c-0.4,0.2-0.7,0.3-0.9,0.4c-0.2,0.1-0.4,0.1-0.7,0.2s-0.6,0.1-0.9,0.1c-0.3,0-0.6-0.1-0.8-0.3
		C85.2,92.4,85.1,92.1,85.1,91.7z"/>
	<path class="st4" d="M92,88.2c0-0.1,0-0.1,0.1-0.2c0-0.1,0.1-0.1,0.3-0.2c0.1,0,0.3-0.1,0.5-0.1h3.4V87c-1.4-0.1-2.6-0.2-3.4-0.2
		c-0.6,0-1.1,0.1-1.4,0.4c-0.3,0.3-0.4,0.7-0.4,1.3v0.6c0,0.7,0.1,1.1,0.4,1.3c0.3,0.2,0.7,0.4,1.4,0.4h2.1c0.3,0,0.5,0.1,0.6,0.2
		c0.1,0.1,0.2,0.3,0.2,0.5v0.6c0,0.1,0,0.3-0.1,0.4c-0.1,0.1-0.1,0.2-0.2,0.2c-0.1,0-0.2,0.1-0.2,0.1c-0.1,0-0.1,0-0.2,0
		c0,0,0,0-0.1,0h-3.6v0.7c1.6,0.2,2.8,0.2,3.6,0.2c0.5,0,0.9-0.1,1.2-0.4c0.3-0.2,0.5-0.7,0.5-1.3v-0.6c0-0.5-0.1-0.9-0.4-1.2
		c-0.3-0.3-0.7-0.5-1.3-0.5h-2.1c-0.1,0-0.3,0-0.3,0c-0.1,0-0.2,0-0.2-0.1c-0.1,0-0.1-0.1-0.2-0.2c0-0.1-0.1-0.2-0.1-0.4v-0.6
		C92,88.4,92,88.3,92,88.2z"/>
	<path class="st4" d="M102.9,86c0.2,0,0.3-0.1,0.3-0.3V85c0-0.2-0.1-0.3-0.3-0.3h-0.7c-0.2,0-0.3,0.1-0.3,0.3v0.7
		c0,0.2,0.1,0.3,0.3,0.3H102.9z"/>
	<rect x="102.1" y="86.9" class="st4" width="1" height="6.9"/>
	<path class="st4" d="M109,88c0.2,0.2,0.3,0.5,0.3,0.9v4.8h1V89c0-0.6-0.2-1.1-0.6-1.6c-0.4-0.4-0.9-0.7-1.6-0.7c-0.1,0-0.3,0-0.4,0
		c-0.1,0-0.2,0-0.3,0.1s-0.2,0.1-0.3,0.1c-0.1,0.1-0.2,0.1-0.3,0.1s-0.2,0.1-0.3,0.1c-0.1,0.1-0.2,0.1-0.3,0.1c0,0-0.1,0.1-0.3,0.2
		c-0.2,0.1-0.3,0.2-0.3,0.2l-0.3-0.8h-0.7v6.9h1v-5.3c0.4-0.2,0.7-0.3,0.9-0.4c0.2-0.1,0.4-0.1,0.7-0.2c0.3-0.1,0.6-0.1,0.9-0.1
		C108.5,87.7,108.8,87.8,109,88z"/>
	<path class="st4" d="M111.2,87.8h1.3v5.9h1v-5.9h1.9v-1h-1.9v-1.3c0-0.2,0-0.3,0-0.4c0-0.1,0-0.2,0.1-0.3c0-0.1,0.1-0.2,0.2-0.2
		c0.1-0.1,0.3-0.1,0.5-0.1c0,0,0,0,0,0l1.6,0v-0.6c-0.7-0.2-1.3-0.3-1.8-0.3c-0.3,0-0.5,0-0.8,0.1s-0.4,0.2-0.5,0.4
		c-0.1,0.1-0.2,0.3-0.2,0.5c-0.1,0.2-0.1,0.4-0.1,0.5c0,0.1,0,0.3,0,0.5v1.3l-1.3,0.2V87.8z"/>
	<path class="st4" d="M122.5,89.3c0-0.6-0.1-1-0.2-1.3s-0.3-0.6-0.6-0.7c-0.3-0.2-0.5-0.3-0.8-0.3c-0.3,0-0.6-0.1-1.1-0.1
		c-0.6,0-1.1,0-1.4,0.1c-0.3,0.1-0.6,0.2-0.9,0.5c-0.3,0.2-0.5,0.6-0.6,1.1c-0.1,0.5-0.2,1.1-0.2,1.8c0,1.4,0.2,2.3,0.5,2.8
		c0.3,0.5,0.9,0.8,1.8,0.8c1.3,0,2.4-0.1,3.3-0.4v-0.7c-0.6,0.1-1.5,0.1-2.7,0.1c-0.1,0-0.2,0-0.3,0c-0.1,0-0.2,0-0.3,0
		c-0.5,0-0.9-0.1-1-0.4c-0.2-0.3-0.3-0.8-0.3-1.6h2.9C121.9,90.8,122.5,90.3,122.5,89.3z M117.8,89c0-0.2,0.1-0.4,0.2-0.6
		c0.1-0.2,0.2-0.3,0.3-0.4c0.1-0.1,0.2-0.1,0.4-0.2c0.2,0,0.4-0.1,0.5-0.1c0.1,0,0.4,0,0.7,0c0.7,0,1.2,0.1,1.4,0.2
		c0.2,0.2,0.3,0.6,0.3,1.2c0,0.4-0.3,0.6-0.8,0.6h-2.9C117.8,89.5,117.8,89.2,117.8,89z"/>
	<path class="st4" d="M129,92.7l-0.5,0c-0.3,0-0.8,0-1.3,0.1s-0.9,0-1.3,0c-0.5,0-0.8-0.2-1-0.5c-0.2-0.4-0.3-1-0.3-2
		c0-0.6,0-1.1,0.1-1.4c0.1-0.4,0.2-0.6,0.3-0.8s0.3-0.3,0.4-0.3c0.1,0,0.3-0.1,0.5-0.1c0.8,0,1.8,0,3,0.1v-0.7
		c-1.2-0.2-2.2-0.3-3-0.3c-0.4,0-0.7,0-0.9,0.1c-0.3,0.1-0.5,0.2-0.7,0.5s-0.4,0.6-0.5,1.1c-0.1,0.5-0.2,1.1-0.2,1.8
		c0,0.7,0.1,1.3,0.2,1.8c0.1,0.5,0.3,0.8,0.5,1.1s0.5,0.4,0.7,0.5c0.2,0.1,0.5,0.1,0.9,0.1c1.2,0,2.2-0.1,3.1-0.4V92.7z"/>
	<path class="st4" d="M134,87.8v-1h-2v-1.9h-0.7l-0.2,1.9l-1.3,0.2v0.7h1.3v3.5c0,1.6,0.6,2.5,1.7,2.5h1.1v-0.7
		c-0.1,0-0.4-0.1-1.2-0.3c-0.3-0.1-0.4-0.2-0.6-0.4c-0.1-0.2-0.2-0.6-0.2-1.1v-3.5H134z"/>
	<path class="st4" d="M136.3,85.7V85c0-0.2-0.1-0.3-0.3-0.3h-0.7c-0.2,0-0.3,0.1-0.3,0.3v0.7c0,0.2,0.1,0.3,0.3,0.3h0.7
		C136.2,86,136.3,85.9,136.3,85.7z"/>
	<rect x="135.2" y="86.9" class="st4" width="1" height="6.9"/>
	<path class="st4" d="M143.7,90.4c0-1.4-0.2-2.3-0.7-2.8s-1.2-0.8-2.4-0.8c-1.1,0-1.9,0.3-2.4,0.8c-0.4,0.5-0.7,1.5-0.7,2.9
		c0,1.3,0.2,2.1,0.7,2.7c0.4,0.5,1.2,0.8,2.4,0.8c1.2,0,2-0.2,2.4-0.7C143.5,92.6,143.7,91.7,143.7,90.4z M142.6,91.8
		c-0.1,0.3-0.2,0.6-0.4,0.7c-0.2,0.2-0.4,0.3-0.6,0.3c-0.2,0-0.5,0.1-0.9,0.1c-0.4,0-0.7,0-0.9-0.1c-0.2,0-0.4-0.1-0.6-0.3
		c-0.2-0.2-0.3-0.4-0.4-0.7s-0.1-0.8-0.1-1.4c0-0.5,0-0.9,0.1-1.2s0.1-0.6,0.2-0.8c0.1-0.2,0.2-0.3,0.4-0.4s0.4-0.2,0.6-0.2
		c0.2,0,0.5,0,0.8,0c0.4,0,0.8,0,1,0.1c0.2,0,0.4,0.2,0.6,0.3s0.3,0.4,0.4,0.8c0.1,0.4,0.1,0.8,0.1,1.5
		C142.7,91,142.7,91.4,142.6,91.8z"/>
	<path class="st4" d="M149.5,88c0.2,0.2,0.3,0.5,0.3,0.9v4.8h1V89c0-0.6-0.2-1.1-0.6-1.6c-0.4-0.4-0.9-0.7-1.6-0.7
		c-0.1,0-0.3,0-0.4,0c-0.1,0-0.2,0-0.3,0.1s-0.2,0.1-0.3,0.1c-0.1,0.1-0.2,0.1-0.3,0.1s-0.2,0.1-0.3,0.1c-0.1,0.1-0.2,0.1-0.3,0.1
		c0,0-0.1,0.1-0.3,0.2c-0.2,0.1-0.3,0.2-0.3,0.2l-0.3-0.8h-0.7v6.9h1v-5.3c0.4-0.2,0.7-0.3,0.9-0.4c0.2-0.1,0.4-0.1,0.7-0.2
		c0.3-0.1,0.6-0.1,0.9-0.1C149,87.7,149.3,87.8,149.5,88z"/>
	<path class="st4" d="M162.1,89c-0.1-0.4-0.2-0.8-0.3-1.1s-0.4-0.7-0.7-0.9s-0.7-0.3-1.2-0.3c-0.3,0-0.7,0-1.2,0.1
		c-0.5,0.1-0.9,0.2-1.3,0.4v-3.7h-0.9v10.2h0.7l0.3-0.8c0.2,0.2,0.6,0.3,1.1,0.5c0.5,0.2,1,0.3,1.4,0.3c0.5,0,0.8-0.1,1.1-0.3
		c0.3-0.2,0.5-0.5,0.7-0.9c0.2-0.4,0.3-0.7,0.3-1.1c0.1-0.4,0.1-0.8,0.1-1.2C162.2,89.8,162.2,89.4,162.1,89z M159.9,92.9
		c-0.7,0-1.6-0.2-2.5-0.6v-4.2c0.9-0.2,1.7-0.3,2.5-0.3c0.5,0,0.8,0.2,1,0.6c0.2,0.4,0.3,1.1,0.3,2.1
		C161.2,92,160.8,92.9,159.9,92.9z"/>
	<path class="st4" d="M165.7,97.3l1-1.3l3-9.1h-1.1l-2,5.9c0,0-0.1,0-0.2,0c-0.1,0-0.3,0-0.4-0.1s-0.2-0.2-0.3-0.4l-1.7-5.4h-1.1
		l1.7,5.5c0.3,1,0.8,1.4,1.6,1.4l-1.2,3.5H165.7z"/>
	<path class="st4" d="M28,103.4h1.3v3.5c0,1.6,0.6,2.5,1.7,2.5h1.1v-0.7c-0.1,0-0.4-0.1-1.2-0.3c-0.3-0.1-0.4-0.2-0.6-0.4
		c-0.1-0.2-0.2-0.6-0.2-1.1v-3.5h2v-1h-2v-1.9h-0.7l-0.2,1.9l-1.3,0.2V103.4z"/>
	<path class="st4" d="M37.8,104.5C37.8,104.5,37.8,104.5,37.8,104.5c0,0.3,0,0.5,0,0.7c-0.3,0-0.5,0-0.8,0c-0.6,0-1.3,0-2.1,0
		c-0.5,0-1,0.2-1.3,0.5c-0.3,0.3-0.5,0.7-0.5,1.3v0.8c0,0.5,0.2,1,0.5,1.3c0.3,0.3,0.7,0.5,1.2,0.5c0.2,0,0.5,0,0.7-0.1
		s0.5-0.1,0.8-0.2c0.2-0.1,0.5-0.2,0.7-0.3c0.2-0.1,0.4-0.2,0.5-0.2l0.2-0.1l0.2,0.8h0.7v-5c0-0.7-0.2-1.2-0.5-1.5s-0.8-0.5-1.4-0.5
		c0,0,0,0,0,0c-1.4,0-2.5,0.1-3.4,0.4v0.7c1.4-0.1,2.5-0.2,3.3-0.2c0.7,0,1.1,0.4,1.1,1.1C37.8,104.4,37.8,104.4,37.8,104.5
		C37.8,104.4,37.8,104.4,37.8,104.5z M37.8,107.8l-0.5,0.2c-0.3,0.1-0.7,0.2-1.2,0.3s-0.9,0.2-1.2,0.2c-0.5,0-0.8-0.3-0.8-0.8V107
		c0-0.2,0.1-0.4,0.2-0.6c0.1-0.2,0.3-0.2,0.6-0.3l2.9-0.2V107.8z"/>
	<polygon class="st4" points="40.2,99.2 40.2,109.4 41.2,109.4 41.2,105.9 41.7,105.9 44.5,109.4 45.7,109.4 42.6,105.4 45.7,102.5 
		44.3,102.5 41.7,104.9 41.2,104.9 41.2,99.2 	"/>
	<rect x="46.7" y="102.5" class="st4" width="1" height="6.9"/>
	<path class="st4" d="M47.8,101.3v-0.7c0-0.2-0.1-0.3-0.3-0.3h-0.7c-0.2,0-0.3,0.1-0.3,0.3v0.7c0,0.2,0.1,0.3,0.3,0.3h0.7
		C47.7,101.6,47.8,101.5,47.8,101.3z"/>
	<path class="st4" d="M51.8,103.4c0.3-0.1,0.6-0.1,0.9-0.1c0.3,0,0.6,0.1,0.8,0.3c0.2,0.2,0.3,0.5,0.3,0.9v4.8h1v-4.8
		c0-0.6-0.2-1.1-0.6-1.6c-0.4-0.4-0.9-0.6-1.6-0.6c-0.1,0-0.3,0-0.4,0c-0.1,0-0.2,0-0.3,0.1s-0.2,0.1-0.3,0.1s-0.2,0.1-0.3,0.1
		s-0.2,0.1-0.3,0.1c-0.1,0.1-0.2,0.1-0.3,0.1c0,0-0.1,0.1-0.3,0.2c-0.2,0.1-0.3,0.2-0.3,0.2l-0.3-0.8h-0.7v6.9h1V104
		c0.4-0.2,0.7-0.3,0.9-0.4C51.3,103.6,51.5,103.5,51.8,103.4z"/>
	<path class="st4" d="M60.2,112.9c0.4,0,0.7-0.1,1-0.2s0.5-0.3,0.6-0.5c0.1-0.2,0.2-0.4,0.3-0.6s0.1-0.4,0.1-0.7v-0.8
		c0-0.5-0.1-1-0.4-1.3s-0.7-0.5-1.2-0.5h-2.8c-0.4,0-0.5-0.1-0.5-0.4c0-0.3,0.2-0.4,0.5-0.4h2c0.4,0,0.8-0.1,1.1-0.3
		c0.3-0.2,0.5-0.4,0.7-0.7c0.1-0.3,0.2-0.6,0.3-0.8c0.1-0.3,0.1-0.5,0.1-0.7c0-0.2,0-0.3,0-0.5c0-0.1,0-0.3-0.1-0.4
		c0-0.1-0.1-0.2-0.1-0.2c0-0.1-0.1-0.1-0.1-0.2c-0.1-0.1-0.1-0.1-0.1-0.2l1.1-0.2v-0.7h-4.1c-0.7,0-1.3,0.2-1.7,0.6s-0.6,1-0.6,1.8
		c0,0.9,0.3,1.6,0.8,1.9c-0.3,0.1-0.4,0.2-0.6,0.4c-0.1,0.2-0.2,0.4-0.2,0.7c0,0.5,0.2,0.8,0.5,1.1l-0.5,0.8v1.1
		c0,0.7,0.2,1.2,0.6,1.5s0.9,0.5,1.5,0.5H60.2z M58.4,103.4h1.2c0.5,0,0.8,0.1,1,0.4c0.2,0.2,0.3,0.6,0.3,1.1c0,0,0,0.1,0,0.1
		c0,0.2,0,0.3-0.1,0.5c0,0.2-0.1,0.3-0.2,0.5c-0.1,0.2-0.2,0.3-0.4,0.4c-0.2,0.1-0.4,0.1-0.6,0.1h-1.3c-0.2,0-0.4,0-0.6-0.1
		s-0.3-0.2-0.4-0.4s-0.1-0.3-0.2-0.5c0-0.2-0.1-0.3-0.1-0.5C57.1,103.9,57.6,103.4,58.4,103.4z M57.1,110.9v-1.8l0.1,0
		c0,0,0.1,0,0.2,0.1c0.1,0,0.2,0,0.3,0h2.6c0.4,0,0.6,0.1,0.7,0.2c0.1,0.1,0.2,0.4,0.2,0.7v0.8c0,0.7-0.3,1-1,1h-2
		C57.5,111.9,57.1,111.6,57.1,110.9z"/>
	<path class="st4" d="M67.7,103.4c1.4-0.1,2.5-0.2,3.3-0.2c0.7,0,1.1,0.4,1.1,1.1c0,0,0,0,0,0.1s0,0,0,0.1s0,0.1,0,0.1
		c0,0.2,0,0.4,0,0.6c-0.3,0-0.5,0-0.8,0c-0.6,0-1.3,0-2.1,0c-0.5,0-1,0.2-1.3,0.5c-0.3,0.3-0.5,0.7-0.5,1.3v0.8c0,0.5,0.2,1,0.5,1.3
		c0.3,0.3,0.7,0.5,1.2,0.5c0.2,0,0.5,0,0.7-0.1s0.5-0.1,0.8-0.2c0.2-0.1,0.5-0.2,0.7-0.3c0.2-0.1,0.4-0.2,0.5-0.2l0.2-0.1l0.2,0.8
		h0.7v-5c0-0.7-0.2-1.2-0.5-1.5s-0.8-0.5-1.4-0.5c0,0,0,0,0,0c-1.4,0-2.5,0.1-3.4,0.4V103.4z M72.1,107.8l-0.5,0.2
		c-0.3,0.1-0.7,0.2-1.2,0.3s-0.9,0.2-1.2,0.2c-0.5,0-0.8-0.3-0.8-0.8V107c0-0.2,0.1-0.4,0.2-0.6c0.1-0.2,0.3-0.2,0.6-0.3l2.9-0.2
		V107.8z"/>
	<path class="st4" d="M84.4,109.4v-4.8c0-0.6-0.2-1.1-0.6-1.6c-0.4-0.4-0.9-0.6-1.6-0.6c-0.1,0-0.3,0-0.4,0c-0.1,0-0.2,0-0.3,0.1
		s-0.2,0.1-0.3,0.1s-0.2,0.1-0.3,0.1s-0.2,0.1-0.3,0.1c-0.1,0.1-0.2,0.1-0.3,0.1c0,0-0.1,0.1-0.3,0.2c-0.2,0.1-0.3,0.2-0.3,0.2v-4.1
		h-1v10.2h1V104c0.4-0.2,0.7-0.3,0.9-0.4c0.2-0.1,0.4-0.1,0.7-0.2c0.3-0.1,0.6-0.1,0.9-0.1c0.4,0,0.6,0.1,0.9,0.3
		c0.2,0.2,0.3,0.5,0.3,0.9v4.8H84.4z"/>
	<path class="st4" d="M88.7,102.4c-1.1,0-1.9,0.3-2.4,0.8c-0.4,0.5-0.7,1.5-0.7,2.9c0,1.3,0.2,2.1,0.7,2.7c0.4,0.5,1.2,0.8,2.4,0.8
		c1.2,0,2-0.2,2.4-0.7s0.7-1.4,0.7-2.7c0-1.4-0.2-2.3-0.7-2.8S89.9,102.4,88.7,102.4z M90.7,107.4c-0.1,0.3-0.2,0.6-0.4,0.7
		c-0.2,0.2-0.4,0.3-0.6,0.3c-0.2,0-0.5,0.1-0.9,0.1c-0.4,0-0.7,0-0.9-0.1c-0.2,0-0.4-0.1-0.6-0.3c-0.2-0.2-0.3-0.4-0.4-0.7
		s-0.1-0.8-0.1-1.4c0-0.5,0-0.9,0.1-1.2s0.1-0.6,0.2-0.8c0.1-0.2,0.2-0.3,0.4-0.4c0.2-0.1,0.4-0.2,0.6-0.2s0.5,0,0.8,0
		c0.4,0,0.8,0,1,0.1c0.2,0,0.4,0.2,0.6,0.3s0.3,0.4,0.4,0.8c0.1,0.4,0.1,0.8,0.1,1.5C90.8,106.6,90.7,107,90.7,107.4z"/>
	<path class="st4" d="M96.9,103.4v-1h-2v-1.9h-0.7l-0.2,1.9l-1.3,0.2v0.7h1.3v3.5c0,1.6,0.6,2.5,1.7,2.5h1.1v-0.7
		c-0.1,0-0.4-0.1-1.2-0.3c-0.3-0.1-0.4-0.2-0.6-0.4c-0.1-0.2-0.2-0.6-0.2-1.1v-3.5H96.9z"/>
	<path class="st4" d="M103.3,108.6c0.2,0.2,0.6,0.3,1.1,0.5c0.5,0.2,1,0.3,1.4,0.3c0.5,0,0.8-0.1,1.1-0.3c0.3-0.2,0.5-0.5,0.7-0.9
		s0.3-0.7,0.3-1.1c0.1-0.4,0.1-0.8,0.1-1.2c0-0.5,0-0.9-0.1-1.3c-0.1-0.4-0.2-0.7-0.3-1.1c-0.2-0.4-0.4-0.7-0.7-0.9
		c-0.3-0.2-0.7-0.3-1.2-0.3c-0.3,0-0.7,0-1.2,0.1c-0.5,0.1-0.9,0.2-1.3,0.4v-3.7h-0.9v10.2h0.7L103.3,108.6z M103.3,103.7
		c0.9-0.2,1.7-0.3,2.5-0.3c0.5,0,0.8,0.2,1,0.6c0.2,0.4,0.3,1.1,0.3,2.1c0,1.7-0.4,2.5-1.3,2.5c-0.7,0-1.6-0.2-2.5-0.6V103.7z"/>
	<path class="st4" d="M111,109.4c0.2,0,0.5,0,0.7-0.1s0.5-0.1,0.8-0.2c0.2-0.1,0.5-0.2,0.7-0.3c0.2-0.1,0.4-0.2,0.5-0.2l0.2-0.1
		l0.2,0.8h0.7v-5c0-0.7-0.2-1.2-0.5-1.5s-0.8-0.5-1.4-0.5c0,0,0,0,0,0c-1.4,0-2.5,0.1-3.4,0.4v0.7c1.4-0.1,2.5-0.2,3.3-0.2
		c0.7,0,1.1,0.4,1.1,1.1c0,0,0,0,0,0.1s0,0,0,0.1s0,0.1,0,0.1c0,0.2,0,0.4,0,0.6c-0.3,0-0.5,0-0.8,0c-0.6,0-1.3,0-2.1,0
		c-0.5,0-1,0.2-1.3,0.5c-0.3,0.3-0.5,0.7-0.5,1.3v0.8c0,0.5,0.2,1,0.5,1.3C110.1,109.3,110.5,109.4,111,109.4z M110.2,107
		c0-0.2,0.1-0.4,0.2-0.6c0.1-0.2,0.3-0.2,0.6-0.3l2.9-0.2v1.9l-0.5,0.2c-0.3,0.1-0.7,0.2-1.2,0.3s-0.9,0.2-1.2,0.2
		c-0.5,0-0.8-0.3-0.8-0.8V107z"/>
	<path class="st4" d="M118.7,109.4h1.1v-0.7c-0.1,0-0.4-0.1-1.2-0.3c-0.3-0.1-0.4-0.2-0.6-0.4c-0.1-0.2-0.2-0.6-0.2-1.1v-3.5h2v-1
		h-2v-1.9h-0.7l-0.2,1.9l-1.3,0.2v0.7h1.3v3.5C117,108.5,117.6,109.4,118.7,109.4z"/>
	<path class="st4" d="M126.8,109.4v-4.8c0-0.6-0.2-1.1-0.6-1.6c-0.4-0.4-0.9-0.6-1.6-0.6c-0.1,0-0.3,0-0.4,0c-0.1,0-0.2,0-0.3,0.1
		s-0.2,0.1-0.3,0.1s-0.2,0.1-0.3,0.1s-0.2,0.1-0.3,0.1c-0.1,0.1-0.2,0.1-0.3,0.1c0,0-0.1,0.1-0.3,0.2c-0.2,0.1-0.3,0.2-0.3,0.2v-4.1
		h-1v10.2h1V104c0.4-0.2,0.7-0.3,0.9-0.4c0.2-0.1,0.4-0.1,0.7-0.2c0.3-0.1,0.6-0.1,0.9-0.1c0.4,0,0.6,0.1,0.9,0.3
		c0.2,0.2,0.3,0.5,0.3,0.9v4.8H126.8z"/>
	<path class="st4" d="M129.9,109.1v-0.7c0-0.2-0.1-0.3-0.3-0.3h-0.7c-0.2,0-0.3,0.1-0.3,0.3v0.7c0,0.2,0.1,0.3,0.3,0.3h0.7
		C129.8,109.4,129.9,109.3,129.9,109.1z"/>
	<path class="st4" d="M28.5,141.8h2v-4.1l1.7,0.2l1.7,3.9h2.2l-1.9-4c0.2-0.1,0.3-0.1,0.4-0.1c0.1,0,0.2-0.1,0.4-0.3
		c0.2-0.1,0.3-0.3,0.4-0.5s0.2-0.5,0.3-0.8s0.1-0.8,0.1-1.3c0-0.6-0.1-1.1-0.2-1.5c-0.1-0.4-0.3-0.8-0.6-1c-0.3-0.2-0.5-0.4-0.9-0.5
		c-0.3-0.1-0.7-0.2-1.1-0.2h-4.5V141.8z M30.4,133.3h2.3c0.3,0,0.6,0.1,0.8,0.3s0.3,0.6,0.3,1.1c0,0.3,0,0.6-0.1,0.7
		c0,0.2-0.1,0.3-0.2,0.4s-0.2,0.2-0.3,0.2c-0.1,0-0.3,0-0.4,0h-2.3V133.3z"/>
	<path class="st4" d="M43,140.1c-0.7,0.1-1.6,0.2-2.7,0.2c-0.4,0-0.7,0-0.9-0.1s-0.3-0.2-0.5-0.4s-0.2-0.5-0.2-1h2.4
		c0.7,0,1.2-0.1,1.6-0.4c0.3-0.3,0.5-0.8,0.5-1.4c0-0.3,0-0.7-0.1-0.9c0-0.3-0.1-0.5-0.2-0.7c-0.1-0.2-0.2-0.4-0.3-0.5
		c-0.1-0.1-0.3-0.2-0.4-0.3s-0.3-0.1-0.6-0.2s-0.5-0.1-0.7-0.1c-0.2,0-0.5,0-0.9,0c-0.5,0-0.9,0-1.3,0.1s-0.6,0.2-0.9,0.3
		c-0.3,0.1-0.5,0.4-0.6,0.7c-0.1,0.3-0.3,0.6-0.3,1.1c-0.1,0.4-0.1,1-0.1,1.6c0,0.7,0,1.3,0.1,1.8s0.2,0.9,0.4,1.2s0.4,0.5,0.7,0.7
		c0.3,0.1,0.7,0.2,1.2,0.2c1.8,0,3.1-0.1,3.8-0.4V140.1z M38.8,136.5c0-0.2,0.1-0.4,0.3-0.5c0.1-0.1,0.3-0.2,0.4-0.2s0.4,0,0.7,0
		c0.5,0,0.8,0.1,0.9,0.2c0.1,0.1,0.2,0.4,0.2,0.9c0,0.4-0.2,0.6-0.6,0.6h-1.9C38.7,137,38.7,136.7,38.8,136.5z"/>
	<path class="st4" d="M48.4,141l0.4,0.8h1.6v-5.2c0-0.9-0.2-1.5-0.7-1.9s-1.1-0.5-2-0.5c-1.4,0-2.6,0.2-3.4,0.5v1.2
		c1.5-0.1,2.5-0.2,3.1-0.2c0.2,0,0.3,0,0.4,0s0.2,0.1,0.3,0.1c0.1,0.1,0.2,0.2,0.2,0.3s0.1,0.3,0.1,0.5c0,0,0,0.2,0,0.5
		c-0.4,0-0.7,0-1.1,0c-0.4,0-0.7,0-1.1,0c-0.4,0-0.7,0.1-1,0.2c-0.3,0.1-0.5,0.3-0.7,0.5c-0.2,0.2-0.3,0.4-0.4,0.6s-0.1,0.5-0.1,0.8
		v0.7c0,0.5,0.2,1,0.5,1.4c0.4,0.4,0.9,0.6,1.6,0.6c0.3,0,0.7-0.1,1.1-0.2c0.4-0.1,0.6-0.3,0.8-0.4C48.2,141.1,48.3,141,48.4,141z
		 M48,139.9c-0.1,0-0.2,0.1-0.3,0.1s-0.2,0.1-0.3,0.1c-0.1,0-0.2,0.1-0.3,0.1c-0.1,0-0.2,0-0.3,0c-0.2,0-0.4,0-0.5-0.1
		c-0.1-0.1-0.2-0.3-0.2-0.6v-0.4c0-0.1,0-0.2,0-0.3c0-0.1,0-0.1,0.1-0.2c0-0.1,0.1-0.1,0.2-0.2c0.1-0.1,0.2-0.1,0.3-0.1l1.8-0.1v1.4
		c-0.1,0-0.1,0.1-0.2,0.1S48.1,139.9,48,139.9z"/>
	<path class="st4" d="M52,141.2c0.2,0.2,0.4,0.3,0.6,0.4c0.2,0.1,0.5,0.1,0.8,0.1H55v-1.2c-0.1,0-0.4-0.1-0.9-0.3
		c-0.2-0.1-0.4-0.2-0.5-0.4c-0.1-0.2-0.2-0.5-0.2-1v-8h-2v8.3c0,0.5,0,0.9,0.1,1.2C51.7,140.7,51.8,141,52,141.2z"/>
	<path class="st4" d="M57.9,133.2V132c0-0.2-0.1-0.4-0.3-0.4h-1.5c-0.2,0-0.3,0.1-0.3,0.4v1.2c0,0.1,0,0.1,0,0.2
		c0,0.1,0.1,0.1,0.1,0.1c0.1,0,0.1,0,0.2,0h1.5c0.1,0,0.2,0,0.2-0.1C57.9,133.4,57.9,133.3,57.9,133.2z"/>
	<rect x="55.8" y="134.3" class="st4" width="2" height="7.4"/>
	<path class="st4" d="M63.5,135.8v-1.5h-1.7v-2.1h-1.6l-0.3,2.1l-1.2,0.4v1.1h1.2v3.3c0,0.9,0.2,1.6,0.5,2s0.8,0.6,1.3,0.6h1.7v-1.2
		c-0.1,0-0.4-0.1-0.9-0.3c-0.1-0.1-0.3-0.1-0.3-0.2s-0.2-0.2-0.2-0.4c-0.1-0.2-0.1-0.5-0.1-0.8v-3H63.5z"/>
	<path class="st4" d="M68,145.5l1-1.4l2.6-9.8h-2l-1.5,5.8c-0.1,0-0.1,0-0.2,0c0,0-0.1,0-0.1,0c-0.1,0-0.1,0-0.1-0.1
		c0,0-0.1-0.1-0.1-0.1s-0.1-0.1-0.1-0.2c0-0.1-0.1-0.1-0.1-0.2l-1.3-5.2H64l1.5,5.5c0.3,1.3,1.1,1.9,2.2,1.9l-1,3.8H68z"/>
	<path class="st4" d="M72.7,141.4c0,0.1,0,0.2,0.1,0.2c0.1,0.1,0.1,0.1,0.2,0.1h1.2c0.2,0,0.4-0.1,0.4-0.3v-1.3
		c0-0.2-0.1-0.4-0.4-0.4h-1.2c-0.2,0-0.3,0.1-0.3,0.4V141.4z"/>
	<path class="st4" d="M73.1,136.3h1.2c0.2,0,0.4-0.1,0.4-0.3v-1.3c0-0.2-0.1-0.4-0.4-0.4h-1.2c-0.2,0-0.3,0.1-0.3,0.4v1.3
		c0,0.1,0,0.2,0.1,0.2C72.9,136.2,73,136.3,73.1,136.3z"/>
	<polygon class="st4" points="31.1,157.4 32.1,157.4 32.1,148.8 34.9,148.8 34.9,147.8 28.3,147.8 28.3,148.8 31.1,148.8 	"/>
	<path class="st4" d="M37.5,157.4c0.2,0,0.5,0,0.7-0.1s0.5-0.1,0.8-0.2c0.2-0.1,0.5-0.2,0.7-0.3c0.2-0.1,0.4-0.2,0.5-0.2l0.2-0.1
		l0.2,0.8h0.7v-5c0-0.7-0.2-1.2-0.5-1.5s-0.8-0.5-1.4-0.5c0,0,0,0,0,0c-1.4,0-2.5,0.1-3.4,0.4v0.7c1.4-0.1,2.5-0.2,3.3-0.2
		c0.7,0,1.1,0.4,1.1,1.1c0,0,0,0,0,0.1s0,0,0,0.1s0,0.1,0,0.1c0,0.2,0,0.4,0,0.6c-0.3,0-0.5,0-0.8,0c-0.6,0-1.3,0-2.1,0
		c-0.5,0-1,0.2-1.3,0.5c-0.3,0.3-0.5,0.7-0.5,1.3v0.8c0,0.5,0.2,1,0.5,1.3C36.6,157.3,37,157.4,37.5,157.4z M36.7,155
		c0-0.2,0.1-0.4,0.2-0.6c0.1-0.2,0.3-0.2,0.6-0.3l2.9-0.2v1.9l-0.5,0.2c-0.3,0.1-0.7,0.2-1.2,0.3s-0.9,0.2-1.2,0.2
		c-0.5,0-0.8-0.3-0.8-0.8V155z"/>
	<polygon class="st4" points="46.9,150.5 44.3,152.9 43.8,152.9 43.8,147.2 42.8,147.2 42.8,157.4 43.8,157.4 43.8,153.9 
		44.3,153.9 47.1,157.4 48.3,157.4 45.2,153.4 48.3,150.5 	"/>
	<path class="st4" d="M50.4,149.3v-0.7c0-0.2-0.1-0.3-0.3-0.3h-0.7c-0.2,0-0.3,0.1-0.3,0.3v0.7c0,0.2,0.1,0.3,0.3,0.3h0.7
		C50.3,149.6,50.4,149.5,50.4,149.3z"/>
	<rect x="49.3" y="150.5" class="st4" width="1" height="6.9"/>
	<path class="st4" d="M57.5,157.4v-4.8c0-0.6-0.2-1.1-0.6-1.6c-0.4-0.4-0.9-0.6-1.6-0.6c-0.1,0-0.3,0-0.4,0c-0.1,0-0.2,0-0.3,0.1
		s-0.2,0.1-0.3,0.1s-0.2,0.1-0.3,0.1s-0.2,0.1-0.3,0.1c-0.1,0.1-0.2,0.1-0.3,0.1c0,0-0.1,0.1-0.3,0.2c-0.2,0.1-0.3,0.2-0.3,0.2
		l-0.3-0.8h-0.7v6.9h1V152c0.4-0.2,0.7-0.3,0.9-0.4c0.2-0.1,0.4-0.1,0.7-0.2c0.3-0.1,0.6-0.1,0.9-0.1c0.3,0,0.6,0.1,0.8,0.3
		c0.2,0.2,0.3,0.5,0.3,0.9v4.8H57.5z"/>
	<path class="st4" d="M62.8,160.9c0.4,0,0.7-0.1,1-0.2s0.5-0.3,0.6-0.5c0.1-0.2,0.2-0.4,0.3-0.6s0.1-0.4,0.1-0.7v-0.8
		c0-0.5-0.1-1-0.4-1.3s-0.7-0.5-1.2-0.5h-2.8c-0.4,0-0.5-0.1-0.5-0.4c0-0.3,0.2-0.4,0.5-0.4h2c0.4,0,0.8-0.1,1.1-0.3
		c0.3-0.2,0.5-0.4,0.7-0.7c0.1-0.3,0.2-0.6,0.3-0.8c0.1-0.3,0.1-0.5,0.1-0.7c0-0.2,0-0.3,0-0.5c0-0.1,0-0.3-0.1-0.4
		c0-0.1-0.1-0.2-0.1-0.2c0-0.1-0.1-0.1-0.1-0.2c-0.1-0.1-0.1-0.1-0.1-0.2l1.1-0.2v-0.7H61c-0.7,0-1.3,0.2-1.7,0.6s-0.6,1-0.6,1.8
		c0,0.9,0.3,1.6,0.8,1.9c-0.3,0.1-0.4,0.2-0.6,0.4c-0.1,0.2-0.2,0.4-0.2,0.7c0,0.5,0.2,0.8,0.5,1.1l-0.5,0.8v1.1
		c0,0.7,0.2,1.2,0.6,1.5s0.9,0.5,1.5,0.5H62.8z M61,151.4h1.2c0.5,0,0.8,0.1,1,0.4c0.2,0.2,0.3,0.6,0.3,1.1c0,0,0,0.1,0,0.1
		c0,0.2,0,0.3-0.1,0.5c0,0.2-0.1,0.3-0.2,0.5c-0.1,0.2-0.2,0.3-0.4,0.4c-0.2,0.1-0.4,0.1-0.6,0.1h-1.3c-0.2,0-0.4,0-0.6-0.1
		s-0.3-0.2-0.4-0.4s-0.1-0.3-0.2-0.5c0-0.2-0.1-0.3-0.1-0.5C59.7,151.9,60.2,151.4,61,151.4z M59.7,158.9v-1.8l0.1,0
		c0,0,0.1,0,0.2,0.1c0.1,0,0.2,0,0.3,0h2.6c0.4,0,0.6,0.1,0.7,0.2c0.1,0.1,0.2,0.4,0.2,0.7v0.8c0,0.7-0.3,1-1,1h-2
		C60.1,159.9,59.7,159.6,59.7,158.9z"/>
	<path class="st4" d="M71.8,157.4c0.2,0,0.5,0,0.7-0.1s0.5-0.1,0.8-0.2c0.2-0.1,0.5-0.2,0.7-0.3c0.2-0.1,0.4-0.2,0.5-0.2l0.2-0.1
		l0.2,0.8h0.7v-5c0-0.7-0.2-1.2-0.5-1.5s-0.8-0.5-1.4-0.5c0,0,0,0,0,0c-1.4,0-2.5,0.1-3.4,0.4v0.7c1.4-0.1,2.5-0.2,3.3-0.2
		c0.7,0,1.1,0.4,1.1,1.1c0,0,0,0,0,0.1s0,0,0,0.1s0,0.1,0,0.1c0,0.2,0,0.4,0,0.6c-0.3,0-0.5,0-0.8,0c-0.6,0-1.3,0-2.1,0
		c-0.5,0-1,0.2-1.3,0.5c-0.3,0.3-0.5,0.7-0.5,1.3v0.8c0,0.5,0.2,1,0.5,1.3C70.9,157.3,71.3,157.4,71.8,157.4z M71.1,155
		c0-0.2,0.1-0.4,0.2-0.6c0.1-0.2,0.3-0.2,0.6-0.3l2.9-0.2v1.9l-0.5,0.2c-0.3,0.1-0.7,0.2-1.2,0.3s-0.9,0.2-1.2,0.2
		c-0.5,0-0.8-0.3-0.8-0.8V155z"/>
	<path class="st4" d="M82.3,152c0.4-0.2,0.7-0.3,0.9-0.4c0.2-0.1,0.4-0.1,0.7-0.2c0.3-0.1,0.6-0.1,0.9-0.1c0.4,0,0.6,0.1,0.9,0.3
		c0.2,0.2,0.3,0.5,0.3,0.9v4.8h1v-4.8c0-0.6-0.2-1.1-0.6-1.6c-0.4-0.4-0.9-0.6-1.6-0.6c-0.1,0-0.3,0-0.4,0c-0.1,0-0.2,0-0.3,0.1
		s-0.2,0.1-0.3,0.1s-0.2,0.1-0.3,0.1s-0.2,0.1-0.3,0.1c-0.1,0.1-0.2,0.1-0.3,0.1c0,0-0.1,0.1-0.3,0.2c-0.2,0.1-0.3,0.2-0.3,0.2v-4.1
		h-1v10.2h1V152z"/>
	<path class="st4" d="M91.3,157.4c1.2,0,2-0.2,2.4-0.7s0.7-1.4,0.7-2.7c0-1.4-0.2-2.3-0.7-2.8s-1.2-0.8-2.4-0.8
		c-1.1,0-1.9,0.3-2.4,0.8c-0.4,0.5-0.7,1.5-0.7,2.9c0,1.3,0.2,2.1,0.7,2.7C89.4,157.2,90.2,157.4,91.3,157.4z M89.3,152.8
		c0.1-0.3,0.1-0.6,0.2-0.8c0.1-0.2,0.2-0.3,0.4-0.4c0.2-0.1,0.4-0.2,0.6-0.2s0.5,0,0.8,0c0.4,0,0.8,0,1,0.1c0.2,0,0.4,0.2,0.6,0.3
		s0.3,0.4,0.4,0.8c0.1,0.4,0.1,0.8,0.1,1.5c0,0.6,0,1-0.1,1.3c-0.1,0.3-0.2,0.6-0.4,0.7c-0.2,0.2-0.4,0.3-0.6,0.3
		c-0.2,0-0.5,0.1-0.9,0.1c-0.4,0-0.7,0-0.9-0.1c-0.2,0-0.4-0.1-0.6-0.3c-0.2-0.2-0.3-0.4-0.4-0.7s-0.1-0.8-0.1-1.4
		C89.2,153.5,89.3,153.1,89.3,152.8z"/>
	<path class="st4" d="M99.5,151.4v-1h-2v-1.9h-0.7l-0.2,1.9l-1.3,0.2v0.7h1.3v3.5c0,1.6,0.6,2.5,1.7,2.5h1.1v-0.7
		c-0.1,0-0.4-0.1-1.2-0.3c-0.3-0.1-0.4-0.2-0.6-0.4c-0.1-0.2-0.2-0.6-0.2-1.1v-3.5H99.5z"/>
	<path class="st4" d="M108.4,157.4c0.5,0,0.8-0.1,1.1-0.3c0.3-0.2,0.5-0.5,0.7-0.9s0.3-0.7,0.3-1.1c0.1-0.4,0.1-0.8,0.1-1.2
		c0-0.5,0-0.9-0.1-1.3c-0.1-0.4-0.2-0.7-0.3-1.1c-0.2-0.4-0.4-0.7-0.7-0.9c-0.3-0.2-0.7-0.3-1.2-0.3c-0.3,0-0.7,0-1.2,0.1
		c-0.5,0.1-0.9,0.2-1.3,0.4v-3.7h-0.9v10.2h0.7l0.3-0.8c0.2,0.2,0.6,0.3,1.1,0.5C107.5,157.3,108,157.4,108.4,157.4z M105.9,151.7
		c0.9-0.2,1.7-0.3,2.5-0.3c0.5,0,0.8,0.2,1,0.6c0.2,0.4,0.3,1.1,0.3,2.1c0,1.7-0.4,2.5-1.3,2.5c-0.7,0-1.6-0.2-2.5-0.6V151.7z"/>
	<path class="st4" d="M115.1,157.1c0.2-0.1,0.5-0.2,0.7-0.3c0.2-0.1,0.4-0.2,0.5-0.2l0.2-0.1l0.2,0.8h0.7v-5c0-0.7-0.2-1.2-0.5-1.5
		s-0.8-0.5-1.4-0.5c0,0,0,0,0,0c-1.4,0-2.5,0.1-3.4,0.4v0.7c1.4-0.1,2.5-0.2,3.3-0.2c0.7,0,1.1,0.4,1.1,1.1c0,0,0,0,0,0.1s0,0,0,0.1
		s0,0.1,0,0.1c0,0.2,0,0.4,0,0.6c-0.3,0-0.5,0-0.8,0c-0.6,0-1.3,0-2.1,0c-0.5,0-1,0.2-1.3,0.5c-0.3,0.3-0.5,0.7-0.5,1.3v0.8
		c0,0.5,0.2,1,0.5,1.3c0.3,0.3,0.7,0.5,1.2,0.5c0.2,0,0.5,0,0.7-0.1S114.9,157.2,115.1,157.1z M112.8,155.7V155
		c0-0.2,0.1-0.4,0.2-0.6c0.1-0.2,0.3-0.2,0.6-0.3l2.9-0.2v1.9L116,156c-0.3,0.1-0.7,0.2-1.2,0.3s-0.9,0.2-1.2,0.2
		C113.1,156.5,112.8,156.2,112.8,155.7z"/>
	<path class="st4" d="M122.6,151.4v-1h-2v-1.9h-0.7l-0.2,1.9l-1.3,0.2v0.7h1.3v3.5c0,1.6,0.6,2.5,1.7,2.5h1.1v-0.7
		c-0.1,0-0.4-0.1-1.2-0.3c-0.3-0.1-0.4-0.2-0.6-0.4c-0.1-0.2-0.2-0.6-0.2-1.1v-3.5H122.6z"/>
	<path class="st4" d="M129.4,157.4v-4.8c0-0.6-0.2-1.1-0.6-1.6c-0.4-0.4-0.9-0.6-1.6-0.6c-0.1,0-0.3,0-0.4,0c-0.1,0-0.2,0-0.3,0.1
		s-0.2,0.1-0.3,0.1s-0.2,0.1-0.3,0.1s-0.2,0.1-0.3,0.1c-0.1,0.1-0.2,0.1-0.3,0.1c0,0-0.1,0.1-0.3,0.2c-0.2,0.1-0.3,0.2-0.3,0.2v-4.1
		h-1v10.2h1V152c0.4-0.2,0.7-0.3,0.9-0.4c0.2-0.1,0.4-0.1,0.7-0.2c0.3-0.1,0.6-0.1,0.9-0.1c0.4,0,0.6,0.1,0.9,0.3
		c0.2,0.2,0.3,0.5,0.3,0.9v4.8H129.4z"/>
	<path class="st4" d="M135.4,156.3c0.2,0.4,0.4,0.6,0.7,0.9c0.3,0.2,0.7,0.3,1.1,0.3c0.4,0,0.9-0.1,1.4-0.3c0.5-0.2,0.9-0.4,1.1-0.5
		l0.3,0.8h0.7v-10.2h-0.9v3.7c-0.4-0.2-0.8-0.3-1.3-0.4c-0.5-0.1-0.9-0.1-1.2-0.1c-0.5,0-0.9,0.1-1.2,0.3c-0.3,0.2-0.5,0.5-0.7,0.9
		c-0.2,0.4-0.3,0.7-0.3,1.1s-0.1,0.8-0.1,1.3c0,0.4,0,0.9,0.1,1.2C135.1,155.5,135.2,155.9,135.4,156.3z M136.2,151.9
		c0.2-0.4,0.5-0.6,1-0.6c0.8,0,1.7,0.1,2.5,0.3v4.2c-1,0.4-1.8,0.6-2.5,0.6c-0.9,0-1.3-0.8-1.3-2.5
		C135.9,152.9,136,152.3,136.2,151.9z"/>
	<path class="st4" d="M147.6,151.2c-0.4-0.5-1.2-0.8-2.4-0.8c-1.1,0-1.9,0.3-2.4,0.8c-0.4,0.5-0.7,1.5-0.7,2.9
		c0,1.3,0.2,2.1,0.7,2.7c0.4,0.5,1.2,0.8,2.4,0.8c1.2,0,2-0.2,2.4-0.7s0.7-1.4,0.7-2.7C148.2,152.6,148,151.7,147.6,151.2z
		 M147.2,155.4c-0.1,0.3-0.2,0.6-0.4,0.7c-0.2,0.2-0.4,0.3-0.6,0.3c-0.2,0-0.5,0.1-0.9,0.1c-0.4,0-0.7,0-0.9-0.1
		c-0.2,0-0.4-0.1-0.6-0.3c-0.2-0.2-0.3-0.4-0.4-0.7s-0.1-0.8-0.1-1.4c0-0.5,0-0.9,0.1-1.2s0.1-0.6,0.2-0.8c0.1-0.2,0.2-0.3,0.4-0.4
		c0.2-0.1,0.4-0.2,0.6-0.2s0.5,0,0.8,0c0.4,0,0.8,0,1,0.1c0.2,0,0.4,0.2,0.6,0.3s0.3,0.4,0.4,0.8c0.1,0.4,0.1,0.8,0.1,1.5
		C147.3,154.6,147.2,155,147.2,155.4z"/>
	<path class="st4" d="M155.2,152.9c0-0.6-0.1-1-0.2-1.3s-0.3-0.6-0.6-0.7s-0.5-0.3-0.8-0.3s-0.6-0.1-1.1-0.1c-0.6,0-1.1,0-1.4,0.1
		c-0.3,0.1-0.6,0.2-0.9,0.5c-0.3,0.2-0.5,0.6-0.6,1.1c-0.1,0.5-0.2,1.1-0.2,1.8c0,1.4,0.2,2.3,0.5,2.8s0.9,0.8,1.8,0.8
		c1.3,0,2.4-0.1,3.3-0.4v-0.7c-0.6,0.1-1.5,0.1-2.7,0.1c-0.1,0-0.2,0-0.3,0c-0.1,0-0.2,0-0.3,0c-0.5,0-0.9-0.1-1-0.4
		c-0.2-0.3-0.3-0.8-0.3-1.6h2.9C154.6,154.4,155.2,153.9,155.2,152.9z M150.5,152.6c0-0.2,0.1-0.4,0.2-0.6c0.1-0.2,0.2-0.3,0.3-0.4
		c0.1-0.1,0.2-0.1,0.4-0.2c0.2,0,0.4-0.1,0.5-0.1c0.1,0,0.4,0,0.7,0c0.7,0,1.2,0.1,1.4,0.2c0.2,0.2,0.3,0.6,0.3,1.2
		c0,0.4-0.3,0.6-0.8,0.6h-2.9C150.5,153.1,150.5,152.8,150.5,152.6z"/>
	<path class="st4" d="M158,154.4h2.1c0.3,0,0.5,0.1,0.6,0.2s0.2,0.3,0.2,0.5v0.6c0,0.1,0,0.3-0.1,0.4c-0.1,0.1-0.1,0.2-0.2,0.2
		c-0.1,0-0.2,0.1-0.2,0.1c-0.1,0-0.1,0-0.2,0c0,0,0,0-0.1,0h-3.6v0.7c1.6,0.2,2.8,0.2,3.6,0.2c0.5,0,0.9-0.1,1.2-0.4
		c0.3-0.2,0.5-0.7,0.5-1.3v-0.6c0-0.5-0.1-0.9-0.4-1.2c-0.3-0.3-0.7-0.5-1.3-0.5H158c-0.1,0-0.3,0-0.3,0c-0.1,0-0.2,0-0.2-0.1
		c-0.1,0-0.1-0.1-0.2-0.2c0-0.1-0.1-0.2-0.1-0.4v-0.6c0-0.1,0-0.2,0-0.3s0-0.1,0.1-0.2c0-0.1,0.1-0.1,0.3-0.2c0.1,0,0.3-0.1,0.5-0.1
		h3.4v-0.7c-1.4-0.1-2.6-0.2-3.4-0.2c-0.6,0-1.1,0.1-1.4,0.4s-0.4,0.7-0.4,1.3v0.6c0,0.6,0.1,1.1,0.4,1.3
		C156.9,154.3,157.4,154.4,158,154.4z"/>
	<path class="st4" d="M169.9,151.4c0.3-0.1,0.6-0.1,0.9-0.1c0.3,0,0.6,0.1,0.8,0.3c0.2,0.2,0.3,0.5,0.3,0.9v4.8h1v-4.8
		c0-0.6-0.2-1.1-0.6-1.6c-0.4-0.4-0.9-0.6-1.6-0.6c-0.1,0-0.3,0-0.4,0c-0.1,0-0.2,0-0.3,0.1s-0.2,0.1-0.3,0.1s-0.2,0.1-0.3,0.1
		s-0.2,0.1-0.3,0.1c-0.1,0.1-0.2,0.1-0.3,0.1c0,0-0.1,0.1-0.3,0.2c-0.2,0.1-0.3,0.2-0.3,0.2l-0.3-0.8h-0.7v6.9h1V152
		c0.4-0.2,0.7-0.3,0.9-0.4C169.3,151.6,169.6,151.5,169.9,151.4z"/>
	<path class="st4" d="M180.3,154c0-1.4-0.2-2.3-0.7-2.8s-1.2-0.8-2.4-0.8c-1.1,0-1.9,0.3-2.4,0.8c-0.4,0.5-0.7,1.5-0.7,2.9
		c0,1.3,0.2,2.1,0.7,2.7c0.4,0.5,1.2,0.8,2.4,0.8c1.2,0,2-0.2,2.4-0.7S180.3,155.3,180.3,154z M179.2,155.4
		c-0.1,0.3-0.2,0.6-0.4,0.7c-0.2,0.2-0.4,0.3-0.6,0.3c-0.2,0-0.5,0.1-0.9,0.1c-0.4,0-0.7,0-0.9-0.1c-0.2,0-0.4-0.1-0.6-0.3
		c-0.2-0.2-0.3-0.4-0.4-0.7s-0.1-0.8-0.1-1.4c0-0.5,0-0.9,0.1-1.2s0.1-0.6,0.2-0.8c0.1-0.2,0.2-0.3,0.4-0.4c0.2-0.1,0.4-0.2,0.6-0.2
		s0.5,0,0.8,0c0.4,0,0.8,0,1,0.1c0.2,0,0.4,0.2,0.6,0.3s0.3,0.4,0.4,0.8c0.1,0.4,0.1,0.8,0.1,1.5C179.4,154.6,179.3,155,179.2,155.4
		z"/>
	<path class="st4" d="M185.4,156.7c-0.1,0-0.4-0.1-1.2-0.3c-0.3-0.1-0.4-0.2-0.6-0.4c-0.1-0.2-0.2-0.6-0.2-1.1v-3.5h2v-1h-2v-1.9
		h-0.7l-0.2,1.9l-1.3,0.2v0.7h1.3v3.5c0,1.6,0.6,2.5,1.7,2.5h1.1V156.7z"/>
	<path class="st4" d="M32,173.1c0.5,0,0.9-0.1,1.2-0.3s0.6-0.5,0.7-0.9s0.3-0.7,0.3-1.1c0.1-0.4,0.1-0.8,0.1-1.3
		c0-0.4,0-0.9-0.1-1.2c-0.1-0.4-0.2-0.7-0.3-1.1s-0.4-0.6-0.7-0.9c-0.3-0.2-0.7-0.3-1.1-0.3c-0.4,0-0.9,0.1-1.4,0.3
		c-0.5,0.2-0.9,0.4-1.1,0.5l-0.2-0.8h-0.7v10.4h0.9v-3.9c0.4,0.2,0.8,0.3,1.3,0.4C31.3,173,31.7,173.1,32,173.1z M29.5,167.5
		c1-0.4,1.8-0.6,2.6-0.6c0.9,0,1.3,0.8,1.3,2.5c0,1-0.1,1.7-0.3,2.1c-0.2,0.4-0.5,0.6-1,0.6c-0.8,0-1.7-0.1-2.6-0.3V167.5z"/>
	<path class="st4" d="M38.3,167.1c0.3-0.1,0.6-0.1,0.9-0.1c0.4,0,0.8,0,1,0.1v-0.9c-0.1-0.1-0.5-0.1-1-0.1c-0.1,0-0.3,0-0.4,0
		c-0.1,0-0.3,0-0.4,0.1c-0.1,0-0.3,0.1-0.4,0.1s-0.2,0.1-0.4,0.2s-0.3,0.1-0.3,0.2c-0.1,0-0.2,0.1-0.4,0.2c-0.2,0.1-0.3,0.2-0.3,0.2
		l-0.3-0.9h-0.7v6.9h1v-5.3c0.4-0.2,0.7-0.4,0.9-0.4S38,167.1,38.3,167.1z"/>
	<path class="st4" d="M46.7,172.7v-0.7c-0.6,0.1-1.5,0.1-2.7,0.1c-0.1,0-0.2,0-0.3,0c-0.1,0-0.2,0-0.3,0c-0.5,0-0.9-0.1-1-0.4
		c-0.2-0.3-0.3-0.8-0.3-1.6H45c1.2,0,1.8-0.5,1.8-1.6c0-0.6-0.1-1-0.2-1.3s-0.3-0.6-0.6-0.7s-0.5-0.3-0.8-0.3s-0.6-0.1-1.1-0.1
		c-0.6,0-1.1,0-1.4,0.1c-0.3,0.1-0.6,0.2-0.9,0.5c-0.3,0.2-0.5,0.6-0.6,1.1c-0.1,0.5-0.2,1.1-0.2,1.8c0,1.4,0.2,2.3,0.5,2.8
		s0.9,0.8,1.8,0.8C44.7,173,45.8,172.9,46.7,172.7z M42.1,168.2c0-0.2,0.1-0.4,0.2-0.6c0.1-0.2,0.2-0.3,0.3-0.4
		c0.1-0.1,0.2-0.1,0.4-0.2c0.2,0,0.4-0.1,0.5-0.1c0.1,0,0.4,0,0.7,0c0.7,0,1.2,0.1,1.4,0.2c0.2,0.2,0.3,0.6,0.3,1.2
		c0,0.4-0.3,0.6-0.8,0.6h-2.9C42.1,168.7,42.1,168.4,42.1,168.2z"/>
	<polygon class="st4" points="51.3,173 54,166.1 53,166.1 50.8,171.5 48.6,166.1 47.6,166.1 50.3,173 	"/>
	<path class="st4" d="M60.6,168.5c0-0.6-0.1-1-0.2-1.3s-0.3-0.6-0.6-0.7s-0.5-0.3-0.8-0.3s-0.6-0.1-1.1-0.1c-0.6,0-1.1,0-1.4,0.1
		c-0.3,0.1-0.6,0.2-0.9,0.5c-0.3,0.2-0.5,0.6-0.6,1.1c-0.1,0.5-0.2,1.1-0.2,1.8c0,1.4,0.2,2.3,0.5,2.8s0.9,0.8,1.8,0.8
		c1.3,0,2.4-0.1,3.3-0.4v-0.7c-0.6,0.1-1.5,0.1-2.7,0.1c-0.1,0-0.2,0-0.3,0c-0.1,0-0.2,0-0.3,0c-0.5,0-0.9-0.1-1-0.4
		c-0.2-0.3-0.3-0.8-0.3-1.6h2.9C60,170,60.6,169.5,60.6,168.5z M55.9,168.2c0-0.2,0.1-0.4,0.2-0.6c0.1-0.2,0.2-0.3,0.3-0.4
		c0.1-0.1,0.2-0.1,0.4-0.2c0.2,0,0.4-0.1,0.5-0.1c0.1,0,0.4,0,0.7,0c0.7,0,1.2,0.1,1.4,0.2c0.2,0.2,0.3,0.6,0.3,1.2
		c0,0.4-0.3,0.6-0.8,0.6h-2.9C55.9,168.7,55.9,168.4,55.9,168.2z"/>
	<path class="st4" d="M62.9,167.6c0.4-0.2,0.7-0.3,0.9-0.4c0.2-0.1,0.4-0.1,0.7-0.2c0.3-0.1,0.6-0.1,0.9-0.1c0.3,0,0.6,0.1,0.8,0.3
		c0.2,0.2,0.3,0.5,0.3,0.9v4.8h1v-4.8c0-0.6-0.2-1.1-0.6-1.6c-0.4-0.4-0.9-0.6-1.6-0.6c-0.1,0-0.3,0-0.4,0c-0.1,0-0.2,0-0.3,0.1
		s-0.2,0.1-0.3,0.1s-0.2,0.1-0.3,0.1s-0.2,0.1-0.3,0.1c-0.1,0.1-0.2,0.1-0.3,0.1c0,0-0.1,0.1-0.3,0.2c-0.2,0.1-0.3,0.2-0.3,0.2
		l-0.3-0.8h-0.7v6.9h1V167.6z"/>
	<path class="st4" d="M71.4,173h1.1v-0.7c-0.1,0-0.4-0.1-1.2-0.3c-0.3-0.1-0.4-0.2-0.6-0.4c-0.1-0.2-0.2-0.6-0.2-1.1V167h2v-1h-2
		v-1.9H70l-0.2,1.9l-1.3,0.2v0.7h1.3v3.5C69.7,172.1,70.3,173,71.4,173z"/>
	<path class="st4" d="M81.8,167v-1h-2v-1.9h-0.7l-0.2,1.9l-1.3,0.2v0.7h1.3v3.5c0,1.6,0.6,2.5,1.7,2.5h1.1v-0.7
		c-0.1,0-0.4-0.1-1.2-0.3c-0.3-0.1-0.4-0.2-0.6-0.4c-0.1-0.2-0.2-0.6-0.2-1.1V167H81.8z"/>
	<path class="st4" d="M88.7,173v-4.8c0-0.6-0.2-1.1-0.6-1.6c-0.4-0.4-0.9-0.6-1.6-0.6c-0.1,0-0.3,0-0.4,0c-0.1,0-0.2,0-0.3,0.1
		s-0.2,0.1-0.3,0.1s-0.2,0.1-0.3,0.1s-0.2,0.1-0.3,0.1c-0.1,0.1-0.2,0.1-0.3,0.1c0,0-0.1,0.1-0.3,0.2c-0.2,0.1-0.3,0.2-0.3,0.2v-4.1
		h-1V173h1v-5.3c0.4-0.2,0.7-0.3,0.9-0.4c0.2-0.1,0.4-0.1,0.7-0.2c0.3-0.1,0.6-0.1,0.9-0.1c0.4,0,0.6,0.1,0.9,0.3
		c0.2,0.2,0.3,0.5,0.3,0.9v4.8H88.7z"/>
	<path class="st4" d="M95.6,168.5c0-0.6-0.1-1-0.2-1.3s-0.3-0.6-0.6-0.7s-0.5-0.3-0.8-0.3S93.4,166,93,166c-0.6,0-1.1,0-1.4,0.1
		c-0.3,0.1-0.6,0.2-0.9,0.5c-0.3,0.2-0.5,0.6-0.6,1.1c-0.1,0.5-0.2,1.1-0.2,1.8c0,1.4,0.2,2.3,0.5,2.8s0.9,0.8,1.8,0.8
		c1.3,0,2.4-0.1,3.3-0.4v-0.7c-0.6,0.1-1.5,0.1-2.7,0.1c-0.1,0-0.2,0-0.3,0c-0.1,0-0.2,0-0.3,0c-0.5,0-0.9-0.1-1-0.4
		c-0.2-0.3-0.3-0.8-0.3-1.6h2.9C95,170,95.6,169.5,95.6,168.5z M91,168.2c0-0.2,0.1-0.4,0.2-0.6c0.1-0.2,0.2-0.3,0.3-0.4
		c0.1-0.1,0.2-0.1,0.4-0.2c0.2,0,0.4-0.1,0.5-0.1c0.1,0,0.4,0,0.7,0c0.7,0,1.2,0.1,1.4,0.2c0.2,0.2,0.3,0.6,0.3,1.2
		c0,0.4-0.3,0.6-0.8,0.6h-2.9C90.9,168.7,90.9,168.4,91,168.2z"/>
	<path class="st4" d="M106.8,173v-4.8c0-0.6-0.2-1.1-0.6-1.6c-0.4-0.4-0.9-0.6-1.6-0.6c-0.1,0-0.3,0-0.4,0c-0.1,0-0.2,0-0.3,0.1
		s-0.2,0.1-0.3,0.1s-0.2,0.1-0.3,0.1s-0.2,0.1-0.3,0.1c-0.1,0.1-0.2,0.1-0.3,0.1c0,0-0.1,0.1-0.3,0.2c-0.2,0.1-0.3,0.2-0.3,0.2
		l-0.3-0.8h-0.7v6.9h1v-5.3c0.4-0.2,0.7-0.3,0.9-0.4c0.2-0.1,0.4-0.1,0.7-0.2c0.3-0.1,0.6-0.1,0.9-0.1c0.3,0,0.6,0.1,0.8,0.3
		c0.2,0.2,0.3,0.5,0.3,0.9v4.8H106.8z"/>
	<path class="st4" d="M113.7,168.5c0-0.6-0.1-1-0.2-1.3s-0.3-0.6-0.6-0.7s-0.5-0.3-0.8-0.3s-0.6-0.1-1.1-0.1c-0.6,0-1.1,0-1.4,0.1
		c-0.3,0.1-0.6,0.2-0.9,0.5c-0.3,0.2-0.5,0.6-0.6,1.1c-0.1,0.5-0.2,1.1-0.2,1.8c0,1.4,0.2,2.3,0.5,2.8s0.9,0.8,1.8,0.8
		c1.3,0,2.4-0.1,3.3-0.4v-0.7c-0.6,0.1-1.5,0.1-2.7,0.1c-0.1,0-0.2,0-0.3,0c-0.1,0-0.2,0-0.3,0c-0.5,0-0.9-0.1-1-0.4
		c-0.2-0.3-0.3-0.8-0.3-1.6h2.9C113.1,170,113.7,169.5,113.7,168.5z M109.1,168.2c0-0.2,0.1-0.4,0.2-0.6c0.1-0.2,0.2-0.3,0.3-0.4
		c0.1-0.1,0.2-0.1,0.4-0.2c0.2,0,0.4-0.1,0.5-0.1c0.1,0,0.4,0,0.7,0c0.7,0,1.2,0.1,1.4,0.2c0.2,0.2,0.3,0.6,0.3,1.2
		c0,0.4-0.3,0.6-0.8,0.6H109C109,168.7,109.1,168.4,109.1,168.2z"/>
	<polygon class="st4" points="118.1,173 119.3,169.6 120.8,173 121.8,173 124.4,166.1 123.4,166.1 121.2,171.5 119.7,168.3 
		120.4,166.1 119.4,166.1 117.6,171.5 115.6,166.1 114.5,166.1 117.1,173 	"/>
	<path class="st4" d="M130.2,172.4c0.2,0.2,0.5,0.4,0.7,0.5c0.2,0.1,0.5,0.1,0.9,0.1c1.2,0,2.2-0.1,3.1-0.4v-0.7l-0.5,0
		c-0.3,0-0.8,0-1.3,0.1c-0.5,0-0.9,0-1.3,0c-0.5,0-0.8-0.2-1-0.5c-0.2-0.4-0.3-1-0.3-2c0-0.6,0-1.1,0.1-1.4s0.2-0.6,0.3-0.8
		c0.1-0.2,0.3-0.3,0.4-0.3c0.1,0,0.3-0.1,0.5-0.1c0.8,0,1.8,0,3,0.1v-0.7c-1.2-0.2-2.2-0.3-3-0.3c-0.4,0-0.7,0-0.9,0.1
		c-0.3,0.1-0.5,0.2-0.7,0.5c-0.2,0.2-0.4,0.6-0.5,1.1c-0.1,0.5-0.2,1.1-0.2,1.8c0,0.7,0.1,1.3,0.2,1.8
		C129.8,171.8,130,172.2,130.2,172.4z"/>
	<path class="st4" d="M139.1,173c1.2,0,2-0.2,2.4-0.7s0.7-1.4,0.7-2.7c0-1.4-0.2-2.3-0.7-2.8s-1.2-0.8-2.4-0.8
		c-1.1,0-1.9,0.3-2.4,0.8c-0.4,0.5-0.7,1.5-0.7,2.9c0,1.3,0.2,2.1,0.7,2.7C137.1,172.8,137.9,173,139.1,173z M137.1,168.4
		c0.1-0.3,0.1-0.6,0.2-0.8c0.1-0.2,0.2-0.3,0.4-0.4c0.2-0.1,0.4-0.2,0.6-0.2s0.5,0,0.8,0c0.4,0,0.8,0,1,0.1c0.2,0,0.4,0.2,0.6,0.3
		s0.3,0.4,0.4,0.8c0.1,0.4,0.1,0.8,0.1,1.5c0,0.6,0,1-0.1,1.3c-0.1,0.3-0.2,0.6-0.4,0.7c-0.2,0.2-0.4,0.3-0.6,0.3
		c-0.2,0-0.5,0.1-0.9,0.1c-0.4,0-0.7,0-0.9-0.1c-0.2,0-0.4-0.1-0.6-0.3c-0.2-0.2-0.3-0.4-0.4-0.7s-0.1-0.8-0.1-1.4
		C137,169.1,137,168.7,137.1,168.4z"/>
	<path class="st4" d="M146.7,166c-0.1,0-0.3,0-0.4,0.1c-0.1,0-0.3,0.1-0.4,0.1s-0.2,0.1-0.4,0.2s-0.3,0.1-0.3,0.2
		c-0.1,0-0.2,0.1-0.4,0.2c-0.2,0.1-0.3,0.2-0.3,0.2l-0.3-0.9h-0.7v6.9h1v-5.3c0.4-0.2,0.7-0.4,0.9-0.4s0.4-0.2,0.7-0.2
		c0.3-0.1,0.6-0.1,0.9-0.1c0.4,0,0.8,0,1,0.1v-0.9c-0.1-0.1-0.5-0.1-1-0.1C146.9,166,146.8,166,146.7,166z"/>
	<path class="st4" d="M152,173c1.2,0,2-0.2,2.4-0.7s0.7-1.4,0.7-2.7c0-1.4-0.2-2.3-0.7-2.8s-1.2-0.8-2.4-0.8c-1.1,0-1.9,0.3-2.4,0.8
		c-0.4,0.5-0.7,1.5-0.7,2.9c0,1.3,0.2,2.1,0.7,2.7C150.1,172.8,150.9,173,152,173z M150,168.4c0.1-0.3,0.1-0.6,0.2-0.8
		c0.1-0.2,0.2-0.3,0.4-0.4c0.2-0.1,0.4-0.2,0.6-0.2s0.5,0,0.8,0c0.4,0,0.8,0,1,0.1c0.2,0,0.4,0.2,0.6,0.3s0.3,0.4,0.4,0.8
		c0.1,0.4,0.1,0.8,0.1,1.5c0,0.6,0,1-0.1,1.3c-0.1,0.3-0.2,0.6-0.4,0.7c-0.2,0.2-0.4,0.3-0.6,0.3c-0.2,0-0.5,0.1-0.9,0.1
		c-0.4,0-0.7,0-0.9-0.1c-0.2,0-0.4-0.1-0.6-0.3c-0.2-0.2-0.3-0.4-0.4-0.7s-0.1-0.8-0.1-1.4C149.9,169.1,150,168.7,150,168.4z"/>
	<path class="st4" d="M162.1,173v-4.8c0-0.6-0.2-1.1-0.6-1.6c-0.4-0.4-0.9-0.6-1.6-0.6c-0.1,0-0.3,0-0.4,0c-0.1,0-0.2,0-0.3,0.1
		s-0.2,0.1-0.3,0.1s-0.2,0.1-0.3,0.1s-0.2,0.1-0.3,0.1c-0.1,0.1-0.2,0.1-0.3,0.1c0,0-0.1,0.1-0.3,0.2c-0.2,0.1-0.3,0.2-0.3,0.2
		l-0.3-0.8h-0.7v6.9h1v-5.3c0.4-0.2,0.7-0.3,0.9-0.4c0.2-0.1,0.4-0.1,0.7-0.2c0.3-0.1,0.6-0.1,0.9-0.1c0.3,0,0.6,0.1,0.8,0.3
		c0.2,0.2,0.3,0.5,0.3,0.9v4.8H162.1z"/>
	<path class="st4" d="M165,173c0.2,0,0.5,0,0.7-0.1s0.5-0.1,0.8-0.2c0.2-0.1,0.5-0.2,0.7-0.3c0.2-0.1,0.4-0.2,0.5-0.2l0.2-0.1
		l0.2,0.8h0.7v-5c0-0.7-0.2-1.2-0.5-1.5s-0.8-0.5-1.4-0.5c0,0,0,0,0,0c-1.4,0-2.5,0.1-3.4,0.4v0.7c1.4-0.1,2.5-0.2,3.3-0.2
		c0.7,0,1.1,0.4,1.1,1.1c0,0,0,0,0,0.1s0,0,0,0.1s0,0.1,0,0.1c0,0.2,0,0.4,0,0.6c-0.3,0-0.5,0-0.8,0c-0.6,0-1.3,0-2.1,0
		c-0.5,0-1,0.2-1.3,0.5c-0.3,0.3-0.5,0.7-0.5,1.3v0.8c0,0.5,0.2,1,0.5,1.3C164.1,172.9,164.5,173,165,173z M164.2,170.6
		c0-0.2,0.1-0.4,0.2-0.6c0.1-0.2,0.3-0.2,0.6-0.3l2.9-0.2v1.9l-0.5,0.2c-0.3,0.1-0.7,0.2-1.2,0.3s-0.9,0.2-1.2,0.2
		c-0.5,0-0.8-0.3-0.8-0.8V170.6z"/>
	<polygon class="st4" points="173.5,173 176.2,166.1 175.2,166.1 173,171.5 170.8,166.1 169.8,166.1 172.5,173 	"/>
	<path class="st4" d="M178.4,164.9v-0.7c0-0.2-0.1-0.3-0.3-0.3h-0.7c-0.2,0-0.3,0.1-0.3,0.3v0.7c0,0.2,0.1,0.3,0.3,0.3h0.7
		C178.3,165.2,178.4,165.1,178.4,164.9z"/>
	<rect x="177.3" y="166.1" class="st4" width="1" height="6.9"/>
	<path class="st4" d="M180.8,167.7c0.4-0.2,0.7-0.4,0.9-0.4s0.4-0.2,0.7-0.2c0.3-0.1,0.6-0.1,0.9-0.1c0.4,0,0.8,0,1,0.1v-0.9
		c-0.1-0.1-0.5-0.1-1-0.1c-0.1,0-0.3,0-0.4,0c-0.1,0-0.3,0-0.4,0.1c-0.1,0-0.3,0.1-0.4,0.1s-0.2,0.1-0.4,0.2s-0.3,0.1-0.3,0.2
		c-0.1,0-0.2,0.1-0.4,0.2c-0.2,0.1-0.3,0.2-0.3,0.2l-0.3-0.9h-0.7v6.9h1V167.7z"/>
	<path class="st4" d="M187.4,173.1c0.1,0,0.3,0,0.4,0c0.1,0,0.2,0,0.3-0.1c0.1,0,0.2-0.1,0.3-0.1c0.1-0.1,0.2-0.1,0.3-0.1
		c0.1,0,0.2-0.1,0.3-0.1c0.1-0.1,0.2-0.1,0.3-0.1s0.1-0.1,0.3-0.2s0.3-0.2,0.3-0.2l0.3,0.8h0.7v-6.9h-1v5.3
		c-0.4,0.2-0.7,0.3-0.9,0.4s-0.4,0.1-0.7,0.2c-0.3,0.1-0.6,0.1-0.9,0.1c-0.3,0-0.6-0.1-0.8-0.3c-0.2-0.2-0.3-0.5-0.3-0.9v-4.8h-1
		v4.8c0,0.6,0.2,1.1,0.6,1.6C186.2,172.9,186.7,173.1,187.4,173.1z"/>
	<path class="st4" d="M196.7,171.7c-0.1,0.1-0.1,0.2-0.2,0.2c-0.1,0-0.2,0.1-0.2,0.1c-0.1,0-0.1,0-0.2,0c0,0,0,0-0.1,0h-3.6v0.7
		c1.6,0.2,2.8,0.2,3.6,0.2c0.5,0,0.9-0.1,1.2-0.4c0.3-0.2,0.5-0.7,0.5-1.3v-0.6c0-0.5-0.1-0.9-0.4-1.2c-0.3-0.3-0.7-0.5-1.3-0.5H194
		c-0.1,0-0.3,0-0.3,0c-0.1,0-0.2,0-0.2-0.1c-0.1,0-0.1-0.1-0.2-0.2c0-0.1-0.1-0.2-0.1-0.4v-0.6c0-0.1,0-0.2,0-0.3s0-0.1,0.1-0.2
		c0-0.1,0.1-0.1,0.3-0.2c0.1,0,0.3-0.1,0.5-0.1h3.4v-0.7c-1.4-0.1-2.6-0.2-3.4-0.2c-0.6,0-1.1,0.1-1.4,0.4s-0.4,0.7-0.4,1.3v0.6
		c0,0.6,0.1,1.1,0.4,1.3c0.3,0.2,0.7,0.4,1.4,0.4h2.1c0.3,0,0.5,0.1,0.6,0.2s0.2,0.3,0.2,0.5v0.6
		C196.7,171.5,196.7,171.6,196.7,171.7z"/>
	<path class="st4" d="M29.7,180.5v-0.7c0-0.2-0.1-0.3-0.3-0.3h-0.7c-0.2,0-0.3,0.1-0.3,0.3v0.7c0,0.2,0.1,0.3,0.3,0.3h0.7
		C29.6,180.8,29.7,180.7,29.7,180.5z"/>
	<rect x="28.5" y="181.7" class="st4" width="1" height="6.9"/>
	<path class="st4" d="M36.7,188.6v-4.8c0-0.6-0.2-1.1-0.6-1.6c-0.4-0.4-0.9-0.7-1.6-0.7c-0.1,0-0.3,0-0.4,0c-0.1,0-0.2,0-0.3,0.1
		s-0.2,0.1-0.3,0.1c-0.1,0.1-0.2,0.1-0.3,0.1s-0.2,0.1-0.3,0.1c-0.1,0.1-0.2,0.1-0.3,0.1c0,0-0.1,0.1-0.3,0.2
		c-0.2,0.1-0.3,0.2-0.3,0.2l-0.3-0.8h-0.7v6.9h1v-5.3c0.4-0.2,0.7-0.3,0.9-0.4c0.2-0.1,0.4-0.1,0.7-0.2c0.3-0.1,0.6-0.1,0.9-0.1
		c0.3,0,0.6,0.1,0.8,0.3c0.2,0.2,0.3,0.5,0.3,0.9v4.8H36.7z"/>
	<path class="st4" d="M39.9,179.9c0-0.1,0-0.2,0.1-0.3c0-0.1,0.1-0.2,0.2-0.2c0.1-0.1,0.3-0.1,0.5-0.1c0,0,0,0,0,0l1.6,0v-0.6
		c-0.7-0.2-1.3-0.3-1.8-0.3c-0.3,0-0.5,0-0.8,0.1s-0.4,0.2-0.5,0.4c-0.1,0.1-0.2,0.3-0.2,0.5c-0.1,0.2-0.1,0.4-0.1,0.5
		c0,0.1,0,0.3,0,0.5v1.3l-1.3,0.2v0.7h1.3v5.9h1v-5.9h1.9v-1h-1.9v-1.3C39.9,180.2,39.9,180,39.9,179.9z"/>
	<path class="st4" d="M48.9,184.1c0-0.6-0.1-1-0.2-1.3s-0.3-0.6-0.6-0.7c-0.3-0.2-0.5-0.3-0.8-0.3c-0.3,0-0.6-0.1-1.1-0.1
		c-0.6,0-1.1,0-1.4,0.1c-0.3,0.1-0.6,0.2-0.9,0.5c-0.3,0.2-0.5,0.6-0.6,1.1c-0.1,0.5-0.2,1.1-0.2,1.8c0,1.4,0.2,2.3,0.5,2.8
		c0.3,0.5,0.9,0.8,1.8,0.8c1.3,0,2.4-0.1,3.3-0.4v-0.7c-0.6,0.1-1.5,0.1-2.7,0.1c-0.1,0-0.2,0-0.3,0c-0.1,0-0.2,0-0.3,0
		c-0.5,0-0.9-0.1-1-0.4c-0.2-0.3-0.3-0.8-0.3-1.6h2.9C48.3,185.6,48.9,185.1,48.9,184.1z M44.2,183.8c0-0.2,0.1-0.4,0.2-0.6
		c0.1-0.2,0.2-0.3,0.3-0.4c0.1-0.1,0.2-0.1,0.4-0.2c0.2,0,0.4-0.1,0.5-0.1c0.1,0,0.4,0,0.7,0c0.7,0,1.2,0.1,1.4,0.2
		c0.2,0.2,0.3,0.6,0.3,1.2c0,0.4-0.3,0.6-0.8,0.6h-2.9C44.2,184.3,44.2,184,44.2,183.8z"/>
	<path class="st4" d="M50.7,188c0.2,0.2,0.5,0.4,0.7,0.5c0.2,0.1,0.5,0.1,0.9,0.1c1.2,0,2.2-0.1,3.1-0.4v-0.7l-0.5,0
		c-0.3,0-0.8,0-1.3,0.1s-0.9,0-1.3,0c-0.5,0-0.8-0.2-1-0.5c-0.2-0.4-0.3-1-0.3-2c0-0.6,0-1.1,0.1-1.4c0.1-0.4,0.2-0.6,0.3-0.8
		s0.3-0.3,0.4-0.3c0.1,0,0.3-0.1,0.5-0.1c0.8,0,1.8,0,3,0.1v-0.7c-1.2-0.2-2.2-0.3-3-0.3c-0.4,0-0.7,0-0.9,0.1
		c-0.3,0.1-0.5,0.2-0.7,0.5s-0.4,0.6-0.5,1.1c-0.1,0.5-0.2,1.1-0.2,1.8c0,0.7,0.1,1.3,0.2,1.8C50.3,187.4,50.5,187.8,50.7,188z"/>
	<path class="st4" d="M60.4,182.6v-1h-2v-1.9h-0.7l-0.2,1.9l-1.3,0.2v0.7h1.3v3.5c0,1.6,0.6,2.5,1.7,2.5h1.1v-0.7
		c-0.1,0-0.4-0.1-1.2-0.3c-0.3-0.1-0.4-0.2-0.6-0.4c-0.1-0.2-0.2-0.6-0.2-1.1v-3.5H60.4z"/>
	<path class="st4" d="M62.7,180.5v-0.7c0-0.2-0.1-0.3-0.3-0.3h-0.7c-0.2,0-0.3,0.1-0.3,0.3v0.7c0,0.2,0.1,0.3,0.3,0.3h0.7
		C62.6,180.8,62.7,180.7,62.7,180.5z"/>
	<rect x="61.6" y="181.7" class="st4" width="1" height="6.9"/>
	<path class="st4" d="M67.1,188.6c1.2,0,2-0.2,2.4-0.7c0.4-0.5,0.7-1.4,0.7-2.7c0-1.4-0.2-2.3-0.7-2.8s-1.2-0.8-2.4-0.8
		c-1.1,0-1.9,0.3-2.4,0.8c-0.4,0.5-0.7,1.5-0.7,2.9c0,1.3,0.2,2.1,0.7,2.7C65.1,188.4,65.9,188.6,67.1,188.6z M65.1,184
		c0.1-0.3,0.1-0.6,0.2-0.8c0.1-0.2,0.2-0.3,0.4-0.4s0.4-0.2,0.6-0.2c0.2,0,0.5,0,0.8,0c0.4,0,0.8,0,1,0.1c0.2,0,0.4,0.2,0.6,0.3
		s0.3,0.4,0.4,0.8c0.1,0.4,0.1,0.8,0.1,1.5c0,0.6,0,1-0.1,1.3c-0.1,0.3-0.2,0.6-0.4,0.7c-0.2,0.2-0.4,0.3-0.6,0.3
		c-0.2,0-0.5,0.1-0.9,0.1c-0.4,0-0.7,0-0.9-0.1c-0.2,0-0.4-0.1-0.6-0.3c-0.2-0.2-0.3-0.4-0.4-0.7s-0.1-0.8-0.1-1.4
		C65,184.7,65,184.3,65.1,184z"/>
	<path class="st4" d="M77.2,188.6v-4.8c0-0.6-0.2-1.1-0.6-1.6c-0.4-0.4-0.9-0.7-1.6-0.7c-0.1,0-0.3,0-0.4,0c-0.1,0-0.2,0-0.3,0.1
		s-0.2,0.1-0.3,0.1c-0.1,0.1-0.2,0.1-0.3,0.1s-0.2,0.1-0.3,0.1c-0.1,0.1-0.2,0.1-0.3,0.1c0,0-0.1,0.1-0.3,0.2
		c-0.2,0.1-0.3,0.2-0.3,0.2l-0.3-0.8h-0.7v6.9h1v-5.3c0.4-0.2,0.7-0.3,0.9-0.4c0.2-0.1,0.4-0.1,0.7-0.2c0.3-0.1,0.6-0.1,0.9-0.1
		c0.3,0,0.6,0.1,0.8,0.3c0.2,0.2,0.3,0.5,0.3,0.9v4.8H77.2z"/>
	<path class="st4" d="M79.3,187.2c-0.2,0-0.3,0.1-0.3,0.3v0.7c0,0.2,0.1,0.3,0.3,0.3h0.7c0.2,0,0.3-0.1,0.3-0.3v-0.7
		c0-0.2-0.1-0.3-0.3-0.3H79.3z"/>
</g>
</svg>
