<?xml version="1.0" encoding="utf-8"?>
<!-- Generator: Adobe Illustrator 23.0.3, SVG Export Plug-In . SVG Version: 6.00 Build 0)  -->
<svg version="1.1" id="Layer_1" xmlns="http://www.w3.org/2000/svg" xmlns:xlink="http://www.w3.org/1999/xlink" x="0px" y="0px"
	 viewBox="0 0 512 250" style="enable-background:new 0 0 512 250;" xml:space="preserve">
<style type="text/css">
	.st0{fill:none;}
	.st1{fill:#E2ECF1;}
	.st2{fill:#A4C2D1;}
	.st3{fill:#80A8BB;}
	.st4{fill:#000640;}
	.st5{fill:#2A3C58;}
	.st6{fill:#EF413E;}
	.st7{fill:#475B76;}
	.st8{fill:#F2F2F2;}
	.st9{fill:#F3D6B5;}
	.st10{fill:#FDD7BA;}
	.st11{fill:#FFFFFF;}
	.st12{fill:#CFD0D3;}
	.st13{opacity:0.58;fill:#E2ECF1;}
	.st14{fill:#A1A3A6;}
	.st15{fill:#D8E2E5;}
	.st16{opacity:0.5;fill:#464642;}
	.st17{fill:#24231E;}
	.st18{opacity:0.5;fill:#24231E;}
	.st19{fill:#010101;}
	.st20{opacity:0.5;fill:#401312;}
	.st21{opacity:0.5;fill:#2A3C58;}
	.st22{fill:none;stroke:#2A3C58;stroke-width:0;stroke-linecap:round;stroke-linejoin:round;}
	.st23{opacity:0.5;fill:none;stroke:#401312;stroke-width:0;stroke-linecap:round;stroke-linejoin:round;}
	.st24{opacity:0.5;fill:none;stroke:#464642;stroke-width:0;stroke-linecap:round;stroke-linejoin:round;}
	.st25{opacity:0.5;fill:none;stroke:#2A3C58;stroke-width:0;stroke-linecap:round;stroke-linejoin:round;}
	.st26{fill:#1C2A43;}
	.st27{fill:#B37D57;}
	.st28{fill:#C3895E;}
	.st29{fill:#7F8342;}
	.st30{fill:#1C2B44;}
	.st31{fill:#E0A577;}
	.st32{fill:#CE976E;}
	.st33{fill:#3B384D;}
	.st34{opacity:0.2;fill:#010101;}
	.st35{fill:#B22E2A;}
	.st36{fill:#6F4434;}
	.st37{fill:#3E3E3E;}
	.st38{fill:#616262;}
	.st39{fill:#575858;}
	.st40{fill:#482D23;}
	.st41{fill:#674031;}
	.st42{fill:#553528;}
	.st43{fill:#91732B;}
	.st44{fill:#D7A929;}
	.st45{fill:#0F7790;}
	.st46{opacity:0.2;fill:#FFFFFF;}
	.st47{fill:#AEAEAE;}
	.st48{fill:#F8983F;}
	.st49{fill:#E57E25;}
	.st50{fill:#A6832E;}
	.st51{fill:#D0AD50;}
	.st52{fill:#818181;}
	.st53{fill:#A3A3A2;}
	.st54{fill:#0CAACC;}
	.st55{fill:#814F3D;}
	.st56{fill:#BDBDBD;}
	.st57{fill:#FAAB62;}
	.st58{fill:#97663A;}
	.st59{fill:#744E2C;}
</style>
<path class="st1" d="M395.9,142.5c-0.5,0.8-1,1.6-1.5,2.4c0.9-0.2,1.9-0.4,2.8-0.7l-0.5-0.7L395.9,142.5z"/>
<path class="st1" d="M291.5,78.4l0.2,0.5c4-6.3,9.2-11.9,15.3-16.3l0-0.5l0.3-6.1l1.7,1.1c0-9.4,0.9-19.1,2.4-28.7
	c0.9-5.6,1.8-11.3,4.2-16.5c2.2-4.9,5.7-8.7,10-11.9h-36.3c-2.9,5.7-5.2,11.5-6.9,17.3c-5.4,19.1-3.7,39,2.2,58l3.3-4.7L291.5,78.4z
	"/>
<path class="st1" d="M426.8,110.8c-8.8,2.4-16.3,7.8-23.9,13.1c-0.8,3.7-1.8,7.3-3.2,10.7l1.3-0.1l7.8-0.9l-3.7,8.5
	c6.9-2.1,13.7-4.7,20.4-7.7c30.3-13.7,48,31.4,86.5,47.1v-32.7c-17.9-7.8-31-22.2-47.8-31.9C453,110.5,439.3,107.3,426.8,110.8z"/>
<path class="st2" d="M445.4,86.3c-13.7,3.8-24.2,15.3-36.8,21.4l0.9,7.5l-4.4-1.9l-1-0.4c-0.1,3.8-0.5,7.5-1.2,11.1
	c7.5-5.3,15.1-10.7,23.9-13.1c12.5-3.4,26.1-0.3,37.4,6.2c16.8,9.7,29.9,24.1,47.8,31.9v-34c-11-7.2-20.6-16.2-32.1-22.9
	C469.5,86,456.9,83.1,445.4,86.3z"/>
<path class="st2" d="M315.6,11.9c-2.3,5.2-3.3,10.9-4.2,16.5c-1.5,9.6-2.4,19.3-2.4,28.7l2.8,1.8l0.3,0.2c6.5-3.9,13.8-6.5,21.6-7.8
	l-0.2-0.3l-4.5-7.3l8-0.2c-0.7-10.8,0.2-22,2-33.2c0.5-3.5,1.1-7,2.1-10.4h-15.6C321.3,3.2,317.7,7,315.6,11.9z"/>
<path class="st3" d="M341.1,0c-1,3.4-1.5,6.9-2.1,10.4c-1.8,11.2-2.7,22.4-2,33.2l10.2-0.3l-3.8,7.1l-0.2,0.3
	c7.7,0,15.1,1.5,21.9,4.1l0.6-5.8l14.8,10.6l-3.3,1.5c5.5,3.7,10.3,8.2,14.3,13.4l0.3-0.7l2.6-6.5l11.3,14.2l-8,1.2l-0.7,0.1
	c2.9,5.4,5,11.3,6.2,17.5l0.7-0.6l3.5-2.6l1.3,10.6c12.6-6.1,23.1-17.6,36.8-21.4c11.5-3.2,24.1-0.3,34.4,5.7
	c11.5,6.6,21.2,15.7,32.1,22.9V0H341.1z"/>
<g>
	<path class="st0" d="M40.6,120.6C40.7,120.6,40.7,120.7,40.6,120.6c0.1,0.1,0.1,0.1,0.1,0.2c0,0,0.1,0.1,0.1,0.1h0.6h0.4h1.7
		c0-0.2,0.1-0.5,0.4-0.7c0.2-0.2,0.5-0.5,0.9-0.8l-2.3-0.4c-0.6-0.1-1.1-0.2-1.3-0.2c-0.3,0-0.5,0-0.6,0.1c-0.1,0.1-0.1,0.2-0.1,0.4
		v0.7c0,0,0,0.1,0,0.2c0,0.1,0,0.1,0,0.2c0,0,0,0.1,0,0.1c0,0.1,0,0.1,0,0.1C40.6,120.5,40.6,120.6,40.6,120.6z"/>
	<path class="st0" d="M33.3,123.9c0.1,0.1,0.1,0.2,0.2,0.3c0.1,0.1,0.1,0.2,0.1,0.3l0,0.1c0.1,0,0.4,0.1,0.7,0.2
		c0.3,0.1,0.5,0.2,0.8,0.4l0.3,0.2v-3h-4.4c0.3,0.1,0.5,0.2,0.6,0.3C32.4,123.2,33,123.6,33.3,123.9z"/>
	<path class="st0" d="M169.5,73.4c0.2-0.2,0.3-0.4,0.3-0.6c0-0.2,0-0.4-0.1-0.6c-0.1-0.3-0.1-0.5-0.2-0.6l-0.1-0.3h-2.6l-0.6,1.3
		c1.6,0.8,2.6,1.1,2.8,1.1C169.1,73.8,169.3,73.7,169.5,73.4z"/>
	<path class="st0" d="M136.7,75.8c-0.2,0.1-0.3,0.2-0.3,0.2c0,0.1,0.1,0.1,0.1,0.3s0.1,0.3,0.3,0.5s0.3,0.5,0.4,0.7
		c0.2,0.2,0.3,0.4,0.6,0.5c0.2,0.2,0.5,0.2,0.7,0.2c0.5,0,1.1-0.3,1.6-0.8c0.6-0.5,0.8-0.9,0.8-1.3c0-0.1-0.1-0.3-0.2-0.5
		c-0.2-0.2-0.3-0.4-0.6-0.7c-0.2-0.2-0.5-0.4-0.7-0.6s-0.4-0.4-0.6-0.5l-0.2-0.2c0,0.3-0.2,0.6-0.5,1c-0.2,0.2-0.4,0.4-0.7,0.6
		C137.1,75.6,136.9,75.7,136.7,75.8z"/>
	<path class="st0" d="M44.1,126l-0.2,0.1c0,0,0.1,0.1,0.1,0.2c0,0.1,0.1,0.2,0.3,0.5c0.1,0.2,0.3,0.4,0.4,0.6
		c0.1,0.2,0.3,0.3,0.4,0.4c0.2,0.1,0.3,0.2,0.4,0.2c0.2,0,0.5-0.1,0.8-0.3s0.5-0.4,0.7-0.6c0.2-0.2,0.3-0.4,0.3-0.5
		c0-0.1-0.1-0.2-0.2-0.4c-0.1-0.2-0.3-0.4-0.4-0.5c-0.2-0.2-0.3-0.3-0.5-0.5c-0.2-0.2-0.3-0.3-0.4-0.4c-0.1-0.1-0.1-0.1-0.2-0.2
		c0,0,0,0.1-0.1,0.1c0,0-0.1,0.1-0.2,0.2c-0.1,0.1-0.2,0.2-0.3,0.3c-0.1,0.1-0.3,0.3-0.5,0.4C44.4,125.8,44.3,126,44.1,126z"/>
	<polygon class="st0" points="36.8,145.2 36.8,140.2 32.6,142.2 	"/>
	<polygon class="st0" points="55.7,127.8 55.7,124.3 52.9,125.7 	"/>
	<path class="st0" d="M127.5,81.1c-0.1,0-0.1-0.1-0.2-0.1c-0.1,0-0.1-0.1-0.2-0.1c-0.1,0-0.1-0.1-0.2-0.1c-0.1,0-0.1,0-0.2-0.1
		c-0.1,0-0.1,0-0.2,0c-0.1,0-0.3,0.1-0.4,0.3s-0.2,0.3-0.2,0.5c0,0.2,0.1,0.3,0.4,0.4c0.3,0.1,0.5,0.2,0.7,0.2
		c0.1,0,0.2-0.1,0.3-0.2s0.2-0.3,0.2-0.4l0.1-0.2c0,0,0,0,0,0C127.6,81.2,127.6,81.2,127.5,81.1z"/>
	<polygon class="st0" points="49.3,162 49.3,157 45,159 	"/>
	<path class="st0" d="M32.8,172.5c-0.2,0-0.5,0.1-0.9,0.3c-0.1,0-0.2,0.1-0.3,0.2c-0.1,0.1-0.2,0.2-0.3,0.3
		c-0.1,0.1-0.2,0.2-0.3,0.3c-0.1,0.1-0.2,0.1-0.2,0.2l-0.1,0.1l1.7,2l2.3-2.1c-0.3-0.3-0.5-0.5-0.7-0.6
		C33.5,172.7,33.2,172.5,32.8,172.5z"/>
	<polygon class="st0" points="46.7,178.8 46.7,173.8 42.5,175.8 	"/>
	<polygon class="st0" points="45.1,147.1 45.1,144.2 42.5,145.3 	"/>
	<polygon class="st0" points="34,162.1 34,157 29.8,159 	"/>
	<path class="st0" d="M55,140.6c0.2-0.2,0.3-0.4,0.3-0.6c0-0.2,0-0.4-0.1-0.6c-0.1-0.3-0.1-0.5-0.2-0.6l-0.1-0.3h-2.6l-0.6,1.3
		c1.6,0.8,2.6,1.1,2.8,1.1C54.6,141,54.8,140.9,55,140.6z"/>
	<path class="st0" d="M94.8,122.4c-0.1-0.1-0.1-0.1-0.2-0.1c-0.1,0-0.2,0-0.4,0c-0.4,0-0.6,0-0.7,0.1c-0.1,0.1-0.1,0.3-0.1,0.6
		c0,0.3,0,0.5,0.1,0.6s0.3,0.1,0.7,0.1c0.4,0,0.6,0,0.6-0.1c0.1-0.1,0.1-0.3,0.1-0.6c0-0.2,0-0.3,0-0.4
		C94.9,122.5,94.9,122.4,94.8,122.4z"/>
	<path class="st0" d="M94.9,127.3c0-0.1,0-0.1,0-0.1c0,0,0-0.1-0.1-0.1s-0.1-0.1-0.1-0.1s-0.1,0-0.1,0c-0.1,0-0.1,0-0.2,0
		c-0.1,0-0.2,0-0.2,0c-0.2,0-0.3,0-0.4,0c-0.1,0-0.2,0-0.2,0.1s-0.1,0.1-0.1,0.1c0,0.1,0,0.1,0,0.2c0,0.1,0,0.2,0,0.3
		c0,0.2,0,0.3,0,0.4c0,0.1,0,0.1,0.1,0.2c0.1,0.1,0.1,0.1,0.2,0.1s0.3,0,0.4,0c0.4,0,0.6,0,0.6-0.1c0.1-0.1,0.1-0.3,0.1-0.6
		c0-0.1,0-0.2,0-0.2C94.9,127.4,94.9,127.4,94.9,127.3z"/>
	<polygon class="st0" points="37.5,94.8 37.5,89.8 33.3,91.8 	"/>
	<polygon class="st0" points="57.1,60.5 57.1,57.1 54.3,58.5 	"/>
	<polygon class="st0" points="102.7,35.6 102.7,31.1 99.1,32.9 	"/>
	<polygon class="st0" points="95,78 95,73 90.7,75 	"/>
	<path class="st0" d="M64.9,139c1,0.6,1.6,1,1.8,1.3c0.1,0.1,0.1,0.2,0.2,0.3c0.1,0.1,0.1,0.2,0.1,0.3l0,0.1c0.1,0,0.3,0,0.4,0.1
		c0.2,0.1,0.4,0.1,0.5,0.2c0.2,0.1,0.3,0.1,0.5,0.2c0.1,0.1,0.3,0.1,0.4,0.2l0.2,0.1v-3.2h-4.9C64.5,138.8,64.8,138.9,64.9,139z"/>
	<polygon class="st0" points="58.1,178.8 58.1,173.8 53.9,175.8 	"/>
	<path class="st0" d="M88.3,139.4c0.7,0.4,1,0.9,1,1.3l-0.1,1l2,0.9v-4h-4.5C87,138.7,87.6,139,88.3,139.4z"/>
	<path class="st0" d="M106.6,71.3h-4.9c0.5,0.2,0.7,0.4,0.9,0.4c1,0.6,1.6,1,1.8,1.3c0.1,0.1,0.1,0.2,0.2,0.3
		c0.1,0.1,0.1,0.2,0.1,0.3l0,0.1c0.1,0,0.3,0,0.4,0.1c0.2,0.1,0.4,0.1,0.5,0.2c0.2,0.1,0.3,0.1,0.5,0.2c0.1,0.1,0.3,0.1,0.4,0.2
		l0.2,0.1V71.3z"/>
	<polygon class="st0" points="49.3,78 49.3,73 45,75 	"/>
	<path class="st0" d="M46,93.8c0,0.4,0.1,0.8,0.2,1c0.1,0.2,0.4,0.3,0.7,0.3c0.4,0,0.9-0.2,1.6-0.7c0.7-0.5,1.2-1,1.6-1.5
		c0.3-0.4,0.4-0.8,0.4-1.1c0-0.2-0.1-0.4-0.2-0.5c-0.1-0.1-0.3-0.2-0.6-0.2L46,90.5V93.8z"/>
	<polygon class="st0" points="128.3,73 124,75 128.3,78 	"/>
	<path class="st0" d="M62.1,61c0.1,0.1,0.1,0.1,0.2,0.1s0.3,0,0.4,0c0.4,0,0.6,0,0.6-0.1c0.1-0.1,0.1-0.3,0.1-0.6c0-0.1,0-0.2,0-0.2
		c0,0,0-0.1,0-0.2s0-0.1,0-0.1c0,0,0-0.1-0.1-0.1s-0.1-0.1-0.1-0.1s-0.1,0-0.1,0c-0.1,0-0.1,0-0.2,0c-0.1,0-0.2,0-0.2,0
		c-0.2,0-0.3,0-0.4,0c-0.1,0-0.2,0-0.2,0.1s-0.1,0.1-0.1,0.1c0,0.1,0,0.1,0,0.2c0,0.1,0,0.2,0,0.3c0,0.2,0,0.3,0,0.4
		C62,60.9,62.1,61,62.1,61z"/>
	<path class="st0" d="M62.8,56.5c0.4,0,0.6,0,0.6-0.1c0.1-0.1,0.1-0.3,0.1-0.6c0-0.2,0-0.3,0-0.4c0-0.1,0-0.1-0.1-0.2
		c-0.1-0.1-0.1-0.1-0.2-0.1c-0.1,0-0.2,0-0.4,0c-0.4,0-0.6,0-0.7,0.1c-0.1,0.1-0.1,0.3-0.1,0.6c0,0.3,0,0.5,0.1,0.6
		S62.4,56.5,62.8,56.5z"/>
	<polygon class="st0" points="64.3,35.5 64.3,31.2 60.7,32.9 	"/>
	<polygon class="st0" points="34,78.1 34,73 29.8,75 	"/>
	<path class="st0" d="M104.2,88.5c-0.2,0-0.5,0.1-0.9,0.3c-0.1,0-0.2,0.1-0.3,0.2c-0.1,0.1-0.2,0.2-0.3,0.3
		c-0.1,0.1-0.2,0.2-0.3,0.3c-0.1,0.1-0.2,0.1-0.2,0.2l-0.1,0.1l1.7,2l2.3-2.1c-0.3-0.3-0.5-0.5-0.7-0.6
		C104.9,88.7,104.5,88.5,104.2,88.5z"/>
	<polygon class="st0" points="75.4,94.9 75.4,89.8 71.2,91.8 	"/>
	<polygon class="st0" points="94.8,178.8 94.8,173.8 90.6,175.8 	"/>
	<path class="st0" d="M104.3,157.1c0.1,0.1,0.1,0.2,0.2,0.3c0.1,0.1,0.1,0.2,0.1,0.3l0,0.1c0.1,0,0.3,0,0.4,0.1
		c0.2,0.1,0.4,0.1,0.5,0.2c0.2,0.1,0.3,0.1,0.5,0.2c0.1,0.1,0.3,0.1,0.4,0.2l0.2,0.1v-3.2h-4.9c0.5,0.2,0.7,0.4,0.9,0.4
		C103.5,156.3,104.1,156.8,104.3,157.1z"/>
	<path class="st0" d="M121.7,156.9c0.1,0.1,0.2,0.2,0.4,0.4c0.1,0.2,0.2,0.4,0.2,0.6c0,0.4-0.2,0.8-0.5,1.1s-0.9,0.7-1.8,1.2
		l3.9,2.1v-6.8h-5c0.9,0.4,1.7,0.8,2.4,1.2C121.4,156.7,121.6,156.8,121.7,156.9z"/>
	<polygon class="st0" points="121.3,94.8 121.3,89.8 117.1,91.8 	"/>
	<path class="st0" d="M104.2,179.2c0.4,0,0.9-0.2,1.6-0.7c0.7-0.5,1.2-1,1.6-1.5c0.3-0.4,0.4-0.8,0.4-1.1c0-0.2-0.1-0.4-0.2-0.5
		c-0.1-0.1-0.3-0.2-0.6-0.2l-3.7-0.7v3.3c0,0.4,0.1,0.8,0.2,1C103.6,179.1,103.9,179.2,104.2,179.2z"/>
	<polygon class="st0" points="135.2,162.1 135.2,157 131,159 	"/>
	<polygon class="st0" points="178.6,178.8 178.6,173.8 174.4,175.8 	"/>
	<path class="st0" d="M161.5,172.5c-0.2,0-0.5,0.1-0.9,0.3c-0.1,0-0.2,0.1-0.3,0.2c-0.1,0.1-0.2,0.2-0.3,0.3
		c-0.1,0.1-0.2,0.2-0.3,0.3c-0.1,0.1-0.2,0.1-0.2,0.2l-0.1,0.1l1.7,2l2.3-2.1c-0.3-0.3-0.5-0.5-0.7-0.6
		C162.2,172.7,161.8,172.5,161.5,172.5z"/>
	<polygon class="st0" points="95,162 95,157 90.7,159 	"/>
	<polygon class="st0" points="132.7,178.9 132.7,173.8 128.5,175.8 	"/>
	<path class="st4" d="M34.8,61.2c-0.4,0.4-1,0.6-1.7,0.6c-0.3,0-0.7-0.1-1.1-0.4c-0.4-0.3-0.8-0.7-1.1-1.2l-1.3-1.9l-1,0.5l0.1,0.4
		c0.1,0.2,0.2,0.6,0.4,1c0.2,0.4,0.4,0.9,0.7,1.3c0.9,1.3,2.1,2,3.5,2c0.6,0,1.3-0.2,1.9-0.6c0.6-0.4,1.2-0.9,1.7-1.6
		c0.5-0.7,0.7-1.2,0.7-1.7c0-0.4-0.1-0.8-0.3-1.2c-0.2-0.4-0.5-0.7-0.8-0.8c0,0,0.1-0.1,0.1-0.1c0-0.1,0.1-0.1,0.1-0.2
		s0-0.2,0.1-0.3c0-0.1,0-0.2,0-0.3c0-0.1,0-0.2,0-0.3c0-0.1,0-0.2,0-0.3c0-0.1,0-0.2,0-0.2c0-0.2,0-0.5,0-0.9c0-0.4-0.3-0.7-0.8-0.9
		c-0.5-0.2-1.2-0.3-2-0.3l-0.6,0.6L33,54.1c-0.3-0.1-0.6-0.2-0.9-0.3c-0.4-0.1-0.6-0.2-0.8-0.2c-0.2,0-0.4,0-0.5,0.1
		c-0.1,0-0.3,0.1-0.4,0.3c-0.1,0.1-0.2,0.3-0.4,0.5c-0.2,0.3-0.3,0.5-0.4,0.9c-0.1,0.3-0.2,0.6-0.2,0.9c0,0.1,0,0.2,0,0.2
		c0,0.1,0.1,0.2,0.1,0.2c0.1,0.1,0.1,0.1,0.2,0.2c0.1,0.1,0.1,0.1,0.2,0.2c0.1,0.1,0.2,0.1,0.3,0.2c0.1,0,0.2,0.1,0.3,0.1
		c0.1,0.1,0.2,0.1,0.3,0.1c0.1,0,0.2,0.1,0.3,0.1c0.1,0.1,0.2,0.1,0.3,0.1c0.1,0,0.2,0.1,0.2,0.1c0.1,0,0.1,0.1,0.1,0.1
		s0,0.1,0.1,0.1c0,0.1,0,0.1,0,0.2c0,0,0,0.1,0,0.1s-0.1,0.1-0.1,0.1c0,0-0.1,0.1-0.1,0.1c-0.1,0-0.1,0.1-0.2,0.1
		c-0.1,0-0.1,0.1-0.2,0.1c-0.1,0-0.1,0.1-0.2,0.1c0,0-0.1,0-0.1,0.1c0,0-0.1,0-0.1,0.1c0,0,0,0,0,0l0.6,1l0.1,0
		c0.1,0,0.1-0.1,0.3-0.1c0.1-0.1,0.2-0.1,0.3-0.2c0.1-0.1,0.3-0.1,0.4-0.2s0.2-0.2,0.3-0.3s0.2-0.2,0.3-0.3s0.1-0.2,0.1-0.3
		c0-0.4,0-0.7-0.1-1c0-0.1,0-0.1-0.1-0.2c0-0.1,0-0.1,0-0.2c0,0,0-0.1,0-0.1c0-0.1,0-0.1,0-0.1c0,0,0-0.1,0-0.1s0-0.1-0.1-0.1
		s0,0-0.1-0.1s-0.1-0.1-0.1-0.1c0,0-0.1,0-0.1-0.1c0,0-0.1,0-0.2-0.1c0,0-0.1,0-0.2-0.1c-0.1,0-0.2-0.1-0.3-0.1s-0.1-0.1-0.3-0.1
		c-0.1,0-0.2-0.1-0.3-0.1c-0.1,0-0.1-0.1-0.2-0.1S31,56,31,56c0,0,0-0.1,0-0.1c0-0.1,0-0.3,0.1-0.4c0.1-0.2,0.2-0.2,0.3-0.2
		c0.3,0,1,0.2,2.1,0.6l0.7-0.7c0.5,0,0.8,0,1,0.1c0.2,0.1,0.2,0.3,0.2,0.6c0,0,0,0,0,0.1c0,0,0,0,0,0.1c0,0.3-0.1,0.6-0.2,0.7
		C35,56.9,34.9,57,34.6,57h-1v1.4h1.3c0.3,0,0.5,0.1,0.7,0.3c0.2,0.2,0.3,0.5,0.3,0.7C35.9,59.9,35.6,60.5,34.8,61.2z"/>
	<path class="st4" d="M52.1,57.7V59l5,3.6h1.7v-7.4h1.1v-1.5h-8.1h-0.4H38v1.5h4.8v3.7l0.1,0c0,0,0.1,0,0.2,0c0.1,0,0.2,0,0.3,0
		c0.1,0,0.2,0,0.3,0c0.1,0,0.2,0,0.3,0c0.1,0,0.2,0,0.4,0c0.1,0,0.2,0,0.4,0c0.1,0,0.2,0,0.3,0s0.2,0,0.3,0c0.3,0,0.5,0,0.7,0
		c0.1,0,0.2,0,0.3,0.1c0.1,0.1,0.1,0.2,0.1,0.3c0,0.1-0.1,0.3-0.3,0.6c-0.2,0.3-0.5,0.5-0.8,0.8c-0.5,0.4-0.9,0.6-1.2,0.6
		c-0.3,0-0.6-0.1-0.9-0.3c-0.3-0.2-0.6-0.5-0.9-0.8c-0.6-0.8-1.5-1.9-2.6-3.3l-1,0.5l0.2,0.5c0.1,0.3,0.4,0.8,0.8,1.5
		c0.4,0.6,0.8,1.3,1.3,2c0.4,0.5,0.9,0.9,1.4,1.2c0.5,0.3,1,0.4,1.5,0.4c0.2,0,0.4,0,0.5,0c0.2,0,0.3-0.1,0.5-0.2
		c0.2-0.1,0.3-0.2,0.4-0.3c0.1-0.1,0.3-0.2,0.5-0.4c0.6-0.5,1.1-1,1.5-1.6c0.4-0.6,0.6-1.2,0.6-1.7c0-0.2,0-0.3-0.1-0.5
		c-0.1-0.1-0.2-0.2-0.3-0.3c-0.1-0.1-0.3-0.1-0.4-0.2c-0.1,0-0.3-0.1-0.6-0.1c-0.2,0-0.4,0-0.6,0s-0.3,0-0.6,0c-0.3,0-0.7,0-1,0.1
		v-0.9l0.2,0c0.1,0,0.3,0.1,0.5,0.1c0.2,0,0.4,0.1,0.7,0.1c0.3,0.1,0.5,0.1,0.8,0.2s0.5,0.1,0.8,0.2c0.2,0.1,0.5,0.1,0.7,0.2
		c0.2,0.1,0.4,0.1,0.5,0.1c0.2,0.1,0.4,0.2,0.5,0.3c0.1,0.1,0.1,0.3,0.1,0.4c0,0.2,0,0.4-0.1,0.6c-0.3,0.8-0.8,2.3-1.5,4.3h1.7
		l1.5-4.5c0.1-0.2,0.1-0.4,0.1-0.6c0-0.9-0.7-1.5-2.2-2c-0.8-0.2-2.2-0.5-4.1-0.6v-0.2h6.9h0.4h5.3v0.3L52.1,57.7z M57.1,60.5
		l-2.8-2.1l2.8-1.3V60.5z"/>
	<path class="st4" d="M62.8,57.9c0.7,0,1.3-0.1,1.6-0.4s0.5-0.8,0.5-1.6c0-0.4,0-0.7-0.1-0.9s-0.1-0.5-0.2-0.6
		c-0.1-0.2-0.2-0.3-0.4-0.4s-0.4-0.1-0.6-0.2c-0.2,0-0.5,0-0.8,0c-0.4,0-0.7,0-0.9,0.1c-0.2,0.1-0.5,0.2-0.6,0.3s-0.3,0.4-0.4,0.7
		c-0.1,0.3-0.1,0.6-0.1,1.1c0,0.8,0.2,1.3,0.5,1.6C61.5,57.7,62.1,57.9,62.8,57.9z M62.1,55.1c0.1-0.1,0.3-0.1,0.7-0.1
		c0.2,0,0.3,0,0.4,0c0.1,0,0.2,0.1,0.2,0.1c0.1,0.1,0.1,0.1,0.1,0.2c0,0.1,0,0.2,0,0.4c0,0.3,0,0.5-0.1,0.6
		c-0.1,0.1-0.3,0.1-0.6,0.1c-0.4,0-0.6,0-0.7-0.1S62,56.1,62,55.7C62,55.4,62.1,55.2,62.1,55.1z"/>
	<path class="st4" d="M61.2,62.1c0.3,0.3,0.9,0.5,1.6,0.5c0.4,0,0.7,0,0.9-0.1s0.5-0.2,0.6-0.3c0.2-0.2,0.3-0.4,0.4-0.6
		s0.1-0.6,0.1-1c0-0.4,0-0.8-0.1-1.1c-0.1-0.3-0.2-0.5-0.4-0.7s-0.4-0.3-0.6-0.3c-0.2-0.1-0.5-0.1-0.9-0.1c-0.4,0-0.7,0-0.9,0.1
		c-0.2,0.1-0.5,0.2-0.6,0.3s-0.3,0.4-0.4,0.7c-0.1,0.3-0.1,0.7-0.1,1.1C60.7,61.3,60.9,61.8,61.2,62.1z M62,60.2c0-0.1,0-0.1,0-0.2
		c0-0.1,0.1-0.1,0.1-0.1s0.1,0,0.2-0.1c0.1,0,0.2,0,0.4,0c0.1,0,0.2,0,0.2,0c0.1,0,0.1,0,0.2,0c0.1,0,0.1,0,0.1,0s0.1,0,0.1,0.1
		s0,0.1,0.1,0.1c0,0,0,0.1,0,0.1s0,0.1,0,0.2c0,0,0,0.1,0,0.2c0,0.3,0,0.5-0.1,0.6c-0.1,0.1-0.3,0.1-0.6,0.1c-0.2,0-0.3,0-0.4,0
		s-0.2-0.1-0.2-0.1C62.1,61,62,60.9,62,60.8c0-0.1,0-0.2,0-0.4C62,60.3,62,60.2,62,60.2z"/>
	<path class="st4" d="M34,71.9l-5.2,2.4v1.2l5.2,3.9h1V73l1.9,0.6c0.7,0.2,1.1,0.5,1.1,0.9c0,0.2-0.1,0.3-0.2,0.6l-0.9,1.5l0.7,0.5
		l0.2-0.2c0.1-0.1,0.3-0.3,0.5-0.6c0.2-0.3,0.4-0.5,0.5-0.8c0.2-0.3,0.3-0.7,0.3-1c0-0.3-0.1-0.5-0.2-0.8s-0.3-0.4-0.5-0.6
		c-0.2-0.1-0.4-0.3-0.7-0.3L35,71.9v-0.6h4h1h1.2l-0.1,0.2c-0.7,1.8-1.1,3.4-1.1,4.7c0,0.6,0.1,1,0.3,1.4c0.2,0.4,0.6,0.7,1.1,1
		c0.4,0.2,1.1,0.6,2.1,1.1l0.3-0.6L42,77.8c-0.3-0.2-0.6-0.5-0.7-0.7c-0.1-0.3-0.2-0.6-0.2-1c0-0.4,0-0.9,0.1-1.4
		c0.1-0.5,0.2-0.9,0.3-1.3c0.1-0.4,0.2-0.7,0.3-1.1c0.1-0.4,0.2-0.6,0.3-0.7c0.1-0.1,0.1-0.2,0.1-0.3h0.5h0.4h6.1v0.6L44,74.3v1.2
		l5.3,3.8h1l0-8H51h0.3h1v8h1v-8h0.7v-0.9h-0.9l-0.3-0.8h-0.6l0.1,0.9l-0.6-0.1h-0.5H51h-7.9h-0.4H40h-1H27.6v0.9H34V71.9z M34,78.1
		L29.8,75l4.2-2V78.1z M49.3,78L45,75l4.2-2V78z"/>
	<path class="st4" d="M45.9,79.5c0.1,0,0.2,0,0.2,0s0-0.1,0-0.2v-0.9c0-0.1,0-0.1,0-0.2c0,0,0,0-0.1-0.1c0,0-0.1,0-0.2,0H45
		c-0.1,0-0.2,0-0.2,0s0,0.1,0,0.2v0.9c0,0.1,0,0.1,0,0.2c0,0,0.1,0,0.2,0H45.9z"/>
	<path class="st4" d="M74.7,76.5c-0.5,0.4-0.9,0.7-1.4,1c-0.4,0.2-0.8,0.3-1.3,0.3c-0.7,0-1.5-0.5-2.3-1.4l-2.1-2.3L67,74.5l0.3,0.5
		c0.2,0.3,0.5,0.7,0.8,1.2c0.4,0.5,0.7,0.9,1,1.2c1,1,2,1.5,2.9,1.5c0.5,0,1.1-0.1,1.6-0.4c0.7-0.4,1.4-0.9,2-1.4
		c0.6-0.6,0.9-1.1,0.9-1.6c0-0.4-0.3-0.8-0.8-1.4c-0.5-0.6-1-0.9-1.4-0.9c-0.2,0-0.4,0.1-0.6,0.2c-0.2,0.2-0.4,0.3-0.6,0.5
		c-0.2,0.2-0.4,0.3-0.6,0.5c-0.2,0.2-0.4,0.2-0.6,0.2c-0.4,0-0.7,0-0.9-0.1c-0.2-0.1-0.3-0.2-0.3-0.4c0-0.7,0.1-1.1,0.4-1.1h1
		l0.1-0.8l-0.2,0c-0.1,0-0.3,0-0.5-0.1c-0.2,0-0.4,0-0.5,0c-0.5,0-0.8,0.1-1,0.2c-0.3,0.2-0.4,0.8-0.4,1.6c0,0.6,0.2,1.1,0.6,1.3
		c0.4,0.2,0.9,0.4,1.7,0.4c0.3,0,0.6-0.1,0.8-0.2c0.3-0.1,0.5-0.3,0.6-0.4c0.2-0.2,0.3-0.3,0.4-0.4c0.1-0.1,0.3-0.2,0.3-0.2
		c0.2,0,0.4,0.1,0.6,0.4c0.2,0.3,0.4,0.5,0.4,0.7C75.4,75.8,75.2,76.1,74.7,76.5z"/>
	<path class="st4" d="M107.6,79.4v-8h1v-0.9h-8.7h-0.3H99l-0.3-0.8h-0.6l0.1,0.9l-0.6-0.1H97h-0.3h-7.9h-0.4h-1.3
		c0-0.4-0.1-0.7-0.2-1c-0.1-0.3-0.3-0.5-0.6-0.7s-0.6-0.3-1-0.3c-0.6,0-1.8,0.1-3.8,0.2l0.1,0.7h3.7c0.3,0,0.6,0.1,0.7,0.2
		c0.1,0.1,0.2,0.4,0.2,0.8h-5.5h-0.4h-0.5l-0.3-0.8h-0.6l0.1,0.9l-0.6-0.1h-0.5h-0.3H66.3H66h-0.6l-0.3-0.8h-0.6l0.1,0.9L64,70.5
		h-0.5h-0.3h-8.3v0.9h6.6v3c0,0-0.2-0.1-0.6-0.3c-0.4-0.2-0.9-0.4-1.5-0.5c-0.6-0.2-1-0.3-1.3-0.3c-0.3,0-0.6,0-0.9,0.1
		c-0.2,0.1-0.5,0.2-0.7,0.4c-0.4,0.4-0.6,0.8-0.6,1.5c0,0.6,0.2,1.2,0.6,1.6c0.2,0.2,0.6,0.5,1.3,1l0.5-0.6l-0.2-0.2
		c-0.2-0.1-0.3-0.3-0.6-0.6s-0.4-0.5-0.5-0.6c0,0,0-0.1,0-0.1c0,0,0-0.1,0-0.1c0,0,0-0.1,0-0.1c0,0,0-0.1,0-0.1c0,0,0-0.1,0-0.2
		c0-0.1,0-0.1,0-0.2c0-0.1,0-0.1,0.1-0.2c0-0.1,0-0.1,0.1-0.1c0,0,0.1-0.1,0.1-0.1c0,0,0.1-0.1,0.1-0.1c0,0,0.1-0.1,0.1-0.1
		c0,0,0.1-0.1,0.1-0.1c0.1,0,0.1,0,0.2,0c0.1,0,0.1,0,0.2,0c0.2,0,0.4,0,0.8,0.1c0.3,0.1,0.6,0.1,0.9,0.2c0.3,0.1,0.6,0.2,0.9,0.3
		c0.3,0.1,0.6,0.2,0.7,0.2c0.1,0,0.2,0.1,0.3,0.1v4h1v-8h0.7h0.3h1.1v8h1v-8H66h0.3h11.3h0.3h1.1v8h1v-8h0.4h0.4h7.8h0.4H95v0.6
		l-5.3,2.4v1.2l5.3,3.8h1l0-8h0.8H97h1.1v8h1v-8h0.4h0.3h1.4l-0.3,0.5l1.4,1c0.7,0.5,1.1,1,1.1,1.3c0,0.2-0.1,0.4-0.2,0.7
		c-0.5,1.3-0.9,1.9-1.3,1.9c-0.1,0-0.7-0.1-1.5-0.4l-0.2,0.8l0.3,0.2c0.2,0.1,0.5,0.2,0.8,0.3s0.6,0.2,0.8,0.2c0.4,0,0.8-0.2,1-0.6
		c0.3-0.4,0.6-0.9,0.9-1.7c0.1-0.2,0.1-0.3,0.2-0.4c0.1-0.1,0.2-0.1,0.2-0.2c0.1,0,0.1,0,0.2,0c0.3,0,0.9,0.2,1.7,0.7v3.7H107.6z
		 M95,78L90.7,75l4.2-2V78z M106.4,74.5c-0.1-0.1-0.2-0.1-0.4-0.2c-0.1-0.1-0.3-0.1-0.5-0.2c-0.2-0.1-0.3-0.1-0.5-0.2
		c-0.2-0.1-0.3-0.1-0.4-0.1l0-0.1c0-0.1,0-0.2-0.1-0.3c-0.1-0.1-0.1-0.2-0.2-0.3c-0.2-0.3-0.8-0.7-1.8-1.3c-0.1-0.1-0.4-0.2-0.9-0.4
		h4.9v3.2L106.4,74.5z"/>
	<path class="st4" d="M85.8,75.3c-0.2,0.1-0.4,0.2-0.6,0.3c-0.2,0.1-0.5,0.2-0.7,0.3c-0.2,0.1-0.5,0.1-0.8,0.2s-0.5,0.1-0.7,0.2
		s-0.4,0.1-0.6,0.1c-0.2,0-0.4,0.1-0.4,0.1c-0.1,0-0.1,0-0.2,0l-0.1,1.1c0.6,0.4,1.4,0.8,2.4,1.3c1,0.5,1.7,0.8,2.1,1
		c0.4,0.2,0.8,0.3,1,0.4l0.3-0.7c-1.9-1.1-3.2-1.9-4.1-2.4c0.3-0.1,0.6-0.1,0.8-0.2c0.2-0.1,0.5-0.1,0.8-0.2s0.6-0.2,0.9-0.3
		s0.6-0.3,0.8-0.4c0.2-0.2,0.4-0.3,0.6-0.5c0.2-0.2,0.2-0.4,0.2-0.6c0-0.4,0-0.7,0-0.9c0-0.2-0.1-0.5-0.2-0.7s-0.2-0.5-0.4-0.6
		s-0.4-0.3-0.7-0.4c-0.3-0.1-0.7-0.2-1.2-0.2c-0.9,0-1.9,0.1-3.1,0.3l0.1,0.7h2.9c0.6,0,1,0.1,1.2,0.2c0.2,0.2,0.3,0.6,0.3,1.2
		c0,0.1-0.1,0.3-0.2,0.4C86.1,75.1,86,75.2,85.8,75.3z"/>
	<path class="st4" d="M91.6,79.5c0.1,0,0.2,0,0.2,0s0-0.1,0-0.2v-0.9c0-0.1,0-0.1,0-0.2c0,0,0,0-0.1-0.1c0,0-0.1,0-0.2,0h-0.9
		c-0.1,0-0.2,0-0.2,0s0,0.1,0,0.2v0.9c0,0.1,0,0.1,0,0.2c0,0,0.1,0,0.2,0H91.6z"/>
	<path class="st4" d="M118.3,71.3L118.3,71.3c0-0.1-0.1-0.2-0.1-0.3c-0.1-0.1-0.1-0.2-0.2-0.2c-0.1-0.1-0.2-0.1-0.4-0.2
		c-0.2-0.1-0.3-0.1-0.5-0.1c-0.1,0-0.3,0-0.4,0c-0.1,0-0.2,0-0.3,0.1c-0.1,0-0.2,0.1-0.3,0.1c-0.1,0.1-0.2,0.2-0.3,0.3
		c-0.2-0.2-0.3-0.3-0.5-0.4c-0.2-0.1-0.4-0.1-0.7-0.1h-1.8v0.9c0.6,0,1.1,0,1.7,0.1c0.2,0,0.3,0.1,0.4,0.1c0.1,0.1,0.2,0.1,0.2,0.3
		c0.1,0.1,0.1,0.3,0.1,0.5c0,0.5,0,0.9-0.1,1.1s-0.3,0.4-0.6,0.5c-0.4,0.2-0.8,0.3-1.1,0.4l0.2,0.8l0.2,0c0.1,0,0.3,0,0.4-0.1
		c0.2,0,0.4-0.1,0.5-0.1c0.4-0.1,0.7-0.3,0.9-0.5l0.1,0.1c0.1,0.1,0.2,0.1,0.4,0.2c0.2,0.1,0.3,0.2,0.5,0.2c0.3,0.1,0.6,0.2,0.8,0.2
		l0.3-0.7l-0.1-0.1c-0.1,0-0.2-0.1-0.4-0.2c-0.2-0.1-0.3-0.2-0.5-0.3c-0.1-0.1-0.2-0.2-0.3-0.2c-0.1-0.1-0.1-0.2-0.2-0.3
		c0-0.1-0.1-0.2-0.1-0.4c0-0.1,0-0.3,0-0.5c0-0.4,0.1-0.6,0.3-0.8c0.2-0.1,0.4-0.2,0.8-0.2c0.1,0,0.3,0,0.4,0.1
		c0.1,0.1,0.2,0.1,0.3,0.2c0.1,0.1,0.1,0.2,0.2,0.3c0,0.1,0.1,0.2,0.1,0.2c0,0,0,0.1,0,0.1l1-0.5h0c0,0,0,0,0.1,0c0,0,0,0,0.1,0
		c0,0,0,0,0.1,0.1c0,0,0.1,0.1,0.1,0.1s0,0.1,0,0.2c0,0.1,0,0.1,0,0.2c0,0.3,0,0.5,0,0.7c0,0.3,0,0.5-0.1,0.6c0,0.1-0.1,0.2-0.2,0.3
		s-0.2,0.2-0.4,0.2h-0.6v0.9h0.9c0.3,0,0.5,0.1,0.7,0.4c0.2,0.3,0.3,0.6,0.3,0.8c0,0.5-0.2,0.9-0.7,1.3c-0.6,0.5-1.1,0.7-1.5,0.7
		c-0.5,0-1-0.1-1.4-0.4c-0.2-0.2-0.6-0.5-1-1l-1.1-1.4l-0.6,0.3l0.2,0.4c0.1,0.2,0.2,0.5,0.4,0.9c0.2,0.3,0.3,0.6,0.4,0.7
		c0.5,0.7,0.9,1.1,1.4,1.3s1,0.3,1.5,0.3c0.5,0,1.1-0.1,1.5-0.4c0.6-0.4,1.1-0.8,1.4-1.2c0.3-0.5,0.5-0.9,0.5-1.3
		c0-0.3-0.1-0.7-0.3-1.2c-0.2-0.4-0.5-0.7-0.8-0.8c0.1,0,0.1-0.1,0.1-0.2c0-0.1,0.1-0.2,0.1-0.3s0-0.2,0-0.3c0-0.1,0-0.2,0-0.4
		c0-0.2,0-0.3,0-0.3c0-0.2,0-0.6,0-1c0-0.4-0.2-0.7-0.5-0.9c-0.3-0.2-0.7-0.4-1.1-0.4L118.3,71.3z"/>
	<path class="st4" d="M128.2,79.4l-0.3,1l-0.3-0.1c-0.2-0.1-0.4-0.2-0.7-0.2c-0.3-0.1-0.5-0.1-0.6-0.1c-0.3,0-0.5,0.1-0.7,0.4
		c-0.2,0.3-0.3,0.5-0.4,0.8s-0.1,0.5-0.1,0.7c0,0.3,0.1,0.5,0.4,0.7c0.3,0.2,0.6,0.4,0.9,0.5c0.3,0.1,0.6,0.1,0.8,0.1
		c0.2,0,0.4-0.1,0.6-0.4c0.2-0.3,0.4-0.5,0.5-0.6s0.1-0.3,0.2-0.4l2.1,1.3l0.3-0.4c0,0-0.2-0.2-0.5-0.4c-0.3-0.3-0.6-0.5-1-0.8
		c-0.4-0.3-0.6-0.5-0.7-0.6l0.4-1.4h0.1v-8h0.9v-0.9h-1.1l-0.3-0.9h-0.6l0.1,0.9v1.5l-2.4,1l-0.5-0.2c-0.3-0.1-0.6-0.3-1-0.5
		c-0.3-0.2-0.5-0.4-0.5-0.6c0-0.2,0.1-0.4,0.2-0.6s0.3-0.3,0.5-0.3c0.3,0,0.7,0,1.2,0.1l0.1-0.6l-0.2-0.1c-0.2-0.1-0.4-0.1-0.6-0.2
		c-0.3-0.1-0.5-0.1-0.7-0.1c-0.3,0-0.6,0.2-0.9,0.6c-0.2,0.4-0.4,0.8-0.4,1.1c0,0.2,0.1,0.4,0.2,0.6s0.3,0.3,0.4,0.5
		c0.2,0.1,0.3,0.2,0.5,0.3c0.2,0.1,0.3,0.2,0.4,0.2c0.1,0,0.1,0.1,0.2,0.1l-1.9,0.9v1.1L128.2,79.4L128.2,79.4z M127.6,81.5
		c-0.1,0.1-0.1,0.3-0.2,0.4s-0.2,0.2-0.3,0.2c-0.2,0-0.4-0.1-0.7-0.2c-0.3-0.1-0.4-0.3-0.4-0.4c0-0.1,0.1-0.3,0.2-0.5
		s0.2-0.3,0.4-0.3c0.1,0,0.1,0,0.2,0c0.1,0,0.1,0,0.2,0.1c0.1,0,0.1,0.1,0.2,0.1c0.1,0,0.1,0.1,0.2,0.1c0.1,0,0.1,0.1,0.2,0.1
		c0.1,0,0.1,0.1,0.1,0.1c0,0,0,0,0,0L127.6,81.5z M124,75l4.2-2v5L124,75z"/>
	<path class="st4" d="M137.3,72.2C137.3,72.2,137.3,72.2,137.3,72.2c0.2,0.3,0.3,0.5,0.4,0.6c0.1,0.1,0.1,0.2,0.1,0.4
		c0,0.2,0,0.3-0.1,0.5c-0.1,0.2-0.2,0.3-0.4,0.5c-0.3,0.4-1,0.8-2.1,1.3c0,0.2,0.1,0.6,0.3,1c0.2,0.4,0.4,0.9,0.7,1.3
		s0.6,0.8,1.1,1.1c0.4,0.3,0.8,0.5,1.3,0.5c0.4,0,0.8-0.1,1.3-0.3s0.8-0.5,1.1-0.8c0.3-0.3,0.6-0.7,0.8-1c0.2-0.4,0.3-0.7,0.3-1
		c0-0.3-0.2-0.8-0.6-1.3c-0.4-0.5-0.9-1-1.4-1.4s-1-0.8-1.4-1.3s-0.6-0.7-0.6-0.9h4.6h0.3h1v8h1v-8h0.7v-0.9h-0.9l-0.3-0.8h-0.6
		l0.1,0.9l-0.6-0.1h-0.4h-0.3H138v0c0,0,0,0,0,0c0,0,0,0,0,0c0,0,0,0,0,0c0,0,0,0,0-0.1c0,0,0,0,0-0.1s0,0,0.1-0.1
		c0.3-0.3,0.9-0.9,1.8-1.7l-0.4-0.5c0,0-0.1,0.1-0.4,0.3c-0.2,0.2-0.5,0.4-0.9,0.7c-0.4,0.3-0.7,0.6-0.9,0.8
		c-0.2,0.3-0.4,0.5-0.4,0.7h-2.6v0.9h2.5C137,71.6,137.1,71.9,137.3,72.2z M138.1,74.7c0.3-0.4,0.5-0.7,0.5-1l0.2,0.2
		c0.2,0.1,0.4,0.3,0.6,0.5s0.5,0.4,0.7,0.6c0.2,0.2,0.4,0.4,0.6,0.7c0.2,0.2,0.2,0.4,0.2,0.5c0,0.3-0.3,0.8-0.8,1.3
		c-0.6,0.5-1.1,0.8-1.6,0.8c-0.2,0-0.4-0.1-0.7-0.2c-0.2-0.2-0.4-0.3-0.6-0.5c-0.2-0.2-0.3-0.4-0.4-0.7s-0.2-0.4-0.3-0.5
		s-0.1-0.2-0.1-0.3c0,0,0.1-0.1,0.3-0.2s0.4-0.3,0.7-0.5C137.7,75.1,137.9,74.9,138.1,74.7z"/>
	<path class="st4" d="M150.3,78c-0.2,0-0.5,0-0.7-0.1c-0.2-0.1-0.4-0.1-0.5-0.2c-0.1-0.1-0.3-0.2-0.4-0.4c-0.2-0.2-0.3-0.3-0.3-0.4
		c-0.1-0.1-0.2-0.2-0.3-0.4l-1.2-1.6l-0.6,0.4l0.2,0.4c0.1,0.3,0.3,0.6,0.5,1c0.2,0.4,0.3,0.6,0.4,0.8c0.4,0.6,0.9,1.1,1.4,1.3
		c0.5,0.2,1,0.3,1.6,0.3c0.5,0,1-0.1,1.4-0.4c0.6-0.4,1.1-0.8,1.4-1.2c0.3-0.5,0.5-0.9,0.5-1.3c0-0.3-0.1-0.7-0.3-1.2
		c-0.2-0.4-0.5-0.7-0.8-0.8c0.1,0,0.1-0.1,0.1-0.2c0-0.1,0.1-0.2,0.1-0.3c0-0.1,0-0.2,0-0.3c0-0.1,0-0.2,0-0.4c0-0.2,0-0.3,0-0.3
		c0-0.2,0-0.5,0-0.9c0-0.4-0.2-0.7-0.5-0.9c-0.3-0.2-0.7-0.4-1.1-0.4l-0.9,0.8l-0.3-0.2c-0.2-0.1-0.4-0.3-0.7-0.4s-0.6-0.2-0.8-0.2
		c-0.5,0-0.9,0.2-1.3,0.5c-0.4,0.3-0.6,0.7-0.6,1.1c-0.1,0.5,0.1,0.9,0.4,1.3c0.3,0.3,0.7,0.6,1,0.8l0.5-0.6l-0.8-0.9
		c-0.1-0.1-0.2-0.3-0.1-0.4c0-0.2,0.1-0.4,0.3-0.6s0.4-0.3,0.7-0.3c0.1,0,0.3,0,0.5,0.1s0.3,0.1,0.5,0.2c0.1,0.1,0.3,0.2,0.4,0.3
		c0.1,0.1,0.2,0.2,0.3,0.2c0,0,0.1,0.1,0.1,0.1l1.1-0.8h0c0,0,0,0,0.1,0.1c0,0,0.1,0.1,0.1,0.1s0.1,0.1,0.1,0.2s0,0.2,0,0.3
		c0,0.2,0,0.4,0,0.6c0,0.3,0,0.5-0.1,0.6c0,0.1-0.1,0.2-0.2,0.3s-0.2,0.2-0.4,0.2h-1.4v0.9h1.8c0.3,0,0.5,0.1,0.7,0.4
		c0.2,0.3,0.3,0.6,0.3,0.8c0,0.5-0.2,0.9-0.7,1.3C151.2,77.7,150.7,78,150.3,78z"/>
	<polygon class="st4" points="155.5,79.4 156.5,79.4 156.5,71.3 157.2,71.3 157.2,70.5 156.4,70.5 156,69.6 155.5,69.6 155.5,70.5 
		154.9,70.5 154.2,70.5 154.2,71.3 155.5,71.3 	"/>
	<path class="st4" d="M165.4,71.9c-0.2,0.4-0.4,0.8-0.6,1.2c-0.2,0.4-0.5,0.6-0.6,0.6c-0.4,0-1-0.1-1.6-0.3l-0.3,0.7l0.3,0.2
		c0.2,0.1,0.5,0.3,0.8,0.4c0.3,0.1,0.6,0.2,0.9,0.2c0.2,0,0.5-0.1,0.7-0.4c0.3-0.3,0.4-0.5,0.5-0.6c0.1-0.2,0.2-0.3,0.2-0.4l0.4,0.2
		c0.2,0.1,0.6,0.3,1,0.5c0.4,0.2,0.8,0.3,1.1,0.5c-0.7,0-1.4,0.1-2.1,0.2l0.1,0.8h2c0,0,0.1,0,0.1,0c0.2,0,0.3,0,0.4,0
		c0.1,0,0.2,0,0.3,0s0.2,0.1,0.2,0.1c0.1,0.1,0.1,0.1,0.1,0.2c0,0.1,0.1,0.2,0.1,0.4c0,0.1-0.1,0.2-0.2,0.3
		c-0.1,0.1-0.3,0.2-0.5,0.3c-0.2,0.1-0.4,0.2-0.7,0.3c-0.3,0.1-0.5,0.2-0.7,0.3s-0.4,0.1-0.7,0.2c-0.2,0.1-0.4,0.1-0.5,0.1
		s-0.1,0-0.2,0l-0.1,1c0.9,0.6,2.3,1.3,4.3,2.1l0.3-0.7l-3.2-1.7l0.3-0.1c0.2-0.1,0.5-0.1,0.8-0.3c0.3-0.1,0.6-0.3,0.9-0.4
		c0.3-0.2,0.6-0.4,0.8-0.6c0.2-0.2,0.3-0.5,0.3-0.7c0-0.3,0-0.5-0.1-0.8s-0.1-0.4-0.2-0.5c-0.1-0.1-0.2-0.2-0.3-0.3
		c-0.1-0.1-0.2-0.1-0.2-0.2c0,0-0.1,0-0.1,0l0.3-0.3c0.2-0.2,0.4-0.4,0.6-0.7c0.2-0.3,0.3-0.6,0.3-0.8c0-0.4-0.2-0.9-0.5-1.6h1.5
		h0.3h1v8h1v-8h0.7h1.2l-0.1,0.2c-0.7,1.8-1.1,3.4-1.1,4.7c0,0.6,0.1,1,0.3,1.4c0.2,0.4,0.6,0.7,1.1,1c0.4,0.2,1.1,0.6,2.1,1.1
		l0.3-0.6l-1.9-1.3c-0.3-0.2-0.6-0.5-0.7-0.7c-0.1-0.3-0.2-0.6-0.2-1c0-0.4,0-0.9,0.1-1.4c0.1-0.5,0.2-0.9,0.3-1.3
		c0.1-0.4,0.2-0.7,0.3-1.1c0.1-0.4,0.2-0.6,0.3-0.7c0.1-0.1,0.1-0.2,0.1-0.3h0.9v-0.9h-3.2H174l-0.3-0.8h-0.6l0.1,0.9l-0.6-0.1h-0.4
		h-0.3h-10.3v0.9h4.2L165.4,71.9z M166.8,71.3h2.6l0.1,0.3c0.1,0.2,0.1,0.4,0.2,0.6c0.1,0.3,0.1,0.5,0.1,0.6c0,0.2-0.1,0.3-0.3,0.6
		c-0.2,0.2-0.3,0.3-0.5,0.3c-0.2,0-1.2-0.4-2.8-1.1L166.8,71.3z"/>
	<path class="st4" d="M178.9,70.5v0.9h6.6v3c0,0-0.2-0.1-0.6-0.3c-0.4-0.2-0.9-0.4-1.5-0.5c-0.6-0.2-1-0.3-1.3-0.3
		c-0.3,0-0.6,0-0.9,0.1c-0.2,0.1-0.5,0.2-0.7,0.4c-0.4,0.4-0.6,0.8-0.6,1.5c0,0.6,0.2,1.2,0.6,1.6c0.2,0.2,0.6,0.5,1.3,1l0.5-0.6
		l-0.2-0.2c-0.2-0.1-0.3-0.3-0.6-0.6s-0.4-0.5-0.5-0.6c0,0,0-0.1,0-0.1c0,0,0-0.1,0-0.1c0,0,0-0.1,0-0.1c0,0,0-0.1,0-0.1
		c0,0,0-0.1,0-0.2c0-0.1,0-0.1,0-0.2c0-0.1,0-0.1,0.1-0.2c0-0.1,0-0.1,0.1-0.1c0,0,0.1-0.1,0.1-0.1c0,0,0.1-0.1,0.1-0.1
		c0,0,0.1-0.1,0.1-0.1c0,0,0.1-0.1,0.1-0.1c0.1,0,0.1,0,0.2,0c0.1,0,0.1,0,0.2,0c0.2,0,0.4,0,0.8,0.1c0.3,0.1,0.6,0.1,0.9,0.2
		c0.3,0.1,0.6,0.2,0.9,0.3c0.3,0.1,0.6,0.2,0.7,0.2c0.1,0,0.2,0.1,0.3,0.1v4h1v-8h1v-0.9H178.9z"/>
	<path class="st4" d="M36.5,85.3c-0.2-0.1-0.3-0.2-0.3-0.3c-0.1-0.1-0.1-0.1-0.1-0.1l-0.5,0.6l0.4,0.4c0.3,0.2,0.6,0.5,1,0.7
		c0.4,0.2,0.7,0.4,0.9,0.4c0.2,0,0.4,0,0.5-0.1c0.1-0.1,0.3-0.2,0.5-0.4c0.5-0.4,1-0.9,1.5-1.6l-0.4-0.4C39,85.3,38.4,85.8,38,86
		c0,0-0.1,0-0.1,0c0,0-0.1,0-0.1,0c-0.1,0-0.2,0-0.4-0.1s-0.3-0.2-0.5-0.3C36.8,85.5,36.6,85.4,36.5,85.3z"/>
	<path class="st4" d="M38,85.3l0.3-0.4c0.1-0.1,0.1-0.2,0-0.3l-0.4-0.3c-0.1-0.1-0.2-0.1-0.3,0l-0.3,0.4c-0.1,0.1-0.1,0.2,0.1,0.3
		l0.4,0.3C37.8,85.4,37.9,85.4,38,85.3z"/>
	<path class="st4" d="M39.7,93c0,0.6,0.1,1,0.3,1.4c0.2,0.4,0.6,0.7,1.1,1c0.4,0.2,1.1,0.6,2.1,1.1l0.3-0.6l-1.9-1.3
		c-0.3-0.2-0.6-0.5-0.7-0.7c-0.1-0.3-0.2-0.6-0.2-1c0-0.4,0-0.9,0.1-1.4c0.1-0.5,0.2-0.9,0.3-1.3c0.1-0.4,0.2-0.7,0.3-1.1
		c0.1-0.4,0.2-0.6,0.3-0.7c0.1-0.1,0.1-0.2,0.1-0.3h0.9v-0.9h-3.2h-0.9h-6.4h-1.2h-1c0,0,0,0.1-0.1,0.5c-0.1,0.3-0.2,0.7-0.4,1.2
		c-0.1,0.5-0.3,1-0.4,1.6c-0.1,0.5-0.3,1.1-0.4,1.6c-0.1,0.5-0.1,0.9-0.1,1.2c0,0.5,0.1,1,0.3,1.3c0.2,0.3,0.6,0.7,1.1,1
		c0.1,0.1,0.3,0.1,0.5,0.2c0.2,0.1,0.4,0.2,0.6,0.3c0.2,0.1,0.4,0.2,0.6,0.2c0.2,0.1,0.4,0.1,0.5,0.2c0.1,0,0.1,0.1,0.2,0.1l0.3-0.6
		l-2.1-1.2c-0.2-0.1-0.4-0.3-0.6-0.5c-0.1-0.2-0.2-0.3-0.3-0.5c0-0.2-0.1-0.4-0.1-0.6c0-0.5,0.1-1.2,0.3-2.1
		c0.2-0.9,0.4-1.5,0.5-1.9c0.1-0.4,0.2-0.7,0.3-1h0.3h1.5h4.9v0.6l-5.3,2.4v1.2l5.3,3.8h1v-8h0.1h0.9h1.3l-0.1,0.2
		C40.1,90.1,39.7,91.7,39.7,93z M37.5,94.8l-4.2-3.1l4.2-2V94.8z"/>
	<path class="st4" d="M52.7,88.1v-0.9h-9v0.9H45v5.8c0,0.4,0.1,0.8,0.2,1.1c0.1,0.3,0.3,0.5,0.4,0.7c0.2,0.2,0.4,0.3,0.6,0.4
		c0.2,0.1,0.4,0.1,0.7,0.1c0.7,0,1.4-0.3,2.3-0.9c0.9-0.6,1.5-1.4,2-2.2c0.2-0.4,0.4-0.8,0.4-1.2c0-0.9-0.5-1.5-1.5-1.6
		c-0.3,0-1.1-0.1-2.4-0.3c-0.4,0-0.9-0.1-1.5-0.2v-1.5H52.7z M49.7,91.2c0.3,0.1,0.5,0.1,0.6,0.2c0.1,0.1,0.2,0.2,0.2,0.5
		c0,0.3-0.1,0.7-0.4,1.1c-0.4,0.6-0.9,1.1-1.6,1.5c-0.7,0.5-1.2,0.7-1.6,0.7c-0.3,0-0.6-0.1-0.7-0.3c-0.1-0.2-0.2-0.6-0.2-1v-3.3
		L49.7,91.2z"/>
	<path class="st4" d="M59.9,91.4l-1.1,0.3v1.2l5.7,3.2h1v-8h0.8h0.3h1.1v8h1v-8H69h0.3h6.1v0.6l-5.2,2.4v1.2l5.2,3.9h1v-6.4l1.9,0.6
		c0.7,0.2,1.1,0.5,1.1,0.9c0,0.2-0.1,0.3-0.2,0.6l-0.9,1.5l0.7,0.5l0.2-0.2c0.1-0.1,0.3-0.3,0.5-0.6c0.2-0.3,0.4-0.5,0.5-0.8
		c0.2-0.3,0.3-0.7,0.3-1c0-0.3-0.1-0.5-0.2-0.8s-0.3-0.4-0.5-0.6c-0.2-0.1-0.4-0.3-0.7-0.3l-2.6-0.9v-0.6h4h1h1.2l-0.1,0.2
		c-0.7,1.8-1.1,3.4-1.1,4.7c0,0.6,0.1,1,0.3,1.4c0.2,0.4,0.6,0.7,1.1,1c0.4,0.2,1.1,0.6,2.1,1.1l0.3-0.6l-1.9-1.3
		c-0.3-0.2-0.6-0.5-0.7-0.7c-0.1-0.3-0.2-0.6-0.2-1c0-0.4,0-0.9,0.1-1.4c0.1-0.5,0.2-0.9,0.3-1.3c0.1-0.4,0.2-0.7,0.3-1.1
		c0.1-0.4,0.2-0.6,0.3-0.7c0.1-0.1,0.1-0.2,0.1-0.3h0.3h0.7h10.6v-0.9H84.6h-0.7h-2.5h-1H69.3H69h-0.6l-0.3-0.8h-0.6l0.1,0.9
		L67,87.3h-0.5h-0.3h-0.9l-0.3-1h-0.6V95l-4.5-2.6c0.3-0.1,0.6-0.2,1-0.4c1.5-0.6,2.2-1.3,2.2-2c0-0.4,0-0.8-0.1-1
		c-0.1-0.3-0.2-0.5-0.3-0.7c-0.2-0.2-0.4-0.4-0.8-0.4s-0.8-0.1-1.3-0.1c-0.3,0-0.6,0-1,0.1L58.3,88l0.1,0.8h2.1c0.5,0,0.8,0,1,0.1
		c0.2,0.1,0.4,0.2,0.4,0.3c0.1,0.1,0.1,0.4,0.1,0.7C62,90.3,61.3,90.9,59.9,91.4z M75.4,94.9l-4.2-3.1l4.2-2V94.9z"/>
	<path class="st4" d="M91.9,93.4c-0.4,0.5-0.9,0.8-1.3,1c-0.3,0.1-0.5,0.2-0.9,0.2c-0.7,0-1.4-0.4-2-1.1l-2.4-2.7l-0.5,0.4
		c0,0,0.1,0.2,0.3,0.5c0.2,0.3,0.5,0.8,0.9,1.3c0.4,0.5,0.7,0.9,1,1.3c0.5,0.5,1,0.9,1.4,1.1c0.4,0.2,0.9,0.3,1.4,0.3
		c0.4,0,0.8-0.1,1.2-0.3c0.6-0.3,1.2-0.7,1.7-1.2c0.5-0.5,0.9-1.1,1.1-1.8c0.1-0.4,0.2-0.8,0.2-1.2c0-0.7-0.2-1.2-0.6-1.6
		s-1.1-0.6-2-0.6c-0.7,0-1.7,0.1-3.2,0.3l0.1,0.7h2.9c0.6,0,1.1,0.1,1.4,0.3c0.3,0.2,0.4,0.5,0.4,0.9c0,0.3-0.1,0.7-0.2,1
		C92.6,92.5,92.4,92.9,91.9,93.4z"/>
	<path class="st4" d="M115.9,95.9l-1.9-1.3c-0.3-0.2-0.6-0.5-0.7-0.7c-0.1-0.3-0.2-0.6-0.2-1c0-0.4,0-0.9,0.1-1.4
		c0.1-0.5,0.2-0.9,0.3-1.3c0.1-0.4,0.2-0.7,0.3-1.1c0.1-0.4,0.2-0.6,0.3-0.7c0.1-0.1,0.1-0.2,0.1-0.3h0.5h0.4h6.1v0.6l-5.3,2.4v1.2
		l5.3,3.8h1l0-8h1v-0.9h-8.1h-0.4H112h-0.9l-0.3-0.8h-0.6l0.1,0.9l-0.6-0.1h-0.4h-0.3h-1l-0.4-0.9H107l0.1,0.9v2.1l-0.3-0.3
		c-0.2-0.2-0.4-0.4-0.7-0.6c-0.3-0.2-0.5-0.4-0.7-0.6c-0.4-0.3-0.8-0.4-1.2-0.4c-0.4,0-0.8,0.2-1.3,0.5c-0.7,0.5-1.6,1.2-2.7,2.1
		l0.5,0.7l0.6-0.4l2,2.5l0.6,0.1l2.8-2.6l0.3,0.3v5.6h1v-8h0.8h0.3h1v8h1v-8h0.7h1.2l-0.1,0.2c-0.7,1.8-1.1,3.4-1.1,4.7
		c0,0.6,0.1,1,0.3,1.4c0.2,0.4,0.6,0.7,1.1,1c0.4,0.2,1.1,0.6,2.1,1.1L115.9,95.9z M121.3,94.8l-4.2-3.1l4.2-2V94.8z M103.8,91.8
		l-1.7-2l0.1-0.1c0.1-0.1,0.1-0.1,0.2-0.2c0.1-0.1,0.2-0.2,0.3-0.3c0.1-0.1,0.2-0.2,0.3-0.3c0.1-0.1,0.2-0.1,0.3-0.2
		c0.4-0.2,0.7-0.3,0.9-0.3c0.3,0,0.7,0.2,1.1,0.5c0.2,0.2,0.4,0.4,0.7,0.6L103.8,91.8z"/>
	<path class="st4" d="M118,94.9h-0.9c-0.1,0-0.2,0-0.2,0s0,0.1,0,0.2v0.9c0,0.1,0,0.1,0,0.2c0,0,0.1,0,0.2,0h0.9c0.1,0,0.2,0,0.2,0
		s0-0.1,0-0.2v-0.9c0-0.1,0-0.1,0-0.2c0,0,0,0-0.1-0.1C118.1,94.9,118.1,94.9,118,94.9z"/>
	<rect x="125.9" y="87.3" class="st4" width="1" height="8.9"/>
	<path class="st4" d="M29.1,122.9c0,0,0.7,0.4,2.1,1.2c0.5,0.3,0.8,0.6,0.8,1c0,0.2-0.1,0.5-0.2,0.8c-0.2,0.5-0.4,0.8-0.5,0.9
		S31,127,30.7,127c-0.1,0-0.7-0.2-1.7-0.5l-0.4,1.2l0.4,0.3c0.3,0.2,0.7,0.3,1.1,0.5c0.4,0.2,0.8,0.2,1.1,0.2c0.8,0,1.4-0.6,1.9-1.7
		c0.1-0.2,0.2-0.4,0.2-0.4s0.2-0.1,0.3-0.1c0.1,0,0.2,0,0.4,0.1s0.4,0.1,0.5,0.2c0.2,0.1,0.3,0.2,0.5,0.2c0.1,0.1,0.2,0.1,0.2,0.1
		v2.6H37v-7.4h0.7H38h1.3v7.4H41v-7.4h0.5h0.4h1.7l0.2,0.2c0.1,0.1,0.2,0.3,0.4,0.5c0.1,0.2,0.2,0.4,0.2,0.5c0,0.1,0,0.3,0,0.4
		c0,0.1-0.1,0.2-0.2,0.3c-0.2,0.2-0.5,0.4-0.8,0.6s-0.6,0.3-0.7,0.4s-0.3,0.1-0.3,0.2c0,0.3,0.1,0.7,0.3,1.2c0.2,0.5,0.5,1,0.7,1.4
		s0.6,0.9,1,1.2c0.4,0.3,0.8,0.5,1.1,0.5c0.4,0,0.8-0.1,1.3-0.3c0.4-0.2,0.8-0.5,1.2-0.8c0.3-0.3,0.6-0.7,0.8-1
		c0.2-0.4,0.3-0.7,0.3-1c0-0.2-0.1-0.5-0.3-0.8c-0.2-0.3-0.4-0.6-0.7-0.9c-0.3-0.3-0.5-0.6-0.9-0.9c-0.3-0.3-0.6-0.5-0.9-0.8
		c-0.3-0.2-0.5-0.4-0.7-0.6c-0.2-0.2-0.3-0.3-0.3-0.4h4.1H50h5.7v0.3l-4.9,2.2v1.2l4.9,3.7h1.7v-5.4l1.2,0.4
		c0.3,0.1,0.6,0.2,0.7,0.3c0.1,0.1,0.2,0.2,0.2,0.4c0,0.1-0.1,0.4-0.3,0.7l-0.5,0.9l1.2,0.8l0.2-0.2c0.1-0.2,0.3-0.4,0.5-0.7
		c0.2-0.3,0.4-0.6,0.5-0.8c0.1-0.1,0.1-0.2,0.2-0.4c0-0.1,0.1-0.2,0.1-0.3s0-0.2,0-0.3c0-0.7-0.5-1.3-1.6-1.7l-2.3-0.8l0-0.4H62
		v-1.5H50h-0.4h-4.4l0,0c0,0,0-0.1,0.1-0.1c0-0.1,0.1-0.1,0.1-0.1c0.2-0.2,0.5-0.5,1-0.9l1.6,0.3l0.3-1.1l-0.6-0.2
		c-0.2-0.1-0.5-0.2-0.9-0.2l-0.4-0.4c0,0-0.1,0.1-0.3,0.2c0,0-0.1,0-0.1,0c-0.7-0.2-1.3-0.3-1.9-0.5c-1.6-0.4-2.8-0.6-3.4-0.6
		c-0.6,0-1,0.1-1.3,0.4s-0.5,0.7-0.5,1.2v1.1c0,0.5,0.1,0.9,0.4,1.1l-0.9-0.1H38h-0.3H27.6v1.5h1.8L29.1,122.9z M55.7,127.8
		l-2.8-2.1l2.8-1.3V127.8z M45.3,124.9c0.1-0.1,0.1-0.2,0.2-0.2c0,0,0-0.1,0.1-0.1c0,0,0.1,0.1,0.2,0.2c0.1,0.1,0.2,0.2,0.4,0.4
		c0.2,0.2,0.4,0.4,0.5,0.5c0.2,0.2,0.3,0.3,0.4,0.5c0.1,0.2,0.2,0.3,0.2,0.4c0,0.1-0.1,0.3-0.3,0.5c-0.2,0.2-0.4,0.4-0.7,0.6
		s-0.5,0.3-0.8,0.3c-0.1,0-0.3-0.1-0.4-0.2c-0.2-0.1-0.3-0.3-0.4-0.4c-0.1-0.2-0.3-0.4-0.4-0.6c-0.1-0.2-0.2-0.4-0.3-0.5
		c0-0.1-0.1-0.2-0.1-0.2l0.2-0.1c0.1-0.1,0.3-0.2,0.4-0.3c0.2-0.2,0.3-0.3,0.5-0.4C45.2,125.2,45.3,125.1,45.3,124.9z M40.6,120.2
		c0,0,0-0.1,0-0.2c0-0.1,0-0.1,0-0.2v-0.7c0-0.2,0-0.4,0.1-0.4c0.1-0.1,0.3-0.1,0.6-0.1c0.2,0,0.7,0.1,1.3,0.2l2.3,0.4
		c-0.4,0.3-0.7,0.6-0.9,0.8c-0.2,0.3-0.4,0.5-0.4,0.7h-1.7h-0.4h-0.6c0,0-0.1-0.1-0.1-0.1c0,0-0.1-0.1-0.1-0.1s0-0.1,0-0.1
		c0,0,0-0.1,0-0.1c0,0,0-0.1,0-0.1C40.6,120.3,40.6,120.3,40.6,120.2z M35.3,122.3v3l-0.3-0.2c-0.2-0.1-0.5-0.2-0.8-0.4
		c-0.3-0.1-0.5-0.2-0.7-0.2l0-0.1c0-0.1,0-0.2-0.1-0.3c-0.1-0.1-0.1-0.2-0.2-0.3c-0.2-0.3-0.8-0.7-1.8-1.3c-0.1-0.1-0.3-0.2-0.6-0.3
		H35.3z"/>
	<path class="st4" d="M72,128c-0.1,0-0.3,0-0.4-0.1c-0.1,0-0.2-0.1-0.3-0.1c-0.1,0-0.2-0.1-0.4-0.3c-0.1-0.1-0.2-0.2-0.3-0.3
		c-0.1-0.1-0.2-0.2-0.4-0.4c-0.2-0.2-0.3-0.3-0.3-0.4l-1.9-2l-0.9,0.7c0,0,0.1,0.2,0.3,0.5c0.2,0.3,0.5,0.8,0.9,1.3
		c0.4,0.5,0.7,0.9,1,1.3c0.5,0.5,1,0.9,1.4,1.1c0.4,0.2,0.9,0.3,1.4,0.3c0.7,0,1.3-0.2,2-0.7c0.7-0.4,1.2-1,1.6-1.7
		c0.4-0.7,0.6-1.4,0.6-2.1c0-0.7-0.2-1.2-0.6-1.6c-0.4-0.4-1.1-0.6-2-0.6c-0.7,0-1.7,0.1-3.2,0.3l0.2,1.3H73c0.7,0,1.1,0.1,1.4,0.2
		c0.3,0.1,0.4,0.4,0.4,0.8c0,0.4-0.3,0.9-0.9,1.5C73.2,127.7,72.6,128,72,128z"/>
	<rect x="66.2" y="120.9" class="st4" width="11.1" height="1.5"/>
	<path class="st4" d="M85.9,129.8v-7.4h0.8h0.3h1l-0.1,0.2c-0.1,0.1-0.2,0.3-0.3,0.5c-0.1,0.2-0.1,0.4-0.1,0.5
		c0,0.3,0.1,0.7,0.3,1.1c0.2,0.5,0.4,0.9,0.5,1.4c0.2,0.5,0.3,0.8,0.3,1.1c0,0.3-0.2,0.7-0.6,1.2l-0.8,1l1,0.8l1.4-1.2
		c0.2-0.2,0.4-0.4,0.5-0.6c0.1-0.2,0.2-0.4,0.3-0.6c0.1-0.2,0.1-0.4,0.1-0.6c0-0.3-0.1-0.7-0.3-1.1c-0.2-0.4-0.4-0.9-0.6-1.3
		c-0.2-0.4-0.3-0.8-0.3-1.2c0-0.1,0-0.3,0.1-0.6c0.1-0.2,0.2-0.4,0.3-0.6h1.5v-1.5h-4.1h-0.3h-0.9l-0.3-1.1h-1.3v8.1l-3.4-2l0.3-0.1
		c0.2-0.1,0.4-0.2,0.7-0.3c0.3-0.1,0.5-0.3,0.8-0.5c0.3-0.2,0.5-0.4,0.7-0.7c0.2-0.3,0.3-0.5,0.3-0.8c0-0.9-0.2-1.5-0.6-1.8
		s-1.1-0.5-2.2-0.5c-0.7,0-1.5,0.1-2.4,0.2l0.2,1.3H80c0.7,0,1.2,0,1.4,0.1s0.4,0.2,0.4,0.4c0,0.2-0.1,0.4-0.3,0.6
		c-0.2,0.2-0.5,0.4-0.7,0.5c-0.3,0.1-0.6,0.2-1,0.4c-0.4,0.1-0.6,0.2-0.7,0.2c-0.1,0-0.3,0.1-0.3,0.1v1.5l5.5,3.1H85.9z"/>
	<path class="st4" d="M96.1,122.1c-0.1-0.3-0.1-0.5-0.2-0.6c-0.1-0.2-0.2-0.3-0.4-0.4s-0.4-0.1-0.6-0.2c-0.2,0-0.5,0-0.8,0
		c-0.4,0-0.7,0-0.9,0.1c-0.2,0.1-0.5,0.2-0.6,0.3s-0.3,0.4-0.4,0.7c-0.1,0.3-0.1,0.6-0.1,1.1c0,0.8,0.2,1.3,0.5,1.6
		c0.3,0.3,0.9,0.5,1.6,0.5c0.7,0,1.3-0.1,1.6-0.4s0.5-0.8,0.5-1.6C96.2,122.6,96.2,122.3,96.1,122.1z M94.8,123.6
		c-0.1,0.1-0.3,0.1-0.6,0.1c-0.4,0-0.6,0-0.7-0.1s-0.1-0.3-0.1-0.6c0-0.3,0-0.5,0.1-0.6c0.1-0.1,0.3-0.1,0.7-0.1c0.2,0,0.3,0,0.4,0
		c0.1,0,0.2,0.1,0.2,0.1c0.1,0.1,0.1,0.1,0.1,0.2c0,0.1,0,0.2,0,0.4C94.9,123.3,94.9,123.5,94.8,123.6z"/>
	<path class="st4" d="M95,125.6c-0.2-0.1-0.5-0.1-0.9-0.1c-0.4,0-0.7,0-0.9,0.1c-0.2,0.1-0.5,0.2-0.6,0.3s-0.3,0.4-0.4,0.7
		c-0.1,0.3-0.1,0.7-0.1,1.1c0,0.8,0.2,1.3,0.5,1.6c0.3,0.3,0.9,0.5,1.6,0.5c0.4,0,0.7,0,0.9-0.1s0.5-0.2,0.6-0.3
		c0.2-0.2,0.3-0.4,0.4-0.6s0.1-0.6,0.1-1c0-0.4,0-0.8-0.1-1.1c-0.1-0.3-0.2-0.5-0.4-0.7S95.3,125.7,95,125.6z M94.8,128.3
		c-0.1,0.1-0.3,0.1-0.6,0.1c-0.2,0-0.3,0-0.4,0s-0.2-0.1-0.2-0.1c-0.1-0.1-0.1-0.1-0.1-0.2c0-0.1,0-0.2,0-0.4c0-0.1,0-0.2,0-0.3
		c0-0.1,0-0.1,0-0.2c0-0.1,0.1-0.1,0.1-0.1s0.1,0,0.2-0.1c0.1,0,0.2,0,0.4,0c0.1,0,0.2,0,0.2,0c0.1,0,0.1,0,0.2,0c0.1,0,0.1,0,0.1,0
		s0.1,0,0.1,0.1s0,0.1,0.1,0.1c0,0,0,0.1,0,0.1s0,0.1,0,0.2c0,0,0,0.1,0,0.2C94.9,128,94.9,128.2,94.8,128.3z"/>
	<path class="st4" d="M29,146.6h1v-8h0.3h0.4h6.1v0.6l-5.3,2.4v1.2l5.3,3.8h1v-8h0.7c0.4,0,1.1,0.1,2.2,0.2c0.3,0,0.4,0.1,0.6,0.3
		c0.1,0.2,0.2,0.4,0.2,0.8c0,0.5,0,0.9-0.1,1.1c-0.1,0.2-0.3,0.4-0.6,0.5c-0.4,0.2-0.8,0.4-1.2,0.5l0.2,0.8l0.2,0
		c0.1,0,0.3-0.1,0.6-0.1c0.2-0.1,0.4-0.1,0.6-0.2c0.4-0.2,0.7-0.3,0.9-0.5l0.1,0.1c0.1,0,0.2,0.1,0.3,0.2c0.2,0.1,0.3,0.2,0.5,0.2
		c0.3,0.1,0.7,0.2,1.1,0.3l0.3-0.8l-0.2-0.1c-0.1-0.1-0.3-0.1-0.5-0.2s-0.4-0.2-0.5-0.3c-0.2-0.1-0.4-0.3-0.5-0.5
		c-0.1-0.2-0.1-0.5-0.1-0.9c0-0.8,0.4-1.2,1.1-1.2c0.3,0,0.7,0.1,1,0.2s0.5,0.3,0.5,0.5v3.7l-3.5,1.4v1.3l3.5,2.4h1v-9.8H47h0.3h3.9
		l-0.3,0.6c-0.2,0.4-0.4,0.8-0.6,1.2c-0.2,0.4-0.5,0.6-0.6,0.6c-0.4,0-1-0.1-1.6-0.3l-0.3,0.7l0.3,0.2c0.2,0.1,0.5,0.3,0.8,0.4
		s0.6,0.2,0.9,0.2c0.2,0,0.5-0.1,0.7-0.4c0.3-0.3,0.4-0.5,0.5-0.6c0.1-0.2,0.2-0.3,0.2-0.4l0.4,0.2c0.3,0.1,0.6,0.3,1.1,0.5
		c0.5,0.2,0.9,0.4,1.3,0.5c-0.7,0-1.7,0.1-2.7,0.3l0.1,0.7H54c0.7,0,1.1,0.1,1.4,0.3s0.4,0.5,0.4,0.9c0,0.4-0.1,0.9-0.4,1.3
		c-0.3,0.5-0.7,0.8-1.2,1.1c-0.3,0.1-0.5,0.2-0.8,0.2c-0.7,0-1.3-0.4-2-1.1l-1.8-2l-0.5,0.3l0.2,0.4c0.1,0.2,0.3,0.6,0.6,0.9
		c0.3,0.4,0.6,0.7,0.9,1c0.9,1,1.8,1.4,2.7,1.4c0.9,0,1.7-0.4,2.4-1.1s1-1.6,1-2.5c0-0.3-0.1-0.6-0.2-0.9s-0.3-0.5-0.4-0.6
		c-0.2-0.1-0.3-0.3-0.5-0.4c-0.2-0.1-0.3-0.2-0.4-0.2s-0.1,0-0.2,0l0.3-0.3c0.2-0.2,0.4-0.4,0.6-0.8c0.2-0.3,0.3-0.6,0.3-0.8
		c0-0.4-0.2-0.9-0.5-1.6h2v-0.9H47.3H47h-0.9v-1.1h-0.7l-0.3,1.1v0.4c-0.5-0.2-1.1-0.4-1.7-0.4c-0.3,0-0.5,0-0.7,0.1
		c-0.2,0.1-0.3,0.2-0.5,0.4c-0.3-0.3-0.7-0.5-1.3-0.5h-2.1h-0.3h-7.9h-0.4H30c-0.1-0.1-0.2-0.2-0.3-0.3c-0.1-0.1-0.1-0.2-0.1-0.3
		c0-0.1,0-0.2,0-0.4V136c0-0.3,0.1-0.5,0.3-0.6c0.2-0.1,0.4-0.1,0.7-0.1c0.2,0,0.6,0,1.1,0.1l5.7,1.2l0.2-0.7l-0.6-0.2
		c-0.4-0.1-0.9-0.3-1.6-0.4c-0.7-0.2-1.3-0.3-1.8-0.5c-0.6-0.1-1-0.2-1.3-0.3c-0.3-0.1-0.6-0.1-1-0.2s-0.7-0.1-1-0.1
		c-0.6,0-1,0.1-1.3,0.4c-0.3,0.3-0.5,0.7-0.5,1.2v0.8c0,0.5,0.1,0.9,0.4,1.1l-1.1-0.1h-0.4v0.9H29V146.6z M36.8,145.2l-4.2-3.1
		l4.2-2V145.2z M45.1,147.1l-2.5-1.8l2.5-1.1V147.1z M52.3,138.5h2.6l0.1,0.3c0.1,0.2,0.1,0.4,0.2,0.6c0.1,0.3,0.1,0.5,0.1,0.6
		c0,0.2-0.1,0.3-0.3,0.6c-0.2,0.2-0.3,0.3-0.5,0.3c-0.2,0-1.2-0.4-2.8-1.1L52.3,138.5z"/>
	<path class="st4" d="M67,148.1c0.1,0,0.4,0.1,0.8,0.2l0.8-1.7v-0.3h-1v0.3l-0.3,0.7l-0.1,0c-0.1,0-0.2,0-0.3-0.1
		c-0.1,0-0.2,0-0.3,0c-0.3,0-0.6,0.2-0.8,0.6c-0.2,0.4-0.3,0.8-0.3,1.3c0,0.5,0.3,0.8,0.9,1.1c0.6,0.3,1.2,0.4,1.8,0.4
		c0.1,0,0.3,0,0.4-0.1c0.2-0.1,0.3-0.2,0.4-0.3c0.1-0.1,0.2-0.3,0.3-0.4s0.2-0.3,0.2-0.3c0-0.1,0.1-0.1,0.1-0.1l2.2,1l0.3-0.5
		l-2.3-1.5h-0.7l-0.2,0.3c-0.1,0.2-0.3,0.4-0.5,0.6s-0.4,0.3-0.5,0.3c-0.3,0-0.6-0.1-1-0.2c-0.3-0.2-0.5-0.3-0.5-0.5
		c0-0.1,0-0.3,0.1-0.5S66.9,148.1,67,148.1z"/>
	<path class="st4" d="M80.5,137.7H71h-0.4H62v0.9h1.7l-0.3,0.5l1.4,1c0.7,0.5,1.1,1,1.1,1.3c0,0.2-0.1,0.4-0.2,0.7
		c-0.5,1.3-0.9,1.9-1.3,1.9c-0.1,0-0.7-0.1-1.5-0.4l-0.2,0.8l0.3,0.2c0.2,0.1,0.5,0.2,0.8,0.3c0.3,0.1,0.6,0.2,0.8,0.2
		c0.4,0,0.8-0.2,1-0.6c0.3-0.4,0.6-0.9,0.9-1.7c0.1-0.2,0.1-0.3,0.2-0.4c0.1-0.1,0.2-0.1,0.2-0.2c0.1,0,0.1,0,0.2,0
		c0.3,0,0.9,0.2,1.7,0.7v3.7h1v-8h0.6H71h9.5V137.7z M69,141.8l-0.2-0.1c-0.1-0.1-0.2-0.1-0.4-0.2c-0.1-0.1-0.3-0.1-0.5-0.2
		c-0.2-0.1-0.3-0.1-0.5-0.2c-0.2-0.1-0.3-0.1-0.4-0.1l0-0.1c0-0.1,0-0.2-0.1-0.3c-0.1-0.1-0.1-0.2-0.2-0.3c-0.2-0.3-0.8-0.7-1.8-1.3
		c-0.1-0.1-0.4-0.2-0.9-0.4H69V141.8z"/>
	<path class="st4" d="M79.3,146.6v-5.2c0-0.2,0-0.3,0-0.5c0-0.2-0.1-0.3-0.2-0.5c-0.1-0.2-0.2-0.4-0.4-0.5s-0.4-0.3-0.6-0.4
		c-0.3-0.1-0.6-0.1-0.9-0.1c-0.9,0-2.1,0.6-3.4,1.8l0.4,0.6l0.2-0.1c0.1-0.1,0.3-0.2,0.6-0.3c0.2-0.1,0.5-0.3,0.7-0.4
		c0.3-0.1,0.5-0.3,0.8-0.3c0.3-0.1,0.5-0.1,0.7-0.1c0.8,0,1.1,0.4,1.1,1.1v2.9c-0.3,0.2-0.5,0.3-0.7,0.4s-0.4,0.2-0.7,0.4
		c-0.3,0.1-0.5,0.2-0.8,0.3s-0.6,0.1-0.8,0.1c-0.9,0-1.6-0.3-2-1l-1.1-1.8l-0.6,0.3c0.3,1,0.6,1.8,1,2.3c0.3,0.4,0.6,0.7,1,0.9
		c0.4,0.2,0.7,0.3,0.9,0.3c0.2,0,0.5,0,0.8,0c0.4,0,0.9-0.1,1.4-0.3c0.5-0.2,0.9-0.4,1.1-0.5s0.4-0.2,0.5-0.3v1.2H79.3z"/>
	<path class="st4" d="M103.5,143.8c-0.4,0.5-0.9,0.8-1.3,1c-0.3,0.1-0.5,0.2-0.9,0.2c-0.7,0-1.4-0.4-2-1.1l-2.4-2.7l-0.5,0.4
		c0,0,0.1,0.2,0.3,0.5c0.2,0.3,0.5,0.8,0.9,1.3c0.4,0.5,0.7,0.9,1,1.3c0.5,0.5,1,0.9,1.4,1.1c0.4,0.2,0.9,0.3,1.4,0.3
		c0.4,0,0.8-0.1,1.2-0.3c0.6-0.3,1.2-0.7,1.7-1.2c0.5-0.5,0.9-1.1,1.1-1.8c0.1-0.4,0.2-0.8,0.2-1.2c0-0.7-0.2-1.2-0.6-1.6
		c-0.4-0.4-1.1-0.6-2-0.6c-0.7,0-1.7,0.1-3.2,0.3l0.1,0.7h2.9c0.6,0,1.1,0.1,1.4,0.3s0.4,0.5,0.4,0.9c0,0.3-0.1,0.7-0.2,1
		C104.2,142.9,103.9,143.3,103.5,143.8z"/>
	<path class="st4" d="M106.7,137.7H96.1h-0.7h-2.2H92h-7.3v0.9h1.4l-0.2,0.5c0,0,0.1,0.1,0.4,0.2s0.5,0.3,0.9,0.5
		c0.4,0.2,0.7,0.4,0.9,0.6c0.2,0.1,0.3,0.3,0.3,0.5c0,0,0,0.2-0.1,0.6l-0.5,0c-0.5,0-0.9,0.3-1.3,1c-0.2,0.4-0.3,0.8-0.3,1.2
		c0,0.3,0.2,0.6,0.5,0.9c0.3,0.3,0.8,0.5,1.3,0.8l0.4-0.5l-1.1-1c-0.1-0.1-0.1-0.2-0.1-0.3c0-0.2,0.1-0.4,0.2-0.7
		c0.2-0.3,0.4-0.4,0.6-0.4c0.2,0,1.3,0.4,3.3,1.1v3.1h1v-8h1.1h0.9l-0.1,0.2c-0.7,1.8-1.1,3.4-1.1,4.7c0,0.6,0.1,1,0.3,1.4
		c0.2,0.4,0.6,0.7,1.1,1c0.4,0.2,1.1,0.6,2.1,1.1l0.3-0.6l-1.9-1.3c-0.3-0.2-0.6-0.5-0.7-0.7c-0.1-0.3-0.2-0.6-0.2-1
		c0-0.4,0-0.9,0.1-1.4c0.1-0.5,0.2-0.9,0.3-1.3c0.1-0.3,0.2-0.7,0.3-1.1s0.2-0.6,0.3-0.7s0.1-0.2,0.1-0.3h0.3h0.7h10.6V137.7z
		 M91.1,142.5l-2-0.9l0.1-1c0-0.5-0.3-0.9-1-1.3c-0.7-0.4-1.2-0.7-1.7-0.9h4.5V142.5z"/>
	<path class="st4" d="M107.4,147.3v0.4l0.1,0c0.1,0,0.2,0,0.3,0c0.1,0,0.3-0.1,0.4-0.1s0.2-0.2,0.3-0.3c0.1-0.2,0.1-0.4,0.1-0.6
		v-1.3c0-0.3-0.1-0.4-0.3-0.4h-0.7c-0.2,0-0.3,0.1-0.3,0.4v0.8c0,0.2,0.1,0.3,0.3,0.3h0.2v0.4C107.8,147.2,107.7,147.4,107.4,147.3z
		"/>
	<path class="st4" d="M45.9,162.1H45c-0.1,0-0.2,0-0.2,0s0,0.1,0,0.2v0.9c0,0.1,0,0.1,0,0.2c0,0,0.1,0,0.2,0h0.9c0.1,0,0.2,0,0.2,0
		s0-0.1,0-0.2v-0.9c0-0.1,0-0.1,0-0.2c0,0,0,0-0.1-0.1C46,162.1,46,162.1,45.9,162.1z"/>
	<path class="st4" d="M34,155.9l-5.2,2.4v1.2l5.2,3.9h1V157l1.9,0.6c0.7,0.2,1.1,0.5,1.1,0.9c0,0.2-0.1,0.3-0.2,0.6l-0.9,1.5
		l0.7,0.5l0.2-0.2c0.1-0.1,0.3-0.3,0.5-0.6c0.2-0.3,0.4-0.5,0.5-0.8c0.2-0.3,0.3-0.7,0.3-1c0-0.3-0.1-0.5-0.2-0.8s-0.3-0.4-0.5-0.6
		c-0.2-0.1-0.4-0.3-0.7-0.3l-2.6-0.9v-0.6h4h1h1.2l-0.1,0.2c-0.7,1.8-1.1,3.4-1.1,4.7c0,0.6,0.1,1,0.3,1.4c0.2,0.4,0.6,0.7,1.1,1
		c0.4,0.2,1.1,0.6,2.1,1.1l0.3-0.6l-1.9-1.3c-0.3-0.2-0.6-0.5-0.7-0.7c-0.1-0.3-0.2-0.6-0.2-1c0-0.4,0-0.9,0.1-1.4
		c0.1-0.5,0.2-0.9,0.3-1.3c0.1-0.4,0.2-0.7,0.3-1.1c0.1-0.4,0.2-0.6,0.3-0.7c0.1-0.1,0.1-0.2,0.1-0.3h0.5h0.4h6.1v0.6l-5.3,2.4v1.2
		l5.3,3.8h1l0-8H51h0.3h1v8h1v-8h0.7v-0.9h-0.9l-0.3-0.8h-0.6l0.1,0.9l-0.6-0.1h-0.5H51h-7.9h-0.4H40h-1H27.6v0.9H34V155.9z
		 M34,162.1l-4.2-3.1l4.2-2V162.1z M49.3,162L45,159l4.2-2V162z"/>
	<path class="st4" d="M74.7,160.5c-0.5,0.4-0.9,0.7-1.4,1c-0.4,0.2-0.8,0.3-1.3,0.3c-0.7,0-1.5-0.5-2.3-1.4l-2.1-2.3l-0.6,0.4
		l0.3,0.5c0.2,0.3,0.5,0.7,0.8,1.2c0.4,0.5,0.7,0.9,1,1.2c1,1,2,1.5,2.9,1.5c0.5,0,1.1-0.1,1.6-0.4c0.7-0.4,1.4-0.9,2-1.4
		c0.6-0.6,0.9-1.1,0.9-1.6c0-0.4-0.3-0.8-0.8-1.4c-0.5-0.6-1-0.9-1.4-0.9c-0.2,0-0.4,0.1-0.6,0.2c-0.2,0.2-0.4,0.3-0.6,0.5
		c-0.2,0.2-0.4,0.3-0.6,0.5c-0.2,0.2-0.4,0.2-0.6,0.2c-0.4,0-0.7,0-0.9-0.1c-0.2-0.1-0.3-0.2-0.3-0.4c0-0.7,0.1-1.1,0.4-1.1h1
		l0.1-0.8l-0.2,0c-0.1,0-0.3,0-0.5-0.1c-0.2,0-0.4,0-0.5,0c-0.5,0-0.8,0.1-1,0.2c-0.3,0.2-0.4,0.8-0.4,1.6c0,0.6,0.2,1.1,0.6,1.3
		c0.4,0.2,0.9,0.4,1.7,0.4c0.3,0,0.6-0.1,0.8-0.2c0.3-0.1,0.5-0.3,0.6-0.4c0.2-0.2,0.3-0.3,0.4-0.4c0.1-0.1,0.3-0.2,0.3-0.2
		c0.2,0,0.4,0.1,0.6,0.4c0.2,0.3,0.4,0.5,0.4,0.7C75.4,159.8,75.2,160.1,74.7,160.5z"/>
	<path class="st4" d="M87.1,164.3l0.3-0.7c-1.9-1.1-3.2-1.9-4.1-2.4c0.3-0.1,0.6-0.1,0.8-0.2c0.2-0.1,0.5-0.1,0.8-0.2
		s0.6-0.2,0.9-0.3s0.6-0.3,0.8-0.4c0.2-0.2,0.4-0.3,0.6-0.5c0.2-0.2,0.2-0.4,0.2-0.6c0-0.4,0-0.7,0-0.9c0-0.2-0.1-0.5-0.2-0.7
		s-0.2-0.5-0.4-0.6s-0.4-0.3-0.7-0.4c-0.3-0.1-0.7-0.2-1.2-0.2c-0.9,0-1.9,0.1-3.1,0.3l0.1,0.7h2.9c0.6,0,1,0.1,1.2,0.2
		c0.2,0.2,0.3,0.6,0.3,1.2c0,0.1-0.1,0.3-0.2,0.4c-0.1,0.1-0.3,0.2-0.4,0.3c-0.2,0.1-0.4,0.2-0.6,0.3c-0.2,0.1-0.5,0.2-0.7,0.3
		c-0.2,0.1-0.5,0.1-0.8,0.2s-0.5,0.1-0.7,0.2s-0.4,0.1-0.6,0.1c-0.2,0-0.4,0.1-0.4,0.1c-0.1,0-0.1,0-0.2,0l-0.1,1.1
		c0.6,0.4,1.4,0.8,2.4,1.3c1,0.5,1.7,0.8,2.1,1C86.5,164,86.8,164.2,87.1,164.3z"/>
	<path class="st4" d="M91.6,162.1h-0.9c-0.1,0-0.2,0-0.2,0s0,0.1,0,0.2v0.9c0,0.1,0,0.1,0,0.2c0,0,0.1,0,0.2,0h0.9
		c0.1,0,0.2,0,0.2,0s0-0.1,0-0.2v-0.9c0-0.1,0-0.1,0-0.2c0,0,0,0-0.1-0.1C91.7,162.1,91.7,162.1,91.6,162.1z"/>
	<path class="st4" d="M88.9,155.3H95v0.6l-5.3,2.4v1.2l5.3,3.8h1l0-8h0.8H97h1.1v8h1v-8h0.4h0.3h1.4l-0.3,0.5l1.4,1
		c0.7,0.5,1.1,1,1.1,1.3c0,0.2-0.1,0.4-0.2,0.7c-0.5,1.3-0.9,1.9-1.3,1.9c-0.1,0-0.7-0.1-1.5-0.4l-0.2,0.8l0.3,0.2
		c0.2,0.1,0.5,0.2,0.8,0.3s0.6,0.2,0.8,0.2c0.4,0,0.8-0.2,1-0.6c0.3-0.4,0.6-0.9,0.9-1.7c0.1-0.2,0.1-0.3,0.2-0.4
		c0.1-0.1,0.2-0.1,0.2-0.2c0.1,0,0.1,0,0.2,0c0.3,0,0.9,0.2,1.7,0.7v3.7h1v-8h1v-0.9h-8.7h-0.3H99l-0.3-0.8h-0.6l0.1,0.9l-0.6-0.1
		H97h-0.3h-7.9h-0.4h-1.3c0-0.4-0.1-0.7-0.2-1c-0.1-0.3-0.3-0.5-0.6-0.7s-0.6-0.3-1-0.3c-0.6,0-1.8,0.1-3.8,0.2l0.1,0.7h3.7
		c0.3,0,0.6,0.1,0.7,0.2c0.1,0.1,0.2,0.4,0.2,0.8h-5.5h-0.4h-0.5l-0.3-0.8h-0.6l0.1,0.9l-0.6-0.1h-0.5h-0.3H66.3H66h-0.6l-0.3-0.8
		h-0.6l0.1,0.9l-0.6-0.1h-0.5h-0.3h-8.3v0.9h6.6v3c0,0-0.2-0.1-0.6-0.3c-0.4-0.2-0.9-0.4-1.5-0.5c-0.6-0.2-1-0.3-1.3-0.3
		c-0.3,0-0.6,0-0.9,0.1c-0.2,0.1-0.5,0.2-0.7,0.4c-0.4,0.4-0.6,0.8-0.6,1.5c0,0.6,0.2,1.2,0.6,1.6c0.2,0.2,0.6,0.5,1.3,1l0.5-0.6
		l-0.2-0.2c-0.2-0.1-0.3-0.3-0.6-0.6s-0.4-0.5-0.5-0.6c0,0,0-0.1,0-0.1c0,0,0-0.1,0-0.1c0,0,0-0.1,0-0.1c0,0,0-0.1,0-0.1
		c0,0,0-0.1,0-0.2c0-0.1,0-0.1,0-0.2c0-0.1,0-0.1,0.1-0.2c0-0.1,0-0.1,0.1-0.1c0,0,0.1-0.1,0.1-0.1c0,0,0.1-0.1,0.1-0.1
		c0,0,0.1-0.1,0.1-0.1c0,0,0.1-0.1,0.1-0.1c0.1,0,0.1,0,0.2,0c0.1,0,0.1,0,0.2,0c0.2,0,0.4,0,0.8,0.1c0.3,0.1,0.6,0.1,0.9,0.2
		c0.3,0.1,0.6,0.2,0.9,0.3c0.3,0.1,0.6,0.2,0.7,0.2c0.1,0,0.2,0.1,0.3,0.1v4h1v-8h0.7h0.3h1.1v8h1v-8H66h0.3h11.3h0.3h1.1v8h1v-8
		h0.4h0.4h7.8H88.9z M95,162l-4.2-3.1l4.2-2V162z M106.6,155.3v3.2l-0.2-0.1c-0.1-0.1-0.2-0.1-0.4-0.2c-0.1-0.1-0.3-0.1-0.5-0.2
		c-0.2-0.1-0.3-0.1-0.5-0.2c-0.2-0.1-0.3-0.1-0.4-0.1l0-0.1c0-0.1,0-0.2-0.1-0.3c-0.1-0.1-0.1-0.2-0.2-0.3c-0.2-0.3-0.8-0.7-1.8-1.3
		c-0.1-0.1-0.4-0.2-0.9-0.4H106.6z"/>
	<path class="st4" d="M116.2,163.3c0.2,0.1,0.4,0.2,0.6,0.2c0.2,0.1,0.4,0.1,0.5,0.2c0.1,0,0.1,0.1,0.2,0.1l0.3-0.6l-2.1-1.2
		c-0.2-0.1-0.4-0.3-0.6-0.5c-0.1-0.2-0.2-0.3-0.3-0.5c0-0.2-0.1-0.4-0.1-0.6c0-0.5,0.1-1.2,0.3-2.1c0.2-0.9,0.4-1.5,0.5-1.9
		c0.1-0.4,0.2-0.7,0.3-1h1h0.9h0.6l-0.2,0.5l0.2,0.1c0.1,0.1,0.3,0.1,0.4,0.2c0.2,0.1,0.4,0.2,0.6,0.3c0.2,0.1,0.4,0.3,0.6,0.4
		c0.2,0.1,0.4,0.3,0.6,0.4c0.2,0.1,0.3,0.2,0.4,0.4c0.1,0.1,0.2,0.2,0.2,0.3c0,0.4-0.8,0.9-2.5,1.6v1.1l5.2,2.8h1v-8h0.1h0.9h1.3
		l-0.1,0.2c-0.7,1.8-1.1,3.4-1.1,4.7c0,0.6,0.1,1,0.3,1.4c0.2,0.4,0.6,0.7,1.1,1c0.4,0.2,1.1,0.6,2.1,1.1l0.3-0.6l-1.9-1.3
		c-0.3-0.2-0.6-0.5-0.7-0.7c-0.1-0.3-0.2-0.6-0.2-1c0-0.4,0-0.9,0.1-1.4c0.1-0.5,0.2-0.9,0.3-1.3c0.1-0.4,0.2-0.7,0.3-1.1
		c0.1-0.4,0.2-0.6,0.3-0.7c0.1-0.1,0.1-0.2,0.1-0.3h0.6h0.3h6.1v0.6l-5.2,2.4v1.2l5.2,3.9h1V157l1.9,0.6c0.7,0.2,1.1,0.5,1.1,0.9
		c0,0.2-0.1,0.3-0.2,0.6l-0.9,1.5l0.7,0.5l0.2-0.2c0.1-0.1,0.3-0.3,0.5-0.6c0.2-0.3,0.4-0.5,0.5-0.8c0.2-0.3,0.3-0.7,0.3-1
		c0-0.3-0.1-0.5-0.2-0.8s-0.3-0.4-0.5-0.6c-0.2-0.1-0.4-0.3-0.7-0.3l-2.6-0.9v-0.6h4.6h0.4h1v8h1v-8h0.7h1.2l-0.1,0.2
		c-0.7,1.8-1.1,3.4-1.1,4.7c0,0.6,0.1,1,0.3,1.4c0.2,0.4,0.6,0.7,1.1,1c0.4,0.2,1.1,0.6,2.1,1.1l0.3-0.6l-1.9-1.3
		c-0.3-0.2-0.6-0.5-0.7-0.7c-0.1-0.3-0.2-0.6-0.2-1c0-0.4,0-0.9,0.1-1.4c0.1-0.5,0.2-0.9,0.3-1.3c0.1-0.4,0.2-0.7,0.3-1.1
		c0.1-0.4,0.2-0.6,0.3-0.7c0.1-0.1,0.1-0.2,0.1-0.3h0.9v-0.9h-3.2h-0.9l-0.3-0.8h-0.6l0.1,0.9l-0.6-0.1h-0.4h-0.4h-11.7h-0.3h-3H125
		h-7.5h-0.6h-1.7c0,0,0,0.1-0.1,0.5c-0.1,0.3-0.2,0.7-0.4,1.2c-0.1,0.5-0.3,1-0.4,1.6c-0.1,0.5-0.3,1.1-0.4,1.6
		c-0.1,0.5-0.1,0.9-0.1,1.2c0,0.5,0.1,1,0.3,1.3c0.2,0.3,0.6,0.7,1.1,1c0.1,0.1,0.3,0.1,0.5,0.2C115.8,163.1,116,163.2,116.2,163.3z
		 M135.2,162.1L131,159l4.2-2V162.1z M123.8,155.3v6.8l-3.9-2.1c0.9-0.5,1.5-0.9,1.8-1.2s0.5-0.7,0.5-1.1c0-0.2-0.1-0.4-0.2-0.6
		c-0.1-0.2-0.2-0.3-0.4-0.4c-0.1-0.1-0.3-0.2-0.5-0.3c-0.7-0.4-1.5-0.8-2.4-1.2H123.8z"/>
	<path class="st4" d="M157.6,163.4h1v-8h0.7v-0.9h-0.9l-0.3-0.8h-0.6l0.1,0.9l-0.6-0.1h-0.5h-0.3h-8.3v0.9h6.6v3
		c0,0-0.2-0.1-0.6-0.3c-0.4-0.2-0.9-0.4-1.5-0.5c-0.6-0.2-1-0.3-1.3-0.3c-0.3,0-0.6,0-0.9,0.1c-0.2,0.1-0.5,0.2-0.7,0.4
		c-0.4,0.4-0.6,0.8-0.6,1.5c0,0.6,0.2,1.2,0.6,1.6c0.2,0.2,0.6,0.5,1.3,1l0.5-0.6l-0.2-0.2c-0.2-0.1-0.3-0.3-0.6-0.6
		s-0.4-0.5-0.5-0.6c0,0,0-0.1,0-0.1c0,0,0-0.1,0-0.1c0,0,0-0.1,0-0.1c0,0,0-0.1,0-0.1c0,0,0-0.1,0-0.2c0-0.1,0-0.1,0-0.2
		c0-0.1,0-0.1,0.1-0.2c0-0.1,0-0.1,0.1-0.1c0,0,0.1-0.1,0.1-0.1c0,0,0.1-0.1,0.1-0.1c0,0,0.1-0.1,0.1-0.1c0,0,0.1-0.1,0.1-0.1
		c0.1,0,0.1,0,0.2,0c0.1,0,0.1,0,0.2,0c0.2,0,0.4,0,0.8,0.1c0.3,0.1,0.6,0.1,0.9,0.2c0.3,0.1,0.6,0.2,0.9,0.3
		c0.3,0.1,0.6,0.2,0.7,0.2c0.1,0,0.2,0.1,0.3,0.1v4h1v-8h0.7h0.3h1.1V163.4z"/>
	<path class="st4" d="M43.5,178.9c0,0-0.1,0-0.2,0h-0.9c-0.1,0-0.2,0-0.2,0s0,0.1,0,0.2v0.9c0,0.1,0,0.1,0,0.2c0,0,0.1,0,0.2,0h0.9
		c0.1,0,0.2,0,0.2,0s0-0.1,0-0.2v-0.9C43.6,179.1,43.6,179,43.5,178.9C43.6,179,43.6,178.9,43.5,178.9z"/>
	<path class="st4" d="M76.7,177.7c0.3-0.1,0.6-0.2,0.9-0.3s0.6-0.3,0.8-0.4c0.2-0.2,0.4-0.3,0.6-0.5c0.2-0.2,0.2-0.4,0.2-0.6
		c0-0.4,0-0.7,0-0.9c0-0.2-0.1-0.5-0.2-0.7s-0.2-0.5-0.4-0.6s-0.4-0.3-0.7-0.4c-0.3-0.1-0.7-0.2-1.2-0.2c-0.9,0-1.9,0.1-3.1,0.3
		l0.1,0.7h2.9c0.6,0,1,0.1,1.2,0.2c0.2,0.2,0.3,0.6,0.3,1.2c0,0.1-0.1,0.3-0.2,0.4c-0.1,0.1-0.3,0.2-0.4,0.3
		c-0.2,0.1-0.4,0.2-0.6,0.3c-0.2,0.1-0.5,0.2-0.7,0.3c-0.2,0.1-0.5,0.1-0.8,0.2s-0.5,0.1-0.7,0.2s-0.4,0.1-0.6,0.1
		c-0.2,0-0.4,0.1-0.4,0.1c-0.1,0-0.1,0-0.2,0l-0.1,1.1c0.6,0.4,1.4,0.8,2.4,1.3c1,0.5,1.7,0.8,2.1,1c0.4,0.2,0.8,0.3,1,0.4l0.3-0.7
		c-1.9-1.1-3.2-1.9-4.1-2.4c0.3-0.1,0.6-0.1,0.8-0.2C76.2,177.8,76.4,177.7,76.7,177.7z"/>
	<path class="st4" d="M78.8,170.3c-0.1-0.3-0.3-0.5-0.6-0.7s-0.6-0.3-1-0.3c-0.6,0-1.8,0.1-3.8,0.2l0.1,0.7h3.7
		c0.3,0,0.6,0.1,0.7,0.2c0.1,0.1,0.2,0.4,0.2,0.8h-5.6h-0.3H71v-1.1h-0.7l-0.3,1.1v0.5c-0.5-0.3-1.2-0.5-2-0.5c-0.3,0-0.5,0-0.7,0.1
		s-0.3,0.2-0.5,0.4c-0.2-0.2-0.3-0.3-0.5-0.4c-0.2-0.1-0.4-0.1-0.7-0.1h-2.1h-0.3h-2.9h-0.9h-7.2h-0.4h-2.9h-0.9h-7.3h-0.3H40
		c-0.1-0.1-0.2-0.2-0.3-0.3s-0.1-0.2-0.1-0.3c0-0.1,0-0.2,0-0.4v-0.7c0-0.3,0.1-0.5,0.3-0.6c0.2-0.1,0.4-0.1,0.7-0.1
		c0.2,0,0.6,0,1.1,0.1l5.7,1.2l0.2-0.7l-0.6-0.2c-0.4-0.1-0.9-0.3-1.6-0.4c-0.7-0.2-1.3-0.3-1.8-0.5c-0.6-0.1-1-0.2-1.3-0.3
		c-0.3-0.1-0.6-0.1-1-0.2c-0.4-0.1-0.7-0.1-1-0.1c-0.6,0-1,0.1-1.3,0.4c-0.3,0.3-0.5,0.7-0.5,1.2v0.8c0,0.5,0.1,0.9,0.4,1.1
		l-1.1-0.1v0h0h-0.4h-1l-0.4-0.9h-0.6l0.1,0.9v2.1l-0.3-0.3c-0.2-0.2-0.4-0.4-0.7-0.6c-0.3-0.2-0.5-0.4-0.7-0.6
		c-0.4-0.3-0.8-0.4-1.2-0.4c-0.4,0-0.8,0.2-1.3,0.5c-0.7,0.5-1.6,1.2-2.7,2.1l0.5,0.7l0.6-0.4l2,2.5l0.6,0.1l2.8-2.6l0.3,0.3v5.6h1
		v-8h0.8h0.4H39v8h1v-8h0.3h0.3h6.1v0.6l-5.3,2.4v1.2l5.3,3.8h1l0-8h0.1h0.9h1.3l-0.1,0.2c-0.7,1.8-1.1,3.4-1.1,4.7
		c0,0.6,0.1,1,0.3,1.4c0.2,0.4,0.6,0.7,1.1,1c0.4,0.2,1.1,0.6,2.1,1.1l0.3-0.6l-1.9-1.3c-0.3-0.2-0.6-0.5-0.7-0.7
		c-0.1-0.3-0.2-0.6-0.2-1c0-0.4,0-0.9,0.1-1.4c0.1-0.5,0.2-0.9,0.3-1.3c0.1-0.4,0.2-0.7,0.3-1.1c0.1-0.4,0.2-0.6,0.3-0.7
		c0.1-0.1,0.1-0.2,0.1-0.3h0.5h0.4h6.1v0.6l-5.3,2.4v1.2l5.3,3.8h1v-8h0.1h0.9h1.3l-0.1,0.2c-0.7,1.8-1.1,3.4-1.1,4.7
		c0,0.6,0.1,1,0.3,1.4c0.2,0.4,0.6,0.7,1.1,1c0.4,0.2,1.1,0.6,2.1,1.1l0.3-0.6l-1.9-1.3c-0.3-0.2-0.6-0.5-0.7-0.7
		c-0.1-0.3-0.2-0.6-0.2-1c0-0.4,0-0.9,0.1-1.4c0.1-0.5,0.2-0.9,0.3-1.3c0.1-0.4,0.2-0.7,0.3-1.1c0.1-0.4,0.2-0.6,0.3-0.7
		c0.1-0.1,0.1-0.2,0.1-0.3h0.6c0.4,0,1.1,0.1,2.2,0.2c0.3,0,0.4,0.1,0.6,0.3c0.1,0.2,0.2,0.4,0.2,0.8c0,0.5,0,0.9-0.1,1.1
		c-0.1,0.2-0.3,0.3-0.6,0.5c-0.4,0.2-0.8,0.4-1.2,0.5l0.2,0.8l0.2,0c0.1,0,0.3-0.1,0.6-0.1c0.2-0.1,0.4-0.1,0.6-0.2
		c0.4-0.2,0.7-0.3,0.9-0.5l0.1,0.1c0.1,0,0.2,0.1,0.3,0.2c0.2,0.1,0.3,0.2,0.5,0.2c0.3,0.1,0.7,0.2,1.1,0.3l0.3-0.8l-0.2-0.1
		c-0.1-0.1-0.3-0.1-0.5-0.2s-0.4-0.2-0.5-0.3c-0.2-0.1-0.4-0.3-0.5-0.5s-0.1-0.5-0.1-0.9c0-0.8,0.4-1.1,1.1-1.1
		c0.4,0,0.7,0.1,1.1,0.2c0.4,0.2,0.6,0.3,0.6,0.5v7.1h1v-8h1.1h0.3h8.3v-0.9H79C79,170.9,78.9,170.5,78.8,170.3z M32.4,175.8l-1.7-2
		l0.1-0.1c0.1-0.1,0.1-0.1,0.2-0.2c0.1-0.1,0.2-0.2,0.3-0.3c0.1-0.1,0.2-0.2,0.3-0.3c0.1-0.1,0.2-0.1,0.3-0.2
		c0.4-0.2,0.7-0.3,0.9-0.3c0.3,0,0.7,0.2,1.1,0.5c0.2,0.2,0.4,0.4,0.7,0.6L32.4,175.8z M46.7,178.8l-4.2-3.1l4.2-2V178.8z
		 M58.1,178.8l-4.2-3.1l4.2-2V178.8z"/>
	<path class="st4" d="M93.8,169.3c-0.2-0.1-0.3-0.2-0.3-0.3c-0.1-0.1-0.1-0.1-0.1-0.1l-0.5,0.6l0.4,0.4c0.3,0.2,0.6,0.5,1,0.7
		c0.4,0.2,0.7,0.4,0.9,0.4c0.2,0,0.4,0,0.5-0.1c0.1-0.1,0.3-0.2,0.5-0.4c0.5-0.4,1-0.9,1.5-1.6l-0.4-0.4c-0.8,0.8-1.4,1.3-1.8,1.5
		c0,0-0.1,0-0.1,0c0,0-0.1,0-0.1,0c-0.1,0-0.2,0-0.4-0.1s-0.3-0.2-0.5-0.3C94.1,169.5,93.9,169.4,93.8,169.3z"/>
	<path class="st4" d="M95.3,169.3l0.3-0.4c0.1-0.1,0.1-0.2,0-0.3l-0.4-0.3c-0.1-0.1-0.2-0.1-0.3,0l-0.3,0.4
		c-0.1,0.1-0.1,0.2,0.1,0.3l0.4,0.3C95.1,169.4,95.2,169.4,95.3,169.3z"/>
	<path class="st4" d="M98.2,177.8c-0.1-0.3-0.2-0.6-0.2-1c0-0.4,0-0.9,0.1-1.4c0.1-0.5,0.2-0.9,0.3-1.3c0.1-0.4,0.2-0.7,0.3-1.1
		c0.1-0.4,0.2-0.6,0.3-0.7c0.1-0.1,0.1-0.2,0.1-0.3h0.9v-0.9h-3.2H96h-6.4h-1.2h-1c0,0,0,0.1-0.1,0.5c-0.1,0.3-0.2,0.7-0.4,1.2
		c-0.1,0.5-0.3,1-0.4,1.6c-0.1,0.5-0.3,1.1-0.4,1.6c-0.1,0.5-0.1,0.9-0.1,1.2c0,0.5,0.1,1,0.3,1.3c0.2,0.3,0.6,0.7,1.1,1
		c0.1,0.1,0.3,0.1,0.5,0.2c0.2,0.1,0.4,0.2,0.6,0.3c0.2,0.1,0.4,0.2,0.6,0.2c0.2,0.1,0.4,0.1,0.5,0.2c0.1,0,0.1,0.1,0.2,0.1l0.3-0.6
		l-2.1-1.2c-0.2-0.1-0.4-0.3-0.6-0.5c-0.1-0.2-0.2-0.3-0.3-0.5c0-0.2-0.1-0.4-0.1-0.6c0-0.5,0.1-1.2,0.3-2.1
		c0.2-0.9,0.4-1.5,0.5-1.9c0.1-0.4,0.2-0.7,0.3-1h0.3h1.5h4.9v0.6l-5.3,2.4v1.2l5.3,3.8h1v-8H96h0.9h1.3l-0.1,0.2
		c-0.7,1.8-1.1,3.4-1.1,4.7c0,0.6,0.1,1,0.3,1.4c0.2,0.4,0.6,0.7,1.1,1c0.4,0.2,1.1,0.6,2.1,1.1l0.3-0.6l-1.9-1.3
		C98.6,178.4,98.3,178.1,98.2,177.8z M94.8,178.8l-4.2-3.1l4.2-2V178.8z"/>
	<path class="st4" d="M101,172.1h1.3v5.8c0,0.4,0.1,0.8,0.2,1.1c0.1,0.3,0.3,0.5,0.4,0.7c0.2,0.2,0.4,0.3,0.6,0.4
		c0.2,0.1,0.4,0.1,0.7,0.1c0.7,0,1.4-0.3,2.3-0.9c0.9-0.6,1.5-1.4,2-2.2c0.2-0.4,0.4-0.8,0.4-1.2c0-0.9-0.5-1.5-1.5-1.6
		c-0.3,0-1.1-0.1-2.4-0.3c-0.4,0-0.9-0.1-1.5-0.2v-1.5h6.7v-0.9h-9V172.1z M103.3,174.5l3.7,0.7c0.3,0.1,0.5,0.1,0.6,0.2
		c0.1,0.1,0.2,0.2,0.2,0.5c0,0.3-0.1,0.7-0.4,1.1c-0.4,0.6-0.9,1.1-1.6,1.5c-0.7,0.5-1.2,0.7-1.6,0.7c-0.3,0-0.6-0.1-0.7-0.3
		c-0.1-0.2-0.2-0.6-0.2-1V174.5z"/>
	<path class="st4" d="M141.2,171.3h-2.5h-1h-11.1h-0.3h-0.6l-0.3-0.8h-0.6l0.1,0.9l-0.6-0.1h-0.5h-0.3h-0.9l-0.3-1h-0.6v8.8
		l-4.5-2.6c0.3-0.1,0.6-0.2,1-0.4c1.5-0.6,2.2-1.3,2.2-2c0-0.4,0-0.8-0.1-1c-0.1-0.3-0.2-0.5-0.3-0.7c-0.2-0.2-0.4-0.4-0.8-0.4
		s-0.8-0.1-1.3-0.1c-0.3,0-0.6,0-1,0.1l-1.2,0.2l0.1,0.8h2.1c0.5,0,0.8,0,1,0.1c0.2,0.1,0.4,0.2,0.4,0.3c0.1,0.1,0.1,0.4,0.1,0.7
		c0,0.5-0.7,1-2.2,1.6l-1.1,0.3v1.2l5.7,3.2h1v-8h0.8h0.3h1.1v8h1v-8h0.4h0.3h6.1v0.6l-5.2,2.4v1.2l5.2,3.9h1v-6.4l1.9,0.6
		c0.7,0.2,1.1,0.5,1.1,0.9c0,0.2-0.1,0.3-0.2,0.6l-0.9,1.5l0.7,0.5l0.2-0.2c0.1-0.1,0.3-0.3,0.5-0.6c0.2-0.3,0.4-0.5,0.5-0.8
		c0.2-0.3,0.3-0.7,0.3-1c0-0.3-0.1-0.5-0.2-0.8s-0.3-0.4-0.5-0.6c-0.2-0.1-0.4-0.3-0.7-0.3l-2.6-0.9v-0.6h4h1h1.2l-0.1,0.2
		c-0.7,1.8-1.1,3.4-1.1,4.7c0,0.6,0.1,1,0.3,1.4c0.2,0.4,0.6,0.7,1.1,1c0.4,0.2,1.1,0.6,2.1,1.1l0.3-0.6l-1.9-1.3
		c-0.3-0.2-0.6-0.5-0.7-0.7c-0.1-0.3-0.2-0.6-0.2-1c0-0.4,0-0.9,0.1-1.4c0.1-0.5,0.2-0.9,0.3-1.3c0.1-0.4,0.2-0.7,0.3-1.1
		c0.1-0.4,0.2-0.6,0.3-0.7c0.1-0.1,0.1-0.2,0.1-0.3h0.3h0.7h10.6v-0.9h-10.6H141.2z M132.7,178.9l-4.2-3.1l4.2-2V178.9z"/>
	<path class="st4" d="M148.7,172.9c-0.7,0-1.7,0.1-3.2,0.3l0.1,0.7h2.9c0.6,0,1.1,0.1,1.4,0.3c0.3,0.2,0.4,0.5,0.4,0.9
		c0,0.3-0.1,0.7-0.2,1c-0.1,0.4-0.4,0.8-0.8,1.2s-0.9,0.8-1.3,1c-0.3,0.1-0.5,0.2-0.9,0.2c-0.7,0-1.4-0.4-2-1.1l-2.4-2.7l-0.5,0.4
		c0,0,0.1,0.2,0.3,0.5c0.2,0.3,0.5,0.8,0.9,1.3c0.4,0.5,0.7,0.9,1,1.3c0.5,0.5,1,0.9,1.4,1.1c0.4,0.2,0.9,0.3,1.4,0.3
		c0.4,0,0.8-0.1,1.2-0.3c0.6-0.3,1.2-0.7,1.7-1.2c0.5-0.5,0.9-1.1,1.1-1.8c0.1-0.4,0.2-0.8,0.2-1.2c0-0.7-0.2-1.2-0.6-1.6
		S149.6,172.9,148.7,172.9z"/>
	<path class="st4" d="M172.2,171.3h-2.9h-0.9l-0.3-0.8h-0.6l0.1,0.9l-0.6-0.1h-0.4h-0.3h-1l-0.4-0.9h-0.6l0.1,0.9v2.1l-0.3-0.3
		c-0.2-0.2-0.4-0.4-0.7-0.6c-0.3-0.2-0.5-0.4-0.7-0.6c-0.4-0.3-0.8-0.4-1.2-0.4c-0.4,0-0.8,0.2-1.3,0.5c-0.7,0.5-1.6,1.2-2.7,2.1
		l0.5,0.7l0.6-0.4l2,2.5l0.6,0.1l2.8-2.6l0.3,0.3v5.6h1v-8h0.8h0.3h1v8h1v-8h0.7h1.2l-0.1,0.2c-0.7,1.8-1.1,3.4-1.1,4.7
		c0,0.6,0.1,1,0.3,1.4c0.2,0.4,0.6,0.7,1.1,1c0.4,0.2,1.1,0.6,2.1,1.1l0.3-0.6l-1.9-1.3c-0.3-0.2-0.6-0.5-0.7-0.7
		c-0.1-0.3-0.2-0.6-0.2-1c0-0.4,0-0.9,0.1-1.4c0.1-0.5,0.2-0.9,0.3-1.3c0.1-0.4,0.2-0.7,0.3-1.1c0.1-0.4,0.2-0.6,0.3-0.7
		c0.1-0.1,0.1-0.2,0.1-0.3h0.5h0.4h6.1v0.6l-5.3,2.4v1.2l5.3,3.8h1l0-8h1v-0.9h-8.1H172.2z M161.1,175.8l-1.7-2l0.1-0.1
		c0.1-0.1,0.1-0.1,0.2-0.2c0.1-0.1,0.2-0.2,0.3-0.3c0.1-0.1,0.2-0.2,0.3-0.3c0.1-0.1,0.2-0.1,0.3-0.2c0.4-0.2,0.7-0.3,0.9-0.3
		c0.3,0,0.7,0.2,1.1,0.5c0.2,0.2,0.4,0.4,0.7,0.6L161.1,175.8z M178.6,178.8l-4.2-3.1l4.2-2V178.8z"/>
	<path class="st4" d="M175.4,178.9c0,0-0.1,0-0.2,0h-0.9c-0.1,0-0.2,0-0.2,0s0,0.1,0,0.2v0.9c0,0.1,0,0.1,0,0.2c0,0,0.1,0,0.2,0h0.9
		c0.1,0,0.2,0,0.2,0s0-0.1,0-0.2v-0.9C175.5,179.1,175.5,179,175.4,178.9C175.5,179,175.5,178.9,175.4,178.9z"/>
	<rect x="183.2" y="171.3" class="st4" width="1" height="8.9"/>
	<path class="st4" d="M35.7,36.3c-0.6,0.5-1.3,0.8-2.2,0.8c-0.4,0-0.9-0.2-1.5-0.5c-0.5-0.3-1-0.9-1.5-1.5l-1.7-2.5l-1.2,0.7
		l0.1,0.5c0.1,0.3,0.3,0.8,0.5,1.3c0.3,0.6,0.6,1.1,0.9,1.6c1.2,1.7,2.7,2.5,4.5,2.5c0.8,0,1.6-0.2,2.4-0.7c0.8-0.5,1.5-1.2,2.2-2
		c0.6-0.8,0.9-1.6,0.9-2.2c0-0.5-0.1-1-0.4-1.5c-0.3-0.5-0.6-0.9-1.1-1.1c0,0,0.1-0.1,0.1-0.2s0.1-0.2,0.1-0.3
		c0-0.1,0.1-0.2,0.1-0.3c0-0.1,0-0.3,0.1-0.4c0-0.2,0-0.3,0-0.4c0-0.1,0-0.2,0-0.4c0-0.2,0-0.3,0-0.3c0-0.3,0-0.7,0-1.1
		c0-0.5-0.3-0.9-1-1.2s-1.5-0.4-2.6-0.4l-0.8,0.8l-0.5-0.2c-0.3-0.1-0.7-0.3-1.2-0.4c-0.5-0.1-0.8-0.2-1.1-0.2c-0.3,0-0.5,0-0.6,0.1
		S30.2,26.9,30,27c-0.1,0.1-0.3,0.3-0.5,0.7c-0.2,0.3-0.4,0.7-0.6,1.1s-0.3,0.8-0.3,1.1c0,0.1,0,0.2,0,0.3c0,0.1,0.1,0.2,0.2,0.3
		c0.1,0.1,0.1,0.2,0.2,0.2c0.1,0.1,0.2,0.1,0.3,0.2c0.1,0.1,0.2,0.1,0.3,0.2s0.2,0.1,0.4,0.2c0.2,0.1,0.3,0.1,0.4,0.2
		c0.1,0,0.2,0.1,0.4,0.2c0.2,0.1,0.3,0.1,0.4,0.1c0.1,0,0.2,0.1,0.3,0.1c0.1,0,0.1,0.1,0.2,0.2c0,0.1,0.1,0.1,0.1,0.2
		c0,0.1,0,0.1,0,0.2c0,0,0,0.1,0,0.1s-0.1,0.1-0.1,0.1S31.5,33,31.4,33c-0.1,0.1-0.1,0.1-0.2,0.1c-0.1,0-0.1,0.1-0.2,0.1
		c-0.1,0.1-0.1,0.1-0.2,0.1c-0.1,0-0.1,0.1-0.2,0.1s-0.1,0.1-0.1,0.1c0,0,0,0,0,0l0.8,1.3l0.1-0.1c0.1,0,0.2-0.1,0.3-0.2
		c0.1-0.1,0.3-0.1,0.4-0.2c0.2-0.1,0.3-0.2,0.5-0.3s0.3-0.2,0.4-0.3c0.1-0.1,0.2-0.2,0.3-0.4c0.1-0.1,0.1-0.3,0.1-0.4
		c0-0.5-0.1-0.9-0.2-1.3c0-0.1,0-0.2-0.1-0.2c0-0.1,0-0.2-0.1-0.2c0-0.1,0-0.1-0.1-0.2c0-0.1,0-0.1-0.1-0.2c0,0,0-0.1-0.1-0.1
		c0,0-0.1-0.1-0.1-0.1c0,0-0.1-0.1-0.1-0.1c0,0-0.1-0.1-0.1-0.1c0,0-0.1-0.1-0.2-0.1c-0.1,0-0.1,0-0.2-0.1c0,0-0.1,0-0.3-0.1
		c-0.1,0-0.2-0.1-0.3-0.1c-0.1,0-0.2-0.1-0.3-0.1s-0.2-0.1-0.3-0.1S31,29.9,31,29.8s-0.1-0.1-0.2-0.1c0,0-0.1-0.1-0.1-0.1
		c0-0.2,0.1-0.3,0.2-0.5c0.1-0.2,0.3-0.3,0.4-0.3c0.4,0,1.3,0.3,2.7,0.8l0.9-0.9c0.6,0,1,0.1,1.2,0.2s0.3,0.4,0.2,0.8
		c0,0,0,0.1,0,0.1c0,0,0,0.1,0,0.1c-0.1,0.4-0.1,0.7-0.2,0.9c-0.1,0.2-0.3,0.3-0.6,0.3h-1.3v1.9h1.6c0.3,0,0.7,0.2,0.9,0.5
		c0.3,0.3,0.4,0.6,0.4,0.8C37.1,34.7,36.7,35.5,35.7,36.3z"/>
	<path class="st4" d="M46,33.4L46,33.4c0.1,0,0.2,0,0.3,0c0.1,0,0.2,0,0.3,0c0.1,0,0.3,0,0.4,0c0.1,0,0.3,0,0.4,0s0.3,0,0.5,0
		c0.2,0,0.3,0,0.5,0c0.1,0,0.3,0,0.4,0c0.1,0,0.3,0,0.4,0c0.4,0,0.7,0,0.9,0s0.3,0.1,0.4,0.2c0.1,0.1,0.2,0.2,0.2,0.4
		c0,0.1-0.1,0.4-0.4,0.7c-0.3,0.3-0.6,0.7-1.1,1c-0.6,0.5-1.1,0.7-1.5,0.7c-0.3,0-0.7-0.1-1.1-0.4c-0.4-0.3-0.8-0.6-1.1-1.1
		c-0.8-1-1.9-2.4-3.3-4.2l-1.3,0.6l0.3,0.6c0.2,0.4,0.5,1,1,1.9c0.5,0.8,1.1,1.7,1.7,2.5c0.5,0.7,1.1,1.2,1.8,1.6s1.3,0.6,1.9,0.6
		c0.3,0,0.5,0,0.7-0.1s0.4-0.1,0.6-0.2s0.4-0.2,0.5-0.3s0.4-0.3,0.6-0.5c0.7-0.6,1.4-1.3,1.9-2.1c0.6-0.8,0.8-1.5,0.8-2.2
		c0-0.2,0-0.4-0.1-0.6s-0.2-0.3-0.4-0.4c-0.2-0.1-0.4-0.2-0.6-0.2c-0.2-0.1-0.4-0.1-0.7-0.1c-0.3,0-0.6,0-0.7,0c-0.2,0-0.4,0-0.8,0
		c-0.4,0-0.9,0-1.3,0.1v-1.2l0.2,0.1c0.2,0,0.4,0.1,0.6,0.1c0.3,0.1,0.6,0.1,0.9,0.2c0.3,0.1,0.7,0.1,1,0.2c0.4,0.1,0.7,0.2,1,0.2
		c0.3,0.1,0.6,0.1,0.9,0.2c0.3,0.1,0.5,0.1,0.6,0.2c0.3,0.1,0.5,0.2,0.6,0.4c0.1,0.2,0.2,0.3,0.2,0.5c0,0.2-0.1,0.5-0.2,0.8
		c-0.4,1.1-1,2.9-2,5.5h2.1l2-5.8c0.1-0.3,0.1-0.5,0.1-0.7c0-1.1-1-1.9-2.9-2.5c-1-0.3-2.8-0.6-5.2-0.8v-0.3H57h0.5h6.9V29l-6.4,2.9
		v1.6l6.4,4.6h2.2v-9.5h1.4v-1.9H57.5H57H39.8v1.9H46V33.4z M64.3,35.5l-3.7-2.7l3.7-1.7V35.5z"/>
	<path class="st4" d="M81.8,31.5L81.8,31.5c-1.8-0.8-3.2-1.2-4.3-1.2c-0.7,0-1.4,0.3-2,0.8c-0.3,0.2-0.5,0.5-0.6,0.9
		c-0.2,0.4-0.3,0.7-0.3,1.1c0,0.9,0.3,1.6,0.8,2.2c0.4,0.4,1.2,1,2.3,1.7l0.9-1.2l-0.5-0.5c-0.3-0.3-0.6-0.7-0.9-1.1
		c-0.3-0.4-0.5-0.7-0.5-0.9c0-0.1,0-0.3,0.1-0.4c0.1-0.1,0.1-0.2,0.2-0.3c0.1-0.1,0.2-0.1,0.3-0.2s0.2-0.1,0.4-0.1
		c0.7,0,2.1,0.4,4.1,1.2v4.6H84v-9.5h0.2h1.1h1.2v9.5h2.2v-9.5h1.3h0.5H92v9.5h2.2v-9.5h0.7h0.5h7.3V29l-6.3,2.9v1.6l6.3,4.7h2.2v-7
		l1.6,0.5c0.4,0.2,0.7,0.3,0.9,0.4c0.1,0.1,0.2,0.3,0.2,0.6c0,0.2-0.1,0.5-0.4,0.9l-0.6,1.2l1.5,1l0.3-0.3c0.2-0.2,0.4-0.5,0.6-0.9
		c0.2-0.4,0.5-0.7,0.6-1.1c0.1-0.2,0.2-0.3,0.2-0.5c0-0.2,0.1-0.3,0.1-0.4c0-0.1,0-0.3,0-0.4c0-0.9-0.7-1.7-2-2.2l-3-1l0-0.5h5.9
		v-1.9H95.4h-0.5H94c-0.1,0-0.1-0.1-0.2-0.1c0,0-0.1-0.1-0.1-0.1c0,0,0-0.1-0.1-0.1c0-0.1,0-0.1,0-0.1c0,0,0-0.1,0-0.2s0-0.1,0-0.2
		s0-0.1,0-0.2s0-0.2,0-0.2v-0.9c0-0.3,0.1-0.5,0.2-0.5c0.1-0.1,0.4-0.1,0.7-0.1c0.3,0,0.9,0.1,1.7,0.3l7,1.3l0.4-1.4l-0.8-0.2
		c-0.5-0.2-1.3-0.4-2.2-0.6c-0.9-0.2-1.7-0.4-2.4-0.6c-2.1-0.5-3.6-0.7-4.4-0.7c-0.7,0-1.3,0.2-1.7,0.5s-0.6,0.8-0.6,1.6v1.5
		c0,0.7,0.2,1.1,0.5,1.4L91,26.7h-0.6h-0.5h-1.5l-0.4-1.2h-1.6l0.1,1.3l-1.3-0.1v0h0h-1.1H73.3v1.9h8.6V31.5z M102.7,35.6l-3.7-2.8
		l3.7-1.7V35.6z"/>
	<path class="st4" d="M115.5,38.1c0.3,0,0.4-0.1,0.4-0.4v-1.6c0-0.3-0.1-0.4-0.4-0.4h-1.6c-0.3,0-0.4,0.1-0.4,0.4v1.6
		c0,0.1,0,0.2,0.1,0.3c0.1,0.1,0.2,0.1,0.3,0.1H115.5z"/>
	<path class="st4" d="M116.1,27.2c0.2,0,0.4,0.1,0.5,0.2c0.2,0.1,0.3,0.2,0.4,0.3c0.1,0.1,0.2,0.3,0.2,0.4c0.1,0.2,0.1,0.4,0.1,0.6
		v1c0,0.5-0.1,0.9-0.4,1.1c-0.3,0.2-0.7,0.4-1.1,0.4h-2.1v3.5h2V33c2.7,0.2,4.1-0.9,4.1-3.3v-1.3c0-0.5-0.1-0.9-0.2-1.3
		c-0.2-0.4-0.4-0.8-0.7-1.1c-0.3-0.3-0.7-0.6-1.2-0.8c-0.5-0.2-1.1-0.3-1.8-0.3c-0.9,0-1.8,0-2.5,0.1c-0.7,0.1-1.6,0.2-2.6,0.4v1.9
		h4.5C115.6,27.2,115.9,27.2,116.1,27.2z"/>
</g>
<path class="st5" d="M390.8,135.6l9-1c1.4-3.4,2.5-7,3.2-10.7c0.7-3.6,1.1-7.3,1.2-11.1l-11.3-4.9l10.2-7.7
	c-1.2-6.2-3.3-12.1-6.2-17.5l-9.3,1.4l3.8-9.7c-4-5.2-8.8-9.7-14.3-13.4L364,67l1.2-12.2c-6.8-2.6-14.2-4.1-21.9-4.1l-4.6,8.6
	l-4.9-7.9c-7.8,1.2-15.1,3.9-21.6,7.8l10.4,6.7l-16.1,8.3l0.5-11.6c-6,4.5-11.2,10-15.3,16.3l3.7,8.1l-7.8-0.7
	c-3,6.6-4.9,13.9-5.4,21.5l9.7-7.2l2.1,18l-11.9-5.1c0.3,8.7,2.3,16.9,5.9,24.4l10.3,1l-5.3,7.5c4.4,6.3,9.9,11.7,16.3,16l-1.7-14.7
	l16.7,7.2l-12.3,9.2c7.7,4.6,16.5,7.6,25.9,8.4l4.2-7.7l4.9,7.9c10.2-0.6,19.7-3.7,28-8.7l-12.3-7.9l16.1-8.3l-0.7,14.2
	c6.5-4.5,12.1-10.3,16.5-17c0.5-0.8,1-1.6,1.5-2.4L390.8,135.6z M317.1,85l1.1,9l1.1,9v0l-16.7-7.2L317.1,85z M306.7,131.4l4.8-17.5
	l12.7,12.9L306.7,131.4z M328.8,80.1l14.5-10.9l2.1,18v0l-11.7-5L328.8,80.1z M336.2,157.6l-2.1-18l16.7,7.2L336.2,157.6z
	 M336.2,124.1l-2.1-18l16.7,7.2L336.2,124.1z M362,101.6l-2.1-18l16.7,7.2L362,101.6z M367.9,136.8l-2.1-18l16.7,7.2L367.9,136.8z"
	/>
<polygon class="st6" points="333.5,51.1 333.7,51.4 338.6,59.3 343.2,50.7 343.4,50.4 347.2,43.3 337,43.6 329,43.9 "/>
<polygon class="st6" points="337.8,172.5 337.6,172.8 333.4,180.7 351.5,180.1 347,172.9 346.8,172.6 341.9,164.7 "/>
<polygon class="st6" points="362.4,156 374.8,163.9 376,164.7 377.7,165.8 377.8,163.5 377.9,161.9 378.5,147.7 "/>
<polygon class="st6" points="367.9,136.8 382.4,126 365.7,118.8 "/>
<polygon class="st6" points="359.9,83.5 362,101.6 376.6,90.7 "/>
<polygon class="st6" points="377.2,61 380.5,59.5 365.7,48.9 365.2,54.8 364,67 "/>
<polygon class="st6" points="336.2,124.1 350.8,113.2 334.1,106.1 "/>
<polygon class="st6" points="306.7,131.4 324.3,126.8 311.5,113.9 "/>
<polygon class="st6" points="336.2,157.6 350.8,146.8 334.1,139.6 "/>
<polygon class="st6" points="307.5,147.7 309.3,162.4 309.7,165.7 311.9,164.1 324.2,154.9 "/>
<polygon class="st6" points="291.9,100.7 282.3,107.9 281.6,108.4 277.4,111.5 281.5,113.3 282.2,113.6 294.1,118.7 "/>
<polygon class="st6" points="288.1,137.9 287,137.8 280.3,137.2 287.9,153.7 292.4,147.3 293,146.4 298.4,138.9 "/>
<polygon class="st6" points="401,134.4 399.7,134.6 390.8,135.6 395.9,142.5 396.6,143.5 397.2,144.2 401.5,150.2 405.1,142.1 
	408.8,133.6 "/>
<polygon class="st6" points="345.5,87.3 343.4,69.2 328.8,80.1 333.8,82.3 345.5,87.3 "/>
<polygon class="st6" points="309,57.1 307.3,56 307,62.1 307,62.6 306.4,74.1 322.5,65.8 312.1,59.1 311.8,58.9 "/>
<polygon class="st6" points="319.3,103 318.2,94 317.1,85 302.6,95.8 319.3,103 "/>
<polygon class="st6" points="291.7,78.9 291.5,78.4 287.9,70.6 284.5,75.3 277.4,85.4 287.1,86.3 287.7,86.3 295.4,87.1 "/>
<polygon class="st6" points="396.9,82.7 397.6,82.6 405.6,81.5 394.3,67.2 391.7,73.7 391.5,74.4 387.6,84.1 "/>
<polygon class="st6" points="404.2,112.8 405.1,113.2 409.5,115.1 408.7,107.6 407.4,97.1 403.9,99.7 403.1,100.3 392.9,107.9 "/>
<ellipse class="st7" cx="341.9" cy="207.5" rx="49.1" ry="3.8"/>
</svg>
