<?xml version="1.0" encoding="utf-8"?>
<!-- Generator: Adobe Illustrator 23.0.3, SVG Export Plug-In . SVG Version: 6.00 Build 0)  -->
<svg version="1.1" id="Layer_1" xmlns="http://www.w3.org/2000/svg" xmlns:xlink="http://www.w3.org/1999/xlink" x="0px" y="0px"
	 viewBox="0 0 512 250" style="enable-background:new 0 0 512 250;" xml:space="preserve">
<style type="text/css">
	.st0{fill:none;}
	.st1{fill:#E2ECF1;}
	.st2{fill:#A4C2D1;}
	.st3{fill:#80A8BB;}
	.st4{fill:#000640;}
	.st5{fill:#2A3C58;}
	.st6{fill:#EF413E;}
	.st7{fill:#475B76;}
	.st8{fill:#F2F2F2;}
	.st9{fill:#F3D6B5;}
	.st10{fill:#FDD7BA;}
	.st11{fill:#FFFFFF;}
	.st12{fill:#CFD0D3;}
	.st13{fill:#A1A3A6;}
	.st14{fill:#D8E2E5;}
	.st15{fill:#464642;}
	.st16{fill:#24231E;}
	.st17{fill:#010101;}
	.st18{fill:#401312;}
	.st19{fill:#B37D57;}
	.st20{fill:#C3895E;}
	.st21{fill:#7F8342;}
	.st22{fill:#1C2B44;}
	.st23{fill:#E0A577;}
	.st24{fill:#CE976E;}
	.st25{fill:#3B384D;}
	.st26{fill:#B22E2A;}
	.st27{fill:#6F4434;}
	.st28{fill:#3E3E3E;}
	.st29{fill:#616262;}
	.st30{fill:#575858;}
	.st31{fill:#482D23;}
	.st32{fill:#674031;}
	.st33{fill:#553528;}
	.st34{fill:#91732B;}
	.st35{fill:#D7A929;}
	.st36{fill:#0F7790;}
	.st37{fill:#AEAEAE;}
	.st38{fill:#F8983F;}
	.st39{fill:#E57E25;}
	.st40{fill:#A6832E;}
	.st41{fill:#D0AD50;}
	.st42{fill:#818181;}
	.st43{fill:#A3A3A2;}
	.st44{fill:#0CAACC;}
	.st45{fill:#814F3D;}
	.st46{fill:#BDBDBD;}
	.st47{fill:#FAAB62;}
	.st48{fill:#97663A;}
	.st49{fill:#744E2C;}
</style>
<g>
	<path class="st0" d="M82.2,32.6c-0.2-0.2-0.5-0.3-0.8-0.3h-2.9v3.6l2.9,0c1,0,1.5-0.6,1.5-1.8c0-0.3,0-0.7-0.1-0.9
		C82.6,33,82.4,32.7,82.2,32.6z"/>
	<path class="st0" d="M148.5,87.8c-0.3,0-0.5,0-0.7,0c-0.1,0-0.3,0-0.5,0.1c-0.2,0-0.3,0.1-0.4,0.2c-0.1,0.1-0.2,0.2-0.3,0.4
		c-0.1,0.2-0.1,0.4-0.2,0.6c0,0.2,0,0.5,0,0.9h2.9c0.5,0,0.8-0.2,0.8-0.6c0-0.7-0.1-1.1-0.3-1.2C149.7,87.9,149.2,87.8,148.5,87.8z"
		/>
	<path class="st0" d="M154.6,92.9c0.7,0,1.6-0.2,2.5-0.6v-4.2c-0.9-0.2-1.7-0.3-2.5-0.3c-0.5,0-0.8,0.2-1,0.6
		c-0.2,0.4-0.3,1.1-0.3,2.1C153.3,92,153.7,92.9,154.6,92.9z"/>
	<path class="st0" d="M84.2,89.3c0-0.7-0.1-1.1-0.3-1.2c-0.2-0.2-0.7-0.2-1.4-0.2c-0.3,0-0.5,0-0.7,0c-0.1,0-0.3,0-0.5,0.1
		C81.2,87.9,81,88,81,88c-0.1,0.1-0.2,0.2-0.3,0.4c-0.1,0.2-0.1,0.4-0.2,0.6c0,0.2,0,0.5,0,0.9h2.9C83.9,89.9,84.2,89.7,84.2,89.3z"
		/>
	<path class="st0" d="M117.5,75.2c-0.1,0.2-0.2,0.3-0.2,0.6v0.6c0,0.5,0.3,0.8,0.8,0.8c0.3,0,0.7-0.1,1.2-0.2s0.9-0.2,1.2-0.3
		l0.5-0.2v-1.9L118,75C117.8,75,117.6,75.1,117.5,75.2z"/>
	<path class="st0" d="M117.7,30.7c-0.2-0.2-0.5-0.3-1.1-0.3c-0.4,0-0.7,0-0.9,0s-0.4,0.1-0.5,0.3s-0.3,0.4-0.3,0.6s-0.1,0.7-0.1,1.2
		h2.4c0.5,0,0.8-0.2,0.8-0.7C118,31.2,117.9,30.9,117.7,30.7z"/>
	<path class="st0" d="M136.3,168.5c0-0.7-0.1-1.1-0.3-1.2c-0.2-0.2-0.7-0.2-1.4-0.2c-0.3,0-0.5,0-0.7,0c-0.1,0-0.3,0-0.5,0.1
		c-0.2,0-0.3,0.1-0.4,0.2c-0.1,0.1-0.2,0.2-0.3,0.4c-0.1,0.2-0.1,0.4-0.2,0.6c0,0.2,0,0.5,0,0.9h2.9
		C136,169.1,136.3,168.9,136.3,168.5z"/>
	<path class="st0" d="M132.9,103.9c-0.2,0.4-0.3,1.1-0.3,2.1c0,1.7,0.4,2.5,1.3,2.5c0.7,0,1.6-0.2,2.5-0.6v-4.2
		c-0.9-0.2-1.7-0.3-2.5-0.3C133.5,103.3,133.2,103.5,132.9,103.9z"/>
	<path class="st0" d="M105.3,108.4c0.2,0,0.4-0.1,0.6-0.3c0.2-0.2,0.3-0.4,0.4-0.7c0.1-0.3,0.1-0.8,0.1-1.3c0-0.6,0-1.1-0.1-1.5
		c-0.1-0.4-0.2-0.6-0.4-0.8s-0.4-0.3-0.6-0.3c-0.2,0-0.5-0.1-1-0.1c-0.3,0-0.6,0-0.8,0s-0.4,0.1-0.6,0.2c-0.2,0.1-0.3,0.2-0.4,0.4
		c-0.1,0.2-0.2,0.4-0.2,0.8s-0.1,0.7-0.1,1.2c0,0.6,0,1,0.1,1.4s0.2,0.6,0.4,0.7c0.2,0.2,0.4,0.3,0.6,0.3c0.2,0,0.5,0.1,0.9,0.1
		C104.8,108.5,105.1,108.4,105.3,108.4z"/>
	<path class="st0" d="M119.4,108.5c0.3,0,0.7-0.1,1.2-0.2s0.9-0.2,1.2-0.3l0.5-0.2V106l-2.9,0.2c-0.3,0-0.5,0.1-0.6,0.3
		c-0.1,0.2-0.2,0.3-0.2,0.6v0.6C118.7,108.2,118.9,108.5,119.4,108.5z"/>
	<path class="st0" d="M82.3,29.8c0.2-0.3,0.4-0.6,0.4-1.1c0-0.2,0-0.4-0.1-0.5c0-0.2-0.1-0.3-0.2-0.4c-0.1-0.1-0.2-0.2-0.2-0.3
		s-0.2-0.1-0.3-0.2s-0.2-0.1-0.3-0.1c-0.1,0-0.2,0-0.3,0h-2.8v3h2.8C81.7,30.2,82,30,82.3,29.8z"/>
	<path class="st0" d="M45.4,104.9c0-0.7-0.1-1.1-0.3-1.2c-0.2-0.2-0.7-0.2-1.4-0.2c-0.3,0-0.5,0-0.7,0c-0.1,0-0.3,0-0.5,0.1
		c-0.2,0-0.3,0.1-0.4,0.2c-0.1,0.1-0.2,0.2-0.3,0.4c-0.1,0.2-0.1,0.4-0.2,0.6c0,0.2,0,0.5,0,0.9h2.9
		C45.1,105.5,45.4,105.3,45.4,104.9z"/>
	<path class="st0" d="M48.5,106.4c-0.1,0.2-0.2,0.3-0.2,0.6v0.6c0,0.5,0.3,0.8,0.8,0.8c0.3,0,0.7-0.1,1.2-0.2s0.9-0.2,1.2-0.3
		l0.5-0.2V106l-2.9,0.2C48.8,106.2,48.7,106.3,48.5,106.4z"/>
	<path class="st0" d="M47.7,73.7c0-0.7-0.1-1.1-0.3-1.2c-0.2-0.2-0.7-0.2-1.4-0.2c-0.3,0-0.5,0-0.7,0c-0.1,0-0.3,0-0.5,0.1
		c-0.2,0-0.3,0.1-0.4,0.2c-0.1,0.1-0.2,0.2-0.3,0.4C44.1,73,44,73.2,44,73.4c0,0.2,0,0.5,0,0.9h2.9C47.4,74.3,47.7,74.1,47.7,73.7z"
		/>
	<path class="st0" d="M42.8,171.7c0.2,0.2,0.4,0.3,0.6,0.3c0.2,0,0.5,0.1,0.9,0.1c0.4,0,0.7,0,0.9-0.1c0.2,0,0.4-0.1,0.6-0.3
		c0.2-0.2,0.3-0.4,0.4-0.7c0.1-0.3,0.1-0.8,0.1-1.3c0-0.6,0-1.1-0.1-1.5c-0.1-0.4-0.2-0.6-0.4-0.8s-0.4-0.3-0.6-0.3
		c-0.2,0-0.5-0.1-1-0.1c-0.3,0-0.6,0-0.8,0s-0.4,0.1-0.6,0.2c-0.2,0.1-0.3,0.2-0.4,0.4c-0.1,0.2-0.2,0.4-0.2,0.8s-0.1,0.7-0.1,1.2
		c0,0.6,0,1,0.1,1.4S42.6,171.5,42.8,171.7z"/>
	<path class="st0" d="M58.1,87.8c-0.2,0-0.4,0.1-0.6,0.2s-0.3,0.2-0.4,0.4c-0.1,0.2-0.2,0.4-0.2,0.8s-0.1,0.7-0.1,1.2
		c0,0.6,0,1,0.1,1.4s0.2,0.6,0.4,0.7c0.2,0.2,0.4,0.3,0.6,0.3c0.2,0,0.5,0.1,0.9,0.1c0.4,0,0.7,0,0.9-0.1c0.2,0,0.4-0.1,0.6-0.3
		c0.2-0.2,0.3-0.4,0.4-0.7c0.1-0.3,0.1-0.8,0.1-1.3c0-0.6,0-1.1-0.1-1.5c-0.1-0.4-0.2-0.6-0.4-0.8s-0.4-0.3-0.6-0.3
		c-0.2,0-0.5-0.1-1-0.1C58.5,87.8,58.2,87.8,58.1,87.8z"/>
	<path class="st0" d="M65.8,73.7c0-0.7-0.1-1.1-0.3-1.2c-0.2-0.2-0.7-0.2-1.4-0.2c-0.3,0-0.5,0-0.7,0c-0.1,0-0.3,0-0.5,0.1
		c-0.2,0-0.3,0.1-0.4,0.2c-0.1,0.1-0.2,0.2-0.3,0.4c-0.1,0.2-0.1,0.4-0.2,0.6c0,0.2,0,0.5,0,0.9H65C65.5,74.3,65.8,74.1,65.8,73.7z"
		/>
	<path class="st0" d="M41.2,152.5c0-0.5-0.1-0.8-0.2-0.9c-0.1-0.1-0.4-0.2-0.9-0.2c-0.3,0-0.5,0-0.7,0c-0.1,0-0.3,0.1-0.4,0.2
		c-0.1,0.1-0.2,0.3-0.3,0.5s-0.1,0.5,0,0.9h1.9C41,153,41.2,152.9,41.2,152.5z"/>
	<path class="st0" d="M69.4,120.5c0-0.7-0.1-1.1-0.3-1.2c-0.2-0.2-0.7-0.2-1.4-0.2c-0.3,0-0.5,0-0.7,0c-0.1,0-0.3,0-0.5,0.1
		c-0.2,0-0.3,0.1-0.4,0.2c-0.1,0.1-0.2,0.2-0.3,0.4c-0.1,0.2-0.1,0.4-0.2,0.6c0,0.2,0,0.5,0,0.9h2.9
		C69.1,121.1,69.4,120.9,69.4,120.5z"/>
	<path class="st0" d="M76.9,88.3c-0.2-0.4-0.5-0.6-1-0.6c-0.8,0-1.7,0.1-2.5,0.3v4.2c1,0.4,1.8,0.6,2.5,0.6c0.9,0,1.3-0.8,1.3-2.5
		C77.3,89.3,77.1,88.7,76.9,88.3z"/>
	<path class="st0" d="M48.4,155.3v-1.4l-1.8,0.1c-0.1,0-0.2,0-0.3,0.1c-0.1,0.1-0.1,0.1-0.2,0.2c0,0.1-0.1,0.1-0.1,0.2
		c0,0.1,0,0.2,0,0.3v0.4c0,0.3,0.1,0.5,0.2,0.6c0.1,0.1,0.3,0.1,0.5,0.1c0.1,0,0.2,0,0.3,0s0.2-0.1,0.3-0.1c0.1,0,0.2-0.1,0.3-0.1
		s0.2-0.1,0.3-0.1s0.2-0.1,0.2-0.1C48.2,155.4,48.3,155.3,48.4,155.3z"/>
	<path class="st0" d="M54.1,122c-0.1,0.2-0.2,0.3-0.2,0.6v0.6c0,0.5,0.3,0.8,0.8,0.8c0.3,0,0.7-0.1,1.2-0.2s0.9-0.2,1.2-0.3l0.5-0.2
		v-1.9l-2.9,0.2C54.4,121.8,54.2,121.9,54.1,122z"/>
	<path class="st0" d="M35.9,90.8c-0.1,0.2-0.2,0.3-0.2,0.6v0.7c0,0.5,0.3,0.8,0.8,0.8c0.3,0,0.7-0.1,1.2-0.2
		c0.5-0.1,0.9-0.2,1.2-0.3l0.5-0.2v-1.9l-2.9,0.2C36.2,90.6,36,90.7,35.9,90.8z"/>
	<path class="st0" d="M106.3,172.1c0.7,0,1.6-0.2,2.5-0.6v-4.2c-0.9-0.2-1.7-0.3-2.5-0.3c-0.5,0-0.8,0.2-1,0.6
		c-0.2,0.4-0.3,1.1-0.3,2.1C104.9,171.2,105.4,172.1,106.3,172.1z"/>
	<path class="st0" d="M106,77.2c0.2,0,0.4-0.1,0.6-0.3c0.2-0.2,0.3-0.4,0.4-0.7c0.1-0.3,0.1-0.8,0.1-1.3c0-0.6,0-1.1-0.1-1.5
		c-0.1-0.4-0.2-0.6-0.4-0.8s-0.4-0.3-0.6-0.3c-0.2,0-0.5-0.1-1-0.1c-0.3,0-0.6,0-0.8,0s-0.4,0.1-0.6,0.2c-0.2,0.1-0.3,0.2-0.4,0.4
		c-0.1,0.2-0.2,0.4-0.2,0.8s-0.1,0.7-0.1,1.2c0,0.6,0,1,0.1,1.4s0.2,0.6,0.4,0.7c0.2,0.2,0.4,0.3,0.6,0.3c0.2,0,0.5,0.1,0.9,0.1
		C105.4,77.3,105.7,77.2,106,77.2z"/>
	<path class="st0" d="M102.6,92.9c0.3,0,0.7-0.1,1.2-0.2c0.5-0.1,0.9-0.2,1.2-0.3l0.5-0.2v-1.9l-2.9,0.2c-0.3,0-0.5,0.1-0.6,0.3
		c-0.1,0.2-0.2,0.3-0.2,0.6v0.7C101.9,92.6,102.1,92.9,102.6,92.9z"/>
	<path class="st0" d="M33.2,151.7c0.1,0,0.2-0.1,0.3-0.2c0.1-0.1,0.2-0.2,0.2-0.4s0.1-0.4,0.1-0.7c0-0.6-0.1-0.9-0.3-1.1
		c-0.2-0.2-0.4-0.3-0.8-0.3h-2.3v2.9h2.3C32.9,151.8,33.1,151.7,33.2,151.7z"/>
	<path class="st0" d="M92.3,168.5c0-0.7-0.1-1.1-0.3-1.2c-0.2-0.2-0.7-0.2-1.4-0.2c-0.3,0-0.5,0-0.7,0c-0.1,0-0.3,0-0.5,0.1
		c-0.2,0-0.3,0.1-0.4,0.2c-0.1,0.1-0.2,0.2-0.3,0.4c-0.1,0.2-0.1,0.4-0.2,0.6c0,0.2,0,0.5,0,0.9h2.9C92,169.1,92.3,168.9,92.3,168.5
		z"/>
	<path class="st0" d="M151.2,199.7c0-0.7-0.1-1.1-0.3-1.2c-0.2-0.2-0.7-0.2-1.4-0.2c-0.3,0-0.5,0-0.7,0c-0.1,0-0.3,0-0.5,0.1
		c-0.2,0-0.3,0.1-0.4,0.2c-0.1,0.1-0.2,0.2-0.3,0.4c-0.1,0.2-0.1,0.4-0.2,0.6c0,0.2,0,0.5,0,0.9h2.9
		C150.9,200.3,151.2,200.1,151.2,199.7z"/>
	<path class="st0" d="M161.1,185.6c-0.1,0.2-0.2,0.3-0.2,0.6v0.7c0,0.5,0.3,0.8,0.8,0.8c0.3,0,0.7-0.1,1.2-0.2
		c0.5-0.1,0.9-0.2,1.2-0.3l0.5-0.2v-1.9l-2.9,0.2C161.4,185.4,161.2,185.5,161.1,185.6z"/>
	<path class="st0" d="M104,183c-0.2-0.2-0.4-0.3-0.6-0.3c-0.2,0-0.5-0.1-1-0.1c-0.3,0-0.6,0-0.8,0c-0.2,0-0.4,0.1-0.6,0.2
		s-0.3,0.2-0.4,0.4c-0.1,0.2-0.2,0.4-0.2,0.8s-0.1,0.7-0.1,1.2c0,0.6,0,1,0.1,1.4s0.2,0.6,0.4,0.7c0.2,0.2,0.4,0.3,0.6,0.3
		c0.2,0,0.5,0.1,0.9,0.1c0.4,0,0.7,0,0.9-0.1c0.2,0,0.4-0.1,0.6-0.3c0.2-0.2,0.3-0.4,0.4-0.7c0.1-0.3,0.1-0.8,0.1-1.3
		c0-0.6,0-1.1-0.1-1.5C104.4,183.4,104.2,183.1,104,183z"/>
	<path class="st0" d="M88,199.7c0-0.7-0.1-1.1-0.3-1.2c-0.2-0.2-0.7-0.2-1.4-0.2c-0.3,0-0.5,0-0.7,0c-0.1,0-0.3,0-0.5,0.1
		c-0.2,0-0.3,0.1-0.4,0.2c-0.1,0.1-0.2,0.2-0.3,0.4c-0.1,0.2-0.1,0.4-0.2,0.6c0,0.2,0,0.5,0,0.9h2.9C87.7,200.3,88,200.1,88,199.7z"
		/>
	<path class="st0" d="M183,185.1c0-1-0.1-1.7-0.3-2.1c-0.2-0.4-0.5-0.6-1-0.6c-0.8,0-1.7,0.1-2.5,0.3v4.2c1,0.4,1.8,0.6,2.5,0.6
		C182.6,187.7,183,186.8,183,185.1z"/>
	<path class="st0" d="M190,184.1c0-0.7-0.1-1.1-0.3-1.2c-0.2-0.2-0.7-0.2-1.4-0.2c-0.3,0-0.5,0-0.7,0c-0.1,0-0.3,0-0.5,0.1
		c-0.2,0-0.3,0.1-0.4,0.2c-0.1,0.1-0.2,0.2-0.3,0.4c-0.1,0.2-0.1,0.4-0.2,0.6c0,0.2,0,0.5,0,0.9h2.9
		C189.7,184.7,190,184.5,190,184.1z"/>
	<path class="st0" d="M45.1,184.1c0-0.7-0.1-1.1-0.3-1.2c-0.2-0.2-0.7-0.2-1.4-0.2c-0.3,0-0.5,0-0.7,0c-0.1,0-0.3,0-0.5,0.1
		c-0.2,0-0.3,0.1-0.4,0.2c-0.1,0.1-0.2,0.2-0.3,0.4c-0.1,0.2-0.1,0.4-0.2,0.6c0,0.2,0,0.5,0,0.9h2.9
		C44.8,184.7,45.1,184.5,45.1,184.1z"/>
	<path class="st0" d="M135.8,203.3c0.3,0,0.7-0.1,1.2-0.2s0.9-0.2,1.2-0.3l0.5-0.2v-1.9l-2.9,0.2c-0.3,0-0.5,0.1-0.6,0.3
		c-0.1,0.2-0.2,0.3-0.2,0.6v0.6C135,203,135.3,203.3,135.8,203.3z"/>
	<path class="st0" d="M117,203.3c0.3,0,0.7-0.1,1.2-0.2s0.9-0.2,1.2-0.3l0.5-0.2v-1.9L117,201c-0.3,0-0.5,0.1-0.6,0.3
		c-0.1,0.2-0.2,0.3-0.2,0.6v0.6C116.3,203,116.5,203.3,117,203.3z"/>
	<path class="st0" d="M154.9,203.3c0.3,0,0.7-0.1,1.2-0.2s0.9-0.2,1.2-0.3l0.5-0.2v-1.9l-2.9,0.2c-0.3,0-0.5,0.1-0.6,0.3
		c-0.1,0.2-0.2,0.3-0.2,0.6v0.6C154.1,203,154.4,203.3,154.9,203.3z"/>
	<path class="st0" d="M153.2,172c0.2,0,0.4-0.1,0.6-0.3c0.2-0.2,0.3-0.4,0.4-0.7c0.1-0.3,0.1-0.8,0.1-1.3c0-0.6,0-1.1-0.1-1.5
		c-0.1-0.4-0.2-0.6-0.4-0.8s-0.4-0.3-0.6-0.3c-0.2,0-0.5-0.1-1-0.1c-0.3,0-0.6,0-0.8,0s-0.4,0.1-0.6,0.2c-0.2,0.1-0.3,0.2-0.4,0.4
		c-0.1,0.2-0.2,0.4-0.2,0.8s-0.1,0.7-0.1,1.2c0,0.6,0,1,0.1,1.4s0.2,0.6,0.4,0.7c0.2,0.2,0.4,0.3,0.6,0.3c0.2,0,0.5,0.1,0.9,0.1
		C152.6,172.1,153,172,153.2,172z"/>
	<path class="st0" d="M167.6,172.1c0.3,0,0.7-0.1,1.2-0.2s0.9-0.2,1.2-0.3l0.5-0.2v-1.9l-2.9,0.2c-0.3,0-0.5,0.1-0.6,0.3
		c-0.1,0.2-0.2,0.3-0.2,0.6v0.6C166.8,171.8,167.1,172.1,167.6,172.1z"/>
	<path class="st0" d="M81.3,168.5c0-0.7-0.1-1.1-0.3-1.2c-0.2-0.2-0.7-0.2-1.4-0.2c-0.3,0-0.5,0-0.7,0c-0.1,0-0.3,0-0.5,0.1
		c-0.2,0-0.3,0.1-0.4,0.2c-0.1,0.1-0.2,0.2-0.3,0.4c-0.1,0.2-0.1,0.4-0.2,0.6c0,0.2,0,0.5,0,0.9h2.9C81,169.1,81.3,168.9,81.3,168.5
		z"/>
	<path class="st0" d="M115.4,187.7c0.3,0,0.7-0.1,1.2-0.2c0.5-0.1,0.9-0.2,1.2-0.3l0.5-0.2v-1.9l-2.9,0.2c-0.3,0-0.5,0.1-0.6,0.3
		c-0.1,0.2-0.2,0.3-0.2,0.6v0.7C114.7,187.4,114.9,187.7,115.4,187.7z"/>
	<path class="st0" d="M30,108.5c0.3,0,0.7-0.1,1.2-0.2s0.9-0.2,1.2-0.3l0.5-0.2V106l-2.9,0.2c-0.3,0-0.5,0.1-0.6,0.3
		c-0.1,0.2-0.2,0.3-0.2,0.6v0.6C29.2,108.2,29.5,108.5,30,108.5z"/>
	<path class="st0" d="M40.5,203.3c0.3,0,0.7-0.1,1.2-0.2s0.9-0.2,1.2-0.3l0.5-0.2v-1.9l-2.9,0.2c-0.3,0-0.5,0.1-0.6,0.3
		c-0.1,0.2-0.2,0.3-0.2,0.6v0.6C39.7,203,39.9,203.3,40.5,203.3z"/>
	<path class="st0" d="M92.4,203.3c0.7,0,1.6-0.2,2.5-0.6v-4.2c-0.9-0.2-1.7-0.3-2.5-0.3c-0.5,0-0.8,0.2-1,0.6
		c-0.2,0.4-0.3,1.1-0.3,2.1C91.1,202.4,91.5,203.3,92.4,203.3z"/>
	<path class="st0" d="M115.9,168.5c0-0.7-0.1-1.1-0.3-1.2c-0.2-0.2-0.7-0.2-1.4-0.2c-0.3,0-0.5,0-0.7,0c-0.1,0-0.3,0-0.5,0.1
		c-0.2,0-0.3,0.1-0.4,0.2c-0.1,0.1-0.2,0.2-0.3,0.4c-0.1,0.2-0.1,0.4-0.2,0.6c0,0.2,0,0.5,0,0.9h2.9
		C115.6,169.1,115.9,168.9,115.9,168.5z"/>
	<path class="st0" d="M90.4,187.6c0.2,0,0.4-0.1,0.6-0.3c0.2-0.2,0.3-0.4,0.4-0.7c0.1-0.3,0.1-0.8,0.1-1.3c0-0.6,0-1.1-0.1-1.5
		c-0.1-0.4-0.2-0.6-0.4-0.8s-0.4-0.3-0.6-0.3c-0.2,0-0.5-0.1-1-0.1c-0.3,0-0.6,0-0.8,0c-0.2,0-0.4,0.1-0.6,0.2s-0.3,0.2-0.4,0.4
		c-0.1,0.2-0.2,0.4-0.2,0.8s-0.1,0.7-0.1,1.2c0,0.6,0,1,0.1,1.4s0.2,0.6,0.4,0.7c0.2,0.2,0.4,0.3,0.6,0.3c0.2,0,0.5,0.1,0.9,0.1
		C89.9,187.7,90.2,187.6,90.4,187.6z"/>
	<path class="st0" d="M63.2,184.1c0-0.7-0.1-1.1-0.3-1.2c-0.2-0.2-0.7-0.2-1.4-0.2c-0.3,0-0.5,0-0.7,0c-0.1,0-0.3,0-0.5,0.1
		c-0.2,0-0.3,0.1-0.4,0.2c-0.1,0.1-0.2,0.2-0.3,0.4c-0.1,0.2-0.1,0.4-0.2,0.6c0,0.2,0,0.5,0,0.9h2.9
		C62.9,184.7,63.2,184.5,63.2,184.1z"/>
	<path class="st0" d="M173.7,108.5c0.7,0,1.6-0.2,2.5-0.6v-4.2c-0.9-0.2-1.7-0.3-2.5-0.3c-0.5,0-0.8,0.2-1,0.6
		c-0.2,0.4-0.3,1.1-0.3,2.1C172.4,107.6,172.9,108.5,173.7,108.5z"/>
	<path class="st0" d="M93.7,72.6c-0.2-0.2-0.4-0.3-0.6-0.3c-0.2,0-0.5-0.1-1-0.1c-0.3,0-0.6,0-0.8,0s-0.4,0.1-0.6,0.2
		c-0.2,0.1-0.3,0.2-0.4,0.4c-0.1,0.2-0.2,0.4-0.2,0.8S90,74.3,90,74.8c0,0.6,0,1,0.1,1.4s0.2,0.6,0.4,0.7c0.2,0.2,0.4,0.3,0.6,0.3
		c0.2,0,0.5,0.1,0.9,0.1c0.4,0,0.7,0,0.9-0.1c0.2,0,0.4-0.1,0.6-0.3c0.2-0.2,0.3-0.4,0.4-0.7c0.1-0.3,0.1-0.8,0.1-1.3
		c0-0.6,0-1.1-0.1-1.5C94,73,93.9,72.7,93.7,72.6z"/>
	<path class="st1" d="M291.5,78.4l0.2,0.5c4-6.3,9.2-11.9,15.3-16.3l0-0.5l0.3-6.1l1.7,1.1c0-9.4,0.9-19.1,2.4-28.7
		c0.9-5.6,1.8-11.3,4.2-16.5c2.2-4.9,5.7-8.7,10-11.9h-36.3c-2.9,5.7-5.2,11.5-6.9,17.3c-5.4,19.1-3.7,39,2.2,58l3.3-4.7L291.5,78.4
		z"/>
	<path class="st1" d="M395.9,142.5c-0.5,0.8-1,1.6-1.5,2.4c0.9-0.2,1.9-0.4,2.8-0.7l-0.5-0.7L395.9,142.5z"/>
	<path class="st1" d="M512,148.8c-17.9-7.8-31-22.2-47.8-31.9c-11.2-6.5-24.9-9.6-37.4-6.2c-8.8,2.4-16.3,7.8-23.9,13.1
		c-0.8,3.7-1.8,7.3-3.2,10.7l1.3-0.1l7.8-0.9l-3.7,8.5c6.9-2.1,13.7-4.7,20.4-7.7c30.3-13.7,48,31.4,86.5,47.1V148.8z"/>
	<path class="st2" d="M315.6,11.9c-2.3,5.2-3.3,10.9-4.2,16.5c-1.5,9.6-2.4,19.3-2.4,28.7l2.8,1.8l0.3,0.2
		c6.5-3.9,13.8-6.5,21.6-7.8l-0.2-0.3l-4.5-7.3l8-0.2c-0.7-10.8,0.2-22,2-33.2c0.5-3.5,1.1-7,2.1-10.4h-15.6
		C321.3,3.2,317.7,7,315.6,11.9z"/>
	<path class="st2" d="M445.4,86.3c-13.7,3.8-24.2,15.3-36.8,21.4l0.9,7.5l-4.4-1.9l-1-0.4c-0.1,3.8-0.5,7.5-1.2,11.1
		c7.5-5.3,15.1-10.7,23.9-13.1c12.5-3.4,26.1-0.3,37.4,6.2c16.8,9.7,29.9,24.1,47.8,31.9v-34c-11-7.2-20.6-16.2-32.1-22.9
		C469.5,86,456.9,83.1,445.4,86.3z"/>
	<path class="st3" d="M337,43.6l10.2-0.3l-3.8,7.1l-0.2,0.3c7.7,0,15.1,1.5,21.9,4.1l0.6-5.8l14.8,10.6l-3.3,1.5
		c5.5,3.7,10.3,8.2,14.3,13.4l0.3-0.7l2.6-6.5l11.3,14.2l-8,1.2l-0.7,0.1c2.9,5.4,5,11.3,6.2,17.5l0.7-0.6l3.5-2.6l1.3,10.6
		c12.6-6.1,23.1-17.6,36.8-21.4c11.5-3.2,24.1-0.3,34.4,5.7c11.5,6.6,21.2,15.7,32.1,22.9V0H341.1c-1,3.4-1.5,6.9-2.1,10.4
		C337.3,21.6,336.4,32.8,337,43.6z"/>
	<polygon class="st4" points="35.4,52.3 33.7,59.3 32,52.3 29.2,52.3 28.3,62.6 30.3,62.6 30.9,55.7 32.6,62.6 34.8,62.6 36.4,55.7 
		37.1,62.6 39,62.6 38.1,52.3 	"/>
	<path class="st4" d="M39.8,55.1l1.5,5.5c0.3,1.3,1.1,1.9,2.2,1.9l-1,3.8h1.4l1-1.4l2.6-9.8h-2l-1.5,5.8c-0.1,0-0.1,0-0.2,0
		c0,0-0.1,0-0.1,0c-0.1,0-0.1,0-0.1-0.1c0,0-0.1-0.1-0.1-0.1s-0.1-0.1-0.1-0.2c0-0.1-0.1-0.1-0.1-0.2l-1.3-5.2H39.8z"/>
	<path class="st4" d="M51.1,53h-1.6l-0.3,2.1l-1.2,0.4v1.1h1.2v3.3c0,0.9,0.2,1.6,0.5,2s0.8,0.6,1.3,0.6h1.7v-1.2
		c-0.1,0-0.4-0.1-0.9-0.3c-0.1-0.1-0.3-0.1-0.3-0.2s-0.2-0.2-0.2-0.4c-0.1-0.2-0.1-0.5-0.1-0.8v-3h1.7v-1.5h-1.7V53z"/>
	<path class="st4" d="M58,55c-0.2,0-0.3,0-0.5,0c-0.1,0-0.3,0-0.4,0.1s-0.2,0.1-0.4,0.1c-0.1,0.1-0.2,0.1-0.3,0.1s-0.2,0.1-0.3,0.2
		c-0.1,0.1-0.2,0.2-0.3,0.2c0,0-0.1,0.1-0.3,0.2v-4.3h-1.9v11h2v-5.3c0.2-0.1,0.4-0.3,0.6-0.4c0.2-0.1,0.3-0.2,0.5-0.2
		c0.2-0.1,0.4-0.1,0.7-0.1s0.5,0.1,0.6,0.2c0.1,0.2,0.2,0.4,0.2,0.8v5h2v-5C60.2,55.9,59.5,55,58,55z"/>
	<path class="st4" d="M61.6,62.2c0,0.1,0,0.2,0.1,0.2c0.1,0.1,0.1,0.1,0.2,0.1h1.2c0.2,0,0.4-0.1,0.4-0.3V61c0-0.2-0.1-0.4-0.4-0.4
		H62c-0.2,0-0.3,0.1-0.3,0.4V62.2z"/>
	<path class="st4" d="M62,57.1h1.2c0.2,0,0.4-0.1,0.4-0.3v-1.3c0-0.2-0.1-0.4-0.4-0.4H62c-0.2,0-0.3,0.1-0.3,0.4v1.3
		c0,0.1,0,0.2,0.1,0.2C61.8,57,61.9,57.1,62,57.1z"/>
	<polygon class="st4" points="34.9,68.6 28.3,68.6 28.3,69.6 31.1,69.6 31.1,78.2 32.1,78.2 32.1,69.6 34.9,69.6 	"/>
	<path class="st4" d="M39.2,71.2c-0.1,0-0.2,0-0.3,0.1s-0.2,0.1-0.3,0.1s-0.2,0.1-0.3,0.1s-0.2,0.1-0.3,0.1
		c-0.1,0.1-0.2,0.1-0.3,0.1c0,0-0.1,0.1-0.3,0.2C37.1,72,37,72.1,37,72.1V68h-1v10.2h1v-5.3c0.4-0.2,0.7-0.3,0.9-0.4
		c0.2-0.1,0.4-0.1,0.7-0.2c0.3-0.1,0.6-0.1,0.9-0.1c0.4,0,0.6,0.1,0.9,0.3c0.2,0.2,0.3,0.5,0.3,0.9v4.8h1v-4.8
		c0-0.6-0.2-1.1-0.6-1.6c-0.4-0.4-0.9-0.6-1.6-0.6C39.4,71.1,39.3,71.2,39.2,71.2z"/>
	<path class="st4" d="M48.6,73.7c0-0.6-0.1-1-0.2-1.3s-0.3-0.6-0.6-0.7s-0.5-0.3-0.8-0.3s-0.6-0.1-1.1-0.1c-0.6,0-1.1,0-1.4,0.1
		c-0.3,0.1-0.6,0.2-0.9,0.5c-0.3,0.2-0.5,0.6-0.6,1.1C43,73.3,43,73.9,43,74.7c0,1.4,0.2,2.3,0.5,2.8s0.9,0.8,1.8,0.8
		c1.3,0,2.4-0.1,3.3-0.4v-0.7c-0.6,0.1-1.5,0.1-2.7,0.1c-0.1,0-0.2,0-0.3,0c-0.1,0-0.2,0-0.3,0c-0.5,0-0.9-0.1-1-0.4
		c-0.2-0.3-0.3-0.8-0.3-1.6h2.9C48,75.2,48.6,74.7,48.6,73.7z M44,73.4c0-0.2,0.1-0.4,0.2-0.6c0.1-0.2,0.2-0.3,0.3-0.4
		c0.1-0.1,0.2-0.1,0.4-0.2c0.2,0,0.4-0.1,0.5-0.1c0.1,0,0.4,0,0.7,0c0.7,0,1.2,0.1,1.4,0.2c0.2,0.2,0.3,0.6,0.3,1.2
		c0,0.4-0.3,0.6-0.8,0.6h-2.9C43.9,73.9,44,73.6,44,73.4z"/>
	<path class="st4" d="M57.7,71.1c-0.1,0-0.3,0-0.4,0c-0.1,0-0.2,0-0.3,0.1s-0.2,0.1-0.3,0.1s-0.2,0.1-0.3,0.1s-0.2,0.1-0.3,0.1
		c-0.1,0.1-0.2,0.1-0.3,0.1c0,0-0.1,0.1-0.3,0.2c-0.2,0.1-0.3,0.2-0.3,0.2l-0.3-0.8h-0.7v6.9h1v-5.3c0.4-0.2,0.7-0.3,0.9-0.4
		c0.2-0.1,0.4-0.1,0.7-0.2c0.3-0.1,0.6-0.1,0.9-0.1c0.3,0,0.6,0.1,0.8,0.3c0.2,0.2,0.3,0.5,0.3,0.9v4.8h1v-4.8
		c0-0.6-0.2-1.1-0.6-1.6C58.9,71.4,58.3,71.1,57.7,71.1z"/>
	<path class="st4" d="M61.1,74.7c0,1.4,0.2,2.3,0.5,2.8s0.9,0.8,1.8,0.8c1.3,0,2.4-0.1,3.3-0.4v-0.7c-0.6,0.1-1.5,0.1-2.7,0.1
		c-0.1,0-0.2,0-0.3,0c-0.1,0-0.2,0-0.3,0c-0.5,0-0.9-0.1-1-0.4c-0.2-0.3-0.3-0.8-0.3-1.6H65c1.2,0,1.8-0.5,1.8-1.6
		c0-0.6-0.1-1-0.2-1.3s-0.3-0.6-0.6-0.7s-0.5-0.3-0.8-0.3s-0.6-0.1-1.1-0.1c-0.6,0-1.1,0-1.4,0.1c-0.3,0.1-0.6,0.2-0.9,0.5
		c-0.3,0.2-0.5,0.6-0.6,1.1C61.2,73.3,61.1,73.9,61.1,74.7z M62.1,73.4c0-0.2,0.1-0.4,0.2-0.6c0.1-0.2,0.2-0.3,0.3-0.4
		c0.1-0.1,0.2-0.1,0.4-0.2c0.2,0,0.4-0.1,0.5-0.1c0.1,0,0.4,0,0.7,0c0.7,0,1.2,0.1,1.4,0.2c0.2,0.2,0.3,0.6,0.3,1.2
		c0,0.4-0.3,0.6-0.8,0.6h-2.9C62.1,73.9,62.1,73.6,62.1,73.4z"/>
	<polygon class="st4" points="72.4,71.3 70.6,76.7 68.6,71.3 67.5,71.3 70.1,78.2 71.2,78.2 72.3,74.8 73.8,78.2 74.8,78.2 
		77.4,71.3 76.4,71.3 74.3,76.7 72.8,73.5 73.5,71.3 	"/>
	<path class="st4" d="M83.9,71.3c-0.3,0.1-0.5,0.2-0.7,0.5c-0.2,0.2-0.4,0.6-0.5,1.1c-0.1,0.5-0.2,1.1-0.2,1.8
		c0,0.7,0.1,1.3,0.2,1.8c0.1,0.5,0.3,0.8,0.5,1.1c0.2,0.2,0.5,0.4,0.7,0.5c0.2,0.1,0.5,0.1,0.9,0.1c1.2,0,2.2-0.1,3.1-0.4v-0.7
		l-0.5,0c-0.3,0-0.8,0-1.3,0.1c-0.5,0-0.9,0-1.3,0c-0.5,0-0.8-0.2-1-0.5c-0.2-0.4-0.3-1-0.3-2c0-0.6,0-1.1,0.1-1.4s0.2-0.6,0.3-0.8
		c0.1-0.2,0.3-0.3,0.4-0.3c0.1,0,0.3-0.1,0.5-0.1c0.8,0,1.8,0,3,0.1v-0.7c-1.2-0.2-2.2-0.3-3-0.3C84.5,71.2,84.2,71.2,83.9,71.3z"/>
	<path class="st4" d="M92.1,71.2c-1.1,0-1.9,0.3-2.4,0.8c-0.4,0.5-0.7,1.5-0.7,2.9c0,1.3,0.2,2.1,0.7,2.7c0.4,0.5,1.2,0.8,2.4,0.8
		c1.2,0,2-0.2,2.4-0.7s0.7-1.4,0.7-2.7c0-1.4-0.2-2.3-0.7-2.8S93.3,71.2,92.1,71.2z M94.1,76.2c-0.1,0.3-0.2,0.6-0.4,0.7
		c-0.2,0.2-0.4,0.3-0.6,0.3c-0.2,0-0.5,0.1-0.9,0.1c-0.4,0-0.7,0-0.9-0.1c-0.2,0-0.4-0.1-0.6-0.3c-0.2-0.2-0.3-0.4-0.4-0.7
		S90,75.4,90,74.8c0-0.5,0-0.9,0.1-1.2s0.1-0.6,0.2-0.8c0.1-0.2,0.2-0.3,0.4-0.4c0.2-0.1,0.4-0.2,0.6-0.2s0.5,0,0.8,0
		c0.4,0,0.8,0,1,0.1c0.2,0,0.4,0.2,0.6,0.3s0.3,0.4,0.4,0.8c0.1,0.4,0.1,0.8,0.1,1.5C94.2,75.4,94.2,75.8,94.1,76.2z"/>
	<path class="st4" d="M101.1,71.3c-0.1-0.1-0.5-0.1-1-0.1c-0.1,0-0.3,0-0.4,0c-0.1,0-0.3,0-0.4,0.1c-0.1,0-0.3,0.1-0.4,0.1
		s-0.2,0.1-0.4,0.2s-0.3,0.1-0.3,0.2c-0.1,0-0.2,0.1-0.4,0.2c-0.2,0.1-0.3,0.2-0.3,0.2l-0.3-0.9h-0.7v6.9h1v-5.3
		c0.4-0.2,0.7-0.4,0.9-0.4s0.4-0.2,0.7-0.2c0.3-0.1,0.6-0.1,0.9-0.1c0.4,0,0.8,0,1,0.1V71.3z"/>
	<path class="st4" d="M107.4,77.5c0.4-0.5,0.7-1.4,0.7-2.7c0-1.4-0.2-2.3-0.7-2.8s-1.2-0.8-2.4-0.8c-1.1,0-1.9,0.3-2.4,0.8
		c-0.4,0.5-0.7,1.5-0.7,2.9c0,1.3,0.2,2.1,0.7,2.7c0.4,0.5,1.2,0.8,2.4,0.8C106.2,78.2,107,78,107.4,77.5z M103.5,76.9
		c-0.2-0.2-0.3-0.4-0.4-0.7s-0.1-0.8-0.1-1.4c0-0.5,0-0.9,0.1-1.2s0.1-0.6,0.2-0.8c0.1-0.2,0.2-0.3,0.4-0.4c0.2-0.1,0.4-0.2,0.6-0.2
		s0.5,0,0.8,0c0.4,0,0.8,0,1,0.1c0.2,0,0.4,0.2,0.6,0.3s0.3,0.4,0.4,0.8c0.1,0.4,0.1,0.8,0.1,1.5c0,0.6,0,1-0.1,1.3
		c-0.1,0.3-0.2,0.6-0.4,0.7c-0.2,0.2-0.4,0.3-0.6,0.3c-0.2,0-0.5,0.1-0.9,0.1c-0.4,0-0.7,0-0.9-0.1
		C103.9,77.2,103.7,77.1,103.5,76.9z"/>
	<path class="st4" d="M111.7,71.4c-0.1,0-0.2,0.1-0.3,0.1c-0.1,0.1-0.2,0.1-0.3,0.1c0,0-0.1,0.1-0.3,0.2c-0.2,0.1-0.3,0.2-0.3,0.2
		l-0.3-0.8h-0.7v6.9h1v-5.3c0.4-0.2,0.7-0.3,0.9-0.4c0.2-0.1,0.4-0.1,0.7-0.2c0.3-0.1,0.6-0.1,0.9-0.1c0.3,0,0.6,0.1,0.8,0.3
		c0.2,0.2,0.3,0.5,0.3,0.9v4.8h1v-4.8c0-0.6-0.2-1.1-0.6-1.6c-0.4-0.4-0.9-0.6-1.6-0.6c-0.1,0-0.3,0-0.4,0c-0.1,0-0.2,0-0.3,0.1
		s-0.2,0.1-0.3,0.1S111.7,71.4,111.7,71.4z"/>
	<path class="st4" d="M119.9,71.1C119.9,71.1,119.9,71.1,119.9,71.1c-1.4,0-2.5,0.1-3.4,0.4v0.7c1.4-0.1,2.5-0.2,3.3-0.2
		c0.7,0,1.1,0.4,1.1,1.1c0,0,0,0,0,0.1s0,0,0,0.1s0,0.1,0,0.1c0,0.2,0,0.4,0,0.6c-0.3,0-0.5,0-0.8,0c-0.6,0-1.3,0-2.1,0
		c-0.5,0-1,0.2-1.3,0.5c-0.3,0.3-0.5,0.7-0.5,1.3v0.8c0,0.5,0.2,1,0.5,1.3c0.3,0.3,0.7,0.5,1.2,0.5c0.2,0,0.5,0,0.7-0.1
		s0.5-0.1,0.8-0.2c0.2-0.1,0.5-0.2,0.7-0.3c0.2-0.1,0.4-0.2,0.5-0.2l0.2-0.1l0.2,0.8h0.7v-5c0-0.7-0.2-1.2-0.5-1.5
		S120.5,71.1,119.9,71.1z M120.9,76.6l-0.5,0.2c-0.3,0.1-0.7,0.2-1.2,0.3s-0.9,0.2-1.2,0.2c-0.5,0-0.8-0.3-0.8-0.8v-0.6
		c0-0.2,0.1-0.4,0.2-0.6c0.1-0.2,0.3-0.2,0.6-0.3l2.9-0.2V76.6z"/>
	<polygon class="st4" points="126,76.7 123.9,71.3 122.8,71.3 125.5,78.2 126.5,78.2 129.3,71.3 128.2,71.3 	"/>
	<rect x="130.3" y="71.3" class="st4" width="1" height="6.9"/>
	<path class="st4" d="M131.4,70.1v-0.7c0-0.2-0.1-0.3-0.3-0.3h-0.7c-0.2,0-0.3,0.1-0.3,0.3v0.7c0,0.2,0.1,0.3,0.3,0.3h0.7
		C131.3,70.4,131.4,70.3,131.4,70.1z"/>
	<path class="st4" d="M136,71.2c-0.1,0-0.3,0-0.4,0.1c-0.1,0-0.3,0.1-0.4,0.1s-0.2,0.1-0.4,0.2s-0.3,0.1-0.3,0.2
		c-0.1,0-0.2,0.1-0.4,0.2c-0.2,0.1-0.3,0.2-0.3,0.2l-0.3-0.9h-0.7v6.9h1v-5.3c0.4-0.2,0.7-0.4,0.9-0.4s0.4-0.2,0.7-0.2
		c0.3-0.1,0.6-0.1,0.9-0.1c0.4,0,0.8,0,1,0.1v-0.9c-0.1-0.1-0.5-0.1-1-0.1C136.2,71.2,136.1,71.2,136,71.2z"/>
	<path class="st4" d="M138.3,71.3v4.8c0,0.6,0.2,1.1,0.6,1.6c0.4,0.4,0.9,0.7,1.6,0.7c0.1,0,0.3,0,0.4,0c0.1,0,0.2,0,0.3-0.1
		c0.1,0,0.2-0.1,0.3-0.1c0.1-0.1,0.2-0.1,0.3-0.1c0.1,0,0.2-0.1,0.3-0.1c0.1-0.1,0.2-0.1,0.3-0.1s0.1-0.1,0.3-0.2s0.3-0.2,0.3-0.2
		l0.3,0.8h0.7v-6.9h-1v5.3c-0.4,0.2-0.7,0.3-0.9,0.4s-0.4,0.1-0.7,0.2c-0.3,0.1-0.6,0.1-0.9,0.1c-0.3,0-0.6-0.1-0.8-0.3
		c-0.2-0.2-0.3-0.5-0.3-0.9v-4.8H138.3z"/>
	<path class="st4" d="M146.2,72.6c0-0.1,0-0.1,0.1-0.2c0-0.1,0.1-0.1,0.3-0.2c0.1,0,0.3-0.1,0.5-0.1h3.4v-0.7
		c-1.4-0.1-2.6-0.2-3.4-0.2c-0.6,0-1.1,0.1-1.4,0.4s-0.4,0.7-0.4,1.3v0.6c0,0.6,0.1,1.1,0.4,1.3c0.3,0.2,0.7,0.4,1.4,0.4h2.1
		c0.3,0,0.5,0.1,0.6,0.2s0.2,0.3,0.2,0.5v0.6c0,0.1,0,0.3-0.1,0.4c-0.1,0.1-0.1,0.2-0.2,0.2c-0.1,0-0.2,0.1-0.2,0.1
		c-0.1,0-0.1,0-0.2,0c0,0,0,0-0.1,0h-3.6V78c1.6,0.2,2.8,0.2,3.6,0.2c0.5,0,0.9-0.1,1.2-0.4c0.3-0.2,0.5-0.7,0.5-1.3v-0.6
		c0-0.5-0.1-0.9-0.4-1.2c-0.3-0.3-0.7-0.5-1.3-0.5H147c-0.1,0-0.3,0-0.3,0c-0.1,0-0.2,0-0.2-0.1c-0.1,0-0.1-0.1-0.2-0.2
		c0-0.1-0.1-0.2-0.1-0.4v-0.6C146.2,72.8,146.2,72.7,146.2,72.6z"/>
	<path class="st4" d="M29.7,88.1c0.1-0.2,0.3-0.3,0.4-0.3c0.1,0,0.3-0.1,0.5-0.1c0.8,0,1.8,0,3,0.1v-0.7c-1.2-0.2-2.2-0.3-3-0.3
		c-0.4,0-0.7,0-0.9,0.1c-0.3,0.1-0.5,0.2-0.7,0.5s-0.4,0.6-0.5,1.1c-0.1,0.5-0.2,1.1-0.2,1.8c0,0.7,0.1,1.3,0.2,1.8
		c0.1,0.5,0.3,0.8,0.5,1.1s0.5,0.4,0.7,0.5c0.2,0.1,0.5,0.1,0.9,0.1c1.2,0,2.2-0.1,3.1-0.4v-0.7l-0.5,0c-0.3,0-0.8,0-1.3,0.1
		s-0.9,0-1.3,0c-0.5,0-0.8-0.2-1-0.5c-0.2-0.4-0.3-1-0.3-2c0-0.6,0-1.1,0.1-1.4C29.5,88.6,29.6,88.3,29.7,88.1z"/>
	<path class="st4" d="M39.4,88.9C39.4,88.9,39.4,88.9,39.4,88.9c0,0.3,0,0.5,0,0.7c-0.3,0-0.5,0-0.8,0c-0.6,0-1.3,0-2.1,0
		c-0.5,0-1,0.2-1.3,0.5c-0.3,0.3-0.5,0.7-0.5,1.3v0.8c0,0.5,0.2,1,0.5,1.3c0.3,0.3,0.7,0.5,1.2,0.5c0.2,0,0.5,0,0.7-0.1
		s0.5-0.1,0.8-0.2c0.2-0.1,0.5-0.2,0.7-0.3s0.4-0.2,0.5-0.2l0.2-0.1l0.2,0.8h0.7v-5c0-0.7-0.2-1.2-0.5-1.5c-0.4-0.3-0.8-0.5-1.4-0.5
		c0,0,0,0,0,0c-1.4,0-2.5,0.1-3.4,0.4v0.7c1.4-0.1,2.5-0.2,3.3-0.2c0.7,0,1.1,0.4,1.1,1.1C39.4,88.8,39.4,88.8,39.4,88.9
		C39.4,88.8,39.4,88.8,39.4,88.9z M39.4,92.2l-0.5,0.2c-0.3,0.1-0.7,0.2-1.2,0.3c-0.5,0.1-0.9,0.2-1.2,0.2c-0.5,0-0.8-0.3-0.8-0.8
		v-0.7c0-0.2,0.1-0.4,0.2-0.6c0.1-0.2,0.3-0.2,0.6-0.3l2.9-0.2V92.2z"/>
	<path class="st4" d="M42.5,86.9h-0.7v6.9h1v-5.3c0.4-0.2,0.7-0.3,0.9-0.4c0.2-0.1,0.4-0.1,0.7-0.2c0.3-0.1,0.6-0.1,0.9-0.1
		c0.3,0,0.6,0.1,0.8,0.3c0.2,0.2,0.3,0.5,0.3,0.9v4.8h1V89c0-0.6-0.2-1.1-0.6-1.6c-0.4-0.4-0.9-0.7-1.6-0.7c-0.1,0-0.3,0-0.4,0
		c-0.1,0-0.2,0-0.3,0.1s-0.2,0.1-0.3,0.1C44.1,87,44,87,43.9,87s-0.2,0.1-0.3,0.1c-0.1,0.1-0.2,0.1-0.3,0.1c0,0-0.1,0.1-0.3,0.2
		c-0.2,0.1-0.3,0.2-0.3,0.2L42.5,86.9z"/>
	<path class="st4" d="M52.4,86.7c-0.1,0-0.3,0-0.4,0c-0.1,0-0.2,0-0.3,0.1s-0.2,0.1-0.3,0.1C51.2,87,51.1,87,51,87s-0.2,0.1-0.3,0.1
		c-0.1,0.1-0.2,0.1-0.3,0.1c0,0-0.1,0.1-0.3,0.2c-0.2,0.1-0.3,0.2-0.3,0.2l-0.3-0.8h-0.7v6.9h1v-5.3c0.4-0.2,0.7-0.3,0.9-0.4
		c0.2-0.1,0.4-0.1,0.7-0.2c0.3-0.1,0.6-0.1,0.9-0.1c0.3,0,0.6,0.1,0.8,0.3c0.2,0.2,0.3,0.5,0.3,0.9v4.8h1V89c0-0.6-0.2-1.1-0.6-1.6
		C53.5,87,53,86.7,52.4,86.7z"/>
	<path class="st4" d="M56.5,87.6c-0.4,0.5-0.7,1.5-0.7,2.9c0,1.3,0.2,2.1,0.7,2.7c0.4,0.5,1.2,0.8,2.4,0.8c1.2,0,2-0.2,2.4-0.7
		c0.4-0.5,0.7-1.4,0.7-2.7c0-1.4-0.2-2.3-0.7-2.8s-1.2-0.8-2.4-0.8C57.7,86.8,56.9,87,56.5,87.6z M60.4,88.2
		c0.2,0.2,0.3,0.4,0.4,0.8c0.1,0.4,0.1,0.8,0.1,1.5c0,0.6,0,1-0.1,1.3c-0.1,0.3-0.2,0.6-0.4,0.7c-0.2,0.2-0.4,0.3-0.6,0.3
		c-0.2,0-0.5,0.1-0.9,0.1c-0.4,0-0.7,0-0.9-0.1c-0.2,0-0.4-0.1-0.6-0.3c-0.2-0.2-0.3-0.4-0.4-0.7s-0.1-0.8-0.1-1.4
		c0-0.5,0-0.9,0.1-1.2s0.1-0.6,0.2-0.8c0.1-0.2,0.2-0.3,0.4-0.4s0.4-0.2,0.6-0.2c0.2,0,0.5,0,0.8,0c0.4,0,0.8,0,1,0.1
		C60,87.9,60.2,88,60.4,88.2z"/>
	<path class="st4" d="M64.1,91.3c0,1.6,0.6,2.5,1.7,2.5h1.1v-0.7c-0.1,0-0.4-0.1-1.2-0.3c-0.3-0.1-0.4-0.2-0.6-0.4
		c-0.1-0.2-0.2-0.6-0.2-1.1v-3.5h2v-1h-2v-1.9h-0.7l-0.2,1.9l-1.3,0.2v0.7h1.3V91.3z"/>
	<path class="st4" d="M77.8,92.7c0.2-0.4,0.3-0.7,0.3-1.1c0.1-0.4,0.1-0.8,0.1-1.2c0-0.5,0-0.9-0.1-1.3c-0.1-0.4-0.2-0.8-0.3-1.1
		s-0.4-0.7-0.7-0.9s-0.7-0.3-1.2-0.3c-0.3,0-0.7,0-1.2,0.1c-0.5,0.1-0.9,0.2-1.3,0.4v-3.7h-0.9v10.2h0.7l0.3-0.8
		c0.2,0.2,0.6,0.3,1.1,0.5c0.5,0.2,1,0.3,1.4,0.3c0.5,0,0.8-0.1,1.1-0.3C77.4,93.3,77.6,93,77.8,92.7z M75.9,92.9
		c-0.7,0-1.6-0.2-2.5-0.6v-4.2c0.9-0.2,1.7-0.3,2.5-0.3c0.5,0,0.8,0.2,1,0.6c0.2,0.4,0.3,1.1,0.3,2.1C77.3,92,76.8,92.9,75.9,92.9z"
		/>
	<path class="st4" d="M85,92.7c-0.6,0.1-1.5,0.1-2.7,0.1c-0.1,0-0.2,0-0.3,0c-0.1,0-0.2,0-0.3,0c-0.5,0-0.9-0.1-1-0.4
		c-0.2-0.3-0.3-0.8-0.3-1.6h2.9c1.2,0,1.8-0.5,1.8-1.6c0-0.6-0.1-1-0.2-1.3s-0.3-0.6-0.6-0.7c-0.3-0.2-0.5-0.3-0.8-0.3
		c-0.3,0-0.6-0.1-1.1-0.1c-0.6,0-1.1,0-1.4,0.1c-0.3,0.1-0.6,0.2-0.9,0.5c-0.3,0.2-0.5,0.6-0.6,1.1c-0.1,0.5-0.2,1.1-0.2,1.8
		c0,1.4,0.2,2.3,0.5,2.8c0.3,0.5,0.9,0.8,1.8,0.8c1.3,0,2.4-0.1,3.3-0.4V92.7z M80.5,89c0-0.2,0.1-0.4,0.2-0.6
		c0.1-0.2,0.2-0.3,0.3-0.4c0.1-0.1,0.2-0.1,0.4-0.2c0.2,0,0.4-0.1,0.5-0.1c0.1,0,0.4,0,0.7,0c0.7,0,1.2,0.1,1.4,0.2
		c0.2,0.2,0.3,0.6,0.3,1.2c0,0.4-0.3,0.6-0.8,0.6h-2.9C80.5,89.5,80.5,89.2,80.5,89z"/>
	<path class="st4" d="M94.4,87.8v-1h-2v-1.9h-0.7l-0.2,1.9l-1.3,0.2v0.7h1.3v3.5c0,1.6,0.6,2.5,1.7,2.5h1.1v-0.7
		c-0.1,0-0.4-0.1-1.2-0.3c-0.3-0.1-0.4-0.2-0.6-0.4c-0.1-0.2-0.2-0.6-0.2-1.1v-3.5H94.4z"/>
	<path class="st4" d="M95.6,93.8h1v-5.3c0.4-0.2,0.7-0.4,0.9-0.4c0.2-0.1,0.4-0.2,0.7-0.2c0.3-0.1,0.6-0.1,0.9-0.1
		c0.4,0,0.8,0,1,0.1v-0.9c-0.1-0.1-0.5-0.1-1-0.1c-0.1,0-0.3,0-0.4,0s-0.3,0-0.4,0.1c-0.1,0-0.3,0.1-0.4,0.1s-0.2,0.1-0.4,0.2
		c-0.2,0.1-0.3,0.1-0.3,0.2c-0.1,0-0.2,0.1-0.4,0.2c-0.2,0.1-0.3,0.2-0.3,0.2l-0.3-0.9h-0.7V93.8z"/>
	<path class="st4" d="M102.6,93.8c0.2,0,0.5,0,0.7-0.1s0.5-0.1,0.8-0.2c0.2-0.1,0.5-0.2,0.7-0.3s0.4-0.2,0.5-0.2l0.2-0.1l0.2,0.8
		h0.7v-5c0-0.7-0.2-1.2-0.5-1.5c-0.4-0.3-0.8-0.5-1.4-0.5c0,0,0,0,0,0c-1.4,0-2.5,0.1-3.4,0.4v0.7c1.4-0.1,2.5-0.2,3.3-0.2
		c0.7,0,1.1,0.4,1.1,1.1c0,0,0,0,0,0.1s0,0,0,0.1c0,0,0,0.1,0,0.1c0,0.2,0,0.4,0,0.6c-0.3,0-0.5,0-0.8,0c-0.6,0-1.3,0-2.1,0
		c-0.5,0-1,0.2-1.3,0.5c-0.3,0.3-0.5,0.7-0.5,1.3v0.8c0,0.5,0.2,1,0.5,1.3C101.7,93.7,102.1,93.8,102.6,93.8z M101.9,91.4
		c0-0.2,0.1-0.4,0.2-0.6c0.1-0.2,0.3-0.2,0.6-0.3l2.9-0.2v1.9l-0.5,0.2c-0.3,0.1-0.7,0.2-1.2,0.3c-0.5,0.1-0.9,0.2-1.2,0.2
		c-0.5,0-0.8-0.3-0.8-0.8V91.4z"/>
	<path class="st4" d="M113.5,93.8V89c0-0.6-0.2-1.1-0.6-1.6c-0.4-0.4-0.9-0.7-1.6-0.7c-0.1,0-0.3,0-0.4,0c-0.1,0-0.2,0-0.3,0.1
		s-0.2,0.1-0.3,0.1c-0.1,0.1-0.2,0.1-0.3,0.1s-0.2,0.1-0.3,0.1c-0.1,0.1-0.2,0.1-0.3,0.1c0,0-0.1,0.1-0.3,0.2
		c-0.2,0.1-0.3,0.2-0.3,0.2l-0.3-0.8h-0.7v6.9h1v-5.3c0.4-0.2,0.7-0.3,0.9-0.4c0.2-0.1,0.4-0.1,0.7-0.2c0.3-0.1,0.6-0.1,0.9-0.1
		c0.3,0,0.6,0.1,0.8,0.3c0.2,0.2,0.3,0.5,0.3,0.9v4.8H113.5z"/>
	<path class="st4" d="M119.2,92.5c-0.1,0.1-0.1,0.2-0.2,0.2c-0.1,0-0.2,0.1-0.2,0.1c-0.1,0-0.1,0-0.2,0c0,0,0,0-0.1,0H115v0.7
		c1.6,0.2,2.8,0.2,3.6,0.2c0.5,0,0.9-0.1,1.2-0.4c0.3-0.2,0.5-0.7,0.5-1.3v-0.6c0-0.5-0.1-0.9-0.4-1.2c-0.3-0.3-0.7-0.5-1.3-0.5
		h-2.1c-0.1,0-0.3,0-0.3,0c-0.1,0-0.2,0-0.2-0.1c-0.1,0-0.1-0.1-0.2-0.2c0-0.1-0.1-0.2-0.1-0.4v-0.6c0-0.1,0-0.2,0-0.3
		s0-0.1,0.1-0.2c0-0.1,0.1-0.1,0.3-0.2c0.1,0,0.3-0.1,0.5-0.1h3.4V87c-1.4-0.1-2.6-0.2-3.4-0.2c-0.6,0-1.1,0.1-1.4,0.4
		c-0.3,0.3-0.4,0.7-0.4,1.3v0.6c0,0.7,0.1,1.1,0.4,1.3c0.3,0.2,0.7,0.4,1.4,0.4h2.1c0.3,0,0.5,0.1,0.6,0.2c0.1,0.1,0.2,0.3,0.2,0.5
		v0.6C119.3,92.3,119.3,92.4,119.2,92.5z"/>
	<path class="st4" d="M131.8,93.8V89c0-0.7-0.2-1.2-0.6-1.6s-0.9-0.6-1.5-0.6c-1,0-2,0.3-2.8,1c-0.1-0.3-0.4-0.6-0.7-0.7
		c-0.3-0.2-0.7-0.3-1.2-0.3c-0.1,0-0.3,0-0.4,0c-0.1,0-0.3,0-0.4,0.1c-0.1,0-0.2,0.1-0.3,0.1s-0.2,0.1-0.4,0.1
		c-0.1,0.1-0.2,0.1-0.3,0.2c-0.1,0-0.2,0.1-0.3,0.2s-0.3,0.2-0.3,0.2l-0.3-0.8h-0.7v6.9h1v-5.3c0.4-0.2,0.7-0.4,0.9-0.4
		c0.2-0.1,0.4-0.1,0.7-0.2c0.3-0.1,0.6-0.1,0.9-0.1c0.3,0,0.6,0.1,0.9,0.3c0.2,0.2,0.3,0.5,0.3,0.9v4.8h1V89v-0.5
		c0.4-0.3,0.8-0.5,1.2-0.6c0.4-0.1,0.8-0.2,1.3-0.2c0.3,0,0.6,0.1,0.8,0.3s0.3,0.5,0.3,0.9v4.8H131.8z"/>
	<rect x="133.2" y="86.9" class="st4" width="1" height="6.9"/>
	<path class="st4" d="M134.3,85.7V85c0-0.2-0.1-0.3-0.3-0.3h-0.7c-0.2,0-0.3,0.1-0.3,0.3v0.7c0,0.2,0.1,0.3,0.3,0.3h0.7
		C134.2,86,134.3,85.9,134.3,85.7z"/>
	<path class="st4" d="M136.8,84.9l-0.2,1.9l-1.3,0.2v0.7h1.3v3.5c0,1.6,0.6,2.5,1.7,2.5h1.1v-0.7c-0.1,0-0.4-0.1-1.2-0.3
		c-0.3-0.1-0.4-0.2-0.6-0.4c-0.1-0.2-0.2-0.6-0.2-1.1v-3.5h2v-1h-2v-1.9H136.8z"/>
	<path class="st4" d="M142.4,84.9h-0.7l-0.2,1.9l-1.3,0.2v0.7h1.3v3.5c0,1.6,0.6,2.5,1.7,2.5h1.1v-0.7c-0.1,0-0.4-0.1-1.2-0.3
		c-0.3-0.1-0.4-0.2-0.6-0.4c-0.1-0.2-0.2-0.6-0.2-1.1v-3.5h2v-1h-2V84.9z"/>
	<path class="st4" d="M150.4,87.2c-0.3-0.2-0.5-0.3-0.8-0.3c-0.3,0-0.6-0.1-1.1-0.1c-0.6,0-1.1,0-1.4,0.1c-0.3,0.1-0.6,0.2-0.9,0.5
		c-0.3,0.2-0.5,0.6-0.6,1.1c-0.1,0.5-0.2,1.1-0.2,1.8c0,1.4,0.2,2.3,0.5,2.8c0.3,0.5,0.9,0.8,1.8,0.8c1.3,0,2.4-0.1,3.3-0.4v-0.7
		c-0.6,0.1-1.5,0.1-2.7,0.1c-0.1,0-0.2,0-0.3,0c-0.1,0-0.2,0-0.3,0c-0.5,0-0.9-0.1-1-0.4c-0.2-0.3-0.3-0.8-0.3-1.6h2.9
		c1.2,0,1.8-0.5,1.8-1.6c0-0.6-0.1-1-0.2-1.3S150.7,87.3,150.4,87.2z M149.4,89.9h-2.9c0-0.3,0-0.6,0-0.9c0-0.2,0.1-0.4,0.2-0.6
		c0.1-0.2,0.2-0.3,0.3-0.4c0.1-0.1,0.2-0.1,0.4-0.2c0.2,0,0.4-0.1,0.5-0.1c0.1,0,0.4,0,0.7,0c0.7,0,1.2,0.1,1.4,0.2
		c0.2,0.2,0.3,0.6,0.3,1.2C150.2,89.7,149.9,89.9,149.4,89.9z"/>
	<path class="st4" d="M153.4,93.5c0.3,0.2,0.7,0.3,1.1,0.3c0.4,0,0.9-0.1,1.4-0.3c0.5-0.2,0.9-0.4,1.1-0.5l0.3,0.8h0.7V83.6h-0.9
		v3.7c-0.4-0.2-0.8-0.3-1.3-0.4c-0.5-0.1-0.9-0.1-1.2-0.1c-0.5,0-0.9,0.1-1.2,0.3s-0.5,0.5-0.7,0.9c-0.2,0.4-0.3,0.7-0.3,1.1
		c-0.1,0.4-0.1,0.8-0.1,1.3c0,0.4,0,0.9,0.1,1.2c0.1,0.4,0.2,0.7,0.3,1.1C152.9,93,153.1,93.3,153.4,93.5z M153.6,88.3
		c0.2-0.4,0.5-0.6,1-0.6c0.8,0,1.7,0.1,2.5,0.3v4.2c-1,0.4-1.8,0.6-2.5,0.6c-0.9,0-1.3-0.8-1.3-2.5
		C153.3,89.3,153.4,88.7,153.6,88.3z"/>
	<rect x="168.1" y="86.9" class="st4" width="1" height="6.9"/>
	<path class="st4" d="M168.9,84.7h-0.7c-0.2,0-0.3,0.1-0.3,0.3v0.7c0,0.2,0.1,0.3,0.3,0.3h0.7c0.2,0,0.3-0.1,0.3-0.3V85
		C169.2,84.8,169.1,84.7,168.9,84.7z"/>
	<path class="st4" d="M176.3,93.8V89c0-0.6-0.2-1.1-0.6-1.6c-0.4-0.4-0.9-0.7-1.6-0.7c-0.1,0-0.3,0-0.4,0c-0.1,0-0.2,0-0.3,0.1
		s-0.2,0.1-0.3,0.1c-0.1,0.1-0.2,0.1-0.3,0.1s-0.2,0.1-0.3,0.1c-0.1,0.1-0.2,0.1-0.3,0.1c0,0-0.1,0.1-0.3,0.2
		c-0.2,0.1-0.3,0.2-0.3,0.2l-0.3-0.8h-0.7v6.9h1v-5.3c0.4-0.2,0.7-0.3,0.9-0.4c0.2-0.1,0.4-0.1,0.7-0.2c0.3-0.1,0.6-0.1,0.9-0.1
		c0.3,0,0.6,0.1,0.8,0.3c0.2,0.2,0.3,0.5,0.3,0.9v4.8H176.3z"/>
	<path class="st4" d="M28.3,107.7c0,0.5,0.2,1,0.5,1.3c0.3,0.3,0.7,0.5,1.2,0.5c0.2,0,0.5,0,0.7-0.1s0.5-0.1,0.8-0.2
		c0.2-0.1,0.5-0.2,0.7-0.3c0.2-0.1,0.4-0.2,0.5-0.2l0.2-0.1l0.2,0.8h0.7v-5c0-0.7-0.2-1.2-0.5-1.5s-0.8-0.5-1.4-0.5c0,0,0,0,0,0
		c-1.4,0-2.5,0.1-3.4,0.4v0.7c1.4-0.1,2.5-0.2,3.3-0.2c0.7,0,1.1,0.4,1.1,1.1c0,0,0,0,0,0.1s0,0,0,0.1s0,0.1,0,0.1
		c0,0.2,0,0.4,0,0.6c-0.3,0-0.5,0-0.8,0c-0.6,0-1.3,0-2.1,0c-0.5,0-1,0.2-1.3,0.5c-0.3,0.3-0.5,0.7-0.5,1.3V107.7z M29.2,107
		c0-0.2,0.1-0.4,0.2-0.6c0.1-0.2,0.3-0.2,0.6-0.3l2.9-0.2v1.9l-0.5,0.2c-0.3,0.1-0.7,0.2-1.2,0.3s-0.9,0.2-1.2,0.2
		c-0.5,0-0.8-0.3-0.8-0.8V107z"/>
	<path class="st4" d="M39.8,103.4v-0.9c-0.1-0.1-0.5-0.1-1-0.1c-0.1,0-0.3,0-0.4,0c-0.1,0-0.3,0-0.4,0.1c-0.1,0-0.3,0.1-0.4,0.1
		s-0.2,0.1-0.4,0.2s-0.3,0.1-0.3,0.2c-0.1,0-0.2,0.1-0.4,0.2c-0.2,0.1-0.3,0.2-0.3,0.2l-0.3-0.9h-0.7v6.9h1v-5.3
		c0.4-0.2,0.7-0.4,0.9-0.4s0.4-0.2,0.7-0.2c0.3-0.1,0.6-0.1,0.9-0.1C39.2,103.4,39.6,103.4,39.8,103.4z"/>
	<path class="st4" d="M40.8,104c-0.1,0.5-0.2,1.1-0.2,1.8c0,1.4,0.2,2.3,0.5,2.8s0.9,0.8,1.8,0.8c1.3,0,2.4-0.1,3.3-0.4v-0.7
		c-0.6,0.1-1.5,0.1-2.7,0.1c-0.1,0-0.2,0-0.3,0c-0.1,0-0.2,0-0.3,0c-0.5,0-0.9-0.1-1-0.4c-0.2-0.3-0.3-0.8-0.3-1.6h2.9
		c1.2,0,1.8-0.5,1.8-1.6c0-0.6-0.1-1-0.2-1.3s-0.3-0.6-0.6-0.7s-0.5-0.3-0.8-0.3s-0.6-0.1-1.1-0.1c-0.6,0-1.1,0-1.4,0.1
		c-0.3,0.1-0.6,0.2-0.9,0.5C41.1,103.2,40.9,103.6,40.8,104z M41.7,104.6c0-0.2,0.1-0.4,0.2-0.6c0.1-0.2,0.2-0.3,0.3-0.4
		c0.1-0.1,0.2-0.1,0.4-0.2c0.2,0,0.4-0.1,0.5-0.1c0.1,0,0.4,0,0.7,0c0.7,0,1.2,0.1,1.4,0.2c0.2,0.2,0.3,0.6,0.3,1.2
		c0,0.4-0.3,0.6-0.8,0.6h-2.9C41.6,105.1,41.7,104.8,41.7,104.6z"/>
	<path class="st4" d="M47.6,103.4c1.4-0.1,2.5-0.2,3.3-0.2c0.7,0,1.1,0.4,1.1,1.1c0,0,0,0,0,0.1s0,0,0,0.1s0,0.1,0,0.1
		c0,0.2,0,0.4,0,0.6c-0.3,0-0.5,0-0.8,0c-0.6,0-1.3,0-2.1,0c-0.5,0-1,0.2-1.3,0.5c-0.3,0.3-0.5,0.7-0.5,1.3v0.8c0,0.5,0.2,1,0.5,1.3
		c0.3,0.3,0.7,0.5,1.2,0.5c0.2,0,0.5,0,0.7-0.1s0.5-0.1,0.8-0.2c0.2-0.1,0.5-0.2,0.7-0.3c0.2-0.1,0.4-0.2,0.5-0.2l0.2-0.1l0.2,0.8
		H53v-5c0-0.7-0.2-1.2-0.5-1.5s-0.8-0.5-1.4-0.5c0,0,0,0,0,0c-1.4,0-2.5,0.1-3.4,0.4V103.4z M52,107.8l-0.5,0.2
		c-0.3,0.1-0.7,0.2-1.2,0.3s-0.9,0.2-1.2,0.2c-0.5,0-0.8-0.3-0.8-0.8V107c0-0.2,0.1-0.4,0.2-0.6c0.1-0.2,0.3-0.2,0.6-0.3L52,106
		V107.8z"/>
	<path class="st4" d="M59.7,107.8v-0.6c0-0.5-0.1-0.9-0.4-1.2c-0.3-0.3-0.7-0.5-1.3-0.5h-2.1c-0.1,0-0.3,0-0.3,0
		c-0.1,0-0.2,0-0.2-0.1c-0.1,0-0.1-0.1-0.2-0.2c0-0.1-0.1-0.2-0.1-0.4v-0.6c0-0.1,0-0.2,0-0.3s0-0.1,0.1-0.2c0-0.1,0.1-0.1,0.3-0.2
		c0.1,0,0.3-0.1,0.5-0.1h3.4v-0.7c-1.4-0.1-2.6-0.2-3.4-0.2c-0.6,0-1.1,0.1-1.4,0.4s-0.4,0.7-0.4,1.3v0.6c0,0.6,0.1,1.1,0.4,1.3
		c0.3,0.2,0.7,0.4,1.4,0.4H58c0.3,0,0.5,0.1,0.6,0.2s0.2,0.3,0.2,0.5v0.6c0,0.1,0,0.3-0.1,0.4c-0.1,0.1-0.1,0.2-0.2,0.2
		c-0.1,0-0.2,0.1-0.2,0.1c-0.1,0-0.1,0-0.2,0c0,0,0,0-0.1,0h-3.6v0.7c1.6,0.2,2.8,0.2,3.6,0.2c0.5,0,0.9-0.1,1.2-0.4
		C59.5,108.8,59.7,108.4,59.7,107.8z"/>
	<polygon class="st4" points="69.6,102.5 67.8,107.9 65.7,102.5 64.7,102.5 67.3,109.4 68.3,109.4 69.4,106 71,109.4 71.9,109.4 
		74.6,102.5 73.5,102.5 71.4,107.9 69.9,104.7 70.6,102.5 	"/>
	<rect x="75.6" y="102.5" class="st4" width="1" height="6.9"/>
	<path class="st4" d="M76.7,101.3v-0.7c0-0.2-0.1-0.3-0.3-0.3h-0.7c-0.2,0-0.3,0.1-0.3,0.3v0.7c0,0.2,0.1,0.3,0.3,0.3h0.7
		C76.6,101.6,76.7,101.5,76.7,101.3z"/>
	<path class="st4" d="M81.9,103.4v-1h-2v-1.9h-0.7l-0.2,1.9l-1.3,0.2v0.7h1.3v3.5c0,1.6,0.6,2.5,1.7,2.5h1.1v-0.7
		c-0.1,0-0.4-0.1-1.2-0.3c-0.3-0.1-0.4-0.2-0.6-0.4c-0.1-0.2-0.2-0.6-0.2-1.1v-3.5H81.9z"/>
	<path class="st4" d="M84,104c0.4-0.2,0.7-0.3,0.9-0.4c0.2-0.1,0.4-0.1,0.7-0.2c0.3-0.1,0.6-0.1,0.9-0.1c0.4,0,0.6,0.1,0.9,0.3
		c0.2,0.2,0.3,0.5,0.3,0.9v4.8h1v-4.8c0-0.6-0.2-1.1-0.6-1.6c-0.4-0.4-0.9-0.6-1.6-0.6c-0.1,0-0.3,0-0.4,0c-0.1,0-0.2,0-0.3,0.1
		s-0.2,0.1-0.3,0.1s-0.2,0.1-0.3,0.1s-0.2,0.1-0.3,0.1c-0.1,0.1-0.2,0.1-0.3,0.1c0,0-0.1,0.1-0.3,0.2c-0.2,0.1-0.3,0.2-0.3,0.2v-4.1
		h-1v10.2h1V104z"/>
	<path class="st4" d="M94.4,99.2v10.2h1V104c0.4-0.2,0.7-0.3,0.9-0.4c0.2-0.1,0.4-0.1,0.7-0.2c0.3-0.1,0.6-0.1,0.9-0.1
		c0.4,0,0.6,0.1,0.9,0.3c0.2,0.2,0.3,0.5,0.3,0.9v4.8h1v-4.8c0-0.6-0.2-1.1-0.6-1.6c-0.4-0.4-0.9-0.6-1.6-0.6c-0.1,0-0.3,0-0.4,0
		c-0.1,0-0.2,0-0.3,0.1s-0.2,0.1-0.3,0.1s-0.2,0.1-0.3,0.1s-0.2,0.1-0.3,0.1c-0.1,0.1-0.2,0.1-0.3,0.1c0,0-0.1,0.1-0.3,0.2
		c-0.2,0.1-0.3,0.2-0.3,0.2v-4.1H94.4z"/>
	<path class="st4" d="M106.8,108.7c0.4-0.5,0.7-1.4,0.7-2.7c0-1.4-0.2-2.3-0.7-2.8s-1.2-0.8-2.4-0.8c-1.1,0-1.9,0.3-2.4,0.8
		c-0.4,0.5-0.7,1.5-0.7,2.9c0,1.3,0.2,2.1,0.7,2.7c0.4,0.5,1.2,0.8,2.4,0.8C105.5,109.4,106.3,109.2,106.8,108.7z M102.8,108.1
		c-0.2-0.2-0.3-0.4-0.4-0.7s-0.1-0.8-0.1-1.4c0-0.5,0-0.9,0.1-1.2s0.1-0.6,0.2-0.8c0.1-0.2,0.2-0.3,0.4-0.4c0.2-0.1,0.4-0.2,0.6-0.2
		s0.5,0,0.8,0c0.4,0,0.8,0,1,0.1c0.2,0,0.4,0.2,0.6,0.3s0.3,0.4,0.4,0.8c0.1,0.4,0.1,0.8,0.1,1.5c0,0.6,0,1-0.1,1.3
		c-0.1,0.3-0.2,0.6-0.4,0.7c-0.2,0.2-0.4,0.3-0.6,0.3c-0.2,0-0.5,0.1-0.9,0.1c-0.4,0-0.7,0-0.9-0.1
		C103.2,108.4,103,108.3,102.8,108.1z"/>
	<path class="st4" d="M112.6,103.4v-1h-2v-1.9h-0.7l-0.2,1.9l-1.3,0.2v0.7h1.3v3.5c0,1.6,0.6,2.5,1.7,2.5h1.1v-0.7
		c-0.1,0-0.4-0.1-1.2-0.3c-0.3-0.1-0.4-0.2-0.6-0.4c-0.1-0.2-0.2-0.6-0.2-1.1v-3.5H112.6z"/>
	<path class="st4" d="M119.4,109.4c0.2,0,0.5,0,0.7-0.1s0.5-0.1,0.8-0.2c0.2-0.1,0.5-0.2,0.7-0.3c0.2-0.1,0.4-0.2,0.5-0.2l0.2-0.1
		l0.2,0.8h0.7v-5c0-0.7-0.2-1.2-0.5-1.5s-0.8-0.5-1.4-0.5c0,0,0,0,0,0c-1.4,0-2.5,0.1-3.4,0.4v0.7c1.4-0.1,2.5-0.2,3.3-0.2
		c0.7,0,1.1,0.4,1.1,1.1c0,0,0,0,0,0.1s0,0,0,0.1s0,0.1,0,0.1c0,0.2,0,0.4,0,0.6c-0.3,0-0.5,0-0.8,0c-0.6,0-1.3,0-2.1,0
		c-0.5,0-1,0.2-1.3,0.5c-0.3,0.3-0.5,0.7-0.5,1.3v0.8c0,0.5,0.2,1,0.5,1.3C118.5,109.3,118.9,109.4,119.4,109.4z M118.7,107
		c0-0.2,0.1-0.4,0.2-0.6c0.1-0.2,0.3-0.2,0.6-0.3l2.9-0.2v1.9l-0.5,0.2c-0.3,0.1-0.7,0.2-1.2,0.3s-0.9,0.2-1.2,0.2
		c-0.5,0-0.8-0.3-0.8-0.8V107z"/>
	<path class="st4" d="M130.4,109.4v-4.8c0-0.6-0.2-1.1-0.6-1.6c-0.4-0.4-0.9-0.6-1.6-0.6c-0.1,0-0.3,0-0.4,0c-0.1,0-0.2,0-0.3,0.1
		s-0.2,0.1-0.3,0.1s-0.2,0.1-0.3,0.1s-0.2,0.1-0.3,0.1c-0.1,0.1-0.2,0.1-0.3,0.1c0,0-0.1,0.1-0.3,0.2c-0.2,0.1-0.3,0.2-0.3,0.2
		l-0.3-0.8h-0.7v6.9h1V104c0.4-0.2,0.7-0.3,0.9-0.4c0.2-0.1,0.4-0.1,0.7-0.2c0.3-0.1,0.6-0.1,0.9-0.1c0.3,0,0.6,0.1,0.8,0.3
		c0.2,0.2,0.3,0.5,0.3,0.9v4.8H130.4z"/>
	<path class="st4" d="M137.4,99.2h-0.9v3.7c-0.4-0.2-0.8-0.3-1.3-0.4c-0.5-0.1-0.9-0.1-1.2-0.1c-0.5,0-0.9,0.1-1.2,0.3
		c-0.3,0.2-0.5,0.5-0.7,0.9c-0.2,0.4-0.3,0.7-0.3,1.1s-0.1,0.8-0.1,1.3c0,0.4,0,0.9,0.1,1.2c0.1,0.4,0.2,0.7,0.3,1.1
		s0.4,0.6,0.7,0.9c0.3,0.2,0.7,0.3,1.1,0.3c0.4,0,0.9-0.1,1.4-0.3c0.5-0.2,0.9-0.4,1.1-0.5l0.3,0.8h0.7V99.2z M136.5,107.9
		c-1,0.4-1.8,0.6-2.5,0.6c-0.9,0-1.3-0.8-1.3-2.5c0-1,0.1-1.7,0.3-2.1c0.2-0.4,0.5-0.6,1-0.6c0.8,0,1.7,0.1,2.5,0.3V107.9z"/>
	<path class="st4" d="M144.8,102.9c0,0-0.1,0.1-0.3,0.2c-0.2,0.1-0.3,0.2-0.3,0.2v-4.1h-1v10.2h1V104c0.4-0.2,0.7-0.3,0.9-0.4
		c0.2-0.1,0.4-0.1,0.7-0.2c0.3-0.1,0.6-0.1,0.9-0.1c0.4,0,0.6,0.1,0.9,0.3c0.2,0.2,0.3,0.5,0.3,0.9v4.8h1v-4.8
		c0-0.6-0.2-1.1-0.6-1.6c-0.4-0.4-0.9-0.6-1.6-0.6c-0.1,0-0.3,0-0.4,0c-0.1,0-0.2,0-0.3,0.1s-0.2,0.1-0.3,0.1s-0.2,0.1-0.3,0.1
		s-0.2,0.1-0.3,0.1C144.9,102.9,144.8,102.9,144.8,102.9z"/>
	<path class="st4" d="M151.4,108.2c-0.2-0.2-0.3-0.5-0.3-0.9v-4.8h-1v4.8c0,0.6,0.2,1.1,0.6,1.6c0.4,0.4,0.9,0.7,1.6,0.7
		c0.1,0,0.3,0,0.4,0c0.1,0,0.2,0,0.3-0.1c0.1,0,0.2-0.1,0.3-0.1c0.1-0.1,0.2-0.1,0.3-0.1c0.1,0,0.2-0.1,0.3-0.1
		c0.1-0.1,0.2-0.1,0.3-0.1s0.1-0.1,0.3-0.2s0.3-0.2,0.3-0.2l0.3,0.8h0.7v-6.9h-1v5.3c-0.4,0.2-0.7,0.3-0.9,0.4s-0.4,0.1-0.7,0.2
		c-0.3,0.1-0.6,0.1-0.9,0.1C151.9,108.5,151.7,108.4,151.4,108.2z"/>
	<path class="st4" d="M166.6,104.6v4.8h1v-4.8c0-0.7-0.2-1.2-0.6-1.6s-0.9-0.6-1.5-0.6c-1,0-2,0.3-2.8,1c-0.1-0.3-0.4-0.6-0.7-0.7
		c-0.3-0.2-0.7-0.3-1.2-0.3c-0.1,0-0.3,0-0.4,0c-0.1,0-0.3,0-0.4,0.1c-0.1,0-0.2,0.1-0.3,0.1c-0.1,0-0.2,0.1-0.4,0.1
		c-0.1,0.1-0.2,0.1-0.3,0.2c-0.1,0-0.2,0.1-0.3,0.2c-0.2,0.1-0.3,0.2-0.3,0.2l-0.3-0.8h-0.7v6.9h1v-5.3c0.4-0.2,0.7-0.4,0.9-0.4
		c0.2-0.1,0.4-0.1,0.7-0.2c0.3-0.1,0.6-0.1,0.9-0.1c0.3,0,0.6,0.1,0.9,0.3c0.2,0.2,0.3,0.5,0.3,0.9v4.8h1v-4.8v-0.5
		c0.4-0.3,0.8-0.5,1.2-0.6c0.4-0.1,0.8-0.2,1.3-0.2c0.3,0,0.6,0.1,0.8,0.3S166.6,104.2,166.6,104.6z"/>
	<path class="st4" d="M170.2,101.3v-0.7c0-0.2-0.1-0.3-0.3-0.3h-0.7c-0.2,0-0.3,0.1-0.3,0.3v0.7c0,0.2,0.1,0.3,0.3,0.3h0.7
		C170.1,101.6,170.2,101.5,170.2,101.3z"/>
	<rect x="169" y="102.5" class="st4" width="1" height="6.9"/>
	<path class="st4" d="M173.7,109.4c0.4,0,0.9-0.1,1.4-0.3c0.5-0.2,0.9-0.4,1.1-0.5l0.3,0.8h0.7V99.2h-0.9v3.7
		c-0.4-0.2-0.8-0.3-1.3-0.4c-0.5-0.1-0.9-0.1-1.2-0.1c-0.5,0-0.9,0.1-1.2,0.3c-0.3,0.2-0.5,0.5-0.7,0.9c-0.2,0.4-0.3,0.7-0.3,1.1
		s-0.1,0.8-0.1,1.3c0,0.4,0,0.9,0.1,1.2c0.1,0.4,0.2,0.7,0.3,1.1s0.4,0.6,0.7,0.9C172.9,109.3,173.3,109.4,173.7,109.4z
		 M172.7,103.9c0.2-0.4,0.5-0.6,1-0.6c0.8,0,1.7,0.1,2.5,0.3v4.2c-1,0.4-1.8,0.6-2.5,0.6c-0.9,0-1.3-0.8-1.3-2.5
		C172.4,104.9,172.5,104.3,172.7,103.9z"/>
	<path class="st4" d="M29.7,119.3c0.1-0.2,0.3-0.3,0.4-0.3c0.1,0,0.3-0.1,0.5-0.1c0.8,0,1.8,0,3,0.1v-0.7c-1.2-0.2-2.2-0.3-3-0.3
		c-0.4,0-0.7,0-0.9,0.1c-0.3,0.1-0.5,0.2-0.7,0.5c-0.2,0.2-0.4,0.6-0.5,1.1c-0.1,0.5-0.2,1.1-0.2,1.8c0,0.7,0.1,1.3,0.2,1.8
		c0.1,0.5,0.3,0.8,0.5,1.1c0.2,0.2,0.5,0.4,0.7,0.5c0.2,0.1,0.5,0.1,0.9,0.1c1.2,0,2.2-0.1,3.1-0.4v-0.7l-0.5,0
		c-0.3,0-0.8,0-1.3,0.1c-0.5,0-0.9,0-1.3,0c-0.5,0-0.8-0.2-1-0.5c-0.2-0.4-0.3-1-0.3-2c0-0.6,0-1.1,0.1-1.4S29.6,119.5,29.7,119.3z"
		/>
	<path class="st4" d="M35,114.8v7.7c0,1.6,0.6,2.5,1.7,2.5h1.1v-0.7c-0.1,0-0.4-0.1-1.2-0.3c-0.3-0.1-0.4-0.2-0.6-0.4
		c-0.1-0.2-0.2-0.6-0.2-1.1v-7.7H35z"/>
	<path class="st4" d="M40.1,116.9v-0.7c0-0.2-0.1-0.3-0.3-0.3h-0.7c-0.2,0-0.3,0.1-0.3,0.3v0.7c0,0.2,0.1,0.3,0.3,0.3h0.7
		C40,117.2,40.1,117.1,40.1,116.9z"/>
	<rect x="38.9" y="118.1" class="st4" width="1" height="6.9"/>
	<path class="st4" d="M51.7,125v-4.8c0-0.7-0.2-1.2-0.6-1.6s-0.9-0.6-1.5-0.6c-1,0-2,0.3-2.8,1c-0.1-0.3-0.4-0.6-0.7-0.7
		c-0.3-0.2-0.7-0.3-1.2-0.3c-0.1,0-0.3,0-0.4,0c-0.1,0-0.3,0-0.4,0.1c-0.1,0-0.2,0.1-0.3,0.1c-0.1,0-0.2,0.1-0.4,0.1
		c-0.1,0.1-0.2,0.1-0.3,0.2c-0.1,0-0.2,0.1-0.3,0.2c-0.2,0.1-0.3,0.2-0.3,0.2l-0.3-0.8h-0.7v6.9h1v-5.3c0.4-0.2,0.7-0.4,0.9-0.4
		c0.2-0.1,0.4-0.1,0.7-0.2c0.3-0.1,0.6-0.1,0.9-0.1c0.3,0,0.6,0.1,0.9,0.3c0.2,0.2,0.3,0.5,0.3,0.9v4.8h1v-4.8v-0.5
		c0.4-0.3,0.8-0.5,1.2-0.6c0.4-0.1,0.8-0.2,1.3-0.2c0.3,0,0.6,0.1,0.8,0.3s0.3,0.5,0.3,0.9v4.8H51.7z"/>
	<path class="st4" d="M58.5,119.9c0-0.7-0.2-1.2-0.5-1.5s-0.8-0.5-1.4-0.5c0,0,0,0,0,0c-1.4,0-2.5,0.1-3.4,0.4v0.7
		c1.4-0.1,2.5-0.2,3.3-0.2c0.7,0,1.1,0.4,1.1,1.1c0,0,0,0,0,0.1s0,0,0,0.1s0,0.1,0,0.1c0,0.2,0,0.4,0,0.6c-0.3,0-0.5,0-0.8,0
		c-0.6,0-1.3,0-2.1,0c-0.5,0-1,0.2-1.3,0.5c-0.3,0.3-0.5,0.7-0.5,1.3v0.8c0,0.5,0.2,1,0.5,1.3c0.3,0.3,0.7,0.5,1.2,0.5
		c0.2,0,0.5,0,0.7-0.1s0.5-0.1,0.8-0.2c0.2-0.1,0.5-0.2,0.7-0.3c0.2-0.1,0.4-0.2,0.5-0.2l0.2-0.1l0.2,0.8h0.7V119.9z M57.5,123.4
		l-0.5,0.2c-0.3,0.1-0.7,0.2-1.2,0.3s-0.9,0.2-1.2,0.2c-0.5,0-0.8-0.3-0.8-0.8v-0.6c0-0.2,0.1-0.4,0.2-0.6c0.1-0.2,0.3-0.2,0.6-0.3
		l2.9-0.2V123.4z"/>
	<path class="st4" d="M63.7,119v-1h-2v-1.9h-0.7l-0.2,1.9l-1.3,0.2v0.7h1.3v3.5c0,1.6,0.6,2.5,1.7,2.5h1.1v-0.7
		c-0.1,0-0.4-0.1-1.2-0.3c-0.3-0.1-0.4-0.2-0.6-0.4c-0.1-0.2-0.2-0.6-0.2-1.1V119H63.7z"/>
	<path class="st4" d="M70.4,120.5c0-0.6-0.1-1-0.2-1.3s-0.3-0.6-0.6-0.7s-0.5-0.3-0.8-0.3s-0.6-0.1-1.1-0.1c-0.6,0-1.1,0-1.4,0.1
		c-0.3,0.1-0.6,0.2-0.9,0.5c-0.3,0.2-0.5,0.6-0.6,1.1c-0.1,0.5-0.2,1.1-0.2,1.8c0,1.4,0.2,2.3,0.5,2.8s0.9,0.8,1.8,0.8
		c1.3,0,2.4-0.1,3.3-0.4v-0.7c-0.6,0.1-1.5,0.1-2.7,0.1c-0.1,0-0.2,0-0.3,0c-0.1,0-0.2,0-0.3,0c-0.5,0-0.9-0.1-1-0.4
		c-0.2-0.3-0.3-0.8-0.3-1.6h2.9C69.8,122,70.4,121.5,70.4,120.5z M65.7,120.2c0-0.2,0.1-0.4,0.2-0.6c0.1-0.2,0.2-0.3,0.3-0.4
		c0.1-0.1,0.2-0.1,0.4-0.2c0.2,0,0.4-0.1,0.5-0.1c0.1,0,0.4,0,0.7,0c0.7,0,1.2,0.1,1.4,0.2c0.2,0.2,0.3,0.6,0.3,1.2
		c0,0.4-0.3,0.6-0.8,0.6h-2.9C65.7,120.7,65.7,120.4,65.7,120.2z"/>
	<path class="st4" d="M76.9,123.4v-0.6c0-0.5-0.1-0.9-0.4-1.2c-0.3-0.3-0.7-0.5-1.3-0.5h-2.1c-0.1,0-0.3,0-0.3,0
		c-0.1,0-0.2,0-0.2-0.1c-0.1,0-0.1-0.1-0.2-0.2c0-0.1-0.1-0.2-0.1-0.4v-0.6c0-0.1,0-0.2,0-0.3s0-0.1,0.1-0.2c0-0.1,0.1-0.1,0.3-0.2
		c0.1,0,0.3-0.1,0.5-0.1h3.4v-0.7c-1.4-0.1-2.6-0.2-3.4-0.2c-0.6,0-1.1,0.1-1.4,0.4s-0.4,0.7-0.4,1.3v0.6c0,0.6,0.1,1.1,0.4,1.3
		c0.3,0.2,0.7,0.4,1.4,0.4h2.1c0.3,0,0.5,0.1,0.6,0.2s0.2,0.3,0.2,0.5v0.6c0,0.1,0,0.3-0.1,0.4c-0.1,0.1-0.1,0.2-0.2,0.2
		c-0.1,0-0.2,0.1-0.2,0.1c-0.1,0-0.1,0-0.2,0c0,0,0,0-0.1,0h-3.6v0.7c1.6,0.2,2.8,0.2,3.6,0.2c0.5,0,0.9-0.1,1.2-0.4
		C76.8,124.4,76.9,124,76.9,123.4z"/>
	<path class="st4" d="M78.9,123.6c-0.2,0-0.3,0.1-0.3,0.3v0.7c0,0.2,0.1,0.3,0.3,0.3h0.7c0.2,0,0.3-0.1,0.3-0.3v-0.7
		c0-0.2-0.1-0.3-0.3-0.3H78.9z"/>
	<path class="st4" d="M30.4,153.3l1.7,0.2l1.7,3.9h2.2l-1.9-4c0.2-0.1,0.3-0.1,0.4-0.1c0.1,0,0.2-0.1,0.4-0.3
		c0.2-0.1,0.3-0.3,0.4-0.5c0.1-0.2,0.2-0.5,0.3-0.8c0.1-0.4,0.1-0.8,0.1-1.3c0-0.6-0.1-1.1-0.2-1.5c-0.1-0.4-0.3-0.8-0.6-1
		c-0.3-0.2-0.5-0.4-0.9-0.5c-0.3-0.1-0.7-0.2-1.1-0.2h-4.5v10.2h2V153.3z M30.4,148.9h2.3c0.3,0,0.6,0.1,0.8,0.3
		c0.2,0.2,0.3,0.6,0.3,1.1c0,0.3,0,0.6-0.1,0.7s-0.1,0.3-0.2,0.4c-0.1,0.1-0.2,0.2-0.3,0.2c-0.1,0-0.3,0-0.4,0h-2.3V148.9z"/>
	<path class="st4" d="M43,155.7c-0.7,0.1-1.6,0.2-2.7,0.2c-0.4,0-0.7,0-0.9-0.1s-0.3-0.2-0.5-0.4s-0.2-0.5-0.2-1h2.4
		c0.7,0,1.2-0.1,1.6-0.4c0.3-0.3,0.5-0.8,0.5-1.4c0-0.3,0-0.7-0.1-0.9c0-0.3-0.1-0.5-0.2-0.7s-0.2-0.4-0.3-0.5
		c-0.1-0.1-0.3-0.2-0.4-0.3c-0.1-0.1-0.3-0.1-0.6-0.2s-0.5-0.1-0.7-0.1s-0.5,0-0.9,0c-0.5,0-0.9,0-1.3,0.1c-0.3,0.1-0.6,0.2-0.9,0.3
		c-0.3,0.1-0.5,0.4-0.6,0.7c-0.1,0.3-0.3,0.6-0.3,1.1c-0.1,0.4-0.1,1-0.1,1.6c0,0.7,0,1.3,0.1,1.8s0.2,0.9,0.4,1.2
		c0.2,0.3,0.4,0.5,0.7,0.7s0.7,0.2,1.2,0.2c1.8,0,3.1-0.1,3.8-0.4V155.7z M38.8,152.1c0-0.2,0.1-0.4,0.3-0.5
		c0.1-0.1,0.3-0.2,0.4-0.2c0.1,0,0.4,0,0.7,0c0.5,0,0.8,0.1,0.9,0.2c0.1,0.1,0.2,0.4,0.2,0.9c0,0.4-0.2,0.6-0.6,0.6h-1.9
		C38.7,152.6,38.7,152.3,38.8,152.1z"/>
	<path class="st4" d="M48.4,156.6l0.4,0.8h1.6v-5.2c0-0.9-0.2-1.5-0.7-1.9c-0.5-0.4-1.1-0.5-2-0.5c-1.4,0-2.6,0.2-3.4,0.5v1.2
		c1.5-0.1,2.5-0.2,3.1-0.2c0.2,0,0.3,0,0.4,0c0.1,0,0.2,0.1,0.3,0.1c0.1,0.1,0.2,0.2,0.2,0.3c0,0.1,0.1,0.3,0.1,0.5c0,0,0,0.2,0,0.5
		c-0.4,0-0.7,0-1.1,0c-0.4,0-0.7,0-1.1,0c-0.4,0-0.7,0.1-1,0.2s-0.5,0.3-0.7,0.5s-0.3,0.4-0.4,0.6s-0.1,0.5-0.1,0.8v0.7
		c0,0.5,0.2,1,0.5,1.4c0.4,0.4,0.9,0.6,1.6,0.6c0.3,0,0.7-0.1,1.1-0.2c0.4-0.1,0.6-0.3,0.8-0.4C48.2,156.7,48.3,156.6,48.4,156.6z
		 M47.7,155.6c-0.1,0-0.2,0.1-0.3,0.1c-0.1,0-0.2,0.1-0.3,0.1s-0.2,0-0.3,0c-0.2,0-0.4,0-0.5-0.1c-0.1-0.1-0.2-0.3-0.2-0.6v-0.4
		c0-0.1,0-0.2,0-0.3c0-0.1,0-0.1,0.1-0.2c0-0.1,0.1-0.1,0.2-0.2c0.1-0.1,0.2-0.1,0.3-0.1l1.8-0.1v1.4c-0.1,0-0.1,0.1-0.2,0.1
		c-0.1,0-0.1,0.1-0.2,0.1S47.8,155.6,47.7,155.6z"/>
	<path class="st4" d="M52,156.8c0.2,0.2,0.4,0.3,0.6,0.4c0.2,0.1,0.5,0.1,0.8,0.1H55v-1.2c-0.1,0-0.4-0.1-0.9-0.3
		c-0.2-0.1-0.4-0.2-0.5-0.4c-0.1-0.2-0.2-0.5-0.2-1v-8h-2v8.3c0,0.5,0,0.9,0.1,1.2C51.7,156.3,51.8,156.6,52,156.8z"/>
	<path class="st4" d="M57.9,148.8v-1.2c0-0.2-0.1-0.4-0.3-0.4h-1.5c-0.2,0-0.3,0.1-0.3,0.4v1.2c0,0.1,0,0.1,0,0.2
		c0,0.1,0.1,0.1,0.1,0.1c0.1,0,0.1,0,0.2,0h1.5c0.1,0,0.2,0,0.2-0.1C57.9,149,57.9,148.9,57.9,148.8z"/>
	<rect x="55.8" y="149.9" class="st4" width="2" height="7.4"/>
	<path class="st4" d="M63.5,151.4v-1.5h-1.7v-2.1h-1.6l-0.3,2.1l-1.2,0.4v1.1h1.2v3.3c0,0.9,0.2,1.6,0.5,2c0.3,0.4,0.8,0.6,1.3,0.6
		h1.7v-1.2c-0.1,0-0.4-0.1-0.9-0.3c-0.1-0.1-0.3-0.1-0.3-0.2c-0.1-0.1-0.2-0.2-0.2-0.4s-0.1-0.5-0.1-0.8v-3H63.5z"/>
	<path class="st4" d="M71.6,149.9h-2l-1.5,5.8c-0.1,0-0.1,0-0.2,0c0,0-0.1,0-0.1,0c-0.1,0-0.1,0-0.1-0.1s-0.1-0.1-0.1-0.1
		c0,0-0.1-0.1-0.1-0.2c0-0.1-0.1-0.1-0.1-0.2l-1.3-5.2H64l1.5,5.5c0.3,1.3,1.1,1.9,2.2,1.9l-1,3.8H68l1-1.4L71.6,149.9z"/>
	<path class="st4" d="M72.7,157c0,0.1,0,0.2,0.1,0.2c0.1,0.1,0.1,0.1,0.2,0.1h1.2c0.2,0,0.4-0.1,0.4-0.3v-1.3c0-0.2-0.1-0.3-0.4-0.3
		h-1.2c-0.2,0-0.3,0.1-0.3,0.3V157z"/>
	<path class="st4" d="M73.1,151.9h1.2c0.2,0,0.4-0.1,0.4-0.3v-1.3c0-0.2-0.1-0.3-0.4-0.3h-1.2c-0.2,0-0.3,0.1-0.3,0.3v1.3
		c0,0.1,0,0.2,0.1,0.2C72.9,151.8,73,151.9,73.1,151.9z"/>
	<path class="st4" d="M34,167.9l-4.3-0.1v-2.6c0-0.2,0-0.3,0-0.4c0-0.1,0.1-0.2,0.2-0.2c0.1-0.1,0.3-0.1,0.5-0.1h4.1v-0.8l-4.1-0.2
		c0,0,0,0-0.1,0s0,0-0.1,0c-0.5,0-0.8,0.1-1.1,0.4c-0.3,0.3-0.4,0.7-0.4,1.3v7.8h1v-4.2l4.3-0.1V167.9z"/>
	<path class="st4" d="M36.9,167.7c0.4-0.2,0.7-0.4,0.9-0.4s0.4-0.2,0.7-0.2c0.3-0.1,0.6-0.1,0.9-0.1c0.4,0,0.8,0,1,0.1v-0.9
		c-0.1-0.1-0.5-0.1-1-0.1c-0.1,0-0.3,0-0.4,0c-0.1,0-0.3,0-0.4,0.1c-0.1,0-0.3,0.1-0.4,0.1s-0.2,0.1-0.4,0.2s-0.3,0.1-0.3,0.2
		c-0.1,0-0.2,0.1-0.4,0.2c-0.2,0.1-0.3,0.2-0.3,0.2l-0.3-0.9h-0.7v6.9h1V167.7z"/>
	<path class="st4" d="M44.4,173c1.2,0,2-0.2,2.4-0.7s0.7-1.4,0.7-2.7c0-1.4-0.2-2.3-0.7-2.8s-1.2-0.8-2.4-0.8
		c-1.1,0-1.9,0.3-2.4,0.8c-0.4,0.5-0.7,1.5-0.7,2.9c0,1.3,0.2,2.1,0.7,2.7C42.4,172.8,43.2,173,44.4,173z M42.4,168.4
		c0.1-0.3,0.1-0.6,0.2-0.8c0.1-0.2,0.2-0.3,0.4-0.4c0.2-0.1,0.4-0.2,0.6-0.2s0.5,0,0.8,0c0.4,0,0.8,0,1,0.1c0.2,0,0.4,0.2,0.6,0.3
		s0.3,0.4,0.4,0.8c0.1,0.4,0.1,0.8,0.1,1.5c0,0.6,0,1-0.1,1.3c-0.1,0.3-0.2,0.6-0.4,0.7c-0.2,0.2-0.4,0.3-0.6,0.3
		c-0.2,0-0.5,0.1-0.9,0.1c-0.4,0-0.7,0-0.9-0.1c-0.2,0-0.4-0.1-0.6-0.3c-0.2-0.2-0.3-0.4-0.4-0.7s-0.1-0.8-0.1-1.4
		C42.3,169.1,42.3,168.7,42.4,168.4z"/>
	<path class="st4" d="M59.1,173v-4.8c0-0.7-0.2-1.2-0.6-1.6s-0.9-0.6-1.5-0.6c-1,0-2,0.3-2.8,1c-0.1-0.3-0.4-0.6-0.7-0.7
		c-0.3-0.2-0.7-0.3-1.2-0.3c-0.1,0-0.3,0-0.4,0c-0.1,0-0.3,0-0.4,0.1c-0.1,0-0.2,0.1-0.3,0.1c-0.1,0-0.2,0.1-0.4,0.1
		c-0.1,0.1-0.2,0.1-0.3,0.2c-0.1,0-0.2,0.1-0.3,0.2c-0.2,0.1-0.3,0.2-0.3,0.2l-0.3-0.8h-0.7v6.9h1v-5.3c0.4-0.2,0.7-0.4,0.9-0.4
		c0.2-0.1,0.4-0.1,0.7-0.2c0.3-0.1,0.6-0.1,0.9-0.1c0.3,0,0.6,0.1,0.9,0.3c0.2,0.2,0.3,0.5,0.3,0.9v4.8h1v-4.8v-0.5
		c0.4-0.3,0.8-0.5,1.2-0.6c0.4-0.1,0.8-0.2,1.3-0.2c0.3,0,0.6,0.1,0.8,0.3s0.3,0.5,0.3,0.9v4.8H59.1z"/>
	<path class="st4" d="M68.5,167v-1h-2v-1.9h-0.7l-0.2,1.9l-1.3,0.2v0.7h1.3v3.5c0,1.6,0.6,2.5,1.7,2.5h1.1v-0.7
		c-0.1,0-0.4-0.1-1.2-0.3c-0.3-0.1-0.4-0.2-0.6-0.4c-0.1-0.2-0.2-0.6-0.2-1.1V167H68.5z"/>
	<path class="st4" d="M75.3,173v-4.8c0-0.6-0.2-1.1-0.6-1.6c-0.4-0.4-0.9-0.6-1.6-0.6c-0.1,0-0.3,0-0.4,0c-0.1,0-0.2,0-0.3,0.1
		s-0.2,0.1-0.3,0.1s-0.2,0.1-0.3,0.1s-0.2,0.1-0.3,0.1c-0.1,0.1-0.2,0.1-0.3,0.1c0,0-0.1,0.1-0.3,0.2c-0.2,0.1-0.3,0.2-0.3,0.2v-4.1
		h-1V173h1v-5.3c0.4-0.2,0.7-0.3,0.9-0.4c0.2-0.1,0.4-0.1,0.7-0.2c0.3-0.1,0.6-0.1,0.9-0.1c0.4,0,0.6,0.1,0.9,0.3
		c0.2,0.2,0.3,0.5,0.3,0.9v4.8H75.3z"/>
	<path class="st4" d="M82.1,172.7v-0.7c-0.6,0.1-1.5,0.1-2.7,0.1c-0.1,0-0.2,0-0.3,0c-0.1,0-0.2,0-0.3,0c-0.5,0-0.9-0.1-1-0.4
		c-0.2-0.3-0.3-0.8-0.3-1.6h2.9c1.2,0,1.8-0.5,1.8-1.6c0-0.6-0.1-1-0.2-1.3s-0.3-0.6-0.6-0.7s-0.5-0.3-0.8-0.3s-0.6-0.1-1.1-0.1
		c-0.6,0-1.1,0-1.4,0.1c-0.3,0.1-0.6,0.2-0.9,0.5c-0.3,0.2-0.5,0.6-0.6,1.1c-0.1,0.5-0.2,1.1-0.2,1.8c0,1.4,0.2,2.3,0.5,2.8
		s0.9,0.8,1.8,0.8C80.2,173,81.2,172.9,82.1,172.7z M77.6,168.2c0-0.2,0.1-0.4,0.2-0.6c0.1-0.2,0.2-0.3,0.3-0.4
		c0.1-0.1,0.2-0.1,0.4-0.2c0.2,0,0.4-0.1,0.5-0.1c0.1,0,0.4,0,0.7,0c0.7,0,1.2,0.1,1.4,0.2c0.2,0.2,0.3,0.6,0.3,1.2
		c0,0.4-0.3,0.6-0.8,0.6h-2.9C77.5,168.7,77.6,168.4,77.6,168.2z"/>
	<path class="st4" d="M93.3,168.5c0-0.6-0.1-1-0.2-1.3s-0.3-0.6-0.6-0.7s-0.5-0.3-0.8-0.3s-0.6-0.1-1.1-0.1c-0.6,0-1.1,0-1.4,0.1
		c-0.3,0.1-0.6,0.2-0.9,0.5c-0.3,0.2-0.5,0.6-0.6,1.1c-0.1,0.5-0.2,1.1-0.2,1.8c0,1.4,0.2,2.3,0.5,2.8s0.9,0.8,1.8,0.8
		c1.3,0,2.4-0.1,3.3-0.4v-0.7c-0.6,0.1-1.5,0.1-2.7,0.1c-0.1,0-0.2,0-0.3,0c-0.1,0-0.2,0-0.3,0c-0.5,0-0.9-0.1-1-0.4
		c-0.2-0.3-0.3-0.8-0.3-1.6h2.9C92.7,170,93.3,169.5,93.3,168.5z M88.6,168.2c0-0.2,0.1-0.4,0.2-0.6c0.1-0.2,0.2-0.3,0.3-0.4
		c0.1-0.1,0.2-0.1,0.4-0.2c0.2,0,0.4-0.1,0.5-0.1c0.1,0,0.4,0,0.7,0c0.7,0,1.2,0.1,1.4,0.2c0.2,0.2,0.3,0.6,0.3,1.2
		c0,0.4-0.3,0.6-0.8,0.6h-2.9C88.6,168.7,88.6,168.4,88.6,168.2z"/>
	<polygon class="st4" points="99.5,166.1 97.3,171.5 95.1,166.1 94.1,166.1 96.8,173 97.7,173 100.5,166.1 	"/>
	<rect x="101.6" y="166.1" class="st4" width="1" height="6.9"/>
	<path class="st4" d="M102.7,164.9v-0.7c0-0.2-0.1-0.3-0.3-0.3h-0.7c-0.2,0-0.3,0.1-0.3,0.3v0.7c0,0.2,0.1,0.3,0.3,0.3h0.7
		C102.6,165.2,102.7,165.1,102.7,164.9z"/>
	<path class="st4" d="M104.4,171.9c0.2,0.4,0.4,0.6,0.7,0.9c0.3,0.2,0.7,0.3,1.1,0.3c0.4,0,0.9-0.1,1.4-0.3c0.5-0.2,0.9-0.4,1.1-0.5
		l0.3,0.8h0.7v-10.2h-0.9v3.7c-0.4-0.2-0.8-0.3-1.3-0.4c-0.5-0.1-0.9-0.1-1.2-0.1c-0.5,0-0.9,0.1-1.2,0.3c-0.3,0.2-0.5,0.5-0.7,0.9
		c-0.2,0.4-0.3,0.7-0.3,1.1s-0.1,0.8-0.1,1.3c0,0.4,0,0.9,0.1,1.2C104.1,171.1,104.3,171.5,104.4,171.9z M105.3,167.5
		c0.2-0.4,0.5-0.6,1-0.6c0.8,0,1.7,0.1,2.5,0.3v4.2c-1,0.4-1.8,0.6-2.5,0.6c-0.9,0-1.3-0.8-1.3-2.5
		C104.9,168.5,105,167.8,105.3,167.5z"/>
	<path class="st4" d="M116.7,172.7v-0.7c-0.6,0.1-1.5,0.1-2.7,0.1c-0.1,0-0.2,0-0.3,0c-0.1,0-0.2,0-0.3,0c-0.5,0-0.9-0.1-1-0.4
		c-0.2-0.3-0.3-0.8-0.3-1.6h2.9c1.2,0,1.8-0.5,1.8-1.6c0-0.6-0.1-1-0.2-1.3s-0.3-0.6-0.6-0.7s-0.5-0.3-0.8-0.3s-0.6-0.1-1.1-0.1
		c-0.6,0-1.1,0-1.4,0.1c-0.3,0.1-0.6,0.2-0.9,0.5c-0.3,0.2-0.5,0.6-0.6,1.1c-0.1,0.5-0.2,1.1-0.2,1.8c0,1.4,0.2,2.3,0.5,2.8
		s0.9,0.8,1.8,0.8C114.8,173,115.9,172.9,116.7,172.7z M112.2,168.2c0-0.2,0.1-0.4,0.2-0.6c0.1-0.2,0.2-0.3,0.3-0.4
		c0.1-0.1,0.2-0.1,0.4-0.2c0.2,0,0.4-0.1,0.5-0.1c0.1,0,0.4,0,0.7,0c0.7,0,1.2,0.1,1.4,0.2c0.2,0.2,0.3,0.6,0.3,1.2
		c0,0.4-0.3,0.6-0.8,0.6h-2.9C112.1,168.7,112.2,168.4,112.2,168.2z"/>
	<path class="st4" d="M123.8,173v-4.8c0-0.6-0.2-1.1-0.6-1.6c-0.4-0.4-0.9-0.6-1.6-0.6c-0.1,0-0.3,0-0.4,0c-0.1,0-0.2,0-0.3,0.1
		s-0.2,0.1-0.3,0.1s-0.2,0.1-0.3,0.1s-0.2,0.1-0.3,0.1c-0.1,0.1-0.2,0.1-0.3,0.1c0,0-0.1,0.1-0.3,0.2c-0.2,0.1-0.3,0.2-0.3,0.2
		l-0.3-0.8h-0.7v6.9h1v-5.3c0.4-0.2,0.7-0.3,0.9-0.4c0.2-0.1,0.4-0.1,0.7-0.2c0.3-0.1,0.6-0.1,0.9-0.1c0.3,0,0.6,0.1,0.8,0.3
		c0.2,0.2,0.3,0.5,0.3,0.9v4.8H123.8z"/>
	<path class="st4" d="M130.4,171.9l-0.5,0c-0.3,0-0.8,0-1.3,0.1c-0.5,0-0.9,0-1.3,0c-0.5,0-0.8-0.2-1-0.5c-0.2-0.4-0.3-1-0.3-2
		c0-0.6,0-1.1,0.1-1.4s0.2-0.6,0.3-0.8c0.1-0.2,0.3-0.3,0.4-0.3c0.1,0,0.3-0.1,0.5-0.1c0.8,0,1.8,0,3,0.1v-0.7
		c-1.2-0.2-2.2-0.3-3-0.3c-0.4,0-0.7,0-0.9,0.1c-0.3,0.1-0.5,0.2-0.7,0.5c-0.2,0.2-0.4,0.6-0.5,1.1c-0.1,0.5-0.2,1.1-0.2,1.8
		c0,0.7,0.1,1.3,0.2,1.8c0.1,0.5,0.3,0.8,0.5,1.1c0.2,0.2,0.5,0.4,0.7,0.5c0.2,0.1,0.5,0.1,0.9,0.1c1.2,0,2.2-0.1,3.1-0.4V171.9z"/>
	<path class="st4" d="M137.2,168.5c0-0.6-0.1-1-0.2-1.3s-0.3-0.6-0.6-0.7s-0.5-0.3-0.8-0.3s-0.6-0.1-1.1-0.1c-0.6,0-1.1,0-1.4,0.1
		c-0.3,0.1-0.6,0.2-0.9,0.5c-0.3,0.2-0.5,0.6-0.6,1.1c-0.1,0.5-0.2,1.1-0.2,1.8c0,1.4,0.2,2.3,0.5,2.8s0.9,0.8,1.8,0.8
		c1.3,0,2.4-0.1,3.3-0.4v-0.7c-0.6,0.1-1.5,0.1-2.7,0.1c-0.1,0-0.2,0-0.3,0c-0.1,0-0.2,0-0.3,0c-0.5,0-0.9-0.1-1-0.4
		c-0.2-0.3-0.3-0.8-0.3-1.6h2.9C136.6,170,137.2,169.5,137.2,168.5z M132.6,168.2c0-0.2,0.1-0.4,0.2-0.6c0.1-0.2,0.2-0.3,0.3-0.4
		c0.1-0.1,0.2-0.1,0.4-0.2c0.2,0,0.4-0.1,0.5-0.1c0.1,0,0.4,0,0.7,0c0.7,0,1.2,0.1,1.4,0.2c0.2,0.2,0.3,0.6,0.3,1.2
		c0,0.4-0.3,0.6-0.8,0.6h-2.9C132.5,168.7,132.6,168.4,132.6,168.2z"/>
	<path class="st4" d="M147,171.7c-0.1,0.1-0.1,0.2-0.2,0.2c-0.1,0-0.2,0.1-0.2,0.1c-0.1,0-0.1,0-0.2,0c0,0,0,0-0.1,0h-3.6v0.7
		c1.6,0.2,2.8,0.2,3.6,0.2c0.5,0,0.9-0.1,1.2-0.4c0.3-0.2,0.5-0.7,0.5-1.3v-0.6c0-0.5-0.1-0.9-0.4-1.2c-0.3-0.3-0.7-0.5-1.3-0.5
		h-2.1c-0.1,0-0.3,0-0.3,0c-0.1,0-0.2,0-0.2-0.1c-0.1,0-0.1-0.1-0.2-0.2c0-0.1-0.1-0.2-0.1-0.4v-0.6c0-0.1,0-0.2,0-0.3
		s0-0.1,0.1-0.2c0-0.1,0.1-0.1,0.3-0.2c0.1,0,0.3-0.1,0.5-0.1h3.4v-0.7c-1.4-0.1-2.6-0.2-3.4-0.2c-0.6,0-1.1,0.1-1.4,0.4
		s-0.4,0.7-0.4,1.3v0.6c0,0.6,0.1,1.1,0.4,1.3c0.3,0.2,0.7,0.4,1.4,0.4h2.1c0.3,0,0.5,0.1,0.6,0.2s0.2,0.3,0.2,0.5v0.6
		C147.1,171.5,147.1,171.6,147,171.7z"/>
	<path class="st4" d="M154.6,172.3c0.4-0.5,0.7-1.4,0.7-2.7c0-1.4-0.2-2.3-0.7-2.8s-1.2-0.8-2.4-0.8c-1.1,0-1.9,0.3-2.4,0.8
		c-0.4,0.5-0.7,1.5-0.7,2.9c0,1.3,0.2,2.1,0.7,2.7c0.4,0.5,1.2,0.8,2.4,0.8C153.4,173,154.2,172.8,154.6,172.3z M150.7,171.7
		c-0.2-0.2-0.3-0.4-0.4-0.7s-0.1-0.8-0.1-1.4c0-0.5,0-0.9,0.1-1.2s0.1-0.6,0.2-0.8c0.1-0.2,0.2-0.3,0.4-0.4c0.2-0.1,0.4-0.2,0.6-0.2
		s0.5,0,0.8,0c0.4,0,0.8,0,1,0.1c0.2,0,0.4,0.2,0.6,0.3s0.3,0.4,0.4,0.8c0.1,0.4,0.1,0.8,0.1,1.5c0,0.6,0,1-0.1,1.3
		c-0.1,0.3-0.2,0.6-0.4,0.7c-0.2,0.2-0.4,0.3-0.6,0.3c-0.2,0-0.5,0.1-0.9,0.1c-0.4,0-0.7,0-0.9-0.1
		C151.1,172,150.9,171.9,150.7,171.7z"/>
	<path class="st4" d="M162.7,164.3c0-0.1,0-0.2,0.1-0.3c0-0.1,0.1-0.2,0.2-0.2c0.1-0.1,0.3-0.1,0.5-0.1c0,0,0,0,0,0l1.6,0v-0.6
		c-0.7-0.2-1.3-0.3-1.8-0.3c-0.3,0-0.5,0-0.8,0.1s-0.4,0.2-0.5,0.4c-0.1,0.1-0.2,0.3-0.2,0.5c-0.1,0.2-0.1,0.4-0.1,0.5
		c0,0.1,0,0.3,0,0.5v1.3l-1.3,0.2v0.7h1.3v5.9h1V167h1.9v-1h-1.9v-1.3C162.6,164.6,162.7,164.4,162.7,164.3z"/>
	<path class="st4" d="M167.6,173c0.2,0,0.5,0,0.7-0.1s0.5-0.1,0.8-0.2c0.2-0.1,0.5-0.2,0.7-0.3c0.2-0.1,0.4-0.2,0.5-0.2l0.2-0.1
		l0.2,0.8h0.7v-5c0-0.7-0.2-1.2-0.5-1.5s-0.8-0.5-1.4-0.5c0,0,0,0,0,0c-1.4,0-2.5,0.1-3.4,0.4v0.7c1.4-0.1,2.5-0.2,3.3-0.2
		c0.7,0,1.1,0.4,1.1,1.1c0,0,0,0,0,0.1s0,0,0,0.1s0,0.1,0,0.1c0,0.2,0,0.4,0,0.6c-0.3,0-0.5,0-0.8,0c-0.6,0-1.3,0-2.1,0
		c-0.5,0-1,0.2-1.3,0.5c-0.3,0.3-0.5,0.7-0.5,1.3v0.8c0,0.5,0.2,1,0.5,1.3C166.7,172.9,167.1,173,167.6,173z M166.8,170.6
		c0-0.2,0.1-0.4,0.2-0.6c0.1-0.2,0.3-0.2,0.6-0.3l2.9-0.2v1.9l-0.5,0.2c-0.3,0.1-0.7,0.2-1.2,0.3s-0.9,0.2-1.2,0.2
		c-0.5,0-0.8-0.3-0.8-0.8V170.6z"/>
	<path class="st4" d="M173.9,167.7c0.4-0.2,0.7-0.4,0.9-0.4s0.4-0.2,0.7-0.2c0.3-0.1,0.6-0.1,0.9-0.1c0.4,0,0.8,0,1,0.1v-0.9
		c-0.1-0.1-0.5-0.1-1-0.1c-0.1,0-0.3,0-0.4,0c-0.1,0-0.3,0-0.4,0.1c-0.1,0-0.3,0.1-0.4,0.1s-0.2,0.1-0.4,0.2s-0.3,0.1-0.3,0.2
		c-0.1,0-0.2,0.1-0.4,0.2c-0.2,0.1-0.3,0.2-0.3,0.2l-0.3-0.9h-0.7v6.9h1V167.7z"/>
	<path class="st4" d="M178.8,173.7v0.4l0.1,0c0.1,0,0.2,0,0.3,0c0.1,0,0.2-0.1,0.4-0.1c0.1-0.1,0.2-0.2,0.3-0.3
		c0.1-0.2,0.1-0.3,0.1-0.6v-1.2c0-0.2-0.1-0.4-0.3-0.4h-0.7c-0.2,0-0.3,0.1-0.3,0.4v0.7c0,0.2,0.1,0.3,0.3,0.3h0.1v0.3
		C179.2,173.6,179.1,173.7,178.8,173.7z"/>
	<path class="st4" d="M32.3,182.6v-1h-2v-1.9h-0.7l-0.2,1.9l-1.3,0.2v0.7h1.3v3.5c0,1.6,0.6,2.5,1.7,2.5h1.1v-0.7
		c-0.1,0-0.4-0.1-1.2-0.3c-0.3-0.1-0.4-0.2-0.6-0.4c-0.1-0.2-0.2-0.6-0.2-1.1v-3.5H32.3z"/>
	<path class="st4" d="M39.1,188.6v-4.8c0-0.6-0.2-1.1-0.6-1.6c-0.4-0.4-0.9-0.7-1.6-0.7c-0.1,0-0.3,0-0.4,0c-0.1,0-0.2,0-0.3,0.1
		s-0.2,0.1-0.3,0.1c-0.1,0.1-0.2,0.1-0.3,0.1s-0.2,0.1-0.3,0.1c-0.1,0.1-0.2,0.1-0.3,0.1c0,0-0.1,0.1-0.3,0.2
		c-0.2,0.1-0.3,0.2-0.3,0.2v-4.1h-1v10.2h1v-5.3c0.4-0.2,0.7-0.3,0.9-0.4c0.2-0.1,0.4-0.1,0.7-0.2c0.3-0.1,0.6-0.1,0.9-0.1
		c0.4,0,0.6,0.1,0.9,0.3c0.2,0.2,0.3,0.5,0.3,0.9v4.8H39.1z"/>
	<path class="st4" d="M45.9,187.5c-0.6,0.1-1.5,0.1-2.7,0.1c-0.1,0-0.2,0-0.3,0c-0.1,0-0.2,0-0.3,0c-0.5,0-0.9-0.1-1-0.4
		c-0.2-0.3-0.3-0.8-0.3-1.6h2.9c1.2,0,1.8-0.5,1.8-1.6c0-0.6-0.1-1-0.2-1.3s-0.3-0.6-0.6-0.7c-0.3-0.2-0.5-0.3-0.8-0.3
		c-0.3,0-0.6-0.1-1.1-0.1c-0.6,0-1.1,0-1.4,0.1c-0.3,0.1-0.6,0.2-0.9,0.5c-0.3,0.2-0.5,0.6-0.6,1.1c-0.1,0.5-0.2,1.1-0.2,1.8
		c0,1.4,0.2,2.3,0.5,2.8c0.3,0.5,0.9,0.8,1.8,0.8c1.3,0,2.4-0.1,3.3-0.4V187.5z M41.4,183.8c0-0.2,0.1-0.4,0.2-0.6
		c0.1-0.2,0.2-0.3,0.3-0.4c0.1-0.1,0.2-0.1,0.4-0.2c0.2,0,0.4-0.1,0.5-0.1c0.1,0,0.4,0,0.7,0c0.7,0,1.2,0.1,1.4,0.2
		c0.2,0.2,0.3,0.6,0.3,1.2c0,0.4-0.3,0.6-0.8,0.6h-2.9C41.3,184.3,41.4,184,41.4,183.8z"/>
	<path class="st4" d="M57.2,188.6v-4.8c0-0.6-0.2-1.1-0.6-1.6c-0.4-0.4-0.9-0.7-1.6-0.7c-0.1,0-0.3,0-0.4,0c-0.1,0-0.2,0-0.3,0.1
		s-0.2,0.1-0.3,0.1c-0.1,0.1-0.2,0.1-0.3,0.1s-0.2,0.1-0.3,0.1c-0.1,0.1-0.2,0.1-0.3,0.1c0,0-0.1,0.1-0.3,0.2
		c-0.2,0.1-0.3,0.2-0.3,0.2l-0.3-0.8h-0.7v6.9h1v-5.3c0.4-0.2,0.7-0.3,0.9-0.4c0.2-0.1,0.4-0.1,0.7-0.2c0.3-0.1,0.6-0.1,0.9-0.1
		c0.3,0,0.6,0.1,0.8,0.3c0.2,0.2,0.3,0.5,0.3,0.9v4.8H57.2z"/>
	<path class="st4" d="M60.8,188.6c1.3,0,2.4-0.1,3.3-0.4v-0.7c-0.6,0.1-1.5,0.1-2.7,0.1c-0.1,0-0.2,0-0.3,0c-0.1,0-0.2,0-0.3,0
		c-0.5,0-0.9-0.1-1-0.4c-0.2-0.3-0.3-0.8-0.3-1.6h2.9c1.2,0,1.8-0.5,1.8-1.6c0-0.6-0.1-1-0.2-1.3s-0.3-0.6-0.6-0.7
		c-0.3-0.2-0.5-0.3-0.8-0.3c-0.3,0-0.6-0.1-1.1-0.1c-0.6,0-1.1,0-1.4,0.1c-0.3,0.1-0.6,0.2-0.9,0.5c-0.3,0.2-0.5,0.6-0.6,1.1
		c-0.1,0.5-0.2,1.1-0.2,1.8c0,1.4,0.2,2.3,0.5,2.8C59.3,188.4,59.9,188.6,60.8,188.6z M59.5,183.8c0-0.2,0.1-0.4,0.2-0.6
		c0.1-0.2,0.2-0.3,0.3-0.4c0.1-0.1,0.2-0.1,0.4-0.2c0.2,0,0.4-0.1,0.5-0.1c0.1,0,0.4,0,0.7,0c0.7,0,1.2,0.1,1.4,0.2
		c0.2,0.2,0.3,0.6,0.3,1.2c0,0.4-0.3,0.6-0.8,0.6h-2.9C59.5,184.3,59.5,184,59.5,183.8z"/>
	<polygon class="st4" points="74.8,181.7 73.8,181.7 71.7,187.1 70.2,183.9 70.9,181.7 69.8,181.7 68,187.1 66,181.7 64.9,181.7 
		67.5,188.6 68.6,188.6 69.7,185.2 71.2,188.6 72.2,188.6 	"/>
	<path class="st4" d="M85.3,187.5l-0.5,0c-0.3,0-0.8,0-1.3,0.1s-0.9,0-1.3,0c-0.5,0-0.8-0.2-1-0.5c-0.2-0.4-0.3-1-0.3-2
		c0-0.6,0-1.1,0.1-1.4c0.1-0.4,0.2-0.6,0.3-0.8s0.3-0.3,0.4-0.3c0.1,0,0.3-0.1,0.5-0.1c0.8,0,1.8,0,3,0.1v-0.7
		c-1.2-0.2-2.2-0.3-3-0.3c-0.4,0-0.7,0-0.9,0.1c-0.3,0.1-0.5,0.2-0.7,0.5s-0.4,0.6-0.5,1.1c-0.1,0.5-0.2,1.1-0.2,1.8
		c0,0.7,0.1,1.3,0.2,1.8c0.1,0.5,0.3,0.8,0.5,1.1s0.5,0.4,0.7,0.5c0.2,0.1,0.5,0.1,0.9,0.1c1.2,0,2.2-0.1,3.1-0.4V187.5z"/>
	<path class="st4" d="M91.9,187.9c0.4-0.5,0.7-1.4,0.7-2.7c0-1.4-0.2-2.3-0.7-2.8s-1.2-0.8-2.4-0.8c-1.1,0-1.9,0.3-2.4,0.8
		c-0.4,0.5-0.7,1.5-0.7,2.9c0,1.3,0.2,2.1,0.7,2.7c0.4,0.5,1.2,0.8,2.4,0.8C90.7,188.6,91.5,188.4,91.9,187.9z M88,187.3
		c-0.2-0.2-0.3-0.4-0.4-0.7s-0.1-0.8-0.1-1.4c0-0.5,0-0.9,0.1-1.2s0.1-0.6,0.2-0.8c0.1-0.2,0.2-0.3,0.4-0.4s0.4-0.2,0.6-0.2
		c0.2,0,0.5,0,0.8,0c0.4,0,0.8,0,1,0.1c0.2,0,0.4,0.2,0.6,0.3s0.3,0.4,0.4,0.8c0.1,0.4,0.1,0.8,0.1,1.5c0,0.6,0,1-0.1,1.3
		c-0.1,0.3-0.2,0.6-0.4,0.7c-0.2,0.2-0.4,0.3-0.6,0.3c-0.2,0-0.5,0.1-0.9,0.1c-0.4,0-0.7,0-0.9-0.1C88.4,187.6,88.2,187.5,88,187.3z
		"/>
	<path class="st4" d="M97.5,182.6c0.4,0,0.8,0,1,0.1v-0.9c-0.1-0.1-0.5-0.1-1-0.1c-0.1,0-0.3,0-0.4,0s-0.3,0-0.4,0.1
		c-0.1,0-0.3,0.1-0.4,0.1s-0.2,0.1-0.4,0.2c-0.2,0.1-0.3,0.1-0.3,0.2c-0.1,0-0.2,0.1-0.4,0.2c-0.2,0.1-0.3,0.2-0.3,0.2l-0.3-0.9H94
		v6.9h1v-5.3c0.4-0.2,0.7-0.4,0.9-0.4c0.2-0.1,0.4-0.2,0.7-0.2C96.9,182.6,97.2,182.6,97.5,182.6z"/>
	<path class="st4" d="M105.5,185.2c0-1.4-0.2-2.3-0.7-2.8s-1.2-0.8-2.4-0.8c-1.1,0-1.9,0.3-2.4,0.8c-0.4,0.5-0.7,1.5-0.7,2.9
		c0,1.3,0.2,2.1,0.7,2.7c0.4,0.5,1.2,0.8,2.4,0.8c1.2,0,2-0.2,2.4-0.7C105.3,187.4,105.5,186.5,105.5,185.2z M104.4,186.6
		c-0.1,0.3-0.2,0.6-0.4,0.7c-0.2,0.2-0.4,0.3-0.6,0.3c-0.2,0-0.5,0.1-0.9,0.1c-0.4,0-0.7,0-0.9-0.1c-0.2,0-0.4-0.1-0.6-0.3
		c-0.2-0.2-0.3-0.4-0.4-0.7s-0.1-0.8-0.1-1.4c0-0.5,0-0.9,0.1-1.2s0.1-0.6,0.2-0.8c0.1-0.2,0.2-0.3,0.4-0.4s0.4-0.2,0.6-0.2
		c0.2,0,0.5,0,0.8,0c0.4,0,0.8,0,1,0.1c0.2,0,0.4,0.2,0.6,0.3s0.3,0.4,0.4,0.8c0.1,0.4,0.1,0.8,0.1,1.5
		C104.5,185.8,104.5,186.2,104.4,186.6z"/>
	<path class="st4" d="M112.5,188.6v-4.8c0-0.6-0.2-1.1-0.6-1.6c-0.4-0.4-0.9-0.7-1.6-0.7c-0.1,0-0.3,0-0.4,0c-0.1,0-0.2,0-0.3,0.1
		s-0.2,0.1-0.3,0.1c-0.1,0.1-0.2,0.1-0.3,0.1s-0.2,0.1-0.3,0.1c-0.1,0.1-0.2,0.1-0.3,0.1c0,0-0.1,0.1-0.3,0.2
		c-0.2,0.1-0.3,0.2-0.3,0.2l-0.3-0.8h-0.7v6.9h1v-5.3c0.4-0.2,0.7-0.3,0.9-0.4c0.2-0.1,0.4-0.1,0.7-0.2c0.3-0.1,0.6-0.1,0.9-0.1
		c0.3,0,0.6,0.1,0.8,0.3c0.2,0.2,0.3,0.5,0.3,0.9v4.8H112.5z"/>
	<path class="st4" d="M115.4,188.6c0.2,0,0.5,0,0.7-0.1s0.5-0.1,0.8-0.2c0.2-0.1,0.5-0.2,0.7-0.3s0.4-0.2,0.5-0.2l0.2-0.1l0.2,0.8
		h0.7v-5c0-0.7-0.2-1.2-0.5-1.5c-0.4-0.3-0.8-0.5-1.4-0.5c0,0,0,0,0,0c-1.4,0-2.5,0.1-3.4,0.4v0.7c1.4-0.1,2.5-0.2,3.3-0.2
		c0.7,0,1.1,0.4,1.1,1.1c0,0,0,0,0,0.1s0,0,0,0.1c0,0,0,0.1,0,0.1c0,0.2,0,0.4,0,0.6c-0.3,0-0.5,0-0.8,0c-0.6,0-1.3,0-2.1,0
		c-0.5,0-1,0.2-1.3,0.5c-0.3,0.3-0.5,0.7-0.5,1.3v0.8c0,0.5,0.2,1,0.5,1.3C114.5,188.5,115,188.6,115.4,188.6z M114.7,186.2
		c0-0.2,0.1-0.4,0.2-0.6c0.1-0.2,0.3-0.2,0.6-0.3l2.9-0.2v1.9l-0.5,0.2c-0.3,0.1-0.7,0.2-1.2,0.3c-0.5,0.1-0.9,0.2-1.2,0.2
		c-0.5,0-0.8-0.3-0.8-0.8V186.2z"/>
	<polygon class="st4" points="125.6,181.7 123.4,187.1 121.3,181.7 120.2,181.7 122.9,188.6 123.9,188.6 126.7,181.7 	"/>
	<rect x="127.7" y="181.7" class="st4" width="1" height="6.9"/>
	<path class="st4" d="M128.8,180.5v-0.7c0-0.2-0.1-0.3-0.3-0.3h-0.7c-0.2,0-0.3,0.1-0.3,0.3v0.7c0,0.2,0.1,0.3,0.3,0.3h0.7
		C128.7,180.8,128.8,180.7,128.8,180.5z"/>
	<path class="st4" d="M131.2,183.3c0.4-0.2,0.7-0.4,0.9-0.4c0.2-0.1,0.4-0.2,0.7-0.2c0.3-0.1,0.6-0.1,0.9-0.1c0.4,0,0.8,0,1,0.1
		v-0.9c-0.1-0.1-0.5-0.1-1-0.1c-0.1,0-0.3,0-0.4,0s-0.3,0-0.4,0.1c-0.1,0-0.3,0.1-0.4,0.1s-0.2,0.1-0.4,0.2
		c-0.2,0.1-0.3,0.1-0.3,0.2c-0.1,0-0.2,0.1-0.4,0.2c-0.2,0.1-0.3,0.2-0.3,0.2l-0.3-0.9h-0.7v6.9h1V183.3z"/>
	<path class="st4" d="M140.1,187.9c0.2-0.1,0.3-0.2,0.3-0.2l0.3,0.8h0.7v-6.9h-1v5.3c-0.4,0.2-0.7,0.3-0.9,0.4
		c-0.2,0.1-0.4,0.1-0.7,0.2s-0.6,0.1-0.9,0.1c-0.3,0-0.6-0.1-0.8-0.3c-0.2-0.2-0.3-0.5-0.3-0.9v-4.8h-1v4.8c0,0.6,0.2,1.1,0.6,1.6
		c0.4,0.4,0.9,0.7,1.6,0.7c0.1,0,0.3,0,0.4,0s0.2,0,0.3-0.1c0.1,0,0.2-0.1,0.3-0.1s0.2-0.1,0.3-0.1c0.1,0,0.2-0.1,0.3-0.1
		c0.1-0.1,0.2-0.1,0.3-0.1C139.8,188.1,139.9,188,140.1,187.9z"/>
	<path class="st4" d="M147.7,188.3c0.3-0.2,0.5-0.7,0.5-1.3v-0.6c0-0.5-0.1-0.9-0.4-1.2c-0.3-0.3-0.7-0.5-1.3-0.5h-2.1
		c-0.1,0-0.3,0-0.3,0c-0.1,0-0.2,0-0.2-0.1c-0.1,0-0.1-0.1-0.2-0.2c0-0.1-0.1-0.2-0.1-0.4v-0.6c0-0.1,0-0.2,0-0.3s0-0.1,0.1-0.2
		c0-0.1,0.1-0.1,0.3-0.2c0.1,0,0.3-0.1,0.5-0.1h3.4v-0.7c-1.4-0.1-2.6-0.2-3.4-0.2c-0.6,0-1.1,0.1-1.4,0.4c-0.3,0.3-0.4,0.7-0.4,1.3
		v0.6c0,0.7,0.1,1.1,0.4,1.3c0.3,0.2,0.7,0.4,1.4,0.4h2.1c0.3,0,0.5,0.1,0.6,0.2c0.1,0.1,0.2,0.3,0.2,0.5v0.6c0,0.1,0,0.3-0.1,0.4
		c-0.1,0.1-0.1,0.2-0.2,0.2c-0.1,0-0.2,0.1-0.2,0.1c-0.1,0-0.1,0-0.2,0c0,0,0,0-0.1,0h-3.6v0.7c1.6,0.2,2.8,0.2,3.6,0.2
		C147,188.6,147.4,188.5,147.7,188.3z"/>
	<path class="st4" d="M158.9,187.5l-0.5,0c-0.3,0-0.8,0-1.3,0.1s-0.9,0-1.3,0c-0.5,0-0.8-0.2-1-0.5c-0.2-0.4-0.3-1-0.3-2
		c0-0.6,0-1.1,0.1-1.4c0.1-0.4,0.2-0.6,0.3-0.8s0.3-0.3,0.4-0.3c0.1,0,0.3-0.1,0.5-0.1c0.8,0,1.8,0,3,0.1v-0.7
		c-1.2-0.2-2.2-0.3-3-0.3c-0.4,0-0.7,0-0.9,0.1c-0.3,0.1-0.5,0.2-0.7,0.5s-0.4,0.6-0.5,1.1c-0.1,0.5-0.2,1.1-0.2,1.8
		c0,0.7,0.1,1.3,0.2,1.8c0.1,0.5,0.3,0.8,0.5,1.1s0.5,0.4,0.7,0.5c0.2,0.1,0.5,0.1,0.9,0.1c1.2,0,2.2-0.1,3.1-0.4V187.5z"/>
	<path class="st4" d="M165.5,183.5c0-0.7-0.2-1.2-0.5-1.5c-0.4-0.3-0.8-0.5-1.4-0.5c0,0,0,0,0,0c-1.4,0-2.5,0.1-3.4,0.4v0.7
		c1.4-0.1,2.5-0.2,3.3-0.2c0.7,0,1.1,0.4,1.1,1.1c0,0,0,0,0,0.1s0,0,0,0.1c0,0,0,0.1,0,0.1c0,0.2,0,0.4,0,0.6c-0.3,0-0.5,0-0.8,0
		c-0.6,0-1.3,0-2.1,0c-0.5,0-1,0.2-1.3,0.5c-0.3,0.3-0.5,0.7-0.5,1.3v0.8c0,0.5,0.2,1,0.5,1.3c0.3,0.3,0.7,0.5,1.2,0.5
		c0.2,0,0.5,0,0.7-0.1s0.5-0.1,0.8-0.2c0.2-0.1,0.5-0.2,0.7-0.3s0.4-0.2,0.5-0.2l0.2-0.1l0.2,0.8h0.7V183.5z M164.5,187l-0.5,0.2
		c-0.3,0.1-0.7,0.2-1.2,0.3c-0.5,0.1-0.9,0.2-1.2,0.2c-0.5,0-0.8-0.3-0.8-0.8v-0.7c0-0.2,0.1-0.4,0.2-0.6c0.1-0.2,0.3-0.2,0.6-0.3
		l2.9-0.2V187z"/>
	<path class="st4" d="M172.6,188.6v-4.8c0-0.6-0.2-1.1-0.6-1.6c-0.4-0.4-0.9-0.7-1.6-0.7c-0.1,0-0.3,0-0.4,0c-0.1,0-0.2,0-0.3,0.1
		s-0.2,0.1-0.3,0.1c-0.1,0.1-0.2,0.1-0.3,0.1s-0.2,0.1-0.3,0.1c-0.1,0.1-0.2,0.1-0.3,0.1c0,0-0.1,0.1-0.3,0.2
		c-0.2,0.1-0.3,0.2-0.3,0.2l-0.3-0.8h-0.7v6.9h1v-5.3c0.4-0.2,0.7-0.3,0.9-0.4c0.2-0.1,0.4-0.1,0.7-0.2c0.3-0.1,0.6-0.1,0.9-0.1
		c0.3,0,0.6,0.1,0.8,0.3c0.2,0.2,0.3,0.5,0.3,0.9v4.8H172.6z"/>
	<path class="st4" d="M178.2,188.6h0.7l0.3-0.8c0.2,0.2,0.6,0.3,1.1,0.5c0.5,0.2,1,0.3,1.4,0.3c0.5,0,0.8-0.1,1.1-0.3
		c0.3-0.2,0.5-0.5,0.7-0.9c0.2-0.4,0.3-0.7,0.3-1.1c0.1-0.4,0.1-0.8,0.1-1.2c0-0.5,0-0.9-0.1-1.3c-0.1-0.4-0.2-0.8-0.3-1.1
		s-0.4-0.7-0.7-0.9s-0.7-0.3-1.2-0.3c-0.3,0-0.7,0-1.2,0.1c-0.5,0.1-0.9,0.2-1.3,0.4v-3.7h-0.9V188.6z M179.2,182.9
		c0.9-0.2,1.7-0.3,2.5-0.3c0.5,0,0.8,0.2,1,0.6c0.2,0.4,0.3,1.1,0.3,2.1c0,1.7-0.4,2.5-1.3,2.5c-0.7,0-1.6-0.2-2.5-0.6V182.9z"/>
	<path class="st4" d="M190.9,184.1c0-0.6-0.1-1-0.2-1.3s-0.3-0.6-0.6-0.7c-0.3-0.2-0.5-0.3-0.8-0.3c-0.3,0-0.6-0.1-1.1-0.1
		c-0.6,0-1.1,0-1.4,0.1c-0.3,0.1-0.6,0.2-0.9,0.5c-0.3,0.2-0.5,0.6-0.6,1.1c-0.1,0.5-0.2,1.1-0.2,1.8c0,1.4,0.2,2.3,0.5,2.8
		c0.3,0.5,0.9,0.8,1.8,0.8c1.3,0,2.4-0.1,3.3-0.4v-0.7c-0.6,0.1-1.5,0.1-2.7,0.1c-0.1,0-0.2,0-0.3,0c-0.1,0-0.2,0-0.3,0
		c-0.5,0-0.9-0.1-1-0.4c-0.2-0.3-0.3-0.8-0.3-1.6h2.9C190.3,185.6,190.9,185.1,190.9,184.1z M186.3,183.8c0-0.2,0.1-0.4,0.2-0.6
		c0.1-0.2,0.2-0.3,0.3-0.4c0.1-0.1,0.2-0.1,0.4-0.2c0.2,0,0.4-0.1,0.5-0.1c0.1,0,0.4,0,0.7,0c0.7,0,1.2,0.1,1.4,0.2
		c0.2,0.2,0.3,0.6,0.3,1.2c0,0.4-0.3,0.6-0.8,0.6h-2.9C186.2,184.3,186.3,184,186.3,183.8z"/>
	<path class="st4" d="M32.3,198.2v-1h-2v-1.9h-0.7l-0.2,1.9l-1.3,0.2v0.7h1.3v3.5c0,1.6,0.6,2.5,1.7,2.5h1.1v-0.7
		c-0.1,0-0.4-0.1-1.2-0.3c-0.3-0.1-0.4-0.2-0.6-0.4c-0.1-0.2-0.2-0.6-0.2-1.1v-3.5H32.3z"/>
	<path class="st4" d="M34.4,198.9c0.4-0.2,0.7-0.4,0.9-0.4s0.4-0.2,0.7-0.2c0.3-0.1,0.6-0.1,0.9-0.1c0.4,0,0.8,0,1,0.1v-0.9
		c-0.1-0.1-0.5-0.1-1-0.1c-0.1,0-0.3,0-0.4,0c-0.1,0-0.3,0-0.4,0.1c-0.1,0-0.3,0.1-0.4,0.1s-0.2,0.1-0.4,0.2s-0.3,0.1-0.3,0.2
		c-0.1,0-0.2,0.1-0.4,0.2c-0.2,0.1-0.3,0.2-0.3,0.2l-0.3-0.9h-0.7v6.9h1V198.9z"/>
	<path class="st4" d="M40.5,204.2c0.2,0,0.5,0,0.7-0.1s0.5-0.1,0.8-0.2c0.2-0.1,0.5-0.2,0.7-0.3c0.2-0.1,0.4-0.2,0.5-0.2l0.2-0.1
		l0.2,0.8h0.7v-5c0-0.7-0.2-1.2-0.5-1.5s-0.8-0.5-1.4-0.5c0,0,0,0,0,0c-1.4,0-2.5,0.1-3.4,0.4v0.7c1.4-0.1,2.5-0.2,3.3-0.2
		c0.7,0,1.1,0.4,1.1,1.1c0,0,0,0,0,0.1s0,0,0,0.1s0,0.1,0,0.1c0,0.2,0,0.4,0,0.6c-0.3,0-0.5,0-0.8,0c-0.6,0-1.3,0-2.1,0
		c-0.5,0-1,0.2-1.3,0.5c-0.3,0.3-0.5,0.7-0.5,1.3v0.8c0,0.5,0.2,1,0.5,1.3C39.5,204.1,40,204.2,40.5,204.2z M39.7,201.8
		c0-0.2,0.1-0.4,0.2-0.6c0.1-0.2,0.3-0.2,0.6-0.3l2.9-0.2v1.9l-0.5,0.2c-0.3,0.1-0.7,0.2-1.2,0.3s-0.9,0.2-1.2,0.2
		c-0.5,0-0.8-0.3-0.8-0.8V201.8z"/>
	<path class="st4" d="M51.4,204.2v-4.8c0-0.6-0.2-1.1-0.6-1.6c-0.4-0.4-0.9-0.6-1.6-0.6c-0.1,0-0.3,0-0.4,0c-0.1,0-0.2,0-0.3,0.1
		s-0.2,0.1-0.3,0.1s-0.2,0.1-0.3,0.1s-0.2,0.1-0.3,0.1c-0.1,0.1-0.2,0.1-0.3,0.1c0,0-0.1,0.1-0.3,0.2c-0.2,0.1-0.3,0.2-0.3,0.2
		l-0.3-0.8h-0.7v6.9h1v-5.3c0.4-0.2,0.7-0.3,0.9-0.4c0.2-0.1,0.4-0.1,0.7-0.2c0.3-0.1,0.6-0.1,0.9-0.1c0.3,0,0.6,0.1,0.8,0.3
		c0.2,0.2,0.3,0.5,0.3,0.9v4.8H51.4z"/>
	<path class="st4" d="M57,202.9c-0.1,0.1-0.1,0.2-0.2,0.2c-0.1,0-0.2,0.1-0.2,0.1c-0.1,0-0.1,0-0.2,0c0,0,0,0-0.1,0h-3.6v0.7
		c1.6,0.2,2.8,0.2,3.6,0.2c0.5,0,0.9-0.1,1.2-0.4c0.3-0.2,0.5-0.7,0.5-1.3v-0.6c0-0.5-0.1-0.9-0.4-1.2c-0.3-0.3-0.7-0.5-1.3-0.5
		h-2.1c-0.1,0-0.3,0-0.3,0c-0.1,0-0.2,0-0.2-0.1c-0.1,0-0.1-0.1-0.2-0.2c0-0.1-0.1-0.2-0.1-0.4v-0.6c0-0.1,0-0.2,0-0.3
		s0-0.1,0.1-0.2c0-0.1,0.1-0.1,0.3-0.2c0.1,0,0.3-0.1,0.5-0.1h3.4v-0.7c-1.4-0.1-2.6-0.2-3.4-0.2c-0.6,0-1.1,0.1-1.4,0.4
		s-0.4,0.7-0.4,1.3v0.6c0,0.6,0.1,1.1,0.4,1.3c0.3,0.2,0.7,0.4,1.4,0.4h2.1c0.3,0,0.5,0.1,0.6,0.2s0.2,0.3,0.2,0.5v0.6
		C57.1,202.7,57.1,202.8,57,202.9z"/>
	<path class="st4" d="M69.6,204.2v-4.8c0-0.7-0.2-1.2-0.6-1.6s-0.9-0.6-1.5-0.6c-1,0-2,0.3-2.8,1c-0.1-0.3-0.4-0.6-0.7-0.7
		c-0.3-0.2-0.7-0.3-1.2-0.3c-0.1,0-0.3,0-0.4,0c-0.1,0-0.3,0-0.4,0.1c-0.1,0-0.2,0.1-0.3,0.1c-0.1,0-0.2,0.1-0.4,0.1
		c-0.1,0.1-0.2,0.1-0.3,0.2c-0.1,0-0.2,0.1-0.3,0.2c-0.2,0.1-0.3,0.2-0.3,0.2l-0.3-0.8h-0.7v6.9h1v-5.3c0.4-0.2,0.7-0.4,0.9-0.4
		c0.2-0.1,0.4-0.1,0.7-0.2c0.3-0.1,0.6-0.1,0.9-0.1c0.3,0,0.6,0.1,0.9,0.3c0.2,0.2,0.3,0.5,0.3,0.9v4.8h1v-4.8v-0.5
		c0.4-0.3,0.8-0.5,1.2-0.6c0.4-0.1,0.8-0.2,1.3-0.2c0.3,0,0.6,0.1,0.8,0.3s0.3,0.5,0.3,0.9v4.8H69.6z"/>
	<rect x="71.1" y="197.3" class="st4" width="1" height="6.9"/>
	<path class="st4" d="M72.2,196.1v-0.7c0-0.2-0.1-0.3-0.3-0.3h-0.7c-0.2,0-0.3,0.1-0.3,0.3v0.7c0,0.2,0.1,0.3,0.3,0.3h0.7
		C72.1,196.4,72.2,196.3,72.2,196.1z"/>
	<path class="st4" d="M77.4,198.2v-1h-2v-1.9h-0.7l-0.2,1.9l-1.3,0.2v0.7h1.3v3.5c0,1.6,0.6,2.5,1.7,2.5h1.1v-0.7
		c-0.1,0-0.4-0.1-1.2-0.3c-0.3-0.1-0.4-0.2-0.6-0.4c-0.1-0.2-0.2-0.6-0.2-1.1v-3.5H77.4z"/>
	<path class="st4" d="M82.3,198.2v-1h-2v-1.9h-0.7l-0.2,1.9l-1.3,0.2v0.7h1.3v3.5c0,1.6,0.6,2.5,1.7,2.5h1.1v-0.7
		c-0.1,0-0.4-0.1-1.2-0.3c-0.3-0.1-0.4-0.2-0.6-0.4c-0.1-0.2-0.2-0.6-0.2-1.1v-3.5H82.3z"/>
	<path class="st4" d="M89,199.7c0-0.6-0.1-1-0.2-1.3s-0.3-0.6-0.6-0.7s-0.5-0.3-0.8-0.3s-0.6-0.1-1.1-0.1c-0.6,0-1.1,0-1.4,0.1
		c-0.3,0.1-0.6,0.2-0.9,0.5c-0.3,0.2-0.5,0.6-0.6,1.1c-0.1,0.5-0.2,1.1-0.2,1.8c0,1.4,0.2,2.3,0.5,2.8s0.9,0.8,1.8,0.8
		c1.3,0,2.4-0.1,3.3-0.4v-0.7c-0.6,0.1-1.5,0.1-2.7,0.1c-0.1,0-0.2,0-0.3,0c-0.1,0-0.2,0-0.3,0c-0.5,0-0.9-0.1-1-0.4
		c-0.2-0.3-0.3-0.8-0.3-1.6h2.9C88.4,201.2,89,200.7,89,199.7z M84.3,199.4c0-0.2,0.1-0.4,0.2-0.6c0.1-0.2,0.2-0.3,0.3-0.4
		c0.1-0.1,0.2-0.1,0.4-0.2c0.2,0,0.4-0.1,0.5-0.1c0.1,0,0.4,0,0.7,0c0.7,0,1.2,0.1,1.4,0.2c0.2,0.2,0.3,0.6,0.3,1.2
		c0,0.4-0.3,0.6-0.8,0.6h-2.9C84.3,199.9,84.3,199.6,84.3,199.4z"/>
	<path class="st4" d="M90.6,203.1c0.2,0.4,0.4,0.6,0.7,0.9c0.3,0.2,0.7,0.3,1.1,0.3c0.4,0,0.9-0.1,1.4-0.3c0.5-0.2,0.9-0.4,1.1-0.5
		l0.3,0.8h0.7V194H95v3.7c-0.4-0.2-0.8-0.3-1.3-0.4c-0.5-0.1-0.9-0.1-1.2-0.1c-0.5,0-0.9,0.1-1.2,0.3c-0.3,0.2-0.5,0.5-0.7,0.9
		c-0.2,0.4-0.3,0.7-0.3,1.1s-0.1,0.8-0.1,1.3c0,0.4,0,0.9,0.1,1.2C90.3,202.3,90.4,202.7,90.6,203.1z M91.4,198.7
		c0.2-0.4,0.5-0.6,1-0.6c0.8,0,1.7,0.1,2.5,0.3v4.2c-1,0.4-1.8,0.6-2.5,0.6c-0.9,0-1.3-0.8-1.3-2.5C91.1,199.7,91.2,199,91.4,198.7z
		"/>
	<rect x="101.7" y="197.3" class="st4" width="1" height="6.9"/>
	<path class="st4" d="M102.8,196.1v-0.7c0-0.2-0.1-0.3-0.3-0.3h-0.7c-0.2,0-0.3,0.1-0.3,0.3v0.7c0,0.2,0.1,0.3,0.3,0.3h0.7
		C102.7,196.4,102.8,196.3,102.8,196.1z"/>
	<path class="st4" d="M109.9,204.2v-4.8c0-0.6-0.2-1.1-0.6-1.6c-0.4-0.4-0.9-0.6-1.6-0.6c-0.1,0-0.3,0-0.4,0c-0.1,0-0.2,0-0.3,0.1
		s-0.2,0.1-0.3,0.1s-0.2,0.1-0.3,0.1s-0.2,0.1-0.3,0.1c-0.1,0.1-0.2,0.1-0.3,0.1c0,0-0.1,0.1-0.3,0.2c-0.2,0.1-0.3,0.2-0.3,0.2
		l-0.3-0.8h-0.7v6.9h1v-5.3c0.4-0.2,0.7-0.3,0.9-0.4c0.2-0.1,0.4-0.1,0.7-0.2c0.3-0.1,0.6-0.1,0.9-0.1c0.3,0,0.6,0.1,0.8,0.3
		c0.2,0.2,0.3,0.5,0.3,0.9v4.8H109.9z"/>
	<path class="st4" d="M117,204.2c0.2,0,0.5,0,0.7-0.1s0.5-0.1,0.8-0.2c0.2-0.1,0.5-0.2,0.7-0.3c0.2-0.1,0.4-0.2,0.5-0.2l0.2-0.1
		l0.2,0.8h0.7v-5c0-0.7-0.2-1.2-0.5-1.5s-0.8-0.5-1.4-0.5c0,0,0,0,0,0c-1.4,0-2.5,0.1-3.4,0.4v0.7c1.4-0.1,2.5-0.2,3.3-0.2
		c0.7,0,1.1,0.4,1.1,1.1c0,0,0,0,0,0.1s0,0,0,0.1s0,0.1,0,0.1c0,0.2,0,0.4,0,0.6c-0.3,0-0.5,0-0.8,0c-0.6,0-1.3,0-2.1,0
		c-0.5,0-1,0.2-1.3,0.5c-0.3,0.3-0.5,0.7-0.5,1.3v0.8c0,0.5,0.2,1,0.5,1.3C116.1,204.1,116.5,204.2,117,204.2z M116.3,201.8
		c0-0.2,0.1-0.4,0.2-0.6c0.1-0.2,0.3-0.2,0.6-0.3l2.9-0.2v1.9l-0.5,0.2c-0.3,0.1-0.7,0.2-1.2,0.3s-0.9,0.2-1.2,0.2
		c-0.5,0-0.8-0.3-0.8-0.8V201.8z"/>
	<path class="st4" d="M122.3,194v7.7c0,1.6,0.6,2.5,1.7,2.5h1.1v-0.7c-0.1,0-0.4-0.1-1.2-0.3c-0.3-0.1-0.4-0.2-0.6-0.4
		c-0.1-0.2-0.2-0.6-0.2-1.1V194H122.3z"/>
	<path class="st4" d="M127.9,204.2h1.1v-0.7c-0.1,0-0.4-0.1-1.2-0.3c-0.3-0.1-0.4-0.2-0.6-0.4c-0.1-0.2-0.2-0.6-0.2-1.1V194h-1v7.7
		C126.2,203.3,126.8,204.2,127.9,204.2z"/>
	<path class="st4" d="M135.8,204.2c0.2,0,0.5,0,0.7-0.1s0.5-0.1,0.8-0.2c0.2-0.1,0.5-0.2,0.7-0.3c0.2-0.1,0.4-0.2,0.5-0.2l0.2-0.1
		l0.2,0.8h0.7v-5c0-0.7-0.2-1.2-0.5-1.5s-0.8-0.5-1.4-0.5c0,0,0,0,0,0c-1.4,0-2.5,0.1-3.4,0.4v0.7c1.4-0.1,2.5-0.2,3.3-0.2
		c0.7,0,1.1,0.4,1.1,1.1c0,0,0,0,0,0.1s0,0,0,0.1s0,0.1,0,0.1c0,0.2,0,0.4,0,0.6c-0.3,0-0.5,0-0.8,0c-0.6,0-1.3,0-2.1,0
		c-0.5,0-1,0.2-1.3,0.5c-0.3,0.3-0.5,0.7-0.5,1.3v0.8c0,0.5,0.2,1,0.5,1.3C134.9,204.1,135.3,204.2,135.8,204.2z M135,201.8
		c0-0.2,0.1-0.4,0.2-0.6c0.1-0.2,0.3-0.2,0.6-0.3l2.9-0.2v1.9l-0.5,0.2c-0.3,0.1-0.7,0.2-1.2,0.3s-0.9,0.2-1.2,0.2
		c-0.5,0-0.8-0.3-0.8-0.8V201.8z"/>
	<path class="st4" d="M142,198.9c0.4-0.2,0.7-0.4,0.9-0.4s0.4-0.2,0.7-0.2c0.3-0.1,0.6-0.1,0.9-0.1c0.4,0,0.8,0,1,0.1v-0.9
		c-0.1-0.1-0.5-0.1-1-0.1c-0.1,0-0.3,0-0.4,0c-0.1,0-0.3,0-0.4,0.1c-0.1,0-0.3,0.1-0.4,0.1s-0.2,0.1-0.4,0.2s-0.3,0.1-0.3,0.2
		c-0.1,0-0.2,0.1-0.4,0.2c-0.2,0.1-0.3,0.2-0.3,0.2l-0.3-0.9h-0.7v6.9h1V198.9z"/>
	<path class="st4" d="M152.1,199.7c0-0.6-0.1-1-0.2-1.3s-0.3-0.6-0.6-0.7s-0.5-0.3-0.8-0.3s-0.6-0.1-1.1-0.1c-0.6,0-1.1,0-1.4,0.1
		c-0.3,0.1-0.6,0.2-0.9,0.5c-0.3,0.2-0.5,0.6-0.6,1.1c-0.1,0.5-0.2,1.1-0.2,1.8c0,1.4,0.2,2.3,0.5,2.8s0.9,0.8,1.8,0.8
		c1.3,0,2.4-0.1,3.3-0.4v-0.7c-0.6,0.1-1.5,0.1-2.7,0.1c-0.1,0-0.2,0-0.3,0c-0.1,0-0.2,0-0.3,0c-0.5,0-0.9-0.1-1-0.4
		c-0.2-0.3-0.3-0.8-0.3-1.6h2.9C151.5,201.2,152.1,200.7,152.1,199.7z M147.5,199.4c0-0.2,0.1-0.4,0.2-0.6c0.1-0.2,0.2-0.3,0.3-0.4
		c0.1-0.1,0.2-0.1,0.4-0.2c0.2,0,0.4-0.1,0.5-0.1c0.1,0,0.4,0,0.7,0c0.7,0,1.2,0.1,1.4,0.2c0.2,0.2,0.3,0.6,0.3,1.2
		c0,0.4-0.3,0.6-0.8,0.6h-2.9C147.4,199.9,147.5,199.6,147.5,199.4z"/>
	<path class="st4" d="M154.9,204.2c0.2,0,0.5,0,0.7-0.1s0.5-0.1,0.8-0.2c0.2-0.1,0.5-0.2,0.7-0.3c0.2-0.1,0.4-0.2,0.5-0.2l0.2-0.1
		l0.2,0.8h0.7v-5c0-0.7-0.2-1.2-0.5-1.5s-0.8-0.5-1.4-0.5c0,0,0,0,0,0c-1.4,0-2.5,0.1-3.4,0.4v0.7c1.4-0.1,2.5-0.2,3.3-0.2
		c0.7,0,1.1,0.4,1.1,1.1c0,0,0,0,0,0.1s0,0,0,0.1s0,0.1,0,0.1c0,0.2,0,0.4,0,0.6c-0.3,0-0.5,0-0.8,0c-0.6,0-1.3,0-2.1,0
		c-0.5,0-1,0.2-1.3,0.5c-0.3,0.3-0.5,0.7-0.5,1.3v0.8c0,0.5,0.2,1,0.5,1.3C154,204.1,154.4,204.2,154.9,204.2z M154.1,201.8
		c0-0.2,0.1-0.4,0.2-0.6c0.1-0.2,0.3-0.2,0.6-0.3l2.9-0.2v1.9l-0.5,0.2c-0.3,0.1-0.7,0.2-1.2,0.3s-0.9,0.2-1.2,0.2
		c-0.5,0-0.8-0.3-0.8-0.8V201.8z"/>
	<path class="st4" d="M164.4,202.9c-0.1,0.1-0.1,0.2-0.2,0.2c-0.1,0-0.2,0.1-0.2,0.1c-0.1,0-0.1,0-0.2,0c0,0,0,0-0.1,0h-3.6v0.7
		c1.6,0.2,2.8,0.2,3.6,0.2c0.5,0,0.9-0.1,1.2-0.4c0.3-0.2,0.5-0.7,0.5-1.3v-0.6c0-0.5-0.1-0.9-0.4-1.2c-0.3-0.3-0.7-0.5-1.3-0.5
		h-2.1c-0.1,0-0.3,0-0.3,0c-0.1,0-0.2,0-0.2-0.1c-0.1,0-0.1-0.1-0.2-0.2c0-0.1-0.1-0.2-0.1-0.4v-0.6c0-0.1,0-0.2,0-0.3
		s0-0.1,0.1-0.2c0-0.1,0.1-0.1,0.3-0.2c0.1,0,0.3-0.1,0.5-0.1h3.4v-0.7c-1.4-0.1-2.6-0.2-3.4-0.2c-0.6,0-1.1,0.1-1.4,0.4
		s-0.4,0.7-0.4,1.3v0.6c0,0.6,0.1,1.1,0.4,1.3c0.3,0.2,0.7,0.4,1.4,0.4h2.1c0.3,0,0.5,0.1,0.6,0.2s0.2,0.3,0.2,0.5v0.6
		C164.5,202.7,164.5,202.8,164.4,202.9z"/>
	<path class="st4" d="M167.4,202.8c-0.2,0-0.3,0.1-0.3,0.3v0.7c0,0.2,0.1,0.3,0.3,0.3h0.7c0.2,0,0.3-0.1,0.3-0.3v-0.7
		c0-0.2-0.1-0.3-0.3-0.3H167.4z"/>
	<polygon class="st4" points="30.6,29.3 32.8,38.1 35.6,38.1 37.8,29.3 38.6,38.1 41.1,38.1 39.9,25 36.4,25 34.2,34 32,25 28.5,25 
		27.4,38.1 29.8,38.1 	"/>
	<path class="st4" d="M47.4,36c-0.1,0-0.2,0-0.2,0s-0.1,0-0.2,0c-0.1,0-0.1,0-0.2-0.1c0,0-0.1-0.1-0.2-0.1c-0.1,0-0.1-0.1-0.2-0.2
		c0-0.1-0.1-0.2-0.1-0.3l-1.7-6.7h-2.6l1.9,7.1c0.4,1.6,1.4,2.4,2.8,2.4L45.5,43h1.8l1.3-1.8l3.3-12.6h-2.6L47.4,36z"/>
	<path class="st4" d="M54.5,25.9l-0.4,2.7l-1.5,0.5v1.4h1.5v4.2c0,1.2,0.2,2.1,0.6,2.6c0.4,0.5,1,0.8,1.7,0.8h2.2v-1.5
		c-0.1,0-0.5-0.1-1.2-0.4c-0.2-0.1-0.3-0.2-0.4-0.3c-0.1-0.1-0.2-0.3-0.3-0.6c-0.1-0.3-0.1-0.6-0.1-1.1v-3.8h2.1v-1.9h-2.1v-2.7
		H54.5z"/>
	<path class="st4" d="M59.9,24v14.1h2.5v-6.9c0.3-0.2,0.5-0.3,0.7-0.5s0.4-0.2,0.7-0.3c0.3-0.1,0.6-0.1,0.9-0.1s0.6,0.1,0.8,0.3
		c0.2,0.2,0.3,0.5,0.3,1v6.4h2.5v-6.4c0-2.2-1-3.3-2.9-3.3c-0.2,0-0.4,0-0.6,0c-0.2,0-0.4,0.1-0.5,0.1s-0.3,0.1-0.5,0.2
		s-0.3,0.1-0.4,0.2s-0.2,0.1-0.4,0.2c-0.2,0.1-0.3,0.2-0.3,0.2s-0.2,0.1-0.4,0.3V24H59.9z"/>
	<path class="st4" d="M84.7,30.3c0.3-0.5,0.4-1.2,0.4-1.8c0-1-0.3-1.9-0.9-2.5c-0.6-0.7-1.5-1-2.8-1H76v13.2h5.5
		c0.7,0,1.3-0.1,1.8-0.3c0.5-0.2,0.9-0.4,1.2-0.8c0.3-0.3,0.5-0.7,0.7-1.2s0.2-1,0.2-1.6c0-0.8-0.2-1.5-0.6-2
		c-0.4-0.5-0.9-0.9-1.4-1C83.9,31.2,84.3,30.9,84.7,30.3z M78.5,27.2h2.8c0.1,0,0.2,0,0.3,0c0.1,0,0.2,0,0.3,0.1s0.2,0.1,0.3,0.2
		s0.2,0.2,0.2,0.3c0.1,0.1,0.1,0.2,0.2,0.4c0,0.2,0.1,0.3,0.1,0.5c0,0.5-0.1,0.8-0.4,1.1c-0.2,0.3-0.6,0.4-1,0.4h-2.8V27.2z
		 M81.3,35.9l-2.9,0v-3.6h2.9c0.3,0,0.6,0.1,0.8,0.3c0.2,0.2,0.4,0.4,0.5,0.7c0.1,0.3,0.1,0.6,0.1,0.9
		C82.8,35.3,82.3,35.9,81.3,35.9z"/>
	<path class="st4" d="M86.4,28.6v6.4c0,2.2,0.9,3.4,2.8,3.4c0.3,0,0.5,0,0.8-0.1c0.2,0,0.5-0.1,0.7-0.2c0.2-0.1,0.4-0.2,0.5-0.3
		c0.1-0.1,0.3-0.2,0.5-0.3c0.2-0.2,0.4-0.3,0.5-0.3l0.5,1h2v-9.6h-2.5v6.9c-0.3,0.2-0.5,0.4-0.7,0.5c-0.2,0.1-0.4,0.2-0.7,0.3
		c-0.3,0.1-0.6,0.1-0.9,0.1c-0.7,0-1.1-0.4-1.1-1.3v-6.4H86.4z"/>
	<path class="st4" d="M107.1,25.9l-0.4,2.7h-7.8c-0.9,0-1.5,0.2-2,0.7c-0.4,0.5-0.6,1.1-0.6,1.9v0.8c0,1.7,0.9,2.6,2.7,2.6h2.2
		c0.2,0,0.4,0,0.5,0.1c0.1,0.1,0.1,0.3,0.1,0.5v0.4c0,0.4-0.2,0.6-0.6,0.6h-4.5v1.6c0.3,0.2,1,0.3,2.1,0.4c1.1,0.1,2.2,0.1,3.2,0.1
		c0.7,0,1.2-0.2,1.7-0.6c0.4-0.4,0.7-1,0.7-1.9v-0.9c0-1-0.4-1.7-1.1-2.1c-0.4-0.2-0.9-0.3-1.5-0.3h-2.3c-0.3,0-0.4,0-0.6-0.1
		c-0.1-0.1-0.2-0.2-0.2-0.5v-0.4c0-0.3,0-0.4,0.1-0.5c0.1-0.1,0.3-0.1,0.6-0.1h7.2v4.1c0,1.6,0.3,2.6,1,3.1c0.3,0.2,0.8,0.3,1.3,0.3
		h2.1v-1.6c-0.1,0-0.3-0.1-0.8-0.2c-0.5-0.2-0.7-0.3-0.8-0.4c-0.2-0.2-0.3-0.8-0.4-1.6v-3.9h2.1v-1.9h-2.1v-2.7H107.1z"/>
	<path class="st4" d="M119.8,33.8c0.4-0.4,0.7-1,0.7-1.8c0-0.4,0-0.8-0.1-1.2c-0.1-0.3-0.1-0.6-0.2-0.9c-0.1-0.2-0.2-0.5-0.4-0.6
		c-0.2-0.2-0.4-0.3-0.6-0.4c-0.2-0.1-0.4-0.2-0.7-0.2c-0.3-0.1-0.6-0.1-0.9-0.1c-0.3,0-0.7,0-1.1,0c-0.6,0-1.2,0-1.6,0.1
		c-0.4,0.1-0.8,0.2-1.2,0.4c-0.3,0.2-0.6,0.5-0.8,0.8c-0.2,0.4-0.3,0.8-0.4,1.4c-0.1,0.6-0.2,1.3-0.2,2.1c0,0.9,0.1,1.7,0.2,2.3
		c0.1,0.6,0.3,1.1,0.5,1.5c0.2,0.4,0.6,0.7,1,0.9c0.4,0.2,0.9,0.3,1.5,0.3c2.4,0,4-0.2,4.9-0.5V36c-0.9,0.1-2,0.2-3.5,0.2
		c-0.5,0-0.9,0-1.2-0.1c-0.2-0.1-0.5-0.2-0.6-0.5c-0.2-0.3-0.2-0.7-0.2-1.2h3C118.7,34.4,119.4,34.2,119.8,33.8z M117.2,32.6h-2.4
		c0-0.5,0-0.9,0.1-1.2s0.2-0.5,0.3-0.6s0.4-0.2,0.5-0.3s0.5,0,0.9,0c0.6,0,1,0.1,1.1,0.3s0.2,0.6,0.2,1.2
		C118,32.3,117.7,32.6,117.2,32.6z"/>
	<path class="st4" d="M124.4,29.8l-0.4-1.2h-2.1v9.6h2.5V32c0.3-0.4,0.6-0.7,1-0.8c0.4-0.1,0.8-0.2,1.4-0.2c0.6,0,1,0,1.4,0.1v-2.4
		c-0.2-0.1-0.5-0.1-1.1-0.1C126.2,28.5,125.3,28.9,124.4,29.8z"/>
	<path class="st4" d="M131.7,30.9c0-0.1,0.1-0.1,0.1-0.2c0-0.1,0.1-0.1,0.2-0.1c0.1,0,0.2,0,0.4,0h4.3V29c-0.6-0.3-2.3-0.5-5.1-0.5
		c-1.7,0-2.5,0.9-2.5,2.6v0.8c0,0.9,0.2,1.6,0.7,2s1.1,0.6,2,0.6h2.2c0.2,0,0.3,0,0.4,0.1c0.1,0,0.2,0.1,0.2,0.2c0,0.1,0,0.2,0,0.3
		v0.5c0,0.4-0.2,0.6-0.6,0.6h-4.5v1.6c0.5,0.3,2.3,0.5,5.3,0.5c0.2,0,0.4,0,0.5,0c1.2-0.2,1.8-1,1.8-2.5v-1c0-0.3,0-0.7-0.1-1
		s-0.2-0.6-0.4-0.8c-0.2-0.2-0.5-0.4-0.8-0.5s-0.7-0.2-1.2-0.2h-2.3c-0.3,0-0.4,0-0.6-0.1c-0.1-0.1-0.2-0.2-0.2-0.5v-0.4
		C131.6,31.1,131.6,31,131.7,30.9z"/>
	<path class="st5" d="M390.8,135.6l9-1c1.4-3.4,2.5-7,3.2-10.7c0.7-3.6,1.1-7.3,1.2-11.1l-11.3-4.9l10.2-7.7
		c-1.2-6.2-3.3-12.1-6.2-17.5l-9.3,1.4l3.8-9.7c-4-5.2-8.8-9.7-14.3-13.4L364,67l1.2-12.2c-6.8-2.6-14.2-4.1-21.9-4.1l-4.6,8.6
		l-4.9-7.9c-7.8,1.2-15.1,3.9-21.6,7.8l10.4,6.7l-16.1,8.3l0.5-11.6c-6,4.5-11.2,10-15.3,16.3l3.7,8.1l-7.8-0.7
		c-3,6.6-4.9,13.9-5.4,21.5l9.7-7.2l2.1,18l-11.9-5.1c0.3,8.7,2.3,16.9,5.9,24.4l10.3,1l-5.3,7.5c4.4,6.3,9.9,11.7,16.3,16
		l-1.7-14.7l16.7,7.2l-12.3,9.2c7.7,4.6,16.5,7.6,25.9,8.4l4.2-7.7l4.9,7.9c10.2-0.6,19.7-3.7,28-8.7l-12.3-7.9l16.1-8.3l-0.7,14.2
		c6.5-4.5,12.1-10.3,16.5-17c0.5-0.8,1-1.6,1.5-2.4L390.8,135.6z M334.1,106.1l16.7,7.2l-14.5,10.9L334.1,106.1z M382.4,126
		l-14.5,10.9l-2.1-18L382.4,126z M376.6,90.7L362,101.6l-2.1-18L376.6,90.7z M328.8,80.1l3.7-2.7l10.9-8.1v0v0l2.1,18L328.8,80.1
		L328.8,80.1L328.8,80.1z M317.1,85L317.1,85L317.1,85l2.1,18l-16.7-7.2L317.1,85z M306.7,131.4l4.8-17.5l12.7,12.9L306.7,131.4z
		 M336.2,157.6l-2.1-18l16.7,7.2L336.2,157.6z"/>
	<polygon class="st6" points="347.2,43.3 337,43.6 329,43.9 333.6,51.1 333.7,51.4 338.6,59.3 343.2,50.7 343.4,50.4 	"/>
	<polygon class="st6" points="337.8,172.5 337.6,172.8 333.4,180.7 351.5,180.1 347,172.9 346.8,172.6 341.9,164.7 	"/>
	<polygon class="st6" points="362.4,156 374.8,163.9 376,164.7 377.7,165.8 377.8,163.5 377.9,161.9 378.5,147.7 	"/>
	<polygon class="st6" points="382.4,126 365.7,118.8 367.9,136.8 	"/>
	<polygon class="st6" points="362,101.6 376.6,90.7 359.9,83.5 	"/>
	<polygon class="st6" points="365.7,48.9 365.2,54.8 364,67 377.2,61 380.5,59.5 	"/>
	<polygon class="st6" points="350.8,113.2 334.1,106.1 336.2,124.1 	"/>
	<polygon class="st6" points="324.3,126.8 311.5,113.9 306.7,131.4 	"/>
	<polygon class="st6" points="334.1,139.6 336.2,157.6 350.8,146.8 	"/>
	<polygon class="st6" points="307.5,147.7 309.3,162.4 309.7,165.7 311.9,164.1 324.2,154.9 	"/>
	<polygon class="st6" points="291.9,100.7 282.3,107.9 281.6,108.4 277.4,111.5 281.5,113.3 282.2,113.6 294.1,118.7 	"/>
	<polygon class="st6" points="288.1,137.9 287,137.8 280.3,137.2 287.9,153.7 292.4,147.3 293,146.4 298.4,138.9 	"/>
	<polygon class="st6" points="401,134.4 399.7,134.6 390.8,135.6 395.9,142.5 396.6,143.5 397.2,144.2 401.5,150.2 405.1,142.1 
		408.8,133.6 	"/>
	<polygon class="st6" points="309,57.1 307.3,56 307,62.1 307,62.6 306.4,74.1 322.5,65.8 312.1,59.1 311.8,58.9 	"/>
	<polygon class="st6" points="317.1,85 317.1,85 317.1,85 302.6,95.8 319.3,103 	"/>
	<polygon class="st6" points="345.5,87.3 343.4,69.2 343.4,69.2 343.4,69.2 332.5,77.4 328.8,80.1 328.8,80.1 328.8,80.1 	"/>
	<polygon class="st6" points="295.4,87.1 291.7,78.9 291.5,78.4 287.9,70.6 284.5,75.3 277.4,85.4 287.1,86.3 287.7,86.3 	"/>
	<polygon class="st6" points="405.6,81.5 394.3,67.2 391.7,73.7 391.5,74.4 387.6,84.1 396.9,82.7 397.6,82.6 	"/>
	<polygon class="st6" points="409.5,115.1 408.7,107.6 407.4,97.1 403.9,99.7 403.1,100.3 392.9,107.9 404.2,112.8 405.1,113.2 	"/>
	<ellipse class="st7" cx="341.9" cy="207.5" rx="49.1" ry="3.8"/>
</g>
</svg>
